<?xml version="1.0" standalone="no"?>
<!DOCTYPE svg PUBLIC "-//W3C//DTD SVG 1.1//EN" "http://www.w3.org/Graphics/SVG/1.1/DTD/svg11.dtd" >
<svg>
<metadata>
Created by FontForge 20120731 at Fri Sep 16 15:03:04 2016
 By ,,,
Copyright (c) 2016 Monotype Imaging Inc.  All rights reserved.
</metadata>
<defs>
<font id="PosteramaText-Black" horiz-adv-x="745" >
  <font-face 
    font-family="Posterama Text Black"
    font-weight="900"
    font-stretch="normal"
    units-per-em="1000"
    panose-1="2 11 10 4 2 2 0 2 0 0"
    ascent="805"
    descent="-195"
    x-height="495"
    cap-height="700"
    bbox="-350 -288 1304 1064"
    underline-thickness="50"
    underline-position="-75"
    unicode-range="U+000D-FEFF"
  />
<missing-glyph horiz-adv-x="1037" 
d="M240 165q0 -30 -29 -30q-90 0 -143.5 47t-53.5 127q0 77 38 122t98 52q0 151 109 256t259 105t259.5 -105t109.5 -256q60 -7 98 -52t38 -122q0 -80 -53.5 -127t-143.5 -47q-30 0 -30 30v318q0 120 -81 197.5t-197 77.5q-115 0 -196.5 -77.5t-81.5 -197.5v-318zM452 169
q-2 59 -16 106t-30 71.5t-29 61.5t-13 80q0 65 45 110.5t109 45.5q65 0 110 -45.5t45 -110.5q0 -43 -13 -80t-28.5 -61.5t-29.5 -71.5t-16 -106l-2 -55q-2 -29 -29 -29h-72q-27 0 -29 29zM444 -10q0 35 35 35h80q35 0 35 -35v-80q0 -35 -35 -35h-80q-35 0 -35 35v80z" />
    <glyph glyph-name="uniFB00" unicode="ff" horiz-adv-x="760" 
d="M439 340h-37q-26 0 -26 26v102q0 27 26 27h37v14q0 249 216 249q55 0 91 -8q27 -6 24 -30l-12 -101q-1 -13 -5.5 -17.5t-15.5 -4.5q-5 0 -21 1.5t-25 1.5q-69 0 -69 -90v-15h85q26 0 26 -27v-102q0 -26 -26 -26h-85v-316q0 -24 -24 -24h-136q-23 0 -23 24v316zM80 340
h-37q-26 0 -26 26v102q0 27 26 27h37v10q0 249 216 249q60 0 91 -7q27 -6 24 -30l-12 -102q-3 -22 -21 -22q-5 0 -21 2t-25 2q-69 0 -69 -91v-11h57q26 0 26 -27v-102q0 -26 -26 -26h-57v-316q0 -24 -24 -24h-136q-23 0 -23 24v316z" />
    <glyph glyph-name="fi" unicode="fi" horiz-adv-x="683" 
d="M430 658q0 44 28 73.5t73 29.5q46 0 74.5 -29.5t28.5 -73.5q0 -43 -28.5 -72t-74.5 -29t-73.5 28.5t-27.5 72.5zM80 340h-37q-26 0 -26 26v102q0 27 26 27h37v14q0 249 216 249q55 0 91 -8q27 -6 24 -30l-12 -101q-1 -13 -5.5 -17.5t-15.5 -4.5q-5 0 -21 1.5t-25 1.5
q-69 0 -69 -90v-15h85q26 0 26 -27v-102q0 -26 -26 -26h-85v-316q0 -24 -24 -24h-136q-23 0 -23 24v316zM439 469q0 26 26 26h132q27 0 27 -26v-443q0 -26 -27 -26h-132q-26 0 -26 26v443z" />
    <glyph glyph-name="fl" unicode="fl" horiz-adv-x="683" 
d="M80 340h-37q-26 0 -26 26v102q0 27 26 27h37v14q0 249 216 249q55 0 91 -8q27 -6 24 -30l-12 -101q-1 -13 -5.5 -17.5t-15.5 -4.5q-5 0 -21 1.5t-25 1.5q-69 0 -69 -90v-15h85q26 0 26 -27v-102q0 -26 -26 -26h-85v-316q0 -24 -24 -24h-136q-23 0 -23 24v316zM439 729
q0 26 26 26h132q27 0 27 -26v-703q0 -26 -27 -26h-132q-26 0 -26 26v703z" />
    <glyph glyph-name="uniFB03" unicode="ffi" horiz-adv-x="1042" 
d="M789 658q0 44 28 73.5t73 29.5q46 0 74.5 -29.5t28.5 -73.5q0 -43 -28.5 -72t-74.5 -29t-73.5 28.5t-27.5 72.5zM439 340h-37q-26 0 -26 26v102q0 27 26 27h37v14q0 249 216 249q55 0 91 -8q27 -6 24 -30l-12 -101q-1 -13 -5.5 -17.5t-15.5 -4.5q-5 0 -21 1.5t-25 1.5
q-69 0 -69 -90v-15h85q26 0 26 -27v-102q0 -26 -26 -26h-85v-316q0 -24 -24 -24h-136q-23 0 -23 24v316zM80 340h-37q-26 0 -26 26v102q0 27 26 27h37v10q0 249 216 249q60 0 91 -7q27 -6 24 -30l-12 -102q-3 -22 -21 -22q-5 0 -21 2t-25 2q-69 0 -69 -91v-11h57
q26 0 26 -27v-102q0 -26 -26 -26h-57v-316q0 -24 -24 -24h-136q-23 0 -23 24v316zM798 469q0 26 26 26h132q27 0 27 -26v-443q0 -26 -27 -26h-132q-26 0 -26 26v443z" />
    <glyph glyph-name="uniFB04" unicode="ffl" horiz-adv-x="1042" 
d="M439 340h-37q-26 0 -26 26v102q0 27 26 27h37v14q0 249 216 249q55 0 91 -8q27 -6 24 -30l-12 -101q-1 -13 -5.5 -17.5t-15.5 -4.5q-5 0 -21 1.5t-25 1.5q-69 0 -69 -90v-15h85q26 0 26 -27v-102q0 -26 -26 -26h-85v-316q0 -24 -24 -24h-136q-23 0 -23 24v316zM798 729
q0 26 26 26h132q27 0 27 -26v-703q0 -26 -27 -26h-132q-26 0 -26 26v703zM80 340h-37q-26 0 -26 26v102q0 27 26 27h37v10q0 249 216 249q60 0 91 -7q27 -6 24 -30l-12 -102q-3 -22 -21 -22q-5 0 -21 2t-25 2q-69 0 -69 -91v-11h57q26 0 26 -27v-102q0 -26 -26 -26h-57v-316
q0 -24 -24 -24h-136q-23 0 -23 24v316z" />
    <glyph glyph-name="uniFDFC" unicode="&#xfdfc;" horiz-adv-x="1001" arabic-form="isolated" 
d="M39 304h58v-14q0 -61 33 -94.5t93 -33.5q66 0 99.5 48.5t33.5 160.5v312h58v-414q0 -148 -54.5 -210.5t-137.5 -62.5q-80 0 -131.5 55t-51.5 178v75zM512 683h58v-254q0 -85 21 -116t72 -31q47 0 70 25.5t23 82.5v14h58v-50q0 -128 -42.5 -183.5t-108.5 -55.5
q-67 0 -109 48.5t-42 162.5v357zM551 -59q61 -18 135 -18q111 0 168.5 57.5t57.5 184.5v41h58v-70q0 -185 -65.5 -282.5t-192.5 -97.5q-51 0 -81 10zM520 32q0 24 16 39.5t38 15.5q23 0 39 -15.5t16 -39.5q0 -22 -16 -37.5t-39 -15.5q-22 0 -38 15.5t-16 37.5zM697 32
q0 24 16 39.5t38 15.5q23 0 39 -15.5t16 -39.5q0 -22 -16 -37.5t-39 -15.5q-22 0 -38 15.5t-16 37.5z" />
    <glyph glyph-name=".notdef" horiz-adv-x="1037" 
d="M240 165q0 -30 -29 -30q-90 0 -143.5 47t-53.5 127q0 77 38 122t98 52q0 151 109 256t259 105t259.5 -105t109.5 -256q60 -7 98 -52t38 -122q0 -80 -53.5 -127t-143.5 -47q-30 0 -30 30v318q0 120 -81 197.5t-197 77.5q-115 0 -196.5 -77.5t-81.5 -197.5v-318zM452 169
q-2 59 -16 106t-30 71.5t-29 61.5t-13 80q0 65 45 110.5t109 45.5q65 0 110 -45.5t45 -110.5q0 -43 -13 -80t-28.5 -61.5t-29.5 -71.5t-16 -106l-2 -55q-2 -29 -29 -29h-72q-27 0 -29 29zM444 -10q0 35 35 35h80q35 0 35 -35v-80q0 -35 -35 -35h-80q-35 0 -35 35v80z" />
    <glyph glyph-name=".null" horiz-adv-x="0" 
 />
    <glyph glyph-name="nonmarkingreturn" horiz-adv-x="333" 
 />
    <glyph glyph-name="NULL" horiz-adv-x="0" 
 />
    <glyph glyph-name="NULL" horiz-adv-x="0" 
 />
    <glyph glyph-name="CR" unicode="&#xd;" horiz-adv-x="275" 
 />
    <glyph glyph-name="space" unicode=" " horiz-adv-x="275" 
 />
    <glyph glyph-name="exclam" unicode="!" horiz-adv-x="306" 
d="M46 659q-2 22 6.5 31.5t30.5 9.5h140q22 0 30 -9.5t6 -31.5l-31 -426q-2 -18 -8.5 -24.5t-23.5 -6.5h-86q-17 0 -24.5 6.5t-8.5 24.5zM48 74q0 40 29.5 65t75.5 25t75 -25t29 -65t-29 -64.5t-75 -24.5q-47 0 -76 24.5t-29 64.5z" />
    <glyph glyph-name="quotedbl" unicode="&#x22;" horiz-adv-x="435" 
d="M41 679q0 2 -0.5 5.5t-0.5 4.5q0 25 29 25h106q29 0 29 -25q0 -1 -0.5 -4.5t-0.5 -5.5l-17 -154q-3 -25 -26 -25h-76q-24 0 -27 25zM232 679q-2 19 4 27t24 8h105q19 0 25.5 -8t4.5 -27l-18 -154q-3 -25 -26 -25h-76q-24 0 -27 25z" />
    <glyph glyph-name="numbersign" unicode="#" horiz-adv-x="673" 
d="M106 159h-55q-27 0 -27 27v79q0 28 27 28h82l25 114h-71q-27 0 -27 28v79q0 27 27 27h97l31 134q3 15 9.5 20t21.5 5h85q24 0 24 -19q0 -7 -1 -11l-29 -129h99l31 134q3 14 9.5 19.5t21.5 5.5h85q25 0 25 -20q0 -6 -1 -10l-29 -129h56q28 0 28 -27v-79q0 -28 -28 -28h-83
l-26 -114h72q28 0 28 -28v-79q0 -27 -28 -27h-98l-30 -134q-3 -14 -9.5 -19.5t-22.5 -5.5h-85q-24 0 -24 20q0 6 1 10l30 129h-100l-30 -134q-5 -25 -32 -25h-85q-24 0 -24 19q0 7 1 11zM373 293l26 114h-100l-26 -114h100z" />
    <glyph glyph-name="dollar" unicode="$" horiz-adv-x="673" 
d="M96 199q11 17 21 17q6 0 19 -8q62 -42 141 -52v122q-122 17 -179.5 65.5t-57.5 139.5q0 90 64.5 148t172.5 71v68q0 15 4 20.5t16 5.5t16 -5.5t4 -20.5v-64q1 0 9.5 0.5t13.5 0.5t13 -0.5t10 -0.5v64q0 15 4 20.5t16 5.5t16 -5.5t4 -20.5v-68q102 -11 194 -68
q17 -11 17 -22q0 -10 -9 -23l-49 -79q-10 -16 -21 -16q-7 0 -19 6q-59 32 -113 42v-119q123 -17 179.5 -66t56.5 -137q0 -86 -66 -147t-170 -75v-68q0 -15 -4 -20.5t-16 -5.5t-16 5.5t-4 20.5v64q-2 0 -10.5 -0.5t-12.5 -0.5q-5 0 -13 0.5t-10 0.5v-64q0 -15 -4 -20.5
t-16 -5.5t-16 5.5t-4 20.5v66q-127 11 -223 73q-18 12 -18 24q0 8 8 21zM363 429v118q-2 0 -10 0.5t-13 0.5t-13.5 -0.5t-9.5 -0.5v-112zM277 543q-58 -11 -58 -51q0 -39 58 -50v101zM363 266l-46 7v-120q2 0 10 -0.5t13 -0.5q4 0 12.5 0.5t10.5 0.5v113zM403 158
q58 12 58 52q0 37 -58 50v-102z" />
    <glyph glyph-name="percent" unicode="%" horiz-adv-x="886" 
d="M22 520q0 90 50.5 142t134.5 52q83 0 133 -51t50 -137q0 -90 -50 -142t-134 -52q-83 0 -133.5 50.5t-50.5 137.5zM643 693q10 13 17.5 17t23.5 4h99q19 0 19 -13q0 -7 -13 -23l-545 -671q-11 -13 -18.5 -17t-23.5 -4h-99q-18 0 -18 13q0 8 12 23zM206 449q56 0 56 74
t-56 74t-56 -74t56 -74zM496 174q0 90 50 142t135 52q83 0 133 -50.5t50 -137.5q0 -90 -50.5 -142t-134.5 -52q-83 0 -133 51t-50 137zM680 103q27 0 41.5 19.5t14.5 54.5q0 74 -56 74t-56 -74t56 -74z" />
    <glyph glyph-name="ampersand" unicode="&#x26;" horiz-adv-x="763" 
d="M496 49q-93 -67 -211 -67q-125 0 -190 59t-65 154q0 133 139 190q-50 56 -50 127q0 84 65.5 143t178.5 59q110 0 172.5 -53t62.5 -140q0 -128 -149 -191l66 -66q36 33 69 90q10 19 23 19q9 0 20 -7l91 -56q17 -11 17 -24q0 -10 -7 -23q-37 -70 -96 -120l109 -111
q10 -12 10 -18q0 -14 -23 -14h-159q-24 0 -41 17zM350 430q72 25 72 79q0 24 -14.5 39.5t-42.5 15.5t-44 -16t-16 -40q0 -39 45 -78zM270 281q-49 -21 -49 -67q0 -30 21.5 -51.5t57.5 -21.5q44 0 80 26z" />
    <glyph glyph-name="quotesingle" unicode="'" horiz-adv-x="244" 
d="M41 679q0 2 -0.5 5.5t-0.5 4.5q0 25 29 25h106q29 0 29 -25q0 -1 -0.5 -4.5t-0.5 -5.5l-17 -154q-3 -25 -26 -25h-76q-24 0 -27 25z" />
    <glyph glyph-name="parenleft" unicode="(" horiz-adv-x="405" 
d="M288 -154q-13 -10 -24 -10q-12 0 -29 17q-210 226 -210 494q0 274 210 500q17 17 29 17q11 0 24 -10l78 -58q15 -12 15 -21q0 -8 -12 -23q-161 -180 -161 -402t161 -402q12 -15 12 -23q0 -9 -15 -21z" />
    <glyph glyph-name="parenright" unicode=")" horiz-adv-x="405" 
d="M39 -96q-15 12 -15 22q0 8 12 22q161 182 161 402t-161 402q-12 14 -12 22q0 10 15 22l78 58q13 10 24 10q12 0 29 -17q210 -226 210 -494q0 -274 -210 -500q-17 -17 -29 -17q-11 0 -24 10z" />
    <glyph glyph-name="asterisk" unicode="*" horiz-adv-x="496" 
d="M91 347q-15 11 -15 21q0 9 12 21l69 73l-99 19q-25 4 -25 20q0 7 3 14l26 82q6 20 19 20q8 0 20 -6l92 -43l-13 100q-1 4 -1 11q0 21 26 21h86q26 0 26 -21q0 -7 -1 -11l-12 -100l90 43q12 6 20 6q13 0 19 -20l27 -82q3 -7 3 -14q0 -16 -25 -20l-100 -19l70 -73
q12 -12 12 -21q0 -10 -15 -21l-69 -50q-11 -8 -19 -8q-11 0 -20 18l-49 89l-48 -89q-10 -18 -21 -18q-8 0 -19 8z" />
    <glyph glyph-name="plus" unicode="+" horiz-adv-x="673" 
d="M262 229q0 16 -16 16h-160q-27 0 -27 27v96q0 27 27 27h160q16 0 16 16v160q0 27 27 27h95q27 0 27 -27v-160q0 -16 16 -16h160q28 0 28 -27v-96q0 -27 -28 -27h-160q-16 0 -16 -16v-160q0 -27 -27 -27h-95q-27 0 -27 27v160z" />
    <glyph glyph-name="comma" unicode="," horiz-adv-x="296" 
d="M113 -12q-30 7 -49.5 31t-19.5 61q0 43 29.5 70.5t73.5 27.5q48 0 76.5 -27t28.5 -74q0 -52 -41 -129l-34 -63q-9 -16 -18 -21.5t-28 -5.5h-54q-25 0 -25 15q0 7 6 18z" />
    <glyph glyph-name="hyphen" unicode="-" horiz-adv-x="477" 
d="M50 316q0 28 27 28h322q28 0 28 -28v-92q0 -27 -28 -27h-322q-27 0 -27 27v92z" />
    <glyph glyph-name="period" unicode="." horiz-adv-x="296" 
d="M44 82q0 42 29 69t75 27t75 -27t29 -69t-29 -68.5t-75 -26.5t-75 27t-29 68z" />
    <glyph glyph-name="slash" unicode="/" horiz-adv-x="473" 
d="M289 689q7 15 14 20t23 5h122q20 0 20 -15q0 -5 -3 -12l-281 -676q-7 -15 -14 -20t-24 -5h-121q-20 0 -20 15q0 5 3 12z" />
    <glyph glyph-name="zero" unicode="0" horiz-adv-x="673" 
d="M337 -14q-143 0 -224.5 96t-81.5 263q0 172 81.5 270.5t224.5 98.5t224.5 -96.5t81.5 -262.5q0 -172 -81.5 -270.5t-224.5 -98.5zM337 157q54 0 82.5 51.5t28.5 141.5q0 92 -28.5 142.5t-82.5 50.5q-55 0 -83.5 -51t-28.5 -143q0 -91 28.5 -141.5t83.5 -50.5z" />
    <glyph glyph-name="one" unicode="1" horiz-adv-x="452" 
d="M157 512q0 17 -17 17h-82q-27 0 -27 27v117q0 27 27 27h262q27 0 27 -27v-646q0 -27 -27 -27h-136q-27 0 -27 27v485z" />
    <glyph glyph-name="two" unicode="2" horiz-adv-x="673" 
d="M269 275q65 68 93 107.5t28 73.5q0 40 -28 63.5t-77 23.5q-66 0 -138 -51q-15 -10 -21 -10q-8 0 -19 15l-55 84q-9 12 -9 22q0 12 16 25q109 86 246 86q126 0 203.5 -66.5t77.5 -173.5q0 -60 -28 -110t-102 -127l-63 -66h195q28 -1 28 -27v-117q0 -27 -28 -27h-533
q-27 0 -27 16q0 12 14 26z" />
    <glyph glyph-name="three" unicode="3" horiz-adv-x="673" 
d="M89 207q11 16 21 16q8 0 20 -9q80 -57 172 -57q59 0 97.5 24t38.5 63q0 87 -187 87q-30 0 -30 16q0 8 9 20l108 162h-236q-27 1 -27 27v117q0 27 27 27h498q28 0 28 -17q0 -7 -10 -24l-150 -221q79 -18 122 -67.5t43 -125.5q0 -111 -87.5 -185t-237.5 -74q-156 0 -266 86
q-15 12 -15 24q0 9 7 20z" />
    <glyph glyph-name="four" unicode="4" horiz-adv-x="675" 
d="M407 658q30 33 49 46.5t38 13.5q56 0 56 -72v-370h74q31 0 31 -30v-98q0 -29 -31 -29h-74v-90q0 -29 -29 -29h-130q-30 0 -30 29v90h-299q-30 0 -45 13.5t-15 30.5q0 25 32 61zM369 276v143l-122 -143h122z" />
    <glyph glyph-name="five" unicode="5" horiz-adv-x="673" 
d="M98 188q11 19 21 19q7 0 21 -8q76 -45 163 -45q62 0 96 20t34 56q0 75 -139 75q-83 0 -172 -26q-10 -2 -14 -2q-19 0 -18 25l22 365q1 19 8.5 26t25.5 7h414q27 0 27 -27v-111q0 -27 -27 -27h-266q-16 0 -17 -16l-5 -69q50 10 99 10q120 0 188.5 -59t68.5 -161
q0 -111 -83.5 -182.5t-237.5 -71.5q-139 0 -246 70q-18 12 -18 24q0 9 8 23z" />
    <glyph glyph-name="six" unicode="6" horiz-adv-x="673" 
d="M261 672q12 18 21.5 23t29.5 5h159q22 0 22 -13q0 -9 -8 -18l-140 -174q17 5 42 5q112 0 181.5 -65t69.5 -179q0 -119 -85 -194.5t-216 -75.5t-211.5 71t-80.5 191q0 67 22 126t81 140zM240 248q0 -42 27.5 -68t71.5 -26q47 0 76 26.5t29 69.5q0 41 -28.5 67t-72.5 26
q-46 0 -74.5 -26.5t-28.5 -68.5z" />
    <glyph glyph-name="seven" unicode="7" horiz-adv-x="673" 
d="M384 527h-308q-30 0 -30 30v114q0 29 30 29h542q30 0 30 -18q0 -8 -6 -20l-291 -631q-8 -18 -17.5 -24.5t-27.5 -6.5h-136q-28 0 -28 16q0 8 6 20z" />
    <glyph glyph-name="eight" unicode="8" horiz-adv-x="673" 
d="M151 361q-83 41 -83 145q0 93 74 150.5t199 57.5q123 0 193.5 -57t70.5 -151q0 -104 -82 -145q52 -21 81.5 -62.5t29.5 -97.5q0 -106 -83.5 -160.5t-218.5 -54.5q-131 0 -212 54t-81 158q0 116 112 163zM256 491q0 -31 21.5 -48t59.5 -17q36 0 58.5 17t22.5 47
q0 31 -21.5 48.5t-59.5 17.5q-37 0 -59 -17t-22 -48zM235 215q0 -33 25.5 -52t75.5 -19t76.5 19t26.5 52q0 32 -27.5 51t-74.5 19t-74.5 -19t-27.5 -51z" />
    <glyph glyph-name="nine" unicode="9" horiz-adv-x="673" 
d="M328 205q-17 -5 -41 -5q-113 0 -182.5 65t-69.5 179q0 119 85.5 194.5t216.5 75.5t211 -71t80 -191q0 -67 -22 -126t-80 -140l-113 -158q-13 -18 -22 -23t-30 -5h-159q-22 0 -22 13q0 7 8 18zM230 450q0 -41 28 -67t73 -26q46 0 74.5 26.5t28.5 68.5t-28 68t-72 26
q-47 0 -75.5 -26.5t-28.5 -69.5z" />
    <glyph glyph-name="colon" unicode=":" horiz-adv-x="296" 
d="M44 429q0 42 29 69t75 27t75 -27t29 -69t-29 -68.5t-75 -26.5t-75 27t-29 68zM44 82q0 42 29 69t75 27t75 -27t29 -69t-29 -68.5t-75 -26.5t-75 27t-29 68z" />
    <glyph glyph-name="uni003B" unicode=";" horiz-adv-x="296" 
d="M44 429q0 42 29 69t75 27t75 -27t29 -69t-29 -68.5t-75 -26.5t-75 27t-29 68zM113 -12q-30 7 -49.5 31t-19.5 61q0 43 29.5 70.5t73.5 27.5q48 0 76.5 -27t28.5 -74q0 -52 -41 -129l-34 -63q-9 -16 -18 -21.5t-28 -5.5h-54q-25 0 -25 15q0 7 6 18z" />
    <glyph glyph-name="less" unicode="&#x3c;" horiz-adv-x="673" 
d="M71 351q0 15 5 23t19 15l430 224q12 5 18 5q16 0 16 -24v-105q0 -17 -5.5 -25.5t-21.5 -16.5l-256 -127l256 -127q16 -8 21.5 -16.5t5.5 -25.5v-105q0 -24 -16 -24q-6 0 -18 5l-430 224q-14 7 -19 15t-5 23v62z" />
    <glyph glyph-name="equal" unicode="=" horiz-adv-x="673" 
d="M66 487q0 27 28 27h486q27 0 27 -27v-94q0 -28 -27 -28h-486q-28 0 -28 28v94zM66 247q0 28 28 28h486q27 0 27 -28v-94q0 -27 -27 -27h-486q-28 0 -28 27v94z" />
    <glyph glyph-name="greater" unicode="&#x3e;" horiz-adv-x="665" 
d="M105 151q0 17 5.5 25.5t21.5 16.5l256 127l-256 127q-16 8 -21.5 16.5t-5.5 25.5v105q0 24 16 24q6 0 18 -5l430 -224q14 -7 19 -15t5 -23v-62q0 -15 -5 -23t-19 -15l-430 -224q-12 -5 -18 -5q-16 0 -16 24v105z" />
    <glyph glyph-name="question" unicode="?" horiz-adv-x="585" 
d="M167 241q0 56 18.5 88t74.5 66q53 32 73 51t20 42q0 27 -23.5 41t-64.5 14q-71 0 -141 -48q-13 -9 -21 -9t-19 14l-55 85q-9 16 -9 23q0 11 16 24q112 82 241 82q123 0 197 -57.5t74 -152.5q0 -60 -30.5 -104t-101.5 -85q-35 -21 -46.5 -38.5t-11.5 -44.5v-6
q0 -27 -26 -27h-138q-27 0 -27 27v15zM157 74q0 40 29 65t75 25t75 -25t29 -65t-29 -64.5t-75 -24.5t-75 24.5t-29 64.5z" />
    <glyph glyph-name="at" unicode="@" horiz-adv-x="1016" 
d="M716 -80q7 -13 7 -22q0 -14 -20 -27q-116 -72 -263 -72q-176 0 -291 113.5t-115 311.5q0 212 137.5 351t356.5 139q110 0 198.5 -32t143.5 -87t84 -125t29 -150q0 -146 -69.5 -229.5t-173.5 -83.5q-112 0 -151 99q-68 -87 -169 -87q-71 0 -117 52.5t-46 138.5
q0 110 66.5 198t160.5 88q77 0 122 -66l7 27q5 18 12 24t24 6h85q29 0 29 -21q0 -4 -2 -12l-28 -108q-21 -81 -21 -130q0 -31 11.5 -50t33.5 -19q36 0 59 45t23 123q0 122 -77 190.5t-234 68.5q-159 0 -253.5 -97.5t-94.5 -251.5q0 -137 73.5 -211.5t193.5 -74.5
q103 0 191 52q14 8 22 8q11 0 21 -17zM462 159q40 0 69 44.5t29 90.5q0 28 -14 45.5t-40 17.5q-38 0 -65.5 -43.5t-27.5 -91.5q0 -29 12.5 -46t36.5 -17z" />
    <glyph glyph-name="A" unicode="A" 
d="M318 664q15 29 27 40.5t28 11.5q27 0 54 -52l317 -631q6 -11 6 -18q0 -15 -23 -15h-142q-20 0 -28 5t-15 21l-35 73q-6 13 -19 13h-237q-13 0 -19 -13l-34 -73q-7 -16 -15.5 -21t-26.5 -5h-137q-23 0 -23 15q0 9 5 18zM423 262q11 0 11 7q0 5 -2 8l-63 132l-62 -132
q-3 -5 -3 -8q0 -7 11 -7h108z" />
    <glyph glyph-name="B" unicode="B" horiz-adv-x="691" 
d="M70 673q0 27 27 27h264q137 0 208 -46t71 -150q0 -99 -88 -141q52 -16 81 -55t29 -95q0 -213 -300 -213h-265q-27 0 -27 27v646zM349 430q51 0 74 13t23 43t-22.5 42.5t-74.5 12.5h-73q-10 0 -13 -3.5t-3 -12.5v-79q0 -9 3 -12.5t13 -3.5h73zM362 159q56 0 80 14t24 45
t-24.5 44.5t-79.5 13.5h-86q-10 0 -13 -3t-3 -13v-85q0 -9 3 -12.5t13 -3.5h86z" />
    <glyph glyph-name="C" unicode="C" horiz-adv-x="713" 
d="M683 122q6 -9 6 -17q0 -12 -16 -25q-115 -94 -262 -94q-163 0 -269.5 102.5t-106.5 257.5q0 160 108.5 264t275.5 104q146 0 259 -95q12 -11 12 -20q0 -8 -7 -18l-65 -92q-9 -13 -20 -13q-7 0 -20 8q-78 55 -160 55t-134.5 -52.5t-52.5 -137.5q0 -83 52.5 -136t134.5 -53
q87 0 162 57q12 9 21 9t18 -12z" />
    <glyph glyph-name="D" unicode="D" horiz-adv-x="773" 
d="M70 673q0 27 27 27h256q183 0 284 -92t101 -250q0 -165 -106 -261.5t-297 -96.5h-238q-27 0 -27 27v646zM335 171q102 0 154.5 48t52.5 134q0 81 -52.5 128.5t-150.5 47.5h-63q-10 0 -13 -3.5t-3 -12.5v-326q0 -9 3 -12.5t13 -3.5h59z" />
    <glyph glyph-name="E" unicode="E" horiz-adv-x="595" 
d="M70 673q0 27 27 27h427q28 0 28 -27v-111q0 -27 -28 -27h-248q-10 0 -13 -3.5t-3 -12.5v-70q0 -9 3 -12t13 -3h215q27 0 27 -28v-109q0 -27 -27 -27h-215q-10 0 -13 -3.5t-3 -12.5v-73q0 -9 3 -12.5t13 -3.5h249q28 0 28 -27v-111q0 -27 -28 -27h-428q-27 0 -27 27v646z
" />
    <glyph glyph-name="F" unicode="F" horiz-adv-x="588" 
d="M70 673q0 27 27 27h435q27 0 27 -27v-111q0 -27 -27 -27h-256q-10 0 -13 -3.5t-3 -12.5v-96q0 -10 3 -13t13 -3h223q27 0 27 -28v-110q0 -27 -27 -27h-223q-10 0 -13 -3.5t-3 -12.5v-199q0 -27 -28 -27h-135q-27 0 -27 27v646z" />
    <glyph glyph-name="G" unicode="G" horiz-adv-x="764" 
d="M523 329q0 28 27 28h136q27 0 27 -28v-233q0 -29 -25 -42q-136 -68 -278 -68q-163 0 -269 99t-106 258q0 166 107.5 268.5t276.5 102.5q147 0 263 -79q18 -12 18 -25q0 -9 -8 -20l-56 -88q-11 -17 -23 -17q-9 0 -20 7q-83 47 -172 47q-88 0 -139 -53.5t-51 -137.5
t50.5 -137t131.5 -53q57 0 94 15q16 5 16 22v134z" />
    <glyph glyph-name="H" unicode="H" horiz-adv-x="761" 
d="M70 673q0 27 27 27h135q28 0 28 -27v-214q0 -9 3 -12.5t13 -3.5h208q16 0 16 16v214q0 27 28 27h135q28 0 28 -27v-646q0 -27 -28 -27h-135q-28 0 -28 27v227q0 16 -16 16h-208q-10 0 -13 -3.5t-3 -12.5v-227q0 -27 -28 -27h-135q-27 0 -27 27v646z" />
    <glyph glyph-name="I" unicode="I" horiz-adv-x="330" 
d="M70 673q0 27 27 27h135q28 0 28 -27v-646q0 -27 -28 -27h-135q-27 0 -27 27v646z" />
    <glyph glyph-name="J" unicode="J" horiz-adv-x="345" 
d="M-45 -56q1 23 19 23q5 0 20 -1.5t24 -1.5q34 0 52.5 24t18.5 70v615q0 27 27 27h136q27 0 27 -27v-626q0 -252 -228 -252q-56 0 -87 8q-25 6 -22 31z" />
    <glyph glyph-name="K" unicode="K" horiz-adv-x="724" 
d="M70 673q0 27 27 27h135q28 0 28 -27v-646q0 -27 -28 -27h-135q-27 0 -27 27v646zM285 329q-9 13 -9 23q0 12 10 26l200 294q11 17 20.5 22.5t29.5 5.5h156q22 0 22 -14q0 -7 -6 -16l-224 -311l233 -329q7 -10 7 -17q0 -13 -23 -13h-160q-21 0 -30.5 5t-20.5 22z" />
    <glyph glyph-name="L" unicode="L" horiz-adv-x="574" 
d="M70 673q0 27 27 27h135q28 0 28 -27v-484q0 -9 3 -12.5t13 -3.5h248q27 0 27 -27v-119q0 -27 -27 -27h-427q-27 0 -27 27v646z" />
    <glyph glyph-name="M" unicode="M" horiz-adv-x="857" 
d="M70 672q0 39 25 39q15 0 44 -30l290 -307l289 307q30 30 44 30q26 0 26 -39v-645q0 -27 -28 -27h-135q-28 0 -28 27v277l-131 -145q-25 -26 -38 -26q-14 0 -37 26l-131 145v-277q0 -27 -28 -27h-135q-27 0 -27 27v645z" />
    <glyph glyph-name="N" unicode="N" horiz-adv-x="766" 
d="M70 673q0 41 25 41q18 0 55 -34l356 -319v312q0 27 27 27h136q27 0 27 -27v-646q0 -41 -25 -41q-18 0 -55 34l-356 319v-312q0 -27 -28 -27h-135q-27 0 -27 27v646z" />
    <glyph glyph-name="O" unicode="O" horiz-adv-x="825" 
d="M35 348q0 160 106 263t271 103t271.5 -102t106.5 -262t-106.5 -262t-273.5 -102q-163 0 -269 101.5t-106 260.5zM411 160q79 0 131 52.5t52 136.5q0 86 -51.5 138t-130.5 52t-130 -52t-51 -138q0 -85 51 -137t129 -52z" />
    <glyph glyph-name="P" unicode="P" horiz-adv-x="684" 
d="M70 673q0 27 27 27h244q314 0 314 -254q0 -128 -81.5 -194t-237.5 -66h-60q-10 0 -13 -3t-3 -12v-144q0 -27 -28 -27h-135q-27 0 -27 27v646zM328 351q132 0 132 94q0 49 -32.5 69.5t-99.5 20.5h-52q-10 0 -13 -3.5t-3 -12.5v-152q0 -9 3 -12.5t13 -3.5h52z" />
    <glyph glyph-name="Q" unicode="Q" horiz-adv-x="825" 
d="M372 -12q-149 12 -243 111.5t-94 249.5q0 160 106 262.5t270 102.5q166 0 272.5 -102.5t106.5 -262.5q0 -118 -62.5 -206t-167.5 -125l96 -148q6 -9 6 -16q0 -15 -25 -15h-136q-22 0 -32.5 6t-22.5 25zM411 160q79 0 131 52t52 137q0 86 -52 138t-131 52q-78 0 -129 -52
t-51 -138q0 -85 51 -137t129 -52z" />
    <glyph glyph-name="R" unicode="R" horiz-adv-x="698" 
d="M70 673q0 27 27 27h252q304 0 304 -233q0 -139 -118 -202l153 -233q6 -9 6 -17q0 -15 -23 -15h-150q-34 0 -54 31l-108 177q-9 14 -26 14h-57q-10 0 -13 -3t-3 -13v-179q0 -27 -28 -27h-135q-27 0 -27 27v646zM338 379q120 0 120 80q0 41 -29.5 58.5t-90.5 17.5h-62
q-10 0 -13 -3.5t-3 -12.5v-124q0 -9 3 -12.5t13 -3.5h62z" />
    <glyph glyph-name="S" unicode="S" horiz-adv-x="608" 
d="M80 208q9 15 20 15q8 0 20 -9q81 -60 169 -60q89 0 89 50q0 24 -24.5 37t-94.5 30q-112 28 -166.5 77t-54.5 139q0 107 75 167t195 60q142 0 252 -89q12 -9 12 -21q0 -10 -7 -20l-60 -92q-9 -13 -19 -13t-19 8q-81 59 -157 59q-36 0 -56 -13.5t-20 -35.5q0 -25 23 -37
t87 -28q118 -29 174 -79t56 -137q0 -107 -77 -168.5t-206 -61.5q-149 0 -261 88q-16 12 -16 24q0 10 9 23z" />
    <glyph glyph-name="T" unicode="T" horiz-adv-x="608" 
d="M209 511q0 16 -16 16h-151q-27 0 -27 27v119q0 27 27 27h524q27 0 27 -27v-119q0 -27 -27 -27h-151q-16 0 -16 -16v-484q0 -27 -27 -27h-136q-27 0 -27 27v484z" />
    <glyph glyph-name="U" unicode="U" horiz-adv-x="775" 
d="M65 673q0 27 27 27h135q28 0 28 -27v-356q0 -157 132 -157q65 0 99 40.5t34 116.5v356q0 27 27 27h135q28 0 28 -27v-370q0 -155 -89.5 -236t-239.5 -81q-145 0 -230.5 79.5t-85.5 235.5v372z" />
    <glyph glyph-name="V" unicode="V" 
d="M1 668q-5 9 -5 17q0 15 23 15h142q19 0 29 -6.5t19 -25.5l168 -343l165 343q10 19 20 25.5t29 6.5h136q23 0 23 -14q0 -8 -6 -18l-323 -635q-14 -29 -24.5 -40.5t-23.5 -11.5q-12 0 -22 11.5t-25 40.5z" />
    <glyph glyph-name="W" unicode="W" horiz-adv-x="987" 
d="M5 667q-5 12 -5 18q0 15 25 15h142q19 0 27.5 -5.5t16.5 -25.5l115 -292l129 279q13 26 21 35t19 9t18.5 -9t20.5 -35l128 -277l114 290q8 19 16.5 25t28.5 6h142q24 0 24 -16q0 -8 -4 -17l-265 -632q-13 -31 -21.5 -41.5t-19.5 -10.5q-10 0 -17.5 9.5t-22.5 39.5
l-143 305l-143 -305q-14 -29 -22 -39t-18 -10q-11 0 -19.5 10.5t-21.5 41.5z" />
    <glyph glyph-name="X" unicode="X" horiz-adv-x="705" 
d="M229 351l-213 319q-6 9 -6 16q0 14 23 14h163q19 0 28.5 -5.5t21.5 -24.5l109 -177l115 181q10 16 19.5 21t27.5 5h157q23 0 23 -13q0 -7 -7 -17l-213 -317l217 -323q6 -9 6 -16q0 -14 -22 -14h-163q-20 0 -29 5.5t-21 24.5l-115 182l-118 -186q-10 -16 -19 -21t-27 -5
h-158q-23 0 -23 14q0 8 7 16z" />
    <glyph glyph-name="Y" unicode="Y" horiz-adv-x="688" 
d="M251 253l-250 417q-6 9 -6 16q0 14 22 14h150q20 0 29.5 -5.5t19.5 -23.5l131 -234l131 234q10 18 19.5 23.5t29.5 5.5h145q21 0 21 -14q0 -7 -6 -16l-246 -412v-231q0 -27 -27 -27h-136q-27 0 -27 27v226z" />
    <glyph glyph-name="Z" unicode="Z" horiz-adv-x="644" 
d="M310 527h-246q-27 1 -27 27v119q0 27 27 27h519q26 0 26 -16q0 -10 -7 -21l-281 -490h256q28 0 28 -27v-119q0 -27 -28 -27h-529q-28 0 -28 17q0 6 7 20z" />
    <glyph glyph-name="bracketleft" unicode="[" horiz-adv-x="407" 
d="M68 869q0 28 27 28h257q26 0 26 -27v-91q0 -26 -26 -26h-97q-10 0 -13 -3.5t-3 -13.5v-775q0 -9 3 -12.5t13 -3.5h97q26 0 26 -27v-90q0 -27 -26 -27h-257q-27 0 -27 28v1040z" />
    <glyph glyph-name="backslash" unicode="\" horiz-adv-x="473" 
d="M8 687q-3 7 -3 12q0 15 20 15h121q17 0 24.5 -5t13.5 -20l281 -676q3 -7 3 -12q0 -15 -20 -15h-122q-16 0 -23 5t-14 20z" />
    <glyph glyph-name="bracketright" unicode="]" horiz-adv-x="407" 
d="M29 -82q0 27 27 27h96q17 0 17 16v775q0 10 -3.5 13.5t-13.5 3.5h-96q-27 0 -27 26v91q0 27 27 27h256q27 0 27 -28v-1040q0 -28 -27 -28h-256q-27 0 -27 27v90z" />
    <glyph glyph-name="asciicircum" unicode="^" horiz-adv-x="546" 
d="M118 444q-6 4 -18.5 10.5t-22 11.5t-19 11.5t-15 12t-5.5 9.5q0 7 9 18l150 174q17 20 42 20h67q26 0 43 -20l150 -174q8 -9 8 -18q0 -8 -40.5 -34.5t-57.5 -26.5q-11 0 -23 15l-114 134q-4 -5 -42 -53t-61 -72t-33 -24q-8 0 -18 6z" />
    <glyph glyph-name="underscore" unicode="_" horiz-adv-x="500" 
d="M10 -97q0 28 27 28h426q27 0 27 -28v-65q0 -28 -27 -28h-426q-27 0 -27 28v65z" />
    <glyph glyph-name="grave" unicode="`" horiz-adv-x="500" 
d="M118 971q15 11 28 11q12 0 29 -11l183 -137q12 -9 12 -18q0 -8 -12 -19l-47 -36q-13 -8 -21 -8q-10 0 -26 9l-205 120q-17 11 -17 22t14 21z" />
    <glyph glyph-name="a" unicode="a" horiz-adv-x="567" 
d="M329 22q-41 -32 -111 -32q-86 0 -136.5 43t-50.5 117q0 73 50.5 115.5t136.5 42.5q67 0 111 -28q-6 75 -98 75q-13 0 -35.5 -1.5t-28.5 -1.5q-12 0 -16.5 5t-6.5 19l-11 93q-1 15 4 21.5t20 9.5q40 8 101 8q254 0 254 -252v-238q0 -18 -17 -18h-148q-18 0 -18 18v4z
M217 150q0 -26 16 -42t41 -16t41.5 15.5t16.5 40.5q0 27 -17 42.5t-41 15.5q-25 0 -41 -15t-16 -41z" />
    <glyph glyph-name="b" unicode="b" horiz-adv-x="606" 
d="M60 730q0 25 25 25h133q26 0 26 -25v-221q0 -14 14 -14h15q143 0 221.5 -61t78.5 -183q0 -120 -79 -185.5t-220 -65.5h-189q-25 0 -25 25v705zM269 155q56 0 85.5 25t29.5 71q0 89 -114 89h-12q-14 0 -14 -14v-156q0 -15 14 -15h11z" />
    <glyph glyph-name="c" unicode="c" horiz-adv-x="541" 
d="M512 86q5 -8 5 -16q0 -12 -10 -19q-45 -32 -90 -48t-109 -16q-121 0 -198 71.5t-77 187.5q0 117 76.5 189.5t196.5 72.5q113 0 201 -65q11 -8 11 -20q0 -9 -5 -15l-58 -95q-7 -12 -18 -12q-9 0 -18 6q-59 38 -107 38q-43 0 -66.5 -28t-23.5 -70t23.5 -69t67.5 -27
q57 0 106 37q9 6 17 6q11 0 19 -12z" />
    <glyph glyph-name="d" unicode="d" horiz-adv-x="606" 
d="M331 0q-143 0 -220.5 62t-77.5 183t81 185.5t223 64.5h11q14 0 14 14v221q0 25 26 25h133q25 0 25 -25v-705q0 -25 -25 -25h-190zM348 155q14 0 14 15v156q0 14 -14 14h-11q-54 0 -84.5 -25t-30.5 -69q0 -91 115 -91h11z" />
    <glyph glyph-name="e" unicode="e" horiz-adv-x="588" 
d="M524 82q5 -10 5 -16q0 -13 -16 -22q-84 -57 -213 -57q-122 0 -194.5 72.5t-72.5 186.5q0 115 73.5 188.5t190.5 73.5q118 0 188 -71.5t70 -186.5v-29q0 -19 -18 -19h-317q6 -35 33 -54.5t67 -19.5q71 0 127 33q14 8 23 8q11 0 16 -12zM369 312q-2 33 -21 53t-51 20
q-29 0 -48.5 -19t-26.5 -54h147z" />
    <glyph glyph-name="f" unicode="f" horiz-adv-x="401" 
d="M80 340h-37q-26 0 -26 26v102q0 27 26 27h37v14q0 249 216 249q55 0 91 -8q27 -6 24 -30l-12 -101q-1 -13 -5.5 -17.5t-15.5 -4.5q-5 0 -21 1.5t-25 1.5q-69 0 -69 -90v-15h85q26 0 26 -27v-102q0 -26 -26 -26h-85v-316q0 -24 -24 -24h-136q-23 0 -23 24v316z" />
    <glyph glyph-name="g" unicode="g" horiz-adv-x="605" 
d="M151 -76q6 17 16 17q1 0 36 -8.5t68 -8.5q42 0 66.5 18.5t24.5 49.5q0 8 -8 8h-20q-141 0 -221 60t-80 185q0 119 80 184.5t222 65.5h186q25 0 25 -25v-440q0 -127 -67.5 -194t-195.5 -67q-96 0 -151 26q-14 6 -14 20q0 5 4 19zM348 155q14 0 14 14v156q0 15 -14 15h-11
q-56 0 -85.5 -25t-29.5 -70q0 -90 114 -90h12z" />
    <glyph glyph-name="h" unicode="h" horiz-adv-x="625" 
d="M60 730q0 25 25 25h133q26 0 26 -25v-284q49 59 133 59q192 0 192 -238v-247q0 -20 -19 -20h-145q-20 0 -20 20v223q0 101 -70 101q-71 0 -71 -101v-223q0 -20 -19 -20h-146q-19 0 -19 20v710z" />
    <glyph glyph-name="i" unicode="i" horiz-adv-x="304" 
d="M50 658q0 44 28 73.5t74 29.5t74 -29.5t28 -73.5t-28 -72.5t-74 -28.5t-74 28.5t-28 72.5zM60 469q0 26 26 26h131q27 0 27 -26v-443q0 -26 -27 -26h-131q-26 0 -26 26v443z" />
    <glyph glyph-name="j" unicode="j" horiz-adv-x="306" 
d="M54 658q0 44 28 73.5t73 29.5q46 0 74.5 -29.5t28.5 -73.5q0 -43 -28.5 -72t-74.5 -29t-73.5 28.5t-27.5 72.5zM-65 -94q3 22 19 22q5 0 19.5 -2t23.5 -2q66 0 66 93v454q0 24 24 24h137q24 0 24 -23v-458q0 -245 -219 -245q-52 0 -83 7q-25 5 -22 30z" />
    <glyph glyph-name="k" unicode="k" horiz-adv-x="612" 
d="M60 729q0 26 26 26h131q27 0 27 -26v-703q0 -26 -27 -26h-131q-26 0 -26 26v703zM262 233q-6 11 -6 18t6 18l122 207q11 19 35 19h163q14 0 14 -12q0 -7 -4 -12l-134 -213l152 -235q4 -8 4 -11q0 -12 -15 -12h-168q-24 0 -35 18z" />
    <glyph glyph-name="l" unicode="l" horiz-adv-x="304" 
d="M60 729q0 26 26 26h131q27 0 27 -26v-703q0 -26 -27 -26h-131q-26 0 -26 26v703z" />
    <glyph glyph-name="m" unicode="m" horiz-adv-x="928" 
d="M60 470q0 25 25 25h133q26 0 26 -25v-24q49 59 132 59q101 0 148 -81q70 81 166 81q183 0 183 -238v-247q0 -20 -20 -20h-145q-20 0 -20 20v223q0 102 -64 102q-66 0 -66 -102v-223q0 -20 -19 -20h-145q-20 0 -20 20v223q0 102 -64 102q-66 0 -66 -102v-223
q0 -20 -19 -20h-146q-19 0 -19 20v450z" />
    <glyph glyph-name="n" unicode="n" horiz-adv-x="625" 
d="M60 470q0 25 25 25h133q26 0 26 -25v-24q49 59 133 59q192 0 192 -238v-247q0 -20 -19 -20h-145q-20 0 -20 20v223q0 101 -70 101q-71 0 -71 -101v-223q0 -20 -19 -20h-146q-19 0 -19 20v450z" />
    <glyph glyph-name="o" unicode="o" horiz-adv-x="625" 
d="M33 246q0 115 77.5 188.5t201.5 73.5t202 -73.5t78 -187.5q0 -115 -78 -187.5t-203 -72.5q-124 0 -201 72.5t-77 186.5zM311 151q39 0 66 27t27 69q0 43 -27.5 70.5t-65.5 27.5q-37 0 -63 -27.5t-26 -70.5t25.5 -69.5t63.5 -26.5z" />
    <glyph glyph-name="p" unicode="p" horiz-adv-x="606" 
d="M60 470q0 25 25 25h190q143 0 220.5 -61.5t77.5 -183.5t-81 -186t-223 -64h-11q-14 0 -14 -14v-191q0 -25 -26 -25h-133q-25 0 -25 25v675zM269 155q55 0 85 25t30 69q0 91 -115 91h-11q-14 0 -14 -15v-156q0 -14 14 -14h11z" />
    <glyph glyph-name="q" unicode="q" horiz-adv-x="606" 
d="M362 -14q0 14 -14 14h-14q-141 0 -221 60t-80 185q0 119 80 184.5t222 65.5h186q25 0 25 -25v-675q0 -25 -25 -25h-133q-26 0 -26 25v191zM348 155q14 0 14 14v156q0 15 -14 15h-11q-56 0 -85.5 -25t-29.5 -70q0 -90 114 -90h12z" />
    <glyph glyph-name="r" unicode="r" horiz-adv-x="433" 
d="M60 470q0 25 25 25h133q26 0 26 -25v-35q48 71 137 71h7q26 0 26 -27v-123q0 -26 -26 -26h-45q-56 0 -77.5 -25.5t-21.5 -93.5v-191q0 -20 -19 -20h-146q-19 0 -19 20v450z" />
    <glyph glyph-name="s" unicode="s" horiz-adv-x="502" 
d="M71 156q6 11 15 11q6 0 18 -7q29 -18 68.5 -30.5t69.5 -12.5q47 0 47 26q0 13 -13 19t-54 17q-15 4 -23 6q-84 23 -124.5 59.5t-40.5 99.5q0 78 58.5 121t153.5 43q127 0 209 -59q10 -7 10 -15q0 -3 -6 -15l-45 -78q-6 -10 -14 -10t-17 6q-72 41 -126 41q-40 0 -40 -25
q0 -13 17 -21t66 -20q91 -22 131.5 -58t40.5 -102q0 -77 -57 -121t-166 -44q-130 0 -216 61q-13 9 -13 16q0 6 6 16z" />
    <glyph glyph-name="t" unicode="t" horiz-adv-x="401" 
d="M107 340h-69q-26 0 -26 26v102q0 27 26 27h69v114q0 26 26 26h130q27 0 27 -26v-114h69q26 0 26 -27v-102q0 -26 -26 -26h-69v-314q0 -26 -27 -26h-130q-26 0 -26 26v314z" />
    <glyph glyph-name="u" unicode="u" horiz-adv-x="619" 
d="M56 477q0 18 17 18h149q18 0 18 -18v-228q0 -98 69 -98t69 98v228q0 18 17 18h150q18 0 18 -18v-238q0 -125 -66.5 -188.5t-187.5 -63.5q-122 0 -187.5 63t-65.5 188v239z" />
    <glyph glyph-name="v" unicode="v" horiz-adv-x="583" 
d="M4 471q-4 7 -4 13q0 11 16 11h159q13 0 19 -4.5t13 -18.5l88 -168l87 168q6 13 12.5 18t18.5 5h153q18 0 18 -13q0 -6 -4 -11l-250 -454q-21 -36 -38 -36q-19 0 -39 36z" />
    <glyph glyph-name="w" unicode="w" horiz-adv-x="847" 
d="M7 471q-4 10 -4 13q0 11 15 11h157q12 0 18 -4.5t13 -18.5l88 -170l100 168q16 25 31 25t31 -25l101 -168l87 170q7 14 12.5 18.5t17.5 4.5h154q15 0 15 -11q0 -3 -4 -13l-226 -453q-17 -34 -36 -34q-17 0 -38 34l-115 188l-117 -188q-21 -34 -38 -34q-19 0 -36 34z" />
    <glyph glyph-name="x" unicode="x" horiz-adv-x="573" 
d="M164 250l-147 221q-4 5 -4 12q0 12 14 12h162q23 0 35 -19l63 -99l63 99q12 19 35 19h162q14 0 14 -12q0 -7 -4 -12l-148 -214l161 -234q4 -8 4 -11q0 -12 -15 -12h-175q-23 0 -35 18l-63 97l-63 -97q-12 -18 -35 -18h-174q-15 0 -15 12q0 3 4 11z" />
    <glyph glyph-name="y" unicode="y" horiz-adv-x="587" 
d="M197 37l-193 435q-2 8 -2 11q0 12 14 12h154q26 0 33 -20l94 -221l93 221q7 20 33 20h149q16 0 16 -14q0 -5 -3 -13l-302 -675q-11 -23 -25 -23h-162q-15 0 -15 12q0 5 3 11z" />
    <glyph glyph-name="z" unicode="z" horiz-adv-x="543" 
d="M224 340h-163q-28 0 -28 26v103q0 26 24 26h437q19 0 19 -15q0 -8 -5 -15l-199 -310h174q27 0 27 -25v-104q0 -26 -27 -26h-445q-20 0 -20 14q0 8 5 14z" />
    <glyph glyph-name="braceleft" unicode="{" horiz-adv-x="416" 
d="M112 168q0 50 -19 75.5t-62 33.5q-13 2 -17.5 7.5t-4.5 17.5v96q0 12 4.5 17.5t17.5 7.5q43 8 62 33.5t19 75.5v143q0 224 250 224q14 0 19.5 -5t5.5 -18v-100q0 -14 -4.5 -18t-19.5 -5q-44 -3 -62 -26t-18 -75v-132q0 -70 -25.5 -109t-85.5 -61q60 -22 85.5 -61
t25.5 -109v-132q0 -52 18 -75t62 -26q15 -1 19.5 -5t4.5 -18v-100q0 -13 -5.5 -18t-19.5 -5q-250 0 -250 224v143z" />
    <glyph glyph-name="bar" unicode="|" horiz-adv-x="293" 
d="M72 773q0 27 27 27h95q27 0 27 -27v-876q0 -27 -27 -27h-95q-27 0 -27 27v876z" />
    <glyph glyph-name="braceright" unicode="}" horiz-adv-x="416" 
d="M29 -76q0 14 4.5 18t18.5 5q45 3 63 26t18 75v132q0 70 25.5 109t85.5 61q-60 22 -85.5 61t-25.5 109v132q0 52 -18 75t-63 26q-14 1 -18.5 5t-4.5 18v100q0 23 25 23q250 0 250 -224v-143q0 -50 19 -75.5t62 -33.5q13 -2 17.5 -7.5t4.5 -17.5v-96q0 -12 -4.5 -17.5
t-17.5 -7.5q-43 -8 -62 -33.5t-19 -75.5v-143q0 -224 -250 -224q-25 0 -25 23v100z" />
    <glyph glyph-name="asciitilde" unicode="~" horiz-adv-x="673" 
d="M48 290q-9 12 -9 23t9 21q74 88 180 88q51 0 121 -28.5t98 -28.5q47 0 94 45q12 12 21 12q10 0 19 -12l45 -60q9 -12 9 -22t-9 -22q-72 -88 -181 -88q-51 0 -121 28.5t-98 28.5q-48 0 -93 -45q-12 -12 -21 -12q-10 0 -19 12z" />
    <glyph glyph-name="uni00A0" unicode="&#xa0;" horiz-adv-x="275" 
 />
    <glyph glyph-name="exclamdown" unicode="&#xa1;" horiz-adv-x="306" 
d="M49 626q0 40 29 64.5t75 24.5t75 -24.5t29 -64.5t-29 -65t-75 -25t-75 25t-29 65zM77 467q1 18 8.5 24.5t24.5 6.5h86q17 0 23.5 -6.5t8.5 -24.5l31 -426q2 -22 -6 -31.5t-30 -9.5h-140q-22 0 -30.5 9.5t-6.5 31.5z" />
    <glyph glyph-name="cent" unicode="&#xa2;" horiz-adv-x="673" 
d="M323 44q-128 16 -207 99t-79 203q0 122 79 207.5t207 101.5v107q0 28 27 28h72q28 0 28 -28v-110q92 -14 167 -72q16 -12 16 -24q0 -8 -9 -22l-53 -89q-9 -13 -19 -13q-8 0 -21 8q-38 25 -81 34v-248q42 10 81 36q15 10 22 10q10 0 18 -14l50 -85q9 -15 9 -24
q0 -11 -17 -25q-68 -55 -163 -75v-111q0 -28 -28 -28h-72q-27 0 -27 28v106zM323 475q-46 -12 -71.5 -45t-25.5 -80q0 -46 25.5 -79.5t71.5 -46.5v251z" />
    <glyph glyph-name="sterling" unicode="&#xa3;" horiz-adv-x="673" 
d="M49 88q-3 9 -3 14q0 12 15 19q93 47 93 120q0 19 -6 41h-96q-27 0 -27 28v88q0 28 27 28h60q-7 24 -7 49q0 105 72.5 172t207.5 67q127 0 219 -71q15 -12 15 -23q0 -7 -8 -20l-53 -87q-8 -12 -16 -12q-6 0 -17 6q-66 38 -131 38q-49 0 -74 -21.5t-25 -59.5q0 -19 7 -38
h181q27 0 27 -28v-88q0 -28 -27 -28h-161q4 -16 4 -35q0 -50 -43 -91q23 3 40 3q27 0 77 -7t73 -7q60 0 104 22q11 6 17 6q12 0 17 -15l36 -89q4 -9 4 -18q0 -13 -18 -24q-65 -42 -169 -42q-34 0 -100 8.5t-104 8.5q-76 0 -141 -20q-5 -2 -14 -2q-11 0 -16 13z" />
    <glyph glyph-name="currency" unicode="&#xa4;" horiz-adv-x="673" 
d="M39 111q-10 10 -10 20q0 9 10 19l85 84q-27 50 -27 108q0 60 27 108l-85 85q-10 12 -10 19q0 9 10 19l66 67q9 10 20 10q10 0 19 -10l84 -85q56 27 108 27q54 0 108 -27l85 85q9 9 19 9t19 -9l67 -67q9 -9 9 -19t-9 -19l-85 -85q27 -54 27 -108q0 -52 -27 -108l85 -84
q10 -9 10 -19q0 -11 -10 -20l-67 -66q-10 -10 -19 -10q-7 0 -19 10l-85 85q-51 -27 -108 -27q-56 0 -108 27l-84 -85q-10 -10 -19 -10q-10 0 -20 10zM336 252q38 0 64.5 26.5t26.5 63.5q0 38 -26.5 64.5t-64.5 26.5q-37 0 -63.5 -26.5t-26.5 -64.5t26 -64t64 -26z" />
    <glyph glyph-name="yen" unicode="&#xa5;" horiz-adv-x="673" 
d="M102 170q0 27 27 27h105q8 0 8 8v24q0 8 -8 8h-105q-27 0 -27 27v59q0 27 27 27h105q8 0 8 8v6l-241 306q-7 10 -7 16q0 14 21 14h157q18 0 27 -5t21 -21l119 -166l120 166q12 16 21.5 21t27.5 5h149q22 0 22 -14q0 -9 -7 -17l-239 -305v-6q0 -8 8 -8h104q28 0 28 -27
v-59q0 -27 -28 -27h-104q-8 0 -8 -8v-24q0 -8 8 -8h104q28 0 28 -27v-58q0 -27 -28 -27h-104q-8 0 -8 -8v-50q0 -27 -28 -27h-136q-27 0 -27 27v50q0 8 -8 8h-105q-27 0 -27 27v58z" />
    <glyph glyph-name="brokenbar" unicode="&#xa6;" horiz-adv-x="293" 
d="M72 773q0 27 27 27h95q27 0 27 -27v-346q0 -27 -27 -27h-95q-27 0 -27 27v346zM72 243q0 27 27 27h95q27 0 27 -27v-346q0 -27 -27 -27h-95q-27 0 -27 27v346z" />
    <glyph glyph-name="section" unicode="&#xa7;" horiz-adv-x="681" 
d="M92 -23q9 15 19 15q6 0 19 -8q79 -51 161 -51q92 0 92 45q0 22 -24 33.5t-93 27.5q-106 25 -160.5 71.5t-54.5 127.5q0 50 26 92.5t71 70.5q-33 37 -33 92q0 105 76 163t187 58q135 0 237 -75q15 -12 15 -21q0 -8 -7 -19l-56 -88q-10 -14 -19 -14q-8 0 -20 8
q-68 41 -143 41q-73 0 -73 -42q0 -22 25 -34t90 -27q110 -27 164 -71t54 -126q0 -98 -97 -160q33 -39 33 -95q0 -101 -78 -163.5t-205 -62.5q-145 0 -255 79q-14 11 -14 22q0 8 8 21zM416 174q35 17 35 48q0 25 -23 39.5t-82 27.5q-29 7 -62 17q-39 -16 -39 -50
q0 -24 24 -38.5t82 -26.5q50 -11 65 -17z" />
    <glyph glyph-name="dieresis" unicode="&#xa8;" horiz-adv-x="500" 
d="M59 833q0 35 22.5 57t58.5 22t59 -22t23 -57t-23 -57t-59 -22t-58.5 22t-22.5 57zM278 833q0 35 22.5 57t58.5 22t59 -22t23 -57t-23 -57t-59 -22t-58.5 22t-22.5 57z" />
    <glyph glyph-name="copyright" unicode="&#xa9;" horiz-adv-x="582" 
d="M29 451q0 109 76.5 186t185.5 77t185.5 -76.5t76.5 -185.5q0 -110 -76.5 -186.5t-186.5 -76.5q-108 0 -184.5 76.5t-76.5 185.5zM92 452q0 -84 57.5 -142t141.5 -58q83 0 141 58t58 142q0 83 -58 141t-141 58t-141 -58t-58 -141zM410 369q4 -4 4 -9q0 -6 -7 -12
q-47 -39 -107 -39q-63 0 -104.5 40t-41.5 101q0 62 42 103t106 41q62 0 106 -37q7 -7 7 -12q0 -3 -3 -9l-29 -40q-5 -6 -9 -6t-9 3q-26 21 -58 21q-28 0 -45 -17.5t-17 -45.5q0 -27 17 -44t44 -17q33 0 59 21q5 4 10 4t9 -6z" />
    <glyph glyph-name="ordfeminine" unicode="&#xaa;" horiz-adv-x="463" 
d="M289 336q-52 -47 -128 -47q-61 0 -98 36t-37 96q0 66 59 104t175 38h25v3q0 44 -68 44q-57 0 -109 -33q-10 -5 -15 -5q-7 0 -13 10l-29 48q-6 9 -6 15q0 9 14 19q74 50 169 50q88 0 135 -36.5t47 -108.5v-251q0 -20 -19 -20h-83q-19 0 -19 20v18zM285 467q0 11 -11 11h-7
q-114 0 -114 -50q0 -41 50 -41q36 0 67 18q15 8 15 23v39z" />
    <glyph glyph-name="guillemotleft" unicode="&#xab;" horiz-adv-x="564" 
d="M53 264q-23 24 -23 55v62q0 31 23 55l150 159q9 10 19 10q11 0 17 -14l36 -73q6 -12 6 -21q0 -13 -13 -26l-116 -121l116 -121q13 -13 13 -26q0 -9 -6 -21l-36 -73q-6 -14 -17 -14q-10 0 -19 10zM296 264q-23 24 -23 55v62q0 31 23 55l150 159q9 10 18 10q12 0 18 -14
l36 -73q5 -10 5 -20q0 -12 -12 -27l-116 -121l116 -121q12 -15 12 -27q0 -10 -5 -20l-36 -73q-6 -14 -18 -14q-9 0 -18 10z" />
    <glyph glyph-name="logicalnot" unicode="&#xac;" horiz-adv-x="673" 
d="M69 450q0 27 27 27h451q27 0 27 -27v-314q0 -27 -27 -27h-95q-27 0 -27 27v176q0 16 -16 16h-313q-27 0 -27 27v95z" />
    <glyph glyph-name="uni00AD" unicode="&#xad;" horiz-adv-x="477" 
d="M50 316q0 28 27 28h322q28 0 28 -28v-92q0 -27 -28 -27h-322q-27 0 -27 27v92z" />
    <glyph glyph-name="registered" unicode="&#xae;" horiz-adv-x="582" 
d="M29 451q0 109 76.5 186t185.5 77t185.5 -76.5t76.5 -185.5q0 -110 -76.5 -186.5t-186.5 -76.5q-108 0 -184.5 76.5t-76.5 185.5zM92 452q0 -84 57.5 -142t141.5 -58q83 0 141 58t58 142q0 83 -58 141t-141 58t-141 -58t-58 -141zM168 573q0 14 14 14h108q129 0 129 -94
q0 -52 -47 -76l54 -83q3 -4 3 -8q0 -7 -11 -7h-69q-14 0 -21 13l-32 56q-5 7 -13 7h-19q-7 0 -7 -7v-55q0 -14 -14 -14h-61q-14 0 -14 14v240zM286 458q42 0 42 30q0 29 -42 29h-21q-8 0 -8 -8v-44q0 -7 8 -7h21z" />
    <glyph glyph-name="macron" unicode="&#xaf;" horiz-adv-x="500" 
d="M82 876q0 27 28 27h280q28 0 28 -27v-73q0 -26 -28 -26h-280q-28 0 -28 26v73z" />
    <glyph glyph-name="degree" unicode="&#xb0;" horiz-adv-x="469" 
d="M33 512q0 83 59 142.5t142 59.5t142.5 -59.5t59.5 -142.5t-59.5 -142t-142.5 -59t-142 59t-59 142zM159 512q0 -32 21.5 -53.5t53.5 -21.5t53.5 21.5t21.5 53.5t-21.5 53.5t-53.5 21.5t-53.5 -21.5t-21.5 -53.5z" />
    <glyph glyph-name="plusminus" unicode="&#xb1;" horiz-adv-x="673" 
d="M76 480q0 27 28 27h143q16 0 16 16v119q0 27 27 27h94q27 0 27 -27v-119q0 -16 16 -16h143q27 0 27 -27v-94q0 -28 -27 -28h-143q-9 0 -12.5 -3t-3.5 -13v-118q0 -27 -27 -27h-94q-27 0 -27 27v118q0 10 -3.5 13t-12.5 3h-143q-28 0 -28 28v94zM76 122q0 27 28 27h466
q27 0 27 -27v-95q0 -27 -27 -27h-466q-28 0 -28 27v95z" />
    <glyph glyph-name="uni00B2" unicode="&#xb2;" horiz-adv-x="415" 
d="M154 590q38 40 53.5 62t15.5 41q0 22 -14.5 34.5t-39.5 12.5q-41 0 -80 -29q-6 -5 -12 -5t-11 8l-35 58q-6 9 -6 15q0 7 10 14q65 49 146 49q82 0 126.5 -40t44.5 -102q0 -35 -15 -63t-51 -66l-29 -31h100q18 0 18 -20v-72q0 -18 -18 -18h-314q-16 0 -16 10q0 7 8 15z
" />
    <glyph glyph-name="uni00B3" unicode="&#xb3;" horiz-adv-x="415" 
d="M59 562q7 11 14 11q4 0 11 -5q39 -30 97 -30q31 0 50 11.5t19 33.5q0 46 -107 46q-15 0 -15 8q0 4 5 12l54 81h-126q-18 0 -18 19v72q0 19 18 19h302q15 0 15 -9q0 -6 -6 -14l-88 -123q95 -21 95 -112q0 -66 -52.5 -110t-143.5 -44q-94 0 -154 47q-11 8 -11 16q0 5 5 12z
" />
    <glyph glyph-name="acute" unicode="&#xb4;" horiz-adv-x="500" 
d="M142 797q-12 11 -12 19q0 9 12 18l183 137q17 11 29 11q13 0 28 -11l62 -46q14 -10 14 -21t-17 -22l-205 -120q-16 -9 -26 -9q-8 0 -21 8z" />
    <glyph glyph-name="uni00B5" unicode="&#xb5;" horiz-adv-x="622" 
d="M60 477q0 18 17 18h149q18 0 18 -18v-228q0 -98 69 -98t69 98v228q0 18 17 18h150q18 0 18 -18v-238q0 -125 -66 -188.5t-186 -63.5q-38 0 -71 10v-202q0 -25 -26 -25h-133q-25 0 -25 25v682z" />
    <glyph glyph-name="paragraph" unicode="&#xb6;" horiz-adv-x="640" 
d="M221 187q-89 19 -144.5 87t-55.5 162q0 112 78.5 188t197.5 76h293q27 0 27 -27v-71q0 -27 -27 -27h-41q-15 0 -15 -16v-692q0 -27 -28 -27h-71q-28 0 -28 27v692q0 9 -3 12.5t-13 3.5h-95q-66 0 -105.5 -39t-39.5 -99t39.5 -99t105.5 -39h25q27 0 27 -27v-405
q0 -27 -27 -27h-72q-28 0 -28 27v320zM220 437q0 29 20 49t49 20t49 -20t20 -49t-20 -49t-49 -20t-49 20t-20 49z" />
    <glyph glyph-name="periodcentered" unicode="&#xb7;" horiz-adv-x="296" 
d="M44 351q0 42 29 68.5t75 26.5t75 -26.5t29 -68.5t-29 -69t-75 -27t-75 27t-29 69z" />
    <glyph glyph-name="cedilla" unicode="&#xb8;" horiz-adv-x="500" 
d="M111 -201q3 5 10 20t13 23.5t10 8.5q5 0 31.5 -8t45.5 -8q57 0 57 30q0 29 -56 29q-11 0 -28.5 -3t-24.5 -3q-8 0 -8 7q0 5 2 8q8 16 17.5 34t20.5 39.5t17 33.5h87l-30 -57q48 0 77 -23.5t29 -63.5q0 -51 -44 -82t-115 -31q-37 0 -75.5 11t-38.5 25q0 4 3 10z" />
    <glyph glyph-name="uni00B9" unicode="&#xb9;" horiz-adv-x="309" 
d="M100 720q0 11 -11 11h-44q-19 0 -19 18v72q0 19 19 19h162q19 0 19 -19v-365q0 -18 -19 -18h-88q-19 0 -19 18v264z" />
    <glyph glyph-name="ordmasculine" unicode="&#xba;" horiz-adv-x="463" 
d="M229 289q-93 0 -148.5 57t-55.5 153q0 98 57 156.5t152 58.5q92 0 148 -57t56 -153q0 -99 -57 -157t-152 -58zM231 398q37 0 58 28t21 75q0 49 -20.5 76t-57.5 27t-58 -27.5t-21 -75.5t20.5 -75.5t57.5 -27.5z" />
    <glyph glyph-name="guillemotright" unicode="&#xbb;" horiz-adv-x="564" 
d="M47 182q-6 12 -6 20q0 13 14 27l115 121l-115 121q-14 14 -14 27q0 8 6 20l35 73q7 14 18 14q10 0 19 -10l149 -159q24 -25 24 -55v-62q0 -30 -24 -55l-149 -159q-9 -10 -19 -10q-11 0 -18 14zM290 182q-6 12 -6 21q0 13 13 26l116 121l-116 121q-13 13 -13 26q0 9 6 21
l35 73q7 14 18 14q10 0 19 -10l149 -159q23 -24 23 -55v-62q0 -31 -23 -55l-149 -159q-9 -10 -19 -10q-11 0 -18 14z" />
    <glyph glyph-name="onequarter" unicode="&#xbc;" horiz-adv-x="819" 
d="M548 693q9 13 15.5 17t20.5 4h91q20 0 20 -14q0 -6 -10 -22l-458 -671q-9 -13 -15.5 -17t-20.5 -4h-91q-20 0 -20 14q0 6 10 22zM100 580q0 11 -11 11h-44q-19 0 -19 18v72q0 19 19 19h162q19 0 19 -19v-365q0 -18 -19 -18h-88q-19 0 -19 18v264zM627 379q33 37 59 37
q19 0 31 -12t12 -33v-205h39q18 0 18 -18v-63q0 -19 -18 -19h-39v-48q0 -18 -19 -18h-88q-19 0 -19 18v48h-162q-23 0 -34.5 10.5t-11.5 26.5q0 20 18 39zM607 166v83l-71 -83h71z" />
    <glyph glyph-name="onehalf" unicode="&#xbd;" horiz-adv-x="893" 
d="M548 693q9 13 15.5 17t20.5 4h91q20 0 20 -14q0 -6 -10 -22l-458 -671q-9 -13 -15.5 -17t-20.5 -4h-91q-20 0 -20 14q0 6 10 22zM100 580q0 11 -11 11h-44q-19 0 -19 18v72q0 19 19 19h162q19 0 19 -19v-365q0 -18 -19 -18h-88q-19 0 -19 18v264zM644 152q38 40 53.5 62
t15.5 41q0 22 -14.5 34.5t-39.5 12.5q-41 0 -80 -29q-6 -5 -12 -5t-11 8l-35 58q-6 9 -6 15q0 7 10 14q65 49 146 49q82 0 126.5 -40t44.5 -102q0 -35 -15 -63t-51 -66l-29 -31h100q18 0 18 -20v-72q0 -18 -18 -18h-314q-16 0 -16 10q0 7 8 15z" />
    <glyph glyph-name="threequarters" unicode="&#xbe;" horiz-adv-x="916" 
d="M645 693q9 13 15.5 17t20.5 4h91q20 0 20 -14q0 -6 -10 -22l-458 -671q-9 -13 -15.5 -17t-20.5 -4h-91q-20 0 -20 14q0 6 10 22zM59 422q7 11 14 11q4 0 11 -5q39 -30 97 -30q31 0 50 11.5t19 33.5q0 46 -107 46q-15 0 -15 8q0 4 5 12l54 81h-126q-18 0 -18 19v72
q0 19 18 19h302q15 0 15 -9q0 -6 -6 -14l-88 -123q95 -21 95 -112q0 -66 -52.5 -110t-143.5 -44q-94 0 -154 47q-11 8 -11 16q0 5 5 12zM724 379q33 37 59 37q19 0 31 -12t12 -33v-205h39q18 0 18 -18v-63q0 -19 -18 -19h-39v-48q0 -18 -19 -18h-88q-19 0 -19 18v48h-162
q-23 0 -34.5 10.5t-11.5 26.5q0 20 18 39zM704 166v83l-71 -83h71z" />
    <glyph glyph-name="questiondown" unicode="&#xbf;" horiz-adv-x="585" 
d="M220 625q0 39 29 63.5t75 24.5t75 -24.5t29 -63.5q0 -40 -29 -65.5t-75 -25.5t-75 25t-29 66zM501 198q4 -7 17.5 -26.5t22 -32.5t16 -27.5t7.5 -21.5q0 -13 -15 -24q-109 -80 -241 -80q-123 0 -197 56.5t-74 151.5q0 60 30 103.5t102 85.5q35 20 46.5 38.5t11.5 45.5v5
q0 27 26 27h138q27 0 27 -27v-15q0 -56 -18.5 -88t-74.5 -66q-53 -32 -73 -51t-20 -42q0 -27 23.5 -41t64.5 -14q71 0 141 48q12 9 21 9q8 0 19 -14z" />
    <glyph glyph-name="Agrave" unicode="&#xc0;" 
d="M240 971q15 11 28 11q12 0 29 -11l183 -137q12 -9 12 -18q0 -8 -12 -19l-47 -36q-13 -8 -21 -8q-10 0 -26 9l-205 120q-17 11 -17 22t14 21zM318 664q15 29 27 40.5t28 11.5q27 0 54 -52l317 -631q6 -11 6 -18q0 -15 -23 -15h-142q-20 0 -28 5t-15 21l-35 73
q-6 13 -19 13h-237q-13 0 -19 -13l-34 -73q-7 -16 -15.5 -21t-26.5 -5h-137q-23 0 -23 15q0 9 5 18zM423 262q11 0 11 7q0 5 -2 8l-63 132l-62 -132q-3 -5 -3 -8q0 -7 11 -7h108z" />
    <glyph glyph-name="Aacute" unicode="&#xc1;" 
d="M264 797q-12 11 -12 19q0 9 12 18l183 137q17 11 29 11q13 0 28 -11l62 -46q14 -10 14 -21t-17 -22l-205 -120q-17 -9 -26 -9q-8 0 -21 8zM318 664q15 29 27 40.5t28 11.5q27 0 54 -52l317 -631q6 -11 6 -18q0 -15 -23 -15h-142q-20 0 -28 5t-15 21l-35 73q-6 13 -19 13
h-237q-13 0 -19 -13l-34 -73q-7 -16 -15.5 -21t-26.5 -5h-137q-23 0 -23 15q0 9 5 18zM423 262q11 0 11 7q0 5 -2 8l-63 132l-62 -132q-3 -5 -3 -8q0 -7 11 -7h108z" />
    <glyph glyph-name="Acircumflex" unicode="&#xc2;" 
d="M164 792q-14 8 -14 16t11 18l129 117q20 18 47 18h69q27 0 47 -18l129 -117q11 -11 11 -18q0 -8 -14 -16l-62 -33q-11 -7 -22 -7q-10 0 -26 14l-97 92q-6 -6 -40 -39.5t-54.5 -50t-30.5 -16.5t-21 7zM318 664q15 29 27 40.5t28 11.5q27 0 54 -52l317 -631q6 -11 6 -18
q0 -15 -23 -15h-142q-20 0 -28 5t-15 21l-35 73q-6 13 -19 13h-237q-13 0 -19 -13l-34 -73q-7 -16 -15.5 -21t-26.5 -5h-137q-23 0 -23 15q0 9 5 18zM423 262q11 0 11 7q0 5 -2 8l-63 132l-62 -132q-3 -5 -3 -8q0 -7 11 -7h108z" />
    <glyph glyph-name="Atilde" unicode="&#xc3;" 
d="M160 828q-6 9 -6 15q0 7 9 17q52 60 130 60q37 0 87 -19.5t69 -19.5q33 0 66 31q8 8 15 8q8 0 15 -10l37 -56q6 -8 6 -13q0 -7 -9 -18q-53 -60 -130 -60q-37 0 -87 19.5t-69 19.5q-33 0 -66 -31q-7 -7 -15 -7t-15 9zM318 664q15 29 27 40.5t28 11.5q27 0 54 -52l317 -631
q6 -11 6 -18q0 -15 -23 -15h-142q-20 0 -28 5t-15 21l-35 73q-6 13 -19 13h-237q-13 0 -19 -13l-34 -73q-7 -16 -15.5 -21t-26.5 -5h-137q-23 0 -23 15q0 9 5 18zM423 262q11 0 11 7q0 5 -2 8l-63 132l-62 -132q-3 -5 -3 -8q0 -7 11 -7h108z" />
    <glyph glyph-name="Adieresis" unicode="&#xc4;" 
d="M181 833q0 35 22.5 57t58.5 22t59 -22t23 -57t-23 -57t-59 -22t-58.5 22t-22.5 57zM400 833q0 35 22.5 57t58.5 22t59 -22t23 -57t-23 -57t-59 -22t-58.5 22t-22.5 57zM318 664q15 29 27 40.5t28 11.5q27 0 54 -52l317 -631q6 -11 6 -18q0 -15 -23 -15h-142q-20 0 -28 5
t-15 21l-35 73q-6 13 -19 13h-237q-13 0 -19 -13l-34 -73q-7 -16 -15.5 -21t-26.5 -5h-137q-23 0 -23 15q0 9 5 18zM423 262q11 0 11 7q0 5 -2 8l-63 132l-62 -132q-3 -5 -3 -8q0 -7 11 -7h108z" />
    <glyph glyph-name="Aring" unicode="&#xc5;" 
d="M303 633q-45 20 -73 62t-28 93q0 71 50 121t121 50t120.5 -50t49.5 -121q0 -51 -27.5 -93t-72.5 -62l301 -600q6 -11 6 -18q0 -15 -23 -15h-142q-20 0 -28 5t-15 21l-35 73q-6 13 -19 13h-237q-13 0 -19 -13l-34 -73q-7 -16 -15.5 -21t-26.5 -5h-137q-23 0 -23 15
q0 9 5 18zM322 788q0 -21 14.5 -35.5t36.5 -14.5q21 0 36 14.5t15 35.5q0 22 -15 36.5t-36 14.5q-22 0 -36.5 -14.5t-14.5 -36.5zM423 262q11 0 11 7q0 3 -3 8l-62 131l-61 -131q-3 -5 -3 -8q0 -7 11 -7h107z" />
    <glyph glyph-name="AE" unicode="&#xc6;" horiz-adv-x="1052" 
d="M384 673q10 16 19 21.5t27 5.5h551q28 0 28 -27v-111q0 -27 -28 -27h-248q-16 0 -16 -16v-70q0 -15 16 -15h215q27 0 27 -28v-109q0 -27 -27 -27h-215q-16 0 -16 -16v-73q0 -16 16 -16h249q28 0 28 -27v-111q0 -27 -28 -27h-428q-27 0 -27 27v139q0 10 -3.5 13t-12.5 3
h-204q-15 0 -23 -13l-85 -142q-10 -17 -18.5 -22t-27.5 -5h-149q-19 0 -19 14q0 7 9 21zM511 346q16 0 16 16v198q0 11 -5 11q-4 0 -9 -8l-121 -200q-3 -6 -3 -10q0 -7 13 -7h109z" />
    <glyph glyph-name="Ccedilla" unicode="&#xc7;" horiz-adv-x="713" 
d="M253 -159q4 10 11 10q4 0 10 -3q31 -14 67 -14q57 0 57 30q0 29 -55 29q-25 0 -48 -5h-5q-9 0 -9 6q0 5 2 8l47 92q-132 25 -213.5 121.5t-81.5 230.5q0 160 108.5 264t275.5 104q146 0 259 -95q12 -11 12 -20q0 -8 -7 -18l-65 -92q-9 -13 -20 -13q-7 0 -20 8
q-78 55 -160 55t-134.5 -52.5t-52.5 -137.5q0 -83 52.5 -136t134.5 -53q87 0 162 57q12 9 21 9t18 -12l64 -92q6 -9 6 -17q0 -12 -16 -25q-115 -94 -260 -94l-18 -34h3q48 0 75.5 -23t27.5 -63q0 -51 -43 -82t-113 -31q-60 0 -106 23q-11 6 -11 13q0 4 3 10z" />
    <glyph glyph-name="Egrave" unicode="&#xc8;" horiz-adv-x="595" 
d="M180 971q15 11 28 11q12 0 29 -11l183 -137q12 -9 12 -18q0 -8 -12 -19l-47 -36q-13 -8 -21 -8q-10 0 -26 9l-205 120q-17 11 -17 22t14 21zM70 673q0 27 27 27h427q28 0 28 -27v-111q0 -27 -28 -27h-248q-10 0 -13 -3.5t-3 -12.5v-70q0 -9 3 -12t13 -3h215q27 0 27 -28
v-109q0 -27 -27 -27h-215q-10 0 -13 -3.5t-3 -12.5v-73q0 -9 3 -12.5t13 -3.5h249q28 0 28 -27v-111q0 -27 -28 -27h-428q-27 0 -27 27v646z" />
    <glyph glyph-name="Eacute" unicode="&#xc9;" horiz-adv-x="595" 
d="M204 797q-12 11 -12 19q0 9 12 18l183 137q17 11 29 11q13 0 28 -11l62 -46q14 -10 14 -21t-17 -22l-205 -120q-16 -9 -26 -9q-8 0 -21 8zM70 673q0 27 27 27h427q28 0 28 -27v-111q0 -27 -28 -27h-248q-10 0 -13 -3.5t-3 -12.5v-70q0 -9 3 -12t13 -3h215q27 0 27 -28
v-109q0 -27 -27 -27h-215q-10 0 -13 -3.5t-3 -12.5v-73q0 -9 3 -12.5t13 -3.5h249q28 0 28 -27v-111q0 -27 -28 -27h-428q-27 0 -27 27v646z" />
    <glyph glyph-name="Ecircumflex" unicode="&#xca;" horiz-adv-x="595" 
d="M104 792q-14 8 -14 16t11 18l129 117q20 18 47 18h69q27 0 47 -18l129 -117q11 -11 11 -18q0 -8 -14 -16l-62 -33q-11 -7 -22 -7q-10 0 -26 14l-97 92q-6 -6 -40 -39.5t-54.5 -50t-30.5 -16.5t-21 7zM70 673q0 27 27 27h427q28 0 28 -27v-111q0 -27 -28 -27h-248
q-10 0 -13 -3.5t-3 -12.5v-70q0 -9 3 -12t13 -3h215q27 0 27 -28v-109q0 -27 -27 -27h-215q-10 0 -13 -3.5t-3 -12.5v-73q0 -9 3 -12.5t13 -3.5h249q28 0 28 -27v-111q0 -27 -28 -27h-428q-27 0 -27 27v646z" />
    <glyph glyph-name="Edieresis" unicode="&#xcb;" horiz-adv-x="595" 
d="M121 833q0 35 22.5 57t58.5 22t59 -22t23 -57t-23 -57t-59 -22t-58.5 22t-22.5 57zM340 833q0 35 22.5 57t58.5 22t59 -22t23 -57t-23 -57t-59 -22t-58.5 22t-22.5 57zM70 673q0 27 27 27h427q28 0 28 -27v-111q0 -27 -28 -27h-248q-10 0 -13 -3.5t-3 -12.5v-70
q0 -9 3 -12t13 -3h215q27 0 27 -28v-109q0 -27 -27 -27h-215q-10 0 -13 -3.5t-3 -12.5v-73q0 -9 3 -12.5t13 -3.5h249q28 0 28 -27v-111q0 -27 -28 -27h-428q-27 0 -27 27v646z" />
    <glyph glyph-name="Igrave" unicode="&#xcc;" horiz-adv-x="330" 
d="M38 971q15 11 28 11q12 0 29 -11l183 -137q12 -9 12 -18q0 -8 -12 -19l-47 -36q-13 -8 -21 -8q-10 0 -26 9l-205 120q-17 11 -17 22t14 21zM70 673q0 27 27 27h135q28 0 28 -27v-646q0 -27 -28 -27h-135q-27 0 -27 27v646z" />
    <glyph glyph-name="Iacute" unicode="&#xcd;" horiz-adv-x="330" 
d="M57 797q-12 11 -12 19q0 9 12 18l183 137q17 11 29 11q13 0 28 -11l62 -46q14 -10 14 -21t-17 -22l-205 -120q-16 -9 -26 -9q-8 0 -21 8zM70 673q0 27 27 27h135q28 0 28 -27v-646q0 -27 -28 -27h-135q-27 0 -27 27v646z" />
    <glyph glyph-name="Icircumflex" unicode="&#xce;" horiz-adv-x="330" 
d="M-43 792q-14 8 -14 16t11 18l129 117q20 18 47 18h69q27 0 47 -18l129 -117q11 -11 11 -18q0 -8 -14 -16l-62 -33q-11 -7 -22 -7q-10 0 -26 14l-97 92q-6 -6 -40 -39.5t-54.5 -50t-30.5 -16.5t-21 7zM70 673q0 27 27 27h135q28 0 28 -27v-646q0 -27 -28 -27h-135
q-27 0 -27 27v646z" />
    <glyph glyph-name="Idieresis" unicode="&#xcf;" horiz-adv-x="330" 
d="M-26 833q0 35 22.5 57t58.5 22t59 -22t23 -57t-23 -57t-59 -22t-58.5 22t-22.5 57zM193 833q0 35 22.5 57t58.5 22t59 -22t23 -57t-23 -57t-59 -22t-58.5 22t-22.5 57zM70 673q0 27 27 27h135q28 0 28 -27v-646q0 -27 -28 -27h-135q-27 0 -27 27v646z" />
    <glyph glyph-name="Eth" unicode="&#xd0;" horiz-adv-x="784" 
d="M75 265q0 16 -16 16h-30q-28 0 -28 26v87q0 27 28 27h30q16 0 16 15v237q0 27 27 27h256q183 0 284 -92t101 -250q0 -165 -106 -261.5t-296 -96.5h-239q-27 0 -27 27v238zM340 171q102 0 155 48t53 134q0 81 -52.5 128.5t-151.5 47.5h-63q-10 0 -13 -3.5t-3 -12.5v-77
q0 -15 15 -15h97q28 0 28 -27v-87q0 -26 -28 -26h-97q-15 0 -15 -16v-78q0 -9 3 -12.5t13 -3.5h59z" />
    <glyph glyph-name="Ntilde" unicode="&#xd1;" horiz-adv-x="766" 
d="M171 828q-6 9 -6 15q0 7 9 17q53 60 130 60q38 0 87 -19.5t69 -19.5q33 0 66 31q8 8 15 8q8 0 15 -10l37 -56q6 -8 6 -13q0 -7 -9 -18q-52 -60 -130 -60q-38 0 -87 19.5t-69 19.5q-33 0 -66 -31q-7 -7 -15 -7q-7 0 -15 9zM70 673q0 41 25 41q18 0 55 -34l356 -319v312
q0 27 27 27h136q27 0 27 -27v-646q0 -41 -25 -41q-18 0 -55 34l-356 319v-312q0 -27 -28 -27h-135q-27 0 -27 27v646z" />
    <glyph glyph-name="Ograve" unicode="&#xd2;" horiz-adv-x="825" 
d="M280 971q15 11 28 11q12 0 29 -11l183 -137q12 -9 12 -18q0 -8 -12 -19l-47 -36q-13 -8 -21 -8q-10 0 -26 9l-205 120q-17 11 -17 22t14 21zM35 348q0 160 106 263t271 103t271.5 -102t106.5 -262t-106.5 -262t-273.5 -102q-163 0 -269 101.5t-106 260.5zM411 160
q79 0 131 52.5t52 136.5q0 86 -51.5 138t-130.5 52t-130 -52t-51 -138q0 -85 51 -137t129 -52z" />
    <glyph glyph-name="Oacute" unicode="&#xd3;" horiz-adv-x="825" 
d="M304 797q-12 11 -12 19q0 9 12 18l183 137q17 11 29 11q13 0 28 -11l62 -46q14 -10 14 -21t-17 -22l-205 -120q-16 -9 -26 -9q-8 0 -21 8zM35 348q0 160 106 263t271 103t271.5 -102t106.5 -262t-106.5 -262t-273.5 -102q-163 0 -269 101.5t-106 260.5zM411 160
q79 0 131 52.5t52 136.5q0 86 -51.5 138t-130.5 52t-130 -52t-51 -138q0 -85 51 -137t129 -52z" />
    <glyph glyph-name="Ocircumflex" unicode="&#xd4;" horiz-adv-x="825" 
d="M204 792q-14 8 -14 16t11 18l129 117q20 18 47 18h69q27 0 47 -18l129 -117q11 -11 11 -18q0 -8 -14 -16l-62 -33q-11 -7 -22 -7q-10 0 -26 14l-97 92q-6 -6 -40 -39.5t-54.5 -50t-30.5 -16.5t-21 7zM35 348q0 160 106 263t271 103t271.5 -102t106.5 -262t-106.5 -262
t-273.5 -102q-163 0 -269 101.5t-106 260.5zM411 160q79 0 131 52.5t52 136.5q0 86 -51.5 138t-130.5 52t-130 -52t-51 -138q0 -85 51 -137t129 -52z" />
    <glyph glyph-name="Otilde" unicode="&#xd5;" horiz-adv-x="825" 
d="M201 828q-6 9 -6 15q0 7 9 17q52 60 130 60q38 0 87 -19.5t69 -19.5q33 0 66 31q8 8 15 8q8 0 15 -10l37 -56q6 -8 6 -13q0 -7 -9 -18q-52 -60 -130 -60q-38 0 -87 19.5t-69 19.5q-33 0 -66 -31q-7 -7 -15 -7q-7 0 -15 9zM35 348q0 160 106 263t271 103t271.5 -102
t106.5 -262t-106.5 -262t-273.5 -102q-163 0 -269 101.5t-106 260.5zM411 160q79 0 131 52.5t52 136.5q0 86 -51.5 138t-130.5 52t-130 -52t-51 -138q0 -85 51 -137t129 -52z" />
    <glyph glyph-name="Odieresis" unicode="&#xd6;" horiz-adv-x="825" 
d="M221 833q0 35 22.5 57t58.5 22t59 -22t23 -57t-23 -57t-59 -22t-58.5 22t-22.5 57zM440 833q0 35 22.5 57t58.5 22t59 -22t23 -57t-23 -57t-59 -22t-58.5 22t-22.5 57zM35 348q0 160 106 263t271 103t271.5 -102t106.5 -262t-106.5 -262t-273.5 -102q-163 0 -269 101.5
t-106 260.5zM411 160q79 0 131 52.5t52 136.5q0 86 -51.5 138t-130.5 52t-130 -52t-51 -138q0 -85 51 -137t129 -52z" />
    <glyph glyph-name="multiply" unicode="&#xd7;" horiz-adv-x="673" 
d="M90 139q-10 9 -10 19t10 20l131 130q7 6 7 12t-7 12l-131 130q-10 10 -10 20t10 19l66 66q10 10 20 10t19 -10l130 -131q9 -7 12 -7q4 0 11 7l131 131q10 10 20 10q9 0 19 -10l66 -66q10 -10 10 -20q0 -9 -10 -19l-131 -130q-7 -6 -7 -12q0 -5 7 -12l131 -130
q10 -10 10 -19q0 -10 -10 -20l-66 -66q-12 -10 -19 -10q-8 0 -20 10l-131 131q-6 7 -11 7t-12 -7l-130 -131q-10 -10 -19 -10q-8 0 -20 10z" />
    <glyph glyph-name="Oslash" unicode="&#xd8;" horiz-adv-x="825" 
d="M126 103q-91 99 -91 245q0 160 106 263t271 103q117 0 210 -57l31 36q12 13 20 17t24 4h70q19 0 19 -13q0 -7 -15 -23l-73 -82q92 -100 92 -246q0 -160 -106.5 -262t-273.5 -102q-118 0 -208 56l-30 -35q-12 -13 -20 -17t-24 -4h-71q-18 0 -18 13q0 8 14 23zM499 518
q-37 21 -87 21q-79 0 -130 -52t-51 -138q0 -63 26 -102zM325 181q37 -21 86 -21q79 0 131 52.5t52 136.5q0 59 -28 103z" />
    <glyph glyph-name="Ugrave" unicode="&#xd9;" horiz-adv-x="775" 
d="M255 971q15 11 28 11q12 0 29 -11l183 -137q12 -9 12 -18q0 -8 -12 -19l-47 -36q-13 -8 -21 -8q-9 0 -26 9l-205 120q-17 11 -17 22t14 21zM65 673q0 27 27 27h135q28 0 28 -27v-356q0 -157 132 -157q65 0 99 40.5t34 116.5v356q0 27 27 27h135q28 0 28 -27v-370
q0 -155 -89.5 -236t-239.5 -81q-145 0 -230.5 79.5t-85.5 235.5v372z" />
    <glyph glyph-name="Uacute" unicode="&#xda;" horiz-adv-x="775" 
d="M279 797q-12 11 -12 19q0 9 12 18l183 137q17 11 29 11q13 0 28 -11l62 -46q14 -10 14 -21t-17 -22l-205 -120q-17 -9 -26 -9q-8 0 -21 8zM65 673q0 27 27 27h135q28 0 28 -27v-356q0 -157 132 -157q65 0 99 40.5t34 116.5v356q0 27 27 27h135q28 0 28 -27v-370
q0 -155 -89.5 -236t-239.5 -81q-145 0 -230.5 79.5t-85.5 235.5v372z" />
    <glyph glyph-name="Ucircumflex" unicode="&#xdb;" horiz-adv-x="775" 
d="M179 792q-14 8 -14 16t11 18l129 117q20 18 47 18h69q27 0 47 -18l129 -117q11 -11 11 -18q0 -8 -14 -16l-62 -33q-11 -7 -22 -7q-10 0 -26 14l-97 92q-6 -6 -40 -39.5t-54.5 -50t-30.5 -16.5t-21 7zM65 673q0 27 27 27h135q28 0 28 -27v-356q0 -157 132 -157
q65 0 99 40.5t34 116.5v356q0 27 27 27h135q28 0 28 -27v-370q0 -155 -89.5 -236t-239.5 -81q-145 0 -230.5 79.5t-85.5 235.5v372z" />
    <glyph glyph-name="Udieresis" unicode="&#xdc;" horiz-adv-x="775" 
d="M196 833q0 35 22.5 57t58.5 22t59 -22t23 -57t-23 -57t-59 -22t-58.5 22t-22.5 57zM415 833q0 35 22.5 57t58.5 22t59 -22t23 -57t-23 -57t-59 -22t-58.5 22t-22.5 57zM65 673q0 27 27 27h135q28 0 28 -27v-356q0 -157 132 -157q65 0 99 40.5t34 116.5v356q0 27 27 27
h135q28 0 28 -27v-370q0 -155 -89.5 -236t-239.5 -81q-145 0 -230.5 79.5t-85.5 235.5v372z" />
    <glyph glyph-name="Yacute" unicode="&#xdd;" horiz-adv-x="688" 
d="M237 797q-12 11 -12 19q0 9 12 18l183 137q17 11 29 11q13 0 28 -11l62 -46q14 -10 14 -21t-17 -22l-205 -120q-16 -9 -26 -9q-8 0 -21 8zM251 253l-250 417q-6 9 -6 16q0 14 22 14h150q20 0 29.5 -5.5t19.5 -23.5l131 -234l131 234q10 18 19.5 23.5t29.5 5.5h145
q21 0 21 -14q0 -7 -6 -16l-246 -412v-231q0 -27 -27 -27h-136q-27 0 -27 27v226z" />
    <glyph glyph-name="Thorn" unicode="&#xde;" horiz-adv-x="684" 
d="M70 673q0 27 27 27h135q28 0 28 -27v-51q0 -10 3 -13.5t13 -3.5h75q147 0 225.5 -62.5t78.5 -187.5t-80.5 -190.5t-227.5 -65.5h-71q-10 0 -13 -3t-3 -13v-56q0 -27 -28 -27h-135q-27 0 -27 27v646zM332 264q128 0 128 90q0 47 -31 66.5t-97 19.5h-56q-10 0 -13 -3
t-3 -13v-144q0 -9 3 -12.5t13 -3.5h56z" />
    <glyph glyph-name="germandbls" unicode="&#xdf;" horiz-adv-x="631" 
d="M60 498q0 122 64 191t192 69q106 0 178.5 -56t72.5 -167q0 -52 -26 -92t-67 -59q56 -18 91 -62.5t35 -115.5q0 -102 -59 -160.5t-172 -58.5q-34 0 -57 5q-30 8 -28 31l10 79q3 23 18 23q1 0 13 -1t20 -1q30 0 47 23.5t17 61.5q0 84 -84 84h-5q-26 0 -26 26v87q0 27 26 27
h6q28 0 44.5 24.5t16.5 58.5q0 37 -17.5 61t-54.5 24q-72 0 -72 -100v-477q0 -10 -6.5 -16.5t-16.5 -6.5h-138q-22 0 -22 23v475z" />
    <glyph glyph-name="agrave" unicode="&#xe0;" horiz-adv-x="567" 
d="M171 778q15 11 28 11q12 0 29 -11l183 -137q12 -9 12 -18t-12 -19l-47 -35q-12 -9 -21 -9q-10 0 -26 10l-205 119q-17 11 -17 22t14 21zM329 22q-41 -32 -111 -32q-86 0 -136.5 43t-50.5 117q0 73 50.5 115.5t136.5 42.5q67 0 111 -28q-6 75 -98 75q-13 0 -35.5 -1.5
t-28.5 -1.5q-12 0 -16.5 5t-6.5 19l-11 93q-1 15 4 21.5t20 9.5q40 8 101 8q254 0 254 -252v-238q0 -18 -17 -18h-148q-18 0 -18 18v4zM217 150q0 -26 16 -42t41 -16t41.5 15.5t16.5 40.5q0 27 -17 42.5t-41 15.5q-25 0 -41 -15t-16 -41z" />
    <glyph glyph-name="aacute" unicode="&#xe1;" horiz-adv-x="567" 
d="M172 604q-12 10 -12 19t12 18l183 137q17 11 29 11q13 0 28 -11l62 -46q14 -10 14 -21t-17 -22l-205 -119q-16 -9 -26 -9q-8 0 -21 8zM329 22q-41 -32 -111 -32q-86 0 -136.5 43t-50.5 117q0 73 50.5 115.5t136.5 42.5q67 0 111 -28q-6 75 -98 75q-13 0 -35.5 -1.5
t-28.5 -1.5q-12 0 -16.5 5t-6.5 19l-11 93q-1 15 4 21.5t20 9.5q40 8 101 8q254 0 254 -252v-238q0 -18 -17 -18h-148q-18 0 -18 18v4zM217 150q0 -26 16 -42t41 -16t41.5 15.5t16.5 40.5q0 27 -17 42.5t-41 15.5q-25 0 -41 -15t-16 -41z" />
    <glyph glyph-name="acircumflex" unicode="&#xe2;" horiz-adv-x="567" 
d="M86 599q-14 8 -14 16t11 18l129 117q13 12 21 15t26 3h69q18 0 26 -3t21 -15l129 -117q11 -11 11 -18q0 -8 -14 -16l-62 -33q-12 -6 -21 -6q-13 0 -27 13l-97 92q-5 -5 -39.5 -39t-55 -50t-30.5 -16q-9 0 -21 6zM329 22q-41 -32 -111 -32q-86 0 -136.5 43t-50.5 117
q0 73 50.5 115.5t136.5 42.5q67 0 111 -28q-6 75 -98 75q-13 0 -35.5 -1.5t-28.5 -1.5q-12 0 -16.5 5t-6.5 19l-11 93q-1 15 4 21.5t20 9.5q40 8 101 8q254 0 254 -252v-238q0 -18 -17 -18h-148q-18 0 -18 18v4zM217 150q0 -26 16 -42t41 -16t41.5 15.5t16.5 40.5
q0 27 -17 42.5t-41 15.5q-25 0 -41 -15t-16 -41z" />
    <glyph glyph-name="atilde" unicode="&#xe3;" horiz-adv-x="567" 
d="M80 635q-6 9 -6 15t9 17q53 60 130 60q37 0 87 -19.5t69 -19.5q33 0 66 31q8 8 15 8q8 0 15 -10l37 -55q6 -7 6 -14q0 -8 -9 -18q-52 -60 -130 -60q-37 0 -87 19.5t-69 19.5q-33 0 -66 -31q-7 -7 -15 -7t-15 9zM329 22q-41 -32 -111 -32q-86 0 -136.5 43t-50.5 117
q0 73 50.5 115.5t136.5 42.5q67 0 111 -28q-6 75 -98 75q-13 0 -35.5 -1.5t-28.5 -1.5q-12 0 -16.5 5t-6.5 19l-11 93q-1 15 4 21.5t20 9.5q40 8 101 8q254 0 254 -252v-238q0 -18 -17 -18h-148q-18 0 -18 18v4zM217 150q0 -26 16 -42t41 -16t41.5 15.5t16.5 40.5
q0 27 -17 42.5t-41 15.5q-25 0 -41 -15t-16 -41z" />
    <glyph glyph-name="adieresis" unicode="&#xe4;" horiz-adv-x="567" 
d="M98 639q0 35 22.5 57t58.5 22t59 -22t23 -57t-23 -57t-59 -22t-58.5 22t-22.5 57zM317 639q0 35 22.5 57t58.5 22t59 -22t23 -57t-23 -57t-59 -22t-58.5 22t-22.5 57zM329 22q-41 -32 -111 -32q-86 0 -136.5 43t-50.5 117q0 73 50.5 115.5t136.5 42.5q67 0 111 -28
q-6 75 -98 75q-13 0 -35.5 -1.5t-28.5 -1.5q-12 0 -16.5 5t-6.5 19l-11 93q-1 15 4 21.5t20 9.5q40 8 101 8q254 0 254 -252v-238q0 -18 -17 -18h-148q-18 0 -18 18v4zM217 150q0 -26 16 -42t41 -16t41.5 15.5t16.5 40.5q0 27 -17 42.5t-41 15.5q-25 0 -41 -15t-16 -41z" />
    <glyph glyph-name="aring" unicode="&#xe5;" horiz-adv-x="567" 
d="M118 705q0 71 49 118.5t121 47.5t121 -47.5t49 -118.5q0 -70 -49.5 -118t-120.5 -48t-120.5 48t-49.5 118zM236 705q0 -21 15 -36t37 -15t37 15t15 36q0 22 -15 37t-37 15t-37 -15t-15 -37zM329 22q-41 -32 -111 -32q-86 0 -136.5 43t-50.5 117q0 73 50.5 115.5
t136.5 42.5q67 0 111 -28q-6 75 -98 75q-13 0 -35.5 -1.5t-28.5 -1.5q-12 0 -16.5 5t-6.5 19l-11 93q-1 15 4 21.5t20 9.5q40 8 101 8q254 0 254 -252v-238q0 -18 -17 -18h-148q-18 0 -18 18v4zM217 150q0 -26 16 -42t41 -16t41.5 15.5t16.5 40.5q0 27 -17 42.5t-41 15.5
q-25 0 -41 -15t-16 -41z" />
    <glyph glyph-name="ae" unicode="&#xe6;" horiz-adv-x="882" 
d="M133 469q-1 15 4 21.5t20 9.5q40 8 101 8q111 0 172 -49q68 49 161 49q118 0 188 -71.5t70 -186.5v-29q0 -19 -18 -19h-317q7 -35 33.5 -54.5t66.5 -19.5q71 0 127 33q14 8 23 8q11 0 16 -12l38 -75q5 -10 5 -17q0 -12 -15 -21q-86 -57 -214 -57q-117 0 -191 69
q-70 -66 -185 -66q-86 0 -136.5 43t-50.5 117q0 73 50.5 115.5t136.5 42.5q67 0 111 -28q-6 75 -98 75q-13 0 -35.5 -1.5t-28.5 -1.5q-12 0 -16.5 5t-6.5 19zM663 312q-2 33 -21 53t-51 20q-59 0 -75 -73h147zM217 150q0 -26 16 -42t41 -16t41.5 15.5t16.5 40.5
q0 27 -17 42.5t-41 15.5q-25 0 -41 -15t-16 -41z" />
    <glyph glyph-name="ccedilla" unicode="&#xe7;" horiz-adv-x="541" 
d="M176 -159q4 10 11 10q4 0 11 -3q30 -14 66 -14q58 0 58 30q0 29 -57 29q-23 0 -46 -5h-5q-9 0 -9 6q0 5 2 8l45 89q-99 17 -159 85t-60 170q0 117 76.5 189.5t196.5 72.5q113 0 201 -65q11 -8 11 -19q0 -6 -5 -16l-58 -95q-7 -12 -18 -12q-9 0 -18 6q-59 38 -107 38
q-43 0 -66.5 -28t-23.5 -70t23.5 -69t67.5 -27q57 0 106 37q9 6 17 6q11 0 19 -12l57 -96q5 -8 5 -16q0 -12 -10 -19q-78 -57 -170 -63l-18 -36q49 0 77.5 -23t28.5 -63q0 -51 -44.5 -82t-114.5 -31q-57 0 -103 23q-11 6 -11 13q0 4 3 10z" />
    <glyph glyph-name="egrave" unicode="&#xe8;" horiz-adv-x="588" 
d="M167 778q15 11 28 11q12 0 29 -11l183 -137q12 -9 12 -18t-12 -19l-47 -35q-12 -9 -21 -9q-10 0 -26 10l-205 119q-17 11 -17 22t14 21zM524 82q5 -10 5 -16q0 -13 -16 -22q-84 -57 -213 -57q-122 0 -194.5 72.5t-72.5 186.5q0 115 73.5 188.5t190.5 73.5
q118 0 188 -71.5t70 -186.5v-29q0 -19 -18 -19h-317q6 -35 33 -54.5t67 -19.5q71 0 127 33q14 8 23 8q11 0 16 -12zM369 312q-2 33 -21 53t-51 20q-29 0 -48.5 -19t-26.5 -54h147z" />
    <glyph glyph-name="eacute" unicode="&#xe9;" horiz-adv-x="588" 
d="M179 604q-12 10 -12 19t12 18l183 137q17 11 29 11q13 0 28 -11l62 -46q14 -10 14 -21t-17 -22l-205 -119q-17 -9 -26 -9q-8 0 -21 8zM524 82q5 -10 5 -16q0 -13 -16 -22q-84 -57 -213 -57q-122 0 -194.5 72.5t-72.5 186.5q0 115 73.5 188.5t190.5 73.5q118 0 188 -71.5
t70 -186.5v-29q0 -19 -18 -19h-317q6 -35 33 -54.5t67 -19.5q71 0 127 33q14 8 23 8q11 0 16 -12zM369 312q-2 33 -21 53t-51 20q-29 0 -48.5 -19t-26.5 -54h147z" />
    <glyph glyph-name="ecircumflex" unicode="&#xea;" horiz-adv-x="588" 
d="M89 599q-14 8 -14 16t11 18l129 117q13 12 21 15t26 3h69q18 0 26 -3t21 -15l129 -117q11 -11 11 -18q0 -8 -14 -16l-62 -33q-12 -6 -21 -6q-13 0 -27 13l-97 92q-5 -5 -39.5 -39t-55 -50t-30.5 -16q-9 0 -21 6zM524 82q5 -10 5 -16q0 -13 -16 -22q-84 -57 -213 -57
q-122 0 -194.5 72.5t-72.5 186.5q0 115 73.5 188.5t190.5 73.5q118 0 188 -71.5t70 -186.5v-29q0 -19 -18 -19h-317q6 -35 33 -54.5t67 -19.5q71 0 127 33q14 8 23 8q11 0 16 -12zM369 312q-2 33 -21 53t-51 20q-29 0 -48.5 -19t-26.5 -54h147z" />
    <glyph glyph-name="edieresis" unicode="&#xeb;" horiz-adv-x="588" 
d="M106 639q0 35 22.5 57t58.5 22t59 -22t23 -57t-23 -57t-59 -22t-58.5 22t-22.5 57zM325 639q0 35 22.5 57t58.5 22t59 -22t23 -57t-23 -57t-59 -22t-58.5 22t-22.5 57zM524 82q5 -10 5 -16q0 -13 -16 -22q-84 -57 -213 -57q-122 0 -194.5 72.5t-72.5 186.5
q0 115 73.5 188.5t190.5 73.5q118 0 188 -71.5t70 -186.5v-29q0 -19 -18 -19h-317q6 -35 33 -54.5t67 -19.5q71 0 127 33q14 8 23 8q11 0 16 -12zM369 312q-2 33 -21 53t-51 20q-29 0 -48.5 -19t-26.5 -54h147z" />
    <glyph glyph-name="igrave" unicode="&#xec;" horiz-adv-x="304" 
d="M29 778q15 11 28 11q12 0 29 -11l183 -137q12 -9 12 -18t-12 -19l-47 -35q-12 -9 -21 -9q-10 0 -26 10l-205 119q-17 11 -17 22t14 21zM60 469q0 26 26 26h131q27 0 27 -26v-443q0 -26 -27 -26h-131q-26 0 -26 26v443z" />
    <glyph glyph-name="iacute" unicode="&#xed;" horiz-adv-x="304" 
d="M32 604q-12 10 -12 19t12 18l183 137q17 11 29 11q13 0 28 -11l62 -46q14 -10 14 -21t-17 -22l-205 -119q-17 -9 -26 -9q-8 0 -21 8zM60 469q0 26 26 26h131q27 0 27 -26v-443q0 -26 -27 -26h-131q-26 0 -26 26v443z" />
    <glyph glyph-name="icircumflex" unicode="&#xee;" horiz-adv-x="304" 
d="M-56 599q-14 8 -14 16t11 18l129 117q13 12 21 15t26 3h69q18 0 26 -3t21 -15l129 -117q11 -11 11 -18q0 -8 -14 -16l-62 -33q-12 -6 -21 -6q-13 0 -27 13l-97 92q-5 -5 -39.5 -39t-55 -50t-30.5 -16q-9 0 -21 6zM60 469q0 26 26 26h131q27 0 27 -26v-443q0 -26 -27 -26
h-131q-26 0 -26 26v443z" />
    <glyph glyph-name="idieresis" unicode="&#xef;" horiz-adv-x="304" 
d="M-39 639q0 35 22.5 57t58.5 22t59 -22t23 -57t-23 -57t-59 -22t-58.5 22t-22.5 57zM180 639q0 35 22.5 57t58.5 22t59 -22t23 -57t-23 -57t-59 -22t-58.5 22t-22.5 57zM60 469q0 26 26 26h131q27 0 27 -26v-443q0 -26 -27 -26h-131q-26 0 -26 26v443z" />
    <glyph glyph-name="eth" unicode="&#xf0;" horiz-adv-x="625" 
d="M130 611q-3 6 -3 11q0 9 9 13l60 26q-32 29 -69 58q-20 15 -20 22q0 9 13 9h152q22 0 37 -13l20 -16l71 31q6 3 12 3q8 0 14 -7l31 -63q4 -8 4 -13q0 -8 -8 -12l-38 -17q177 -207 177 -403q0 -113 -78 -183t-203 -70t-201.5 68.5t-76.5 178.5t75.5 179.5t194.5 69.5
q23 0 41 -3q-27 56 -70 99l-83 -37q-8 -4 -13 -4q-8 0 -12 8zM222 235q0 -39 25.5 -63t63.5 -24q39 0 66 24t27 63t-27 63t-66 24q-38 0 -63.5 -24t-25.5 -63z" />
    <glyph glyph-name="ntilde" unicode="&#xf1;" horiz-adv-x="625" 
d="M104 635q-6 9 -6 15t9 17q52 60 130 60q37 0 87 -19.5t69 -19.5q33 0 66 31q8 8 15 8q8 0 15 -10l37 -55q6 -7 6 -14q0 -8 -9 -18q-53 -60 -130 -60q-37 0 -87 19.5t-69 19.5q-33 0 -66 -31q-7 -7 -15 -7t-15 9zM60 470q0 25 25 25h133q26 0 26 -25v-24q49 59 133 59
q192 0 192 -238v-247q0 -20 -19 -20h-145q-20 0 -20 20v223q0 101 -70 101q-71 0 -71 -101v-223q0 -20 -19 -20h-146q-19 0 -19 20v450z" />
    <glyph glyph-name="ograve" unicode="&#xf2;" horiz-adv-x="625" 
d="M188 778q15 11 28 11q12 0 29 -11l183 -137q12 -9 12 -18t-12 -19l-47 -35q-12 -9 -21 -9q-10 0 -26 10l-205 119q-17 11 -17 22t14 21zM33 246q0 115 77.5 188.5t201.5 73.5t202 -73.5t78 -187.5q0 -115 -78 -187.5t-203 -72.5q-124 0 -201 72.5t-77 186.5zM311 151
q39 0 66 27t27 69q0 43 -27.5 70.5t-65.5 27.5q-37 0 -63 -27.5t-26 -70.5t25.5 -69.5t63.5 -26.5z" />
    <glyph glyph-name="oacute" unicode="&#xf3;" horiz-adv-x="625" 
d="M195 604q-12 10 -12 19t12 18l183 137q17 11 29 11q13 0 28 -11l62 -46q14 -10 14 -21t-17 -22l-205 -119q-17 -9 -26 -9q-8 0 -21 8zM33 246q0 115 77.5 188.5t201.5 73.5t202 -73.5t78 -187.5q0 -115 -78 -187.5t-203 -72.5q-124 0 -201 72.5t-77 186.5zM311 151
q39 0 66 27t27 69q0 43 -27.5 70.5t-65.5 27.5q-37 0 -63 -27.5t-26 -70.5t25.5 -69.5t63.5 -26.5z" />
    <glyph glyph-name="ocircumflex" unicode="&#xf4;" horiz-adv-x="625" 
d="M104 599q-14 8 -14 16t11 18l129 117q13 12 21 15t26 3h69q18 0 26 -3t21 -15l129 -117q11 -11 11 -18q0 -8 -14 -16l-62 -33q-12 -6 -21 -6q-13 0 -27 13l-97 92q-5 -5 -39.5 -39t-55 -50t-30.5 -16q-9 0 -21 6zM33 246q0 115 77.5 188.5t201.5 73.5t202 -73.5
t78 -187.5q0 -115 -78 -187.5t-203 -72.5q-124 0 -201 72.5t-77 186.5zM311 151q39 0 66 27t27 69q0 43 -27.5 70.5t-65.5 27.5q-37 0 -63 -27.5t-26 -70.5t25.5 -69.5t63.5 -26.5z" />
    <glyph glyph-name="otilde" unicode="&#xf5;" horiz-adv-x="625" 
d="M104 635q-6 9 -6 15t9 17q52 60 130 60q37 0 87 -19.5t69 -19.5q33 0 66 31q8 8 15 8q8 0 15 -10l37 -55q6 -7 6 -14q0 -8 -9 -18q-53 -60 -130 -60q-37 0 -87 19.5t-69 19.5q-33 0 -66 -31q-7 -7 -15 -7t-15 9zM33 246q0 115 77.5 188.5t201.5 73.5t202 -73.5t78 -187.5
q0 -115 -78 -187.5t-203 -72.5q-124 0 -201 72.5t-77 186.5zM311 151q39 0 66 27t27 69q0 43 -27.5 70.5t-65.5 27.5q-37 0 -63 -27.5t-26 -70.5t25.5 -69.5t63.5 -26.5z" />
    <glyph glyph-name="odieresis" unicode="&#xf6;" horiz-adv-x="625" 
d="M121 639q0 35 22.5 57t58.5 22t59 -22t23 -57t-23 -57t-59 -22t-58.5 22t-22.5 57zM340 639q0 35 22.5 57t58.5 22t59 -22t23 -57t-23 -57t-59 -22t-58.5 22t-22.5 57zM33 246q0 115 77.5 188.5t201.5 73.5t202 -73.5t78 -187.5q0 -115 -78 -187.5t-203 -72.5
q-124 0 -201 72.5t-77 186.5zM311 151q39 0 66 27t27 69q0 43 -27.5 70.5t-65.5 27.5q-37 0 -63 -27.5t-26 -70.5t25.5 -69.5t63.5 -26.5z" />
    <glyph glyph-name="divide" unicode="&#xf7;" horiz-adv-x="673" 
d="M246 537q0 38 25.5 62t65.5 24t66 -24t26 -62q0 -37 -26 -61t-66 -24t-65.5 24t-25.5 61zM66 368q0 27 28 27h486q27 0 27 -27v-96q0 -27 -27 -27h-486q-28 0 -28 27v96zM246 102q0 38 25.5 62t65.5 24t66 -24t26 -62q0 -37 -26 -61t-66 -24t-65.5 24t-25.5 61z" />
    <glyph glyph-name="oslash" unicode="&#xf8;" horiz-adv-x="625" 
d="M100 70q-67 70 -67 176q0 115 77.5 188.5t201.5 73.5q81 0 146 -35l14 16q11 13 19.5 17t23.5 4h44q20 0 20 -12q0 -7 -15 -23l-43 -48q71 -73 71 -180q0 -115 -78 -187.5t-203 -72.5q-83 0 -150 35l-11 -12q-11 -13 -19.5 -17t-23.5 -4h-45q-19 0 -19 12q0 7 15 23z
M342 342q-15 6 -31 6q-39 0 -65.5 -28.5t-26.5 -72.5q0 -23 5 -37zM278 154q16 -6 33 -6q40 0 68 27.5t28 71.5q0 20 -9 42z" />
    <glyph glyph-name="ugrave" unicode="&#xf9;" horiz-adv-x="619" 
d="M182 778q15 11 28 11q12 0 29 -11l183 -137q12 -9 12 -18t-12 -19l-47 -35q-12 -9 -21 -9q-10 0 -26 10l-205 119q-17 11 -17 22t14 21zM56 477q0 18 17 18h149q18 0 18 -18v-228q0 -98 69 -98t69 98v228q0 18 17 18h150q18 0 18 -18v-238q0 -125 -66.5 -188.5
t-187.5 -63.5q-122 0 -187.5 63t-65.5 188v239z" />
    <glyph glyph-name="uacute" unicode="&#xfa;" horiz-adv-x="619" 
d="M196 604q-12 10 -12 19t12 18l183 137q17 11 29 11q13 0 28 -11l62 -46q14 -10 14 -21t-17 -22l-205 -119q-16 -9 -26 -9q-8 0 -21 8zM56 477q0 18 17 18h149q18 0 18 -18v-228q0 -98 69 -98t69 98v228q0 18 17 18h150q18 0 18 -18v-238q0 -125 -66.5 -188.5
t-187.5 -63.5q-122 0 -187.5 63t-65.5 188v239z" />
    <glyph glyph-name="ucircumflex" unicode="&#xfb;" horiz-adv-x="619" 
d="M101 599q-14 8 -14 16t11 18l129 117q13 12 21 15t26 3h69q18 0 26 -3t21 -15l129 -117q11 -11 11 -18q0 -8 -14 -16l-62 -33q-12 -6 -21 -6q-13 0 -27 13l-97 92q-5 -5 -39.5 -39t-55 -50t-30.5 -16q-9 0 -21 6zM56 477q0 18 17 18h149q18 0 18 -18v-228q0 -98 69 -98
t69 98v228q0 18 17 18h150q18 0 18 -18v-238q0 -125 -66.5 -188.5t-187.5 -63.5q-122 0 -187.5 63t-65.5 188v239z" />
    <glyph glyph-name="udieresis" unicode="&#xfc;" horiz-adv-x="619" 
d="M118 639q0 35 22.5 57t58.5 22t59 -22t23 -57t-23 -57t-59 -22t-58.5 22t-22.5 57zM337 639q0 35 22.5 57t58.5 22t59 -22t23 -57t-23 -57t-59 -22t-58.5 22t-22.5 57zM56 477q0 18 17 18h149q18 0 18 -18v-228q0 -98 69 -98t69 98v228q0 18 17 18h150q18 0 18 -18v-238
q0 -125 -66.5 -188.5t-187.5 -63.5q-122 0 -187.5 63t-65.5 188v239z" />
    <glyph glyph-name="yacute" unicode="&#xfd;" horiz-adv-x="587" 
d="M180 604q-12 10 -12 19t12 18l183 137q17 11 29 11q13 0 28 -11l62 -46q14 -10 14 -21t-17 -22l-205 -119q-17 -9 -26 -9q-8 0 -21 8zM197 37l-193 435q-2 8 -2 11q0 12 14 12h154q26 0 33 -20l94 -221l93 221q7 20 33 20h149q16 0 16 -14q0 -5 -3 -13l-302 -675
q-11 -23 -25 -23h-162q-15 0 -15 12q0 5 3 11z" />
    <glyph glyph-name="thorn" unicode="&#xfe;" horiz-adv-x="606" 
d="M60 730q0 25 25 25h133q26 0 26 -25v-221q0 -14 14 -14h16q144 0 221.5 -62t77.5 -183q0 -122 -81 -186t-223 -64h-11q-14 0 -14 -14v-191q0 -25 -26 -25h-133q-25 0 -25 25v935zM269 155q55 0 85 25t30 69q0 91 -115 91h-11q-14 0 -14 -15v-156q0 -14 14 -14h11z" />
    <glyph glyph-name="ydieresis" unicode="&#xff;" horiz-adv-x="587" 
d="M102 639q0 35 22.5 57t58.5 22t59 -22t23 -57t-23 -57t-59 -22t-58.5 22t-22.5 57zM321 639q0 35 22.5 57t58.5 22t59 -22t23 -57t-23 -57t-59 -22t-58.5 22t-22.5 57zM197 37l-193 435q-2 8 -2 11q0 12 14 12h154q26 0 33 -20l94 -221l93 221q7 20 33 20h149
q16 0 16 -14q0 -5 -3 -13l-302 -675q-11 -23 -25 -23h-162q-15 0 -15 12q0 5 3 11z" />
    <glyph glyph-name="Amacron" unicode="&#x100;" 
d="M204 876q0 27 28 27h280q28 0 28 -27v-73q0 -26 -28 -26h-280q-28 0 -28 26v73zM318 664q15 29 27 40.5t28 11.5q27 0 54 -52l317 -631q6 -11 6 -18q0 -15 -23 -15h-142q-20 0 -28 5t-15 21l-35 73q-6 13 -19 13h-237q-13 0 -19 -13l-34 -73q-7 -16 -15.5 -21t-26.5 -5
h-137q-23 0 -23 15q0 9 5 18zM423 262q11 0 11 7q0 5 -2 8l-63 132l-62 -132q-3 -5 -3 -8q0 -7 11 -7h108z" />
    <glyph glyph-name="amacron" unicode="&#x101;" horiz-adv-x="567" 
d="M122 683q0 27 28 27h280q28 0 28 -27v-73q0 -26 -28 -26h-280q-28 0 -28 26v73zM329 22q-41 -32 -111 -32q-86 0 -136.5 43t-50.5 117q0 73 50.5 115.5t136.5 42.5q67 0 111 -28q-6 75 -98 75q-13 0 -35.5 -1.5t-28.5 -1.5q-12 0 -16.5 5t-6.5 19l-11 93q-1 15 4 21.5
t20 9.5q40 8 101 8q254 0 254 -252v-238q0 -18 -17 -18h-148q-18 0 -18 18v4zM217 150q0 -26 16 -42t41 -16t41.5 15.5t16.5 40.5q0 27 -17 42.5t-41 15.5q-25 0 -41 -15t-16 -41z" />
    <glyph glyph-name="Abreve" unicode="&#x102;" 
d="M269 951q22 0 27 -21q14 -59 76 -59t76 59q5 21 27 21h73q13 0 18 -5.5t5 -18.5q0 -75 -49 -124.5t-151 -49.5q-101 0 -149.5 49.5t-48.5 124.5q0 13 5 18.5t18 5.5h73zM318 664q15 29 27 40.5t28 11.5q27 0 54 -52l317 -631q6 -11 6 -18q0 -15 -23 -15h-142q-20 0 -28 5
t-15 21l-35 73q-6 13 -19 13h-237q-13 0 -19 -13l-34 -73q-7 -16 -15.5 -21t-26.5 -5h-137q-23 0 -23 15q0 9 5 18zM423 262q11 0 11 7q0 5 -2 8l-63 132l-62 -132q-3 -5 -3 -8q0 -7 11 -7h108z" />
    <glyph glyph-name="abreve" unicode="&#x103;" horiz-adv-x="567" 
d="M187 758q23 0 27 -20q15 -63 76 -63q63 0 76 63q4 20 27 20h73q13 0 18 -5.5t5 -18.5q0 -74 -50 -124t-150 -50q-101 0 -149.5 49.5t-48.5 124.5q0 13 5 18.5t18 5.5h73zM329 22q-41 -32 -111 -32q-86 0 -136.5 43t-50.5 117q0 73 50.5 115.5t136.5 42.5q67 0 111 -28
q-6 75 -98 75q-13 0 -35.5 -1.5t-28.5 -1.5q-12 0 -16.5 5t-6.5 19l-11 93q-1 15 4 21.5t20 9.5q40 8 101 8q254 0 254 -252v-238q0 -18 -17 -18h-148q-18 0 -18 18v4zM217 150q0 -26 16 -42t41 -16t41.5 15.5t16.5 40.5q0 27 -17 42.5t-41 15.5q-25 0 -41 -15t-16 -41z" />
    <glyph glyph-name="Aogonek" unicode="&#x104;" 
d="M318 664q15 29 27 40.5t27 11.5q28 0 55 -52q105 -211 317 -631q5 -13 5 -18q0 -15 -23 -15h-59q-66 -32 -66 -86q0 -24 16.5 -38.5t41.5 -14.5q33 0 59 16q8 5 13 5q6 0 12 -10l24 -47q3 -6 3 -11q0 -18 -43 -33.5t-81 -15.5q-67 0 -109 36t-42 92q0 65 60 111
q-10 11 -18 31l-30 64q-6 13 -19 13h-238q-12 0 -18 -13l-34 -74q-7 -16 -15.5 -20.5t-27.5 -4.5h-136q-23 0 -23 15q0 9 5 18zM422 262q11 0 11 7q0 2 -2 8q-42 86 -62 130l-62 -130q-3 -6 -3 -9q0 -6 11 -6h107z" />
    <glyph glyph-name="aogonek" unicode="&#x105;" horiz-adv-x="567" 
d="M329 22q-41 -32 -111 -32q-86 0 -136.5 43t-50.5 117q0 73 50.5 115.5t136.5 42.5q67 0 111 -28q-6 75 -98 75q-13 0 -35.5 -1.5t-28.5 -1.5q-12 0 -16.5 5t-6.5 19l-11 93q-1 15 4 21.5t20 9.5q40 8 101 8q254 0 254 -252v-238q0 -18 -17 -18h-31q-77 -34 -77 -87
q0 -24 15 -38t40 -14q33 0 60 15q8 5 13 5q7 0 11 -10l24 -46q3 -6 3 -11q0 -10 -12 -17q-48 -32 -110 -32q-68 0 -109 35.5t-41 91.5q0 67 60 108q-12 3 -12 18v4zM217 150q0 -26 16 -42t41 -16t41.5 15.5t16.5 40.5q0 27 -17 42.5t-41 15.5q-25 0 -41 -15t-16 -41z" />
    <glyph glyph-name="Cacute" unicode="&#x106;" horiz-adv-x="713" 
d="M289 797q-12 11 -12 19q0 9 12 18l183 137q17 11 29 11q13 0 28 -11l62 -46q14 -10 14 -21t-17 -22l-205 -120q-16 -9 -26 -9q-8 0 -21 8zM683 122q6 -9 6 -17q0 -12 -16 -25q-115 -94 -262 -94q-163 0 -269.5 102.5t-106.5 257.5q0 160 108.5 264t275.5 104
q146 0 259 -95q12 -11 12 -20q0 -8 -7 -18l-65 -92q-9 -13 -20 -13q-7 0 -20 8q-78 55 -160 55t-134.5 -52.5t-52.5 -137.5q0 -83 52.5 -136t134.5 -53q87 0 162 57q12 9 21 9t18 -12z" />
    <glyph glyph-name="cacute" unicode="&#x107;" horiz-adv-x="541" 
d="M180 604q-12 10 -12 19t12 18l183 137q17 11 29 11q13 0 28 -11l62 -46q14 -10 14 -21t-17 -22l-205 -119q-17 -9 -26 -9q-8 0 -21 8zM512 86q5 -8 5 -16q0 -12 -10 -19q-45 -32 -90 -48t-109 -16q-121 0 -198 71.5t-77 187.5q0 117 76.5 189.5t196.5 72.5q113 0 201 -65
q11 -8 11 -20q0 -9 -5 -15l-58 -95q-7 -12 -18 -12q-9 0 -18 6q-59 38 -107 38q-43 0 -66.5 -28t-23.5 -70t23.5 -69t67.5 -27q57 0 106 37q9 6 17 6q11 0 19 -12z" />
    <glyph glyph-name="Ccircumflex" unicode="&#x108;" horiz-adv-x="713" 
d="M189 792q-14 8 -14 16t11 18l129 117q20 18 47 18h69q27 0 47 -18l129 -117q11 -11 11 -18q0 -8 -14 -16l-62 -33q-11 -7 -22 -7q-10 0 -26 14l-97 92q-6 -6 -40 -39.5t-54.5 -50t-30.5 -16.5t-21 7zM683 122q6 -9 6 -17q0 -12 -16 -25q-115 -94 -262 -94
q-163 0 -269.5 102.5t-106.5 257.5q0 160 108.5 264t275.5 104q146 0 259 -95q12 -11 12 -20q0 -8 -7 -18l-65 -92q-9 -13 -20 -13q-7 0 -20 8q-78 55 -160 55t-134.5 -52.5t-52.5 -137.5q0 -83 52.5 -136t134.5 -53q87 0 162 57q12 9 21 9t18 -12z" />
    <glyph glyph-name="ccircumflex" unicode="&#x109;" horiz-adv-x="541" 
d="M88 599q-14 8 -14 16t11 18l129 117q13 12 21 15t26 3h69q18 0 26 -3t21 -15l129 -117q11 -11 11 -18q0 -8 -14 -16l-62 -33q-12 -6 -21 -6q-13 0 -27 13l-97 92q-5 -5 -39.5 -39t-55 -50t-30.5 -16q-9 0 -21 6zM512 86q5 -8 5 -16q0 -12 -10 -19q-45 -32 -90 -48
t-109 -16q-121 0 -198 71.5t-77 187.5q0 117 76.5 189.5t196.5 72.5q113 0 201 -65q11 -8 11 -20q0 -9 -5 -15l-58 -95q-7 -12 -18 -12q-9 0 -18 6q-59 38 -107 38q-43 0 -66.5 -28t-23.5 -70t23.5 -69t67.5 -27q57 0 106 37q9 6 17 6q11 0 19 -12z" />
    <glyph glyph-name="Cdotaccent" unicode="&#x10a;" horiz-adv-x="713" 
d="M305 837q0 38 26 62t66 24t66 -24t26 -62q0 -37 -26 -60.5t-66 -23.5t-66 23.5t-26 60.5zM683 122q6 -9 6 -17q0 -12 -16 -25q-115 -94 -262 -94q-163 0 -269.5 102.5t-106.5 257.5q0 160 108.5 264t275.5 104q146 0 259 -95q12 -11 12 -20q0 -8 -7 -18l-65 -92
q-9 -13 -20 -13q-7 0 -20 8q-78 55 -160 55t-134.5 -52.5t-52.5 -137.5q0 -83 52.5 -136t134.5 -53q87 0 162 57q12 9 21 9t18 -12z" />
    <glyph glyph-name="cdotaccent" unicode="&#x10b;" horiz-adv-x="541" 
d="M197 644q0 38 26 62.5t66 24.5t66 -24.5t26 -62.5q0 -37 -26 -60.5t-66 -23.5t-66 23.5t-26 60.5zM512 86q5 -8 5 -16q0 -12 -10 -19q-45 -32 -90 -48t-109 -16q-121 0 -198 71.5t-77 187.5q0 117 76.5 189.5t196.5 72.5q113 0 201 -65q11 -8 11 -20q0 -9 -5 -15l-58 -95
q-7 -12 -18 -12q-9 0 -18 6q-59 38 -107 38q-43 0 -66.5 -28t-23.5 -70t23.5 -69t67.5 -27q57 0 106 37q9 6 17 6q11 0 19 -12z" />
    <glyph glyph-name="Ccaron" unicode="&#x10c;" horiz-adv-x="713" 
d="M186 888q-11 9 -11 17q0 9 14 17l62 33q12 6 21 6q13 0 27 -14l98 -91l98 91q14 14 27 14q9 0 21 -6l62 -33q14 -8 14 -17q0 -8 -11 -17l-130 -117q-13 -12 -21 -15t-25 -3h-70q-17 0 -25 3t-21 15zM683 122q6 -9 6 -17q0 -12 -16 -25q-115 -94 -262 -94
q-163 0 -269.5 102.5t-106.5 257.5q0 160 108.5 264t275.5 104q146 0 259 -95q12 -11 12 -20q0 -8 -7 -18l-65 -92q-9 -13 -20 -13q-7 0 -20 8q-78 55 -160 55t-134.5 -52.5t-52.5 -137.5q0 -83 52.5 -136t134.5 -53q87 0 162 57q12 9 21 9t18 -12z" />
    <glyph glyph-name="ccaron" unicode="&#x10d;" horiz-adv-x="541" 
d="M85 695q-11 11 -11 18q0 8 14 16l62 33q12 6 21 6q13 0 27 -14l98 -91l98 91q14 14 27 14q9 0 21 -6l62 -33q14 -8 14 -16q0 -7 -11 -18l-130 -117q-13 -12 -21 -15t-25 -3h-70q-17 0 -25 3t-21 15zM512 86q5 -8 5 -16q0 -12 -10 -19q-45 -32 -90 -48t-109 -16
q-121 0 -198 71.5t-77 187.5q0 117 76.5 189.5t196.5 72.5q113 0 201 -65q11 -8 11 -20q0 -9 -5 -15l-58 -95q-7 -12 -18 -12q-9 0 -18 6q-59 38 -107 38q-43 0 -66.5 -28t-23.5 -70t23.5 -69t67.5 -27q57 0 106 37q9 6 17 6q11 0 19 -12z" />
    <glyph glyph-name="Dcaron" unicode="&#x10e;" horiz-adv-x="773" 
d="M150 888q-11 9 -11 17q0 9 14 17l62 33q12 6 21 6q13 0 27 -14l98 -91l98 91q14 14 27 14q9 0 21 -6l62 -33q14 -8 14 -17q0 -8 -11 -17l-130 -117q-13 -12 -21 -15t-25 -3h-70q-17 0 -25 3t-21 15zM70 673q0 27 27 27h256q183 0 284 -92t101 -250q0 -165 -106 -261.5
t-297 -96.5h-238q-27 0 -27 27v646zM335 171q102 0 154.5 48t52.5 134q0 81 -52.5 128.5t-150.5 47.5h-63q-10 0 -13 -3.5t-3 -12.5v-326q0 -9 3 -12.5t13 -3.5h59z" />
    <glyph glyph-name="dcaron" unicode="&#x10f;" horiz-adv-x="790" 
d="M331 0q-143 0 -220.5 62t-77.5 183t81 185.5t223 64.5h11q14 0 14 14v221q0 25 26 25h133q25 0 25 -25v-705q0 -25 -25 -25h-190zM671 587q-30 7 -49.5 27.5t-19.5 53.5q0 38 29 62.5t76 24.5q44 0 71.5 -24.5t27.5 -65.5q0 -44 -40 -115l-37 -66q-8 -15 -16 -20t-27 -5
h-53q-23 0 -23 14q0 6 6 17zM348 155q14 0 14 15v156q0 14 -14 14h-11q-54 0 -84.5 -25t-30.5 -69q0 -91 115 -91h11z" />
    <glyph glyph-name="Dcroat" unicode="&#x110;" horiz-adv-x="784" 
d="M75 265q0 16 -16 16h-30q-28 0 -28 26v87q0 27 28 27h30q16 0 16 15v237q0 27 27 27h256q183 0 284 -92t101 -250q0 -165 -106 -261.5t-296 -96.5h-239q-27 0 -27 27v238zM340 171q102 0 155 48t53 134q0 81 -52.5 128.5t-151.5 47.5h-63q-10 0 -13 -3.5t-3 -12.5v-77
q0 -15 15 -15h97q28 0 28 -27v-87q0 -26 -28 -26h-97q-15 0 -15 -16v-78q0 -9 3 -12.5t13 -3.5h59z" />
    <glyph glyph-name="dcroat" unicode="&#x111;" horiz-adv-x="606" 
d="M331 0q-143 0 -220.5 62t-77.5 183t81 185.5t223 64.5h11q14 0 14 14v52h-101q-26 0 -26 26v68q0 27 26 27h101v48q0 25 26 25h133q25 0 25 -25v-48h44q27 0 27 -27v-68q0 -26 -27 -26h-44v-536q0 -25 -25 -25h-190zM348 155q14 0 14 15v156q0 14 -14 14h-11
q-54 0 -84.5 -25t-30.5 -69q0 -91 115 -91h11z" />
    <glyph glyph-name="Emacron" unicode="&#x112;" horiz-adv-x="595" 
d="M144 876q0 27 28 27h280q28 0 28 -27v-73q0 -26 -28 -26h-280q-28 0 -28 26v73zM70 673q0 27 27 27h427q28 0 28 -27v-111q0 -27 -28 -27h-248q-10 0 -13 -3.5t-3 -12.5v-70q0 -9 3 -12t13 -3h215q27 0 27 -28v-109q0 -27 -27 -27h-215q-10 0 -13 -3.5t-3 -12.5v-73
q0 -9 3 -12.5t13 -3.5h249q28 0 28 -27v-111q0 -27 -28 -27h-428q-27 0 -27 27v646z" />
    <glyph glyph-name="emacron" unicode="&#x113;" horiz-adv-x="588" 
d="M129 683q0 27 28 27h280q28 0 28 -27v-73q0 -26 -28 -26h-280q-28 0 -28 26v73zM524 82q5 -10 5 -16q0 -13 -16 -22q-84 -57 -213 -57q-122 0 -194.5 72.5t-72.5 186.5q0 115 73.5 188.5t190.5 73.5q118 0 188 -71.5t70 -186.5v-29q0 -19 -18 -19h-317q6 -35 33 -54.5
t67 -19.5q71 0 127 33q14 8 23 8q11 0 16 -12zM369 312q-2 33 -21 53t-51 20q-29 0 -48.5 -19t-26.5 -54h147z" />
    <glyph glyph-name="Ebreve" unicode="&#x114;" horiz-adv-x="595" 
d="M206 951q22 0 27 -21q14 -59 76 -59t76 59q5 21 27 21h73q13 0 18 -5.5t5 -18.5q0 -75 -49 -124.5t-151 -49.5q-101 0 -149.5 49.5t-48.5 124.5q0 13 5 18.5t18 5.5h73zM70 673q0 27 27 27h427q28 0 28 -27v-111q0 -27 -28 -27h-248q-10 0 -13 -3.5t-3 -12.5v-70
q0 -9 3 -12t13 -3h215q27 0 27 -28v-109q0 -27 -27 -27h-215q-10 0 -13 -3.5t-3 -12.5v-73q0 -9 3 -12.5t13 -3.5h249q28 0 28 -27v-111q0 -27 -28 -27h-428q-27 0 -27 27v646z" />
    <glyph glyph-name="ebreve" unicode="&#x115;" horiz-adv-x="588" 
d="M194 758q23 0 27 -20q15 -63 76 -63q63 0 76 63q4 20 27 20h73q13 0 18 -5.5t5 -18.5q0 -74 -50 -124t-150 -50q-101 0 -149.5 49.5t-48.5 124.5q0 13 5 18.5t18 5.5h73zM524 82q5 -10 5 -16q0 -13 -16 -22q-84 -57 -213 -57q-122 0 -194.5 72.5t-72.5 186.5
q0 115 73.5 188.5t190.5 73.5q118 0 188 -71.5t70 -186.5v-29q0 -19 -18 -19h-317q6 -35 33 -54.5t67 -19.5q71 0 127 33q14 8 23 8q11 0 16 -12zM369 312q-2 33 -21 53t-51 20q-29 0 -48.5 -19t-26.5 -54h147z" />
    <glyph glyph-name="Edotaccent" unicode="&#x116;" horiz-adv-x="595" 
d="M220 837q0 38 26 62t66 24t66 -24t26 -62q0 -37 -26 -60.5t-66 -23.5t-66 23.5t-26 60.5zM70 673q0 27 27 27h427q28 0 28 -27v-111q0 -27 -28 -27h-248q-10 0 -13 -3.5t-3 -12.5v-70q0 -9 3 -12t13 -3h215q27 0 27 -28v-109q0 -27 -27 -27h-215q-10 0 -13 -3.5t-3 -12.5
v-73q0 -9 3 -12.5t13 -3.5h249q28 0 28 -27v-111q0 -27 -28 -27h-428q-27 0 -27 27v646z" />
    <glyph glyph-name="edotaccent" unicode="&#x117;" horiz-adv-x="588" 
d="M205 644q0 38 26 62.5t66 24.5t66 -24.5t26 -62.5q0 -37 -26 -60.5t-66 -23.5t-66 23.5t-26 60.5zM524 82q5 -10 5 -16q0 -13 -16 -22q-84 -57 -213 -57q-122 0 -194.5 72.5t-72.5 186.5q0 115 73.5 188.5t190.5 73.5q118 0 188 -71.5t70 -186.5v-29q0 -19 -18 -19h-317
q6 -35 33 -54.5t67 -19.5q71 0 127 33q14 8 23 8q11 0 16 -12zM369 312q-2 33 -21 53t-51 20q-29 0 -48.5 -19t-26.5 -54h147z" />
    <glyph glyph-name="Eogonek" unicode="&#x118;" horiz-adv-x="595" 
d="M70 673q0 27 27 27h427q28 0 28 -27v-111q0 -27 -28 -27h-248q-10 0 -13 -3.5t-3 -12.5v-70q0 -9 3 -12t13 -3h215q27 0 27 -28v-109q0 -27 -27 -27h-215q-10 0 -13 -3.5t-3 -12.5v-73q0 -9 3 -12.5t13 -3.5h249q28 0 28 -27v-111q0 -27 -28 -27h-94q-67 -32 -67 -86
q0 -24 16.5 -38.5t41.5 -14.5q32 0 60 15q8 5 12 5q8 0 12 -10l24 -46q3 -6 3 -11q0 -10 -12 -17q-48 -32 -112 -32q-67 0 -109 35.5t-42 91.5q0 62 55 108h-216q-27 0 -27 27v646z" />
    <glyph glyph-name="eogonek" unicode="&#x119;" horiz-adv-x="588" 
d="M446 -175q3 -6 3 -11q0 -10 -12 -17q-48 -32 -112 -32q-67 0 -109 35.5t-42 91.5q0 60 50 104q-89 20 -140 87.5t-51 162.5q0 115 73.5 188.5t190.5 73.5q118 0 188 -71.5t70 -186.5v-29q0 -19 -18 -19h-317q6 -35 33 -54.5t67 -19.5q71 0 127 33q14 8 23 8q11 0 16 -12
l38 -75q5 -10 5 -16q0 -13 -16 -22q-74 -52 -188 -56q-45 -32 -45 -75q0 -24 15.5 -38t40.5 -14q36 0 61 15q8 5 13 5q8 0 12 -10zM369 312q-2 33 -21 53t-51 20q-29 0 -48.5 -19t-26.5 -54h147z" />
    <glyph glyph-name="Ecaron" unicode="&#x11a;" horiz-adv-x="595" 
d="M101 888q-11 9 -11 17q0 9 14 17l62 33q12 6 21 6q13 0 27 -14l98 -91l98 91q14 14 27 14q9 0 21 -6l62 -33q14 -8 14 -17q0 -8 -11 -17l-130 -117q-13 -12 -21 -15t-25 -3h-70q-17 0 -25 3t-21 15zM70 673q0 27 27 27h427q28 0 28 -27v-111q0 -27 -28 -27h-248
q-10 0 -13 -3.5t-3 -12.5v-70q0 -9 3 -12t13 -3h215q27 0 27 -28v-109q0 -27 -27 -27h-215q-10 0 -13 -3.5t-3 -12.5v-73q0 -9 3 -12.5t13 -3.5h249q28 0 28 -27v-111q0 -27 -28 -27h-428q-27 0 -27 27v646z" />
    <glyph glyph-name="ecaron" unicode="&#x11b;" horiz-adv-x="588" 
d="M86 695q-11 11 -11 18q0 8 14 16l62 33q12 6 21 6q13 0 27 -14l98 -91l98 91q14 14 27 14q9 0 21 -6l62 -33q14 -8 14 -16q0 -7 -11 -18l-130 -117q-13 -12 -21 -15t-25 -3h-70q-17 0 -25 3t-21 15zM524 82q5 -10 5 -16q0 -13 -16 -22q-84 -57 -213 -57
q-122 0 -194.5 72.5t-72.5 186.5q0 115 73.5 188.5t190.5 73.5q118 0 188 -71.5t70 -186.5v-29q0 -19 -18 -19h-317q6 -35 33 -54.5t67 -19.5q71 0 127 33q14 8 23 8q11 0 16 -12zM369 312q-2 33 -21 53t-51 20q-29 0 -48.5 -19t-26.5 -54h147z" />
    <glyph glyph-name="Gcircumflex" unicode="&#x11c;" horiz-adv-x="764" 
d="M188 792q-14 8 -14 16t11 18l129 117q20 18 47 18h69q27 0 47 -18l129 -117q11 -11 11 -18q0 -8 -14 -16l-62 -33q-11 -7 -22 -7q-10 0 -26 14l-97 92q-6 -6 -40 -39.5t-54.5 -50t-30.5 -16.5t-21 7zM523 329q0 28 27 28h136q27 0 27 -28v-233q0 -29 -25 -42
q-136 -68 -278 -68q-163 0 -269 99t-106 258q0 166 107.5 268.5t276.5 102.5q147 0 263 -79q18 -12 18 -25q0 -9 -8 -20l-56 -88q-11 -17 -23 -17q-9 0 -20 7q-83 47 -172 47q-88 0 -139 -53.5t-51 -137.5t50.5 -137t131.5 -53q57 0 94 15q16 5 16 22v134z" />
    <glyph glyph-name="gcircumflex" unicode="&#x11d;" horiz-adv-x="605" 
d="M105 599q-14 8 -14 16t11 18l129 117q13 12 21 15t26 3h69q18 0 26 -3t21 -15l129 -117q11 -11 11 -18q0 -8 -14 -16l-62 -33q-12 -6 -21 -6q-13 0 -27 13l-97 92q-5 -5 -39.5 -39t-55 -50t-30.5 -16q-9 0 -21 6zM151 -76q6 17 16 17q1 0 36 -8.5t68 -8.5q42 0 66.5 18.5
t24.5 49.5q0 8 -8 8h-20q-141 0 -221 60t-80 185q0 119 80 184.5t222 65.5h186q25 0 25 -25v-440q0 -127 -67.5 -194t-195.5 -67q-96 0 -151 26q-14 6 -14 20q0 5 4 19zM348 155q14 0 14 14v156q0 15 -14 15h-11q-56 0 -85.5 -25t-29.5 -70q0 -90 114 -90h12z" />
    <glyph glyph-name="Gbreve" unicode="&#x11e;" horiz-adv-x="764" 
d="M291 951q22 0 27 -21q14 -59 76 -59t76 59q5 21 27 21h73q13 0 18 -5.5t5 -18.5q0 -75 -49 -124.5t-151 -49.5q-101 0 -149.5 49.5t-48.5 124.5q0 13 5 18.5t18 5.5h73zM523 329q0 28 27 28h136q27 0 27 -28v-233q0 -29 -25 -42q-136 -68 -278 -68q-163 0 -269 99
t-106 258q0 166 107.5 268.5t276.5 102.5q147 0 263 -79q18 -12 18 -25q0 -9 -8 -20l-56 -88q-11 -17 -23 -17q-9 0 -20 7q-83 47 -172 47q-88 0 -139 -53.5t-51 -137.5t50.5 -137t131.5 -53q57 0 94 15q16 5 16 22v134z" />
    <glyph glyph-name="gbreve" unicode="&#x11f;" horiz-adv-x="605" 
d="M206 758q23 0 27 -20q15 -63 76 -63q63 0 76 63q4 20 27 20h73q13 0 18 -5.5t5 -18.5q0 -74 -50 -124t-150 -50q-101 0 -149.5 49.5t-48.5 124.5q0 13 5 18.5t18 5.5h73zM151 -76q6 17 16 17q1 0 36 -8.5t68 -8.5q42 0 66.5 18.5t24.5 49.5q0 8 -8 8h-20q-141 0 -221 60
t-80 185q0 119 80 184.5t222 65.5h186q25 0 25 -25v-440q0 -127 -67.5 -194t-195.5 -67q-96 0 -151 26q-14 6 -14 20q0 5 4 19zM348 155q14 0 14 14v156q0 15 -14 15h-11q-56 0 -85.5 -25t-29.5 -70q0 -90 114 -90h12z" />
    <glyph glyph-name="Gdotaccent" unicode="&#x120;" horiz-adv-x="764" 
d="M304 837q0 38 26 62t66 24t66 -24t26 -62q0 -37 -26 -60.5t-66 -23.5t-66 23.5t-26 60.5zM523 329q0 28 27 28h136q27 0 27 -28v-233q0 -29 -25 -42q-136 -68 -278 -68q-163 0 -269 99t-106 258q0 166 107.5 268.5t276.5 102.5q147 0 263 -79q18 -12 18 -25q0 -9 -8 -20
l-56 -88q-11 -17 -23 -17q-9 0 -20 7q-83 47 -172 47q-88 0 -139 -53.5t-51 -137.5t50.5 -137t131.5 -53q57 0 94 15q16 5 16 22v134z" />
    <glyph glyph-name="gdotaccent" unicode="&#x121;" horiz-adv-x="605" 
d="M219 644q0 38 26 62.5t66 24.5t66 -24.5t26 -62.5q0 -37 -26 -60.5t-66 -23.5t-66 23.5t-26 60.5zM151 -76q6 17 16 17q1 0 36 -8.5t68 -8.5q42 0 66.5 18.5t24.5 49.5q0 8 -8 8h-20q-141 0 -221 60t-80 185q0 119 80 184.5t222 65.5h186q25 0 25 -25v-440
q0 -127 -67.5 -194t-195.5 -67q-96 0 -151 26q-14 6 -14 20q0 5 4 19zM348 155q14 0 14 14v156q0 15 -14 15h-11q-56 0 -85.5 -25t-29.5 -70q0 -90 114 -90h12z" />
    <glyph glyph-name="uni0122" unicode="&#x122;" horiz-adv-x="764" 
d="M523 329q0 28 27 28h136q27 0 27 -28v-233q0 -29 -25 -42q-136 -68 -278 -68q-163 0 -269 99t-106 258q0 166 107.5 268.5t276.5 102.5q147 0 263 -79q18 -12 18 -25q0 -9 -8 -20l-56 -88q-11 -17 -23 -17q-9 0 -20 7q-83 47 -172 47q-88 0 -139 -53.5t-51 -137.5
t50.5 -137t131.5 -53q57 0 94 15q16 5 16 22v134zM351 -195q-28 6 -46 25.5t-18 51.5q0 37 28.5 60.5t73.5 23.5t71.5 -23t26.5 -64q0 -42 -40 -110l-19 -34q-8 -14 -16 -18.5t-27 -4.5h-55q-24 0 -24 14q0 7 6 16z" />
    <glyph glyph-name="uni0123" unicode="&#x123;" horiz-adv-x="605" 
d="M263 791q8 14 16 18.5t27 4.5h55q24 0 24 -14q0 -7 -6 -16l-39 -63q28 -7 46 -26.5t18 -50.5q0 -37 -28.5 -60.5t-73.5 -23.5t-71.5 23t-26.5 64q0 42 40 110zM151 -76q6 17 16 17q1 0 36 -8.5t68 -8.5q42 0 66.5 18.5t24.5 49.5q0 8 -8 8h-20q-141 0 -221 60t-80 185
q0 119 80 184.5t222 65.5h186q25 0 25 -25v-440q0 -127 -67.5 -194t-195.5 -67q-96 0 -151 26q-14 6 -14 20q0 5 4 19zM348 155q14 0 14 14v156q0 15 -14 15h-11q-56 0 -85.5 -25t-29.5 -70q0 -90 114 -90h12z" />
    <glyph glyph-name="Hcircumflex" unicode="&#x124;" horiz-adv-x="761" 
d="M172 792q-14 8 -14 16t11 18l129 117q20 18 47 18h69q27 0 47 -18l129 -117q11 -11 11 -18q0 -8 -14 -16l-62 -33q-11 -7 -22 -7q-10 0 -26 14l-97 92q-6 -6 -40 -39.5t-54.5 -50t-30.5 -16.5t-21 7zM70 673q0 27 27 27h135q28 0 28 -27v-214q0 -9 3 -12.5t13 -3.5h208
q16 0 16 16v214q0 27 28 27h135q28 0 28 -27v-646q0 -27 -28 -27h-135q-28 0 -28 27v227q0 16 -16 16h-208q-10 0 -13 -3.5t-3 -12.5v-227q0 -27 -28 -27h-135q-27 0 -27 27v646z" />
    <glyph glyph-name="hcircumflex" unicode="&#x125;" horiz-adv-x="625" 
d="M96 827q-14 8 -14 16t11 18l129 117q20 18 47 18h69q27 0 47 -18l129 -117q11 -11 11 -18q0 -8 -14 -16l-62 -33q-11 -7 -22 -7q-10 0 -26 14l-97 92q-6 -6 -40 -39.5t-54.5 -50t-30.5 -16.5t-21 7zM60 730q0 25 25 25h133q26 0 26 -25v-284q49 59 133 59q192 0 192 -238
v-247q0 -20 -19 -20h-145q-20 0 -20 20v223q0 101 -70 101q-71 0 -71 -101v-223q0 -20 -19 -20h-146q-19 0 -19 20v710z" />
    <glyph glyph-name="Hbar" unicode="&#x126;" horiz-adv-x="773" 
d="M76 477q0 15 -16 15h-33q-27 0 -27 27v81q0 27 27 27h33q16 0 16 16v30q0 27 27 27h136q28 0 28 -27v-30q0 -16 15 -16h209q16 0 16 16v30q0 27 27 27h136q27 0 27 -27v-30q0 -16 15 -16h34q27 0 27 -27v-81q0 -27 -27 -27h-34q-15 0 -15 -15v-450q0 -27 -27 -27h-136
q-27 0 -27 27v225q0 16 -17 16h-208q-15 0 -15 -16v-225q0 -27 -28 -27h-136q-27 0 -27 27v450zM490 419q17 0 17 16v42q0 15 -16 15h-209q-15 0 -15 -15v-42q0 -16 15 -16h208z" />
    <glyph glyph-name="hbar" unicode="&#x127;" horiz-adv-x="625" 
d="M60 561h-44q-27 0 -27 26v68q0 27 27 27h44v48q0 25 25 25h133q26 0 26 -25v-48h106q26 0 26 -27v-68q0 -26 -26 -26h-106v-115q49 59 133 59q192 0 192 -238v-247q0 -20 -19 -20h-145q-20 0 -20 20v223q0 101 -70 101q-71 0 -71 -101v-223q0 -20 -19 -20h-146
q-19 0 -19 20v541z" />
    <glyph glyph-name="Itilde" unicode="&#x128;" horiz-adv-x="330" 
d="M-45 828q-6 9 -6 15q0 7 9 17q52 60 130 60q38 0 87.5 -19.5t68.5 -19.5q33 0 66 31q8 8 15 8q8 0 15 -10l37 -56q6 -8 6 -13q0 -7 -9 -18q-52 -60 -130 -60q-38 0 -87 19.5t-69 19.5q-33 0 -66 -31q-7 -7 -15 -7q-7 0 -15 9zM70 673q0 27 27 27h135q28 0 28 -27v-646
q0 -27 -28 -27h-135q-27 0 -27 27v646z" />
    <glyph glyph-name="itilde" unicode="&#x129;" horiz-adv-x="304" 
d="M-56 635q-6 9 -6 15t9 17q53 60 130 60q38 0 87.5 -19.5t68.5 -19.5q33 0 66 31q8 8 15 8q8 0 15 -10l37 -55q6 -7 6 -14q0 -8 -9 -18q-53 -60 -130 -60q-37 0 -87 19.5t-69 19.5q-33 0 -66 -31q-7 -7 -15 -7t-15 9zM60 469q0 26 26 26h131q27 0 27 -26v-443
q0 -26 -27 -26h-131q-26 0 -26 26v443z" />
    <glyph glyph-name="Imacron" unicode="&#x12a;" horiz-adv-x="330" 
d="M-3 876q0 27 28 27h280q28 0 28 -27v-73q0 -26 -28 -26h-280q-28 0 -28 26v73zM70 673q0 27 27 27h135q28 0 28 -27v-646q0 -27 -28 -27h-135q-27 0 -27 27v646z" />
    <glyph glyph-name="imacron" unicode="&#x12b;" horiz-adv-x="304" 
d="M-16 683q0 27 28 27h280q28 0 28 -27v-73q0 -26 -28 -26h-280q-28 0 -28 26v73zM60 469q0 26 26 26h131q27 0 27 -26v-443q0 -26 -27 -26h-131q-26 0 -26 26v443z" />
    <glyph glyph-name="Ibreve" unicode="&#x12c;" horiz-adv-x="330" 
d="M62 951q22 0 27 -21q14 -59 76 -59t76 59q5 21 27 21h73q13 0 18 -5.5t5 -18.5q0 -75 -49 -124.5t-151 -49.5q-101 0 -149.5 49.5t-48.5 124.5q0 13 5 18.5t18 5.5h73zM70 673q0 27 27 27h135q28 0 28 -27v-646q0 -27 -28 -27h-135q-27 0 -27 27v646z" />
    <glyph glyph-name="ibreve" unicode="&#x12d;" horiz-adv-x="304" 
d="M50 758q23 0 27 -20q15 -63 76 -63q63 0 76 63q4 20 27 20h73q13 0 18 -5.5t5 -18.5q0 -74 -50 -124t-150 -50q-101 0 -149.5 49.5t-48.5 124.5q0 13 5 18.5t18 5.5h73zM60 469q0 26 26 26h131q27 0 27 -26v-443q0 -26 -27 -26h-131q-26 0 -26 26v443z" />
    <glyph glyph-name="Iogonek" unicode="&#x12e;" horiz-adv-x="330" 
d="M296 -175q3 -6 3 -11q0 -10 -12 -17q-48 -32 -112 -32q-67 0 -109 35.5t-42 91.5q0 65 58 111q-12 6 -12 24v646q0 27 27 27h135q28 0 28 -27v-646q0 -27 -28 -27h-35q-67 -34 -67 -87q0 -24 15.5 -38t40.5 -14q35 0 62 15q8 5 13 5q7 0 11 -10z" />
    <glyph glyph-name="iogonek" unicode="&#x12f;" horiz-adv-x="304" 
d="M50 658q0 44 28 73.5t74 29.5t74 -29.5t28 -73.5t-28 -72.5t-74 -28.5t-74 28.5t-28 72.5zM60 469q0 26 26 26h131q27 0 27 -26v-443q0 -26 -27 -26h-32q-67 -34 -67 -87q0 -24 15.5 -38t40.5 -14q35 0 62 15q8 5 13 5q7 0 11 -10l24 -46q3 -6 3 -11q0 -10 -12 -17
q-48 -32 -112 -32q-67 0 -109 35.5t-42 91.5q0 65 59 111q-11 5 -11 23v443z" />
    <glyph glyph-name="Idotaccent" unicode="&#x130;" horiz-adv-x="330" 
d="M73 837q0 38 26 62t66 24t66 -24t26 -62q0 -37 -26 -60.5t-66 -23.5t-66 23.5t-26 60.5zM70 673q0 27 27 27h135q28 0 28 -27v-646q0 -27 -28 -27h-135q-27 0 -27 27v646z" />
    <glyph glyph-name="dotlessi" unicode="&#x131;" horiz-adv-x="304" 
d="M60 469q0 26 26 26h131q27 0 27 -26v-443q0 -26 -27 -26h-131q-26 0 -26 26v443z" />
    <glyph glyph-name="IJ" unicode="&#x132;" horiz-adv-x="664" 
d="M70 673q0 27 27 27h135q28 0 28 -27v-646q0 -27 -28 -27h-135q-27 0 -27 27v646zM270 -56q1 23 19 23q5 0 20 -1.5t24 -1.5q34 0 52.5 24t18.5 70v615q0 27 27 27h136q27 0 27 -27v-626q0 -252 -228 -252q-56 0 -87 8q-25 6 -22 31z" />
    <glyph glyph-name="ij" unicode="&#x133;" horiz-adv-x="605" 
d="M50 658q0 44 28 73.5t74 29.5t74 -29.5t28 -73.5t-28 -72.5t-74 -28.5t-74 28.5t-28 72.5zM352 658q0 44 28 73.5t73 29.5q46 0 74.5 -29.5t28.5 -73.5q0 -43 -28.5 -72t-74.5 -29t-73.5 28.5t-27.5 72.5zM60 469q0 26 26 26h131q27 0 27 -26v-443q0 -26 -27 -26h-131
q-26 0 -26 26v443zM233 -94q3 22 19 22q5 0 19.5 -2t23.5 -2q66 0 66 93v454q0 24 24 24h137q24 0 24 -23v-458q0 -245 -219 -245q-52 0 -83 7q-25 5 -22 30z" />
    <glyph glyph-name="Jcircumflex" unicode="&#x134;" horiz-adv-x="345" 
d="M-24 792q-14 8 -14 16t11 18l129 117q20 18 47 18h69q27 0 47 -18l129 -117q11 -11 11 -18q0 -8 -14 -16l-62 -33q-11 -7 -22 -7q-10 0 -26 14l-97 92q-6 -6 -40 -39.5t-54.5 -50t-30.5 -16.5t-21 7zM-45 -56q1 23 19 23q5 0 20 -1.5t24 -1.5q34 0 52.5 24t18.5 70v615
q0 27 27 27h136q27 0 27 -27v-626q0 -252 -228 -252q-56 0 -87 8q-25 6 -22 31z" />
    <glyph glyph-name="jcircumflex" unicode="&#x135;" horiz-adv-x="306" 
d="M-53 599q-14 8 -14 16t11 18l129 117q13 12 21 15t26 3h69q18 0 26 -3t21 -15l129 -117q11 -11 11 -18q0 -8 -14 -16l-62 -33q-12 -6 -21 -6q-13 0 -27 13l-97 92q-5 -5 -39.5 -39t-55 -50t-30.5 -16q-9 0 -21 6zM-65 -94q1 22 19 22q5 0 19.5 -2t23.5 -2q66 0 66 93v454
q0 24 24 24h137q24 0 24 -23v-458q0 -245 -219 -245q-52 0 -83 7q-25 5 -22 30z" />
    <glyph glyph-name="uni0136" unicode="&#x136;" horiz-adv-x="724" 
d="M70 673q0 27 27 27h135q28 0 28 -27v-646q0 -27 -28 -27h-135q-27 0 -27 27v646zM285 329q-9 13 -9 23q0 12 10 26l200 294q11 17 20.5 22.5t29.5 5.5h156q22 0 22 -14q0 -7 -6 -16l-224 -311l233 -329q7 -10 7 -17q0 -13 -23 -13h-160q-21 0 -30.5 5t-20.5 22zM338 -195
q-28 6 -46 25.5t-18 51.5q0 37 28.5 60.5t73.5 23.5t71.5 -23t26.5 -64q0 -42 -40 -110l-19 -34q-8 -14 -16 -18.5t-27 -4.5h-55q-24 0 -24 14q0 7 6 16z" />
    <glyph glyph-name="uni0137" unicode="&#x137;" horiz-adv-x="612" 
d="M60 729q0 26 26 26h131q27 0 27 -26v-703q0 -26 -27 -26h-131q-26 0 -26 26v703zM262 233q-6 11 -6 18t6 18l122 207q11 19 35 19h163q14 0 14 -12q0 -7 -4 -12l-134 -213l152 -235q4 -8 4 -11q0 -12 -15 -12h-168q-24 0 -35 18zM283 -195q-28 6 -46 25.5t-18 51.5
q0 37 28.5 60.5t73.5 23.5t71.5 -23t26.5 -64q0 -42 -40 -110l-19 -34q-8 -14 -16 -18.5t-27 -4.5h-55q-24 0 -24 14q0 7 6 16z" />
    <glyph glyph-name="kgreenlandic" unicode="&#x138;" horiz-adv-x="612" 
d="M60 469q0 26 26 26h131q27 0 27 -26v-443q0 -26 -27 -26h-131q-26 0 -26 26v443zM262 233q-6 11 -6 18t6 18l122 207q11 19 35 19h163q14 0 14 -12q0 -7 -4 -12l-134 -213l152 -235q4 -8 4 -11q0 -12 -15 -12h-168q-24 0 -35 18z" />
    <glyph glyph-name="Lacute" unicode="&#x139;" horiz-adv-x="574" 
d="M74 797q-12 11 -12 19q0 9 12 18l183 137q17 11 29 11q13 0 28 -11l62 -46q14 -10 14 -21t-17 -22l-205 -120q-17 -9 -26 -9q-8 0 -21 8zM70 673q0 27 27 27h135q28 0 28 -27v-484q0 -9 3 -12.5t13 -3.5h248q27 0 27 -27v-119q0 -27 -27 -27h-427q-27 0 -27 27v646z" />
    <glyph glyph-name="lacute" unicode="&#x13a;" horiz-adv-x="304" 
d="M32 835q-12 11 -12 19q0 9 12 18l183 137q17 11 29 11q13 0 28 -11l62 -46q14 -10 14 -21t-17 -22l-205 -120q-16 -9 -26 -9q-8 0 -21 8zM60 729q0 26 26 26h131q27 0 27 -26v-703q0 -26 -27 -26h-131q-26 0 -26 26v703z" />
    <glyph glyph-name="uni013B" unicode="&#x13b;" horiz-adv-x="574" 
d="M70 673q0 27 27 27h135q28 0 28 -27v-484q0 -9 3 -12.5t13 -3.5h248q27 0 27 -27v-119q0 -27 -27 -27h-427q-27 0 -27 27v646zM272 -195q-28 6 -46 25.5t-18 51.5q0 37 28.5 60.5t73.5 23.5t71.5 -23t26.5 -64q0 -42 -40 -110l-19 -34q-8 -14 -16 -18.5t-27 -4.5h-55
q-24 0 -24 14q0 7 6 16z" />
    <glyph glyph-name="uni013C" unicode="&#x13c;" horiz-adv-x="304" 
d="M60 729q0 26 26 26h131q27 0 27 -26v-703q0 -26 -27 -26h-131q-26 0 -26 26v703zM116 -195q-28 6 -46 25.5t-18 51.5q0 37 28.5 60.5t73.5 23.5t71.5 -23t26.5 -64q0 -42 -40 -110l-19 -34q-8 -14 -16 -18.5t-27 -4.5h-55q-24 0 -24 14q0 7 6 16z" />
    <glyph glyph-name="Lcaron" unicode="&#x13d;" horiz-adv-x="585" 
d="M421 547q-30 6 -49.5 27t-19.5 54q0 38 29 62.5t76 24.5q45 0 72 -24t27 -66q0 -43 -40 -116l-37 -65q-8 -15 -16 -20t-27 -5h-53q-23 0 -23 14q0 7 6 17zM70 673q0 27 27 27h135q28 0 28 -27v-484q0 -9 3 -12.5t13 -3.5h248q27 0 27 -27v-119q0 -27 -27 -27h-427
q-27 0 -27 27v646z" />
    <glyph glyph-name="lcaron" unicode="&#x13e;" horiz-adv-x="488" 
d="M60 729q0 26 26 26h131q27 0 27 -26v-703q0 -26 -27 -26h-131q-26 0 -26 26v703zM369 587q-30 7 -50 27.5t-20 53.5q0 38 29.5 62.5t76.5 24.5q44 0 71.5 -24.5t27.5 -65.5t-40 -115l-37 -66q-9 -15 -16.5 -20t-26.5 -5h-54q-23 0 -23 14q0 5 7 17z" />
    <glyph glyph-name="Ldot" unicode="&#x13f;" horiz-adv-x="574" 
d="M70 673q0 27 27 27h135q28 0 28 -27v-484q0 -9 3 -12.5t13 -3.5h248q27 0 27 -27v-119q0 -27 -27 -27h-427q-27 0 -27 27v646zM357 387q0 38 26 62t66 24t66 -24t26 -62q0 -37 -26 -60.5t-66 -23.5t-66 23.5t-26 60.5z" />
    <glyph glyph-name="ldot" unicode="&#x140;" horiz-adv-x="501" 
d="M60 729q0 26 26 26h131q27 0 27 -26v-703q0 -26 -27 -26h-131q-26 0 -26 26v703zM305 379q0 39 27 64.5t69 25.5q43 0 70 -25.5t27 -64.5q0 -38 -27 -63t-70 -25q-42 0 -69 25t-27 63z" />
    <glyph glyph-name="Lslash" unicode="&#x141;" horiz-adv-x="579" 
d="M75 240l-49 -24q-8 -4 -15 -4q-15 0 -15 22v96q0 16 5 25t20 16l54 26v276q0 27 27 27h135q28 0 28 -27v-183l125 61q8 4 15 4q15 0 15 -22v-97q0 -28 -25 -40l-130 -64v-143q0 -9 3 -12.5t13 -3.5h248q27 0 27 -27v-119q0 -27 -27 -27h-427q-27 0 -27 27v213z" />
    <glyph glyph-name="lslash" unicode="&#x142;" horiz-adv-x="328" 
d="M72 271l-44 -20q-8 -3 -14 -3q-14 0 -14 20v85q0 15 6 22.5t21 14.5l45 22v317q0 26 26 26h131q27 0 27 -26v-232l44 20q8 3 13 3q15 0 15 -21v-85q0 -14 -6 -21.5t-21 -14.5l-45 -22v-330q0 -26 -27 -26h-131q-26 0 -26 26v245z" />
    <glyph glyph-name="Nacute" unicode="&#x143;" horiz-adv-x="766" 
d="M274 797q-12 11 -12 19q0 9 12 18l183 137q17 11 29 11q13 0 28 -11l62 -46q14 -10 14 -21t-17 -22l-205 -120q-16 -9 -26 -9q-8 0 -21 8zM70 673q0 41 25 41q18 0 55 -34l356 -319v312q0 27 27 27h136q27 0 27 -27v-646q0 -41 -25 -41q-18 0 -55 34l-356 319v-312
q0 -27 -28 -27h-135q-27 0 -27 27v646z" />
    <glyph glyph-name="nacute" unicode="&#x144;" horiz-adv-x="625" 
d="M200 604q-12 10 -12 19t12 18l183 137q17 11 29 11q13 0 28 -11l62 -46q14 -10 14 -21t-17 -22l-205 -119q-16 -9 -26 -9q-8 0 -21 8zM60 470q0 25 25 25h133q26 0 26 -25v-24q49 59 133 59q192 0 192 -238v-247q0 -20 -19 -20h-145q-20 0 -20 20v223q0 101 -70 101
q-71 0 -71 -101v-223q0 -20 -19 -20h-146q-19 0 -19 20v450z" />
    <glyph glyph-name="uni0145" unicode="&#x145;" horiz-adv-x="766" 
d="M70 673q0 41 25 41q18 0 55 -34l356 -319v312q0 27 27 27h136q27 0 27 -27v-646q0 -41 -25 -41q-18 0 -55 34l-356 319v-312q0 -27 -28 -27h-135q-27 0 -27 27v646zM351 -195q-28 6 -46 25.5t-18 51.5q0 37 28.5 60.5t73.5 23.5t71.5 -23t26.5 -64q0 -42 -40 -110
l-19 -34q-8 -14 -16 -18.5t-27 -4.5h-55q-24 0 -24 14q0 7 6 16z" />
    <glyph glyph-name="uni0146" unicode="&#x146;" horiz-adv-x="625" 
d="M60 470q0 25 25 25h133q26 0 26 -25v-24q49 59 133 59q192 0 192 -238v-247q0 -20 -19 -20h-145q-20 0 -20 20v223q0 101 -70 101q-71 0 -71 -101v-223q0 -20 -19 -20h-146q-19 0 -19 20v450zM276 -195q-28 6 -46 25.5t-18 51.5q0 37 28.5 60.5t73.5 23.5t71.5 -23
t26.5 -64q0 -42 -40 -110l-19 -34q-8 -14 -16 -18.5t-27 -4.5h-55q-24 0 -24 14q0 7 6 16z" />
    <glyph glyph-name="Ncaron" unicode="&#x147;" horiz-adv-x="766" 
d="M171 888q-11 9 -11 17q0 9 14 17l62 33q12 6 21 6q13 0 27 -14l98 -91l98 91q14 14 27 14q9 0 21 -6l62 -33q14 -8 14 -17q0 -8 -11 -17l-130 -117q-13 -12 -21 -15t-25 -3h-70q-17 0 -25 3t-21 15zM70 673q0 41 25 41q18 0 55 -34l356 -319v312q0 27 27 27h136
q27 0 27 -27v-646q0 -41 -25 -41q-18 0 -55 34l-356 319v-312q0 -27 -28 -27h-135q-27 0 -27 27v646z" />
    <glyph glyph-name="ncaron" unicode="&#x148;" horiz-adv-x="625" 
d="M99 695q-11 11 -11 18q0 8 14 16l62 33q12 6 21 6q13 0 27 -14l98 -91l98 91q14 14 27 14q9 0 21 -6l62 -33q14 -8 14 -16q0 -7 -11 -18l-130 -117q-13 -12 -21 -15t-25 -3h-70q-17 0 -25 3t-21 15zM60 470q0 25 25 25h133q26 0 26 -25v-24q49 59 133 59q192 0 192 -238
v-247q0 -20 -19 -20h-145q-20 0 -20 20v223q0 101 -70 101q-71 0 -71 -101v-223q0 -20 -19 -20h-146q-19 0 -19 20v450z" />
    <glyph glyph-name="napostrophe" unicode="&#x149;" horiz-adv-x="625" 
d="M-139 524q-29 6 -49 30t-20 61q0 43 29.5 70.5t73.5 27.5q48 0 76.5 -27t28.5 -74q0 -52 -41 -129l-34 -63q-9 -16 -18 -21.5t-28 -5.5h-54q-25 0 -25 15q0 8 6 18zM60 470q0 25 25 25h133q26 0 26 -25v-24q49 59 133 59q192 0 192 -238v-247q0 -20 -19 -20h-145
q-20 0 -20 20v223q0 101 -70 101q-71 0 -71 -101v-223q0 -20 -19 -20h-146q-19 0 -19 20v450z" />
    <glyph glyph-name="Eng" unicode="&#x14a;" horiz-adv-x="766" 
d="M70 673q0 41 25 41q18 0 55 -34l356 -319v312q0 27 27 27h136q27 0 27 -27v-628q0 -250 -228 -250q-56 0 -87 8q-14 4 -18.5 10.5t-2.5 20.5l12 110q3 23 19 23q5 0 20 -1.5t25 -1.5q33 0 51.5 24t18.5 70v59l-246 222v-312q0 -27 -28 -27h-135q-27 0 -27 27v646z" />
    <glyph glyph-name="eng" unicode="&#x14b;" horiz-adv-x="625" 
d="M256 -94q3 22 20 22q5 0 19.5 -2t22.5 -2q67 0 67 93v226q0 101 -70 101q-71 0 -71 -101v-223q0 -20 -19 -20h-146q-19 0 -19 20v450q0 25 25 25h133q26 0 26 -25v-24q49 59 133 59q192 0 192 -238v-253q0 -245 -218 -245q-54 0 -83 7q-25 5 -22 30z" />
    <glyph glyph-name="Omacron" unicode="&#x14c;" horiz-adv-x="825" 
d="M244 876q0 27 28 27h280q28 0 28 -27v-73q0 -26 -28 -26h-280q-28 0 -28 26v73zM35 348q0 160 106 263t271 103t271.5 -102t106.5 -262t-106.5 -262t-273.5 -102q-163 0 -269 101.5t-106 260.5zM411 160q79 0 131 52.5t52 136.5q0 86 -51.5 138t-130.5 52t-130 -52
t-51 -138q0 -85 51 -137t129 -52z" />
    <glyph glyph-name="omacron" unicode="&#x14d;" horiz-adv-x="625" 
d="M144 683q0 27 28 27h280q28 0 28 -27v-73q0 -26 -28 -26h-280q-28 0 -28 26v73zM33 246q0 115 77.5 188.5t201.5 73.5t202 -73.5t78 -187.5q0 -115 -78 -187.5t-203 -72.5q-124 0 -201 72.5t-77 186.5zM311 151q39 0 66 27t27 69q0 43 -27.5 70.5t-65.5 27.5
q-37 0 -63 -27.5t-26 -70.5t25.5 -69.5t63.5 -26.5z" />
    <glyph glyph-name="Obreve" unicode="&#x14e;" horiz-adv-x="825" 
d="M309 951q22 0 27 -21q14 -59 76 -59t76 59q5 21 27 21h73q13 0 18 -5.5t5 -18.5q0 -75 -49 -124.5t-151 -49.5q-101 0 -149.5 49.5t-48.5 124.5q0 13 5 18.5t18 5.5h73zM35 348q0 160 106 263t271 103t271.5 -102t106.5 -262t-106.5 -262t-273.5 -102q-163 0 -269 101.5
t-106 260.5zM411 160q79 0 131 52.5t52 136.5q0 86 -51.5 138t-130.5 52t-130 -52t-51 -138q0 -85 51 -137t129 -52z" />
    <glyph glyph-name="obreve" unicode="&#x14f;" horiz-adv-x="625" 
d="M209 758q23 0 27 -20q15 -63 76 -63q63 0 76 63q4 20 27 20h73q13 0 18 -5.5t5 -18.5q0 -74 -50 -124t-150 -50q-101 0 -149.5 49.5t-48.5 124.5q0 13 5 18.5t18 5.5h73zM33 246q0 115 77.5 188.5t201.5 73.5t202 -73.5t78 -187.5q0 -115 -78 -187.5t-203 -72.5
q-124 0 -201 72.5t-77 186.5zM311 151q39 0 66 27t27 69q0 43 -27.5 70.5t-65.5 27.5q-37 0 -63 -27.5t-26 -70.5t25.5 -69.5t63.5 -26.5z" />
    <glyph glyph-name="Ohungarumlaut" unicode="&#x150;" horiz-adv-x="825" 
d="M269 759q-68 31 -68 45q0 8 9 18q2 2 136 142q17 17 29 17q10 0 63 -20t53 -35q0 -9 -15 -22q-104 -92 -156 -137q-16 -15 -30 -15q-10 0 -21 7zM500 759q-3 2 -15 7.5t-18 9t-14.5 9t-12.5 10.5t-4 10q0 8 11 18l158 142q19 16 34 16q9 0 23 -6l69 -34q19 -9 19 -20
t-16 -23l-180 -131q-20 -15 -33 -15q-10 0 -21 7zM35 348q0 160 106 263t271 103t271.5 -102t106.5 -262t-106.5 -262t-273.5 -102q-163 0 -269 101.5t-106 260.5zM411 160q79 0 131 52.5t52 136.5q0 86 -51.5 138t-130.5 52t-130 -52t-51 -138q0 -85 51 -137t129 -52z" />
    <glyph glyph-name="ohungarumlaut" unicode="&#x151;" horiz-adv-x="625" 
d="M144 566q-68 31 -68 45q0 7 9 18q2 2 136 142q17 17 29 17q10 0 63 -20t53 -35q0 -9 -15 -22q-104 -92 -156 -137q-15 -14 -30 -14q-9 0 -21 6zM375 566q-3 2 -15 7.5t-18 9t-14.5 9t-12.5 10.5t-4 10q0 8 11 18l158 142q19 16 34 16q14 0 62.5 -23.5t48.5 -36.5
q0 -11 -16 -23l-180 -131q-18 -14 -33 -14q-9 0 -21 6zM33 246q0 115 77.5 188.5t201.5 73.5t202 -73.5t78 -187.5q0 -115 -78 -187.5t-203 -72.5q-124 0 -201 72.5t-77 186.5zM311 151q39 0 66 27t27 69q0 43 -27.5 70.5t-65.5 27.5q-37 0 -63 -27.5t-26 -70.5t25.5 -69.5
t63.5 -26.5z" />
    <glyph glyph-name="OE" unicode="&#x152;" horiz-adv-x="1053" 
d="M983 165q28 0 28 -27v-111q0 -27 -28 -27h-379q-23 0 -86 -7t-109 -7q-166 0 -270 101t-104 262q0 160 105 262.5t272 102.5q44 0 106.5 -7t85.5 -7h378q28 0 28 -27v-111q0 -27 -28 -27h-248q-10 0 -13 -3.5t-3 -12.5v-71q0 -10 3 -13t13 -3h215q27 0 27 -28v-107
q0 -27 -27 -27h-215q-10 0 -13 -3.5t-3 -12.5v-73q0 -9 3 -12.5t13 -3.5h249zM528 506q0 18 -16 22q-37 11 -91 11q-87 0 -138.5 -51.5t-51.5 -138.5q0 -86 51.5 -137.5t138.5 -51.5q55 0 91 12q16 4 16 22v312z" />
    <glyph glyph-name="oe" unicode="&#x153;" horiz-adv-x="959" 
d="M896 82q4 -8 4 -16q0 -13 -15 -22q-85 -57 -213 -57q-106 0 -177 57q-76 -57 -184 -57q-124 0 -201 72.5t-77 186.5q0 115 77.5 188.5t201.5 73.5q106 0 183 -59q72 59 174 59q117 0 187 -71.5t70 -186.5v-29q0 -19 -17 -19h-317q6 -35 33 -54.5t67 -19.5q69 0 127 33
q14 8 22 8q11 0 16 -12zM741 312q-3 33 -22 53t-50 20q-60 0 -76 -73h148zM311 151q39 0 66 27t27 69q0 43 -27.5 70.5t-65.5 27.5q-37 0 -63 -27.5t-26 -70.5t25.5 -69.5t63.5 -26.5z" />
    <glyph glyph-name="Racute" unicode="&#x154;" horiz-adv-x="698" 
d="M229 797q-12 11 -12 19q0 9 12 18l183 137q17 11 29 11q13 0 28 -11l62 -46q14 -10 14 -21t-17 -22l-205 -120q-17 -9 -26 -9q-8 0 -21 8zM70 673q0 27 27 27h252q304 0 304 -233q0 -139 -118 -202l153 -233q6 -9 6 -17q0 -15 -23 -15h-150q-34 0 -54 31l-108 177
q-9 14 -26 14h-57q-10 0 -13 -3t-3 -13v-179q0 -27 -28 -27h-135q-27 0 -27 27v646zM338 379q120 0 120 80q0 41 -29.5 58.5t-90.5 17.5h-62q-10 0 -13 -3.5t-3 -12.5v-124q0 -9 3 -12.5t13 -3.5h62z" />
    <glyph glyph-name="racute" unicode="&#x155;" horiz-adv-x="433" 
d="M119 604q-12 10 -12 19t12 18l183 137q17 11 29 11q13 0 28 -11l62 -46q14 -10 14 -21t-17 -22l-205 -119q-17 -9 -26 -9q-8 0 -21 8zM60 470q0 25 25 25h133q26 0 26 -25v-35q48 71 137 71h7q26 0 26 -27v-123q0 -26 -26 -26h-45q-56 0 -77.5 -25.5t-21.5 -93.5v-191
q0 -20 -19 -20h-146q-19 0 -19 20v450z" />
    <glyph glyph-name="uni0156" unicode="&#x156;" horiz-adv-x="698" 
d="M70 673q0 27 27 27h252q304 0 304 -233q0 -139 -118 -202l153 -233q6 -9 6 -17q0 -15 -23 -15h-150q-34 0 -54 31l-108 177q-9 14 -26 14h-57q-10 0 -13 -3t-3 -13v-179q0 -27 -28 -27h-135q-27 0 -27 27v646zM338 379q120 0 120 80q0 41 -29.5 58.5t-90.5 17.5h-62
q-10 0 -13 -3.5t-3 -12.5v-124q0 -9 3 -12.5t13 -3.5h62zM328 -195q-28 6 -46 25.5t-18 51.5q0 37 28.5 60.5t73.5 23.5t71.5 -23t26.5 -64q0 -42 -40 -110l-19 -34q-8 -14 -16 -18.5t-27 -4.5h-55q-24 0 -24 14q0 7 6 16z" />
    <glyph glyph-name="uni0157" unicode="&#x157;" horiz-adv-x="433" 
d="M60 470q0 25 25 25h133q26 0 26 -25v-35q48 71 137 71h7q26 0 26 -27v-123q0 -26 -26 -26h-45q-56 0 -77.5 -25.5t-21.5 -93.5v-191q0 -20 -19 -20h-146q-19 0 -19 20v450zM131 -195q-28 6 -46 25.5t-18 51.5q0 37 28.5 60.5t73.5 23.5t71.5 -23t26.5 -64q0 -42 -40 -110
l-19 -34q-8 -14 -16 -18.5t-27 -4.5h-55q-24 0 -24 14q0 7 6 16z" />
    <glyph glyph-name="Rcaron" unicode="&#x158;" horiz-adv-x="698" 
d="M127 888q-11 9 -11 17q0 9 14 17l62 33q12 6 21 6q13 0 27 -14l98 -91l98 91q14 14 27 14q9 0 21 -6l62 -33q14 -8 14 -17q0 -8 -11 -17l-130 -117q-13 -12 -21 -15t-25 -3h-70q-17 0 -25 3t-21 15zM70 673q0 27 27 27h252q304 0 304 -233q0 -139 -118 -202l153 -233
q6 -9 6 -17q0 -15 -23 -15h-150q-34 0 -54 31l-108 177q-9 14 -26 14h-57q-10 0 -13 -3t-3 -13v-179q0 -27 -28 -27h-135q-27 0 -27 27v646zM338 379q120 0 120 80q0 41 -29.5 58.5t-90.5 17.5h-62q-10 0 -13 -3.5t-3 -12.5v-124q0 -9 3 -12.5t13 -3.5h62z" />
    <glyph glyph-name="rcaron" unicode="&#x159;" horiz-adv-x="433" 
d="M20 695q-11 11 -11 18q0 8 14 16l62 33q12 6 21 6q13 0 27 -14l98 -91l98 91q14 14 27 14q9 0 21 -6l62 -33q14 -8 14 -16q0 -7 -11 -18l-130 -117q-13 -12 -21 -15t-25 -3h-70q-17 0 -25 3t-21 15zM60 470q0 25 25 25h133q26 0 26 -25v-35q48 71 137 71h7q26 0 26 -27
v-123q0 -26 -26 -26h-45q-56 0 -77.5 -25.5t-21.5 -93.5v-191q0 -20 -19 -20h-146q-19 0 -19 20v450z" />
    <glyph glyph-name="Sacute" unicode="&#x15a;" horiz-adv-x="608" 
d="M197 797q-12 11 -12 19q0 9 12 18l183 137q17 11 29 11q13 0 28 -11l62 -46q14 -10 14 -21t-17 -22l-205 -120q-16 -9 -26 -9q-8 0 -21 8zM80 208q9 15 20 15q8 0 20 -9q81 -60 169 -60q89 0 89 50q0 24 -24.5 37t-94.5 30q-112 28 -166.5 77t-54.5 139q0 107 75 167
t195 60q142 0 252 -89q12 -9 12 -21q0 -10 -7 -20l-60 -92q-9 -13 -19 -13t-19 8q-81 59 -157 59q-36 0 -56 -13.5t-20 -35.5q0 -25 23 -37t87 -28q118 -29 174 -79t56 -137q0 -107 -77 -168.5t-206 -61.5q-149 0 -261 88q-16 12 -16 24q0 10 9 23z" />
    <glyph glyph-name="sacute" unicode="&#x15b;" horiz-adv-x="502" 
d="M124 604q-12 10 -12 19t12 18l183 137q17 11 29 11q13 0 28 -11l62 -46q14 -10 14 -21t-17 -22l-205 -119q-17 -9 -26 -9q-8 0 -21 8zM71 156q6 11 15 11q6 0 18 -7q29 -18 68.5 -30.5t69.5 -12.5q47 0 47 26q0 13 -13 19t-54 17q-15 4 -23 6q-84 23 -124.5 59.5
t-40.5 99.5q0 78 58.5 121t153.5 43q127 0 209 -59q10 -7 10 -15q0 -3 -6 -15l-45 -78q-6 -10 -14 -10t-17 6q-72 41 -126 41q-40 0 -40 -25q0 -13 17 -21t66 -20q91 -22 131.5 -58t40.5 -102q0 -77 -57 -121t-166 -44q-130 0 -216 61q-13 9 -13 16q0 6 6 16z" />
    <glyph glyph-name="Scircumflex" unicode="&#x15c;" horiz-adv-x="608" 
d="M97 792q-14 8 -14 16t11 18l129 117q20 18 47 18h69q27 0 47 -18l129 -117q11 -11 11 -18q0 -8 -14 -16l-62 -33q-11 -7 -22 -7q-10 0 -26 14l-97 92q-6 -6 -40 -39.5t-54.5 -50t-30.5 -16.5t-21 7zM80 208q9 15 20 15q8 0 20 -9q81 -60 169 -60q89 0 89 50
q0 24 -24.5 37t-94.5 30q-112 28 -166.5 77t-54.5 139q0 107 75 167t195 60q142 0 252 -89q12 -9 12 -21q0 -10 -7 -20l-60 -92q-9 -13 -19 -13t-19 8q-81 59 -157 59q-36 0 -56 -13.5t-20 -35.5q0 -25 23 -37t87 -28q118 -29 174 -79t56 -137q0 -107 -77 -168.5t-206 -61.5
q-149 0 -261 88q-16 12 -16 24q0 10 9 23z" />
    <glyph glyph-name="scircumflex" unicode="&#x15d;" horiz-adv-x="502" 
d="M36 599q-14 8 -14 16t11 18l129 117q13 12 21 15t26 3h69q18 0 26 -3t21 -15l129 -117q11 -11 11 -18q0 -8 -14 -16l-62 -33q-12 -6 -21 -6q-13 0 -27 13l-97 92q-5 -5 -39.5 -39t-55 -50t-30.5 -16q-9 0 -21 6zM71 156q6 11 15 11q6 0 18 -7q29 -18 68.5 -30.5
t69.5 -12.5q47 0 47 26q0 13 -13 19t-54 17q-15 4 -23 6q-84 23 -124.5 59.5t-40.5 99.5q0 78 58.5 121t153.5 43q127 0 209 -59q10 -7 10 -15q0 -3 -6 -15l-45 -78q-6 -10 -14 -10t-17 6q-72 41 -126 41q-40 0 -40 -25q0 -13 17 -21t66 -20q91 -22 131.5 -58t40.5 -102
q0 -77 -57 -121t-166 -44q-130 0 -216 61q-13 9 -13 16q0 6 6 16z" />
    <glyph glyph-name="Scedilla" unicode="&#x15e;" horiz-adv-x="608" 
d="M190 -162q4 10 11 10q3 0 9 -3q30 -14 68 -14q57 0 57 31q0 30 -56 30q-23 0 -46 -5q-2 -1 -6 -1q-8 0 -8 7q0 5 2 8l43 85q-133 9 -234 88q-16 12 -16 24q0 10 9 23l57 87q9 15 20 15q8 0 20 -9q81 -60 169 -60q89 0 89 50q0 24 -25 37.5t-94 29.5q-112 28 -166.5 77
t-54.5 139q0 107 75 167t195 60q142 0 252 -89q12 -9 12 -21q0 -10 -7 -20l-60 -92q-9 -13 -19 -13t-19 8q-81 59 -157 59q-36 0 -56 -13.5t-20 -35.5q0 -25 23 -37t87 -28q118 -29 174 -79t56 -137q0 -94 -60 -153t-166 -73l-19 -38h3q47 0 75 -23.5t28 -63.5
q0 -50 -43.5 -81t-111.5 -31q-58 0 -102 22q-11 5 -11 13q0 4 3 10z" />
    <glyph glyph-name="scedilla" unicode="&#x15f;" horiz-adv-x="502" 
d="M127 -159q4 10 11 10q4 0 10 -3q32 -14 67 -14q58 0 58 30q0 29 -57 29q-23 0 -46 -5h-5q-9 0 -9 6q0 5 2 8l44 87q-103 11 -169 59q-13 9 -13 17q0 6 6 15l45 76q6 11 15 11q6 0 18 -7q29 -18 68.5 -30.5t69.5 -12.5q47 0 47 26q0 4 -1 6.5t-3 5t-4.5 4.5t-7.5 4t-9 3.5
t-12 4t-14.5 4t-18 4.5t-20.5 6q-83 22 -124 59t-41 100q0 78 58.5 121t153.5 43q127 0 209 -59q10 -7 10 -15q0 -3 -6 -15l-45 -78q-6 -10 -14 -10t-17 6q-72 41 -126 41q-40 0 -40 -25q0 -13 17 -21t66 -20q91 -22 131.5 -58t40.5 -102q0 -70 -46.5 -112.5t-137.5 -50.5
l-18 -37q48 0 77 -23t29 -63q0 -51 -44.5 -82t-115.5 -31q-56 0 -102 23q-11 6 -11 13q0 4 3 10z" />
    <glyph glyph-name="Scaron" unicode="&#x160;" horiz-adv-x="608" 
d="M94 888q-11 9 -11 17q0 9 14 17l62 33q12 6 21 6q13 0 27 -14l98 -91l98 91q14 14 27 14q9 0 21 -6l62 -33q14 -8 14 -17q0 -8 -11 -17l-130 -117q-13 -12 -21 -15t-25 -3h-70q-17 0 -25 3t-21 15zM80 208q9 15 20 15q8 0 20 -9q81 -60 169 -60q89 0 89 50q0 24 -24.5 37
t-94.5 30q-112 28 -166.5 77t-54.5 139q0 107 75 167t195 60q142 0 252 -89q12 -9 12 -21q0 -10 -7 -20l-60 -92q-9 -13 -19 -13t-19 8q-81 59 -157 59q-36 0 -56 -13.5t-20 -35.5q0 -25 23 -37t87 -28q118 -29 174 -79t56 -137q0 -107 -77 -168.5t-206 -61.5
q-149 0 -261 88q-16 12 -16 24q0 10 9 23z" />
    <glyph glyph-name="scaron" unicode="&#x161;" horiz-adv-x="502" 
d="M32 695q-11 11 -11 18q0 8 14 16l62 33q12 6 21 6q13 0 27 -14l98 -91l98 91q14 14 27 14q9 0 21 -6l62 -33q14 -8 14 -16q0 -7 -11 -18l-130 -117q-13 -12 -21 -15t-25 -3h-70q-17 0 -25 3t-21 15zM71 156q6 11 15 11q6 0 18 -7q29 -18 68.5 -30.5t69.5 -12.5
q47 0 47 26q0 13 -13 19t-54 17q-15 4 -23 6q-84 23 -124.5 59.5t-40.5 99.5q0 78 58.5 121t153.5 43q127 0 209 -59q10 -7 10 -15q0 -3 -6 -15l-45 -78q-6 -10 -14 -10t-17 6q-72 41 -126 41q-40 0 -40 -25q0 -13 17 -21t66 -20q91 -22 131.5 -58t40.5 -102q0 -77 -57 -121
t-166 -44q-130 0 -216 61q-13 9 -13 16q0 6 6 16z" />
    <glyph glyph-name="uni0162" unicode="&#x162;" horiz-adv-x="608" 
d="M209 511q0 16 -16 16h-151q-27 0 -27 27v119q0 27 27 27h524q27 0 27 -27v-119q0 -27 -27 -27h-151q-16 0 -16 -16v-484q0 -27 -27 -27h-136q-27 0 -27 27v484zM266 -195q-28 6 -46 25.5t-18 51.5q0 37 28.5 60.5t73.5 23.5t71.5 -23t26.5 -64q0 -42 -40 -110l-19 -34
q-8 -14 -16 -18.5t-27 -4.5h-55q-24 0 -24 14q0 7 6 16z" />
    <glyph glyph-name="uni0163" unicode="&#x163;" horiz-adv-x="401" 
d="M107 340h-69q-26 0 -26 26v102q0 27 26 27h69v114q0 26 26 26h130q27 0 27 -26v-114h69q26 0 26 -27v-102q0 -26 -26 -26h-69v-314q0 -26 -27 -26h-130q-26 0 -26 26v314zM162 -195q-28 6 -46 25.5t-18 51.5q0 37 28.5 60.5t73.5 23.5t71.5 -23t26.5 -64q0 -42 -40 -110
l-19 -34q-8 -14 -16 -18.5t-27 -4.5h-55q-24 0 -24 14q0 7 6 16z" />
    <glyph glyph-name="Tcaron" unicode="&#x164;" horiz-adv-x="608" 
d="M92 888q-11 9 -11 17q0 9 14 17l62 33q12 6 21 6q13 0 27 -14l98 -91l98 91q14 14 27 14q9 0 21 -6l62 -33q14 -8 14 -17q0 -8 -11 -17l-130 -117q-13 -12 -21 -15t-25 -3h-70q-17 0 -25 3t-21 15zM209 511q0 16 -16 16h-151q-27 0 -27 27v119q0 27 27 27h524
q27 0 27 -27v-119q0 -27 -27 -27h-151q-16 0 -16 -16v-484q0 -27 -27 -27h-136q-27 0 -27 27v484z" />
    <glyph glyph-name="tcaron" unicode="&#x165;" horiz-adv-x="598" 
d="M479 587q-30 7 -50 27.5t-20 53.5q0 38 29.5 62.5t76.5 24.5q44 0 71.5 -24.5t27.5 -65.5t-40 -115l-37 -66q-9 -15 -16.5 -20t-26.5 -5h-54q-23 0 -23 14q0 5 7 17zM107 340h-69q-26 0 -26 26v102q0 27 26 27h69v114q0 26 26 26h130q27 0 27 -26v-114h69q26 0 26 -27
v-102q0 -26 -26 -26h-69v-314q0 -26 -27 -26h-130q-26 0 -26 26v314z" />
    <glyph glyph-name="Tbar" unicode="&#x166;" horiz-adv-x="608" 
d="M209 214q0 16 -15 16h-81q-28 0 -28 27v86q0 27 28 27h81q9 0 12 2.5t3 11.5v127q0 16 -16 16h-151q-27 0 -27 27v119q0 27 27 27h524q27 0 27 -27v-119q0 -27 -27 -27h-151q-16 0 -16 -16v-127q0 -9 3 -11.5t12 -2.5h82q27 0 27 -27v-86q0 -27 -27 -27h-82
q-15 0 -15 -16v-187q0 -27 -27 -27h-136q-27 0 -27 27v187z" />
    <glyph glyph-name="tbar" unicode="&#x167;" horiz-adv-x="401" 
d="M107 145h-59q-26 0 -26 26v68q0 27 26 27h59v74h-69q-26 0 -26 26v102q0 27 26 27h69v114q0 26 26 26h129q27 0 27 -26v-114h70q26 0 26 -27v-102q0 -26 -26 -26h-70v-74h60q26 0 26 -27v-68q0 -26 -26 -26h-60v-119q0 -26 -27 -26h-129q-26 0 -26 26v119z" />
    <glyph glyph-name="Utilde" unicode="&#x168;" horiz-adv-x="775" 
d="M176 828q-6 9 -6 15q0 7 9 17q52 60 130 60q37 0 87 -19.5t69 -19.5q33 0 66 31q8 8 15 8q8 0 15 -10l37 -56q6 -8 6 -13q0 -7 -9 -18q-53 -60 -130 -60q-38 0 -87.5 19.5t-68.5 19.5q-33 0 -66 -31q-7 -7 -15 -7t-15 9zM65 673q0 27 27 27h135q28 0 28 -27v-356
q0 -157 132 -157q65 0 99 40.5t34 116.5v356q0 27 27 27h135q28 0 28 -27v-370q0 -155 -89.5 -236t-239.5 -81q-145 0 -230.5 79.5t-85.5 235.5v372z" />
    <glyph glyph-name="utilde" unicode="&#x169;" horiz-adv-x="619" 
d="M100 635q-6 9 -6 15t9 17q53 60 130 60q37 0 87 -19.5t69 -19.5q33 0 66 31q8 8 15 8q8 0 15 -10l37 -55q6 -7 6 -14q0 -8 -9 -18q-53 -60 -130 -60q-37 0 -86.5 19.5t-69.5 19.5q-33 0 -66 -31q-7 -7 -15 -7t-15 9zM56 477q0 18 17 18h149q18 0 18 -18v-228
q0 -98 69 -98t69 98v228q0 18 17 18h150q18 0 18 -18v-238q0 -125 -66.5 -188.5t-187.5 -63.5q-122 0 -187.5 63t-65.5 188v239z" />
    <glyph glyph-name="Umacron" unicode="&#x16a;" horiz-adv-x="775" 
d="M219 876q0 27 28 27h280q28 0 28 -27v-73q0 -26 -28 -26h-280q-28 0 -28 26v73zM65 673q0 27 27 27h135q28 0 28 -27v-356q0 -157 132 -157q65 0 99 40.5t34 116.5v356q0 27 27 27h135q28 0 28 -27v-370q0 -155 -89.5 -236t-239.5 -81q-145 0 -230.5 79.5t-85.5 235.5
v372z" />
    <glyph glyph-name="umacron" unicode="&#x16b;" horiz-adv-x="619" 
d="M141 683q0 27 28 27h280q28 0 28 -27v-73q0 -26 -28 -26h-280q-28 0 -28 26v73zM56 477q0 18 17 18h149q18 0 18 -18v-228q0 -98 69 -98t69 98v228q0 18 17 18h150q18 0 18 -18v-238q0 -125 -66.5 -188.5t-187.5 -63.5q-122 0 -187.5 63t-65.5 188v239z" />
    <glyph glyph-name="Ubreve" unicode="&#x16c;" horiz-adv-x="775" 
d="M284 951q22 0 27 -21q14 -59 76 -59t76 59q5 21 27 21h73q13 0 18 -5.5t5 -18.5q0 -75 -49 -124.5t-151 -49.5q-101 0 -149.5 49.5t-48.5 124.5q0 13 5 18.5t18 5.5h73zM65 673q0 27 27 27h135q28 0 28 -27v-356q0 -157 132 -157q65 0 99 40.5t34 116.5v356q0 27 27 27
h135q28 0 28 -27v-370q0 -155 -89.5 -236t-239.5 -81q-145 0 -230.5 79.5t-85.5 235.5v372z" />
    <glyph glyph-name="ubreve" unicode="&#x16d;" horiz-adv-x="619" 
d="M205 758q23 0 27 -20q15 -63 76 -63q63 0 76 63q4 20 27 20h73q13 0 18 -5.5t5 -18.5q0 -74 -50 -124t-150 -50q-101 0 -149.5 49.5t-48.5 124.5q0 13 5 18.5t18 5.5h73zM56 477q0 18 17 18h149q18 0 18 -18v-228q0 -98 69 -98t69 98v228q0 18 17 18h150q18 0 18 -18
v-238q0 -125 -66.5 -188.5t-187.5 -63.5q-122 0 -187.5 63t-65.5 188v239z" />
    <glyph glyph-name="Uring" unicode="&#x16e;" horiz-adv-x="775" 
d="M217 896q0 70 49.5 119t120.5 49t120.5 -49t49.5 -119q0 -71 -49.5 -119.5t-120.5 -48.5t-120.5 48.5t-49.5 119.5zM335 896q0 -22 15 -37t37 -15t37 15t15 37t-15 37t-37 15t-37 -15t-15 -37zM65 673q0 27 27 27h135q28 0 28 -27v-356q0 -157 132 -157q65 0 99 40.5
t34 116.5v356q0 27 27 27h135q28 0 28 -27v-370q0 -155 -89.5 -236t-239.5 -81q-145 0 -230.5 79.5t-85.5 235.5v372z" />
    <glyph glyph-name="uring" unicode="&#x16f;" horiz-adv-x="619" 
d="M139 705q0 71 49 118.5t121 47.5t121 -47.5t49 -118.5q0 -70 -49.5 -118t-120.5 -48t-120.5 48t-49.5 118zM257 705q0 -21 15 -36t37 -15t37 15t15 36q0 22 -15 37t-37 15t-37 -15t-15 -37zM56 477q0 18 17 18h149q18 0 18 -18v-228q0 -98 69 -98t69 98v228q0 18 17 18
h150q18 0 18 -18v-238q0 -125 -66.5 -188.5t-187.5 -63.5q-122 0 -187.5 63t-65.5 188v239z" />
    <glyph glyph-name="Uhungarumlaut" unicode="&#x170;" horiz-adv-x="775" 
d="M239 759q-68 31 -68 45q0 8 9 18q2 2 136 142q17 17 29 17q10 0 63 -20t53 -35q0 -9 -15 -22q-104 -92 -156 -137q-16 -15 -30 -15q-10 0 -21 7zM470 759q-3 2 -15 7.5t-18 9t-14.5 9t-12.5 10.5t-4 10q0 8 11 18l158 142q19 16 34 16q9 0 23 -6l69 -34q19 -9 19 -20
t-16 -23l-180 -131q-20 -15 -33 -15q-10 0 -21 7zM65 673q0 27 27 27h135q28 0 28 -27v-356q0 -157 132 -157q65 0 99 40.5t34 116.5v356q0 27 27 27h135q28 0 28 -27v-370q0 -155 -89.5 -236t-239.5 -81q-145 0 -230.5 79.5t-85.5 235.5v372z" />
    <glyph glyph-name="uhungarumlaut" unicode="&#x171;" horiz-adv-x="619" 
d="M153 566q-68 31 -68 45q0 7 9 18q2 2 136 142q17 17 29 17q10 0 63 -20t53 -35q0 -9 -15 -22q-104 -92 -156 -137q-15 -14 -30 -14q-9 0 -21 6zM384 566q-3 2 -15 7.5t-18 9t-14.5 9t-12.5 10.5t-4 10q0 8 11 18l158 142q19 16 34 16q14 0 62.5 -23.5t48.5 -36.5
q0 -11 -16 -23l-180 -131q-18 -14 -33 -14q-9 0 -21 6zM56 477q0 18 17 18h149q18 0 18 -18v-228q0 -98 69 -98t69 98v228q0 18 17 18h150q18 0 18 -18v-238q0 -125 -66.5 -188.5t-187.5 -63.5q-122 0 -187.5 63t-65.5 188v239z" />
    <glyph glyph-name="Uogonek" unicode="&#x172;" horiz-adv-x="775" 
d="M524 -175q3 -6 3 -11q0 -18 -43 -33.5t-81 -15.5q-68 0 -109.5 35.5t-41.5 92.5t47 101q-110 19 -172.5 96.5t-62.5 210.5v371q0 28 27 28h136q28 0 28 -28v-356q0 -156 132 -156q64 0 98 40.5t34 115.5v356q0 28 27 28h136q28 0 28 -28v-370q0 -148 -83.5 -228.5
t-224.5 -85.5q-44 -31 -44 -74q0 -24 16 -38.5t41 -14.5q34 0 60 16q8 5 12 5q6 0 12 -10z" />
    <glyph glyph-name="uogonek" unicode="&#x173;" horiz-adv-x="619" 
d="M451 -175q3 -6 3 -11q0 -18 -43 -33.5t-81 -15.5q-67 0 -109 36t-42 92q0 61 50 102q-174 38 -174 243v239q0 18 17 18h150q18 0 18 -18v-228q0 -99 68 -99q70 0 70 99v228q0 18 17 18h149q18 0 18 -18v-238q0 -119 -60.5 -182t-170.5 -69q-46 -30 -46 -75
q0 -24 15.5 -38t40.5 -14q36 0 62 16q8 5 13 5t11 -10z" />
    <glyph glyph-name="Wcircumflex" unicode="&#x174;" horiz-adv-x="987" 
d="M285 792q-14 8 -14 16t11 18l129 117q20 18 47 18h69q27 0 47 -18l129 -117q11 -11 11 -18q0 -8 -14 -16l-62 -33q-11 -7 -22 -7q-10 0 -26 14l-97 92q-6 -6 -40 -39.5t-54.5 -50t-30.5 -16.5t-21 7zM5 667q-5 12 -5 18q0 15 25 15h142q19 0 27.5 -5.5t16.5 -25.5
l115 -292l129 279q13 26 21 35t19 9t18.5 -9t20.5 -35l128 -277l114 290q8 19 16.5 25t28.5 6h142q24 0 24 -16q0 -8 -4 -17l-265 -632q-13 -31 -21.5 -41.5t-19.5 -10.5q-10 0 -17.5 9.5t-22.5 39.5l-143 305l-143 -305q-14 -29 -22 -39t-18 -10q-11 0 -19.5 10.5
t-21.5 41.5z" />
    <glyph glyph-name="wcircumflex" unicode="&#x175;" horiz-adv-x="847" 
d="M215 599q-14 8 -14 16t11 18l129 117q13 12 21 15t26 3h69q18 0 26 -3t21 -15l129 -117q11 -11 11 -18q0 -8 -14 -16l-62 -33q-12 -6 -21 -6q-13 0 -27 13l-97 92q-5 -5 -39.5 -39t-55 -50t-30.5 -16q-9 0 -21 6zM7 471q-4 10 -4 13q0 11 15 11h157q12 0 18 -4.5
t13 -18.5l88 -170l100 168q16 25 31 25t31 -25l101 -168l87 170q7 14 12.5 18.5t17.5 4.5h154q15 0 15 -11q0 -3 -4 -13l-226 -453q-17 -34 -36 -34q-17 0 -38 34l-115 188l-117 -188q-21 -34 -38 -34q-19 0 -36 34z" />
    <glyph glyph-name="Ycircumflex" unicode="&#x176;" horiz-adv-x="688" 
d="M137 792q-14 8 -14 16t11 18l129 117q20 18 47 18h69q27 0 47 -18l129 -117q11 -11 11 -18q0 -8 -14 -16l-62 -33q-11 -7 -22 -7q-10 0 -26 14l-97 92q-6 -6 -40 -39.5t-54.5 -50t-30.5 -16.5t-21 7zM251 253l-250 417q-6 9 -6 16q0 14 22 14h150q20 0 29.5 -5.5
t19.5 -23.5l131 -234l131 234q10 18 19.5 23.5t29.5 5.5h145q21 0 21 -14q0 -7 -6 -16l-246 -412v-231q0 -27 -27 -27h-136q-27 0 -27 27v226z" />
    <glyph glyph-name="ycircumflex" unicode="&#x177;" horiz-adv-x="587" 
d="M85 599q-14 8 -14 16t11 18l129 117q13 12 21 15t26 3h69q18 0 26 -3t21 -15l129 -117q11 -11 11 -18q0 -8 -14 -16l-62 -33q-12 -6 -21 -6q-13 0 -27 13l-97 92q-5 -5 -39.5 -39t-55 -50t-30.5 -16q-9 0 -21 6zM197 37l-193 435q-2 8 -2 11q0 12 14 12h154q26 0 33 -20
l94 -221l93 221q7 20 33 20h149q16 0 16 -14q0 -5 -3 -13l-302 -675q-11 -23 -25 -23h-162q-15 0 -15 12q0 5 3 11z" />
    <glyph glyph-name="Ydieresis" unicode="&#x178;" horiz-adv-x="688" 
d="M154 833q0 35 22.5 57t58.5 22t59 -22t23 -57t-23 -57t-59 -22t-58.5 22t-22.5 57zM373 833q0 35 22.5 57t58.5 22t59 -22t23 -57t-23 -57t-59 -22t-58.5 22t-22.5 57zM251 253l-250 417q-6 9 -6 16q0 14 22 14h150q20 0 29.5 -5.5t19.5 -23.5l131 -234l131 234
q10 18 19.5 23.5t29.5 5.5h145q21 0 21 -14q0 -7 -6 -16l-246 -412v-231q0 -27 -27 -27h-136q-27 0 -27 27v226z" />
    <glyph glyph-name="Zacute" unicode="&#x179;" horiz-adv-x="644" 
d="M207 797q-12 11 -12 19q0 9 12 18l183 137q17 11 29 11q13 0 28 -11l62 -46q14 -10 14 -21t-17 -22l-205 -120q-17 -9 -26 -9q-8 0 -21 8zM310 527h-246q-27 1 -27 27v119q0 27 27 27h519q26 0 26 -16q0 -10 -7 -21l-281 -490h256q28 0 28 -27v-119q0 -27 -28 -27h-529
q-28 0 -28 17q0 6 7 20z" />
    <glyph glyph-name="zacute" unicode="&#x17a;" horiz-adv-x="543" 
d="M155 604q-12 10 -12 19t12 18l183 137q17 11 29 11q13 0 28 -11l62 -46q14 -10 14 -21t-17 -22l-205 -119q-17 -9 -26 -9q-8 0 -21 8zM224 340h-163q-28 0 -28 26v103q0 26 24 26h437q19 0 19 -15q0 -8 -5 -15l-199 -310h174q27 0 27 -25v-104q0 -26 -27 -26h-445
q-20 0 -20 14q0 8 5 14z" />
    <glyph glyph-name="Zdotaccent" unicode="&#x17b;" horiz-adv-x="644" 
d="M223 837q0 38 26 62t66 24t66 -24t26 -62q0 -37 -26 -60.5t-66 -23.5t-66 23.5t-26 60.5zM310 527h-246q-27 1 -27 27v119q0 27 27 27h519q26 0 26 -16q0 -10 -7 -21l-281 -490h256q28 0 28 -27v-119q0 -27 -28 -27h-529q-28 0 -28 17q0 6 7 20z" />
    <glyph glyph-name="zdotaccent" unicode="&#x17c;" horiz-adv-x="543" 
d="M177 644q0 38 26 62.5t66 24.5t66 -24.5t26 -62.5q0 -37 -26 -60.5t-66 -23.5t-66 23.5t-26 60.5zM224 340h-163q-28 0 -28 26v103q0 26 24 26h437q19 0 19 -15q0 -8 -5 -15l-199 -310h174q27 0 27 -25v-104q0 -26 -27 -26h-445q-20 0 -20 14q0 8 5 14z" />
    <glyph glyph-name="Zcaron" unicode="&#x17d;" horiz-adv-x="644" 
d="M104 888q-11 9 -11 17q0 9 14 17l62 33q12 6 21 6q13 0 27 -14l98 -91l98 91q14 14 27 14q9 0 21 -6l62 -33q14 -8 14 -17q0 -8 -11 -17l-130 -117q-13 -12 -21 -15t-25 -3h-70q-17 0 -25 3t-21 15zM310 527h-246q-27 1 -27 27v119q0 27 27 27h519q26 0 26 -16
q0 -10 -7 -21l-281 -490h256q28 0 28 -27v-119q0 -27 -28 -27h-529q-28 0 -28 17q0 6 7 20z" />
    <glyph glyph-name="zcaron" unicode="&#x17e;" horiz-adv-x="543" 
d="M56 695q-11 11 -11 18q0 8 14 16l62 33q12 6 21 6q13 0 27 -14l98 -91l98 91q14 14 27 14q9 0 21 -6l62 -33q14 -8 14 -16q0 -7 -11 -18l-130 -117q-13 -12 -21 -15t-25 -3h-70q-17 0 -25 3t-21 15zM224 340h-163q-28 0 -28 26v103q0 26 24 26h437q19 0 19 -15
q0 -8 -5 -15l-199 -310h174q27 0 27 -25v-104q0 -26 -27 -26h-445q-20 0 -20 14q0 8 5 14z" />
    <glyph glyph-name="longs" unicode="&#x17f;" horiz-adv-x="381" 
d="M60 509q0 249 216 249q55 0 91 -8q27 -6 24 -30l-12 -101q-1 -13 -5.5 -17.5t-15.5 -4.5q-5 0 -21 1.5t-25 1.5q-69 0 -69 -90v-486q0 -24 -24 -24h-136q-23 0 -23 24v485z" />
    <glyph glyph-name="uni018F" unicode="&#x18f;" horiz-adv-x="799" 
d="M35 362q0 44 45 44h488q-12 72 -68 110.5t-126 38.5q-104 0 -196 -64q-19 -13 -34 -13q-20 0 -33 20l-43 65q-9 13 -9 24q0 17 21 33q120 95 306 95q166 0 271.5 -105t105.5 -260q0 -156 -104 -260.5t-273 -104.5q-156 0 -253.5 101t-97.5 256v20zM229 264
q14 -53 55 -86.5t101 -33.5q135 0 175 120h-331z" />
    <glyph glyph-name="florin" unicode="&#x192;" horiz-adv-x="673" 
d="M-41 -6q10 16 20 16q6 0 13 -4q31 -16 65 -16q69 0 93 87l49 174h-58q-27 0 -27 28v93q0 28 27 28h101l32 114q30 103 90.5 151.5t155.5 48.5q83 0 140 -41q17 -10 17 -22q0 -5 -5 -15l-45 -77q-9 -15 -19 -15q-6 0 -13 4q-29 16 -66 16q-67 0 -92 -87l-23 -77h91
q28 0 28 -28v-93q0 -28 -28 -28h-132l-60 -212q-57 -199 -246 -199q-82 0 -140 40q-16 12 -16 22q0 6 5 16z" />
    <glyph glyph-name="Ohorn" unicode="&#x1a0;" horiz-adv-x="973" 
d="M766 482q50 28 60 58q-23 9 -37.5 33.5t-14.5 52.5q0 35 27.5 62t68.5 27t69.5 -27.5t28.5 -74.5q0 -74 -48 -135.5t-132 -97.5q1 -10 1 -31q0 -160 -106.5 -261t-272.5 -101q-164 0 -269.5 100.5t-105.5 260.5t106 262.5t270 102.5q128 0 222 -62.5t133 -168.5zM411 160
q78 0 130 52t52 137q0 86 -51.5 138t-130.5 52q-78 0 -129 -52.5t-51 -137.5t50.5 -137t129.5 -52z" />
    <glyph glyph-name="ohorn" unicode="&#x1a1;" horiz-adv-x="721" 
d="M521 407q24 7 43 22.5t24 32.5q-24 6 -39 26t-15 48q0 34 25.5 59.5t65.5 25.5t65.5 -26t25.5 -72q0 -65 -40 -113.5t-112 -76.5q21 -44 21 -99q0 -109 -77.5 -177.5t-196.5 -68.5q-124 0 -201 72t-77 185q0 116 77.5 189t200.5 73q67 0 122.5 -27.5t87.5 -72.5zM311 150
q39 0 65.5 27t26.5 70t-27 70t-65 27t-64 -27t-26 -70t26 -70t64 -27z" />
    <glyph glyph-name="Uhorn" unicode="&#x1af;" horiz-adv-x="961" 
d="M65 673q0 27 27 27h135q28 0 28 -27v-356q0 -157 132 -157q65 0 99 40.5t34 116.5v356q0 27 27 27h135q28 0 28 -27v-211q31 10 64.5 33t41.5 46q-23 8 -37.5 32.5t-14.5 53.5q0 35 27 61.5t69 26.5q41 0 69 -27.5t28 -73.5q0 -84 -62 -152t-185 -109v-50
q0 -155 -89.5 -236t-239.5 -81q-145 0 -230.5 79.5t-85.5 235.5v372z" />
    <glyph glyph-name="uhorn" unicode="&#x1b0;" horiz-adv-x="764" 
d="M55 477q0 18 17 18h150q18 0 18 -18v-228q0 -47 17.5 -73t50.5 -26q70 0 70 99v228q0 18 17 18h149q18 0 18 -18v-69q24 7 45 23t23 31q-23 6 -38 26t-15 48q0 35 24.5 60t66.5 25q40 0 65.5 -26t25.5 -72q0 -75 -52.5 -128.5t-144.5 -75.5q-2 -72 -4 -107
q-7 -112 -72 -168t-178 -56q-122 0 -187.5 62.5t-65.5 187.5v239z" />
    <glyph glyph-name="Aringacute" unicode="&#x1fa;" 
d="M303 635q-45 20 -72.5 60.5t-27.5 91.5q0 82 69 133l167 126q15 12 29 12t29 -12l56 -43q15 -12 15 -22q0 -12 -18 -21l-76 -41q69 -47 69 -132q0 -52 -27.5 -92.5t-73.5 -59.5l302 -602q6 -11 6 -18q0 -15 -23 -15h-142q-20 0 -28 5t-15 21l-35 73q-6 13 -19 13h-237
q-13 0 -19 -13l-34 -73q-7 -16 -15.5 -21t-26.5 -5h-137q-23 0 -23 15q0 9 5 18zM321 787q0 -21 15 -36t37 -15t37 15t15 36q0 22 -15 37t-37 15t-37 -15t-15 -37zM423 262q11 0 11 7q0 5 -2 8l-63 132l-62 -132q-3 -5 -3 -8q0 -7 11 -7h108z" />
    <glyph glyph-name="aringacute" unicode="&#x1fb;" horiz-adv-x="567" 
d="M354 964q15 12 29 12t29 -12l56 -43q15 -12 15 -22q0 -12 -18 -21l-76 -41q69 -47 69 -132q0 -70 -49.5 -118t-120.5 -48t-120.5 48t-49.5 118q0 82 69 133zM236 705q0 -21 15 -36t37 -15t37 15t15 36q0 22 -15 37t-37 15t-37 -15t-15 -37zM329 22q-41 -32 -111 -32
q-86 0 -136.5 43t-50.5 117q0 73 50.5 115.5t136.5 42.5q67 0 111 -28q-6 75 -98 75q-13 0 -35.5 -1.5t-28.5 -1.5q-12 0 -16.5 5t-6.5 19l-11 93q-1 15 4 21.5t20 9.5q40 8 101 8q254 0 254 -252v-238q0 -18 -17 -18h-148q-18 0 -18 18v4zM274 92q25 0 41.5 15.5t16.5 40.5
q0 27 -17 42.5t-41 15.5q-25 0 -41 -15t-16 -41t16 -42t41 -16z" />
    <glyph glyph-name="AEacute" unicode="&#x1fc;" horiz-adv-x="1052" 
d="M530 797q-12 11 -12 19q0 9 12 18l183 137q17 11 29 11q13 0 28 -11l62 -46q14 -10 14 -21t-17 -22l-205 -120q-16 -9 -26 -9q-8 0 -21 8zM384 673q10 16 19 21.5t27 5.5h551q28 0 28 -27v-111q0 -27 -28 -27h-248q-16 0 -16 -16v-70q0 -15 16 -15h215q27 0 27 -28v-109
q0 -27 -27 -27h-215q-16 0 -16 -16v-73q0 -16 16 -16h249q28 0 28 -27v-111q0 -27 -28 -27h-428q-27 0 -27 27v139q0 10 -3.5 13t-12.5 3h-204q-15 0 -23 -13l-85 -142q-10 -17 -18.5 -22t-27.5 -5h-149q-19 0 -19 14q0 7 9 21zM511 346q16 0 16 16v198q0 11 -5 11
q-4 0 -9 -8l-121 -200q-3 -6 -3 -10q0 -7 13 -7h109z" />
    <glyph glyph-name="aeacute" unicode="&#x1fd;" horiz-adv-x="882" 
d="M332 604q-12 10 -12 19t12 18l183 137q17 11 29 11q13 0 28 -11l62 -46q14 -10 14 -21t-17 -22l-205 -119q-16 -9 -26 -9q-8 0 -21 8zM133 469q-1 15 4 21.5t20 9.5q40 8 101 8q111 0 172 -49q68 49 161 49q118 0 188 -71.5t70 -186.5v-29q0 -19 -18 -19h-317
q7 -35 33.5 -54.5t66.5 -19.5q71 0 127 33q14 8 23 8q11 0 16 -12l38 -75q5 -10 5 -17q0 -12 -15 -21q-86 -57 -214 -57q-117 0 -191 69q-70 -66 -185 -66q-86 0 -136.5 43t-50.5 117q0 73 50.5 115.5t136.5 42.5q67 0 111 -28q-6 75 -98 75q-13 0 -35.5 -1.5t-28.5 -1.5
q-12 0 -16.5 5t-6.5 19zM663 312q-2 33 -21 53t-51 20q-59 0 -75 -73h147zM217 150q0 -26 16 -42t41 -16t41.5 15.5t16.5 40.5q0 27 -17 42.5t-41 15.5q-25 0 -41 -15t-16 -41z" />
    <glyph glyph-name="Oslashacute" unicode="&#x1fe;" horiz-adv-x="825" 
d="M304 797q-12 11 -12 19q0 9 12 18l183 137q17 11 29 11q13 0 28 -11l62 -46q14 -10 14 -21t-17 -22l-205 -120q-16 -9 -26 -9q-8 0 -21 8zM126 103q-91 99 -91 245q0 160 106 263t271 103q117 0 210 -57l31 36q12 13 20 17t24 4h70q19 0 19 -13q0 -7 -15 -23l-73 -82
q92 -100 92 -246q0 -160 -106.5 -262t-273.5 -102q-118 0 -208 56l-30 -35q-12 -13 -20 -17t-24 -4h-71q-18 0 -18 13q0 8 14 23zM499 518q-37 21 -87 21q-79 0 -130 -52t-51 -138q0 -63 26 -102zM325 181q37 -21 86 -21q79 0 131 52.5t52 136.5q0 59 -28 103z" />
    <glyph glyph-name="oslashacute" unicode="&#x1ff;" horiz-adv-x="625" 
d="M195 604q-12 10 -12 19t12 18l183 137q17 11 29 11q13 0 28 -11l62 -46q14 -10 14 -21t-17 -22l-205 -119q-17 -9 -26 -9q-8 0 -21 8zM100 70q-67 70 -67 176q0 115 77.5 188.5t201.5 73.5q81 0 146 -35l14 16q11 13 19.5 17t23.5 4h44q20 0 20 -12q0 -7 -15 -23l-43 -48
q71 -73 71 -180q0 -115 -78 -187.5t-203 -72.5q-83 0 -150 35l-11 -12q-11 -13 -19.5 -17t-23.5 -4h-45q-19 0 -19 12q0 7 15 23zM342 342q-15 6 -31 6q-39 0 -65.5 -28.5t-26.5 -72.5q0 -23 5 -37zM278 154q16 -6 33 -6q40 0 68 27.5t28 71.5q0 20 -9 42z" />
    <glyph glyph-name="uni0218" unicode="&#x218;" horiz-adv-x="608" 
d="M80 208q9 15 20 15q8 0 20 -9q81 -60 169 -60q89 0 89 50q0 24 -24.5 37t-94.5 30q-112 28 -166.5 77t-54.5 139q0 107 75 167t195 60q142 0 252 -89q12 -9 12 -21q0 -10 -7 -20l-60 -92q-9 -13 -19 -13t-19 8q-81 59 -157 59q-36 0 -56 -13.5t-20 -35.5q0 -25 23 -37
t87 -28q118 -29 174 -79t56 -137q0 -107 -77 -168.5t-206 -61.5q-149 0 -261 88q-16 12 -16 24q0 10 9 23zM259 -195q-28 6 -46 25.5t-18 51.5q0 37 28.5 60.5t73.5 23.5t71.5 -23t26.5 -64q0 -42 -40 -110l-19 -34q-8 -14 -16 -18.5t-27 -4.5h-55q-24 0 -24 14q0 7 6 16z
" />
    <glyph glyph-name="uni0219" unicode="&#x219;" horiz-adv-x="502" 
d="M71 156q6 11 15 11q6 0 18 -7q29 -18 68.5 -30.5t69.5 -12.5q47 0 47 26q0 13 -13 19t-54 17q-15 4 -23 6q-84 23 -124.5 59.5t-40.5 99.5q0 78 58.5 121t153.5 43q127 0 209 -59q10 -7 10 -15q0 -3 -6 -15l-45 -78q-6 -10 -14 -10t-17 6q-72 41 -126 41q-40 0 -40 -25
q0 -13 17 -21t66 -20q91 -22 131.5 -58t40.5 -102q0 -77 -57 -121t-166 -44q-130 0 -216 61q-13 9 -13 16q0 6 6 16zM210 -195q-28 6 -46 25.5t-18 51.5q0 37 28.5 60.5t73.5 23.5t71.5 -23t26.5 -64q0 -42 -40 -110l-19 -34q-8 -14 -16 -18.5t-27 -4.5h-55q-24 0 -24 14
q0 7 6 16z" />
    <glyph glyph-name="uni021A" unicode="&#x21a;" horiz-adv-x="608" 
d="M209 511q0 16 -16 16h-151q-27 0 -27 27v119q0 27 27 27h524q27 0 27 -27v-119q0 -27 -27 -27h-151q-16 0 -16 -16v-484q0 -27 -27 -27h-136q-27 0 -27 27v484zM266 -195q-28 6 -46 25.5t-18 51.5q0 37 28.5 60.5t73.5 23.5t71.5 -23t26.5 -64q0 -42 -40 -110l-19 -34
q-8 -14 -16 -18.5t-27 -4.5h-55q-24 0 -24 14q0 7 6 16z" />
    <glyph glyph-name="uni021B" unicode="&#x21b;" horiz-adv-x="401" 
d="M107 340h-69q-26 0 -26 26v102q0 27 26 27h69v114q0 26 26 26h130q27 0 27 -26v-114h69q26 0 26 -27v-102q0 -26 -26 -26h-69v-314q0 -26 -27 -26h-130q-26 0 -26 26v314zM162 -195q-28 6 -46 25.5t-18 51.5q0 37 28.5 60.5t73.5 23.5t71.5 -23t26.5 -64q0 -42 -40 -110
l-19 -34q-8 -14 -16 -18.5t-27 -4.5h-55q-24 0 -24 14q0 7 6 16z" />
    <glyph glyph-name="uni0237" unicode="&#x237;" horiz-adv-x="306" 
d="M-65 -94q1 22 19 22q5 0 19.5 -2t23.5 -2q66 0 66 93v454q0 24 24 24h137q24 0 24 -23v-458q0 -245 -219 -245q-52 0 -83 7q-25 5 -22 30z" />
    <glyph glyph-name="uni0259" unicode="&#x259;" horiz-adv-x="588" 
d="M33 275q0 18 17 18h318q-7 35 -34 54.5t-67 19.5q-69 0 -127 -33q-16 -8 -22 -8q-9 0 -16 13l-39 74q-4 8 -4 16q0 13 15 22q83 57 214 57q121 0 194 -72.5t73 -186.5q0 -115 -73.5 -188.5t-191.5 -73.5q-117 0 -187 71.5t-70 186.5v30zM218 183q3 -33 22 -53t50 -20
q60 0 76 73h-148z" />
    <glyph glyph-name="circumflex" unicode="&#x2c6;" horiz-adv-x="500" 
d="M42 792q-14 8 -14 16t11 18l129 117q20 18 47 18h69q27 0 47 -18l129 -117q11 -11 11 -18q0 -8 -14 -16l-62 -33q-11 -7 -22 -7q-10 0 -26 14l-97 92q-6 -6 -40 -39.5t-54.5 -50t-30.5 -16.5t-21 7z" />
    <glyph glyph-name="caron" unicode="&#x2c7;" horiz-adv-x="500" 
d="M39 888q-11 9 -11 17q0 9 14 17l62 33q12 6 21 6q13 0 27 -14l98 -91l98 91q14 14 27 14q9 0 21 -6l62 -33q14 -8 14 -17q0 -8 -11 -17l-130 -117q-13 -12 -21 -15t-25 -3h-70q-17 0 -25 3t-21 15z" />
    <glyph glyph-name="uni02C9" unicode="&#x2c9;" horiz-adv-x="500" 
d="M82 876q0 27 28 27h280q28 0 28 -27v-73q0 -26 -28 -26h-280q-28 0 -28 26v73z" />
    <glyph glyph-name="breve" unicode="&#x2d8;" horiz-adv-x="500" 
d="M147 951q22 0 27 -21q14 -59 76 -59t76 59q5 21 27 21h73q13 0 18 -5.5t5 -18.5q0 -75 -49 -124.5t-151 -49.5q-101 0 -149.5 49.5t-48.5 124.5q0 13 5 18.5t18 5.5h73z" />
    <glyph glyph-name="dotaccent" unicode="&#x2d9;" horiz-adv-x="500" 
d="M158 837q0 38 26 62t66 24t66 -24t26 -62q0 -37 -26 -60.5t-66 -23.5t-66 23.5t-26 60.5z" />
    <glyph glyph-name="ring" unicode="&#x2da;" horiz-adv-x="500" 
d="M80 896q0 70 49.5 119t120.5 49t120.5 -49t49.5 -119q0 -71 -49.5 -119.5t-120.5 -48.5t-120.5 48.5t-49.5 119.5zM198 896q0 -22 15 -37t37 -15t37 15t15 37t-15 37t-37 15t-37 -15t-15 -37z" />
    <glyph glyph-name="ogonek" unicode="&#x2db;" horiz-adv-x="500" 
d="M395 -175q3 -6 3 -11q0 -10 -12 -17q-48 -32 -112 -32q-67 0 -109 35.5t-42 91.5q0 92 114 144l73 -30q-81 -33 -81 -93q0 -24 15.5 -38t40.5 -14q35 0 62 15q8 5 13 5q7 0 11 -10z" />
    <glyph glyph-name="tilde" unicode="&#x2dc;" horiz-adv-x="500" 
d="M39 828q-6 9 -6 15q0 7 9 17q52 60 130 60q38 0 87 -19.5t69 -19.5q33 0 66 31q8 8 15 8q8 0 15 -10l37 -56q6 -8 6 -13q0 -7 -9 -18q-52 -60 -130 -60q-38 0 -87 19.5t-69 19.5q-33 0 -66 -31q-7 -7 -15 -7q-7 0 -15 9z" />
    <glyph glyph-name="hungarumlaut" unicode="&#x2dd;" horiz-adv-x="500" 
d="M107 759q-68 31 -68 45q0 8 9 18q2 2 136 142q17 17 29 17q10 0 63 -20t53 -35q0 -9 -15 -22q-104 -92 -156 -137q-17 -15 -30 -15q-10 0 -21 7zM338 759q-3 2 -15 7.5t-18 9t-14.5 9t-12.5 10.5t-4 10q0 8 11 18l158 142q19 16 34 16q9 0 23 -6l69 -34q19 -9 19 -20
t-16 -23l-180 -131q-20 -15 -33 -15q-10 0 -21 7z" />
    <glyph glyph-name="gravecomb" unicode="&#x300;" horiz-adv-x="0" 
d="M-17 778q15 11 28 11q12 0 29 -11l183 -137q12 -9 12 -18t-12 -19l-47 -35q-12 -9 -21 -9q-10 0 -26 10l-205 119q-17 11 -17 22t14 21z" />
    <glyph glyph-name="acutecomb" unicode="&#x301;" horiz-adv-x="0" 
d="M7 604q-12 10 -12 19t12 18l183 137q17 11 29 11q13 0 28 -11l62 -46q14 -10 14 -21t-17 -22l-205 -119q-16 -9 -26 -9q-8 0 -21 8z" />
    <glyph glyph-name="uni0302" unicode="&#x302;" horiz-adv-x="0" 
d="M-93 599q-14 8 -14 16t11 18l129 117q13 12 21 15t26 3h69q18 0 26 -3t21 -15l129 -117q11 -11 11 -18q0 -8 -14 -16l-62 -33q-12 -6 -21 -6q-13 0 -27 13l-97 92q-5 -5 -39.5 -39t-55 -50t-30.5 -16q-9 0 -21 6z" />
    <glyph glyph-name="tildecomb" unicode="&#x303;" horiz-adv-x="0" 
d="M-96 635q-6 9 -6 15t9 17q53 60 130 60q38 0 87.5 -19.5t68.5 -19.5q33 0 66 31q8 8 15 8q8 0 15 -10l37 -55q6 -7 6 -14q0 -8 -9 -18q-53 -60 -130 -60q-37 0 -87 19.5t-69 19.5q-33 0 -66 -31q-7 -7 -15 -7t-15 9z" />
    <glyph glyph-name="uni0304" unicode="&#x304;" horiz-adv-x="0" 
d="M-53 683q0 27 28 27h280q28 0 28 -27v-73q0 -26 -28 -26h-280q-28 0 -28 26v73z" />
    <glyph glyph-name="uni0306" unicode="&#x306;" horiz-adv-x="0" 
d="M12 758q23 0 27 -20q15 -63 76 -63q63 0 76 63q4 20 27 20h73q13 0 18 -5.5t5 -18.5q0 -74 -50 -124t-150 -50q-101 0 -149.5 49.5t-48.5 124.5q0 13 5 18.5t18 5.5h73z" />
    <glyph glyph-name="uni0307" unicode="&#x307;" horiz-adv-x="0" 
d="M23 644q0 38 26 62.5t66 24.5t66 -24.5t26 -62.5q0 -37 -26 -60.5t-66 -23.5t-66 23.5t-26 60.5z" />
    <glyph glyph-name="uni0308" unicode="&#x308;" horiz-adv-x="0" 
d="M-76 639q0 35 22.5 57t58.5 22t59 -22t23 -57t-23 -57t-59 -22t-58.5 22t-22.5 57zM143 639q0 35 22.5 57t58.5 22t59 -22t23 -57t-23 -57t-59 -22t-58.5 22t-22.5 57z" />
    <glyph glyph-name="hookabovecomb" unicode="&#x309;" horiz-adv-x="0" 
d="M44 640q0 18 33 18q66 0 66 27q0 30 -54 30q-16 0 -40 -5t-27 -5h-2q-6 0 -11 6q-2 3 -12.5 32t-10.5 34q0 15 39 23.5t73 8.5q71 0 108.5 -29.5t37.5 -81.5q0 -44 -26 -69t-60 -31v-29q0 -9 -11 -9h-93q-10 0 -10 9v71z" />
    <glyph glyph-name="uni030A" unicode="&#x30a;" horiz-adv-x="0" 
d="M-55 705q0 71 49 118.5t121 47.5t121 -47.5t49 -118.5q0 -70 -49.5 -118t-120.5 -48t-120.5 48t-49.5 118zM63 705q0 -21 15 -36t37 -15t37 15t15 36q0 22 -15 37t-37 15t-37 -15t-15 -37z" />
    <glyph glyph-name="uni030B" unicode="&#x30b;" horiz-adv-x="0" 
d="M-28 566q-68 31 -68 45q0 7 9 18q2 2 136 142q17 17 29 17q10 0 63 -20t53 -35q0 -9 -15 -22q-104 -92 -156 -137q-15 -14 -30 -14q-9 0 -21 6zM203 566q-3 2 -15 7.5t-18 9t-14.5 9t-12.5 10.5t-4 10q0 8 11 18l158 142q19 16 34 16q14 0 62.5 -23.5t48.5 -36.5
q0 -11 -16 -23l-180 -131q-18 -14 -33 -14q-9 0 -21 6z" />
    <glyph glyph-name="uni030C" unicode="&#x30c;" horiz-adv-x="0" 
d="M-96 695q-11 11 -11 18q0 8 14 16l62 33q12 6 21 6q13 0 27 -14l98 -91l98 91q14 14 27 14q9 0 21 -6l62 -33q14 -8 14 -16q0 -7 -11 -18l-130 -117q-13 -12 -21 -15t-25 -3h-70q-17 0 -25 3t-21 15z" />
    <glyph glyph-name="dotbelowcomb" unicode="&#x323;" horiz-adv-x="0" 
d="M23 -141q0 38 26 62t66 24t66 -24t26 -62q0 -37 -26 -60.5t-66 -23.5t-66 23.5t-26 60.5z" />
    <glyph glyph-name="uni0326" unicode="&#x326;" horiz-adv-x="0" 
d="M-286 -195q-28 6 -46 25.5t-18 51.5q0 37 28.5 60.5t73.5 23.5t71.5 -23t26.5 -64q0 -42 -40 -110l-19 -34q-8 -14 -16 -18.5t-27 -4.5h-55q-24 0 -24 14q0 7 6 16z" />
    <glyph glyph-name="uni0374" unicode="&#x374;" horiz-adv-x="260" 
d="M105 721q8 29 39 29h87q24 0 24 -15q0 -3 -4 -15l-76 -170q-10 -24 -32 -25h-63q-22 0 -22 17q0 2 2 10z" />
    <glyph glyph-name="uni0375" unicode="&#x375;" horiz-adv-x="260" 
d="M155 -21q-8 -29 -39 -29h-87q-24 0 -24 15q0 3 4 15l76 170q10 24 32 25h63q22 0 22 -17q0 -2 -2 -10z" />
    <glyph glyph-name="uni037E" unicode="&#x37e;" horiz-adv-x="296" 
d="M44 429q0 42 29 69t75 27t75 -27t29 -69t-29 -68.5t-75 -26.5t-75 27t-29 68zM113 -12q-30 7 -49.5 31t-19.5 61q0 43 29.5 70.5t73.5 27.5q48 0 76.5 -27t28.5 -74q0 -52 -41 -129l-34 -63q-9 -16 -18 -21.5t-28 -5.5h-54q-25 0 -25 15q0 7 6 18z" />
    <glyph glyph-name="tonos" unicode="&#x384;" horiz-adv-x="500" 
d="M217 756q8 29 39 29h87q24 0 24 -15q0 -3 -4 -15l-76 -170q-10 -24 -32 -25h-63q-22 0 -22 17q0 2 2 10z" />
    <glyph glyph-name="dieresistonos" unicode="&#x385;" horiz-adv-x="505" 
d="M226 756q5 16 13 22.5t25 6.5h78q23 0 23 -16q0 -2 -4 -14l-74 -170q-10 -24 -31 -25h-56q-20 0 -20 17q0 6 1 10zM21 628q0 30 19 49.5t50 19.5t51.5 -19.5t20.5 -49.5t-20 -49t-52 -19q-31 0 -50 19t-19 49zM344 628q0 30 19 49.5t50 19.5t51.5 -19.5t20.5 -49.5
t-20 -49t-52 -19q-31 0 -50 19t-19 49z" />
    <glyph glyph-name="Alphatonos" unicode="&#x386;" 
d="M64 756q8 29 39 29h87q24 0 24 -15q0 -3 -4 -15l-76 -170q-10 -24 -32 -25h-63q-22 0 -22 17q0 2 2 10zM318 664q15 29 27 40.5t28 11.5q27 0 54 -52l317 -631q6 -11 6 -18q0 -15 -23 -15h-142q-20 0 -28 5t-15 21l-35 73q-6 13 -19 13h-237q-13 0 -19 -13l-34 -73
q-7 -16 -15.5 -21t-26.5 -5h-137q-23 0 -23 15q0 9 5 18zM423 262q11 0 11 7q0 5 -2 8l-63 132l-62 -132q-3 -5 -3 -8q0 -7 11 -7h108z" />
    <glyph glyph-name="anoteleia" unicode="&#x387;" horiz-adv-x="296" 
d="M44 351q0 42 29 68.5t75 26.5t75 -26.5t29 -68.5t-29 -69t-75 -27t-75 27t-29 69z" />
    <glyph glyph-name="Epsilontonos" unicode="&#x388;" horiz-adv-x="753" 
d="M56 756q8 29 39 29h87q24 0 24 -15q0 -3 -4 -15l-76 -170q-10 -24 -32 -25h-63q-22 0 -22 17q0 2 2 10zM227 673q0 27 27 27h427q28 0 28 -27v-111q0 -27 -28 -27h-248q-10 0 -13 -3.5t-3 -12.5v-70q0 -9 3 -12t13 -3h215q27 0 27 -28v-109q0 -27 -27 -27h-215
q-10 0 -13 -3.5t-3 -12.5v-73q0 -9 3 -12.5t13 -3.5h249q28 0 28 -27v-111q0 -27 -28 -27h-428q-27 0 -27 27v646z" />
    <glyph glyph-name="Etatonos" unicode="&#x389;" horiz-adv-x="918" 
d="M56 756q8 29 39 29h87q24 0 24 -15q0 -3 -4 -15l-76 -170q-10 -24 -32 -25h-63q-22 0 -22 17q0 2 2 10zM227 673q0 27 27 27h135q28 0 28 -27v-214q0 -9 3 -12.5t13 -3.5h208q16 0 16 16v214q0 27 28 27h135q28 0 28 -27v-646q0 -27 -28 -27h-135q-28 0 -28 27v227
q0 16 -16 16h-208q-10 0 -13 -3.5t-3 -12.5v-227q0 -27 -28 -27h-135q-27 0 -27 27v646z" />
    <glyph glyph-name="Iotatonos" unicode="&#x38a;" horiz-adv-x="487" 
d="M56 756q8 29 39 29h87q24 0 24 -15q0 -3 -4 -15l-76 -170q-10 -24 -32 -25h-63q-22 0 -22 17q0 2 2 10zM227 673q0 27 27 27h135q28 0 28 -27v-646q0 -27 -28 -27h-135q-27 0 -27 27v646z" />
    <glyph glyph-name="Omicrontonos" unicode="&#x38c;" horiz-adv-x="927" 
d="M56 756q8 29 39 29h87q24 0 24 -15q0 -3 -4 -15l-76 -170q-10 -24 -32 -25h-63q-22 0 -22 17q0 2 2 10zM137 348q0 160 106 263t271 103t271.5 -102t106.5 -262t-106.5 -262t-273.5 -102q-163 0 -269 101.5t-106 260.5zM513 160q79 0 131 52.5t52 136.5q0 86 -51.5 138
t-130.5 52t-130 -52t-51 -138q0 -85 51 -137t129 -52z" />
    <glyph glyph-name="Upsilontonos" unicode="&#x38e;" horiz-adv-x="911" 
d="M56 756q8 29 39 29h87q24 0 24 -15q0 -3 -4 -15l-76 -170q-10 -24 -32 -25h-63q-22 0 -22 17q0 2 2 10zM473 253l-250 417q-6 9 -6 16q0 14 22 14h150q20 0 29.5 -5.5t19.5 -23.5l131 -234l131 234q10 18 19.5 23.5t29.5 5.5h145q21 0 21 -14q0 -7 -6 -16l-246 -412v-231
q0 -27 -27 -27h-136q-27 0 -27 27v226z" />
    <glyph glyph-name="Omegatonos" unicode="&#x38f;" horiz-adv-x="911" 
d="M56 756q8 29 39 29h87q24 0 24 -15q0 -3 -4 -15l-76 -170q-10 -24 -32 -25h-63q-22 0 -22 17q0 2 2 10zM129 138q0 27 27 27h88q-102 87 -102 223q0 140 98.5 233t267.5 93q168 0 265 -93t97 -232q0 -134 -102 -224h88q28 0 28 -27v-111q0 -27 -28 -27h-266q-27 0 -27 27
v92q0 17 3 25t15 19q94 84 94 200q0 79 -43.5 127.5t-125.5 48.5t-125.5 -48.5t-43.5 -127.5q0 -119 94 -200q12 -12 15 -19.5t3 -24.5v-92q0 -27 -27 -27h-266q-27 0 -27 27v111z" />
    <glyph glyph-name="iotadieresistonos" unicode="&#x390;" horiz-adv-x="378" 
d="M135 756q5 16 13 22.5t25 6.5h78q23 0 23 -16q0 -2 -4 -14l-74 -170q-10 -24 -31 -25h-56q-20 0 -20 17q0 6 1 10zM-70 628q0 30 19 49.5t50 19.5t51.5 -19.5t20.5 -49.5t-20 -49t-52 -19q-31 0 -50 19t-19 49zM253 628q0 30 19 49.5t50 19.5t51.5 -19.5t20.5 -49.5
t-20 -49t-52 -19q-31 0 -50 19t-19 49zM56 471q0 24 23 24h137q24 0 24 -24v-249q0 -75 51 -75q9 0 22.5 1.5t17.5 1.5q10 0 13.5 -5t5.5 -17l9 -101q1 -15 -3 -21t-18 -11q-33 -10 -82 -10q-108 0 -154 54.5t-46 166.5v265z" />
    <glyph glyph-name="Alpha" unicode="&#x391;" 
d="M318 664q15 29 27 40.5t28 11.5q27 0 54 -52l317 -631q6 -11 6 -18q0 -15 -23 -15h-142q-20 0 -28 5t-15 21l-35 73q-6 13 -19 13h-237q-13 0 -19 -13l-34 -73q-7 -16 -15.5 -21t-26.5 -5h-137q-23 0 -23 15q0 9 5 18zM423 262q11 0 11 7q0 5 -2 8l-63 132l-62 -132
q-3 -5 -3 -8q0 -7 11 -7h108z" />
    <glyph glyph-name="Beta" unicode="&#x392;" horiz-adv-x="691" 
d="M70 673q0 27 27 27h264q137 0 208 -46t71 -150q0 -99 -88 -141q52 -16 81 -55t29 -95q0 -213 -300 -213h-265q-27 0 -27 27v646zM349 430q51 0 74 13t23 43t-22.5 42.5t-74.5 12.5h-73q-10 0 -13 -3.5t-3 -12.5v-79q0 -9 3 -12.5t13 -3.5h73zM362 159q56 0 80 14t24 45
t-24.5 44.5t-79.5 13.5h-86q-10 0 -13 -3t-3 -13v-85q0 -9 3 -12.5t13 -3.5h86z" />
    <glyph glyph-name="Gamma" unicode="&#x393;" horiz-adv-x="567" 
d="M70 673q0 27 27 27h428q27 0 27 -27v-119q0 -27 -27 -27h-249q-10 0 -13 -3.5t-3 -12.5v-484q0 -27 -28 -27h-135q-27 0 -27 27v646z" />
    <glyph glyph-name="uni0394" unicode="&#x394;" 
d="M320 664q15 29 26.5 40.5t26.5 11.5q14 0 25.5 -11.5t26.5 -40.5l319 -631q6 -11 6 -18q0 -15 -23 -15h-708q-23 0 -23 15q0 9 5 18zM481 165l-112 240l-111 -240h223z" />
    <glyph glyph-name="Epsilon" unicode="&#x395;" horiz-adv-x="595" 
d="M70 673q0 27 27 27h427q28 0 28 -27v-111q0 -27 -28 -27h-248q-10 0 -13 -3.5t-3 -12.5v-70q0 -9 3 -12t13 -3h215q27 0 27 -28v-109q0 -27 -27 -27h-215q-10 0 -13 -3.5t-3 -12.5v-73q0 -9 3 -12.5t13 -3.5h249q28 0 28 -27v-111q0 -27 -28 -27h-428q-27 0 -27 27v646z
" />
    <glyph glyph-name="Zeta" unicode="&#x396;" horiz-adv-x="644" 
d="M310 527h-246q-27 1 -27 27v119q0 27 27 27h519q26 0 26 -16q0 -10 -7 -21l-281 -490h256q28 0 28 -27v-119q0 -27 -28 -27h-529q-28 0 -28 17q0 6 7 20z" />
    <glyph glyph-name="Eta" unicode="&#x397;" horiz-adv-x="761" 
d="M70 673q0 27 27 27h135q28 0 28 -27v-214q0 -9 3 -12.5t13 -3.5h208q16 0 16 16v214q0 27 28 27h135q28 0 28 -27v-646q0 -27 -28 -27h-135q-28 0 -28 27v227q0 16 -16 16h-208q-10 0 -13 -3.5t-3 -12.5v-227q0 -27 -28 -27h-135q-27 0 -27 27v646z" />
    <glyph glyph-name="Theta" unicode="&#x398;" horiz-adv-x="825" 
d="M35 348q0 160 106 263t271 103t271.5 -102t106.5 -262t-106.5 -262t-273.5 -102q-163 0 -269 101.5t-106 260.5zM411 157q80 0 133.5 53t53.5 139q0 87 -53 140t-133 53q-81 0 -133.5 -53t-52.5 -140t52 -139.5t133 -52.5zM282 382q0 26 27 26h208q27 0 27 -26v-72
q0 -25 -27 -25h-208q-27 0 -27 25v72z" />
    <glyph glyph-name="Iota" unicode="&#x399;" horiz-adv-x="330" 
d="M70 673q0 27 27 27h135q28 0 28 -27v-646q0 -27 -28 -27h-135q-27 0 -27 27v646z" />
    <glyph glyph-name="Kappa" unicode="&#x39a;" horiz-adv-x="724" 
d="M70 673q0 27 27 27h135q28 0 28 -27v-646q0 -27 -28 -27h-135q-27 0 -27 27v646zM285 329q-9 13 -9 23q0 12 10 26l200 294q11 17 20.5 22.5t29.5 5.5h156q22 0 22 -14q0 -7 -6 -16l-224 -311l233 -329q7 -10 7 -17q0 -13 -23 -13h-160q-21 0 -30.5 5t-20.5 22z" />
    <glyph glyph-name="Lambda" unicode="&#x39b;" 
d="M324 667q14 29 24.5 40.5t23.5 11.5t22.5 -11t25.5 -41l324 -635q6 -11 6 -17q0 -15 -24 -15h-142q-19 0 -29 6.5t-19 25.5l-167 343l-166 -343q-9 -19 -19 -25.5t-30 -6.5h-135q-23 0 -23 15q0 8 5 17z" />
    <glyph glyph-name="Mu" unicode="&#x39c;" horiz-adv-x="857" 
d="M70 672q0 39 25 39q15 0 44 -30l290 -307l289 307q30 30 44 30q26 0 26 -39v-645q0 -27 -28 -27h-135q-28 0 -28 27v277l-131 -145q-25 -26 -38 -26q-14 0 -37 26l-131 145v-277q0 -27 -28 -27h-135q-27 0 -27 27v645z" />
    <glyph glyph-name="Nu" unicode="&#x39d;" horiz-adv-x="766" 
d="M70 673q0 41 25 41q18 0 55 -34l356 -319v312q0 27 27 27h136q27 0 27 -27v-646q0 -41 -25 -41q-18 0 -55 34l-356 319v-312q0 -27 -28 -27h-135q-27 0 -27 27v646z" />
    <glyph glyph-name="Xi" unicode="&#x39e;" horiz-adv-x="589" 
d="M45 673q0 27 27 27h445q27 0 27 -27v-111q0 -27 -27 -27h-445q-27 0 -27 27v111zM78 406q0 28 27 28h378q27 0 27 -28v-109q0 -27 -27 -27h-378q-27 0 -27 27v109zM44 138q0 27 27 27h446q28 0 28 -27v-111q0 -27 -28 -27h-446q-27 0 -27 27v111z" />
    <glyph glyph-name="Omicron" unicode="&#x39f;" horiz-adv-x="825" 
d="M35 348q0 160 106 263t271 103t271.5 -102t106.5 -262t-106.5 -262t-273.5 -102q-163 0 -269 101.5t-106 260.5zM411 160q79 0 131 52.5t52 136.5q0 86 -51.5 138t-130.5 52t-130 -52t-51 -138q0 -85 51 -137t129 -52z" />
    <glyph glyph-name="Pi" unicode="&#x3a0;" horiz-adv-x="751" 
d="M70 673q0 27 27 27h557q27 0 27 -27v-646q0 -27 -27 -27h-136q-28 0 -28 27v486q0 16 -15 16h-199q-10 0 -13 -3.5t-3 -12.5v-486q0 -27 -28 -27h-135q-27 0 -27 27v646z" />
    <glyph glyph-name="Rho" unicode="&#x3a1;" horiz-adv-x="684" 
d="M70 673q0 27 27 27h244q314 0 314 -254q0 -128 -81.5 -194t-237.5 -66h-60q-10 0 -13 -3t-3 -12v-144q0 -27 -28 -27h-135q-27 0 -27 27v646zM328 351q132 0 132 94q0 49 -32.5 69.5t-99.5 20.5h-52q-10 0 -13 -3.5t-3 -12.5v-152q0 -9 3 -12.5t13 -3.5h52z" />
    <glyph glyph-name="Sigma" unicode="&#x3a3;" horiz-adv-x="598" 
d="M236 360l-195 271q-25 33 -25 48q0 21 31 21h489q27 0 27 -27v-111q0 -27 -27 -27h-211l96 -133q20 -27 20 -41t-19 -41l-109 -155h225q27 0 27 -27v-111q0 -27 -27 -27h-499q-30 0 -30 21q0 13 24 48z" />
    <glyph glyph-name="Tau" unicode="&#x3a4;" horiz-adv-x="608" 
d="M209 511q0 16 -16 16h-151q-27 0 -27 27v119q0 27 27 27h524q27 0 27 -27v-119q0 -27 -27 -27h-151q-16 0 -16 -16v-484q0 -27 -27 -27h-136q-27 0 -27 27v484z" />
    <glyph glyph-name="Upsilon" unicode="&#x3a5;" horiz-adv-x="688" 
d="M251 253l-250 417q-6 9 -6 16q0 14 22 14h150q20 0 29.5 -5.5t19.5 -23.5l131 -234l131 234q10 18 19.5 23.5t29.5 5.5h145q21 0 21 -14q0 -7 -6 -16l-246 -412v-231q0 -27 -27 -27h-136q-27 0 -27 27v226z" />
    <glyph glyph-name="Phi" unicode="&#x3a6;" horiz-adv-x="888" 
d="M352 55q-145 19 -231.5 98.5t-86.5 195.5q0 118 86.5 198.5t231.5 99.5v53q0 26 26 26h131q27 0 27 -26v-53q146 -19 232.5 -98.5t86.5 -196.5t-86.5 -197t-232.5 -100v-55q0 -26 -27 -26h-131q-26 0 -26 26v55zM352 487q-59 -13 -92.5 -50t-33.5 -87t33 -86t93 -49v272z
M536 216q59 14 93 50t34 85q0 50 -34 86t-93 50v-271z" />
    <glyph glyph-name="Chi" unicode="&#x3a7;" horiz-adv-x="705" 
d="M229 351l-213 319q-6 9 -6 16q0 14 23 14h163q19 0 28.5 -5.5t21.5 -24.5l109 -177l115 181q10 16 19.5 21t27.5 5h157q23 0 23 -13q0 -7 -7 -17l-213 -317l217 -323q6 -9 6 -16q0 -14 -22 -14h-163q-20 0 -29 5.5t-21 24.5l-115 182l-118 -186q-10 -16 -19 -21t-27 -5
h-158q-23 0 -23 14q0 8 7 16z" />
    <glyph glyph-name="Psi" unicode="&#x3a8;" horiz-adv-x="924" 
d="M370 174q-315 30 -315 329v170q0 27 26 27h131q28 0 28 -27v-168q0 -147 130 -167v335q0 27 27 27h129q28 0 28 -27v-335q130 23 130 167v168q0 27 26 27h132q27 0 27 -27v-168q0 -146 -79.5 -230t-235.5 -101v-147q0 -27 -28 -27h-129q-27 0 -27 27v147z" />
    <glyph glyph-name="uni03A9" unicode="&#x3a9;" horiz-adv-x="809" 
d="M27 138q0 27 27 27h88q-102 87 -102 223q0 140 98.5 233t267.5 93q168 0 265 -93t97 -232q0 -134 -102 -224h88q28 0 28 -27v-111q0 -27 -28 -27h-266q-27 0 -27 27v92q0 17 3 25t15 19q94 84 94 200q0 79 -43.5 127.5t-125.5 48.5t-125.5 -48.5t-43.5 -127.5
q0 -119 94 -200q12 -12 15 -19.5t3 -24.5v-92q0 -27 -27 -27h-266q-27 0 -27 27v111z" />
    <glyph glyph-name="Iotadieresis" unicode="&#x3aa;" horiz-adv-x="330" 
d="M-26 833q0 35 22.5 57t58.5 22t59 -22t23 -57t-23 -57t-59 -22t-58.5 22t-22.5 57zM193 833q0 35 22.5 57t58.5 22t59 -22t23 -57t-23 -57t-59 -22t-58.5 22t-22.5 57zM70 673q0 27 27 27h135q28 0 28 -27v-646q0 -27 -28 -27h-135q-27 0 -27 27v646z" />
    <glyph glyph-name="Upsilondieresis" unicode="&#x3ab;" horiz-adv-x="688" 
d="M154 833q0 35 22.5 57t58.5 22t59 -22t23 -57t-23 -57t-59 -22t-58.5 22t-22.5 57zM373 833q0 35 22.5 57t58.5 22t59 -22t23 -57t-23 -57t-59 -22t-58.5 22t-22.5 57zM251 253l-250 417q-6 9 -6 16q0 14 22 14h150q20 0 29.5 -5.5t19.5 -23.5l131 -234l131 234
q10 18 19.5 23.5t29.5 5.5h145q21 0 21 -14q0 -7 -6 -16l-246 -412v-231q0 -27 -27 -27h-136q-27 0 -27 27v226z" />
    <glyph glyph-name="alphatonos" unicode="&#x3ac;" horiz-adv-x="643" 
d="M289 756q8 29 39 29h87q24 0 24 -15q0 -3 -4 -15l-76 -170q-10 -24 -32 -25h-63q-22 0 -22 17q0 2 2 10zM405 41q-47 -49 -136 -49q-98 0 -167 70.5t-69 182.5q0 116 68.5 187t176.5 71q80 0 127 -49v15q0 26 26 26h125q27 0 27 -26v-443q0 -26 -27 -26h-125
q-26 0 -26 26v15zM222 247q0 -43 25.5 -69t63.5 -26q39 0 65 26t26 69t-26.5 69.5t-64.5 26.5t-63.5 -26.5t-25.5 -69.5z" />
    <glyph glyph-name="epsilontonos" unicode="&#x3ad;" horiz-adv-x="494" 
d="M227 756q8 29 39 29h87q24 0 24 -15q0 -3 -4 -15l-76 -170q-10 -24 -32 -25h-63q-22 0 -22 17q0 2 2 10zM283 200q-68 0 -68 -37q0 -39 66 -39q65 0 123 30q7 4 14 4q10 0 15 -11l38 -80q4 -10 4 -13q0 -11 -11 -17q-78 -50 -208 -50q-112 0 -168.5 43.5t-56.5 115.5
q0 41 22 72t61 46q-31 12 -50.5 38t-19.5 58q0 67 58 107.5t168 40.5q111 0 185 -43q10 -6 10 -15q0 -3 -4 -13l-39 -78q-4 -11 -13 -11q-6 0 -13 4q-52 24 -107 24q-61 0 -61 -33t72 -33h40q18 0 18 -18v-74q0 -18 -18 -18h-57z" />
    <glyph glyph-name="etatonos" unicode="&#x3ae;" horiz-adv-x="624" 
d="M281 756q8 29 39 29h87q24 0 24 -15q0 -3 -4 -15l-76 -170q-10 -24 -32 -25h-63q-22 0 -22 17q0 2 2 10zM60 470q0 25 25 25h133q26 0 26 -25v-24q49 59 133 59q192 0 192 -238v-477q0 -20 -19 -20h-145q-20 0 -20 20v453q0 101 -70 101q-71 0 -71 -101v-223
q0 -20 -19 -20h-146q-19 0 -19 20v450z" />
    <glyph glyph-name="iotatonos" unicode="&#x3af;" horiz-adv-x="378" 
d="M134 756q8 29 39 29h87q24 0 24 -15q0 -3 -4 -15l-76 -170q-10 -24 -32 -25h-63q-22 0 -22 17q0 2 2 10zM56 471q0 24 23 24h137q24 0 24 -24v-249q0 -75 51 -75q9 0 22.5 1.5t17.5 1.5q10 0 13.5 -5t5.5 -17l9 -101q1 -15 -3 -21t-18 -11q-33 -10 -82 -10
q-108 0 -154 54.5t-46 166.5v265z" />
    <glyph glyph-name="upsilondieresistonos" unicode="&#x3b0;" horiz-adv-x="611" 
d="M271 756q5 16 13 22.5t25 6.5h78q23 0 23 -16q0 -2 -4 -14l-74 -170q-10 -24 -31 -25h-56q-20 0 -20 17q0 6 1 10zM66 628q0 30 19 49.5t50 19.5t51.5 -19.5t20.5 -49.5t-20 -49t-52 -19q-31 0 -50 19t-19 49zM389 628q0 30 19 49.5t50 19.5t51.5 -19.5t20.5 -49.5
t-20 -49t-52 -19q-31 0 -50 19t-19 49zM56 477q0 18 17 18h149q18 0 18 -18v-228q0 -98 69 -98q71 0 71 99q0 82 -21 227v4q0 14 17 14h144q15 0 19 -18q24 -116 24 -227q0 -131 -66.5 -197t-187.5 -66q-122 0 -187.5 63t-65.5 188v239z" />
    <glyph glyph-name="alpha" unicode="&#x3b1;" horiz-adv-x="643" 
d="M405 41q-47 -49 -136 -49q-98 0 -167 70.5t-69 182.5q0 116 68.5 187t176.5 71q80 0 127 -49v15q0 26 26 26h125q27 0 27 -26v-443q0 -26 -27 -26h-125q-26 0 -26 26v15zM222 247q0 -43 25.5 -69t63.5 -26q39 0 65 26t26 69t-26.5 69.5t-64.5 26.5t-63.5 -26.5
t-25.5 -69.5z" />
    <glyph glyph-name="beta" unicode="&#x3b2;" horiz-adv-x="648" 
d="M59 505q0 118 65.5 185.5t193.5 67.5q113 0 183 -54.5t70 -161.5q0 -46 -26 -87t-63 -58q59 -13 95.5 -61t36.5 -118q0 -102 -69.5 -166t-190.5 -64q-62 0 -112 15v-209q0 -24 -23 -24h-137q-23 0 -23 24v711zM296 425q0 25 26 25h5q32 0 49 22t17 53q0 78 -75 78
q-76 0 -76 -101v-342q40 -18 91 -18q44 0 68.5 24.5t24.5 63.5q0 36 -23 57.5t-71 21.5h-11q-25 0 -25 24v92z" />
    <glyph glyph-name="gamma" unicode="&#x3b3;" horiz-adv-x="583" 
d="M196 27q0 27 -7 46l-186 398q-3 8 -3 13q0 11 15 11h156q13 0 19.5 -4.5t12.5 -18.5l89 -201q15 33 45 100t46 101q10 23 32 23h151q17 0 17 -12q0 -4 -3 -12q-128 -264 -191 -397q-8 -24 -8 -45v-233q0 -26 -27 -26h-132q-26 0 -26 26v231z" />
    <glyph glyph-name="delta" unicode="&#x3b4;" horiz-adv-x="625" 
d="M82 729q-5 7 -5 12q0 15 21 15h448q27 0 27 -27v-102q0 -26 -27 -26h-159l77 -93q32 -39 48.5 -60.5t38.5 -56.5t31.5 -70t9.5 -72q0 -116 -78 -189t-203 -73q-124 0 -201 72.5t-77 186.5q0 103 62.5 171t164.5 83zM311 151q39 0 66 26t27 68q0 43 -27 70t-66 27
q-38 0 -63.5 -26.5t-25.5 -69.5t25.5 -69t63.5 -26z" />
    <glyph glyph-name="epsilon" unicode="&#x3b5;" horiz-adv-x="494" 
d="M283 200q-68 0 -68 -37q0 -39 66 -39q65 0 123 30q7 4 14 4q10 0 15 -11l38 -80q4 -10 4 -13q0 -11 -11 -17q-78 -50 -208 -50q-112 0 -168.5 43.5t-56.5 115.5q0 41 22 72t61 46q-31 12 -50.5 38t-19.5 58q0 67 58 107.5t168 40.5q111 0 185 -43q10 -6 10 -15
q0 -3 -4 -13l-39 -78q-4 -11 -13 -11q-6 0 -13 4q-52 24 -107 24q-61 0 -61 -33t72 -33h40q18 0 18 -18v-74q0 -18 -18 -18h-57z" />
    <glyph glyph-name="zeta" unicode="&#x3b6;" horiz-adv-x="533" 
d="M321 -160q-17 0 -17 12q0 5 2 8q11 22 11 52q0 26 -17.5 43t-54.5 32q-113 44 -160 96.5t-47 151.5q0 49 15.5 97t51.5 101.5t57.5 81t70.5 85.5h-153q-25 0 -32.5 5t-7.5 29v86q0 22 9.5 28.5t32.5 6.5h399q38 0 38 -21q0 -23 -31 -62q-18 -23 -70.5 -91t-81.5 -104
q-38 -48 -57 -76t-35.5 -68t-16.5 -78q0 -79 92 -114q95 -36 137 -80.5t42 -130.5q0 -35 -9.5 -62.5t-30.5 -27.5h-137z" />
    <glyph glyph-name="eta" unicode="&#x3b7;" horiz-adv-x="624" 
d="M60 470q0 25 25 25h133q26 0 26 -25v-24q49 59 133 59q192 0 192 -238v-477q0 -20 -19 -20h-145q-20 0 -20 20v453q0 101 -70 101q-71 0 -71 -101v-223q0 -20 -19 -20h-146q-19 0 -19 20v450z" />
    <glyph glyph-name="theta" unicode="&#x3b8;" horiz-adv-x="620" 
d="M310 -15q-136 0 -206.5 102t-70.5 293t71.5 294.5t205.5 103.5q136 0 206.5 -102.5t70.5 -292.5q0 -192 -71 -295t-206 -103zM397 455q-6 153 -87 153q-75 0 -87 -153h174zM222 320q2 -77 25 -121t63 -44q38 0 60.5 43.5t26.5 121.5h-175z" />
    <glyph glyph-name="iota" unicode="&#x3b9;" horiz-adv-x="378" 
d="M56 471q0 24 23 24h137q24 0 24 -24v-249q0 -75 51 -75q9 0 22.5 1.5t17.5 1.5q10 0 13.5 -5t5.5 -17l9 -101q1 -15 -3 -21t-18 -11q-33 -10 -82 -10q-108 0 -154 54.5t-46 166.5v265z" />
    <glyph glyph-name="kappa" unicode="&#x3ba;" horiz-adv-x="612" 
d="M60 469q0 26 26 26h131q27 0 27 -26v-443q0 -26 -27 -26h-131q-26 0 -26 26v443zM262 233q-6 11 -6 18t6 18l122 207q11 19 35 19h163q14 0 14 -12q0 -7 -4 -12l-134 -213l152 -235q4 -8 4 -11q0 -12 -15 -12h-168q-24 0 -35 18z" />
    <glyph glyph-name="lambda" unicode="&#x3bb;" horiz-adv-x="587" 
d="M197 458l-113 244q-3 6 -3 11q0 12 15 12h162q14 0 25 -23l302 -675q3 -8 3 -13q0 -14 -16 -14h-149q-26 0 -33 20l-93 221l-94 -221q-7 -20 -33 -20h-154q-14 0 -14 12q0 3 2 11z" />
    <glyph glyph-name="uni03BC" unicode="&#x3bc;" horiz-adv-x="622" 
d="M60 477q0 18 17 18h149q18 0 18 -18v-228q0 -98 69 -98t69 98v228q0 18 17 18h150q18 0 18 -18v-238q0 -125 -66 -188.5t-186 -63.5q-38 0 -71 10v-202q0 -25 -26 -25h-133q-25 0 -25 25v682z" />
    <glyph glyph-name="nu" unicode="&#x3bd;" horiz-adv-x="589" 
d="M3 471q-4 12 -4 13q0 11 16 11h159q13 0 18.5 -4.5t12.5 -18.5l89 -178q53 72 78 178q4 14 9 18.5t18 4.5h144q23 0 19 -23q-22 -107 -89.5 -227.5t-160.5 -229.5q-29 -34 -45 -34q-19 0 -38 36z" />
    <glyph glyph-name="xi" unicode="&#x3be;" horiz-adv-x="527" 
d="M333 -160q-17 0 -17 12q0 2 2 8q11 22 11 51q0 22 -19 37t-65 28q-104 32 -154.5 86t-50.5 138q0 65 40.5 112.5t117.5 71.5q-45 13 -70 46.5t-25 77.5q0 57 38 93h-67q-24 0 -31 5t-7 29v85q0 22 9 28.5t31 6.5h373q20 0 29.5 -6.5t9.5 -28.5v-85q0 -24 -6.5 -29
t-31.5 -5h-80q-40 -2 -62 -23.5t-22 -53.5q0 -34 24.5 -58.5t69.5 -24.5h51q19 0 24.5 -5t5.5 -22v-98q0 -16 -6 -21.5t-24 -5.5h-75q-124 0 -124 -77q0 -34 25 -54t75 -36q96 -32 137.5 -72t41.5 -120q0 -46 -14 -72q-9 -18 -26 -18h-138z" />
    <glyph glyph-name="omicron" unicode="&#x3bf;" horiz-adv-x="625" 
d="M33 246q0 115 77.5 188.5t201.5 73.5t202 -73.5t78 -187.5q0 -115 -78 -187.5t-203 -72.5q-124 0 -201 72.5t-77 186.5zM311 151q39 0 66 27t27 69q0 43 -27.5 70.5t-65.5 27.5q-37 0 -63 -27.5t-26 -70.5t25.5 -69.5t63.5 -26.5z" />
    <glyph glyph-name="pi" unicode="&#x3c0;" horiz-adv-x="698" 
d="M110 340h-66q-29 0 -29 26v103q0 26 25 26h618q24 0 24 -26v-103q0 -26 -28 -26h-86v-118q0 -40 10.5 -57.5t33.5 -17.5q9 0 20.5 1.5t15.5 1.5q16 0 19 -22l9 -101q1 -14 -3 -20t-18 -11q-33 -11 -82 -11q-104 0 -146.5 53.5t-42.5 165.5v136h-91v-314q0 -26 -27 -26
h-130q-26 0 -26 26v314z" />
    <glyph glyph-name="rho" unicode="&#x3c1;" horiz-adv-x="641" 
d="M56 246q0 116 75.5 189t199.5 73q123 0 200 -73t77 -188t-76.5 -187.5t-201.5 -72.5q-48 0 -90 17v-209q0 -25 -26 -25h-133q-25 0 -25 25v451zM330 151q38 0 64 26.5t26 69.5t-26 70.5t-64 27.5t-64 -27.5t-26 -70.5t26 -69.5t64 -26.5z" />
    <glyph glyph-name="sigma1" unicode="&#x3c2;" horiz-adv-x="531" 
d="M338 -160q-23 0 -15 20q11 22 11 51q0 53 -72 75q-112 36 -170.5 96.5t-58.5 165.5q0 115 76.5 187.5t197.5 72.5q114 0 203 -67q11 -8 11 -20q0 -9 -5 -15l-58 -95q-7 -12 -19 -12q-9 0 -17 6q-62 40 -108 40q-44 0 -68 -27.5t-24 -67.5q0 -71 91 -101q53 -17 86 -32.5
t62 -40t42 -59.5t13 -84q0 -48 -16 -75q-9 -18 -26 -18h-136z" />
    <glyph glyph-name="sigma" unicode="&#x3c3;" horiz-adv-x="691" 
d="M650 495q25 0 25 -27v-102q0 -26 -27 -26h-64q-14 0 -14 -13q11 -40 11 -80q0 -120 -73.5 -190t-200.5 -70q-122 0 -198 72.5t-76 183.5q0 116 79.5 184t212.5 68h325zM325 340q-47 0 -75 -26t-28 -70q0 -42 24 -67.5t62 -25.5q39 0 64 27t25 75q0 37 -10 73
q-4 14 -20 14h-42z" />
    <glyph glyph-name="tau" unicode="&#x3c4;" horiz-adv-x="475" 
d="M123 324q0 16 -14 16h-70q-27 0 -27 26v102q0 27 26 27h396q26 0 26 -27v-102q0 -26 -27 -26h-110q-15 0 -15 -14v-104q0 -75 50 -75q9 0 23 1.5t18 1.5q16 0 19 -22l9 -101q1 -15 -3 -21t-18 -11q-35 -10 -82 -10q-108 0 -154.5 54.5t-46.5 166.5v118z" />
    <glyph glyph-name="upsilon" unicode="&#x3c5;" horiz-adv-x="611" 
d="M56 477q0 18 17 18h149q18 0 18 -18v-228q0 -98 69 -98q71 0 71 99q0 82 -21 227v4q0 14 17 14h144q15 0 19 -18q24 -116 24 -227q0 -131 -66.5 -197t-187.5 -66q-122 0 -187.5 63t-65.5 188v239z" />
    <glyph glyph-name="phi" unicode="&#x3c6;" horiz-adv-x="806" 
d="M299 -10q-264 35 -264 294q0 101 30 193q6 18 22 18h143q22 0 17 -18q-29 -119 -29 -190q0 -110 81 -139v120q0 69 20.5 118.5t56.5 74.5t75 36t85 11q115 0 176 -64.5t61 -162.5q0 -125 -74.5 -201.5t-217.5 -89.5v-195q0 -25 -26 -25h-131q-25 0 -25 25v195zM481 148
q106 21 106 131q0 35 -13 55.5t-38 20.5q-55 0 -55 -91v-116z" />
    <glyph glyph-name="chi" unicode="&#x3c7;" horiz-adv-x="613" 
d="M192 129l-174 342q-4 8 -4 12q0 12 15 12h156q25 0 35 -19l87 -168l87 168q10 19 35 19h155q15 0 15 -12q0 -4 -4 -12l-175 -341l178 -336q4 -8 4 -12q0 -12 -15 -12h-169q-25 0 -35 18l-77 154l-77 -154q-10 -18 -35 -18h-168q-15 0 -15 12q0 4 4 12z" />
    <glyph glyph-name="psi" unicode="&#x3c8;" horiz-adv-x="845" 
d="M333 -15q-147 13 -212 83.5t-65 192.5v216q0 18 17 18h147q18 0 18 -18v-211q0 -107 95 -123v326q0 26 26 26h129q27 0 27 -26v-326q99 20 99 135q0 76 -19 199v4q0 14 17 14h144q15 0 19 -18q22 -112 22 -200q0 -267 -282 -292v-189q0 -26 -27 -26h-129q-26 0 -26 26
v189z" />
    <glyph glyph-name="omega" unicode="&#x3c9;" horiz-adv-x="844" 
d="M333 314q0 24 25 24h127q24 0 24 -24v-86q0 -78 56 -78q30 0 45 31t15 77q0 92 -29 217q-1 2 -1 5q0 15 18 15h142q15 0 21 -18q32 -105 32 -221q0 -120 -56.5 -194t-169.5 -74q-108 0 -162 81q-56 -81 -159 -81q-113 0 -169.5 73.5t-56.5 194.5q0 73 14 156t37 83h143
q18 0 18 -15l-1 -2v-3q-28 -121 -28 -217q0 -44 16 -76t43 -32q56 0 56 78v86z" />
    <glyph glyph-name="iotadieresis" unicode="&#x3ca;" horiz-adv-x="378" 
d="M-35 639q0 35 22.5 57t58.5 22t59 -22t23 -57t-23 -57t-59 -22t-58.5 22t-22.5 57zM184 639q0 35 22.5 57t58.5 22t59 -22t23 -57t-23 -57t-59 -22t-58.5 22t-22.5 57zM56 471q0 24 23 24h137q24 0 24 -24v-249q0 -75 51 -75q9 0 22.5 1.5t17.5 1.5q10 0 13.5 -5t5.5 -17
l9 -101q1 -15 -3 -21t-18 -11q-33 -10 -82 -10q-108 0 -154 54.5t-46 166.5v265z" />
    <glyph glyph-name="upsilondieresis" unicode="&#x3cb;" horiz-adv-x="611" 
d="M112 639q0 35 22.5 57t58.5 22t59 -22t23 -57t-23 -57t-59 -22t-58.5 22t-22.5 57zM331 639q0 35 22.5 57t58.5 22t59 -22t23 -57t-23 -57t-59 -22t-58.5 22t-22.5 57zM56 477q0 18 17 18h149q18 0 18 -18v-228q0 -98 69 -98q71 0 71 99q0 82 -21 227v4q0 14 17 14h144
q15 0 19 -18q24 -116 24 -227q0 -131 -66.5 -197t-187.5 -66q-122 0 -187.5 63t-65.5 188v239z" />
    <glyph glyph-name="omicrontonos" unicode="&#x3cc;" horiz-adv-x="625" 
d="M292 756q8 29 39 29h87q24 0 24 -15q0 -3 -4 -15l-76 -170q-10 -24 -32 -25h-63q-22 0 -22 17q0 2 2 10zM33 246q0 115 77.5 188.5t201.5 73.5t202 -73.5t78 -187.5q0 -115 -78 -187.5t-203 -72.5q-124 0 -201 72.5t-77 186.5zM311 151q39 0 66 27t27 69q0 43 -27.5 70.5
t-65.5 27.5q-37 0 -63 -27.5t-26 -70.5t25.5 -69.5t63.5 -26.5z" />
    <glyph glyph-name="upsilontonos" unicode="&#x3cd;" horiz-adv-x="611" 
d="M263 756q8 29 39 29h87q24 0 24 -15q0 -3 -4 -15l-76 -170q-10 -24 -32 -25h-63q-22 0 -22 17q0 2 2 10zM56 477q0 18 17 18h149q18 0 18 -18v-228q0 -98 69 -98q71 0 71 99q0 82 -21 227v4q0 14 17 14h144q15 0 19 -18q24 -116 24 -227q0 -131 -66.5 -197t-187.5 -66
q-122 0 -187.5 63t-65.5 188v239z" />
    <glyph glyph-name="omegatonos" unicode="&#x3ce;" horiz-adv-x="844" 
d="M376 756q8 29 39 29h87q24 0 24 -15q0 -3 -4 -15l-76 -170q-10 -24 -32 -25h-63q-22 0 -22 17q0 2 2 10zM333 314q0 24 25 24h127q24 0 24 -24v-86q0 -78 56 -78q30 0 45 31t15 77q0 92 -29 217q-1 2 -1 5q0 15 18 15h142q15 0 21 -18q32 -105 32 -221q0 -120 -56.5 -194
t-169.5 -74q-108 0 -162 81q-56 -81 -159 -81q-113 0 -169.5 73.5t-56.5 194.5q0 73 14 156t37 83h143q18 0 18 -15l-1 -2v-3q-28 -121 -28 -217q0 -44 16 -76t43 -32q56 0 56 78v86z" />
    <glyph glyph-name="uni0400" unicode="&#x400;" horiz-adv-x="595" 
d="M180 971q15 11 28 11q12 0 29 -11l183 -137q12 -9 12 -18q0 -8 -12 -19l-47 -36q-13 -8 -21 -8q-10 0 -26 9l-205 120q-17 11 -17 22t14 21zM70 673q0 27 27 27h427q28 0 28 -27v-111q0 -27 -28 -27h-248q-10 0 -13 -3.5t-3 -12.5v-70q0 -9 3 -12t13 -3h215q27 0 27 -28
v-109q0 -27 -27 -27h-215q-10 0 -13 -3.5t-3 -12.5v-73q0 -9 3 -12.5t13 -3.5h249q28 0 28 -27v-111q0 -27 -28 -27h-428q-27 0 -27 27v646z" />
    <glyph glyph-name="uni0401" unicode="&#x401;" horiz-adv-x="595" 
d="M121 833q0 35 22.5 57t58.5 22t59 -22t23 -57t-23 -57t-59 -22t-58.5 22t-22.5 57zM340 833q0 35 22.5 57t58.5 22t59 -22t23 -57t-23 -57t-59 -22t-58.5 22t-22.5 57zM70 673q0 27 27 27h427q28 0 28 -27v-111q0 -27 -28 -27h-248q-10 0 -13 -3.5t-3 -12.5v-70
q0 -9 3 -12t13 -3h215q27 0 27 -28v-109q0 -27 -27 -27h-215q-10 0 -13 -3.5t-3 -12.5v-73q0 -9 3 -12.5t13 -3.5h249q28 0 28 -27v-111q0 -27 -28 -27h-428q-27 0 -27 27v646z" />
    <glyph glyph-name="uni0402" unicode="&#x402;" horiz-adv-x="837" 
d="M209 511q0 16 -16 16h-151q-27 0 -27 27v119q0 27 27 27h537q27 0 27 -27v-119q0 -27 -27 -27h-164q-16 0 -16 -17v-113q72 48 172 48q104 0 169 -62t65 -171q0 -107 -61.5 -167t-178.5 -60q-50 0 -86 10q-17 5 -15 27l10 95q3 25 18 25q4 0 19 -1.5t26 -1.5
q37 0 58 19.5t21 53.5t-24 55t-68 21q-68 0 -125 -46v-215q0 -27 -27 -27h-136q-27 0 -27 27v484z" />
    <glyph glyph-name="uni0403" unicode="&#x403;" horiz-adv-x="567" 
d="M204 797q-12 11 -12 19q0 9 12 18l183 137q17 11 29 11q13 0 28 -11l62 -46q14 -10 14 -21t-17 -22l-205 -120q-16 -9 -26 -9q-8 0 -21 8zM70 673q0 27 27 27h428q27 0 27 -27v-119q0 -27 -27 -27h-249q-10 0 -13 -3.5t-3 -12.5v-484q0 -27 -28 -27h-135q-27 0 -27 27
v646z" />
    <glyph glyph-name="uni0404" unicode="&#x404;" horiz-adv-x="713" 
d="M508 434q27 0 27 -28v-109q0 -27 -27 -27h-268q20 -53 67 -82t111 -29q88 0 163 57q12 9 20 9q10 0 19 -13l63 -90q6 -9 6 -17q0 -12 -16 -25q-115 -94 -262 -94q-163 0 -269.5 102.5t-106.5 257.5q0 160 108.5 264t275.5 104q146 0 259 -95q12 -11 12 -20q0 -8 -7 -18
l-64 -90q-9 -14 -20 -14q-7 0 -20 8q-77 56 -161 56q-62 0 -108.5 -28t-67.5 -79h266z" />
    <glyph glyph-name="uni0405" unicode="&#x405;" horiz-adv-x="608" 
d="M80 208q9 15 20 15q8 0 20 -9q81 -60 169 -60q89 0 89 50q0 24 -24.5 37t-94.5 30q-112 28 -166.5 77t-54.5 139q0 107 75 167t195 60q142 0 252 -89q12 -9 12 -21q0 -10 -7 -20l-60 -92q-9 -13 -19 -13t-19 8q-81 59 -157 59q-36 0 -56 -13.5t-20 -35.5q0 -25 23 -37
t87 -28q118 -29 174 -79t56 -137q0 -107 -77 -168.5t-206 -61.5q-149 0 -261 88q-16 12 -16 24q0 10 9 23z" />
    <glyph glyph-name="uni0406" unicode="&#x406;" horiz-adv-x="330" 
d="M70 673q0 27 27 27h135q28 0 28 -27v-646q0 -27 -28 -27h-135q-27 0 -27 27v646z" />
    <glyph glyph-name="uni0407" unicode="&#x407;" horiz-adv-x="335" 
d="M-23 833q0 35 22.5 57t58.5 22t59 -22t23 -57t-23 -57t-59 -22t-58.5 22t-22.5 57zM196 833q0 35 22.5 57t58.5 22t59 -22t23 -57t-23 -57t-59 -22t-58.5 22t-22.5 57zM72 673q0 27 27 27h135q28 0 28 -27v-646q0 -27 -28 -27h-135q-27 0 -27 27v646z" />
    <glyph glyph-name="uni0408" unicode="&#x408;" horiz-adv-x="345" 
d="M-45 -56q1 23 19 23q5 0 20 -1.5t24 -1.5q34 0 52.5 24t18.5 70v615q0 27 27 27h136q27 0 27 -27v-626q0 -252 -228 -252q-56 0 -87 8q-25 6 -22 31z" />
    <glyph glyph-name="uni0409" unicode="&#x409;" horiz-adv-x="1035" 
d="M292 667q13 29 23.5 40.5t23.5 11.5t23 -11.5t24 -40.5l101 -210q9 -20 23 -20h192q142 0 221.5 -52.5t79.5 -163.5q0 -221 -307 -221h-156q-20 0 -29.5 6.5t-18.5 25.5l-150 341l-145 -341q-8 -19 -17.5 -25.5t-29.5 -6.5h-132q-23 0 -23 15q0 5 5 17zM698 159
q54 0 81.5 13.5t27.5 47.5q0 35 -28 46.5t-84 11.5h-102q-15 0 -15 -9q0 -3 3 -8l40 -85q8 -17 22 -17h55z" />
    <glyph glyph-name="uni040A" unicode="&#x40a;" horiz-adv-x="1089" 
d="M70 673q0 27 27 27h135q28 0 28 -27v-221q0 -9 3 -12.5t13 -3.5h173q17 0 17 16v221q0 27 27 27h136q27 0 27 -27v-220q0 -16 16 -16h89q303 0 303 -215q0 -222 -306 -222h-265q-27 0 -27 27v235q0 16 -17 16h-173q-10 0 -13 -3.5t-3 -12.5v-235q0 -27 -28 -27h-135
q-27 0 -27 27v646zM757 159q111 0 111 62q0 33 -28 45t-83 12h-85q-16 0 -16 -16v-87q0 -16 16 -16h85z" />
    <glyph glyph-name="uni040B" unicode="&#x40b;" horiz-adv-x="856" 
d="M209 511q0 16 -16 16h-151q-27 0 -27 27v119q0 27 27 27h537q27 0 27 -27v-119q0 -27 -27 -27h-164q-16 0 -16 -16v-114q70 48 165 48q104 0 165 -61.5t61 -188.5v-169q0 -26 -27 -26h-136q-26 0 -26 26v156q0 101 -87 101q-60 0 -115 -43v-213q0 -27 -27 -27h-136
q-27 0 -27 27v484z" />
    <glyph glyph-name="uni040C" unicode="&#x40c;" horiz-adv-x="724" 
d="M287 797q-12 11 -12 19q0 9 12 18l183 137q17 11 29 11q13 0 28 -11l62 -46q14 -10 14 -21t-17 -22l-205 -120q-17 -9 -26 -9q-8 0 -21 8zM70 673q0 27 27 27h135q28 0 28 -27v-646q0 -27 -28 -27h-135q-27 0 -27 27v646zM285 329q-9 13 -9 23q0 12 10 26l200 294
q11 17 20.5 22.5t29.5 5.5h156q22 0 22 -14q0 -7 -6 -16l-224 -311l233 -329q7 -10 7 -17q0 -13 -23 -13h-160q-21 0 -30.5 5t-20.5 22z" />
    <glyph glyph-name="uni040D" unicode="&#x40d;" horiz-adv-x="766" 
d="M244 971q15 11 28 11q12 0 29 -11l183 -137q12 -9 12 -18q0 -8 -12 -19l-47 -36q-13 -8 -21 -8q-10 0 -26 9l-205 120q-17 11 -17 22t14 21zM70 673q0 27 27 27h136q27 0 27 -27v-312l356 319q37 34 55 34q25 0 25 -41v-646q0 -27 -27 -27h-135q-28 0 -28 27v312
l-356 -319q-37 -34 -55 -34q-25 0 -25 41v646z" />
    <glyph glyph-name="uni040E" unicode="&#x40e;" horiz-adv-x="711" 
d="M248 951q22 0 27 -21q14 -59 76 -59t76 59q5 21 27 21h73q13 0 18 -5.5t5 -18.5q0 -75 -49 -124.5t-151 -49.5q-101 0 -149.5 49.5t-48.5 124.5q0 13 5 18.5t18 5.5h73zM37 125q3 23 19 23q4 0 21 -2t29 -2q59 0 91 20.5t59 66.5l-255 439q-6 9 -6 16q0 14 22 14h150
q20 0 29.5 -5.5t19.5 -23.5l142 -256l132 256q10 18 19.5 23.5t29.5 5.5h145q21 0 21 -14q0 -8 -5 -16l-239 -438q-36 -67 -65 -108t-68 -78t-88 -54t-112 -17q-51 0 -82 8q-24 6 -21 31z" />
    <glyph glyph-name="uni040F" unicode="&#x40f;" horiz-adv-x="773" 
d="M70 673q0 27 27 27h135q28 0 28 -27v-486q0 -9 3 -12.5t13 -3.5h207q16 0 16 16v486q0 27 27 27h136q27 0 27 -27v-646q0 -27 -27 -27h-179q-11 0 -15 -4t-4 -15v-115q0 -26 -27 -26h-116q-26 0 -26 26v115q0 19 -18 19h-180q-27 0 -27 27v646z" />
    <glyph glyph-name="uni0410" unicode="&#x410;" 
d="M318 664q15 29 27 40.5t28 11.5q27 0 54 -52l317 -631q6 -11 6 -18q0 -15 -23 -15h-142q-20 0 -28 5t-15 21l-35 73q-6 13 -19 13h-237q-13 0 -19 -13l-34 -73q-7 -16 -15.5 -21t-26.5 -5h-137q-23 0 -23 15q0 9 5 18zM423 262q11 0 11 7q0 5 -2 8l-63 132l-62 -132
q-3 -5 -3 -8q0 -7 11 -7h108z" />
    <glyph glyph-name="uni0411" unicode="&#x411;" horiz-adv-x="686" 
d="M70 673q0 27 27 27h465q27 0 27 -27v-119q0 -27 -27 -27h-286q-16 0 -16 -12v-67q0 -8 3 -11.5t13 -3.5h79q302 0 302 -212q0 -115 -75.5 -168t-225.5 -53h-259q-27 0 -27 27v646zM351 161q57 0 84 12t27 47q0 34 -28 45t-83 11h-75q-10 0 -13 -3.5t-3 -12.5v-83
q0 -9 3 -12.5t13 -3.5h75z" />
    <glyph glyph-name="uni0412" unicode="&#x412;" horiz-adv-x="691" 
d="M70 673q0 27 27 27h264q137 0 208 -46t71 -150q0 -99 -88 -141q52 -16 81 -55t29 -95q0 -213 -300 -213h-265q-27 0 -27 27v646zM349 430q51 0 74 13t23 43t-22.5 42.5t-74.5 12.5h-73q-10 0 -13 -3.5t-3 -12.5v-79q0 -9 3 -12.5t13 -3.5h73zM362 159q56 0 80 14t24 45
t-24.5 44.5t-79.5 13.5h-86q-10 0 -13 -3t-3 -13v-85q0 -9 3 -12.5t13 -3.5h86z" />
    <glyph glyph-name="uni0413" unicode="&#x413;" horiz-adv-x="567" 
d="M70 673q0 27 27 27h428q27 0 27 -27v-119q0 -27 -27 -27h-249q-10 0 -13 -3.5t-3 -12.5v-484q0 -27 -28 -27h-135q-27 0 -27 27v646z" />
    <glyph glyph-name="uni0414" unicode="&#x414;" horiz-adv-x="773" 
d="M13 129q0 26 27 26h20q13 0 20 6.5t14 20.5l240 482q14 29 25.5 40.5t26.5 11.5q27 0 52 -52l242 -483q8 -16 13.5 -21t17.5 -5h22q27 0 27 -26v-263q0 -26 -27 -26h-110q-26 0 -26 26v119q0 9 -2.5 12t-11.5 3h-396q-11 0 -11 -15v-119q0 -26 -26 -26h-110q-27 0 -27 26
v263zM498 155l-114 247l-114 -247h228z" />
    <glyph glyph-name="uni0415" unicode="&#x415;" horiz-adv-x="595" 
d="M70 673q0 27 27 27h427q28 0 28 -27v-111q0 -27 -28 -27h-248q-10 0 -13 -3.5t-3 -12.5v-70q0 -9 3 -12t13 -3h215q27 0 27 -28v-109q0 -27 -27 -27h-215q-10 0 -13 -3.5t-3 -12.5v-73q0 -9 3 -12.5t13 -3.5h249q28 0 28 -27v-111q0 -27 -28 -27h-428q-27 0 -27 27v646z
" />
    <glyph glyph-name="uni0416" unicode="&#x416;" horiz-adv-x="1079" 
d="M228 359l-209 311q-6 9 -6 17q0 13 21 13h151q20 0 29.5 -5.5t20.5 -22.5l188 -294q10 -14 10 -25t-9 -24l-193 -302q-11 -17 -20.5 -22t-30.5 -5h-155q-22 0 -22 14q0 7 6 16zM448 673q0 27 27 27h129q28 0 28 -27v-646q0 -27 -28 -27h-129q-27 0 -27 27v646zM656 329
q-8 14 -8 24t9 25l188 294q11 17 20.5 22.5t29.5 5.5h151q22 0 22 -14q0 -7 -6 -16l-209 -311l217 -329q7 -10 7 -17q0 -13 -23 -13h-154q-20 0 -30 5t-21 22z" />
    <glyph glyph-name="uni0417" unicode="&#x417;" horiz-adv-x="637" 
d="M88 194q8 14 19 14q6 0 20 -7q84 -47 169 -47q116 0 116 63q0 58 -103 58h-91q-26 0 -26 26v102q0 27 26 27h83q90 0 90 57q0 58 -90 58q-76 0 -151 -36q-18 -7 -25 -7q-13 0 -21 14l-44 94q-7 12 -7 21q0 12 16 22q96 60 238 60q144 0 211 -58t67 -147q0 -101 -91 -143
q51 -14 82.5 -55.5t31.5 -101.5q0 -106 -78.5 -164t-231.5 -58q-161 0 -256 71q-16 12 -16 24q0 7 7 19z" />
    <glyph glyph-name="uni0418" unicode="&#x418;" horiz-adv-x="766" 
d="M70 673q0 27 27 27h136q27 0 27 -27v-312l356 319q37 34 55 34q25 0 25 -41v-646q0 -27 -27 -27h-135q-28 0 -28 27v312l-356 -319q-37 -34 -55 -34q-25 0 -25 41v646z" />
    <glyph glyph-name="uni0419" unicode="&#x419;" horiz-adv-x="771" 
d="M284 951q22 0 27 -21q14 -59 76 -59t76 59q5 21 27 21h73q13 0 18 -5.5t5 -18.5q0 -75 -49 -124.5t-151 -49.5q-101 0 -149.5 49.5t-48.5 124.5q0 13 5 18.5t18 5.5h73zM72 673q0 27 27 27h136q27 0 27 -27v-312l356 319q37 34 55 34q25 0 25 -41v-646q0 -27 -27 -27
h-135q-28 0 -28 27v312l-356 -319q-37 -34 -55 -34q-25 0 -25 41v646z" />
    <glyph glyph-name="uni041A" unicode="&#x41a;" horiz-adv-x="724" 
d="M70 673q0 27 27 27h135q28 0 28 -27v-646q0 -27 -28 -27h-135q-27 0 -27 27v646zM285 329q-9 13 -9 23q0 12 10 26l200 294q11 17 20.5 22.5t29.5 5.5h156q22 0 22 -14q0 -7 -6 -16l-224 -311l233 -329q7 -10 7 -17q0 -13 -23 -13h-160q-21 0 -30.5 5t-20.5 22z" />
    <glyph glyph-name="uni041B" unicode="&#x41b;" 
d="M324 667q16 30 26 41t22 11q13 0 23 -11.5t25 -40.5l324 -635q6 -11 6 -17q0 -15 -24 -15h-140q-19 0 -29 6.5t-19 25.5l-167 343l-166 -343q-10 -19 -20 -25.5t-29 -6.5h-137q-23 0 -23 15q0 8 5 17z" />
    <glyph glyph-name="uni041C" unicode="&#x41c;" horiz-adv-x="857" 
d="M70 672q0 39 25 39q15 0 44 -30l290 -307l289 307q30 30 44 30q26 0 26 -39v-645q0 -27 -28 -27h-135q-28 0 -28 27v277l-131 -145q-25 -26 -38 -26q-14 0 -37 26l-131 145v-277q0 -27 -28 -27h-135q-27 0 -27 27v645z" />
    <glyph glyph-name="uni041D" unicode="&#x41d;" horiz-adv-x="761" 
d="M70 673q0 27 27 27h135q28 0 28 -27v-214q0 -9 3 -12.5t13 -3.5h208q16 0 16 16v214q0 27 28 27h135q28 0 28 -27v-646q0 -27 -28 -27h-135q-28 0 -28 27v227q0 16 -16 16h-208q-10 0 -13 -3.5t-3 -12.5v-227q0 -27 -28 -27h-135q-27 0 -27 27v646z" />
    <glyph glyph-name="uni041E" unicode="&#x41e;" horiz-adv-x="825" 
d="M35 348q0 160 106 263t271 103t271.5 -102t106.5 -262t-106.5 -262t-273.5 -102q-163 0 -269 101.5t-106 260.5zM411 160q79 0 131 52.5t52 136.5q0 86 -51.5 138t-130.5 52t-130 -52t-51 -138q0 -85 51 -137t129 -52z" />
    <glyph glyph-name="uni041F" unicode="&#x41f;" horiz-adv-x="751" 
d="M70 673q0 27 27 27h557q27 0 27 -27v-646q0 -27 -27 -27h-136q-28 0 -28 27v486q0 16 -15 16h-199q-10 0 -13 -3.5t-3 -12.5v-486q0 -27 -28 -27h-135q-27 0 -27 27v646z" />
    <glyph glyph-name="uni0420" unicode="&#x420;" horiz-adv-x="684" 
d="M70 673q0 27 27 27h244q314 0 314 -254q0 -128 -81.5 -194t-237.5 -66h-60q-10 0 -13 -3t-3 -12v-144q0 -27 -28 -27h-135q-27 0 -27 27v646zM328 351q132 0 132 94q0 49 -32.5 69.5t-99.5 20.5h-52q-10 0 -13 -3.5t-3 -12.5v-152q0 -9 3 -12.5t13 -3.5h52z" />
    <glyph glyph-name="uni0421" unicode="&#x421;" horiz-adv-x="713" 
d="M683 122q6 -9 6 -17q0 -12 -16 -25q-115 -94 -262 -94q-163 0 -269.5 102.5t-106.5 257.5q0 160 108.5 264t275.5 104q146 0 259 -95q12 -11 12 -20q0 -8 -7 -18l-65 -92q-9 -13 -20 -13q-7 0 -20 8q-78 55 -160 55t-134.5 -52.5t-52.5 -137.5q0 -83 52.5 -136t134.5 -53
q87 0 162 57q12 9 21 9t18 -12z" />
    <glyph glyph-name="uni0422" unicode="&#x422;" horiz-adv-x="608" 
d="M209 511q0 16 -16 16h-151q-27 0 -27 27v119q0 27 27 27h524q27 0 27 -27v-119q0 -27 -27 -27h-151q-16 0 -16 -16v-484q0 -27 -27 -27h-136q-27 0 -27 27v484z" />
    <glyph glyph-name="uni0423" unicode="&#x423;" horiz-adv-x="711" 
d="M37 125q3 23 19 23q4 0 21 -2t29 -2q59 0 91 20.5t59 66.5l-255 439q-6 9 -6 16q0 14 22 14h150q20 0 29.5 -5.5t19.5 -23.5l142 -256l132 256q10 18 19.5 23.5t29.5 5.5h145q21 0 21 -14q0 -8 -5 -16l-239 -438q-36 -67 -65 -108t-68 -78t-88 -54t-112 -17q-51 0 -82 8
q-24 6 -21 31z" />
    <glyph glyph-name="uni0424" unicode="&#x424;" horiz-adv-x="889" 
d="M353 53q-145 19 -231.5 98.5t-86.5 196.5q0 118 86.5 198.5t231.5 99.5v55q0 26 26 26h129q27 0 27 -26v-55q145 -19 232 -99t87 -197t-86.5 -197t-232.5 -100v-54q0 -26 -27 -26h-129q-26 0 -26 26v54zM353 486q-59 -14 -92.5 -50.5t-33.5 -86.5q0 -51 33 -86.5
t93 -49.5v273zM535 214q59 14 93 50t34 85q0 50 -34 86t-93 51v-272z" />
    <glyph glyph-name="uni0425" unicode="&#x425;" horiz-adv-x="705" 
d="M229 351l-213 319q-6 9 -6 16q0 14 23 14h163q19 0 28.5 -5.5t21.5 -24.5l109 -177l115 181q10 16 19.5 21t27.5 5h157q23 0 23 -13q0 -7 -7 -17l-213 -317l217 -323q6 -9 6 -16q0 -14 -22 -14h-163q-20 0 -29 5.5t-21 24.5l-115 182l-118 -186q-10 -16 -19 -21t-27 -5
h-158q-23 0 -23 14q0 8 7 16z" />
    <glyph glyph-name="uni0426" unicode="&#x426;" horiz-adv-x="777" 
d="M70 673q0 27 27 27h135q28 0 28 -27v-486q0 -9 3 -12.5t13 -3.5h199q15 0 15 16v486q0 27 28 27h136q27 0 27 -27v-503q0 -15 12 -15h47q27 0 27 -26v-263q0 -26 -27 -26h-110q-26 0 -26 26v119q0 15 -15 15h-492q-27 0 -27 27v646z" />
    <glyph glyph-name="uni0427" unicode="&#x427;" horiz-adv-x="741" 
d="M481 259q-63 -74 -175 -74q-109 0 -175 72t-66 227v189q0 27 27 27h135q28 0 28 -27v-185q0 -131 108 -131q51 0 80.5 24t37.5 63v229q0 27 27 27h136q28 0 28 -27v-646q0 -27 -28 -27h-136q-27 0 -27 27v232z" />
    <glyph glyph-name="uni0428" unicode="&#x428;" horiz-adv-x="1051" 
d="M70 673q0 27 27 27h135q28 0 28 -27v-486q0 -9 3 -12.5t13 -3.5h138q16 0 16 16v486q0 27 27 27h136q27 0 27 -27v-486q0 -16 16 -16h139q16 0 16 16v486q0 27 28 27h135q27 0 27 -27v-646q0 -27 -27 -27h-857q-27 0 -27 27v646z" />
    <glyph glyph-name="uni0429" unicode="&#x429;" horiz-adv-x="1078" 
d="M70 673q0 27 27 27h135q28 0 28 -27v-486q0 -9 3 -12.5t13 -3.5h138q16 0 16 16v486q0 27 27 27h136q27 0 27 -27v-486q0 -16 16 -16h139q16 0 16 16v486q0 27 28 27h135q27 0 27 -27v-503q0 -15 12 -15h48q27 0 27 -26v-263q0 -26 -27 -26h-110q-26 0 -26 26v119
q0 15 -15 15h-793q-27 0 -27 27v646z" />
    <glyph glyph-name="uni042A" unicode="&#x42a;" horiz-adv-x="814" 
d="M209 511q0 16 -16 16h-151q-27 0 -27 27v119q0 27 27 27h330q27 0 27 -27v-199q0 -16 16 -16h74q142 0 219 -56t77 -171q0 -114 -77 -172.5t-222 -58.5h-250q-27 0 -27 27v484zM483 165q106 0 106 65q0 33 -25.5 48t-80.5 15h-68q-16 0 -16 -16v-96q0 -16 16 -16h68z" />
    <glyph glyph-name="uni042B" unicode="&#x42b;" horiz-adv-x="988" 
d="M70 673q0 27 27 27h135q28 0 28 -28v-198q0 -9 3 -12.5t13 -3.5h73q143 0 220 -56t77 -171q0 -114 -77.5 -172.5t-222.5 -58.5h-249q-27 0 -27 27v646zM727 673q0 27 28 27h135q28 0 28 -27v-646q0 -27 -28 -27h-135q-28 0 -28 27v646zM344 165q106 0 106 65
q0 33 -25.5 48t-80.5 15h-68q-10 0 -13 -3.5t-3 -12.5v-96q0 -9 3 -12.5t13 -3.5h68z" />
    <glyph glyph-name="uni042C" unicode="&#x42c;" horiz-adv-x="685" 
d="M70 673q0 27 27 27h135q28 0 28 -28v-198q0 -9 3 -12.5t13 -3.5h83q143 0 220 -56t77 -171q0 -114 -77.5 -172.5t-222.5 -58.5h-259q-27 0 -27 27v646zM354 165q106 0 106 65q0 33 -25.5 48t-80.5 15h-78q-10 0 -13 -3.5t-3 -12.5v-96q0 -9 3 -12.5t13 -3.5h78z" />
    <glyph glyph-name="uni042D" unicode="&#x42d;" horiz-adv-x="713" 
d="M98 211q9 12 18 12t21 -9q80 -55 161 -55q63 0 110.5 29.5t67.5 81.5h-268q-27 0 -27 27v109q0 28 27 28h266q-21 51 -67.5 79t-108.5 28q-84 0 -163 -56q-11 -8 -20 -8q-10 0 -20 13l-62 89q-7 10 -7 18q0 9 12 20q115 97 267 97q162 0 269 -103t107 -262
q0 -157 -108.5 -260t-269.5 -103q-147 0 -260 92q-16 13 -16 25q0 7 6 17z" />
    <glyph glyph-name="uni042E" unicode="&#x42e;" horiz-adv-x="1146" 
d="M70 673q0 27 27 27h135q28 0 28 -27v-214q0 -9 3 -12.5t13 -3.5h94q29 122 128 196.5t236 74.5q165 0 271 -102t106 -262t-106.5 -262t-271.5 -102q-142 0 -241.5 77.5t-125.5 206.5h-90q-10 0 -13 -3.5t-3 -12.5v-227q0 -27 -28 -27h-135q-27 0 -27 27v646zM733 160
q78 0 130 52.5t52 136.5q0 85 -51.5 137.5t-129.5 52.5t-128.5 -52t-50.5 -138q0 -85 50 -137t128 -52z" />
    <glyph glyph-name="uni042F" unicode="&#x42f;" horiz-adv-x="700" 
d="M163 265q-118 56 -118 196q0 115 78 177t226 62h252q27 0 27 -27v-646q0 -27 -27 -27h-135q-28 0 -28 27v179q0 10 -3 13t-13 3h-57q-17 0 -26 -14l-108 -177q-20 -31 -55 -31h-149q-23 0 -23 15q0 8 6 17zM422 379q10 0 13 3.5t3 12.5v124q0 9 -3 12.5t-13 3.5h-62
q-60 0 -90 -17.5t-30 -58.5q0 -80 120 -80h62z" />
    <glyph glyph-name="uni0430" unicode="&#x430;" horiz-adv-x="567" 
d="M329 22q-41 -32 -111 -32q-86 0 -136.5 43t-50.5 117q0 73 50.5 115.5t136.5 42.5q67 0 111 -28q-6 75 -98 75q-13 0 -35.5 -1.5t-28.5 -1.5q-12 0 -16.5 5t-6.5 19l-11 93q-1 15 4 21.5t20 9.5q40 8 101 8q254 0 254 -252v-238q0 -18 -17 -18h-148q-18 0 -18 18v4z
M217 150q0 -26 16 -42t41 -16t41.5 15.5t16.5 40.5q0 27 -17 42.5t-41 15.5q-25 0 -41 -15t-16 -41z" />
    <glyph glyph-name="uni0431" unicode="&#x431;" horiz-adv-x="625" 
d="M489 756q3 2 9 2q17 0 17 -26v-97q0 -5 -0.5 -8.5t-0.5 -6.5t-1.5 -6t-2 -4.5t-2.5 -3.5l-3 -3t-3.5 -2.5t-3.5 -2t-4.5 -2t-4.5 -2.5l-136 -67q-103 -51 -117 -67q61 19 98 19q112 0 185 -65t73 -175q0 -113 -78 -182.5t-203 -69.5q-127 0 -202.5 75t-75.5 207
q0 259 249 383zM222 239q0 -40 25.5 -64t63.5 -24q39 0 66 24t27 64q0 39 -27 63.5t-66 24.5q-38 0 -63.5 -24t-25.5 -64z" />
    <glyph glyph-name="uni0432" unicode="&#x432;" horiz-adv-x="589" 
d="M60 477q0 18 21 18h239q109 0 165.5 -32.5t56.5 -105.5q0 -36 -21.5 -62t-55.5 -37q43 -9 69 -38.5t26 -70.5q0 -149 -240 -149h-239q-21 0 -21 18v459zM286 304q39 0 54.5 9.5t15.5 31.5q0 21 -15.5 30.5t-54.5 9.5h-34q-12 0 -12 -12v-58q0 -11 12 -11h34zM296 111
q43 0 60 10t17 32t-17.5 31.5t-59.5 9.5h-44q-7 0 -9.5 -2t-2.5 -9v-61q0 -11 12 -11h44z" />
    <glyph glyph-name="uni0433" unicode="&#x433;" horiz-adv-x="454" 
d="M60 468q0 27 25 27h327q26 0 26 -27v-102q0 -26 -27 -26h-153q-15 0 -15 -16v-298q0 -26 -27 -26h-130q-26 0 -26 26v442z" />
    <glyph glyph-name="uni0434" unicode="&#x434;" horiz-adv-x="579" 
d="M10 129q0 26 27 26h16q15 0 25 19l171 303q20 37 39 37q12 0 20.5 -8.5t19.5 -28.5l169 -303q10 -19 29 -19h16q27 0 27 -26v-263q0 -26 -27 -26h-109q-26 0 -26 26v119q0 15 -15 15h-204q-15 0 -15 -15v-119q0 -26 -26 -26h-110q-27 0 -27 26v263zM353 138l-66 123
l-66 -123h132z" />
    <glyph glyph-name="uni0435" unicode="&#x435;" horiz-adv-x="588" 
d="M524 82q5 -10 5 -16q0 -13 -16 -22q-84 -57 -213 -57q-122 0 -194.5 72.5t-72.5 186.5q0 115 73.5 188.5t190.5 73.5q118 0 188 -71.5t70 -186.5v-29q0 -19 -18 -19h-317q6 -35 33 -54.5t67 -19.5q71 0 127 33q14 8 23 8q11 0 16 -12zM369 312q-2 33 -21 53t-51 20
q-29 0 -48.5 -19t-26.5 -54h147z" />
    <glyph glyph-name="uni0436" unicode="&#x436;" horiz-adv-x="896" 
d="M146 257l-124 214q-4 5 -4 12q0 12 14 12h160q24 0 35 -19l112 -207q6 -11 6 -18t-6 -18l-122 -215q-6 -11 -12.5 -14.5t-21.5 -3.5h-166q-16 0 -16 12q0 3 4 11zM357 469q0 26 27 26h129q27 0 27 -26v-443q0 -26 -27 -26h-129q-27 0 -27 26v443zM557 233q-6 11 -6 18
t6 18l112 207q11 19 35 19h160q14 0 14 -12q0 -7 -4 -12l-123 -214l140 -234q4 -8 4 -11q0 -12 -15 -12h-167q-14 0 -20.5 3.5t-13.5 14.5z" />
    <glyph glyph-name="uni0437" unicode="&#x437;" horiz-adv-x="498" 
d="M63 144q5 11 17 11q8 0 15 -4q48 -27 113 -27q75 0 75 39q0 37 -69 37h-57q-18 0 -18 19v73q0 18 18 18h42q71 0 71 34q0 35 -65 35q-54 0 -104 -24q-7 -4 -14 -4t-13 11l-38 77q-4 10 -4 14q0 9 10 15q67 40 184 40q118 0 172.5 -39t54.5 -105q0 -35 -20.5 -62
t-52.5 -38q40 -14 63.5 -45.5t23.5 -72.5q0 -72 -58 -115.5t-181 -43.5q-125 0 -197 48q-12 7 -12 18q0 7 4 15z" />
    <glyph glyph-name="uni0438" unicode="&#x438;" horiz-adv-x="599" 
d="M60 469q0 26 25 26h133q26 0 26 -26v-170l163 131q4 3 12.5 10.5t14 12t14 12t14.5 12t13.5 10.5t13.5 10t12 7.5t10.5 5t8.5 1.5q13 0 16.5 -11.5t3.5 -45.5v-428q0 -26 -27 -26h-131q-27 0 -27 26v170l-163 -133q-7 -5 -23.5 -19t-26.5 -22t-23.5 -18t-23 -15t-15.5 -5
q-14 0 -17 10.5t-3 45.5v429z" />
    <glyph glyph-name="uni0439" unicode="&#x439;" horiz-adv-x="599" 
d="M196 758q23 0 27 -20q15 -63 76 -63q63 0 76 63q4 20 27 20h73q13 0 18 -5.5t5 -18.5q0 -74 -50 -124t-150 -50q-101 0 -149.5 49.5t-48.5 124.5q0 13 5 18.5t18 5.5h73zM60 469q0 26 25 26h133q26 0 26 -26v-170l163 131q4 3 12.5 10.5t14 12t14 12t14.5 12t13.5 10.5
t13.5 10t12 7.5t10.5 5t8.5 1.5q13 0 16.5 -11.5t3.5 -45.5v-428q0 -26 -27 -26h-131q-27 0 -27 26v170l-163 -133q-7 -5 -23.5 -19t-26.5 -22t-23.5 -18t-23 -15t-15.5 -5q-14 0 -17 10.5t-3 45.5v429z" />
    <glyph glyph-name="uni043A" unicode="&#x43a;" horiz-adv-x="612" 
d="M60 469q0 26 26 26h131q27 0 27 -26v-443q0 -26 -27 -26h-131q-26 0 -26 26v443zM262 233q-6 11 -6 18t6 18l122 207q11 19 35 19h163q14 0 14 -12q0 -7 -4 -12l-134 -213l152 -235q4 -8 4 -11q0 -12 -15 -12h-168q-24 0 -35 18z" />
    <glyph glyph-name="uni043B" unicode="&#x43b;" horiz-adv-x="583" 
d="M253 478q21 36 39 36t38 -36l249 -454q4 -7 4 -13q0 -11 -16 -11h-159q-13 0 -18.5 4.5t-12.5 18.5l-89 175l-86 -175q-8 -13 -13.5 -18t-17.5 -5h-154q-18 0 -18 13q0 6 4 11z" />
    <glyph glyph-name="uni043C" unicode="&#x43c;" horiz-adv-x="657" 
d="M60 457q0 33 4 43.5t20 10.5q20 0 72 -52l172 -173l173 173q51 52 71 52q17 0 21 -10.5t4 -43.5v-432q0 -25 -26 -25h-127q-26 0 -26 25v146l-53 -54q-25 -25 -37 -25q-11 0 -37 25l-52 54v-146q0 -25 -27 -25h-127q-25 0 -25 25v432z" />
    <glyph glyph-name="uni043D" unicode="&#x43d;" horiz-adv-x="619" 
d="M60 469q0 26 26 26h131q27 0 27 -26v-129q0 -13 12 -13h107q12 0 12 13v129q0 26 27 26h132q26 0 26 -26v-443q0 -26 -26 -26h-132q-27 0 -27 26v132q0 14 -12 14h-107q-12 0 -12 -14v-132q0 -26 -27 -26h-131q-26 0 -26 26v443z" />
    <glyph glyph-name="uni043E" unicode="&#x43e;" horiz-adv-x="625" 
d="M33 246q0 115 77.5 188.5t201.5 73.5t202 -73.5t78 -187.5q0 -115 -78 -187.5t-203 -72.5q-124 0 -201 72.5t-77 186.5zM311 151q39 0 66 27t27 69q0 43 -27.5 70.5t-65.5 27.5q-37 0 -63 -27.5t-26 -70.5t25.5 -69.5t63.5 -26.5z" />
    <glyph glyph-name="uni043F" unicode="&#x43f;" horiz-adv-x="619" 
d="M60 469q0 26 26 26h448q26 0 26 -26v-443q0 -26 -26 -26h-132q-27 0 -27 26v303q0 11 -12 11h-107q-12 0 -12 -11v-303q0 -26 -27 -26h-131q-26 0 -26 26v443z" />
    <glyph glyph-name="uni0440" unicode="&#x440;" horiz-adv-x="606" 
d="M60 470q0 25 25 25h190q143 0 220.5 -61.5t77.5 -183.5t-81 -186t-223 -64h-11q-14 0 -14 -14v-191q0 -25 -26 -25h-133q-25 0 -25 25v675zM269 155q55 0 85 25t30 69q0 91 -115 91h-11q-14 0 -14 -15v-156q0 -14 14 -14h11z" />
    <glyph glyph-name="uni0441" unicode="&#x441;" horiz-adv-x="541" 
d="M512 86q5 -8 5 -16q0 -12 -10 -19q-45 -32 -90 -48t-109 -16q-121 0 -198 71.5t-77 187.5q0 117 76.5 189.5t196.5 72.5q113 0 201 -65q11 -8 11 -20q0 -9 -5 -15l-58 -95q-7 -12 -18 -12q-9 0 -18 6q-59 38 -107 38q-43 0 -66.5 -28t-23.5 -70t23.5 -69t67.5 -27
q57 0 106 37q9 6 17 6q11 0 19 -12z" />
    <glyph glyph-name="uni0442" unicode="&#x442;" horiz-adv-x="480" 
d="M148 324q0 16 -14 16h-91q-27 0 -27 26v102q0 27 26 27h396q26 0 26 -27v-102q0 -26 -27 -26h-91q-15 0 -15 -16v-298q0 -26 -27 -26h-130q-26 0 -26 26v298z" />
    <glyph glyph-name="uni0443" unicode="&#x443;" horiz-adv-x="587" 
d="M197 37l-193 435q-2 8 -2 11q0 12 14 12h154q26 0 33 -20l94 -221l93 221q7 20 33 20h149q16 0 16 -14q0 -5 -3 -13l-302 -675q-11 -23 -25 -23h-162q-15 0 -15 12q0 5 3 11z" />
    <glyph glyph-name="uni0444" unicode="&#x444;" horiz-adv-x="802" 
d="M311 -16q0 9 -3 12t-13 4q-112 6 -187 70t-75 175q0 110 74 175t192 75q12 1 12 14v221q0 25 26 25h129q25 0 25 -25v-221q0 -13 15 -14q113 -6 188 -70.5t75 -174.5t-77.5 -177t-188.5 -73q-12 0 -12 -15v-190q0 -25 -26 -25h-129q-25 0 -25 25v189zM311 332q0 11 -9 11
q-36 0 -60 -25.5t-24 -71.5q0 -47 23.5 -71t58.5 -24q11 0 11 11v170zM491 161q0 -10 8 -10q36 0 60.5 26.5t24.5 71.5t-23.5 69.5t-60.5 24.5q-9 0 -9 -12v-170z" />
    <glyph glyph-name="uni0445" unicode="&#x445;" horiz-adv-x="573" 
d="M164 250l-147 221q-4 5 -4 12q0 12 14 12h162q23 0 35 -19l63 -99l63 99q12 19 35 19h162q14 0 14 -12q0 -7 -4 -12l-148 -214l161 -234q4 -8 4 -11q0 -12 -15 -12h-175q-23 0 -35 18l-63 97l-63 -97q-12 -18 -35 -18h-174q-15 0 -15 12q0 3 4 11z" />
    <glyph glyph-name="uni0446" unicode="&#x446;" horiz-adv-x="657" 
d="M60 469q0 26 26 26h131q27 0 27 -26v-303q0 -11 12 -11h108q12 0 12 11v303q0 26 27 26h131q26 0 26 -26v-302q0 -12 12 -12h48q27 0 27 -26v-263q0 -26 -27 -26h-110q-26 0 -26 26v119q0 15 -14 15h-384q-26 0 -26 26v443z" />
    <glyph glyph-name="uni0447" unicode="&#x447;" horiz-adv-x="608" 
d="M42 477q0 18 17 18h150q18 0 18 -18v-108q0 -46 16 -66.5t53 -20.5q71 0 71 91v102q0 20 20 20h145q20 0 20 -20v-450q0 -25 -25 -25h-134q-26 0 -26 25v162q-50 -62 -148 -62q-84 0 -130.5 55t-46.5 154v143z" />
    <glyph glyph-name="uni0448" unicode="&#x448;" horiz-adv-x="895" 
d="M60 469q0 26 26 26h129q27 0 27 -26v-303q0 -11 12 -11h91q12 0 12 11v303q0 26 26 26h129q27 0 27 -26v-306q1 -8 12 -8h91q12 0 12 11v303q0 26 27 26h129q26 0 26 -26v-443q0 -26 -26 -26h-724q-26 0 -26 26v443z" />
    <glyph glyph-name="uni0449" unicode="&#x449;" horiz-adv-x="932" 
d="M60 469q0 26 26 26h129q27 0 27 -26v-303q0 -11 12 -11h91q12 0 12 11v303q0 26 26 26h129q27 0 27 -26v-305q0 -9 12 -9h91q12 0 12 11v303q0 26 27 26h129q26 0 26 -26v-302q0 -12 11 -12h48q27 0 27 -26v-263q0 -26 -27 -26h-110q-26 0 -26 26v119q0 15 -15 15h-658
q-26 0 -26 26v443z" />
    <glyph glyph-name="uni044A" unicode="&#x44a;" horiz-adv-x="677" 
d="M148 321q0 12 -4 15.5t-16 3.5h-85q-27 0 -27 26v102q0 27 26 27h262q27 0 27 -26v-114q0 -13 14 -13h61q239 0 239 -169q0 -81 -59.5 -127t-183.5 -46h-229q-25 0 -25 25v296zM393 127q71 0 71 46q0 21 -15.5 31.5t-55.5 10.5h-48q-14 0 -14 -14v-59q0 -15 14 -15h48z
" />
    <glyph glyph-name="uni044B" unicode="&#x44b;" horiz-adv-x="860" 
d="M60 469q0 26 26 26h131q27 0 27 -26v-113q0 -14 14 -14h61q239 0 239 -169q0 -81 -59.5 -127t-183.5 -46h-230q-25 0 -25 25v444zM616 469q0 26 26 26h131q27 0 27 -26v-443q0 -26 -27 -26h-131q-26 0 -26 26v443zM306 127q70 0 70 46q0 21 -15 31.5t-55 10.5h-48
q-14 0 -14 -14v-59q0 -15 14 -15h48z" />
    <glyph glyph-name="uni044C" unicode="&#x44c;" horiz-adv-x="600" 
d="M60 469q0 26 26 26h131q27 0 27 -26v-113q0 -14 14 -14h71q239 0 239 -169q0 -81 -59.5 -127t-183.5 -46h-240q-25 0 -25 25v444zM316 127q70 0 70 46q0 21 -15 31.5t-55 10.5h-58q-14 0 -14 -14v-59q0 -15 14 -15h58z" />
    <glyph glyph-name="uni044D" unicode="&#x44d;" horiz-adv-x="550" 
d="M67 156q5 12 16 12q8 0 20 -7q73 -33 125 -33q87 0 108 72h-150q-21 0 -21 20v69q0 21 20 21h148q-25 65 -111 65q-52 0 -105 -29q-8 -5 -16 -5q-14 0 -23 13l-38 69q-4 7 -4 14q0 10 11 18q73 53 197 53q122 0 197.5 -72.5t75.5 -189.5q0 -116 -77 -187.5t-198 -71.5
q-122 0 -208 60q-10 7 -10 17q0 8 4 15z" />
    <glyph glyph-name="uni044E" unicode="&#x44e;" horiz-adv-x="911" 
d="M60 469q0 26 26 26h131q27 0 27 -26v-127q0 -13 12 -13h75q25 82 96 130.5t170 48.5q124 0 202.5 -73.5t78.5 -187.5q0 -115 -78.5 -187.5t-202.5 -72.5q-104 0 -175.5 51t-94.5 136h-71q-12 0 -12 -13v-135q0 -26 -27 -26h-131q-26 0 -26 26v443zM597 151
q39 0 65.5 26.5t26.5 69.5t-27 70.5t-65 27.5t-64 -27.5t-26 -70.5t26 -69.5t64 -26.5z" />
    <glyph glyph-name="uni044F" unicode="&#x44f;" horiz-adv-x="584" 
d="M136 202q-89 39 -89 129q0 78 57.5 121t167.5 43h232q20 0 20 -24v-448q0 -23 -22 -23h-141q-22 0 -22 20v134q0 11 -11 11h-14q-12 0 -20 -12l-81 -133q-12 -20 -38 -20h-150q-16 0 -16 10q0 5 5 13zM327 283q12 0 12 13v63q0 14 -12 14h-18q-41 0 -60 -10t-19 -34
q0 -26 18 -36t61 -10h18z" />
    <glyph glyph-name="uni0450" unicode="&#x450;" horiz-adv-x="588" 
d="M167 778q15 11 28 11q12 0 29 -11l183 -137q12 -9 12 -18t-12 -19l-47 -35q-12 -9 -21 -9q-10 0 -26 10l-205 119q-17 11 -17 22t14 21zM524 82q5 -10 5 -16q0 -13 -16 -22q-84 -57 -213 -57q-122 0 -194.5 72.5t-72.5 186.5q0 115 73.5 188.5t190.5 73.5
q118 0 188 -71.5t70 -186.5v-29q0 -19 -18 -19h-317q6 -35 33 -54.5t67 -19.5q71 0 127 33q14 8 23 8q11 0 16 -12zM369 312q-2 33 -21 53t-51 20q-29 0 -48.5 -19t-26.5 -54h147z" />
    <glyph glyph-name="uni0451" unicode="&#x451;" horiz-adv-x="588" 
d="M106 639q0 35 22.5 57t58.5 22t59 -22t23 -57t-23 -57t-59 -22t-58.5 22t-22.5 57zM325 639q0 35 22.5 57t58.5 22t59 -22t23 -57t-23 -57t-59 -22t-58.5 22t-22.5 57zM524 82q5 -10 5 -16q0 -13 -16 -22q-84 -57 -213 -57q-122 0 -194.5 72.5t-72.5 186.5
q0 115 73.5 188.5t190.5 73.5q118 0 188 -71.5t70 -186.5v-29q0 -19 -18 -19h-317q6 -35 33 -54.5t67 -19.5q71 0 127 33q14 8 23 8q11 0 16 -12zM369 312q-2 33 -21 53t-51 20q-29 0 -48.5 -19t-26.5 -54h147z" />
    <glyph glyph-name="uni0452" unicode="&#x452;" horiz-adv-x="625" 
d="M256 -94q3 22 20 22q5 0 19.5 -2t22.5 -2q67 0 67 93v226q0 101 -70 101q-71 0 -71 -101v-223q0 -20 -19 -20h-146q-19 0 -19 20v549h-44q-27 0 -27 26v72q0 27 27 27h44v36q0 25 25 25h133q26 0 26 -25v-36h106q26 0 26 -27v-72q0 -26 -26 -26h-106v-123q49 59 133 59
q192 0 192 -238v-253q0 -245 -218 -245q-54 0 -83 7q-25 5 -22 30z" />
    <glyph glyph-name="uni0453" unicode="&#x453;" horiz-adv-x="454" 
d="M124 604q-12 10 -12 19t12 18l183 137q17 11 29 11q13 0 28 -11l62 -46q14 -10 14 -21t-17 -22l-205 -119q-17 -9 -26 -9q-8 0 -21 8zM60 468q0 27 25 27h327q26 0 26 -27v-102q0 -26 -27 -26h-153q-15 0 -15 -16v-298q0 -26 -27 -26h-130q-26 0 -26 26v442z" />
    <glyph glyph-name="uni0454" unicode="&#x454;" horiz-adv-x="550" 
d="M365 310q19 0 19 -21v-69q0 -20 -20 -20h-150q21 -72 108 -72q72 0 124 33q12 7 20 7q12 0 17 -12l39 -77q4 -7 4 -14q0 -10 -11 -18q-86 -60 -207 -60t-198 71.5t-77 187.5q0 117 75.5 189.5t197.5 72.5t197 -53q11 -8 11 -18q0 -6 -5 -14l-37 -69q-9 -13 -22 -13
q-9 0 -17 5q-47 29 -105 29q-87 0 -112 -65h149z" />
    <glyph glyph-name="uni0455" unicode="&#x455;" horiz-adv-x="502" 
d="M71 156q6 11 15 11q6 0 18 -7q29 -18 68.5 -30.5t69.5 -12.5q47 0 47 26q0 13 -13 19t-54 17q-15 4 -23 6q-84 23 -124.5 59.5t-40.5 99.5q0 78 58.5 121t153.5 43q127 0 209 -59q10 -7 10 -15q0 -3 -6 -15l-45 -78q-6 -10 -14 -10t-17 6q-72 41 -126 41q-40 0 -40 -25
q0 -13 17 -21t66 -20q91 -22 131.5 -58t40.5 -102q0 -77 -57 -121t-166 -44q-130 0 -216 61q-13 9 -13 16q0 6 6 16z" />
    <glyph glyph-name="uni0456" unicode="&#x456;" horiz-adv-x="304" 
d="M50 658q0 44 28 73.5t74 29.5t74 -29.5t28 -73.5t-28 -72.5t-74 -28.5t-74 28.5t-28 72.5zM60 469q0 26 26 26h131q27 0 27 -26v-443q0 -26 -27 -26h-131q-26 0 -26 26v443z" />
    <glyph glyph-name="uni0457" unicode="&#x457;" horiz-adv-x="304" 
d="M-39 639q0 35 22.5 57t58.5 22t59 -22t23 -57t-23 -57t-59 -22t-58.5 22t-22.5 57zM180 639q0 35 22.5 57t58.5 22t59 -22t23 -57t-23 -57t-59 -22t-58.5 22t-22.5 57zM60 469q0 26 26 26h131q27 0 27 -26v-443q0 -26 -27 -26h-131q-26 0 -26 26v443z" />
    <glyph glyph-name="uni0458" unicode="&#x458;" horiz-adv-x="306" 
d="M54 658q0 44 28 73.5t73 29.5q46 0 74.5 -29.5t28.5 -73.5q0 -43 -28.5 -72t-74.5 -29t-73.5 28.5t-27.5 72.5zM-65 -94q3 22 19 22q5 0 19.5 -2t23.5 -2q66 0 66 93v454q0 24 24 24h137q24 0 24 -23v-458q0 -245 -219 -245q-52 0 -83 7q-25 5 -22 30z" />
    <glyph glyph-name="uni0459" unicode="&#x459;" horiz-adv-x="829" 
d="M246 478q19 36 38 36q20 0 39 -36l62 -117q9 -16 19 -16h155q237 0 237 -170q0 -81 -59.5 -128t-183.5 -47h-144q-33 0 -43 23l-84 185l-82 -185q-7 -13 -13 -18t-18 -5h-152q-18 0 -18 13q0 6 4 11zM545 127q70 0 70 48q0 21 -15 32t-55 11h-67q-12 0 -12 -7q0 -3 3 -8
l33 -62q7 -14 17 -14h26z" />
    <glyph glyph-name="uni045A" unicode="&#x45a;" horiz-adv-x="901" 
d="M60 469q0 26 26 26h131q27 0 27 -26v-119q0 -9 12 -9h96q12 0 12 9v119q0 26 26 26h132q27 0 27 -26v-114q0 -14 14 -14h66q238 0 238 -166q0 -81 -59.5 -128t-183.5 -47h-235q-25 0 -25 25v178q0 11 -12 11h-96q-12 0 -12 -11v-177q0 -26 -27 -26h-131q-26 0 -26 26v443
zM616 127q70 0 70 46q0 20 -15 30.5t-55 10.5h-53q-14 0 -14 -14v-58q0 -15 14 -15h53z" />
    <glyph glyph-name="uni045B" unicode="&#x45b;" horiz-adv-x="625" 
d="M60 561h-44q-27 0 -27 26v68q0 27 27 27h44v48q0 25 25 25h133q26 0 26 -25v-48h106q26 0 26 -27v-68q0 -26 -26 -26h-106v-115q49 59 133 59q192 0 192 -238v-247q0 -20 -19 -20h-145q-20 0 -20 20v223q0 101 -70 101q-71 0 -71 -101v-223q0 -20 -19 -20h-146
q-19 0 -19 20v541z" />
    <glyph glyph-name="uni045C" unicode="&#x45c;" horiz-adv-x="612" 
d="M200 604q-12 10 -12 19t12 18l183 137q17 11 29 11q13 0 28 -11l62 -46q14 -10 14 -21t-17 -22l-205 -119q-16 -9 -26 -9q-8 0 -21 8zM60 469q0 26 26 26h131q27 0 27 -26v-443q0 -26 -27 -26h-131q-26 0 -26 26v443zM262 233q-6 11 -6 18t6 18l122 207q11 19 35 19h163
q14 0 14 -12q0 -7 -4 -12l-134 -213l152 -235q4 -8 4 -11q0 -12 -15 -12h-168q-24 0 -35 18z" />
    <glyph glyph-name="uni045D" unicode="&#x45d;" horiz-adv-x="594" 
d="M176 778q15 11 28 11q12 0 29 -11l183 -137q12 -9 12 -18t-12 -19l-47 -35q-12 -9 -21 -9q-10 0 -26 10l-205 119q-17 11 -17 22t14 21zM60 469q0 26 25 26h133q26 0 26 -26v-170l163 131q4 3 12.5 10.5t14 12t14 12t14.5 12t13.5 10.5t13.5 10t12 7.5t10.5 5t8.5 1.5
q13 0 16.5 -11.5t3.5 -45.5v-428q0 -26 -27 -26h-131q-27 0 -27 26v170l-163 -133q-7 -5 -23.5 -19t-26.5 -22t-23.5 -18t-23 -15t-15.5 -5q-14 0 -17 10.5t-3 45.5v429z" />
    </font>
</defs>
</svg>
