<?xml version="1.0" standalone="no"?>
<!DOCTYPE svg PUBLIC "-//W3C//DTD SVG 1.1//EN" "http://www.w3.org/Graphics/SVG/1.1/DTD/svg11.dtd" >
<svg>
<metadata>
Created by FontForge 20090622 at Thu Sep  1 08:26:29 2016
 By deploy user
Copyright &#194;&#169; 2016 Monotype Imaging Inc.  All rights reserved.
</metadata>
<defs>
<font id="PosteramaText-Regular" horiz-adv-x="689" >
  <font-face 
    font-family="Posterama Text"
    font-weight="400"
    font-stretch="normal"
    units-per-em="1000"
    panose-1="2 11 5 4 2 2 0 2 0 0"
    ascent="805"
    descent="-195"
    x-height="490"
    cap-height="700"
    bbox="-313 -242 1154 989"
    underline-thickness="50"
    underline-position="-75"
    unicode-range="U+000D-U+FEFF"
  />
<missing-glyph horiz-adv-x="1037" 
d="M240 165q0 -30 -29 -30q-90 0 -143.5 47t-53.5 127q0 77 38 122t98 52q0 151 109 256t259 105t259.5 -105t109.5 -256q60 -7 98 -52t38 -122q0 -80 -53.5 -127t-143.5 -47q-30 0 -30 30v318q0 120 -81 197.5t-197 77.5q-115 0 -196.5 -77.5t-81.5 -197.5v-318zM452 169
q-2 59 -16 106t-30 71.5t-29 61.5t-13 80q0 65 45 110.5t109 45.5q65 0 110 -45.5t45 -110.5q0 -43 -13 -80t-28.5 -61.5t-29.5 -71.5t-16 -106l-2 -55q-2 -29 -29 -29h-72q-27 0 -29 29zM444 -10q0 35 35 35h80q35 0 35 -35v-80q0 -35 -35 -35h-80q-35 0 -35 35v80z" />
    <glyph glyph-name="uniFB00" unicode="ff" horiz-adv-x="675" 
d="M415 401h-51q-13 0 -17.5 5t-4.5 17v45q0 12 4.5 17t17.5 5h51v27q0 233 187 233q38 0 59 -5q19 -4 17 -24l-5 -44q-3 -19 -18 -19q-4 0 -18 1.5t-24 1.5q-101 0 -101 -143v-28h106q22 0 22 -22v-45q0 -22 -22 -22h-106v-381q0 -20 -20 -20h-58q-19 0 -19 20v381zM94 401
h-52q-13 0 -17.5 5t-4.5 17v45q0 12 4.5 17t17.5 5h52v22q0 233 187 233q30 0 58 -5q19 -4 17 -24l-5 -44q-1 -19 -18 -19q-3 0 -17 1.5t-24 1.5q-102 0 -102 -143v-23h90q13 0 17.5 -5t4.5 -17v-45q0 -12 -4.5 -17t-17.5 -5h-90v-381q0 -20 -19 -20h-59q-18 0 -18 20v381z
" />
    <glyph glyph-name="fi" unicode="fi" horiz-adv-x="591" 
d="M94 401h-52q-13 0 -17.5 5t-4.5 17v45q0 12 4.5 17t17.5 5h52v27q0 233 187 233q30 0 58 -5q19 -4 17 -24l-5 -44q-1 -19 -18 -19q-3 0 -17 1.5t-24 1.5q-102 0 -102 -143v-28h106q13 0 17.5 -5t4.5 -17v-45q0 -12 -4.5 -17t-17.5 -5h-106v-381q0 -20 -19 -20h-59
q-18 0 -18 20v381zM403 661q0 27 17 44.5t44 17.5t44.5 -17.5t17.5 -44.5q0 -26 -17.5 -43.5t-44.5 -17.5t-44 17.5t-17 43.5zM415 468q0 13 5 17.5t17 4.5h53q13 0 18 -4.5t5 -17.5v-446q0 -13 -5 -17.5t-18 -4.5h-53q-12 0 -17 4.5t-5 17.5v446z" />
    <glyph glyph-name="fl" unicode="fl" horiz-adv-x="591" 
d="M94 401h-52q-13 0 -17.5 5t-4.5 17v45q0 12 4.5 17t17.5 5h52v27q0 233 187 233q30 0 58 -5q19 -4 17 -24l-5 -44q-1 -19 -18 -19q-3 0 -17 1.5t-24 1.5q-102 0 -102 -143v-28h106q13 0 17.5 -5t4.5 -17v-45q0 -12 -4.5 -17t-17.5 -5h-106v-381q0 -20 -19 -20h-59
q-18 0 -18 20v381zM415 728q0 13 5 17.5t17 4.5h53q13 0 18 -4.5t5 -17.5v-706q0 -13 -5 -17.5t-18 -4.5h-53q-12 0 -17 4.5t-5 17.5v706z" />
    <glyph glyph-name="uniFB03" unicode="ffi" horiz-adv-x="913" 
d="M415 401h-51q-13 0 -17.5 5t-4.5 17v45q0 12 4.5 17t17.5 5h51v27q0 233 187 233q31 0 59 -5q19 -4 17 -24l-5 -44q-3 -19 -18 -19q-4 0 -18 1.5t-24 1.5q-101 0 -101 -143v-28h106q22 0 22 -22v-45q0 -22 -22 -22h-106v-381q0 -20 -20 -20h-58q-19 0 -19 20v381zM94 401
h-52q-13 0 -17.5 5t-4.5 17v45q0 12 4.5 17t17.5 5h52v22q0 233 187 233q30 0 58 -5q19 -4 17 -24l-5 -44q-1 -19 -18 -19q-3 0 -17 1.5t-24 1.5q-102 0 -102 -143v-23h90q13 0 17.5 -5t4.5 -17v-45q0 -12 -4.5 -17t-17.5 -5h-90v-381q0 -20 -19 -20h-59q-18 0 -18 20v381z
M724 661q0 26 17.5 44t44.5 18t44 -17.5t17 -44.5q0 -26 -17 -43.5t-44 -17.5t-44.5 17.5t-17.5 43.5zM737 468q0 13 5 17.5t17 4.5h53q12 0 17 -4.5t5 -17.5v-446q0 -13 -5 -17.5t-17 -4.5h-53q-12 0 -17 4.5t-5 17.5v446z" />
    <glyph glyph-name="uniFB04" unicode="ffl" horiz-adv-x="913" 
d="M415 401h-51q-13 0 -17.5 5t-4.5 17v45q0 12 4.5 17t17.5 5h51v27q0 233 187 233q31 0 59 -5q19 -4 17 -24l-5 -44q-3 -19 -18 -19q-4 0 -18 1.5t-24 1.5q-101 0 -101 -143v-28h106q22 0 22 -22v-45q0 -22 -22 -22h-106v-381q0 -20 -20 -20h-58q-19 0 -19 20v381z
M737 728q0 13 5 17.5t17 4.5h53q12 0 17 -4.5t5 -17.5v-706q0 -13 -5 -17.5t-17 -4.5h-53q-12 0 -17 4.5t-5 17.5v706zM94 401h-52q-13 0 -17.5 5t-4.5 17v45q0 12 4.5 17t17.5 5h52v22q0 233 187 233q30 0 58 -5q19 -4 17 -24l-5 -44q-1 -19 -18 -19q-3 0 -17 1.5t-24 1.5
q-102 0 -102 -143v-23h90q13 0 17.5 -5t4.5 -17v-45q0 -12 -4.5 -17t-17.5 -5h-90v-381q0 -20 -19 -20h-59q-18 0 -18 20v381z" />
    <glyph glyph-name="uniFDFC" unicode="&#xfdfc;" horiz-adv-x="1005" arabic-form="isolated" 
d="M226 0q-176 0 -176 221v67h42v-28q0 -73 36.5 -110.5t98.5 -37.5q140 0 140 224v364h42v-431q0 -269 -183 -269zM667 119q-144 0 -144 207v374h42v-307q0 -91 25 -126t77 -35q100 0 100 133v23h42v-43q0 -226 -142 -226zM718 -202q-39 0 -71 8l-58 121q51 -16 112 -16
q222 0 222 256v40h42v-59q0 -175 -63.5 -262.5t-183.5 -87.5zM586 -13q-17 0 -29.5 12t-12.5 29q0 18 12.5 30.5t29.5 12.5q18 0 30.5 -12t12.5 -31q0 -17 -12 -29t-31 -12zM744 -13q-17 0 -29.5 12t-12.5 29q0 18 12.5 30.5t29.5 12.5q18 0 30.5 -12t12.5 -31
q0 -17 -12 -29t-31 -12z" />
    <glyph glyph-name=".notdef" horiz-adv-x="1037" 
d="M240 165q0 -30 -29 -30q-90 0 -143.5 47t-53.5 127q0 77 38 122t98 52q0 151 109 256t259 105t259.5 -105t109.5 -256q60 -7 98 -52t38 -122q0 -80 -53.5 -127t-143.5 -47q-30 0 -30 30v318q0 120 -81 197.5t-197 77.5q-115 0 -196.5 -77.5t-81.5 -197.5v-318zM452 169
q-2 59 -16 106t-30 71.5t-29 61.5t-13 80q0 65 45 110.5t109 45.5q65 0 110 -45.5t45 -110.5q0 -43 -13 -80t-28.5 -61.5t-29.5 -71.5t-16 -106l-2 -55q-2 -29 -29 -29h-72q-27 0 -29 29zM444 -10q0 35 35 35h80q35 0 35 -35v-80q0 -35 -35 -35h-80q-35 0 -35 35v80z" />
    <glyph glyph-name=".null" horiz-adv-x="0" 
 />
    <glyph glyph-name="nonmarkingreturn" horiz-adv-x="333" 
 />
    <glyph glyph-name="NULL" horiz-adv-x="0" 
 />
    <glyph glyph-name="NULL" horiz-adv-x="0" 
 />
    <glyph glyph-name="CR" unicode="&#xd;" horiz-adv-x="275" 
 />
    <glyph glyph-name="space" unicode=" " horiz-adv-x="275" 
 />
    <glyph glyph-name="exclam" unicode="!" horiz-adv-x="253" 
d="M68 663q-2 21 5 29t27 8h53q19 0 26 -8t6 -29l-19 -474q-1 -18 -6 -23.5t-19 -5.5h-30q-14 0 -19 5.5t-6 23.5zM64 48q0 26 17.5 42.5t44.5 16.5t44.5 -16.5t17.5 -42.5q0 -25 -17.5 -41.5t-44.5 -16.5q-26 0 -44 16.5t-18 41.5z" />
    <glyph glyph-name="quotedbl" unicode="&#x22;" horiz-adv-x="323" 
d="M48 680q-2 18 3.5 24.5t23.5 6.5h41q27 0 27 -21q0 -1 -0.5 -4.5t-0.5 -5.5l-11 -137q-1 -13 -6 -18t-16 -5h-27q-12 0 -16.5 5t-5.5 18zM181 680q-2 18 3.5 24.5t22.5 6.5h41q28 0 28 -21q0 -1 -0.5 -4.5t-0.5 -5.5l-12 -137q-1 -13 -6 -18t-16 -5h-27q-11 0 -15.5 5
t-5.5 18z" />
    <glyph glyph-name="numbersign" unicode="#" horiz-adv-x="672" 
d="M140 196h-88q-12 0 -17 4.5t-5 17.5v36q0 13 5 17.5t17 4.5h109l43 148h-101q-12 0 -17 4.5t-5 17.5v36q0 13 5 17.5t17 4.5h122l52 174q3 13 9 17.5t19 4.5h38q20 0 20 -14q0 -2 -2 -12l-50 -170h131l51 174q4 13 9.5 17.5t18.5 4.5h38q21 0 21 -15q0 -3 -2 -11
l-50 -170h92q12 0 17 -4.5t5 -17.5v-36q0 -13 -5 -17.5t-17 -4.5h-113l-44 -148h106q12 0 17 -4.5t5 -17.5v-36q0 -13 -5 -17.5t-17 -4.5h-126l-51 -174q-6 -22 -29 -22h-38q-20 0 -20 14q0 2 2 12l50 170h-131l-51 -174q-6 -22 -28 -22h-38q-21 0 -21 15q0 3 2 11zM378 276
l43 148h-131l-43 -148h131z" />
    <glyph glyph-name="dollar" unicode="$" horiz-adv-x="672" 
d="M104 176q9 12 16 12q4 0 14 -7q61 -49 139 -64v200q-87 19 -133.5 59t-46.5 115q0 71 49 119.5t131 63.5v85q0 15 4 20.5t16 5.5t16 -5.5t4 -20.5v-80q2 0 11.5 0.5t16.5 0.5t16.5 -0.5t11.5 -0.5v80q0 15 4 20.5t16 5.5t16 -5.5t4 -20.5v-85q83 -12 156 -64
q13 -10 13 -16q0 -7 -8 -18l-27 -39q-9 -11 -15 -11q-3 0 -15 7q-48 33 -104 47v-195q90 -21 134.5 -61.5t44.5 -110.5t-50 -120.5t-129 -65.5v-86q0 -15 -4 -20.5t-16 -5.5t-16 5.5t-4 20.5v80q-3 0 -13 -0.5t-15 -0.5t-15 0.5t-13 0.5v-80q0 -15 -4 -20.5t-16 -5.5
t-16 5.5t-4 20.5v83q-104 13 -191 78q-12 9 -12 17t7 16zM369 394v192q-12 2 -28 2t-28 -2v-181zM273 580q-38 -9 -59.5 -31t-21.5 -53q0 -59 81 -81v165zM369 298l-56 11v-196q3 0 13 -0.5t15 -0.5t15 0.5t13 0.5v185zM409 120q80 21 80 89q0 57 -80 80v-169z" />
    <glyph glyph-name="percent" unicode="%" horiz-adv-x="736" 
d="M181 357q-68 0 -111.5 47t-43.5 128t44 130t114 49q68 0 111 -47t43 -128t-43.5 -130t-113.5 -49zM589 690q10 13 16.5 17t21.5 4h42q20 0 20 -11q0 -7 -14 -24l-528 -666q-10 -13 -16.5 -17t-21.5 -4h-42q-20 0 -20 11q0 7 14 24zM182 429q36 0 57 28.5t21 76.5
t-21.5 76.5t-56.5 28.5q-36 0 -56.5 -28.5t-20.5 -76.5q0 -49 21 -77t56 -28zM552 -11q-68 0 -111 47t-43 128t43.5 130t113.5 49q68 0 111.5 -47t43.5 -128t-44 -130t-114 -49zM554 61q35 0 56 29t21 76q0 49 -21 77t-56 28q-36 0 -57 -28.5t-21 -76.5t21.5 -76.5
t56.5 -28.5z" />
    <glyph glyph-name="ampersand" unicode="&#x26;" horiz-adv-x="694" 
d="M478 67q-92 -79 -208 -79q-113 0 -174.5 56.5t-61.5 144.5q0 67 39 114.5t106 71.5q-58 66 -58 143q0 81 55 137t145 56t141.5 -51.5t51.5 -129.5q0 -71 -48.5 -119t-131.5 -71l147 -148q51 54 91 132q9 17 20 17q4 0 14 -5l39 -24q14 -8 14 -18q0 -5 -5 -17
q-41 -86 -106 -151l101 -100q11 -11 11 -17q0 -9 -20 -9h-72q-23 0 -41 17zM278 401q74 16 105 47.5t31 78.5q0 38 -24.5 66.5t-69.5 28.5q-44 0 -71 -30t-27 -75q0 -60 56 -116zM234 315q-97 -33 -97 -119q0 -51 37 -83.5t100 -32.5q80 0 139 51z" />
    <glyph glyph-name="quotesingle" unicode="'" horiz-adv-x="191" 
d="M48 680q-2 18 3.5 24.5t23.5 6.5h41q27 0 27 -21q0 -1 -0.5 -4.5t-0.5 -5.5l-11 -137q-1 -13 -6 -18t-16 -5h-27q-12 0 -16.5 5t-5.5 18z" />
    <glyph glyph-name="parenleft" unicode="(" horiz-adv-x="319" 
d="M256 -127q-9 -8 -18 -8q-11 0 -23 13q-84 92 -137 215t-53 255q0 134 53 258t137 216q12 13 23 13q9 0 18 -8l31 -24q11 -9 11 -17q0 -7 -10 -19q-74 -80 -120 -190t-46 -227t46 -227t120 -190q10 -12 10 -19q0 -8 -11 -17z" />
    <glyph glyph-name="parenright" unicode=")" horiz-adv-x="319" 
d="M33 -103q-11 8 -11 18q0 7 9 18q74 81 120 190.5t46 226.5t-46 226.5t-120 190.5q-9 11 -9 18q0 10 11 18l30 24q9 8 19 8t22 -13q84 -92 137 -215t53 -255q0 -134 -53 -258t-137 -216q-12 -13 -22 -13t-19 8z" />
    <glyph glyph-name="asterisk" unicode="*" horiz-adv-x="411" 
d="M89 414q-10 7 -10 15q0 7 8 15l63 73l-93 20q-19 3 -19 16q0 2 2 10l16 46q5 14 14 14q2 0 14 -4l87 -38l-8 96v7q0 16 18 16h49q21 0 18 -23l-9 -96l88 38q12 4 14 4q9 0 14 -14l16 -46q2 -8 2 -10q0 -13 -19 -16l-93 -20l63 -73q8 -8 8 -16q0 -7 -10 -14l-39 -28
q-7 -6 -13 -6q-8 0 -16 14l-49 83l-48 -83q-8 -14 -16 -14q-5 0 -13 6z" />
    <glyph glyph-name="plus" unicode="+" horiz-adv-x="672" 
d="M78 341q0 13 5 17.5t17 4.5h182q12 0 12 11v182q0 12 4.5 17t17.5 5h40q23 0 23 -22v-182q0 -11 11 -11h182q12 0 17 -4.5t5 -17.5v-42q0 -13 -5 -17.5t-17 -4.5h-182q-11 0 -11 -11v-182q0 -22 -23 -22h-40q-13 0 -17.5 5t-4.5 17v182q0 11 -12 11h-182q-12 0 -17 4.5
t-5 17.5v42z" />
    <glyph glyph-name="comma" unicode="," horiz-adv-x="227" 
d="M92 -9q-17 4 -29 19t-12 38q0 27 17.5 44.5t43.5 17.5q28 0 46 -17t18 -47q0 -33 -26 -83l-28 -55q-10 -17 -29 -17h-31q-16 0 -16 10q0 2 4 12z" />
    <glyph glyph-name="hyphen" unicode="-" horiz-adv-x="429" 
d="M50 286q0 13 5 17.5t17 4.5h284q23 0 23 -22v-42q0 -22 -23 -22h-284q-12 0 -17 4.5t-5 17.5v42z" />
    <glyph glyph-name="period" unicode="." horiz-adv-x="227" 
d="M51 50q0 26 18 43t44 17q27 0 45 -17t18 -43t-18 -42.5t-45 -16.5t-44.5 16.5t-17.5 42.5z" />
    <glyph glyph-name="slash" unicode="/" horiz-adv-x="391" 
d="M287 689q6 14 11.5 18t19.5 4h52q19 0 19 -13q0 -6 -2 -10l-282 -677q-6 -14 -12 -18t-20 -4h-52q-18 0 -18 12q0 7 2 11z" />
    <glyph glyph-name="zero" unicode="0" horiz-adv-x="672" 
d="M335 -11q-129 0 -208.5 95.5t-79.5 261.5q0 167 80 266t209 99t209 -97t80 -262q0 -166 -80.5 -264.5t-209.5 -98.5zM335 84q83 0 134.5 74.5t51.5 190.5q0 123 -50.5 195t-135.5 72t-134.5 -72t-49.5 -195q0 -121 49.5 -193t134.5 -72z" />
    <glyph glyph-name="one" unicode="1" horiz-adv-x="365" 
d="M148 593q0 12 -12 12h-91q-12 0 -17 4.5t-5 17.5v51q0 13 5 17.5t17 4.5h181q12 0 17 -4.5t5 -17.5v-656q0 -13 -5 -17.5t-17 -4.5h-56q-12 0 -17 4.5t-5 17.5v571z" />
    <glyph glyph-name="two" unicode="2" horiz-adv-x="566" 
d="M265 292q67 72 97 119t30 91q0 53 -37 83.5t-93 30.5q-78 0 -152 -62q-10 -8 -16 -8q-8 0 -18 13l-23 33q-9 10 -9 18q0 7 13 19q94 82 211 82q97 0 162.5 -54t65.5 -148q0 -59 -31.5 -114.5t-104.5 -135.5l-151 -164h296q13 -1 18 -5.5t5 -16.5v-51q0 -13 -5 -17.5
t-18 -4.5h-462q-28 0 -28 13q0 8 13 23z" />
    <glyph glyph-name="three" unicode="3" horiz-adv-x="599" 
d="M56 153q7 10 15 10q7 0 15 -7q89 -72 190 -72q78 0 125.5 37t47.5 97q0 130 -205 130q-32 0 -32 13q0 6 10 21l161 223h-298q-12 1 -17 5.5t-5 16.5v51q0 13 5 17.5t17 4.5h439q23 0 23 -14q0 -9 -11 -25l-177 -242q92 -11 143 -61.5t51 -136.5q0 -103 -77.5 -167.5
t-200.5 -64.5q-134 0 -242 87q-11 9 -11 18q0 6 6 15z" />
    <glyph glyph-name="four" unicode="4" horiz-adv-x="599" 
d="M406 682q25 30 40 30q26 0 26 -42v-416h77q13 0 18 -5t5 -18v-46q0 -13 -5 -17.5t-18 -4.5h-77v-140q0 -13 -5 -18t-18 -5h-55q-13 0 -17.5 5t-4.5 18v140h-322q-35 0 -35 22q0 11 16 31zM374 254v261l-207 -261h207z" />
    <glyph glyph-name="five" unicode="5" horiz-adv-x="599" 
d="M65 138q7 12 15 12q7 0 17 -7q82 -59 177 -59q82 0 127.5 37.5t45.5 100.5q0 61 -46.5 93.5t-123.5 32.5q-86 0 -168 -30q-12 -4 -14 -4q-15 0 -14 26l15 332q1 16 7 22t23 6h370q13 0 18 -4.5t5 -17.5v-51q0 -13 -5 -17.5t-18 -4.5h-296q-12 0 -12 -12l-7 -170
q57 18 125 18q111 0 178 -58.5t67 -154.5q0 -102 -73 -170.5t-206 -68.5q-125 0 -226 74q-12 9 -12 18q0 7 6 17z" />
    <glyph glyph-name="six" unicode="6" horiz-adv-x="606" 
d="M301 -11q-110 0 -181.5 63.5t-71.5 174.5q0 62 21 117t72 128l139 204q11 15 18 19.5t23 4.5h63q21 0 21 -11q0 -6 -7 -16l-163 -227q39 21 90 21q101 0 169.5 -63t68.5 -167q0 -113 -75 -180.5t-187 -67.5zM304 84q68 0 111.5 40.5t43.5 109.5q0 63 -42.5 102.5
t-109.5 39.5t-111 -40.5t-44 -106.5q0 -65 42.5 -105t109.5 -40z" />
    <glyph glyph-name="seven" unicode="7" horiz-adv-x="547" 
d="M394 605h-346q-13 0 -18 5t-5 18v49q0 13 5 18t18 5h456q26 0 26 -15q0 -9 -6 -22l-276 -636q-8 -17 -14.5 -22t-21.5 -5h-57q-21 0 -21 12q0 5 5 18z" />
    <glyph glyph-name="eight" unicode="8" horiz-adv-x="606" 
d="M167 365q-96 42 -96 151q0 87 64.5 141t171.5 54q103 0 165 -53.5t62 -141.5q0 -106 -96 -151q53 -19 86 -61.5t33 -103.5q0 -103 -71 -157t-187 -54q-112 0 -181 52.5t-69 151.5q0 64 32.5 107.5t85.5 64.5zM173 511q0 -48 37.5 -77.5t92.5 -29.5q54 0 91.5 29.5
t37.5 77.5q0 49 -34.5 78.5t-93.5 29.5q-58 0 -94.5 -29.5t-36.5 -78.5zM153 199q0 -56 40 -87t109 -31q70 0 110.5 31t40.5 87q0 55 -44 86.5t-106 31.5t-106 -31.5t-44 -86.5z" />
    <glyph glyph-name="nine" unicode="9" horiz-adv-x="606" 
d="M372 254q-40 -21 -91 -21q-103 0 -171 63.5t-68 166.5q0 111 75 179.5t187 68.5q110 0 181.5 -63t71.5 -175q0 -62 -21.5 -117.5t-70.5 -126.5l-139 -205q-11 -16 -18.5 -20t-23.5 -4h-64q-20 0 -20 10q0 6 8 17zM146 466q0 -63 42.5 -102.5t108.5 -39.5q68 0 112 41
t44 106t-42.5 105t-108.5 40q-68 0 -112 -40.5t-44 -109.5z" />
    <glyph glyph-name="colon" unicode=":" horiz-adv-x="227" 
d="M51 391q0 26 18 43t44 17q27 0 45 -17t18 -43t-18 -42.5t-45 -16.5t-44.5 16.5t-17.5 42.5zM51 50q0 26 18 43t44 17q27 0 45 -17t18 -43t-18 -42.5t-45 -16.5t-44.5 16.5t-17.5 42.5z" />
    <glyph glyph-name="uni003B" unicode=";" horiz-adv-x="227" 
d="M51 391q0 26 18 43t44 17q27 0 45 -17t18 -43t-18 -42.5t-45 -16.5t-44.5 16.5t-17.5 42.5zM92 -9q-17 4 -29 19t-12 38q0 27 17.5 44.5t43.5 17.5q28 0 46 -17t18 -47q0 -33 -26 -83l-28 -55q-10 -17 -29 -17h-31q-16 0 -16 10q0 2 4 12z" />
    <glyph glyph-name="less" unicode="&#x3c;" horiz-adv-x="672" 
d="M101 331q0 14 3.5 20t17.5 13l382 215q8 5 16 5q11 0 11 -19v-46q0 -14 -4.5 -20t-18.5 -14l-296 -165l296 -165q14 -8 18.5 -14t4.5 -20v-46q0 -19 -11 -19q-8 0 -16 5l-382 215q-14 7 -17.5 13t-3.5 20v22z" />
    <glyph glyph-name="equal" unicode="=" horiz-adv-x="672" 
d="M80 439q0 22 23 22h467q12 0 17 -4.5t5 -17.5v-41q0 -13 -5 -17.5t-17 -4.5h-467q-23 0 -23 22v41zM80 242q0 22 23 22h467q12 0 17 -4.5t5 -17.5v-41q0 -13 -5 -17.5t-17 -4.5h-467q-23 0 -23 22v41z" />
    <glyph glyph-name="greater" unicode="&#x3e;" horiz-adv-x="672" 
d="M142 121q0 14 4 20t18 14l296 165l-296 165q-14 8 -18 14t-4 20v46q0 19 11 19q7 0 15 -5l382 -215q14 -7 18 -13t4 -20v-22q0 -14 -4 -20t-18 -13l-382 -215q-8 -5 -15 -5q-11 0 -11 19v46z" />
    <glyph glyph-name="question" unicode="?" horiz-adv-x="505" 
d="M162 196q0 57 18.5 93t77.5 81q57 45 80 75t23 67q0 49 -35.5 76.5t-88.5 27.5q-78 0 -151 -59q-9 -9 -16 -9q-8 0 -18 13l-24 34q-8 11 -8 18q0 9 14 21q94 77 206 77q96 0 160.5 -51.5t64.5 -141.5q0 -58 -32 -104.5t-98 -96.5q-44 -34 -58.5 -60t-14.5 -62v-14
q0 -21 -22 -21h-56q-22 0 -22 21v15zM149 48q0 26 17.5 42.5t44.5 16.5t44.5 -16.5t17.5 -42.5q0 -25 -17.5 -41.5t-44.5 -16.5q-26 0 -44 16.5t-18 41.5z" />
    <glyph glyph-name="at" unicode="@" horiz-adv-x="894" 
d="M703 -43q6 -10 6 -16q0 -11 -13 -18q-121 -78 -273 -78q-169 0 -282 112t-113 302q0 197 116.5 324.5t311.5 127.5q127 0 222 -52.5t141.5 -134.5t46.5 -180q0 -134 -66.5 -215.5t-156.5 -81.5q-52 0 -87.5 27t-47.5 73q-63 -78 -148 -78q-59 0 -96.5 43t-37.5 114
q0 64 28.5 127.5t80.5 106t112 42.5q77 0 112 -69l10 34q6 18 12 23.5t21 5.5h38q23 0 23 -14q0 -6 -3 -15l-49 -147q-24 -77 -24 -115q0 -34 17.5 -54.5t46.5 -20.5q52 0 89.5 58t37.5 152q0 124 -84 206t-238 82q-157 0 -248 -103t-91 -263q0 -154 87.5 -243.5
t222.5 -89.5q125 0 224 63q14 7 18 7q7 0 15 -12zM378 153q56 0 98.5 62.5t42.5 121.5q0 36 -17 58.5t-50 22.5q-55 0 -95 -61t-40 -124q0 -35 15 -57.5t46 -22.5z" />
    <glyph glyph-name="A" unicode="A" 
d="M303 663q14 30 22.5 40t18.5 10t18 -10t22 -40l301 -633q5 -12 5 -17q0 -13 -21 -13h-55q-16 0 -23.5 5.5t-15.5 22.5l-77 168q-5 12 -18 12h-275q-13 0 -19 -12l-76 -168q-8 -17 -15.5 -22.5t-23.5 -5.5h-51q-21 0 -21 13q0 5 5 17zM438 296q11 0 11 6q0 3 -3 9
l-104 224l-103 -224q-3 -6 -3 -10q0 -5 10 -5h192z" />
    <glyph glyph-name="B" unicode="B" horiz-adv-x="626" 
d="M88 678q0 13 5 17.5t17 4.5h196q263 0 263 -186q0 -113 -104 -152q57 -14 90.5 -54t33.5 -103q0 -205 -280 -205h-199q-12 0 -17 4.5t-5 17.5v656zM313 398q152 0 152 106q0 104 -166 104h-99q-12 0 -12 -12v-186q0 -12 12 -12h113zM309 92q93 0 134.5 26t41.5 86
q0 56 -42.5 79.5t-125.5 23.5h-117q-12 0 -12 -12v-191q0 -12 12 -12h109z" />
    <glyph glyph-name="C" unicode="C" horiz-adv-x="701" 
d="M668 115q5 -6 5 -14q0 -7 -12 -18q-112 -94 -259 -94q-150 0 -253 101.5t-103 256.5q0 156 103.5 260t258.5 104q144 0 254 -93q10 -7 10 -15q0 -7 -6 -16l-29 -39q-8 -11 -16 -11q-6 0 -17 8q-91 71 -198 71q-109 0 -182.5 -75t-73.5 -192q0 -113 73.5 -189t182.5 -76
q113 0 201 72q11 9 17 9q7 0 15 -10z" />
    <glyph glyph-name="D" unicode="D" horiz-adv-x="742" 
d="M88 678q0 13 5 17.5t17 4.5h208q175 0 276.5 -93t101.5 -249q0 -164 -105.5 -261t-286.5 -97h-194q-12 0 -17 4.5t-5 17.5v656zM306 95q136 0 211 69t75 190q0 115 -75 183t-207 68h-110q-12 0 -12 -11v-488q0 -11 12 -11h106z" />
    <glyph glyph-name="E" unicode="E" horiz-adv-x="565" 
d="M88 678q0 13 5 17.5t17 4.5h378q12 0 17 -4.5t5 -17.5v-51q0 -13 -5 -17.5t-17 -4.5h-288q-12 0 -12 -11v-183q0 -12 12 -12h254q12 0 17 -4.5t5 -17.5v-50q0 -22 -22 -22h-254q-12 0 -12 -11v-188q0 -11 12 -11h289q12 0 17 -4.5t5 -17.5v-51q0 -13 -5 -17.5t-17 -4.5
h-379q-12 0 -17 4.5t-5 17.5v656z" />
    <glyph glyph-name="F" unicode="F" horiz-adv-x="550" 
d="M88 678q0 13 5 17.5t17 4.5h381q12 0 17 -4.5t5 -17.5v-51q0 -13 -5 -17.5t-17 -4.5h-291q-12 0 -12 -11v-198q0 -11 12 -11h256q13 0 18 -5t5 -18v-50q0 -22 -23 -22h-256q-12 0 -12 -11v-257q0 -13 -5 -17.5t-17 -4.5h-56q-12 0 -17 4.5t-5 17.5v656z" />
    <glyph glyph-name="G" unicode="G" horiz-adv-x="746" 
d="M579 309q0 13 5 17.5t17 4.5h56q12 0 17 -4.5t5 -17.5v-229q0 -20 -18 -29q-117 -62 -260 -62q-149 0 -252 99t-103 257q0 163 106 264.5t262 101.5q139 0 249 -80q13 -9 13 -18q0 -5 -7 -15l-28 -40q-7 -10 -16 -10q-7 0 -16 6q-96 62 -197 62q-116 0 -189 -75t-73 -192
q0 -118 74.5 -192t182.5 -74q94 0 158 29q14 6 14 19v178z" />
    <glyph glyph-name="H" unicode="H" horiz-adv-x="731" 
d="M88 678q0 13 5 17.5t17 4.5h56q12 0 17 -4.5t5 -17.5v-260q0 -12 12 -12h331q12 0 12 12v260q0 13 5 17.5t17 4.5h56q12 0 17 -4.5t5 -17.5v-656q0 -13 -5 -17.5t-17 -4.5h-56q-12 0 -17 4.5t-5 17.5v279q0 11 -12 11h-331q-12 0 -12 -11v-279q0 -13 -5 -17.5t-17 -4.5
h-56q-12 0 -17 4.5t-5 17.5v656z" />
    <glyph glyph-name="I" unicode="I" horiz-adv-x="276" 
d="M88 678q0 13 5 17.5t17 4.5h56q12 0 17 -4.5t5 -17.5v-656q0 -13 -5 -17.5t-17 -4.5h-56q-12 0 -17 4.5t-5 17.5v656z" />
    <glyph glyph-name="J" unicode="J" horiz-adv-x="284" 
d="M-56 -120q2 18 17 18q3 0 18.5 -1.5t26.5 -1.5q45 0 70 35.5t25 104.5v643q0 13 5 17.5t17 4.5h56q12 0 17 -4.5t5 -17.5v-651q0 -227 -187 -227q-41 0 -60 6q-19 4 -16 24z" />
    <glyph glyph-name="K" unicode="K" horiz-adv-x="621" 
d="M88 678q0 13 5 17.5t17 4.5h56q12 0 17 -4.5t5 -17.5v-656q0 -13 -5 -17.5t-17 -4.5h-56q-12 0 -17 4.5t-5 17.5v656zM223 333q-9 11 -9 19q0 9 10 20l254 304q12 15 20 19.5t24 4.5h65q19 0 19 -11q0 -6 -7 -14l-271 -320l278 -329q8 -10 8 -15q0 -11 -20 -11h-69
q-17 0 -25 4.5t-20 18.5z" />
    <glyph glyph-name="L" unicode="L" horiz-adv-x="552" 
d="M88 678q0 13 5 17.5t17 4.5h56q12 0 17 -4.5t5 -17.5v-572q0 -11 12 -11h295q12 0 17 -4.5t5 -17.5v-51q0 -13 -5 -17.5t-17 -4.5h-385q-12 0 -17 4.5t-5 17.5v656z" />
    <glyph glyph-name="M" unicode="M" horiz-adv-x="846" 
d="M88 677q0 33 20 33q13 0 38 -29l279 -335l275 335q26 29 38 29q20 0 20 -33v-655q0 -13 -5 -17.5t-17 -4.5h-56q-12 0 -17 4.5t-5 17.5v466l-200 -246q-22 -28 -35 -28t-35 28l-200 246v-466q0 -13 -5 -17.5t-17 -4.5h-56q-12 0 -17 4.5t-5 17.5v655z" />
    <glyph glyph-name="N" unicode="N" horiz-adv-x="744" 
d="M88 678q0 33 21 33q15 0 41 -31l406 -479v477q0 13 5 17.5t17 4.5h56q12 0 17 -4.5t5 -17.5v-656q0 -33 -20 -33q-15 0 -42 31l-406 479v-477q0 -13 -5 -17.5t-17 -4.5h-56q-12 0 -17 4.5t-5 17.5v656z" />
    <glyph glyph-name="O" unicode="O" horiz-adv-x="814" 
d="M46 347q0 155 104 259.5t258 104.5t257 -102.5t103 -257.5t-104 -258.5t-260 -103.5q-153 0 -255.5 102t-102.5 256zM405 84q109 0 184 76t75 190q0 116 -74 191t-183 75t-183 -75.5t-74 -192.5q0 -114 73 -189t182 -75z" />
    <glyph glyph-name="P" unicode="P" horiz-adv-x="624" 
d="M88 678q0 13 5 17.5t17 4.5h193q284 0 284 -230q0 -115 -75.5 -177t-217.5 -62h-94q-12 0 -12 -11v-198q0 -13 -5 -17.5t-17 -4.5h-56q-12 0 -17 4.5t-5 17.5v656zM297 326q88 0 137 35t49 107q0 137 -186 137h-97q-12 0 -12 -11v-256q0 -12 12 -12h97z" />
    <glyph glyph-name="Q" unicode="Q" horiz-adv-x="814" 
d="M388 -11q-148 7 -245 108.5t-97 251.5q0 155 103 258.5t257 103.5q155 0 258.5 -103.5t103.5 -258.5q0 -130 -75.5 -225t-196.5 -122l89 -136q6 -11 6 -16q0 -11 -22 -11h-58q-17 0 -25 5t-18 21zM406 84q109 0 183.5 75.5t74.5 189.5q0 116 -74.5 191.5t-183.5 75.5
t-182.5 -75t-73.5 -192q0 -114 73.5 -189.5t182.5 -75.5z" />
    <glyph glyph-name="R" unicode="R" horiz-adv-x="635" 
d="M88 678q0 13 5 17.5t17 4.5h196q280 0 280 -215q0 -146 -137 -194l173 -261q8 -13 8 -19q0 -11 -22 -11h-60q-17 0 -26 5.5t-19 21.5l-145 224q-9 14 -26 14h-132q-12 0 -12 -12v-231q0 -13 -5 -17.5t-17 -4.5h-56q-12 0 -17 4.5t-5 17.5v656zM307 356q175 0 175 125
q0 124 -181 124h-101q-12 0 -12 -11v-226q0 -12 12 -12h107z" />
    <glyph glyph-name="S" unicode="S" horiz-adv-x="569" 
d="M56 151q8 11 15 11q5 0 15 -8q91 -71 183 -71q70 0 110.5 29t40.5 78q0 45 -34 69t-124 47q-110 28 -163 72t-53 129q0 94 67 149t169 55q126 0 228 -79q10 -9 10 -15q0 -4 -7 -16l-29 -43q-7 -11 -15 -11q-7 0 -17 7q-86 63 -171 63q-58 0 -94 -28t-36 -76q0 -47 35 -71
t119 -45q115 -30 167 -74.5t52 -125.5q0 -94 -71.5 -151t-185.5 -57q-130 0 -237 86q-11 10 -11 17t7 17z" />
    <glyph glyph-name="T" unicode="T" horiz-adv-x="574" 
d="M237 594q0 11 -12 11h-188q-12 0 -17 4.5t-5 17.5v51q0 13 5 17.5t17 4.5h500q12 0 17 -4.5t5 -17.5v-51q0 -13 -5 -17.5t-17 -4.5h-188q-12 0 -12 -11v-572q0 -13 -5 -17.5t-17 -4.5h-56q-12 0 -17 4.5t-5 17.5v572z" />
    <glyph glyph-name="U" unicode="U" horiz-adv-x="743" 
d="M84 678q0 13 5 17.5t17 4.5h55q13 0 18 -4.5t5 -17.5v-377q0 -103 48 -160t138 -57t140 57t50 159v378q0 12 5 17t16 5h56q13 0 18 -4.5t5 -17.5v-380q0 -151 -81 -230t-213 -79q-128 0 -205 77t-77 229v383z" />
    <glyph glyph-name="V" unicode="V" 
d="M4 670q-5 12 -5 17q0 13 21 13h55q16 0 24 -6t16 -24l232 -498l230 498q9 18 17 24t24 6h51q21 0 21 -13q0 -5 -5 -17l-302 -634q-15 -31 -22 -40.5t-16 -9.5t-16.5 10t-21.5 40z" />
    <glyph glyph-name="W" unicode="W" horiz-adv-x="967" 
d="M12 670q-3 9 -3 15q0 15 22 15h55q16 0 22.5 -5.5t14.5 -24.5l175 -472l155 432q10 25 17 34.5t18 9.5q10 0 17 -9t17 -35l153 -429l175 469q8 18 15 24t22 6h54q22 0 22 -15q0 -6 -3 -15l-245 -630q-12 -32 -19.5 -42.5t-17.5 -10.5t-18 10.5t-19 39.5l-155 425
l-155 -425q-10 -29 -17.5 -39.5t-18.5 -10.5t-18.5 10.5t-19.5 42.5z" />
    <glyph glyph-name="X" unicode="X" horiz-adv-x="615" 
d="M246 355l-220 321q-5 6 -5 13q0 11 18 11h70q14 0 21 -4.5t18 -19.5l163 -242l164 244q10 14 17.5 18t21.5 4h67q18 0 18 -10q0 -5 -6 -14l-221 -319l229 -333q6 -7 6 -13q0 -11 -18 -11h-70q-15 0 -22 4.5t-17 19.5l-172 253l-173 -255q-10 -14 -16.5 -18t-20.5 -4h-68
q-18 0 -18 11q0 5 6 13z" />
    <glyph glyph-name="Y" unicode="Y" horiz-adv-x="603" 
d="M252 259l-248 416q-5 10 -5 14q0 11 18 11h62q17 0 24 -4.5t17 -20.5l183 -316l184 316q10 16 17 20.5t23 4.5h59q19 0 19 -11q0 -4 -5 -14l-248 -411v-242q0 -13 -5 -17.5t-17 -4.5h-56q-12 0 -17 4.5t-5 17.5v237z" />
    <glyph glyph-name="Z" unicode="Z" horiz-adv-x="581" 
d="M385 605h-317q-12 1 -17 5.5t-5 16.5v51q0 13 5 17.5t17 4.5h450q28 0 28 -15q0 -6 -8 -19l-355 -571h331q13 0 18 -4.5t5 -17.5v-51q0 -13 -5 -17.5t-18 -4.5h-463q-28 0 -28 15q0 6 8 19z" />
    <glyph glyph-name="bracketleft" unicode="[" horiz-adv-x="320" 
d="M74 816q0 13 5 17.5t17 4.5h178q20 0 20 -19v-41q0 -20 -20 -20h-95q-12 0 -12 -12v-793q0 -12 12 -12h95q20 0 20 -19v-41q0 -20 -20 -20h-178q-12 0 -17 4.5t-5 17.5v933z" />
    <glyph glyph-name="backslash" unicode="\" horiz-adv-x="391" 
d="M5 688q-2 4 -2 10q0 13 18 13h52q14 0 20 -4t12 -18l282 -677q2 -4 2 -11q0 -12 -18 -12h-52q-14 0 -20 4t-12 18z" />
    <glyph glyph-name="bracketright" unicode="]" horiz-adv-x="320" 
d="M26 -78q0 19 20 19h95q12 0 12 12v793q0 12 -12 12h-95q-20 0 -20 20v41q0 19 20 19h177q12 0 17 -4.5t5 -17.5v-933q0 -13 -5 -17.5t-17 -4.5h-177q-20 0 -20 20v41z" />
    <glyph glyph-name="asciicircum" unicode="^" horiz-adv-x="513" 
d="M77 503q-12 7 -12 15q0 6 7 14l134 157q12 14 31 14h39q19 0 31 -14l134 -157q7 -10 7 -15q0 -7 -12 -14l-33 -19q-8 -5 -14 -5q-7 0 -18 12l-115 137l-114 -137q-11 -12 -18 -12q-6 0 -14 5z" />
    <glyph glyph-name="underscore" unicode="_" horiz-adv-x="500" 
d="M10 -112q0 23 22 23h436q22 0 22 -23v-34q0 -13 -5 -17.5t-17 -4.5h-436q-12 0 -17 4.5t-5 17.5v34z" />
    <glyph glyph-name="grave" unicode="`" horiz-adv-x="500" 
d="M140 929q10 9 18 9q7 0 18 -8l144 -118q10 -7 10 -14q0 -6 -9 -13l-25 -20q-9 -7 -14 -7t-18 8l-150 108q-11 8 -11 16q0 7 8 15z" />
    <glyph glyph-name="a" unicode="a" horiz-adv-x="531" 
d="M358 34q-44 -43 -128 -43q-83 0 -135 43t-52 119t52.5 119t134.5 43t128 -43q-5 141 -133 141q-14 0 -37 -2t-26 -2q-15 0 -18 18l-6 44v5q0 15 19 19q37 7 78 7q111 0 165.5 -62.5t54.5 -178.5v-243q0 -18 -17 -18h-62q-18 0 -18 18v16zM143 153q0 -42 31 -67t77 -25
t77 25t31 66q0 42 -31 67.5t-77 25.5t-77 -25t-31 -67z" />
    <glyph glyph-name="b" unicode="b" horiz-adv-x="571" 
d="M79 728q0 13 4.5 17.5t16.5 4.5h54q12 0 17 -4.5t5 -17.5v-227q0 -11 11 -11h53q138 0 212 -64.5t74 -178.5q0 -112 -74 -179.5t-211 -67.5h-141q-12 0 -16.5 4t-4.5 17v707zM238 88q88 0 138 42t50 117q0 77 -50.5 115.5t-137.5 38.5h-51q-11 0 -11 -11v-289
q0 -13 11 -13h51z" />
    <glyph glyph-name="c" unicode="c" horiz-adv-x="522" 
d="M479 69q3 -5 3 -10q0 -10 -10 -17q-73 -53 -172 -53q-109 0 -182 71t-73 182q0 114 74 187t182 73q98 0 172 -52q9 -8 9 -16q0 -7 -4 -14l-29 -44q-6 -9 -13 -9q-5 0 -15 6q-62 37 -118 37q-69 0 -113.5 -47.5t-44.5 -119.5q0 -69 44.5 -115.5t113.5 -46.5q66 0 120 38
q10 6 14 6q7 0 14 -10z" />
    <glyph glyph-name="d" unicode="d" horiz-adv-x="571" 
d="M330 0q-138 0 -211.5 65t-73.5 177q0 113 75 180.5t212 67.5h52q11 0 11 11v227q0 13 5 17.5t17 4.5h53q12 0 17 -4.5t5 -17.5v-707q0 -12 -5 -16.5t-17 -4.5h-140zM384 89q11 0 11 12v289q0 12 -11 12h-51q-86 0 -137 -41t-51 -119q0 -75 49.5 -114t138.5 -39h51z" />
    <glyph glyph-name="e" unicode="e" horiz-adv-x="575" 
d="M497 80q4 -7 4 -14q0 -10 -11 -17q-81 -60 -192 -60q-113 0 -183 72.5t-70 181.5q0 113 70 186t176 73q105 0 172 -70.5t67 -176.5v-17q0 -18 -17 -18h-368q6 -64 49.5 -104.5t110.5 -40.5q74 0 141 45q9 6 16 6q8 0 13 -9zM427 295q-9 56 -45.5 90.5t-91.5 34.5
q-53 0 -90.5 -32.5t-51.5 -92.5h279z" />
    <glyph glyph-name="f" unicode="f" horiz-adv-x="353" 
d="M94 401h-52q-13 0 -17.5 5t-4.5 17v45q0 12 4.5 17t17.5 5h52v27q0 233 187 233q37 0 58 -5q20 -3 17 -24l-5 -44q-1 -19 -18 -19q-3 0 -17 1.5t-24 1.5q-102 0 -102 -143v-28h106q13 0 17.5 -5t4.5 -17v-45q0 -12 -4.5 -17t-17.5 -5h-106v-381q0 -20 -19 -20h-59
q-18 0 -18 20v381z" />
    <glyph glyph-name="g" unicode="g" horiz-adv-x="570" 
d="M145 -141q5 17 17 17q1 0 35 -8.5t65 -8.5q130 0 133 132q0 9 -7 9h-56q-138 0 -212.5 64t-74.5 178q0 112 74.5 180t212.5 68h139q12 0 17 -4.5t5 -17.5v-461q0 -117 -58.5 -177t-171.5 -60q-70 0 -119 21q-13 6 -13 18q0 5 1 9zM384 89q11 0 11 12v289q0 12 -11 12h-51
q-86 0 -137 -41t-51 -119q0 -74 50 -113.5t138 -39.5h51z" />
    <glyph glyph-name="h" unicode="h" horiz-adv-x="589" 
d="M79 730q0 20 21 20h53q23 0 23 -20v-296q52 66 143 66q95 0 144.5 -59.5t49.5 -170.5v-252q0 -18 -17 -18h-62q-18 0 -18 18v245q0 71 -31 109.5t-89 38.5q-57 0 -88.5 -38.5t-31.5 -109.5v-245q0 -18 -17 -18h-62q-18 0 -18 18v712z" />
    <glyph glyph-name="i" unicode="i" horiz-adv-x="255" 
d="M66 661q0 27 17 44.5t44 17.5t44.5 -17.5t17.5 -44.5q0 -26 -17.5 -43.5t-44.5 -17.5t-44 17.5t-17 43.5zM79 468q0 13 5 17.5t17 4.5h53q12 0 17 -4.5t5 -17.5v-446q0 -13 -5 -17.5t-17 -4.5h-53q-12 0 -17 4.5t-5 17.5v446z" />
    <glyph glyph-name="j" unicode="j" horiz-adv-x="255" 
d="M67 661q0 27 17 44.5t44 17.5t44.5 -17.5t17.5 -44.5q0 -26 -17.5 -43.5t-44.5 -17.5t-44 17.5t-17 43.5zM-69 -157q1 19 17 19q3 0 17 -1.5t23 -1.5q44 0 68 35.5t24 103.5v472q0 20 19 20h59q19 0 19 -20v-476q0 -224 -180 -224q-36 0 -55 5q-19 3 -16 24z" />
    <glyph glyph-name="k" unicode="k" horiz-adv-x="521" 
d="M79 728q0 13 5 17.5t17 4.5h53q12 0 17 -4.5t5 -17.5v-706q0 -13 -5 -17.5t-17 -4.5h-53q-12 0 -17 4.5t-5 17.5v706zM198 234q-7 10 -7 14q0 5 7 15l175 208q16 19 37 19h72q15 0 15 -9q0 -7 -7 -15l-183 -213l205 -231q5 -7 5 -12q0 -10 -15 -10h-76q-23 0 -38 18z" />
    <glyph glyph-name="l" unicode="l" horiz-adv-x="255" 
d="M79 728q0 13 5 17.5t17 4.5h53q12 0 17 -4.5t5 -17.5v-706q0 -13 -5 -17.5t-17 -4.5h-53q-12 0 -17 4.5t-5 17.5v706z" />
    <glyph glyph-name="m" unicode="m" horiz-adv-x="878" 
d="M79 465q0 25 25 25h46q26 0 26 -25v-31q47 66 134 66q108 0 153 -95q54 95 161 95q87 0 133 -59.5t46 -170.5v-252q0 -18 -17 -18h-63q-18 0 -18 18v245q0 71 -27.5 109.5t-79.5 38.5t-80.5 -38.5t-28.5 -109.5v-245q0 -18 -17 -18h-62q-18 0 -18 18v245q0 71 -28 109.5
t-80 38.5t-80 -38.5t-28 -109.5v-245q0 -18 -17 -18h-62q-18 0 -18 18v447z" />
    <glyph glyph-name="n" unicode="n" horiz-adv-x="589" 
d="M79 465q0 25 25 25h46q26 0 26 -25v-31q50 66 143 66q95 0 144.5 -59.5t49.5 -170.5v-252q0 -18 -17 -18h-62q-18 0 -18 18v245q0 71 -31 109.5t-89 38.5q-57 0 -88.5 -38.5t-31.5 -109.5v-245q0 -18 -17 -18h-62q-18 0 -18 18v447z" />
    <glyph glyph-name="o" unicode="o" horiz-adv-x="605" 
d="M299 -11q-108 0 -181 73.5t-73 182.5t74.5 183t183.5 74t183 -74t74 -183t-75 -182.5t-186 -73.5zM300 81q66 0 113 47.5t47 116.5q0 71 -45.5 118t-112.5 47t-112 -47t-45 -118q0 -70 44.5 -117t110.5 -47z" />
    <glyph glyph-name="p" unicode="p" horiz-adv-x="571" 
d="M79 469q0 13 4.5 17t16.5 4h141q138 0 211.5 -65t73.5 -177q0 -114 -75 -181t-212 -67h-52q-11 0 -11 -11v-197q0 -13 -5 -17.5t-17 -4.5h-54q-12 0 -16.5 4.5t-4.5 17.5v677zM238 88q86 0 137 41t51 119q0 75 -49.5 114t-138.5 39h-51q-11 0 -11 -12v-289q0 -12 11 -12
h51z" />
    <glyph glyph-name="q" unicode="q" horiz-adv-x="571" 
d="M395 -11q0 11 -10 11h-53q-138 0 -212.5 64t-74.5 178q0 112 74.5 180t212.5 68h139q12 0 17 -4.5t5 -17.5v-676q0 -13 -5 -17.5t-17 -4.5h-54q-12 0 -17 4.5t-5 17.5v197zM384 89q11 0 11 12v289q0 12 -11 12h-51q-86 0 -137 -41t-51 -119q0 -74 50 -113.5t138 -39.5h51
z" />
    <glyph glyph-name="r" unicode="r" horiz-adv-x="381" 
d="M79 466q0 14 4 19t17 5h54q13 0 17.5 -5.5t4.5 -18.5v-36q47 70 144 70h9q14 0 19 -5.5t5 -19.5v-49q0 -25 -24 -25h-23q-65 0 -97.5 -34.5t-32.5 -111.5v-237q0 -18 -17 -18h-62q-18 0 -18 18v448z" />
    <glyph glyph-name="s" unicode="s" horiz-adv-x="476" 
d="M68 114q6 9 12 9q5 0 12 -5q69 -48 143 -48q44 0 71 16.5t27 44.5t-23.5 41.5t-93.5 31.5q-85 23 -125.5 57.5t-40.5 95.5q0 68 51.5 106.5t131.5 38.5q106 0 182 -51q9 -6 9 -13q0 -4 -5 -14l-24 -40q-5 -8 -12 -8q-6 0 -13 4q-74 41 -135 41q-37 0 -61.5 -15.5
t-24.5 -43.5t27.5 -45t88.5 -32q91 -23 129 -55t38 -95q0 -69 -53 -107.5t-145 -38.5q-115 0 -189 57q-9 7 -9 14q0 5 6 14z" />
    <glyph glyph-name="t" unicode="t" horiz-adv-x="348" 
d="M124 401h-88q-13 0 -17.5 5t-4.5 17v45q0 12 4.5 17t17.5 5h88v110q0 13 5 17.5t17 4.5h52q12 0 17 -4.5t5 -17.5v-110h89q13 0 17.5 -5t4.5 -17v-45q0 -12 -4.5 -17t-17.5 -5h-89v-379q0 -13 -5 -17.5t-17 -4.5h-52q-12 0 -17 4.5t-5 17.5v379z" />
    <glyph glyph-name="u" unicode="u" horiz-adv-x="586" 
d="M76 472q0 18 17 18h62q18 0 18 -18v-245q0 -148 119 -148q121 0 121 148v245q0 18 18 18h62q17 0 17 -18v-253q0 -111 -56 -170.5t-162 -59.5q-105 0 -160.5 59t-55.5 171v253z" />
    <glyph glyph-name="v" unicode="v" horiz-adv-x="544" 
d="M15 463q-5 10 -5 16q0 11 19 11h60q14 0 20.5 -5t14.5 -22l150 -298l148 298q9 17 15 22t20 5h58q19 0 19 -12q0 -5 -5 -15l-221 -432q-14 -27 -21 -36t-15 -9t-15 9t-21 36z" />
    <glyph glyph-name="w" unicode="w" horiz-adv-x="822" 
d="M18 463q-5 10 -5 15q0 12 19 12h59q14 0 20.5 -5t14.5 -22l132 -298l126 277q14 28 28 28t28 -28l127 -277l130 298q8 17 14 22t20 5h59q18 0 18 -12q0 -7 -4 -15l-198 -432q-13 -26 -20 -35t-16 -9q-15 0 -36 44l-123 264l-125 -264q-20 -44 -36 -44q-15 0 -35 44z" />
    <glyph glyph-name="x" unicode="x" horiz-adv-x="483" 
d="M179 250l-156 216q-6 8 -6 14q0 10 12 10h72q23 0 35 -19l107 -148l106 148q14 19 35 19h70q13 0 13 -10q0 -6 -6 -14l-156 -214l167 -229q5 -7 5 -13q0 -10 -13 -10h-76q-21 0 -35 18l-113 157l-112 -157q-13 -18 -35 -18h-74q-13 0 -13 10q0 6 5 13z" />
    <glyph glyph-name="y" unicode="y" horiz-adv-x="544" 
d="M225 25l-211 438q-4 8 -4 15q0 12 19 12h57q15 0 22 -5t14 -21l157 -327l147 331q10 22 33 22h58q18 0 18 -13q0 -6 -4 -14l-305 -670q-11 -23 -26 -23h-73q-14 0 -14 10q0 3 4 13z" />
    <glyph glyph-name="z" unicode="z" horiz-adv-x="487" 
d="M291 401h-222q-15 0 -21.5 4.5t-6.5 17.5v46q0 21 24 21h363q20 0 20 -14q0 -7 -6 -16l-257 -371h232q15 0 20.5 -4.5t5.5 -16.5v-47q0 -12 -5 -16.5t-21 -4.5h-369q-21 0 -21 12q0 7 6 16z" />
    <glyph glyph-name="braceleft" unicode="{" horiz-adv-x="347" 
d="M111 211q0 90 -74 99q-20 2 -20 20v40q0 18 20 20q74 9 74 99v154q0 95 48 145.5t142 50.5q20 0 20 -17v-45q0 -11 -4 -14.5t-16 -4.5q-53 -4 -75 -33t-22 -92v-145q0 -58 -20 -90t-67 -48q47 -16 67 -48t20 -90v-145q0 -63 22 -92t75 -33q12 -1 16 -4.5t4 -14.5v-45
q0 -17 -20 -17q-94 0 -142 50.5t-48 145.5v154z" />
    <glyph glyph-name="bar" unicode="|" horiz-adv-x="262" 
d="M88 778q0 12 4.5 17t17.5 5h42q13 0 17.5 -5t4.5 -17v-886q0 -12 -4.5 -17t-17.5 -5h-42q-13 0 -17.5 5t-4.5 17v886z" />
    <glyph glyph-name="braceright" unicode="}" horiz-adv-x="347" 
d="M26 -77q0 11 4 14.5t16 4.5q53 4 75 33t22 92v145q0 58 20 90t67 48q-47 16 -67 48t-20 90v145q0 63 -22 92t-75 33q-12 1 -16 4.5t-4 14.5v45q0 17 19 17q95 0 143 -50.5t48 -145.5v-154q0 -90 74 -99q20 -2 20 -20v-40q0 -18 -20 -20q-74 -9 -74 -99v-154
q0 -95 -48 -145.5t-143 -50.5q-19 0 -19 17v45z" />
    <glyph glyph-name="asciitilde" unicode="~" horiz-adv-x="672" 
d="M82 284q-8 10 -8 16q0 7 8 17q64 76 149 76q44 0 113.5 -31t98.5 -31q48 0 92 51q9 10 17 10q7 0 15 -8l24 -28q8 -8 8 -16q0 -6 -8 -17q-63 -76 -150 -76q-44 0 -113.5 31t-98.5 31q-48 0 -92 -51q-7 -10 -16 -10q-8 0 -15 8z" />
    <glyph glyph-name="uni00A0" unicode="&#xa0;" horiz-adv-x="275" 
 />
    <glyph glyph-name="exclamdown" unicode="&#xa1;" horiz-adv-x="253" 
d="M64 652q0 25 17.5 41.5t44.5 16.5t45 -16.5t18 -41.5q0 -26 -18 -42.5t-45 -16.5t-44.5 16.5t-17.5 42.5zM86 511q1 18 6 23.5t19 5.5h30q14 0 19 -5.5t6 -23.5l19 -474q1 -21 -6 -29t-26 -8h-53q-20 0 -27 8t-5 29z" />
    <glyph glyph-name="cent" unicode="&#xa2;" horiz-adv-x="672" 
d="M321 71q-108 15 -177.5 90t-69.5 185q0 111 69.5 188.5t177.5 93.5v118q0 12 4.5 17t17.5 5h36q13 0 17.5 -5t4.5 -17v-118q102 -9 181 -77q12 -9 12 -18t-7 -17l-24 -38q-7 -10 -16 -10q-8 0 -16 7q-62 50 -130 57v-364q69 7 132 58q11 9 17 9q7 0 14 -10l24 -38
q6 -9 6 -16q0 -8 -13 -20q-84 -68 -180 -79v-118q0 -12 -4.5 -17t-17.5 -5h-36q-13 0 -17.5 5t-4.5 17v117zM321 530q-67 -13 -106.5 -61t-39.5 -120q0 -70 40 -118t106 -61v360z" />
    <glyph glyph-name="sterling" unicode="&#xa3;" horiz-adv-x="672" 
d="M81 40q-4 10 -4 12q0 8 12 15q44 28 72 67.5t28 82.5q0 32 -15 75h-97q-12 0 -17 4.5t-5 17.5v42q0 13 5 17.5t17 4.5h70q-19 50 -19 98q0 104 69 169.5t184 65.5q121 0 206 -79q9 -8 9 -15q0 -6 -6 -15l-29 -41q-7 -9 -13 -9q-5 0 -15 8q-70 56 -152 56
q-68 0 -109.5 -38.5t-41.5 -102.5q0 -44 20 -97h218q12 0 16.5 -5t4.5 -17v-42q0 -12 -4.5 -17t-16.5 -5h-195q11 -38 11 -70t-15.5 -65t-34.5 -53q16 2 36 2q36 0 97 -12.5t94 -12.5q59 0 107 29q10 5 14 5q8 0 13 -11l20 -43q4 -10 4 -13q0 -9 -14 -18q-61 -41 -149 -41
q-37 0 -102.5 13t-104.5 13q-63 0 -120 -25q-8 -4 -14 -4t-12 9z" />
    <glyph glyph-name="currency" unicode="&#xa4;" horiz-adv-x="672" 
d="M93 112q-9 9 -9 16t9 16l78 78q-32 46 -32 104q0 60 32 104l-78 79q-9 9 -9 16t9 16l28 28q9 9 16 9q9 0 16 -9l79 -78q49 32 104 32q53 0 104 -32l79 78q7 9 15 9q7 0 16 -9l29 -28q9 -9 9 -16t-9 -16l-79 -79q32 -44 32 -104q0 -58 -32 -104l79 -78q9 -9 9 -16t-9 -16
l-29 -29q-9 -9 -16 -9q-6 0 -15 9l-79 79q-48 -32 -104 -32q-58 0 -104 32l-79 -79q-9 -9 -16 -9t-16 9zM336 214q46 0 79 33t33 79t-33 79t-79 33t-79 -33t-33 -79t33 -79t79 -33z" />
    <glyph glyph-name="yen" unicode="&#xa5;" horiz-adv-x="599" 
d="M110 156q0 12 4.5 16.5t17.5 4.5h110q8 0 8 8v41q0 8 -8 8h-110q-13 0 -17.5 4t-4.5 16v34q0 12 4.5 16t17.5 4h110q8 0 8 8v12l-246 347q-6 7 -6 13q0 12 19 12h64q16 0 23 -4.5t17 -19.5l179 -261l181 261q12 15 19 19.5t22 4.5h59q20 0 20 -11q0 -8 -7 -16l-244 -341
v-16q0 -8 8 -8h110q13 0 17.5 -4t4.5 -16v-34q0 -12 -4.5 -16t-17.5 -4h-110q-8 0 -8 -8v-41q0 -8 8 -8h110q13 0 17.5 -4.5t4.5 -16.5v-33q0 -12 -4.5 -16.5t-17.5 -4.5h-110q-8 0 -8 -8v-72q0 -13 -5 -17.5t-17 -4.5h-56q-12 0 -17 4.5t-5 17.5v72q0 8 -8 8h-110
q-13 0 -17.5 4.5t-4.5 16.5v33z" />
    <glyph glyph-name="brokenbar" unicode="&#xa6;" horiz-adv-x="262" 
d="M88 778q0 12 4.5 17t17.5 5h42q13 0 17.5 -5t4.5 -17v-356q0 -12 -4.5 -17t-17.5 -5h-42q-13 0 -17.5 5t-4.5 17v356zM88 248q0 12 4.5 17t17.5 5h42q13 0 17.5 -5t4.5 -17v-356q0 -12 -4.5 -17t-17.5 -5h-42q-13 0 -17.5 5t-4.5 17v356z" />
    <glyph glyph-name="section" unicode="&#xa7;" horiz-adv-x="595" 
d="M54 -28q7 11 14 11q6 0 14 -7q88 -63 179 -63q63 0 102 23.5t39 66.5q0 42 -32.5 61t-116.5 39q-100 24 -153.5 63.5t-53.5 114.5q0 89 90 140q-40 38 -40 104q0 87 65 136.5t158 49.5q123 0 218 -73q11 -8 11 -16q0 -7 -7 -15l-29 -42q-7 -10 -14 -10q-6 0 -15 6
q-73 55 -160 55q-55 0 -88.5 -22t-33.5 -64q0 -41 33.5 -61.5t109.5 -39.5q109 -26 160.5 -63.5t51.5 -112.5q0 -45 -25.5 -81.5t-63.5 -58.5q40 -40 40 -104q0 -87 -70.5 -139t-177.5 -52q-126 0 -230 80q-11 7 -11 16q0 8 7 16zM389 163q63 27 63 80q0 39 -33 58.5
t-114 38.5q-66 18 -91 28q-63 -25 -63 -79q0 -39 34.5 -60t108.5 -37q66 -16 95 -29z" />
    <glyph glyph-name="dieresis" unicode="&#xa8;" horiz-adv-x="500" 
d="M104 814q0 24 14.5 38.5t38.5 14.5t39 -14.5t15 -38.5q0 -23 -15 -38t-39 -15t-38.5 15t-14.5 38zM289 814q0 24 14.5 38.5t38.5 14.5q25 0 39.5 -14.5t14.5 -38.5t-15 -38.5t-39 -14.5t-38.5 15t-14.5 38z" />
    <glyph glyph-name="copyright" unicode="&#xa9;" horiz-adv-x="524" 
d="M26 473q0 99 69 168.5t169 69.5q98 0 166 -68.5t68 -165.5q0 -100 -69 -169t-168 -69q-98 0 -166.5 68t-68.5 166zM262 288q78 0 131.5 54.5t53.5 132.5q0 79 -53 133t-132 54q-78 0 -131.5 -54.5t-53.5 -132.5q0 -80 53 -133.5t132 -53.5zM367 395q4 -6 4 -8q0 -3 -6 -7
q-41 -34 -96 -34t-92.5 36t-37.5 91q0 56 38 93.5t95 37.5q53 0 93 -33q8 -7 3 -15l-19 -28q-6 -9 -14 -2q-28 23 -62 23q-31 0 -51.5 -21t-20.5 -54q0 -32 20.5 -52t51.5 -20q36 0 63 22q8 8 13 -1z" />
    <glyph glyph-name="ordfeminine" unicode="&#xaa;" horiz-adv-x="425" 
d="M292 358q-61 -50 -134 -50q-58 0 -93.5 33.5t-35.5 86.5q0 138 240 138h22v4q0 73 -86 73q-59 0 -114 -39q-6 -5 -12 -5t-12 7l-16 26q-6 7 -6 13q0 7 10 14q71 52 156 52q72 0 114 -35t42 -103v-242q0 -16 -16 -16h-43q-16 0 -16 16v27zM291 495q0 11 -12 11h-8
q-165 0 -165 -74q0 -26 18.5 -41.5t49.5 -15.5q55 0 103 35q14 11 14 25v60z" />
    <glyph glyph-name="guillemotleft" unicode="&#xab;" horiz-adv-x="475" 
d="M52 289q-22 24 -22 48v26q0 24 22 48l134 152q7 10 15 10q9 0 15 -12l19 -35q6 -11 6 -17q0 -9 -11 -22l-122 -137l122 -137q11 -13 11 -22q0 -7 -6 -17l-19 -35q-6 -12 -15 -12q-8 0 -15 10zM246 289q-22 24 -22 48v26q0 24 22 48l134 152q7 10 15 10q9 0 15 -12l19 -35
q6 -11 6 -17q0 -9 -11 -22l-122 -137l122 -137q11 -13 11 -22q0 -7 -6 -17l-19 -35q-6 -12 -15 -12q-8 0 -15 10z" />
    <glyph glyph-name="logicalnot" unicode="&#xac;" horiz-adv-x="672" 
d="M73 407q0 13 5 17.5t17 4.5h437q12 0 17 -4.5t5 -17.5v-261q0 -12 -4.5 -17t-17.5 -5h-41q-22 0 -22 22v186q0 12 -11 12h-363q-12 0 -17 4.5t-5 17.5v41z" />
    <glyph glyph-name="uni00AD" unicode="&#xad;" horiz-adv-x="429" 
d="M50 286q0 13 5 17.5t17 4.5h284q23 0 23 -22v-42q0 -22 -23 -22h-284q-12 0 -17 4.5t-5 17.5v42z" />
    <glyph glyph-name="registered" unicode="&#xae;" horiz-adv-x="524" 
d="M26 473q0 99 69 168.5t169 69.5q98 0 166 -68.5t68 -165.5q0 -100 -69 -169t-168 -69q-98 0 -166.5 68t-68.5 166zM262 288q78 0 131.5 54.5t53.5 132.5q0 79 -53 133t-132 54q-78 0 -131.5 -54.5t-53.5 -132.5q0 -80 53 -133.5t132 -53.5zM162 586q0 14 14 14h86
q106 0 106 -82q0 -50 -46 -72l54 -79q4 -5 4 -9q0 -6 -11 -6h-40q-13 0 -21 12l-38 60q-6 8 -14 8h-29q-5 0 -5 -6v-60q0 -14 -14 -14h-32q-14 0 -14 14v220zM261 480q45 0 45 35q0 33 -45 33h-31q-8 0 -8 -8v-52q0 -8 8 -8h31z" />
    <glyph glyph-name="macron" unicode="&#xaf;" horiz-adv-x="500" 
d="M108 838q0 12 4.5 16.5t17.5 4.5h240q13 0 17.5 -4.5t4.5 -16.5v-36q0 -12 -4.5 -16t-17.5 -4h-240q-13 0 -17.5 4t-4.5 16v36z" />
    <glyph glyph-name="degree" unicode="&#xb0;" horiz-adv-x="376" 
d="M38 561q0 62 44 106t106 44t106 -44t44 -106t-44 -106t-106 -44t-106 44t-44 106zM112 561q0 -31 22 -53.5t54 -22.5t54 22.5t22 53.5t-22 53.5t-54 22.5t-54 -22.5t-22 -53.5z" />
    <glyph glyph-name="plusminus" unicode="&#xb1;" horiz-adv-x="672" 
d="M90 393q0 22 23 22h169q12 0 12 12v156q0 12 4.5 17t17.5 5h40q23 0 23 -22v-156q0 -12 11 -12h170q12 0 17 -4.5t5 -17.5v-40q0 -13 -5 -17.5t-17 -4.5h-170q-11 0 -11 -12v-156q0 -12 -5 -16.5t-18 -4.5h-40q-13 0 -17.5 4.5t-4.5 16.5v156q0 12 -12 12h-169
q-23 0 -23 22v40zM90 63q0 22 23 22h447q22 0 22 -22v-41q0 -13 -5 -17.5t-17 -4.5h-447q-23 0 -23 22v41z" />
    <glyph glyph-name="uni00B2" unicode="&#xb2;" horiz-adv-x="364" 
d="M157 607q68 76 68 113q0 27 -18 42t-47 15q-47 0 -85 -32q-7 -5 -10 -5q-5 0 -10 7l-21 32q-4 5 -4 11t7 12q56 47 127 47q64 0 102 -34t38 -89q0 -34 -15 -62.5t-51 -68.5l-74 -83h145q16 0 16 -15v-41q0 -15 -16 -15h-274q-15 0 -15 8q0 5 6 13z" />
    <glyph glyph-name="uni00B3" unicode="&#xb3;" horiz-adv-x="364" 
d="M41 535q6 9 12 9q4 0 9 -5q42 -35 100 -35q40 0 65.5 18.5t25.5 48.5q0 65 -114 65q-16 0 -16 9q0 3 5 11l77 113h-150q-16 0 -16 15v41q0 15 16 15h260q13 0 13 -8q0 -6 -6 -14l-93 -132q48 -8 75.5 -37t27.5 -76q0 -62 -46.5 -101.5t-124.5 -39.5q-80 0 -136 46
q-9 8 -9 14q0 2 4 10z" />
    <glyph glyph-name="acute" unicode="&#xb4;" horiz-adv-x="500" 
d="M179 785q-8 8 -8 13q0 6 9 14l144 118q11 8 18 8q8 0 18 -9l29 -24q8 -8 8 -15q0 -8 -11 -16l-150 -108q-13 -8 -18 -8t-14 7z" />
    <glyph glyph-name="uni00B5" unicode="&#xb5;" horiz-adv-x="587" 
d="M77 472q0 18 17 18h63q18 0 18 -18v-245q0 -148 119 -148q120 0 120 148v245q0 18 18 18h63q17 0 17 -18v-253q0 -111 -56.5 -170.5t-161.5 -59.5q-77 0 -119 44v-241q0 -13 -5 -17.5t-17 -4.5h-54q-12 0 -17 4.5t-5 17.5v680z" />
    <glyph glyph-name="paragraph" unicode="&#xb6;" horiz-adv-x="590" 
d="M243 231q-93 5 -156 71t-63 160q0 100 69.5 169t171.5 69h275q12 0 17 -4.5t5 -17.5v-34q0 -13 -5 -17.5t-17 -4.5h-53q-12 0 -12 -12v-748q0 -13 -4.5 -17.5t-17.5 -4.5h-34q-12 0 -17 4.5t-5 17.5v748q0 12 -12 12h-121q-69 0 -114 -45.5t-45 -112.5q0 -68 45 -113.5
t114 -45.5h35q22 0 22 -21v-422q0 -13 -5 -17.5t-17 -4.5h-34q-12 0 -17 4.5t-5 17.5v369zM209 464q0 23 15.5 37.5t37.5 14.5t37 -14.5t15 -37.5q0 -22 -15 -37t-37 -15t-37.5 15t-15.5 37z" />
    <glyph glyph-name="periodcentered" unicode="&#xb7;" horiz-adv-x="227" 
d="M51 352q0 26 17.5 42.5t44.5 16.5t45 -16.5t18 -42.5t-18 -42.5t-45 -16.5t-44.5 16.5t-17.5 42.5z" />
    <glyph glyph-name="cedilla" unicode="&#xb8;" horiz-adv-x="500" 
d="M141 -171q4 10 10 10q4 0 10 -3q35 -15 70 -15q62 0 62 40t-61 40q-18 0 -44 -4h-5q-9 0 -9 7q0 5 2 8l49 98h65l-30 -59q50 0 78.5 -24t28.5 -64q0 -47 -38 -75.5t-98 -28.5q-49 0 -93 21q-12 6 -12 13q0 4 3 10z" />
    <glyph glyph-name="uni00B9" unicode="&#xb9;" horiz-adv-x="266" 
d="M101 761q0 9 -9 9h-48q-15 0 -15 15v40q0 15 15 15h119q15 0 15 -15v-369q0 -15 -15 -15h-46q-16 0 -16 15v305z" />
    <glyph glyph-name="ordmasculine" unicode="&#xba;" horiz-adv-x="425" 
d="M210 308q-81 0 -133 54t-52 145q0 92 53 148t137 56q81 0 133 -54t52 -145q0 -92 -53 -148t-137 -56zM212 377q50 0 80 36t30 96q0 61 -29.5 97t-79.5 36q-51 0 -80.5 -36t-29.5 -97t29.5 -96.5t79.5 -35.5z" />
    <glyph glyph-name="guillemotright" unicode="&#xbb;" horiz-adv-x="475" 
d="M46 174q-6 10 -6 17q0 9 11 22l122 137l-122 137q-11 13 -11 22q0 7 6 17l19 35q6 12 14 12q7 0 16 -10l134 -152q14 -16 18 -24.5t4 -23.5v-26q0 -15 -4 -23.5t-18 -24.5l-134 -152q-9 -10 -16 -10q-8 0 -14 12zM240 174q-6 11 -6 17q0 9 11 22l122 137l-122 137
q-11 13 -11 22q0 7 6 17l19 35q6 12 14 12q7 0 16 -10l134 -152q14 -16 18 -24.5t4 -23.5v-26q0 -15 -4 -23.5t-18 -24.5l-134 -152q-9 -10 -16 -10q-8 0 -14 12z" />
    <glyph glyph-name="onequarter" unicode="&#xbc;" horiz-adv-x="725" 
d="M549 690q10 13 16.5 17t20.5 4h40q20 0 20 -12q0 -5 -13 -23l-504 -666q-9 -13 -15.5 -17t-20.5 -4h-40q-20 0 -20 12q0 7 13 23zM101 621q0 9 -9 9h-48q-15 0 -15 15v40q0 15 15 15h119q15 0 15 -15v-369q0 -15 -15 -15h-46q-16 0 -16 15v305zM570 385q21 25 36 25
q22 0 22 -30v-225h41q15 0 15 -15v-37q0 -16 -15 -16h-41v-72q0 -15 -15 -15h-46q-16 0 -16 15v72h-184q-26 0 -26 19q0 11 10 22zM552 155v123l-102 -123h102z" />
    <glyph glyph-name="onehalf" unicode="&#xbd;" horiz-adv-x="799" 
d="M549 690q10 13 16.5 17t20.5 4h40q20 0 20 -12q0 -5 -13 -23l-504 -666q-9 -13 -15.5 -17t-20.5 -4h-40q-20 0 -20 12q0 7 13 23zM101 621q0 9 -9 9h-48q-15 0 -15 15v40q0 15 15 15h119q15 0 15 -15v-369q0 -15 -15 -15h-46q-16 0 -16 15v305zM589 166q68 76 68 113
q0 27 -18 42t-47 15q-47 0 -85 -32q-7 -5 -10 -5q-5 0 -10 7l-21 32q-4 5 -4 11t7 12q56 47 127 47q64 0 102 -34t38 -89q0 -34 -15 -62.5t-51 -68.5l-74 -83h145q16 0 16 -15v-41q0 -15 -16 -15h-274q-15 0 -15 8q0 6 6 13z" />
    <glyph glyph-name="threequarters" unicode="&#xbe;" horiz-adv-x="828" 
d="M652 690q10 13 16.5 17t20.5 4h40q20 0 20 -12q0 -5 -13 -23l-504 -666q-9 -13 -15.5 -17t-20.5 -4h-40q-20 0 -20 12q0 7 13 23zM41 395q6 9 12 9q4 0 9 -5q42 -35 100 -35q40 0 65.5 18.5t25.5 48.5q0 65 -114 65q-16 0 -16 9q0 3 5 11l77 113h-150q-16 0 -16 15v41
q0 15 16 15h260q13 0 13 -8q0 -6 -6 -14l-93 -132q48 -8 75.5 -37t27.5 -76q0 -62 -46.5 -101.5t-124.5 -39.5q-80 0 -136 46q-9 8 -9 14q0 2 4 10zM672 385q21 25 36 25q22 0 22 -30v-225h41q15 0 15 -15v-37q0 -16 -15 -16h-41v-72q0 -15 -15 -15h-46q-16 0 -16 15v72
h-184q-26 0 -26 19q0 11 10 22zM654 155v123l-102 -123h102z" />
    <glyph glyph-name="questiondown" unicode="&#xbf;" horiz-adv-x="505" 
d="M232 652q0 25 17.5 41.5t44.5 16.5t45 -16.5t18 -41.5q0 -26 -18 -42.5t-45 -16.5t-44.5 16.5t-17.5 42.5zM477 105q8 -11 8 -18q0 -9 -13 -21q-94 -77 -206 -77q-96 0 -161 51.5t-65 141.5q0 57 32 104t98 97q44 34 59 60t15 62v14q0 12 4.5 16.5t16.5 4.5h57
q22 0 22 -21v-15q0 -57 -18.5 -92.5t-77.5 -81.5q-57 -44 -80 -74.5t-23 -67.5q0 -49 35 -76.5t88 -27.5q78 0 151 59q9 9 17 9t18 -13z" />
    <glyph glyph-name="Agrave" unicode="&#xc0;" 
d="M234 929q10 9 18 9q7 0 18 -8l144 -118q10 -7 10 -14q0 -6 -9 -13l-25 -20q-9 -7 -14 -7t-18 8l-150 108q-11 8 -11 16q0 7 8 15zM303 663q14 30 22.5 40t18.5 10t18 -10t22 -40l301 -633q5 -12 5 -17q0 -13 -21 -13h-55q-16 0 -23.5 5.5t-15.5 22.5l-77 168
q-5 12 -18 12h-275q-13 0 -19 -12l-76 -168q-8 -17 -15.5 -22.5t-23.5 -5.5h-51q-21 0 -21 13q0 5 5 17zM438 296q11 0 11 6q0 3 -3 9l-104 224l-103 -224q-3 -6 -3 -10q0 -5 10 -5h192z" />
    <glyph glyph-name="Aacute" unicode="&#xc1;" 
d="M273 785q-8 8 -8 13q0 6 9 14l144 118q11 8 18 8q8 0 18 -9l29 -24q8 -8 8 -15q0 -8 -11 -16l-150 -108q-13 -8 -18 -8t-14 7zM303 663q14 30 22.5 40t18.5 10t18 -10t22 -40l301 -633q5 -12 5 -17q0 -13 -21 -13h-55q-16 0 -23.5 5.5t-15.5 22.5l-77 168q-5 12 -18 12
h-275q-13 0 -19 -12l-76 -168q-8 -17 -15.5 -22.5t-23.5 -5.5h-51q-21 0 -21 13q0 5 5 17zM438 296q11 0 11 6q0 3 -3 9l-104 224l-103 -224q-3 -6 -3 -10q0 -5 10 -5h192z" />
    <glyph glyph-name="Acircumflex" unicode="&#xc2;" 
d="M184 780q-10 7 -10 14t8 15l109 105q15 14 34 14h38q19 0 34 -14l109 -105q8 -8 8 -15t-10 -14l-30 -17q-10 -5 -15 -5q-7 0 -20 11l-95 94l-95 -94q-13 -11 -20 -11q-5 0 -15 5zM303 663q14 30 22.5 40t18.5 10t18 -10t22 -40l301 -633q5 -12 5 -17q0 -13 -21 -13h-55
q-16 0 -23.5 5.5t-15.5 22.5l-77 168q-5 12 -18 12h-275q-13 0 -19 -12l-76 -168q-8 -17 -15.5 -22.5t-23.5 -5.5h-51q-21 0 -21 13q0 5 5 17zM438 296q11 0 11 6q0 3 -3 9l-104 224l-103 -224q-3 -6 -3 -10q0 -5 10 -5h192z" />
    <glyph glyph-name="Atilde" unicode="&#xc3;" 
d="M163 800q-4 5 -4 10q0 4 6 12q44 56 110 56q32 0 78 -21t64 -21q34 0 63 35q6 7 12 7q5 0 11 -6l24 -30q4 -5 4 -10q0 -4 -6 -13q-45 -55 -110 -55q-32 0 -78 21t-64 21q-34 0 -63 -35q-6 -7 -12 -7q-5 0 -11 6zM303 663q14 30 22.5 40t18.5 10t18 -10t22 -40l301 -633
q5 -12 5 -17q0 -13 -21 -13h-55q-16 0 -23.5 5.5t-15.5 22.5l-77 168q-5 12 -18 12h-275q-13 0 -19 -12l-76 -168q-8 -17 -15.5 -22.5t-23.5 -5.5h-51q-21 0 -21 13q0 5 5 17zM438 296q11 0 11 6q0 3 -3 9l-104 224l-103 -224q-3 -6 -3 -10q0 -5 10 -5h192z" />
    <glyph glyph-name="Adieresis" unicode="&#xc4;" 
d="M198 814q0 24 14.5 38.5t38.5 14.5t39 -14.5t15 -38.5q0 -23 -15 -38t-39 -15t-38.5 15t-14.5 38zM383 814q0 24 14.5 38.5t38.5 14.5q25 0 39.5 -14.5t14.5 -38.5t-15 -38.5t-39 -14.5t-38.5 15t-14.5 38zM303 663q14 30 22.5 40t18.5 10t18 -10t22 -40l301 -633
q5 -12 5 -17q0 -13 -21 -13h-55q-16 0 -23.5 5.5t-15.5 22.5l-77 168q-5 12 -18 12h-275q-13 0 -19 -12l-76 -168q-8 -17 -15.5 -22.5t-23.5 -5.5h-51q-21 0 -21 13q0 5 5 17zM438 296q11 0 11 6q0 3 -3 9l-104 224l-103 -224q-3 -6 -3 -10q0 -5 10 -5h192z" />
    <glyph glyph-name="Aring" unicode="&#xc5;" 
d="M296 647q-39 14 -63.5 48.5t-24.5 78.5q0 56 40 95.5t96 39.5t95.5 -39.5t39.5 -95.5q0 -44 -24 -78.5t-63 -48.5l293 -617q5 -12 5 -17q0 -13 -21 -13h-55q-16 0 -23.5 5.5t-15.5 22.5l-77 168q-5 12 -18 12h-275q-13 0 -19 -12l-76 -168q-8 -17 -15.5 -22.5t-23.5 -5.5
h-51q-21 0 -21 13q0 5 5 17zM281 774q0 -27 18 -45t45 -18q26 0 44.5 18t18.5 45q0 26 -18.5 44.5t-44.5 18.5q-27 0 -45 -18.5t-18 -44.5zM438 296q11 0 11 6q0 3 -3 9l-104 224l-103 -224q-3 -6 -3 -10q0 -5 10 -5h192z" />
    <glyph glyph-name="AE" unicode="&#xc6;" horiz-adv-x="983" 
d="M422 677q10 14 17 18.5t23 4.5h443q12 0 17 -4.5t5 -17.5v-51q0 -13 -5 -17.5t-17 -4.5h-288q-12 0 -12 -11v-183q0 -12 12 -12h255q12 0 16.5 -4.5t4.5 -17.5v-50q0 -22 -21 -22h-255q-12 0 -12 -11v-188q0 -11 12 -11h289q12 0 17 -4.5t5 -17.5v-51q0 -13 -5 -17.5
t-17 -4.5h-379q-12 0 -17 4.5t-5 17.5v201q0 12 -11 12h-236q-13 0 -21 -12l-132 -200q-9 -14 -16.5 -18.5t-23.5 -4.5h-60q-20 0 -20 13q0 5 11 22zM494 328q11 0 11 12v272q0 10 -5 10q-2 0 -7 -6l-182 -273q-3 -6 -3 -9q0 -6 11 -6h175z" />
    <glyph glyph-name="Ccedilla" unicode="&#xc7;" horiz-adv-x="701" 
d="M259 -169q4 10 11 10q4 0 10 -3q29 -17 67 -17q31 0 49.5 12t18.5 30t-16.5 28.5t-43.5 10.5q-22 0 -44 -5q-2 -1 -6 -1q-8 0 -8 7q0 5 2 8l41 83q-128 21 -211 118t-83 235q0 156 103.5 260t258.5 104q144 0 254 -93q10 -7 10 -15q0 -7 -6 -16l-29 -39q-8 -11 -16 -11
q-6 0 -17 8q-91 71 -198 71q-109 0 -182.5 -75t-73.5 -192q0 -113 73.5 -189t182.5 -76q113 0 201 72q11 9 17 9q7 0 15 -10l29 -40q5 -6 5 -14q0 -7 -12 -18q-112 -94 -259 -94l-19 -38h5q46 0 73 -23.5t27 -60.5q0 -48 -39.5 -78t-99.5 -30q-52 0 -94 22q-12 7 -12 14
q0 4 3 10z" />
    <glyph glyph-name="Egrave" unicode="&#xc8;" horiz-adv-x="565" 
d="M189 929q11 9 18 9t18 -8l144 -118q10 -7 10 -14q0 -6 -9 -13l-25 -20q-9 -7 -14 -7t-18 8l-150 108q-11 8 -11 16q0 7 8 15zM88 678q0 13 5 17.5t17 4.5h378q12 0 17 -4.5t5 -17.5v-51q0 -13 -5 -17.5t-17 -4.5h-288q-12 0 -12 -11v-183q0 -12 12 -12h254q12 0 17 -4.5
t5 -17.5v-50q0 -22 -22 -22h-254q-12 0 -12 -11v-188q0 -11 12 -11h289q12 0 17 -4.5t5 -17.5v-51q0 -13 -5 -17.5t-17 -4.5h-379q-12 0 -17 4.5t-5 17.5v656z" />
    <glyph glyph-name="Eacute" unicode="&#xc9;" horiz-adv-x="565" 
d="M228 785q-8 8 -8 13q0 6 9 14l144 118q11 8 18 8t18 -9l29 -24q8 -8 8 -15q0 -8 -11 -16l-150 -108q-13 -8 -18 -8t-14 7zM88 678q0 13 5 17.5t17 4.5h378q12 0 17 -4.5t5 -17.5v-51q0 -13 -5 -17.5t-17 -4.5h-288q-12 0 -12 -11v-183q0 -12 12 -12h254q12 0 17 -4.5
t5 -17.5v-50q0 -22 -22 -22h-254q-12 0 -12 -11v-188q0 -11 12 -11h289q12 0 17 -4.5t5 -17.5v-51q0 -13 -5 -17.5t-17 -4.5h-379q-12 0 -17 4.5t-5 17.5v656z" />
    <glyph glyph-name="Ecircumflex" unicode="&#xca;" horiz-adv-x="565" 
d="M139 780q-10 7 -10 14t8 15l109 105q15 14 34 14h38q19 0 34 -14l109 -105q8 -8 8 -15t-10 -14l-30 -17q-10 -5 -15 -5q-7 0 -20 11l-95 94l-95 -94q-13 -11 -20 -11q-5 0 -15 5zM88 678q0 13 5 17.5t17 4.5h378q12 0 17 -4.5t5 -17.5v-51q0 -13 -5 -17.5t-17 -4.5h-288
q-12 0 -12 -11v-183q0 -12 12 -12h254q12 0 17 -4.5t5 -17.5v-50q0 -22 -22 -22h-254q-12 0 -12 -11v-188q0 -11 12 -11h289q12 0 17 -4.5t5 -17.5v-51q0 -13 -5 -17.5t-17 -4.5h-379q-12 0 -17 4.5t-5 17.5v656z" />
    <glyph glyph-name="Edieresis" unicode="&#xcb;" horiz-adv-x="565" 
d="M153 814q0 24 14.5 38.5t38.5 14.5t39 -14.5t15 -38.5q0 -23 -15 -38t-39 -15t-38.5 15t-14.5 38zM338 814q0 24 14.5 38.5t38.5 14.5q25 0 39.5 -14.5t14.5 -38.5t-14.5 -38.5t-39.5 -14.5q-24 0 -38.5 15t-14.5 38zM88 678q0 13 5 17.5t17 4.5h378q12 0 17 -4.5
t5 -17.5v-51q0 -13 -5 -17.5t-17 -4.5h-288q-12 0 -12 -11v-183q0 -12 12 -12h254q12 0 17 -4.5t5 -17.5v-50q0 -22 -22 -22h-254q-12 0 -12 -11v-188q0 -11 12 -11h289q12 0 17 -4.5t5 -17.5v-51q0 -13 -5 -17.5t-17 -4.5h-379q-12 0 -17 4.5t-5 17.5v656z" />
    <glyph glyph-name="Igrave" unicode="&#xcc;" horiz-adv-x="276" 
d="M28 929q10 9 18 9q7 0 18 -8l144 -118q10 -7 10 -14q0 -6 -9 -13l-25 -20q-9 -7 -14 -7t-18 8l-150 108q-11 8 -11 16q0 7 8 15zM88 678q0 13 5 17.5t17 4.5h56q12 0 17 -4.5t5 -17.5v-656q0 -13 -5 -17.5t-17 -4.5h-56q-12 0 -17 4.5t-5 17.5v656z" />
    <glyph glyph-name="Iacute" unicode="&#xcd;" horiz-adv-x="276" 
d="M67 785q-8 8 -8 13q0 6 9 14l144 118q11 8 18 8q8 0 18 -9l29 -24q8 -8 8 -15q0 -8 -11 -16l-150 -108q-13 -8 -18 -8t-14 7zM88 678q0 13 5 17.5t17 4.5h56q12 0 17 -4.5t5 -17.5v-656q0 -13 -5 -17.5t-17 -4.5h-56q-12 0 -17 4.5t-5 17.5v656z" />
    <glyph glyph-name="Icircumflex" unicode="&#xce;" horiz-adv-x="276" 
d="M-22 780q-10 7 -10 14t8 15l109 105q15 14 34 14h38q19 0 34 -14l109 -105q8 -8 8 -15t-10 -14l-30 -17q-10 -5 -15 -5q-7 0 -20 11l-95 94l-95 -94q-13 -11 -20 -11q-5 0 -15 5zM88 678q0 13 5 17.5t17 4.5h56q12 0 17 -4.5t5 -17.5v-656q0 -13 -5 -17.5t-17 -4.5h-56
q-12 0 -17 4.5t-5 17.5v656z" />
    <glyph glyph-name="Idieresis" unicode="&#xcf;" horiz-adv-x="276" 
d="M-8 814q0 24 14.5 38.5t38.5 14.5t39 -14.5t15 -38.5q0 -23 -15 -38t-39 -15t-38.5 15t-14.5 38zM177 814q0 24 14.5 38.5t38.5 14.5q25 0 39.5 -14.5t14.5 -38.5t-15 -38.5t-39 -14.5t-38.5 15t-14.5 38zM88 678q0 13 5 17.5t17 4.5h56q12 0 17 -4.5t5 -17.5v-656
q0 -13 -5 -17.5t-17 -4.5h-56q-12 0 -17 4.5t-5 17.5v656z" />
    <glyph glyph-name="Eth" unicode="&#xd0;" horiz-adv-x="744" 
d="M88 300q0 10 -10 10h-42q-13 0 -17.5 4t-4.5 16v44q0 12 4.5 16t17.5 4h42q10 0 10 10v274q0 13 5 17.5t17 4.5h208q175 0 276.5 -93t101.5 -249q0 -164 -105.5 -261t-286.5 -97h-194q-12 0 -17 4.5t-5 17.5v278zM306 95q136 0 211 69t75 190q0 115 -75 183t-207 68h-110
q-12 0 -12 -11v-190q0 -10 10 -10h155q13 0 17.5 -4t4.5 -16v-44q0 -12 -4.5 -16t-17.5 -4h-155q-10 0 -10 -10v-194q0 -11 12 -11h106z" />
    <glyph glyph-name="Ntilde" unicode="&#xd1;" horiz-adv-x="744" 
d="M191 800q-4 5 -4 10q0 4 6 12q44 56 110 56q32 0 78 -21t64 -21q34 0 63 35q6 7 12 7q5 0 11 -6l24 -30q4 -5 4 -10q0 -4 -6 -13q-45 -55 -110 -55q-32 0 -78 21t-64 21q-34 0 -63 -35q-6 -7 -12 -7q-5 0 -11 6zM88 678q0 33 21 33q15 0 41 -31l406 -479v477q0 13 5 17.5
t17 4.5h56q12 0 17 -4.5t5 -17.5v-656q0 -33 -20 -33q-15 0 -42 31l-406 479v-477q0 -13 -5 -17.5t-17 -4.5h-56q-12 0 -17 4.5t-5 17.5v656z" />
    <glyph glyph-name="Ograve" unicode="&#xd2;" horiz-adv-x="814" 
d="M297 929q11 9 18 9t18 -8l144 -118q10 -7 10 -14q0 -6 -9 -13l-25 -20q-9 -7 -14 -7t-18 8l-150 108q-11 8 -11 16q0 7 8 15zM46 347q0 155 104 259.5t258 104.5t257 -102.5t103 -257.5t-104 -258.5t-260 -103.5q-153 0 -255.5 102t-102.5 256zM405 84q109 0 184 76
t75 190q0 116 -74 191t-183 75t-183 -75.5t-74 -192.5q0 -114 73 -189t182 -75z" />
    <glyph glyph-name="Oacute" unicode="&#xd3;" horiz-adv-x="814" 
d="M336 785q-8 8 -8 13q0 6 9 14l144 118q11 8 18 8t18 -9l29 -24q8 -8 8 -15q0 -8 -11 -16l-150 -108q-13 -8 -18 -8t-14 7zM46 347q0 155 104 259.5t258 104.5t257 -102.5t103 -257.5t-104 -258.5t-260 -103.5q-153 0 -255.5 102t-102.5 256zM405 84q109 0 184 76t75 190
q0 116 -74 191t-183 75t-183 -75.5t-74 -192.5q0 -114 73 -189t182 -75z" />
    <glyph glyph-name="Ocircumflex" unicode="&#xd4;" horiz-adv-x="814" 
d="M247 780q-10 7 -10 14t8 15l109 105q15 14 34 14h38q19 0 34 -14l109 -105q8 -8 8 -15t-10 -14l-30 -17q-10 -5 -15 -5q-7 0 -20 11l-95 94l-95 -94q-13 -11 -20 -11q-5 0 -15 5zM46 347q0 155 104 259.5t258 104.5t257 -102.5t103 -257.5t-104 -258.5t-260 -103.5
q-153 0 -255.5 102t-102.5 256zM405 84q109 0 184 76t75 190q0 116 -74 191t-183 75t-183 -75.5t-74 -192.5q0 -114 73 -189t182 -75z" />
    <glyph glyph-name="Otilde" unicode="&#xd5;" horiz-adv-x="814" 
d="M225 800q-4 5 -4 10q0 4 6 12q44 56 110 56q32 0 78 -21t64 -21q34 0 63 35q6 7 12 7q5 0 11 -6l24 -30q4 -5 4 -10q0 -4 -6 -13q-45 -55 -110 -55q-32 0 -78 21t-64 21q-34 0 -63 -35q-6 -7 -12 -7q-5 0 -11 6zM46 347q0 155 104 259.5t258 104.5t257 -102.5t103 -257.5
t-104 -258.5t-260 -103.5q-153 0 -255.5 102t-102.5 256zM405 84q109 0 184 76t75 190q0 116 -74 191t-183 75t-183 -75.5t-74 -192.5q0 -114 73 -189t182 -75z" />
    <glyph glyph-name="Odieresis" unicode="&#xd6;" horiz-adv-x="814" 
d="M261 814q0 24 14.5 38.5t38.5 14.5t39 -14.5t15 -38.5q0 -23 -15 -38t-39 -15t-38.5 15t-14.5 38zM446 814q0 24 14.5 38.5t38.5 14.5q25 0 39.5 -14.5t14.5 -38.5t-14.5 -38.5t-39.5 -14.5q-24 0 -38.5 15t-14.5 38zM46 347q0 155 104 259.5t258 104.5t257 -102.5
t103 -257.5t-104 -258.5t-260 -103.5q-153 0 -255.5 102t-102.5 256zM405 84q109 0 184 76t75 190q0 116 -74 191t-183 75t-183 -75.5t-74 -192.5q0 -114 73 -189t182 -75z" />
    <glyph glyph-name="multiply" unicode="&#xd7;" horiz-adv-x="672" 
d="M127 140q-9 9 -9 16t9 16l141 140q5 5 5 8t-5 8l-141 140q-9 9 -9 16t9 16l29 29q9 9 16 9t16 -9l140 -141q5 -5 8 -5t8 5l141 141q9 9 15 9q7 0 16 -9l29 -29q9 -9 9 -16t-9 -16l-141 -140q-4 -4 -4 -8t4 -8l141 -140q9 -9 9 -16t-9 -16l-29 -29q-9 -9 -16 -9
q-6 0 -15 9l-141 141q-5 5 -8 5t-8 -5l-140 -141q-9 -9 -16 -9t-16 9z" />
    <glyph glyph-name="Oslash" unicode="&#xd8;" horiz-adv-x="814" 
d="M139 100q-93 99 -93 247q0 155 104 259.5t258 104.5q121 0 213 -67l41 46q18 21 41 21h32q22 0 22 -12q0 -7 -15 -23l-68 -77q94 -100 94 -248q0 -155 -104 -258.5t-260 -103.5q-121 0 -212 66l-40 -45q-18 -21 -41 -21h-32q-22 0 -22 12q0 7 15 23zM555 569
q-64 47 -148 47q-109 0 -183 -75.5t-74 -192.5q0 -102 58 -171zM258 130q63 -46 147 -46q109 0 184 76t75 190q0 102 -59 172z" />
    <glyph glyph-name="Ugrave" unicode="&#xd9;" horiz-adv-x="743" 
d="M261 929q11 9 18 9t18 -8l144 -118q10 -7 10 -14q0 -6 -9 -13l-25 -20q-9 -7 -14 -7t-18 8l-150 108q-11 8 -11 16q0 7 8 15zM84 678q0 13 5 17.5t17 4.5h55q13 0 18 -4.5t5 -17.5v-377q0 -103 48 -160t138 -57t140 57t50 159v378q0 12 5 17t16 5h56q13 0 18 -4.5
t5 -17.5v-380q0 -151 -81 -230t-213 -79q-128 0 -205 77t-77 229v383z" />
    <glyph glyph-name="Uacute" unicode="&#xda;" horiz-adv-x="743" 
d="M300 785q-8 8 -8 13q0 6 9 14l144 118q11 8 18 8t18 -9l29 -24q8 -8 8 -15q0 -8 -11 -16l-150 -108q-13 -8 -18 -8t-14 7zM84 678q0 13 5 17.5t17 4.5h55q13 0 18 -4.5t5 -17.5v-377q0 -103 48 -160t138 -57t140 57t50 159v378q0 12 5 17t16 5h56q13 0 18 -4.5t5 -17.5
v-380q0 -151 -81 -230t-213 -79q-128 0 -205 77t-77 229v383z" />
    <glyph glyph-name="Ucircumflex" unicode="&#xdb;" horiz-adv-x="743" 
d="M211 780q-10 7 -10 14t8 15l109 105q15 14 34 14h38q19 0 34 -14l109 -105q8 -8 8 -15t-10 -14l-30 -17q-10 -5 -15 -5q-7 0 -20 11l-95 94l-95 -94q-13 -11 -20 -11q-5 0 -15 5zM84 678q0 13 5 17.5t17 4.5h55q13 0 18 -4.5t5 -17.5v-377q0 -103 48 -160t138 -57t140 57
t50 159v378q0 12 5 17t16 5h56q13 0 18 -4.5t5 -17.5v-380q0 -151 -81 -230t-213 -79q-128 0 -205 77t-77 229v383z" />
    <glyph glyph-name="Udieresis" unicode="&#xdc;" horiz-adv-x="743" 
d="M225 814q0 24 14.5 38.5t38.5 14.5t39 -14.5t15 -38.5q0 -23 -15 -38t-39 -15t-38.5 15t-14.5 38zM410 814q0 24 14.5 38.5t38.5 14.5q25 0 39.5 -14.5t14.5 -38.5t-14.5 -38.5t-39.5 -14.5q-24 0 -38.5 15t-14.5 38zM84 678q0 13 5 17.5t17 4.5h55q13 0 18 -4.5t5 -17.5
v-377q0 -103 48 -160t138 -57t140 57t50 159v378q0 12 5 17t16 5h56q13 0 18 -4.5t5 -17.5v-380q0 -151 -81 -230t-213 -79q-128 0 -205 77t-77 229v383z" />
    <glyph glyph-name="Yacute" unicode="&#xdd;" horiz-adv-x="603" 
d="M231 785q-8 8 -8 13q0 6 9 14l144 118q11 8 18 8q8 0 18 -9l29 -24q8 -8 8 -15q0 -8 -11 -16l-150 -108q-13 -8 -18 -8t-14 7zM252 259l-248 416q-5 10 -5 14q0 11 18 11h62q17 0 24 -4.5t17 -20.5l183 -316l184 316q10 16 17 20.5t23 4.5h59q19 0 19 -11q0 -4 -5 -14
l-248 -411v-242q0 -13 -5 -17.5t-17 -4.5h-56q-12 0 -17 4.5t-5 17.5v237z" />
    <glyph glyph-name="Thorn" unicode="&#xde;" horiz-adv-x="624" 
d="M88 678q0 13 5 17.5t17 4.5h56q12 0 17 -4.5t5 -17.5v-85q0 -12 12 -12h107q139 0 209.5 -56.5t70.5 -165.5t-76 -169.5t-216 -60.5h-95q-12 0 -12 -12v-95q0 -13 -5 -17.5t-17 -4.5h-56q-12 0 -17 4.5t-5 17.5v656zM295 223q89 0 138.5 33.5t49.5 100.5q0 129 -185 129
h-98q-12 0 -12 -11v-240q0 -12 12 -12h95z" />
    <glyph glyph-name="germandbls" unicode="&#xdf;" horiz-adv-x="585" 
d="M79 508q0 114 55 178t162 64q89 0 148.5 -50.5t59.5 -151.5q0 -55 -25 -95.5t-68 -58.5q129 -42 129 -187q0 -96 -52.5 -157t-151.5 -61q-43 0 -65 9q-14 4 -12 19l6 46q2 16 14 16q1 0 19.5 -3t34.5 -3q44 0 74.5 36.5t30.5 97.5q0 64 -36.5 99t-103.5 35h-5
q-26 0 -26 19v46q0 20 26 20h6q52 0 80 32t28 83q0 53 -27.5 86.5t-84.5 33.5q-120 0 -120 -151v-490q0 -20 -20 -20h-56q-20 0 -20 20v488z" />
    <glyph glyph-name="agrave" unicode="&#xe0;" horiz-adv-x="531" 
d="M179 732q11 8 18 8q8 0 19 -8l151 -119q9 -7 9 -13q0 -7 -9 -13l-26 -20q-9 -6 -16 -6t-17 7l-162 107q-11 8 -11 16t9 14zM358 34q-44 -43 -128 -43q-83 0 -135 43t-52 119t52.5 119t134.5 43t128 -43q-5 141 -133 141q-14 0 -37 -2t-26 -2q-15 0 -18 18l-6 44v5
q0 15 19 19q37 7 78 7q111 0 165.5 -62.5t54.5 -178.5v-243q0 -18 -17 -18h-62q-18 0 -18 18v16zM143 153q0 -42 31 -67t77 -25t77 25t31 66q0 42 -31 67.5t-77 25.5t-77 -25t-31 -67z" />
    <glyph glyph-name="aacute" unicode="&#xe1;" horiz-adv-x="531" 
d="M178 587q-9 6 -9 13q0 6 9 13l151 119q11 8 19 8q7 0 18 -8l35 -27q9 -7 9 -14q0 -9 -12 -16l-161 -107q-10 -7 -17 -7t-16 6zM358 34q-44 -43 -128 -43q-83 0 -135 43t-52 119t52.5 119t134.5 43t128 -43q-5 141 -133 141q-14 0 -37 -2t-26 -2q-15 0 -18 18l-6 44v5
q0 15 19 19q37 7 78 7q111 0 165.5 -62.5t54.5 -178.5v-243q0 -18 -17 -18h-62q-18 0 -18 18v16zM143 153q0 -42 31 -67t77 -25t77 25t31 66q0 42 -31 67.5t-77 25.5t-77 -25t-31 -67z" />
    <glyph glyph-name="acircumflex" unicode="&#xe2;" horiz-adv-x="531" 
d="M112 582q-11 6 -11 14q0 6 8 14l109 105q15 15 35 15h38q19 0 34 -14l109 -105q9 -9 9 -15t-11 -14l-30 -17q-10 -5 -15 -5q-9 0 -19 10l-96 95l-95 -94q-11 -11 -19 -11t-16 5zM358 34q-44 -43 -128 -43q-83 0 -135 43t-52 119t52.5 119t134.5 43t128 -43
q-5 141 -133 141q-14 0 -37 -2t-26 -2q-15 0 -18 18l-6 44v5q0 15 19 19q37 7 78 7q111 0 165.5 -62.5t54.5 -178.5v-243q0 -18 -17 -18h-62q-18 0 -18 18v16zM143 153q0 -42 31 -67t77 -25t77 25t31 66q0 42 -31 67.5t-77 25.5t-77 -25t-31 -67z" />
    <glyph glyph-name="atilde" unicode="&#xe3;" horiz-adv-x="531" 
d="M93 602q-5 7 -5 11q0 5 6 13q16 21 48.5 37.5t62.5 16.5q32 0 78 -21t64 -21q25 0 64 36q6 6 11 6q7 0 11 -6l24 -30q4 -4 4 -11t-5 -13q-15 -20 -48.5 -37t-62.5 -17q-32 0 -78 21t-64 21q-6 0 -11 -1t-10.5 -4t-9.5 -5t-10 -6.5l-8.5 -6.5t-8.5 -7.5t-7 -6.5
q-7 -5 -11 -5t-10 6zM358 34q-44 -43 -128 -43q-83 0 -135 43t-52 119t52.5 119t134.5 43t128 -43q-5 141 -133 141q-14 0 -37 -2t-26 -2q-15 0 -18 18l-6 44v5q0 15 19 19q37 7 78 7q111 0 165.5 -62.5t54.5 -178.5v-243q0 -18 -17 -18h-62q-18 0 -18 18v16zM143 153
q0 -42 31 -67t77 -25t77 25t31 66q0 42 -31 67.5t-77 25.5t-77 -25t-31 -67z" />
    <glyph glyph-name="adieresis" unicode="&#xe4;" horiz-adv-x="531" 
d="M122 616q0 23 14.5 38t38.5 15t39 -15t15 -38q0 -24 -15 -38.5t-39 -14.5t-38.5 14.5t-14.5 38.5zM307 616q0 23 14.5 38t38.5 15t39 -14.5t15 -38.5t-14.5 -38.5t-39.5 -14.5q-24 0 -38.5 14.5t-14.5 38.5zM358 34q-44 -43 -128 -43q-83 0 -135 43t-52 119t52.5 119
t134.5 43t128 -43q-5 141 -133 141q-14 0 -37 -2t-26 -2q-15 0 -18 18l-6 44v5q0 15 19 19q37 7 78 7q111 0 165.5 -62.5t54.5 -178.5v-243q0 -18 -17 -18h-62q-18 0 -18 18v16zM143 153q0 -42 31 -67t77 -25t77 25t31 66q0 42 -31 67.5t-77 25.5t-77 -25t-31 -67z" />
    <glyph glyph-name="aring" unicode="&#xe5;" horiz-adv-x="531" 
d="M133 685q0 56 39 94t96 38t96 -38t39 -94q0 -57 -39 -94.5t-96 -37.5t-96 37.5t-39 94.5zM204 685q0 -27 19 -45.5t45 -18.5t45 18.5t19 45.5q0 26 -19 44.5t-45 18.5t-45 -18.5t-19 -44.5zM358 34q-44 -43 -128 -43q-83 0 -135 43t-52 119t52.5 119t134.5 43t128 -43
q-5 141 -133 141q-14 0 -37 -2t-26 -2q-15 0 -18 18l-6 44v5q0 15 19 19q37 7 78 7q111 0 165.5 -62.5t54.5 -178.5v-243q0 -18 -17 -18h-62q-18 0 -18 18v16zM143 153q0 -42 31 -67t77 -25t77 25t31 66q0 42 -31 67.5t-77 25.5t-77 -25t-31 -67z" />
    <glyph glyph-name="ae" unicode="&#xe6;" horiz-adv-x="886" 
d="M138 471v5q0 15 19 19q37 7 78 7q128 0 180 -91q70 91 186 91q105 0 172.5 -70.5t67.5 -176.5v-17q0 -18 -17 -18h-369q7 -64 50.5 -104.5t110.5 -40.5q73 0 141 45q9 6 16 6q8 0 13 -9l21 -37q5 -8 5 -14q0 -9 -11 -17q-81 -60 -192 -60q-127 0 -197 91
q-62 -89 -182 -89q-83 0 -135 43t-52 119t52.5 119t134.5 43t128 -43q-6 141 -133 141q-14 0 -37 -2t-26 -2q-15 0 -18 18zM738 295q-10 57 -46.5 91t-90.5 34t-91.5 -32.5t-50.5 -92.5h279zM143 153q0 -42 31 -67t77 -25t77 25t31 66q0 42 -31 67.5t-77 25.5t-77 -25
t-31 -67z" />
    <glyph glyph-name="ccedilla" unicode="&#xe7;" horiz-adv-x="522" 
d="M174 -171q4 10 10 10q4 0 10 -3q35 -15 70 -15q62 0 62 40t-61 40q-18 0 -44 -4h-5q-9 0 -9 7q0 5 2 8l41 82q-90 15 -147.5 83t-57.5 165q0 114 74 187t182 73q98 0 172 -52q9 -8 9 -16q0 -7 -4 -14l-29 -44q-6 -9 -13 -9q-5 0 -15 6q-62 37 -118 37q-69 0 -113.5 -47.5
t-44.5 -119.5q0 -69 44.5 -115.5t113.5 -46.5q66 0 120 38q10 6 14 6q7 0 14 -10l26 -43q5 -8 5 -14q0 -9 -10 -16q-69 -50 -160 -53l-19 -38q50 0 78.5 -24t28.5 -64q0 -47 -38 -75.5t-98 -28.5q-49 0 -93 21q-12 6 -12 13q0 4 3 10z" />
    <glyph glyph-name="egrave" unicode="&#xe8;" horiz-adv-x="575" 
d="M187 732q11 8 18 8q8 0 19 -8l151 -119q9 -7 9 -13q0 -7 -9 -13l-26 -20q-9 -6 -16 -6t-17 7l-162 107q-11 8 -11 16t9 14zM497 80q4 -7 4 -14q0 -10 -11 -17q-81 -60 -192 -60q-113 0 -183 72.5t-70 181.5q0 113 70 186t176 73q105 0 172 -70.5t67 -176.5v-17
q0 -18 -17 -18h-368q6 -64 49.5 -104.5t110.5 -40.5q74 0 141 45q9 6 16 6q8 0 13 -9zM427 295q-9 56 -45.5 90.5t-91.5 34.5q-53 0 -90.5 -32.5t-51.5 -92.5h279z" />
    <glyph glyph-name="eacute" unicode="&#xe9;" horiz-adv-x="575" 
d="M200 587q-9 6 -9 13q0 6 9 13l151 119q11 8 19 8q7 0 18 -8l35 -27q9 -7 9 -14q0 -9 -12 -16l-161 -107q-10 -7 -17 -7t-16 6zM497 80q4 -7 4 -14q0 -10 -11 -17q-81 -60 -192 -60q-113 0 -183 72.5t-70 181.5q0 113 70 186t176 73q105 0 172 -70.5t67 -176.5v-17
q0 -18 -17 -18h-368q6 -64 49.5 -104.5t110.5 -40.5q74 0 141 45q9 6 16 6q8 0 13 -9zM427 295q-9 56 -45.5 90.5t-91.5 34.5q-53 0 -90.5 -32.5t-51.5 -92.5h279z" />
    <glyph glyph-name="ecircumflex" unicode="&#xea;" horiz-adv-x="575" 
d="M130 582q-11 6 -11 14q0 6 8 14l109 105q15 15 35 15h38q19 0 34 -14l109 -105q9 -9 9 -15t-11 -14l-30 -17q-10 -5 -15 -5q-9 0 -19 10l-96 95l-95 -94q-11 -11 -19 -11t-16 5zM497 80q4 -7 4 -14q0 -10 -11 -17q-81 -60 -192 -60q-113 0 -183 72.5t-70 181.5
q0 113 70 186t176 73q105 0 172 -70.5t67 -176.5v-17q0 -18 -17 -18h-368q6 -64 49.5 -104.5t110.5 -40.5q74 0 141 45q9 6 16 6q8 0 13 -9zM427 295q-9 56 -45.5 90.5t-91.5 34.5q-53 0 -90.5 -32.5t-51.5 -92.5h279z" />
    <glyph glyph-name="edieresis" unicode="&#xeb;" horiz-adv-x="575" 
d="M144 616q0 23 14.5 38t38.5 15t39 -15t15 -38q0 -24 -15 -38.5t-39 -14.5t-38.5 14.5t-14.5 38.5zM329 616q0 23 14.5 38t38.5 15t39 -14.5t15 -38.5t-14.5 -38.5t-39.5 -14.5q-24 0 -38.5 14.5t-14.5 38.5zM497 80q4 -7 4 -14q0 -10 -11 -17q-81 -60 -192 -60
q-113 0 -183 72.5t-70 181.5q0 113 70 186t176 73q105 0 172 -70.5t67 -176.5v-17q0 -18 -17 -18h-368q6 -64 49.5 -104.5t110.5 -40.5q74 0 141 45q9 6 16 6q8 0 13 -9zM427 295q-9 56 -45.5 90.5t-91.5 34.5q-53 0 -90.5 -32.5t-51.5 -92.5h279z" />
    <glyph glyph-name="igrave" unicode="&#xec;" horiz-adv-x="255" 
d="M28 732q11 8 18 8q8 0 19 -8l151 -119q9 -7 9 -13q0 -7 -9 -13l-26 -20q-9 -6 -16 -6t-17 7l-162 107q-11 8 -11 16t9 14zM79 468q0 13 5 17.5t17 4.5h53q12 0 17 -4.5t5 -17.5v-446q0 -13 -5 -17.5t-17 -4.5h-53q-12 0 -17 4.5t-5 17.5v446z" />
    <glyph glyph-name="iacute" unicode="&#xed;" horiz-adv-x="255" 
d="M40 587q-9 6 -9 13q0 6 9 13l151 119q11 8 19 8q7 0 18 -8l35 -27q9 -7 9 -14q0 -9 -12 -16l-161 -107q-10 -7 -17 -7t-16 6zM79 468q0 13 5 17.5t17 4.5h53q12 0 17 -4.5t5 -17.5v-446q0 -13 -5 -17.5t-17 -4.5h-53q-12 0 -17 4.5t-5 17.5v446z" />
    <glyph glyph-name="icircumflex" unicode="&#xee;" horiz-adv-x="255" 
d="M-33 582q-11 6 -11 14q0 6 8 14l109 105q15 15 35 15h38q19 0 34 -14l109 -105q9 -9 9 -15t-11 -14l-30 -17q-10 -5 -15 -5q-9 0 -19 10l-96 95l-95 -94q-11 -11 -19 -11q-9 0 -16 5zM79 468q0 13 5 17.5t17 4.5h53q12 0 17 -4.5t5 -17.5v-446q0 -13 -5 -17.5t-17 -4.5
h-53q-12 0 -17 4.5t-5 17.5v446z" />
    <glyph glyph-name="idieresis" unicode="&#xef;" horiz-adv-x="255" 
d="M-19 616q0 23 14.5 38t38.5 15t39 -15t15 -38q0 -24 -15 -38.5t-39 -14.5t-38.5 14.5t-14.5 38.5zM166 616q0 23 14.5 38t38.5 15q25 0 39.5 -14.5t14.5 -38.5t-14.5 -38.5t-39.5 -14.5q-24 0 -38.5 14.5t-14.5 38.5zM79 468q0 13 5 17.5t17 4.5h53q12 0 17 -4.5t5 -17.5
v-446q0 -13 -5 -17.5t-17 -4.5h-53q-12 0 -17 4.5t-5 17.5v446z" />
    <glyph glyph-name="eth" unicode="&#xf0;" horiz-adv-x="589" 
d="M139 593q-4 8 -4 13q0 8 8 12l82 39q-34 31 -76 62q-20 15 -20 22q0 9 12 9h76q18 0 38 -14q28 -21 50 -42l93 42q10 5 15 5q7 0 11 -8l17 -33q4 -8 4 -12q0 -7 -8 -11l-77 -35q79 -85 131 -194t52 -213q0 -117 -69 -181.5t-176 -64.5q-112 0 -182.5 65.5t-70.5 174.5
q0 103 69.5 168t175.5 65q69 0 107 -31q-41 91 -119 172l-96 -44q-8 -4 -14 -4q-8 0 -12 7zM147 228q0 -68 42 -107.5t107 -39.5q63 0 104.5 39.5t41.5 104.5t-42.5 105t-107.5 40q-63 0 -104 -39t-41 -103z" />
    <glyph glyph-name="ntilde" unicode="&#xf1;" horiz-adv-x="589" 
d="M116 602q-5 7 -5 11q0 5 6 13q16 21 48.5 37.5t62.5 16.5q32 0 78 -21t64 -21q25 0 64 36q6 6 11 6q7 0 11 -6l24 -30q4 -4 4 -11t-5 -13q-15 -20 -48.5 -37t-62.5 -17q-32 0 -78 21t-64 21q-6 0 -11 -1t-10.5 -4t-9.5 -5t-10 -6.5l-8.5 -6.5t-8.5 -7.5t-7 -6.5
q-7 -5 -11 -5t-10 6zM79 465q0 25 25 25h46q26 0 26 -25v-31q50 66 143 66q95 0 144.5 -59.5t49.5 -170.5v-252q0 -18 -17 -18h-62q-18 0 -18 18v245q0 71 -31 109.5t-89 38.5q-57 0 -88.5 -38.5t-31.5 -109.5v-245q0 -18 -17 -18h-62q-18 0 -18 18v447z" />
    <glyph glyph-name="ograve" unicode="&#xf2;" horiz-adv-x="608" 
d="M204 732q11 8 18 8q8 0 19 -8l151 -119q9 -7 9 -13q0 -7 -9 -13l-26 -20q-9 -6 -16 -6t-17 7l-162 107q-11 8 -11 16t9 14zM299 -11q-108 0 -181 73.5t-73 182.5t74.5 183t183.5 74t183 -74t74 -183t-75 -182.5t-186 -73.5zM300 81q66 0 113 47.5t47 116.5
q0 71 -45.5 118t-112.5 47t-112 -47t-45 -118q0 -70 44.5 -117t110.5 -47z" />
    <glyph glyph-name="oacute" unicode="&#xf3;" horiz-adv-x="608" 
d="M216 587q-9 6 -9 13q0 6 9 13l151 119q11 8 19 8q7 0 18 -8l35 -27q9 -7 9 -14q0 -9 -12 -16l-161 -107q-10 -7 -17 -7t-16 6zM299 -11q-108 0 -181 73.5t-73 182.5t74.5 183t183.5 74t183 -74t74 -183t-75 -182.5t-186 -73.5zM300 81q66 0 113 47.5t47 116.5
q0 71 -45.5 118t-112.5 47t-112 -47t-45 -118q0 -70 44.5 -117t110.5 -47z" />
    <glyph glyph-name="ocircumflex" unicode="&#xf4;" horiz-adv-x="608" 
d="M143 582q-11 6 -11 14q0 6 8 14l109 105q15 15 35 15h38q19 0 34 -14l109 -105q9 -9 9 -15t-11 -14l-30 -17q-10 -5 -15 -5q-9 0 -19 10l-96 95l-95 -94q-11 -11 -19 -11q-9 0 -16 5zM299 -11q-108 0 -181 73.5t-73 182.5t74.5 183t183.5 74t183 -74t74 -183t-75 -182.5
t-186 -73.5zM300 81q66 0 113 47.5t47 116.5q0 71 -45.5 118t-112.5 47t-112 -47t-45 -118q0 -70 44.5 -117t110.5 -47z" />
    <glyph glyph-name="otilde" unicode="&#xf5;" horiz-adv-x="608" 
d="M125 602q-5 7 -5 11q0 5 6 13q16 21 48.5 37.5t62.5 16.5q32 0 78 -21t64 -21q25 0 64 36q6 6 11 6q6 0 11 -6l24 -30q4 -4 4 -11t-5 -13q-15 -20 -48.5 -37t-62.5 -17q-32 0 -78 21t-64 21q-6 0 -11 -1t-10.5 -4t-9.5 -5t-10 -6.5l-8.5 -6.5t-8.5 -7.5t-7 -6.5
q-7 -5 -11 -5t-10 6zM299 -11q-108 0 -181 73.5t-73 182.5t74.5 183t183.5 74t183 -74t74 -183t-75 -182.5t-186 -73.5zM300 81q66 0 113 47.5t47 116.5q0 71 -45.5 118t-112.5 47t-112 -47t-45 -118q0 -70 44.5 -117t110.5 -47z" />
    <glyph glyph-name="odieresis" unicode="&#xf6;" horiz-adv-x="608" 
d="M157 616q0 23 14.5 38t38.5 15t39 -15t15 -38q0 -24 -15 -38.5t-39 -14.5t-38.5 14.5t-14.5 38.5zM342 616q0 23 14.5 38t38.5 15q25 0 39.5 -14.5t14.5 -38.5t-14.5 -38.5t-39.5 -14.5q-24 0 -38.5 14.5t-14.5 38.5zM299 -11q-108 0 -181 73.5t-73 182.5t74.5 183
t183.5 74t183 -74t74 -183t-75 -182.5t-186 -73.5zM300 81q66 0 113 47.5t47 116.5q0 71 -45.5 118t-112.5 47t-112 -47t-45 -118q0 -70 44.5 -117t110.5 -47z" />
    <glyph glyph-name="divide" unicode="&#xf7;" horiz-adv-x="672" 
d="M278 501q0 25 16.5 41t41.5 16q26 0 42.5 -16t16.5 -41t-16.5 -40.5t-42.5 -15.5q-25 0 -41.5 15.5t-16.5 40.5zM80 341q0 22 23 22h467q12 0 17 -4.5t5 -17.5v-42q0 -13 -5 -17.5t-17 -4.5h-467q-23 0 -23 22v42zM278 138q0 25 16.5 41t41.5 16q26 0 42.5 -16t16.5 -41
t-16.5 -40.5t-42.5 -15.5q-25 0 -41.5 15.5t-16.5 40.5z" />
    <glyph glyph-name="oslash" unicode="&#xf8;" horiz-adv-x="608" 
d="M69 -10q-21 0 -21 11q0 6 15 21l45 51q-63 69 -63 170q0 111 74 185t185 74q82 0 147 -43l23 26q17 20 38 20h25q20 0 20 -11q0 -6 -14 -21l-47 -53q66 -71 66 -174q0 -110 -74.5 -183.5t-186.5 -73.5q-84 0 -148 44l-21 -23q-19 -20 -38 -20h-25zM386 386q-38 24 -83 24
q-67 0 -112.5 -47t-45.5 -119q0 -57 30 -96zM218 106q36 -25 84 -25q67 0 113.5 47.5t46.5 117.5q0 56 -32 99z" />
    <glyph glyph-name="ugrave" unicode="&#xf9;" horiz-adv-x="586" 
d="M186 732q11 8 18 8q8 0 19 -8l151 -119q9 -7 9 -13q0 -7 -9 -13l-26 -20q-9 -6 -16 -6t-17 7l-162 107q-11 8 -11 16t9 14zM76 472q0 18 17 18h62q18 0 18 -18v-245q0 -148 119 -148q121 0 121 148v245q0 18 18 18h62q17 0 17 -18v-253q0 -111 -56 -170.5t-162 -59.5
q-105 0 -160.5 59t-55.5 171v253z" />
    <glyph glyph-name="uacute" unicode="&#xfa;" horiz-adv-x="586" 
d="M212 587q-9 6 -9 13q0 6 9 13l151 119q11 8 19 8q7 0 18 -8l35 -27q9 -7 9 -14q0 -9 -12 -16l-161 -107q-10 -7 -17 -7t-16 6zM76 472q0 18 17 18h62q18 0 18 -18v-245q0 -148 119 -148q121 0 121 148v245q0 18 18 18h62q17 0 17 -18v-253q0 -111 -56 -170.5t-162 -59.5
q-105 0 -160.5 59t-55.5 171v253z" />
    <glyph glyph-name="ucircumflex" unicode="&#xfb;" horiz-adv-x="586" 
d="M133 582q-11 6 -11 14q0 6 8 14l109 105q15 15 35 15h38q19 0 34 -14l109 -105q9 -9 9 -15t-11 -14l-30 -17q-10 -5 -15 -5q-9 0 -19 10l-96 95l-95 -94q-11 -11 -19 -11q-9 0 -16 5zM76 472q0 18 17 18h62q18 0 18 -18v-245q0 -148 119 -148q121 0 121 148v245
q0 18 18 18h62q17 0 17 -18v-253q0 -111 -56 -170.5t-162 -59.5q-105 0 -160.5 59t-55.5 171v253z" />
    <glyph glyph-name="udieresis" unicode="&#xfc;" horiz-adv-x="586" 
d="M147 616q0 23 14.5 38t38.5 15t39 -15t15 -38q0 -24 -15 -38.5t-39 -14.5t-38.5 14.5t-14.5 38.5zM332 616q0 23 14.5 38t38.5 15q25 0 39.5 -14.5t14.5 -38.5t-14.5 -38.5t-39.5 -14.5q-24 0 -38.5 14.5t-14.5 38.5zM76 472q0 18 17 18h62q18 0 18 -18v-245
q0 -148 119 -148q121 0 121 148v245q0 18 18 18h62q17 0 17 -18v-253q0 -111 -56 -170.5t-162 -59.5q-105 0 -160.5 59t-55.5 171v253z" />
    <glyph glyph-name="yacute" unicode="&#xfd;" horiz-adv-x="544" 
d="M198 587q-9 6 -9 13q0 6 9 13l151 119q11 8 19 8q7 0 18 -8l35 -27q9 -7 9 -14q0 -9 -12 -16l-161 -107q-10 -7 -17 -7t-16 6zM225 25l-211 438q-4 8 -4 15q0 12 19 12h57q15 0 22 -5t14 -21l157 -327l147 331q10 22 33 22h58q18 0 18 -13q0 -6 -4 -14l-305 -670
q-11 -23 -26 -23h-73q-14 0 -14 10q0 3 4 13z" />
    <glyph glyph-name="thorn" unicode="&#xfe;" horiz-adv-x="571" 
d="M79 728q0 13 4.5 17.5t16.5 4.5h54q12 0 17 -4.5t5 -17.5v-227q0 -11 11 -11h54q138 0 211.5 -65t73.5 -177q0 -114 -75 -181t-212 -67h-52q-11 0 -11 -11v-197q0 -13 -5 -17.5t-17 -4.5h-54q-12 0 -16.5 4.5t-4.5 17.5v936zM238 88q86 0 137 41t51 119q0 75 -49.5 114
t-138.5 39h-51q-11 0 -11 -11v-290q0 -12 11 -12h51z" />
    <glyph glyph-name="ydieresis" unicode="&#xff;" horiz-adv-x="544" 
d="M125 616q0 23 14.5 38t38.5 15t39 -15t15 -38q0 -24 -15 -38.5t-39 -14.5t-38.5 14.5t-14.5 38.5zM310 616q0 23 14.5 38t38.5 15q25 0 39.5 -14.5t14.5 -38.5t-14.5 -38.5t-39.5 -14.5q-24 0 -38.5 14.5t-14.5 38.5zM225 25l-211 438q-4 8 -4 15q0 12 19 12h57
q15 0 22 -5t14 -21l157 -327l147 331q10 22 33 22h58q18 0 18 -13q0 -6 -4 -14l-305 -670q-11 -23 -26 -23h-73q-14 0 -14 10q0 3 4 13z" />
    <glyph glyph-name="Amacron" unicode="&#x100;" 
d="M202 838q0 12 4.5 16.5t17.5 4.5h240q13 0 17.5 -4.5t4.5 -16.5v-36q0 -12 -4.5 -16t-17.5 -4h-240q-13 0 -17.5 4t-4.5 16v36zM303 663q14 30 22.5 40t18.5 10t18 -10t22 -40l301 -633q5 -12 5 -17q0 -13 -21 -13h-55q-16 0 -23.5 5.5t-15.5 22.5l-77 168q-5 12 -18 12
h-275q-13 0 -19 -12l-76 -168q-8 -17 -15.5 -22.5t-23.5 -5.5h-51q-21 0 -21 13q0 5 5 17zM438 296q11 0 11 6q0 3 -3 9l-104 224l-103 -224q-3 -6 -3 -10q0 -5 10 -5h192z" />
    <glyph glyph-name="amacron" unicode="&#x101;" horiz-adv-x="531" 
d="M128 640q0 12 4.5 16.5t17.5 4.5h240q13 0 17.5 -4.5t4.5 -16.5v-36q0 -12 -4.5 -16t-17.5 -4h-240q-13 0 -17.5 4t-4.5 16v36zM358 34q-44 -43 -128 -43q-83 0 -135 43t-52 119t52.5 119t134.5 43t128 -43q-5 141 -133 141q-14 0 -37 -2t-26 -2q-15 0 -18 18l-6 44v5
q0 15 19 19q37 7 78 7q111 0 165.5 -62.5t54.5 -178.5v-243q0 -18 -17 -18h-62q-18 0 -18 18v16zM143 153q0 -42 31 -67t77 -25t77 25t31 66q0 42 -31 67.5t-77 25.5t-77 -25t-31 -67z" />
    <glyph glyph-name="Abreve" unicode="&#x102;" 
d="M253 910q13 0 16 -15q8 -65 75 -65q66 0 75 65q3 15 16 15h44q14 0 14 -16q0 -58 -37.5 -97t-113.5 -39q-74 0 -110.5 38.5t-36.5 97.5q0 16 14 16h44zM303 663q14 30 22.5 40t18.5 10t18 -10t22 -40l301 -633q5 -12 5 -17q0 -13 -21 -13h-55q-16 0 -23.5 5.5t-15.5 22.5
l-77 168q-5 12 -18 12h-275q-13 0 -19 -12l-76 -168q-8 -17 -15.5 -22.5t-23.5 -5.5h-51q-21 0 -21 13q0 5 5 17zM438 296q11 0 11 6q0 3 -3 9l-104 224l-103 -224q-3 -6 -3 -10q0 -5 10 -5h192z" />
    <glyph glyph-name="abreve" unicode="&#x103;" horiz-adv-x="531" 
d="M179 712q13 0 16 -15q8 -65 75 -65q66 0 75 65q3 15 16 15h44q14 0 14 -16q0 -58 -37.5 -97t-113.5 -39q-74 0 -110.5 38.5t-36.5 97.5q0 16 14 16h44zM358 34q-44 -43 -128 -43q-83 0 -135 43t-52 119t52.5 119t134.5 43t128 -43q-5 141 -133 141q-14 0 -37 -2t-26 -2
q-15 0 -18 18l-6 44v5q0 15 19 19q37 7 78 7q111 0 165.5 -62.5t54.5 -178.5v-243q0 -18 -17 -18h-62q-18 0 -18 18v16zM143 153q0 -42 31 -67t77 -25t77 25t31 66q0 42 -31 67.5t-77 25.5t-77 -25t-31 -67z" />
    <glyph glyph-name="Aogonek" unicode="&#x104;" 
d="M303 663q14 30 22.5 40t18.5 10t18 -10t22 -40l301 -633q5 -12 5 -17q0 -13 -21 -13h-23q-64 -33 -64 -86q0 -24 17 -39t41 -15q29 0 57 15q5 4 11 4t11 -9l12 -23q3 -6 3 -11q0 -10 -12 -17q-39 -25 -90 -25q-54 0 -88 30.5t-34 77.5q0 70 72 112l-84 182q-5 12 -18 12
h-275q-13 0 -19 -12l-76 -168q-8 -17 -15.5 -22.5t-23.5 -5.5h-51q-21 0 -21 13q0 5 5 17zM438 296q11 0 11 6q0 3 -3 9l-104 224l-103 -224q-3 -6 -3 -10q0 -5 10 -5h192z" />
    <glyph glyph-name="aogonek" unicode="&#x105;" horiz-adv-x="531" 
d="M509 -153q3 -6 3 -11q0 -10 -12 -17q-39 -25 -89 -25q-54 0 -88 30.5t-34 77.5q0 61 71 106q-2 2 -2 10v16q-44 -43 -128 -43q-83 0 -135 43t-52 119t52.5 119t134.5 43t128 -43q-5 141 -133 141q-14 0 -37 -2t-26 -2q-15 0 -18 18l-6 44v5q0 15 19 19q37 7 78 7
q111 0 165.5 -62.5t54.5 -178.5v-243q0 -13 -9 -17q-84 -35 -84 -88q0 -24 16 -38.5t40 -14.5q30 0 57 15q7 4 11 4q6 0 12 -9zM143 153q0 -42 31 -67t77 -25t77 25t31 66q0 42 -31 67.5t-77 25.5t-77 -25t-31 -67z" />
    <glyph glyph-name="Cacute" unicode="&#x106;" horiz-adv-x="701" 
d="M317 785q-8 8 -8 13q0 6 9 14l144 118q11 8 18 8q8 0 18 -9l29 -24q8 -8 8 -15q0 -8 -11 -16l-150 -108q-13 -8 -18 -8t-14 7zM668 115q5 -6 5 -14q0 -7 -12 -18q-112 -94 -259 -94q-150 0 -253 101.5t-103 256.5q0 156 103.5 260t258.5 104q144 0 254 -93q10 -7 10 -15
q0 -7 -6 -16l-29 -39q-8 -11 -16 -11q-6 0 -17 8q-91 71 -198 71q-109 0 -182.5 -75t-73.5 -192q0 -113 73.5 -189t182.5 -76q113 0 201 72q11 9 17 9q7 0 15 -10z" />
    <glyph glyph-name="cacute" unicode="&#x107;" horiz-adv-x="522" 
d="M186 587q-9 6 -9 13q0 6 9 13l151 119q11 8 19 8q7 0 18 -8l35 -27q9 -7 9 -14q0 -9 -12 -16l-161 -107q-10 -7 -17 -7t-16 6zM479 69q3 -5 3 -10q0 -10 -10 -17q-73 -53 -172 -53q-109 0 -182 71t-73 182q0 114 74 187t182 73q98 0 172 -52q9 -8 9 -16q0 -7 -4 -14
l-29 -44q-6 -9 -13 -9q-5 0 -15 6q-62 37 -118 37q-69 0 -113.5 -47.5t-44.5 -119.5q0 -69 44.5 -115.5t113.5 -46.5q66 0 120 38q10 6 14 6q7 0 14 -10z" />
    <glyph glyph-name="Ccircumflex" unicode="&#x108;" horiz-adv-x="701" 
d="M228 780q-10 7 -10 14t8 15l109 105q15 14 34 14h38q19 0 34 -14l109 -105q8 -8 8 -15t-10 -14l-30 -17q-10 -5 -15 -5q-7 0 -20 11l-95 94l-95 -94q-13 -11 -20 -11q-5 0 -15 5zM668 115q5 -6 5 -14q0 -7 -12 -18q-112 -94 -259 -94q-150 0 -253 101.5t-103 256.5
q0 156 103.5 260t258.5 104q144 0 254 -93q10 -7 10 -15q0 -7 -6 -16l-29 -39q-8 -11 -16 -11q-6 0 -17 8q-91 71 -198 71q-109 0 -182.5 -75t-73.5 -192q0 -113 73.5 -189t182.5 -76q113 0 201 72q11 9 17 9q7 0 15 -10z" />
    <glyph glyph-name="ccircumflex" unicode="&#x109;" horiz-adv-x="522" 
d="M125 582q-11 6 -11 14q0 6 8 14l109 105q15 15 35 15h38q19 0 34 -14l109 -105q9 -9 9 -15t-11 -14l-30 -17q-10 -5 -15 -5q-9 0 -19 10l-96 95l-95 -94q-11 -11 -19 -11q-9 0 -16 5zM479 69q3 -5 3 -10q0 -10 -10 -17q-73 -53 -172 -53q-109 0 -182 71t-73 182
q0 114 74 187t182 73q98 0 172 -52q9 -8 9 -16q0 -7 -4 -14l-29 -44q-6 -9 -13 -9q-5 0 -15 6q-62 37 -118 37q-69 0 -113.5 -47.5t-44.5 -119.5q0 -69 44.5 -115.5t113.5 -46.5q66 0 120 38q10 6 14 6q7 0 14 -10z" />
    <glyph glyph-name="Cdotaccent" unicode="&#x10a;" horiz-adv-x="701" 
d="M329 814q0 25 17 41t42 16q26 0 42.5 -16t16.5 -41t-16.5 -40.5t-42.5 -15.5q-25 0 -42 16t-17 40zM668 115q5 -6 5 -14q0 -7 -12 -18q-112 -94 -259 -94q-150 0 -253 101.5t-103 256.5q0 156 103.5 260t258.5 104q144 0 254 -93q10 -7 10 -15q0 -7 -6 -16l-29 -39
q-8 -11 -16 -11q-6 0 -17 8q-91 71 -198 71q-109 0 -182.5 -75t-73.5 -192q0 -113 73.5 -189t182.5 -76q113 0 201 72q11 9 17 9q7 0 15 -10z" />
    <glyph glyph-name="cdotaccent" unicode="&#x10b;" horiz-adv-x="522" 
d="M219 618q0 25 16.5 41t41.5 16t41.5 -16t16.5 -41q0 -24 -16.5 -39.5t-41.5 -15.5t-41.5 15.5t-16.5 39.5zM479 69q3 -5 3 -10q0 -10 -10 -17q-73 -53 -172 -53q-109 0 -182 71t-73 182q0 114 74 187t182 73q98 0 172 -52q9 -8 9 -16q0 -7 -4 -14l-29 -44q-6 -9 -13 -9
q-5 0 -15 6q-62 37 -118 37q-69 0 -113.5 -47.5t-44.5 -119.5q0 -69 44.5 -115.5t113.5 -46.5q66 0 120 38q10 6 14 6q7 0 14 -10z" />
    <glyph glyph-name="Ccaron" unicode="&#x10c;" horiz-adv-x="701" 
d="M226 877q-8 8 -8 15t10 13l30 18q10 5 15 5q7 0 20 -11l95 -94l95 94q13 11 20 11q5 0 15 -5l30 -18q10 -6 10 -13t-8 -15l-109 -105q-15 -14 -34 -14h-38q-19 0 -34 14zM668 115q5 -6 5 -14q0 -7 -12 -18q-112 -94 -259 -94q-150 0 -253 101.5t-103 256.5
q0 156 103.5 260t258.5 104q144 0 254 -93q10 -7 10 -15q0 -7 -6 -16l-29 -39q-8 -11 -16 -11q-6 0 -17 8q-91 71 -198 71q-109 0 -182.5 -75t-73.5 -192q0 -113 73.5 -189t182.5 -76q113 0 201 72q11 9 17 9q7 0 15 -10z" />
    <glyph glyph-name="ccaron" unicode="&#x10d;" horiz-adv-x="522" 
d="M120 679q-9 7 -9 14q0 6 11 14l30 17q7 5 16 5q8 0 18 -10l96 -94l95 94q11 11 19 11q7 0 16 -6l30 -17q11 -6 11 -13q0 -6 -8 -14l-109 -106q-15 -14 -35 -14h-38q-19 0 -34 14zM479 69q3 -5 3 -10q0 -10 -10 -17q-73 -53 -172 -53q-109 0 -182 71t-73 182q0 114 74 187
t182 73q98 0 172 -52q9 -8 9 -16q0 -7 -4 -14l-29 -44q-6 -9 -13 -9q-5 0 -15 6q-62 37 -118 37q-69 0 -113.5 -47.5t-44.5 -119.5q0 -69 44.5 -115.5t113.5 -46.5q66 0 120 38q10 6 14 6q7 0 14 -10z" />
    <glyph glyph-name="Dcaron" unicode="&#x10e;" horiz-adv-x="742" 
d="M191 877q-8 8 -8 15t10 13l30 18q10 5 15 5q7 0 20 -11l95 -94l95 94q13 11 20 11q5 0 15 -5l30 -18q10 -6 10 -13t-8 -15l-109 -105q-15 -14 -34 -14h-38q-19 0 -34 14zM88 678q0 13 5 17.5t17 4.5h208q175 0 276.5 -93t101.5 -249q0 -164 -105.5 -261t-286.5 -97h-194
q-12 0 -17 4.5t-5 17.5v656zM306 95q136 0 211 69t75 190q0 115 -75 183t-207 68h-110q-12 0 -12 -11v-488q0 -11 12 -11h106z" />
    <glyph glyph-name="dcaron" unicode="&#x10f;" horiz-adv-x="667" 
d="M330 0q-138 0 -211.5 65t-73.5 177q0 113 75 180.5t212 67.5h52q11 0 11 11v227q0 13 5 17.5t17 4.5h53q12 0 17 -4.5t5 -17.5v-707q0 -12 -5 -16.5t-17 -4.5h-140zM604 629q-41 11 -41 58q0 27 17.5 44t43.5 17q28 0 45.5 -17t17.5 -47q0 -32 -26 -82l-28 -56
q-10 -16 -29 -16h-31q-16 0 -16 10q0 3 4 11zM384 89q11 0 11 12v289q0 12 -11 12h-51q-86 0 -137 -41t-51 -119q0 -75 49.5 -114t138.5 -39h51z" />
    <glyph glyph-name="Dcroat" unicode="&#x110;" horiz-adv-x="744" 
d="M88 300q0 10 -10 10h-42q-13 0 -17.5 4t-4.5 16v44q0 12 4.5 16t17.5 4h42q10 0 10 10v274q0 13 5 17.5t17 4.5h208q175 0 276.5 -93t101.5 -249q0 -164 -105.5 -261t-286.5 -97h-194q-12 0 -17 4.5t-5 17.5v278zM306 95q136 0 211 69t75 190q0 115 -75 183t-207 68h-110
q-12 0 -12 -11v-190q0 -10 10 -10h155q13 0 17.5 -4t4.5 -16v-44q0 -12 -4.5 -16t-17.5 -4h-155q-10 0 -10 -10v-194q0 -11 12 -11h106z" />
    <glyph glyph-name="dcroat" unicode="&#x111;" horiz-adv-x="571" 
d="M330 0q-138 0 -211.5 65t-73.5 177q0 113 75 180.5t212 67.5h52q11 0 11 11v77h-112q-22 0 -22 22v32q0 23 22 23h112v73q0 13 5 17.5t17 4.5h53q12 0 17 -4.5t5 -17.5v-73h55q22 0 22 -23v-32q0 -22 -22 -22h-55v-557q0 -12 -5 -16.5t-17 -4.5h-140zM384 89q11 0 11 12
v289q0 12 -11 12h-51q-86 0 -137 -41t-51 -119q0 -75 49.5 -114t138.5 -39h51z" />
    <glyph glyph-name="Emacron" unicode="&#x112;" horiz-adv-x="565" 
d="M157 838q0 12 4.5 16.5t17.5 4.5h240q13 0 17.5 -4.5t4.5 -16.5v-36q0 -12 -4.5 -16t-17.5 -4h-240q-13 0 -17.5 4t-4.5 16v36zM88 678q0 13 5 17.5t17 4.5h378q12 0 17 -4.5t5 -17.5v-51q0 -13 -5 -17.5t-17 -4.5h-288q-12 0 -12 -11v-183q0 -12 12 -12h254
q12 0 17 -4.5t5 -17.5v-50q0 -22 -22 -22h-254q-12 0 -12 -11v-188q0 -11 12 -11h289q12 0 17 -4.5t5 -17.5v-51q0 -13 -5 -17.5t-17 -4.5h-379q-12 0 -17 4.5t-5 17.5v656z" />
    <glyph glyph-name="emacron" unicode="&#x113;" horiz-adv-x="575" 
d="M148 640q0 12 4.5 16.5t17.5 4.5h240q13 0 17.5 -4.5t4.5 -16.5v-36q0 -12 -4.5 -16t-17.5 -4h-240q-13 0 -17.5 4t-4.5 16v36zM497 80q4 -7 4 -14q0 -10 -11 -17q-81 -60 -192 -60q-113 0 -183 72.5t-70 181.5q0 113 70 186t176 73q105 0 172 -70.5t67 -176.5v-17
q0 -18 -17 -18h-368q6 -64 49.5 -104.5t110.5 -40.5q74 0 141 45q9 6 16 6q8 0 13 -9zM427 295q-9 56 -45.5 90.5t-91.5 34.5q-53 0 -90.5 -32.5t-51.5 -92.5h279z" />
    <glyph glyph-name="Ebreve" unicode="&#x114;" horiz-adv-x="565" 
d="M208 910q13 0 16 -15q8 -65 75 -65q66 0 75 65q3 15 16 15h44q14 0 14 -16q0 -58 -37.5 -97t-113.5 -39q-74 0 -110.5 38.5t-36.5 97.5q0 16 14 16h44zM88 678q0 13 5 17.5t17 4.5h378q12 0 17 -4.5t5 -17.5v-51q0 -13 -5 -17.5t-17 -4.5h-288q-12 0 -12 -11v-183
q0 -12 12 -12h254q12 0 17 -4.5t5 -17.5v-50q0 -22 -22 -22h-254q-12 0 -12 -11v-188q0 -11 12 -11h289q12 0 17 -4.5t5 -17.5v-51q0 -13 -5 -17.5t-17 -4.5h-379q-12 0 -17 4.5t-5 17.5v656z" />
    <glyph glyph-name="ebreve" unicode="&#x115;" horiz-adv-x="575" 
d="M199 712q13 0 16 -15q8 -65 75 -65q66 0 75 65q3 15 16 15h44q14 0 14 -16q0 -58 -37.5 -97t-113.5 -39q-74 0 -110.5 38.5t-36.5 97.5q0 16 14 16h44zM497 80q4 -7 4 -14q0 -10 -11 -17q-81 -60 -192 -60q-113 0 -183 72.5t-70 181.5q0 113 70 186t176 73
q105 0 172 -70.5t67 -176.5v-17q0 -18 -17 -18h-368q6 -64 49.5 -104.5t110.5 -40.5q74 0 141 45q9 6 16 6q8 0 13 -9zM427 295q-9 56 -45.5 90.5t-91.5 34.5q-53 0 -90.5 -32.5t-51.5 -92.5h279z" />
    <glyph glyph-name="Edotaccent" unicode="&#x116;" horiz-adv-x="565" 
d="M240 814q0 25 17 41t42 16q26 0 42.5 -16t16.5 -41t-16.5 -40.5t-42.5 -15.5q-25 0 -42 16t-17 40zM88 678q0 13 5 17.5t17 4.5h378q12 0 17 -4.5t5 -17.5v-51q0 -13 -5 -17.5t-17 -4.5h-288q-12 0 -12 -11v-183q0 -12 12 -12h254q12 0 17 -4.5t5 -17.5v-50
q0 -22 -22 -22h-254q-12 0 -12 -11v-188q0 -11 12 -11h289q12 0 17 -4.5t5 -17.5v-51q0 -13 -5 -17.5t-17 -4.5h-379q-12 0 -17 4.5t-5 17.5v656z" />
    <glyph glyph-name="edotaccent" unicode="&#x117;" horiz-adv-x="575" 
d="M232 618q0 25 16.5 41t41.5 16t41.5 -16t16.5 -41q0 -24 -16.5 -39.5t-41.5 -15.5t-41.5 15.5t-16.5 39.5zM497 80q4 -7 4 -14q0 -10 -11 -17q-81 -60 -192 -60q-113 0 -183 72.5t-70 181.5q0 113 70 186t176 73q105 0 172 -70.5t67 -176.5v-17q0 -18 -17 -18h-368
q6 -64 49.5 -104.5t110.5 -40.5q74 0 141 45q9 6 16 6q8 0 13 -9zM427 295q-9 56 -45.5 90.5t-91.5 34.5q-53 0 -90.5 -32.5t-51.5 -92.5h279z" />
    <glyph glyph-name="Eogonek" unicode="&#x118;" horiz-adv-x="565" 
d="M88 678q0 13 5 17.5t17 4.5h378q12 0 17 -4.5t5 -17.5v-51q0 -13 -5 -17.5t-17 -4.5h-288q-12 0 -12 -11v-183q0 -12 12 -12h254q12 0 17 -4.5t5 -17.5v-50q0 -22 -22 -22h-254q-12 0 -12 -11v-188q0 -11 12 -11h289q12 0 17 -4.5t5 -17.5v-51q0 -13 -5 -17.5t-17 -4.5
h-82q-64 -34 -64 -86q0 -24 17 -39t41 -15q29 0 56 15q7 4 12 4q7 0 11 -9l12 -23q3 -6 3 -11q0 -10 -12 -17q-41 -25 -90 -25q-54 0 -88.5 30.5t-34.5 77.5q0 55 51 98h-211q-12 0 -17 4.5t-5 17.5v656z" />
    <glyph glyph-name="eogonek" unicode="&#x119;" horiz-adv-x="575" 
d="M410 -153q3 -6 3 -11q0 -10 -12 -17q-39 -25 -89 -25q-54 0 -88 30.5t-34 77.5q0 52 45 94q-88 19 -139 87t-51 160q0 113 70 186t176 73q105 0 172 -70.5t67 -176.5v-17q0 -18 -17 -18h-368q6 -64 49.5 -104.5t110.5 -40.5q73 0 141 45q9 6 16 6q8 0 13 -9l22 -37
q4 -7 4 -14q0 -10 -11 -17q-74 -56 -180 -60q-47 -31 -47 -76q0 -24 16 -38.5t40 -14.5q30 0 57 15q7 4 11 4q6 0 12 -9zM427 295q-9 56 -45.5 90.5t-91.5 34.5q-53 0 -90.5 -32.5t-51.5 -92.5h279z" />
    <glyph glyph-name="Ecaron" unicode="&#x11a;" horiz-adv-x="565" 
d="M137 877q-8 8 -8 15t10 13l30 18q10 5 15 5q7 0 20 -11l95 -94l95 94q13 11 20 11q5 0 15 -5l30 -18q10 -6 10 -13t-8 -15l-109 -105q-15 -14 -34 -14h-38q-19 0 -34 14zM88 678q0 13 5 17.5t17 4.5h378q12 0 17 -4.5t5 -17.5v-51q0 -13 -5 -17.5t-17 -4.5h-288
q-12 0 -12 -11v-183q0 -12 12 -12h254q12 0 17 -4.5t5 -17.5v-50q0 -22 -22 -22h-254q-12 0 -12 -11v-188q0 -11 12 -11h289q12 0 17 -4.5t5 -17.5v-51q0 -13 -5 -17.5t-17 -4.5h-379q-12 0 -17 4.5t-5 17.5v656z" />
    <glyph glyph-name="ecaron" unicode="&#x11b;" horiz-adv-x="575" 
d="M128 679q-9 7 -9 14q0 6 11 14l30 17q8 5 16 5t18 -10l96 -94l95 94q11 11 19 11q7 0 16 -6l30 -17q11 -6 11 -13q0 -6 -8 -14l-109 -106q-15 -14 -35 -14h-38q-19 0 -34 14zM497 80q4 -7 4 -14q0 -10 -11 -17q-81 -60 -192 -60q-113 0 -183 72.5t-70 181.5q0 113 70 186
t176 73q105 0 172 -70.5t67 -176.5v-17q0 -18 -17 -18h-368q6 -64 49.5 -104.5t110.5 -40.5q74 0 141 45q9 6 16 6q8 0 13 -9zM427 295q-9 56 -45.5 90.5t-91.5 34.5q-53 0 -90.5 -32.5t-51.5 -92.5h279z" />
    <glyph glyph-name="Gcircumflex" unicode="&#x11c;" horiz-adv-x="746" 
d="M228 780q-10 7 -10 14t8 15l109 105q15 14 34 14h38q19 0 34 -14l109 -105q8 -8 8 -15t-10 -14l-30 -17q-10 -5 -15 -5q-7 0 -20 11l-95 94l-95 -94q-13 -11 -20 -11q-5 0 -15 5zM579 309q0 13 5 17.5t17 4.5h56q12 0 17 -4.5t5 -17.5v-229q0 -20 -18 -29
q-117 -62 -260 -62q-149 0 -252 99t-103 257q0 163 106 264.5t262 101.5q139 0 249 -80q13 -9 13 -18q0 -5 -7 -15l-28 -40q-7 -10 -16 -10q-7 0 -16 6q-96 62 -197 62q-116 0 -189 -75t-73 -192q0 -118 74.5 -192t182.5 -74q94 0 158 29q14 6 14 19v178z" />
    <glyph glyph-name="gcircumflex" unicode="&#x11d;" horiz-adv-x="570" 
d="M130 582q-11 6 -11 14q0 6 8 14l109 105q15 15 35 15h38q19 0 34 -14l109 -105q9 -9 9 -15t-11 -14l-30 -17q-10 -5 -15 -5q-9 0 -19 10l-96 95l-95 -94q-11 -11 -19 -11t-16 5zM145 -141q5 17 17 17q1 0 35 -8.5t65 -8.5q130 0 133 132q0 9 -7 9h-56q-138 0 -212.5 64
t-74.5 178q0 112 74.5 180t212.5 68h139q12 0 17 -4.5t5 -17.5v-461q0 -117 -58.5 -177t-171.5 -60q-70 0 -119 21q-13 6 -13 18q0 5 1 9zM384 89q11 0 11 12v289q0 12 -11 12h-51q-86 0 -137 -41t-51 -119q0 -74 50 -113.5t138 -39.5h51z" />
    <glyph glyph-name="Gbreve" unicode="&#x11e;" horiz-adv-x="746" 
d="M297 910q13 0 16 -15q8 -65 75 -65q66 0 75 65q3 15 16 15h44q14 0 14 -16q0 -58 -37.5 -97t-113.5 -39q-74 0 -110.5 38.5t-36.5 97.5q0 16 14 16h44zM579 309q0 13 5 17.5t17 4.5h56q12 0 17 -4.5t5 -17.5v-229q0 -20 -18 -29q-117 -62 -260 -62q-149 0 -252 99
t-103 257q0 163 106 264.5t262 101.5q139 0 249 -80q13 -9 13 -18q0 -5 -7 -15l-28 -40q-7 -10 -16 -10q-7 0 -16 6q-96 62 -197 62q-116 0 -189 -75t-73 -192q0 -118 74.5 -192t182.5 -74q94 0 158 29q14 6 14 19v178z" />
    <glyph glyph-name="gbreve" unicode="&#x11f;" horiz-adv-x="570" 
d="M199 712q13 0 16 -15q8 -65 75 -65q66 0 75 65q3 15 16 15h44q14 0 14 -16q0 -58 -37.5 -97t-113.5 -39q-74 0 -110.5 38.5t-36.5 97.5q0 16 14 16h44zM145 -141q5 17 17 17q1 0 35 -8.5t65 -8.5q130 0 133 132q0 9 -7 9h-56q-138 0 -212.5 64t-74.5 178q0 112 74.5 180
t212.5 68h139q12 0 17 -4.5t5 -17.5v-461q0 -117 -58.5 -177t-171.5 -60q-70 0 -119 21q-13 6 -13 18q0 5 1 9zM384 89q11 0 11 12v289q0 12 -11 12h-51q-86 0 -137 -41t-51 -119q0 -74 50 -113.5t138 -39.5h51z" />
    <glyph glyph-name="Gdotaccent" unicode="&#x120;" horiz-adv-x="746" 
d="M329 814q0 25 17 41t42 16q26 0 42.5 -16t16.5 -41t-16.5 -40.5t-42.5 -15.5q-25 0 -42 16t-17 40zM579 309q0 13 5 17.5t17 4.5h56q12 0 17 -4.5t5 -17.5v-229q0 -20 -18 -29q-117 -62 -260 -62q-149 0 -252 99t-103 257q0 163 106 264.5t262 101.5q139 0 249 -80
q13 -9 13 -18q0 -5 -7 -15l-28 -40q-7 -10 -16 -10q-7 0 -16 6q-96 62 -197 62q-116 0 -189 -75t-73 -192q0 -118 74.5 -192t182.5 -74q94 0 158 29q14 6 14 19v178z" />
    <glyph glyph-name="gdotaccent" unicode="&#x121;" horiz-adv-x="570" 
d="M232 618q0 25 16.5 41t41.5 16t41.5 -16t16.5 -41q0 -24 -16.5 -39.5t-41.5 -15.5t-41.5 15.5t-16.5 39.5zM145 -141q5 17 17 17q1 0 35 -8.5t65 -8.5q130 0 133 132q0 9 -7 9h-56q-138 0 -212.5 64t-74.5 178q0 112 74.5 180t212.5 68h139q12 0 17 -4.5t5 -17.5v-461
q0 -117 -58.5 -177t-171.5 -60q-70 0 -119 21q-13 6 -13 18q0 5 1 9zM384 89q11 0 11 12v289q0 12 -11 12h-51q-86 0 -137 -41t-51 -119q0 -74 50 -113.5t138 -39.5h51z" />
    <glyph glyph-name="uni0122" unicode="&#x122;" horiz-adv-x="746" 
d="M579 309q0 13 5 17.5t17 4.5h56q12 0 17 -4.5t5 -17.5v-229q0 -20 -18 -29q-117 -62 -260 -62q-149 0 -252 99t-103 257q0 163 106 264.5t262 101.5q139 0 249 -80q13 -9 13 -18q0 -5 -7 -15l-28 -40q-7 -10 -16 -10q-7 0 -16 6q-96 62 -197 62q-116 0 -189 -75t-73 -192
q0 -118 74.5 -192t182.5 -74q94 0 158 29q14 6 14 19v178zM367 -151q-18 4 -29.5 18t-11.5 36q0 26 18 42.5t45 16.5t44.5 -16.5t17.5 -44.5q0 -30 -26 -79l-24 -47q-9 -16 -29 -16h-31q-16 0 -16 10q0 3 4 11z" />
    <glyph glyph-name="uni0123" unicode="&#x123;" horiz-adv-x="570" 
d="M275 747q9 16 29 16h31q16 0 16 -10q0 -3 -4 -11l-38 -69q18 -4 29.5 -18t11.5 -36q0 -26 -18 -42.5t-45 -16.5t-44.5 16.5t-17.5 44.5q0 30 26 79zM145 -141q5 17 17 17q1 0 35 -8.5t65 -8.5q130 0 133 132q0 9 -7 9h-56q-138 0 -212.5 64t-74.5 178q0 112 74.5 180
t212.5 68h139q12 0 17 -4.5t5 -17.5v-461q0 -117 -58.5 -177t-171.5 -60q-70 0 -119 21q-13 6 -13 18q0 5 1 9zM384 89q11 0 11 12v289q0 12 -11 12h-51q-86 0 -137 -41t-51 -119q0 -74 50 -113.5t138 -39.5h51z" />
    <glyph glyph-name="Hcircumflex" unicode="&#x124;" horiz-adv-x="731" 
d="M205 780q-10 7 -10 14t8 15l109 105q15 14 34 14h38q19 0 34 -14l109 -105q8 -8 8 -15t-10 -14l-30 -17q-10 -5 -15 -5q-7 0 -20 11l-95 94l-95 -94q-13 -11 -20 -11q-5 0 -15 5zM88 678q0 13 5 17.5t17 4.5h56q12 0 17 -4.5t5 -17.5v-260q0 -12 12 -12h331q12 0 12 12
v260q0 13 5 17.5t17 4.5h56q12 0 17 -4.5t5 -17.5v-656q0 -13 -5 -17.5t-17 -4.5h-56q-12 0 -17 4.5t-5 17.5v279q0 11 -12 11h-331q-12 0 -12 -11v-279q0 -13 -5 -17.5t-17 -4.5h-56q-12 0 -17 4.5t-5 17.5v656z" />
    <glyph glyph-name="hcircumflex" unicode="&#x125;" horiz-adv-x="589" 
d="M130 810q-10 7 -10 14t8 15l109 105q15 14 34 14h38q19 0 34 -14l109 -105q8 -8 8 -15t-10 -14l-30 -17q-10 -5 -15 -5q-7 0 -20 11l-95 94l-95 -94q-13 -11 -20 -11q-5 0 -15 5zM79 730q0 20 21 20h53q23 0 23 -20v-296q52 66 143 66q95 0 144.5 -59.5t49.5 -170.5v-252
q0 -18 -17 -18h-62q-18 0 -18 18v245q0 71 -31 109.5t-89 38.5q-57 0 -88.5 -38.5t-31.5 -109.5v-245q0 -18 -17 -18h-62q-18 0 -18 18v712z" />
    <glyph glyph-name="Hbar" unicode="&#x126;" horiz-adv-x="731" 
d="M88 502q0 10 -10 10h-42q-13 0 -17.5 4t-4.5 17v40q0 12 4.5 16t17.5 4h42q10 0 10 10v75q0 13 5 17.5t17 4.5h56q12 0 17 -4.5t5 -17.5v-75q0 -10 10 -10h335q10 0 10 10v75q0 13 5 17.5t17 4.5h56q12 0 17 -4.5t5 -17.5v-75q0 -10 10 -10h42q13 0 17.5 -4t4.5 -16v-40
q0 -13 -4.5 -17t-17.5 -4h-42q-10 0 -10 -10v-480q0 -13 -5 -17.5t-17 -4.5h-56q-12 0 -17 4.5t-5 17.5v278q0 12 -12 12h-331q-12 0 -12 -12v-278q0 -13 -5 -17.5t-17 -4.5h-56q-12 0 -17 4.5t-5 17.5v480zM531 400q12 0 12 12v90q0 10 -10 10h-335q-10 0 -10 -10v-90
q0 -12 12 -12h331z" />
    <glyph glyph-name="hbar" unicode="&#x127;" horiz-adv-x="589" 
d="M79 578h-56q-22 0 -22 22v32q0 23 22 23h56v75q0 20 21 20h53q23 0 23 -20v-75h112q22 0 22 -23v-32q0 -22 -22 -22h-112v-144q52 66 143 66q95 0 144.5 -59.5t49.5 -170.5v-252q0 -18 -17 -18h-62q-18 0 -18 18v245q0 71 -31 109.5t-89 38.5q-57 0 -88.5 -38.5
t-31.5 -109.5v-245q0 -18 -17 -18h-62q-18 0 -18 18v560z" />
    <glyph glyph-name="Itilde" unicode="&#x128;" horiz-adv-x="276" 
d="M-44 800q-4 5 -4 10q0 4 6 12q44 56 110 56q32 0 78 -21t64 -21q34 0 63 35q6 7 12 7q5 0 11 -6l24 -30q4 -5 4 -10q0 -4 -6 -13q-45 -55 -110 -55q-32 0 -78 21t-64 21q-34 0 -63 -35q-6 -7 -12 -7q-5 0 -11 6zM88 678q0 13 5 17.5t17 4.5h56q12 0 17 -4.5t5 -17.5v-656
q0 -13 -5 -17.5t-17 -4.5h-56q-12 0 -17 4.5t-5 17.5v656z" />
    <glyph glyph-name="itilde" unicode="&#x129;" horiz-adv-x="255" 
d="M-50 602q-5 7 -5 11q0 5 6 13q16 21 48.5 37.5t62.5 16.5q32 0 78 -21t64 -21q25 0 64 36q6 6 11 6q7 0 11 -6l24 -30q4 -4 4 -11t-5 -13q-15 -20 -48.5 -37t-62.5 -17q-32 0 -78 21t-64 21q-6 0 -11 -1t-10.5 -4t-9.5 -5t-10 -6.5l-8.5 -6.5t-8.5 -7.5t-7 -6.5
q-7 -5 -11 -5t-10 6zM79 468q0 13 5 17.5t17 4.5h53q12 0 17 -4.5t5 -17.5v-446q0 -13 -5 -17.5t-17 -4.5h-53q-12 0 -17 4.5t-5 17.5v446z" />
    <glyph glyph-name="Imacron" unicode="&#x12a;" horiz-adv-x="276" 
d="M-4 838q0 12 4.5 16.5t17.5 4.5h240q13 0 17.5 -4.5t4.5 -16.5v-36q0 -12 -4.5 -16t-17.5 -4h-240q-13 0 -17.5 4t-4.5 16v36zM88 678q0 13 5 17.5t17 4.5h56q12 0 17 -4.5t5 -17.5v-656q0 -13 -5 -17.5t-17 -4.5h-56q-12 0 -17 4.5t-5 17.5v656z" />
    <glyph glyph-name="imacron" unicode="&#x12b;" horiz-adv-x="255" 
d="M-15 640q0 12 4.5 16.5t17.5 4.5h240q13 0 17.5 -4.5t4.5 -16.5v-36q0 -12 -4.5 -16t-17.5 -4h-240q-13 0 -17.5 4t-4.5 16v36zM79 468q0 13 5 17.5t17 4.5h53q12 0 17 -4.5t5 -17.5v-446q0 -13 -5 -17.5t-17 -4.5h-53q-12 0 -17 4.5t-5 17.5v446z" />
    <glyph glyph-name="Ibreve" unicode="&#x12c;" horiz-adv-x="276" 
d="M47 910q13 0 16 -15q8 -65 75 -65q66 0 75 65q3 15 16 15h44q14 0 14 -16q0 -58 -37.5 -97t-113.5 -39q-74 0 -110.5 38.5t-36.5 97.5q0 16 14 16h44zM88 678q0 13 5 17.5t17 4.5h56q12 0 17 -4.5t5 -17.5v-656q0 -13 -5 -17.5t-17 -4.5h-56q-12 0 -17 4.5t-5 17.5v656z
" />
    <glyph glyph-name="ibreve" unicode="&#x12d;" horiz-adv-x="255" 
d="M36 712q13 0 16 -15q8 -65 75 -65q66 0 75 65q3 15 16 15h44q14 0 14 -16q0 -58 -37.5 -97t-113.5 -39q-74 0 -110.5 38.5t-36.5 97.5q0 16 14 16h44zM79 468q0 13 5 17.5t17 4.5h53q12 0 17 -4.5t5 -17.5v-446q0 -13 -5 -17.5t-17 -4.5h-53q-12 0 -17 4.5t-5 17.5v446z
" />
    <glyph glyph-name="Iogonek" unicode="&#x12e;" horiz-adv-x="276" 
d="M242 -153q3 -6 3 -11q0 -10 -12 -17q-41 -25 -90 -25q-54 0 -88.5 30.5t-34.5 77.5q0 64 68 111v665q0 13 5 17.5t17 4.5h56q12 0 17 -4.5t5 -17.5v-656q0 -13 -5 -17.5t-17 -4.5h-9q-64 -34 -64 -86q0 -24 17 -39t41 -15q29 0 56 15q7 4 12 4q7 0 11 -9z" />
    <glyph glyph-name="iogonek" unicode="&#x12f;" horiz-adv-x="255" 
d="M66 661q0 27 17 44.5t44 17.5t44.5 -17.5t17.5 -44.5q0 -26 -17.5 -43.5t-44.5 -17.5t-44 17.5t-17 43.5zM79 468q0 13 5 17.5t17 4.5h53q12 0 17 -4.5t5 -17.5v-446q0 -22 -20 -22h-4q-66 -33 -66 -87q0 -24 16 -38.5t40 -14.5q30 0 57 15q7 4 11 4q6 0 12 -9l11 -23
q3 -6 3 -11q0 -10 -12 -17q-39 -25 -89 -25q-54 0 -88 30.5t-34 77.5q0 65 66 110v456z" />
    <glyph glyph-name="Idotaccent" unicode="&#x130;" horiz-adv-x="276" 
d="M79 814q0 25 17 41t42 16q26 0 42.5 -16t16.5 -41t-16.5 -40.5t-42.5 -15.5q-25 0 -42 16t-17 40zM88 678q0 13 5 17.5t17 4.5h56q12 0 17 -4.5t5 -17.5v-656q0 -13 -5 -17.5t-17 -4.5h-56q-12 0 -17 4.5t-5 17.5v656z" />
    <glyph glyph-name="dotlessi" unicode="&#x131;" horiz-adv-x="255" 
d="M79 468q0 13 5 17.5t17 4.5h53q12 0 17 -4.5t5 -17.5v-446q0 -13 -5 -17.5t-17 -4.5h-53q-12 0 -17 4.5t-5 17.5v446z" />
    <glyph glyph-name="IJ" unicode="&#x132;" horiz-adv-x="560" 
d="M88 678q0 13 5 17.5t17 4.5h56q12 0 17 -4.5t5 -17.5v-656q0 -13 -5 -17.5t-17 -4.5h-56q-12 0 -17 4.5t-5 17.5v656zM220 -120q2 18 17 18q3 0 18.5 -1.5t26.5 -1.5q45 0 70 35.5t25 104.5v643q0 13 5 17.5t17 4.5h56q12 0 17 -4.5t5 -17.5v-651q0 -227 -187 -227
q-41 0 -60 6q-19 4 -16 24z" />
    <glyph glyph-name="ij" unicode="&#x133;" horiz-adv-x="510" 
d="M66 661q0 27 17 44.5t44 17.5t44.5 -17.5t17.5 -44.5q0 -26 -17.5 -43.5t-44.5 -17.5t-44 17.5t-17 43.5zM322 661q0 27 17 44.5t44 17.5t44.5 -17.5t17.5 -44.5q0 -26 -17.5 -43.5t-44.5 -17.5t-44 17.5t-17 43.5zM79 468q0 13 5 17.5t17 4.5h53q12 0 17 -4.5t5 -17.5
v-446q0 -13 -5 -17.5t-17 -4.5h-53q-12 0 -17 4.5t-5 17.5v446zM186 -157q1 19 17 19q3 0 17 -1.5t23 -1.5q44 0 68 35.5t24 103.5v472q0 20 19 20h59q19 0 19 -20v-476q0 -224 -180 -224q-36 0 -55 5q-19 3 -16 24z" />
    <glyph glyph-name="Jcircumflex" unicode="&#x134;" horiz-adv-x="284" 
d="M-9 780q-10 7 -10 14t8 15l109 105q15 14 34 14h38q19 0 34 -14l109 -105q8 -8 8 -15t-10 -14l-30 -17q-10 -5 -15 -5q-7 0 -20 11l-95 94l-95 -94q-13 -11 -20 -11q-5 0 -15 5zM-56 -120q2 18 17 18q3 0 18.5 -1.5t26.5 -1.5q45 0 70 35.5t25 104.5v643q0 13 5 17.5
t17 4.5h56q12 0 17 -4.5t5 -17.5v-651q0 -227 -187 -227q-41 0 -60 6q-19 4 -16 24z" />
    <glyph glyph-name="jcircumflex" unicode="&#x135;" horiz-adv-x="255" 
d="M-32 582q-11 6 -11 14q0 6 8 14l109 105q15 15 35 15h38q19 0 34 -14l109 -105q9 -9 9 -15t-11 -14l-30 -17q-10 -5 -15 -5q-9 0 -19 10l-96 95l-95 -94q-11 -11 -19 -11q-9 0 -16 5zM-69 -157q1 19 17 19q3 0 17 -1.5t23 -1.5q44 0 68 35.5t24 103.5v472q0 20 19 20h59
q19 0 19 -20v-476q0 -224 -180 -224q-36 0 -55 5q-19 3 -16 24z" />
    <glyph glyph-name="uni0136" unicode="&#x136;" horiz-adv-x="621" 
d="M88 678q0 13 5 17.5t17 4.5h56q12 0 17 -4.5t5 -17.5v-656q0 -13 -5 -17.5t-17 -4.5h-56q-12 0 -17 4.5t-5 17.5v656zM223 333q-9 11 -9 19q0 9 10 20l254 304q12 15 20 19.5t24 4.5h65q19 0 19 -11q0 -6 -7 -14l-271 -320l278 -329q8 -10 8 -15q0 -11 -20 -11h-69
q-17 0 -25 4.5t-20 18.5zM310 -151q-18 4 -29.5 18t-11.5 36q0 26 18 42.5t45 16.5t44.5 -16.5t17.5 -44.5q0 -30 -26 -79l-24 -47q-9 -16 -29 -16h-31q-16 0 -16 10q0 3 4 11z" />
    <glyph glyph-name="uni0137" unicode="&#x137;" horiz-adv-x="521" 
d="M79 728q0 13 5 17.5t17 4.5h53q12 0 17 -4.5t5 -17.5v-706q0 -13 -5 -17.5t-17 -4.5h-53q-12 0 -17 4.5t-5 17.5v706zM198 234q-7 10 -7 14q0 5 7 15l175 208q16 19 37 19h72q15 0 15 -9q0 -7 -7 -15l-183 -213l205 -231q5 -7 5 -12q0 -10 -15 -10h-76q-23 0 -38 18z
M264 -151q-18 4 -29.5 18t-11.5 36q0 26 18 42.5t45 16.5t44.5 -16.5t17.5 -44.5q0 -30 -26 -79l-24 -47q-9 -16 -29 -16h-31q-16 0 -16 10q0 3 4 11z" />
    <glyph glyph-name="kgreenlandic" unicode="&#x138;" horiz-adv-x="521" 
d="M79 468q0 13 5 17.5t17 4.5h53q12 0 17 -4.5t5 -17.5v-446q0 -13 -5 -17.5t-17 -4.5h-53q-12 0 -17 4.5t-5 17.5v446zM198 234q-7 10 -7 14q0 5 7 15l175 208q16 19 37 19h72q15 0 15 -9q0 -7 -7 -15l-183 -213l205 -231q5 -7 5 -12q0 -10 -15 -10h-76q-23 0 -38 18z" />
    <glyph glyph-name="Lacute" unicode="&#x139;" horiz-adv-x="552" 
d="M100 785q-8 8 -8 13q0 6 9 14l144 118q11 8 18 8t18 -9l29 -24q8 -8 8 -15q0 -8 -11 -16l-150 -108q-13 -8 -18 -8t-14 7zM88 678q0 13 5 17.5t17 4.5h56q12 0 17 -4.5t5 -17.5v-572q0 -11 12 -11h295q12 0 17 -4.5t5 -17.5v-51q0 -13 -5 -17.5t-17 -4.5h-385
q-12 0 -17 4.5t-5 17.5v656z" />
    <glyph glyph-name="lacute" unicode="&#x13a;" horiz-adv-x="255" 
d="M46 815q-8 8 -8 13q0 6 9 14l144 118q11 8 18 8t18 -9l29 -24q8 -8 8 -15q0 -8 -11 -16l-150 -108q-13 -8 -18 -8t-14 7zM79 728q0 13 5 17.5t17 4.5h53q12 0 17 -4.5t5 -17.5v-706q0 -13 -5 -17.5t-17 -4.5h-53q-12 0 -17 4.5t-5 17.5v706z" />
    <glyph glyph-name="uni013B" unicode="&#x13b;" horiz-adv-x="552" 
d="M88 678q0 13 5 17.5t17 4.5h56q12 0 17 -4.5t5 -17.5v-572q0 -11 12 -11h295q12 0 17 -4.5t5 -17.5v-51q0 -13 -5 -17.5t-17 -4.5h-385q-12 0 -17 4.5t-5 17.5v656zM286 -151q-18 4 -29.5 18t-11.5 36q0 26 18 42.5t45 16.5t44.5 -16.5t17.5 -44.5q0 -30 -26 -79l-24 -47
q-9 -16 -29 -16h-31q-16 0 -16 10q0 3 4 11z" />
    <glyph glyph-name="uni013C" unicode="&#x13c;" horiz-adv-x="255" 
d="M79 728q0 13 5 17.5t17 4.5h53q12 0 17 -4.5t5 -17.5v-706q0 -13 -5 -17.5t-17 -4.5h-53q-12 0 -17 4.5t-5 17.5v706zM107 -151q-18 4 -29.5 18t-11.5 36q0 26 18 42.5t45 16.5t44.5 -16.5t17.5 -44.5q0 -30 -26 -79l-24 -47q-9 -16 -29 -16h-31q-16 0 -16 10q0 3 4 11z
" />
    <glyph glyph-name="Lcaron" unicode="&#x13d;" horiz-adv-x="552" 
d="M394 591q-41 11 -41 58q0 27 17.5 44t43.5 17q28 0 45.5 -17t17.5 -47q0 -32 -26 -82l-28 -56q-10 -16 -29 -16h-31q-16 0 -16 10q0 3 4 11zM88 678q0 13 5 17.5t17 4.5h56q12 0 17 -4.5t5 -17.5v-572q0 -11 12 -11h295q12 0 17 -4.5t5 -17.5v-51q0 -13 -5 -17.5
t-17 -4.5h-385q-12 0 -17 4.5t-5 17.5v656z" />
    <glyph glyph-name="lcaron" unicode="&#x13e;" horiz-adv-x="350" 
d="M79 728q0 13 5 17.5t17 4.5h53q12 0 17 -4.5t5 -17.5v-706q0 -13 -5 -17.5t-17 -4.5h-53q-12 0 -17 4.5t-5 17.5v706zM287 629q-41 11 -41 58q0 27 17.5 44t43.5 17q28 0 45.5 -17t17.5 -47q0 -32 -26 -82l-28 -56q-10 -16 -29 -16h-31q-16 0 -16 10q0 3 4 11z" />
    <glyph glyph-name="Ldot" unicode="&#x13f;" horiz-adv-x="552" 
d="M88 678q0 13 5 17.5t17 4.5h56q12 0 17 -4.5t5 -17.5v-572q0 -11 12 -11h295q12 0 17 -4.5t5 -17.5v-51q0 -13 -5 -17.5t-17 -4.5h-385q-12 0 -17 4.5t-5 17.5v656zM338 362q0 25 17 41t42 16q26 0 42.5 -16t16.5 -41t-16.5 -40.5t-42.5 -15.5q-25 0 -42 16t-17 40z" />
    <glyph glyph-name="ldot" unicode="&#x140;" horiz-adv-x="379" 
d="M79 728q0 13 5 17.5t17 4.5h53q12 0 17 -4.5t5 -17.5v-706q0 -13 -5 -17.5t-17 -4.5h-53q-12 0 -17 4.5t-5 17.5v706zM255 360q0 25 17 41t42 16q26 0 42.5 -16t16.5 -41t-16.5 -40.5t-42.5 -15.5q-25 0 -42 16t-17 40z" />
    <glyph glyph-name="Lslash" unicode="&#x141;" horiz-adv-x="552" 
d="M88 272l-65 -31q-7 -4 -13 -4q-12 0 -12 19v42q0 22 20 32l70 34v314q0 13 5 17.5t17 4.5h56q12 0 17 -4.5t5 -17.5v-266l186 91q7 4 13 4q12 0 12 -19v-43q0 -21 -20 -31l-191 -94v-214q0 -11 12 -11h295q12 0 17 -4.5t5 -17.5v-51q0 -13 -5 -17.5t-17 -4.5h-385
q-12 0 -17 4.5t-5 17.5v250z" />
    <glyph glyph-name="lslash" unicode="&#x142;" horiz-adv-x="274" 
d="M88 297l-57 -29q-10 -4 -13 -4q-11 0 -11 18v36q0 21 20 30l61 31v349q0 13 5 17.5t17 4.5h53q13 0 18 -4.5t5 -17.5v-305l57 29q10 4 12 4q12 0 12 -18v-38q0 -21 -20 -30l-61 -30v-318q0 -13 -5 -17.5t-18 -4.5h-53q-12 0 -17 4.5t-5 17.5v275z" />
    <glyph glyph-name="Nacute" unicode="&#x143;" horiz-adv-x="744" 
d="M302 785q-8 8 -8 13q0 6 9 14l144 118q11 8 18 8t18 -9l29 -24q8 -8 8 -15q0 -8 -11 -16l-150 -108q-13 -8 -18 -8t-14 7zM88 678q0 33 21 33q15 0 41 -31l406 -479v477q0 13 5 17.5t17 4.5h56q12 0 17 -4.5t5 -17.5v-656q0 -33 -20 -33q-15 0 -42 31l-406 479v-477
q0 -13 -5 -17.5t-17 -4.5h-56q-12 0 -17 4.5t-5 17.5v656z" />
    <glyph glyph-name="nacute" unicode="&#x144;" horiz-adv-x="589" 
d="M207 587q-9 6 -9 13q0 6 9 13l151 119q11 8 19 8q7 0 18 -8l35 -27q9 -7 9 -14q0 -9 -12 -16l-161 -107q-10 -7 -17 -7t-16 6zM79 465q0 25 25 25h46q26 0 26 -25v-31q50 66 143 66q95 0 144.5 -59.5t49.5 -170.5v-252q0 -18 -17 -18h-62q-18 0 -18 18v245
q0 71 -31 109.5t-89 38.5q-57 0 -88.5 -38.5t-31.5 -109.5v-245q0 -18 -17 -18h-62q-18 0 -18 18v447z" />
    <glyph glyph-name="uni0145" unicode="&#x145;" horiz-adv-x="744" 
d="M88 678q0 33 21 33q15 0 41 -31l406 -479v477q0 13 5 17.5t17 4.5h56q12 0 17 -4.5t5 -17.5v-656q0 -33 -20 -33q-15 0 -42 31l-406 479v-477q0 -13 -5 -17.5t-17 -4.5h-56q-12 0 -17 4.5t-5 17.5v656zM354 -151q-18 4 -29.5 18t-11.5 36q0 26 18 42.5t45 16.5
t44.5 -16.5t17.5 -44.5q0 -30 -26 -79l-24 -47q-9 -16 -29 -16h-31q-16 0 -16 10q0 3 4 11z" />
    <glyph glyph-name="uni0146" unicode="&#x146;" horiz-adv-x="589" 
d="M79 465q0 25 25 25h46q26 0 26 -25v-31q50 66 143 66q95 0 144.5 -59.5t49.5 -170.5v-252q0 -18 -17 -18h-62q-18 0 -18 18v245q0 71 -31 109.5t-89 38.5q-57 0 -88.5 -38.5t-31.5 -109.5v-245q0 -18 -17 -18h-62q-18 0 -18 18v447zM274 -151q-18 4 -29.5 18t-11.5 36
q0 26 18 42.5t45 16.5t44.5 -16.5t17.5 -44.5q0 -30 -26 -79l-24 -47q-9 -16 -29 -16h-31q-16 0 -16 10q0 3 4 11z" />
    <glyph glyph-name="Ncaron" unicode="&#x147;" horiz-adv-x="744" 
d="M211 877q-8 8 -8 15t10 13l30 18q10 5 15 5q7 0 20 -11l95 -94l95 94q13 11 20 11q5 0 15 -5l30 -18q10 -6 10 -13t-8 -15l-109 -105q-15 -14 -34 -14h-38q-19 0 -34 14zM88 678q0 33 21 33q15 0 41 -31l406 -479v477q0 13 5 17.5t17 4.5h56q12 0 17 -4.5t5 -17.5v-656
q0 -33 -20 -33q-15 0 -42 31l-406 479v-477q0 -13 -5 -17.5t-17 -4.5h-56q-12 0 -17 4.5t-5 17.5v656z" />
    <glyph glyph-name="ncaron" unicode="&#x148;" horiz-adv-x="589" 
d="M132 679q-9 7 -9 14q0 6 11 14l30 17q7 5 16 5q8 0 18 -10l96 -94l95 94q11 11 19 11q7 0 16 -6l30 -17q11 -6 11 -13q0 -6 -8 -14l-109 -106q-15 -14 -35 -14h-38q-19 0 -34 14zM79 465q0 25 25 25h46q26 0 26 -25v-31q50 66 143 66q95 0 144.5 -59.5t49.5 -170.5v-252
q0 -18 -17 -18h-62q-18 0 -18 18v245q0 71 -31 109.5t-89 38.5q-57 0 -88.5 -38.5t-31.5 -109.5v-245q0 -18 -17 -18h-62q-18 0 -18 18v447z" />
    <glyph glyph-name="napostrophe" unicode="&#x149;" horiz-adv-x="589" 
d="M-84 591q-17 4 -29 19t-12 38q0 27 17.5 44t43.5 17q29 0 46.5 -16.5t17.5 -46.5q0 -33 -26 -83l-28 -55q-10 -17 -29 -17h-31q-16 0 -16 10q0 2 4 12zM79 465q0 25 25 25h46q26 0 26 -25v-31q50 66 143 66q95 0 144.5 -59.5t49.5 -170.5v-252q0 -18 -17 -18h-62
q-18 0 -18 18v245q0 71 -31 109.5t-89 38.5q-57 0 -88.5 -38.5t-31.5 -109.5v-245q0 -18 -17 -18h-62q-18 0 -18 18v447z" />
    <glyph glyph-name="Eng" unicode="&#x14a;" horiz-adv-x="744" 
d="M88 678q0 33 21 33q15 0 41 -31l406 -479v477q0 13 5 17.5t17 4.5h56q12 0 17 -4.5t5 -17.5v-651q0 -227 -186 -227q-41 0 -60 6q-19 4 -16 24l5 50q2 18 18 18q3 0 18.5 -1.5t25.5 -1.5q45 0 70 35.5t25 104.5v22l-368 442v-477q0 -13 -5 -17.5t-17 -4.5h-56
q-12 0 -17 4.5t-5 17.5v656z" />
    <glyph glyph-name="eng" unicode="&#x14b;" horiz-adv-x="589" 
d="M267 -157q1 19 17 19q4 0 17.5 -1.5t22.5 -1.5q44 0 68 35.5t24 103.5v265q0 71 -31 109.5t-89 38.5q-57 0 -88.5 -38.5t-31.5 -109.5v-245q0 -18 -17 -18h-62q-18 0 -18 18v447q0 25 25 25h46q26 0 26 -25v-31q50 66 143 66q95 0 144.5 -59.5t49.5 -170.5v-276
q0 -224 -180 -224q-32 0 -55 5q-18 4 -16 24z" />
    <glyph glyph-name="Omacron" unicode="&#x14c;" horiz-adv-x="814" 
d="M265 838q0 12 4.5 16.5t17.5 4.5h240q13 0 17.5 -4.5t4.5 -16.5v-36q0 -12 -4.5 -16t-17.5 -4h-240q-13 0 -17.5 4t-4.5 16v36zM46 347q0 155 104 259.5t258 104.5t257 -102.5t103 -257.5t-104 -258.5t-260 -103.5q-153 0 -255.5 102t-102.5 256zM405 84q109 0 184 76
t75 190q0 116 -74 191t-183 75t-183 -75.5t-74 -192.5q0 -114 73 -189t182 -75z" />
    <glyph glyph-name="omacron" unicode="&#x14d;" horiz-adv-x="608" 
d="M161 640q0 12 4.5 16.5t17.5 4.5h240q13 0 17.5 -4.5t4.5 -16.5v-36q0 -12 -4.5 -16t-17.5 -4h-240q-13 0 -17.5 4t-4.5 16v36zM299 -11q-108 0 -181 73.5t-73 182.5t74.5 183t183.5 74t183 -74t74 -183t-75 -182.5t-186 -73.5zM300 81q66 0 113 47.5t47 116.5
q0 71 -45.5 118t-112.5 47t-112 -47t-45 -118q0 -70 44.5 -117t110.5 -47z" />
    <glyph glyph-name="Obreve" unicode="&#x14e;" horiz-adv-x="814" 
d="M316 910q13 0 16 -15q8 -65 75 -65q66 0 75 65q3 15 16 15h44q14 0 14 -16q0 -58 -37.5 -97t-113.5 -39q-74 0 -110.5 38.5t-36.5 97.5q0 16 14 16h44zM46 347q0 155 104 259.5t258 104.5t257 -102.5t103 -257.5t-104 -258.5t-260 -103.5q-153 0 -255.5 102t-102.5 256z
M405 84q109 0 184 76t75 190q0 116 -74 191t-183 75t-183 -75.5t-74 -192.5q0 -114 73 -189t182 -75z" />
    <glyph glyph-name="obreve" unicode="&#x14f;" horiz-adv-x="608" 
d="M212 712q13 0 16 -15q8 -65 75 -65q66 0 75 65q3 15 16 15h44q14 0 14 -16q0 -58 -37.5 -97t-113.5 -39q-74 0 -110.5 38.5t-36.5 97.5q0 16 14 16h44zM299 -11q-108 0 -181 73.5t-73 182.5t74.5 183t183.5 74t183 -74t74 -183t-75 -182.5t-186 -73.5zM300 81
q66 0 113 47.5t47 116.5q0 71 -45.5 118t-112.5 47t-112 -47t-45 -118q0 -70 44.5 -117t110.5 -47z" />
    <glyph glyph-name="Ohungarumlaut" unicode="&#x150;" horiz-adv-x="814" 
d="M251 782q-9 6 -9 13t9 14l131 119q10 10 16 10q7 0 18 -8l31 -19q11 -8 11 -15t-11 -16l-136 -113q-12 -9 -19 -9q-6 0 -15 6zM437 782q-8 8 -8 13q0 7 9 14l137 119q12 10 18 10t17 -8l31 -20q10 -7 10 -15t-11 -16l-143 -112q-12 -9 -20 -9q-7 0 -14 6zM46 347
q0 155 104 259.5t258 104.5t257 -102.5t103 -257.5t-104 -258.5t-260 -103.5q-153 0 -255.5 102t-102.5 256zM405 84q109 0 184 76t75 190q0 116 -74 191t-183 75t-183 -75.5t-74 -192.5q0 -114 73 -189t182 -75z" />
    <glyph glyph-name="ohungarumlaut" unicode="&#x151;" horiz-adv-x="608" 
d="M141 584q-10 6 -10 13q0 5 8 13l138 120q11 9 19 9q6 0 17 -6l37 -21q11 -8 11 -16t-10 -15l-148 -112q-11 -8 -19 -8t-15 5zM329 584q-8 6 -8 13t8 13l144 120q11 9 20 9q8 0 17 -6l37 -23q10 -6 10 -14q0 -9 -11 -17l-154 -110q-11 -8 -20 -8q-8 0 -15 5zM299 -11
q-108 0 -181 73.5t-73 182.5t74.5 183t183.5 74t183 -74t74 -183t-75 -182.5t-186 -73.5zM300 81q66 0 113 47.5t47 116.5q0 71 -45.5 118t-112.5 47t-112 -47t-45 -118q0 -70 44.5 -117t110.5 -47z" />
    <glyph glyph-name="OE" unicode="&#x152;" horiz-adv-x="1002" 
d="M925 95q12 0 17 -4.5t5 -17.5v-51q0 -13 -5 -17.5t-17 -4.5h-356q-21 0 -72 -5.5t-86 -5.5q-162 0 -263.5 101.5t-101.5 257.5q0 157 102 260t264 103q34 0 85 -5.5t72 -5.5h355q12 0 17 -4.5t5 -17.5v-51q0 -13 -5 -17.5t-17 -4.5h-288q-12 0 -12 -11v-184q0 -11 12 -11
h254q22 0 22 -22v-49q0 -13 -5 -17.5t-17 -4.5h-254q-12 0 -12 -12v-188q0 -11 12 -11h289zM524 590q0 13 -12 17q-45 9 -96 9q-120 0 -193 -74t-73 -193q0 -116 73.5 -190.5t192.5 -74.5q51 0 96 9q12 4 12 17v480z" />
    <glyph glyph-name="oe" unicode="&#x153;" horiz-adv-x="993" 
d="M915 80q5 -8 5 -14q0 -10 -12 -17q-79 -60 -192 -60q-136 0 -206 105q-34 -49 -88.5 -77t-120.5 -28q-110 0 -183 72.5t-73 181.5q0 111 74 185t185 74q65 0 119 -28t88 -77q32 49 84 77t114 28q105 0 172 -70.5t67 -176.5v-17q0 -18 -17 -18h-368q6 -64 49.5 -104.5
t110.5 -40.5q74 0 141 45q9 6 16 6q9 0 14 -9zM846 295q-10 57 -46.5 91t-91.5 34q-53 0 -90.5 -32.5t-51.5 -92.5h280zM302 81q67 0 113.5 47.5t46.5 117.5q0 71 -46 117.5t-113 46.5t-112.5 -47t-45.5 -119q0 -70 45 -116.5t112 -46.5z" />
    <glyph glyph-name="Racute" unicode="&#x154;" horiz-adv-x="635" 
d="M240 785q-8 8 -8 13q0 6 9 14l144 118q11 8 18 8t18 -9l29 -24q8 -8 8 -15q0 -8 -11 -16l-150 -108q-13 -8 -18 -8t-14 7zM88 678q0 13 5 17.5t17 4.5h196q280 0 280 -215q0 -146 -137 -194l173 -261q8 -13 8 -19q0 -11 -22 -11h-60q-17 0 -26 5.5t-19 21.5l-145 224
q-9 14 -26 14h-132q-12 0 -12 -12v-231q0 -13 -5 -17.5t-17 -4.5h-56q-12 0 -17 4.5t-5 17.5v656zM307 356q175 0 175 125q0 124 -181 124h-101q-12 0 -12 -11v-226q0 -12 12 -12h107z" />
    <glyph glyph-name="racute" unicode="&#x155;" horiz-adv-x="381" 
d="M113 587q-9 6 -9 13q0 6 9 13l151 119q11 8 19 8q7 0 18 -8l35 -27q9 -7 9 -14q0 -9 -12 -16l-161 -107q-10 -7 -17 -7t-16 6zM79 466q0 14 4 19t17 5h54q13 0 17.5 -5.5t4.5 -18.5v-36q47 70 144 70h9q14 0 19 -5.5t5 -19.5v-49q0 -25 -24 -25h-23q-65 0 -97.5 -34.5
t-32.5 -111.5v-237q0 -18 -17 -18h-62q-18 0 -18 18v448z" />
    <glyph glyph-name="uni0156" unicode="&#x156;" horiz-adv-x="635" 
d="M88 678q0 13 5 17.5t17 4.5h196q280 0 280 -215q0 -146 -137 -194l173 -261q8 -13 8 -19q0 -11 -22 -11h-60q-17 0 -26 5.5t-19 21.5l-145 224q-9 14 -26 14h-132q-12 0 -12 -12v-231q0 -13 -5 -17.5t-17 -4.5h-56q-12 0 -17 4.5t-5 17.5v656zM307 356q175 0 175 125
q0 124 -181 124h-101q-12 0 -12 -11v-226q0 -12 12 -12h107zM322 -151q-18 4 -29.5 18t-11.5 36q0 26 18 42.5t45 16.5t44.5 -16.5t17.5 -44.5q0 -30 -26 -79l-24 -47q-9 -16 -29 -16h-31q-16 0 -16 10q0 3 4 11z" />
    <glyph glyph-name="uni0157" unicode="&#x157;" horiz-adv-x="381" 
d="M79 466q0 14 4 19t17 5h54q13 0 17.5 -5.5t4.5 -18.5v-36q47 70 144 70h9q14 0 19 -5.5t5 -19.5v-49q0 -25 -24 -25h-23q-65 0 -97.5 -34.5t-32.5 -111.5v-237q0 -18 -17 -18h-62q-18 0 -18 18v448zM107 -151q-18 4 -29.5 18t-11.5 36q0 26 18 42.5t45 16.5t44.5 -16.5
t17.5 -44.5q0 -30 -26 -79l-24 -47q-9 -16 -29 -16h-31q-16 0 -16 10q0 3 4 11z" />
    <glyph glyph-name="Rcaron" unicode="&#x158;" horiz-adv-x="635" 
d="M149 877q-8 8 -8 15t10 13l30 18q10 5 15 5q7 0 20 -11l95 -94l95 94q13 11 20 11q5 0 15 -5l30 -18q10 -6 10 -13t-8 -15l-109 -105q-15 -14 -34 -14h-38q-19 0 -34 14zM88 678q0 13 5 17.5t17 4.5h196q280 0 280 -215q0 -146 -137 -194l173 -261q8 -13 8 -19
q0 -11 -22 -11h-60q-17 0 -26 5.5t-19 21.5l-145 224q-9 14 -26 14h-132q-12 0 -12 -12v-231q0 -13 -5 -17.5t-17 -4.5h-56q-12 0 -17 4.5t-5 17.5v656zM307 356q175 0 175 125q0 124 -181 124h-101q-12 0 -12 -11v-226q0 -12 12 -12h107z" />
    <glyph glyph-name="rcaron" unicode="&#x159;" horiz-adv-x="381" 
d="M49 679q-9 7 -9 14q0 6 11 14l30 17q7 5 16 5q8 0 18 -10l96 -94l95 94q11 11 19 11q7 0 16 -6l30 -17q11 -6 11 -13q0 -6 -8 -14l-109 -106q-15 -14 -35 -14h-38q-19 0 -34 14zM79 466q0 14 4 19t17 5h54q13 0 17.5 -5.5t4.5 -18.5v-36q47 70 144 70h9q14 0 19 -5.5
t5 -19.5v-49q0 -25 -24 -25h-23q-65 0 -97.5 -34.5t-32.5 -111.5v-237q0 -18 -17 -18h-62q-18 0 -18 18v448z" />
    <glyph glyph-name="Sacute" unicode="&#x15a;" horiz-adv-x="569" 
d="M216 785q-8 8 -8 13q0 6 9 14l144 118q11 8 18 8t18 -9l29 -24q8 -8 8 -15q0 -8 -11 -16l-150 -108q-13 -8 -18 -8t-14 7zM56 151q8 11 15 11q5 0 15 -8q91 -71 183 -71q70 0 110.5 29t40.5 78q0 45 -34 69t-124 47q-110 28 -163 72t-53 129q0 94 67 149t169 55
q126 0 228 -79q10 -9 10 -15q0 -4 -7 -16l-29 -43q-7 -11 -15 -11q-7 0 -17 7q-86 63 -171 63q-58 0 -94 -28t-36 -76q0 -47 35 -71t119 -45q115 -30 167 -74.5t52 -125.5q0 -94 -71.5 -151t-185.5 -57q-130 0 -237 86q-11 10 -11 17t7 17z" />
    <glyph glyph-name="sacute" unicode="&#x15b;" horiz-adv-x="476" 
d="M148 587q-9 6 -9 13q0 6 9 13l151 119q11 8 19 8q7 0 18 -8l35 -27q9 -7 9 -14q0 -9 -12 -16l-161 -107q-10 -7 -17 -7t-16 6zM68 114q6 9 12 9q5 0 12 -5q69 -48 143 -48q44 0 71 16.5t27 44.5t-23.5 41.5t-93.5 31.5q-85 23 -125.5 57.5t-40.5 95.5q0 68 51.5 106.5
t131.5 38.5q106 0 182 -51q9 -6 9 -13q0 -4 -5 -14l-24 -40q-5 -8 -12 -8q-6 0 -13 4q-74 41 -135 41q-37 0 -61.5 -15.5t-24.5 -43.5t27.5 -45t88.5 -32q91 -23 129 -55t38 -95q0 -69 -53 -107.5t-145 -38.5q-115 0 -189 57q-9 7 -9 14q0 5 6 14z" />
    <glyph glyph-name="Scircumflex" unicode="&#x15c;" horiz-adv-x="569" 
d="M127 780q-10 7 -10 14t8 15l109 105q15 14 34 14h38q19 0 34 -14l109 -105q8 -8 8 -15t-10 -14l-30 -17q-10 -5 -15 -5q-7 0 -20 11l-95 94l-95 -94q-13 -11 -20 -11q-5 0 -15 5zM56 151q8 11 15 11q5 0 15 -8q91 -71 183 -71q70 0 110.5 29t40.5 78q0 45 -34 69t-124 47
q-110 28 -163 72t-53 129q0 94 67 149t169 55q126 0 228 -79q10 -9 10 -15q0 -4 -7 -16l-29 -43q-7 -11 -15 -11q-7 0 -17 7q-86 63 -171 63q-58 0 -94 -28t-36 -76q0 -47 35 -71t119 -45q115 -30 167 -74.5t52 -125.5q0 -94 -71.5 -151t-185.5 -57q-130 0 -237 86
q-11 10 -11 17t7 17z" />
    <glyph glyph-name="scircumflex" unicode="&#x15d;" horiz-adv-x="476" 
d="M74 582q-11 6 -11 14q0 6 8 14l109 105q15 15 35 15h38q19 0 34 -14l109 -105q9 -9 9 -15t-11 -14l-30 -17q-10 -5 -15 -5q-9 0 -19 10l-96 95l-95 -94q-11 -11 -19 -11t-16 5zM68 114q6 9 12 9q5 0 12 -5q69 -48 143 -48q44 0 71 16.5t27 44.5t-23.5 41.5t-93.5 31.5
q-85 23 -125.5 57.5t-40.5 95.5q0 68 51.5 106.5t131.5 38.5q106 0 182 -51q9 -6 9 -13q0 -4 -5 -14l-24 -40q-5 -8 -12 -8q-6 0 -13 4q-74 41 -135 41q-37 0 -61.5 -15.5t-24.5 -43.5t27.5 -45t88.5 -32q91 -23 129 -55t38 -95q0 -69 -53 -107.5t-145 -38.5q-115 0 -189 57
q-9 7 -9 14q0 5 6 14z" />
    <glyph glyph-name="Scedilla" unicode="&#x15e;" horiz-adv-x="569" 
d="M173 -169q4 10 10 10q4 0 10 -3q29 -17 68 -17q31 0 49 12t18 30t-16.5 28.5t-43.5 10.5q-21 0 -44 -5q-2 -1 -6 -1q-8 0 -8 7q0 5 2 8l39 78q-122 6 -221 86q-11 10 -11 17t7 17l30 42q8 11 15 11q5 0 15 -8q91 -71 183 -71q70 0 110.5 29t40.5 78q0 45 -34 69t-124 47
q-110 28 -163 72t-53 129q0 94 67 149t169 55q126 0 228 -79q10 -9 10 -15q0 -4 -7 -16l-29 -43q-7 -11 -15 -11q-7 0 -17 7q-86 63 -171 63q-58 0 -94 -28t-36 -76q0 -47 35 -71t119 -45q115 -30 167 -74.5t52 -125.5q0 -83 -56.5 -137.5t-150.5 -67.5l-21 -41h5
q46 0 73 -23.5t27 -60.5q0 -48 -40 -78t-100 -30q-51 0 -93 22q-11 5 -11 13q0 5 3 11z" />
    <glyph glyph-name="scedilla" unicode="&#x15f;" horiz-adv-x="476" 
d="M125 -171q4 10 10 10q4 0 10 -3q35 -15 70 -15q62 0 62 40t-61 40q-18 0 -44 -4h-5q-9 0 -9 7q0 5 2 8l40 79q-91 6 -155 55q-9 7 -9 14q0 5 6 14l26 40q6 9 12 9q5 0 12 -5q69 -48 143 -48q44 0 71 16.5t27 44.5t-23.5 41.5t-93.5 31.5q-85 23 -125.5 57.5t-40.5 95.5
q0 68 51.5 106.5t131.5 38.5q106 0 182 -51q9 -6 9 -13q0 -4 -5 -14l-24 -40q-5 -8 -12 -8q-6 0 -13 4q-74 41 -135 41q-37 0 -61.5 -15.5t-24.5 -43.5t27.5 -45t88.5 -32q91 -23 129 -55t38 -95t-44.5 -101t-123.5 -44l-20 -39q50 0 78.5 -24t28.5 -64q0 -47 -38 -75.5
t-98 -28.5q-49 0 -93 21q-12 6 -12 13q0 4 3 10z" />
    <glyph glyph-name="Scaron" unicode="&#x160;" horiz-adv-x="569" 
d="M125 877q-8 8 -8 15t10 13l30 18q10 5 15 5q7 0 20 -11l95 -94l95 94q13 11 20 11q5 0 15 -5l30 -18q10 -6 10 -13t-8 -15l-109 -105q-15 -14 -34 -14h-38q-19 0 -34 14zM56 151q8 11 15 11q5 0 15 -8q91 -71 183 -71q70 0 110.5 29t40.5 78q0 45 -34 69t-124 47
q-110 28 -163 72t-53 129q0 94 67 149t169 55q126 0 228 -79q10 -9 10 -15q0 -4 -7 -16l-29 -43q-7 -11 -15 -11q-7 0 -17 7q-86 63 -171 63q-58 0 -94 -28t-36 -76q0 -47 35 -71t119 -45q115 -30 167 -74.5t52 -125.5q0 -94 -71.5 -151t-185.5 -57q-130 0 -237 86
q-11 10 -11 17t7 17z" />
    <glyph glyph-name="scaron" unicode="&#x161;" horiz-adv-x="476" 
d="M72 679q-9 7 -9 14q0 6 11 14l30 17q7 5 16 5q8 0 18 -10l96 -94l95 94q11 11 19 11q7 0 16 -6l30 -17q11 -6 11 -13q0 -6 -8 -14l-109 -106q-15 -14 -35 -14h-38q-19 0 -34 14zM68 114q6 9 12 9q5 0 12 -5q69 -48 143 -48q44 0 71 16.5t27 44.5t-23.5 41.5t-93.5 31.5
q-85 23 -125.5 57.5t-40.5 95.5q0 68 51.5 106.5t131.5 38.5q106 0 182 -51q9 -6 9 -13q0 -4 -5 -14l-24 -40q-5 -8 -12 -8q-6 0 -13 4q-74 41 -135 41q-37 0 -61.5 -15.5t-24.5 -43.5t27.5 -45t88.5 -32q91 -23 129 -55t38 -95q0 -69 -53 -107.5t-145 -38.5q-115 0 -189 57
q-9 7 -9 14q0 5 6 14z" />
    <glyph glyph-name="uni0162" unicode="&#x162;" horiz-adv-x="574" 
d="M237 594q0 11 -12 11h-188q-12 0 -17 4.5t-5 17.5v51q0 13 5 17.5t17 4.5h500q12 0 17 -4.5t5 -17.5v-51q0 -13 -5 -17.5t-17 -4.5h-188q-12 0 -12 -11v-572q0 -13 -5 -17.5t-17 -4.5h-56q-12 0 -17 4.5t-5 17.5v572zM265 -151q-18 4 -29.5 18t-11.5 36q0 26 18 42.5
t45 16.5t44.5 -16.5t17.5 -44.5q0 -30 -26 -79l-24 -47q-9 -16 -29 -16h-31q-16 0 -16 10q0 3 4 11z" />
    <glyph glyph-name="uni0163" unicode="&#x163;" horiz-adv-x="348" 
d="M124 401h-88q-13 0 -17.5 5t-4.5 17v45q0 12 4.5 17t17.5 5h88v110q0 13 5 17.5t17 4.5h52q12 0 17 -4.5t5 -17.5v-110h89q13 0 17.5 -5t4.5 -17v-45q0 -12 -4.5 -17t-17.5 -5h-89v-379q0 -13 -5 -17.5t-17 -4.5h-52q-12 0 -17 4.5t-5 17.5v379zM152 -151q-18 4 -29.5 18
t-11.5 36q0 26 18 42.5t45 16.5t44.5 -16.5t17.5 -44.5q0 -30 -26 -79l-24 -47q-9 -16 -29 -16h-31q-16 0 -16 10q0 3 4 11z" />
    <glyph glyph-name="Tcaron" unicode="&#x164;" horiz-adv-x="574" 
d="M125 877q-8 8 -8 15t10 13l30 18q10 5 15 5q7 0 20 -11l95 -94l95 94q13 11 20 11q5 0 15 -5l30 -18q10 -6 10 -13t-8 -15l-109 -105q-15 -14 -34 -14h-38q-19 0 -34 14zM237 594q0 11 -12 11h-188q-12 0 -17 4.5t-5 17.5v51q0 13 5 17.5t17 4.5h500q12 0 17 -4.5
t5 -17.5v-51q0 -13 -5 -17.5t-17 -4.5h-188q-12 0 -12 -11v-572q0 -13 -5 -17.5t-17 -4.5h-56q-12 0 -17 4.5t-5 17.5v572z" />
    <glyph glyph-name="tcaron" unicode="&#x165;" horiz-adv-x="435" 
d="M372 629q-41 11 -41 58q0 27 17.5 44t43.5 17q28 0 45.5 -17t17.5 -47q0 -32 -26 -82l-28 -56q-10 -16 -29 -16h-31q-16 0 -16 10q0 3 4 11zM124 401h-88q-13 0 -17.5 5t-4.5 17v45q0 12 4.5 17t17.5 5h88v110q0 13 5 17.5t17 4.5h52q12 0 17 -4.5t5 -17.5v-110h89
q13 0 17.5 -5t4.5 -17v-45q0 -12 -4.5 -17t-17.5 -5h-89v-379q0 -13 -5 -17.5t-17 -4.5h-52q-12 0 -17 4.5t-5 17.5v379z" />
    <glyph glyph-name="Tbar" unicode="&#x166;" horiz-adv-x="574" 
d="M237 283q0 10 -10 10h-104q-13 0 -17.5 4.5t-4.5 16.5v43q0 12 4.5 16.5t17.5 4.5h104q10 0 10 9v207q0 11 -12 11h-188q-12 0 -17 4.5t-5 17.5v51q0 13 5 17.5t17 4.5h500q12 0 17 -4.5t5 -17.5v-51q0 -13 -5 -17.5t-17 -4.5h-188q-12 0 -12 -11v-207q0 -9 10 -9h104
q13 0 18 -4.5t5 -16.5v-43q0 -12 -5 -16.5t-18 -4.5h-104q-10 0 -10 -10v-261q0 -13 -5 -17.5t-17 -4.5h-56q-12 0 -17 4.5t-5 17.5v261z" />
    <glyph glyph-name="tbar" unicode="&#x167;" horiz-adv-x="348" 
d="M124 187h-78q-13 0 -17.5 5t-4.5 17v32q0 12 4.5 17t17.5 5h78v138h-88q-13 0 -17.5 5t-4.5 17v45q0 12 4.5 17t17.5 5h88v110q0 13 5 17.5t17 4.5h52q12 0 17 -4.5t5 -17.5v-110h89q13 0 17.5 -5t4.5 -17v-45q0 -12 -4.5 -17t-17.5 -5h-89v-138h79q13 0 17.5 -5t4.5 -17
v-32q0 -12 -4.5 -17t-17.5 -5h-79v-165q0 -13 -5 -17.5t-17 -4.5h-52q-12 0 -17 4.5t-5 17.5v165z" />
    <glyph glyph-name="Utilde" unicode="&#x168;" horiz-adv-x="743" 
d="M189 800q-4 5 -4 10q0 4 6 12q44 56 110 56q32 0 78 -21t64 -21q34 0 63 35q6 7 12 7q5 0 11 -6l24 -30q4 -5 4 -10q0 -4 -6 -13q-45 -55 -110 -55q-32 0 -78 21t-64 21q-34 0 -63 -35q-6 -7 -12 -7q-5 0 -11 6zM84 678q0 13 5 17.5t17 4.5h55q13 0 18 -4.5t5 -17.5v-377
q0 -103 48 -160t138 -57t140 57t50 159v378q0 12 5 17t16 5h56q13 0 18 -4.5t5 -17.5v-380q0 -151 -81 -230t-213 -79q-128 0 -205 77t-77 229v383z" />
    <glyph glyph-name="utilde" unicode="&#x169;" horiz-adv-x="586" 
d="M115 602q-5 7 -5 11q0 5 6 13q16 21 48.5 37.5t62.5 16.5q32 0 78 -21t64 -21q25 0 64 36q6 6 11 6q6 0 11 -6l24 -30q4 -4 4 -11t-5 -13q-15 -20 -48.5 -37t-62.5 -17q-32 0 -78 21t-64 21q-6 0 -11 -1t-10.5 -4t-9.5 -5t-10 -6.5l-8.5 -6.5t-8.5 -7.5t-7 -6.5
q-7 -5 -11 -5t-10 6zM76 472q0 18 17 18h62q18 0 18 -18v-245q0 -148 119 -148q121 0 121 148v245q0 18 18 18h62q17 0 17 -18v-253q0 -111 -56 -170.5t-162 -59.5q-105 0 -160.5 59t-55.5 171v253z" />
    <glyph glyph-name="Umacron" unicode="&#x16a;" horiz-adv-x="743" 
d="M229 838q0 12 4.5 16.5t17.5 4.5h240q13 0 17.5 -4.5t4.5 -16.5v-36q0 -12 -4.5 -16t-17.5 -4h-240q-13 0 -17.5 4t-4.5 16v36zM84 678q0 13 5 17.5t17 4.5h55q13 0 18 -4.5t5 -17.5v-377q0 -103 48 -160t138 -57t140 57t50 159v378q0 12 5 17t16 5h56q13 0 18 -4.5
t5 -17.5v-380q0 -151 -81 -230t-213 -79q-128 0 -205 77t-77 229v383z" />
    <glyph glyph-name="umacron" unicode="&#x16b;" horiz-adv-x="586" 
d="M151 640q0 12 4.5 16.5t17.5 4.5h240q13 0 17.5 -4.5t4.5 -16.5v-36q0 -12 -4.5 -16t-17.5 -4h-240q-13 0 -17.5 4t-4.5 16v36zM76 472q0 18 17 18h62q18 0 18 -18v-245q0 -148 119 -148q121 0 121 148v245q0 18 18 18h62q17 0 17 -18v-253q0 -111 -56 -170.5t-162 -59.5
q-105 0 -160.5 59t-55.5 171v253z" />
    <glyph glyph-name="Ubreve" unicode="&#x16c;" horiz-adv-x="743" 
d="M280 910q13 0 16 -15q8 -65 75 -65q66 0 75 65q3 15 16 15h44q14 0 14 -16q0 -58 -37.5 -97t-113.5 -39q-74 0 -110.5 38.5t-36.5 97.5q0 16 14 16h44zM84 678q0 13 5 17.5t17 4.5h55q13 0 18 -4.5t5 -17.5v-377q0 -103 48 -160t138 -57t140 57t50 159v378q0 12 5 17
t16 5h56q13 0 18 -4.5t5 -17.5v-380q0 -151 -81 -230t-213 -79q-128 0 -205 77t-77 229v383z" />
    <glyph glyph-name="ubreve" unicode="&#x16d;" horiz-adv-x="586" 
d="M202 712q13 0 16 -15q8 -65 75 -65q66 0 75 65q3 15 16 15h44q14 0 14 -16q0 -58 -37.5 -97t-113.5 -39q-74 0 -110.5 38.5t-36.5 97.5q0 16 14 16h44zM76 472q0 18 17 18h62q18 0 18 -18v-245q0 -148 119 -148q121 0 121 148v245q0 18 18 18h62q17 0 17 -18v-253
q0 -111 -56 -170.5t-162 -59.5q-105 0 -160.5 59t-55.5 171v253z" />
    <glyph glyph-name="Uring" unicode="&#x16e;" horiz-adv-x="743" 
d="M236 855q0 56 39.5 95t95.5 39t95.5 -39t39.5 -95t-39.5 -95.5t-95.5 -39.5t-95.5 39.5t-39.5 95.5zM307 855q0 -27 19 -45.5t45 -18.5t45 18.5t19 45.5q0 26 -19 44.5t-45 18.5t-45 -18.5t-19 -44.5zM84 678q0 13 5 17.5t17 4.5h55q13 0 18 -4.5t5 -17.5v-377
q0 -103 48 -160t138 -57t140 57t50 159v378q0 12 5 17t16 5h56q13 0 18 -4.5t5 -17.5v-380q0 -151 -81 -230t-213 -79q-128 0 -205 77t-77 229v383z" />
    <glyph glyph-name="uring" unicode="&#x16f;" horiz-adv-x="586" 
d="M158 685q0 56 39 94t96 38t96 -38t39 -94q0 -57 -39 -94.5t-96 -37.5t-96 37.5t-39 94.5zM229 685q0 -27 19 -45.5t45 -18.5t45 18.5t19 45.5q0 26 -19 44.5t-45 18.5t-45 -18.5t-19 -44.5zM76 472q0 18 17 18h62q18 0 18 -18v-245q0 -148 119 -148q121 0 121 148v245
q0 18 18 18h62q17 0 17 -18v-253q0 -111 -56 -170.5t-162 -59.5q-105 0 -160.5 59t-55.5 171v253z" />
    <glyph glyph-name="Uhungarumlaut" unicode="&#x170;" horiz-adv-x="743" 
d="M215 782q-9 6 -9 13t9 14l131 119q10 10 16 10q7 0 18 -8l31 -19q11 -8 11 -15t-11 -16l-136 -113q-12 -9 -19 -9q-6 0 -15 6zM401 782q-8 8 -8 13q0 7 9 14l137 119q12 10 18 10t17 -8l31 -20q10 -7 10 -15t-11 -16l-143 -112q-12 -9 -20 -9q-7 0 -14 6zM84 678
q0 13 5 17.5t17 4.5h55q13 0 18 -4.5t5 -17.5v-377q0 -103 48 -160t138 -57t140 57t50 159v378q0 12 5 17t16 5h56q13 0 18 -4.5t5 -17.5v-380q0 -151 -81 -230t-213 -79q-128 0 -205 77t-77 229v383z" />
    <glyph glyph-name="uhungarumlaut" unicode="&#x171;" horiz-adv-x="586" 
d="M134 584q-10 6 -10 13q0 5 8 13l138 120q11 9 19 9q7 0 17 -6l37 -21q11 -8 11 -16t-10 -15l-148 -112q-11 -8 -19 -8q-7 0 -15 5zM322 584q-8 6 -8 13t8 13l144 120q11 9 20 9q8 0 17 -6l37 -23q10 -6 10 -14q0 -9 -11 -17l-154 -110q-11 -8 -20 -8q-7 0 -15 5zM76 472
q0 18 17 18h62q18 0 18 -18v-245q0 -148 119 -148q121 0 121 148v245q0 18 18 18h62q17 0 17 -18v-253q0 -111 -56 -170.5t-162 -59.5q-105 0 -160.5 59t-55.5 171v253z" />
    <glyph glyph-name="Uogonek" unicode="&#x172;" horiz-adv-x="743" 
d="M486 -153q3 -6 3 -11q0 -10 -12 -17q-41 -25 -90 -25q-54 0 -88.5 30.5t-34.5 77.5q0 51 44 92q-103 16 -163.5 91.5t-60.5 209.5v383q0 13 5 17.5t17 4.5h55q13 0 18 -4.5t5 -17.5v-377q0 -103 48 -160t138 -57t140 57t50 159v378q0 12 5 17t16 5h56q13 0 18 -4.5
t5 -17.5v-380q0 -146 -76 -225t-201 -84q-46 -33 -46 -75q0 -24 17 -39t41 -15q29 0 56 15q7 4 12 4q7 0 11 -9z" />
    <glyph glyph-name="uogonek" unicode="&#x173;" horiz-adv-x="586" 
d="M401 -153q3 -6 3 -11q0 -10 -12 -17q-39 -25 -89 -25q-54 0 -88 30.5t-34 77.5q0 52 45 94q-73 17 -111.5 73.5t-38.5 149.5v253q0 18 17 18h62q18 0 18 -18v-245q0 -148 119 -148q121 0 121 148v245q0 18 18 18h62q17 0 17 -18v-253q0 -109 -54 -168.5t-156 -61.5
q-46 -32 -46 -76q0 -24 16 -38.5t40 -14.5q30 0 57 15q7 4 11 4q6 0 12 -9z" />
    <glyph glyph-name="Wcircumflex" unicode="&#x174;" horiz-adv-x="967" 
d="M323 780q-10 7 -10 14t8 15l109 105q15 14 34 14h38q19 0 34 -14l109 -105q8 -8 8 -15t-10 -14l-30 -17q-10 -5 -15 -5q-7 0 -20 11l-95 94l-95 -94q-13 -11 -20 -11q-5 0 -15 5zM12 670q-3 9 -3 15q0 15 22 15h55q16 0 22.5 -5.5t14.5 -24.5l175 -472l155 432
q10 25 17 34.5t18 9.5q10 0 17 -9t17 -35l153 -429l175 469q8 18 15 24t22 6h54q22 0 22 -15q0 -6 -3 -15l-245 -630q-12 -32 -19.5 -42.5t-17.5 -10.5t-18 10.5t-19 39.5l-155 425l-155 -425q-10 -29 -17.5 -39.5t-18.5 -10.5t-18.5 10.5t-19.5 42.5z" />
    <glyph glyph-name="wcircumflex" unicode="&#x175;" horiz-adv-x="822" 
d="M250 582q-11 6 -11 14q0 6 8 14l109 105q15 15 35 15h38q19 0 34 -14l109 -105q9 -9 9 -15t-11 -14l-30 -17q-10 -5 -15 -5q-9 0 -19 10l-96 95l-95 -94q-11 -11 -19 -11t-16 5zM18 463q-5 10 -5 15q0 12 19 12h59q14 0 20.5 -5t14.5 -22l132 -298l126 277q14 28 28 28
t28 -28l127 -277l130 298q8 17 14 22t20 5h59q18 0 18 -12q0 -7 -4 -15l-198 -432q-13 -26 -20 -35t-16 -9q-15 0 -36 44l-123 264l-125 -264q-20 -44 -36 -44q-15 0 -35 44z" />
    <glyph glyph-name="Ycircumflex" unicode="&#x176;" horiz-adv-x="603" 
d="M142 780q-10 7 -10 14t8 15l109 105q15 14 34 14h38q19 0 34 -14l109 -105q8 -8 8 -15t-10 -14l-30 -17q-10 -5 -15 -5q-7 0 -20 11l-95 94l-95 -94q-13 -11 -20 -11q-5 0 -15 5zM252 259l-248 416q-5 10 -5 14q0 11 18 11h62q17 0 24 -4.5t17 -20.5l183 -316l184 316
q10 16 17 20.5t23 4.5h59q19 0 19 -11q0 -4 -5 -14l-248 -411v-242q0 -13 -5 -17.5t-17 -4.5h-56q-12 0 -17 4.5t-5 17.5v237z" />
    <glyph glyph-name="ycircumflex" unicode="&#x177;" horiz-adv-x="544" 
d="M111 582q-11 6 -11 14q0 6 8 14l109 105q15 15 35 15h38q19 0 34 -14l109 -105q9 -9 9 -15t-11 -14l-30 -17q-10 -5 -15 -5q-9 0 -19 10l-96 95l-95 -94q-11 -11 -19 -11q-9 0 -16 5zM225 25l-211 438q-4 8 -4 15q0 12 19 12h57q15 0 22 -5t14 -21l157 -327l147 331
q10 22 33 22h58q18 0 18 -13q0 -6 -4 -14l-305 -670q-11 -23 -26 -23h-73q-14 0 -14 10q0 3 4 13z" />
    <glyph glyph-name="Ydieresis" unicode="&#x178;" horiz-adv-x="603" 
d="M156 814q0 24 14.5 38.5t38.5 14.5t39 -14.5t15 -38.5q0 -23 -15 -38t-39 -15t-38.5 15t-14.5 38zM341 814q0 24 14.5 38.5t38.5 14.5q25 0 39.5 -14.5t14.5 -38.5t-15 -38.5t-39 -14.5t-38.5 15t-14.5 38zM252 259l-248 416q-5 10 -5 14q0 11 18 11h62q17 0 24 -4.5
t17 -20.5l183 -316l184 316q10 16 17 20.5t23 4.5h59q19 0 19 -11q0 -4 -5 -14l-248 -411v-242q0 -13 -5 -17.5t-17 -4.5h-56q-12 0 -17 4.5t-5 17.5v237z" />
    <glyph glyph-name="Zacute" unicode="&#x179;" horiz-adv-x="581" 
d="M219 785q-8 8 -8 13q0 6 9 14l144 118q11 8 18 8q8 0 18 -9l29 -24q8 -8 8 -15q0 -8 -11 -16l-150 -108q-13 -8 -18 -8t-14 7zM385 605h-317q-12 1 -17 5.5t-5 16.5v51q0 13 5 17.5t17 4.5h450q28 0 28 -15q0 -6 -8 -19l-355 -571h331q13 0 18 -4.5t5 -17.5v-51
q0 -13 -5 -17.5t-18 -4.5h-463q-28 0 -28 15q0 6 8 19z" />
    <glyph glyph-name="zacute" unicode="&#x17a;" horiz-adv-x="487" 
d="M156 587q-9 6 -9 13q0 6 9 13l151 119q11 8 19 8q7 0 18 -8l35 -27q9 -7 9 -14q0 -9 -12 -16l-161 -107q-10 -7 -17 -7t-16 6zM291 401h-222q-15 0 -21.5 4.5t-6.5 17.5v46q0 21 24 21h363q20 0 20 -14q0 -7 -6 -16l-257 -371h232q15 0 20.5 -4.5t5.5 -16.5v-47
q0 -12 -5 -16.5t-21 -4.5h-369q-21 0 -21 12q0 7 6 16z" />
    <glyph glyph-name="Zdotaccent" unicode="&#x17b;" horiz-adv-x="581" 
d="M231 814q0 25 17 41t42 16q26 0 42.5 -16t16.5 -41t-16.5 -40.5t-42.5 -15.5q-25 0 -42 16t-17 40zM385 605h-317q-12 1 -17 5.5t-5 16.5v51q0 13 5 17.5t17 4.5h450q28 0 28 -15q0 -6 -8 -19l-355 -571h331q13 0 18 -4.5t5 -17.5v-51q0 -13 -5 -17.5t-18 -4.5h-463
q-28 0 -28 15q0 6 8 19z" />
    <glyph glyph-name="zdotaccent" unicode="&#x17c;" horiz-adv-x="487" 
d="M186 618q0 25 16.5 41t41.5 16t41.5 -16t16.5 -41q0 -24 -16.5 -39.5t-41.5 -15.5t-41.5 15.5t-16.5 39.5zM291 401h-222q-15 0 -21.5 4.5t-6.5 17.5v46q0 21 24 21h363q20 0 20 -14q0 -7 -6 -16l-257 -371h232q15 0 20.5 -4.5t5.5 -16.5v-47q0 -12 -5 -16.5t-21 -4.5
h-369q-21 0 -21 12q0 7 6 16z" />
    <glyph glyph-name="Zcaron" unicode="&#x17d;" horiz-adv-x="581" 
d="M128 877q-8 8 -8 15t10 13l30 18q10 5 15 5q7 0 20 -11l95 -94l95 94q13 11 20 11q5 0 15 -5l30 -18q10 -6 10 -13t-8 -15l-109 -105q-15 -14 -34 -14h-38q-19 0 -34 14zM385 605h-317q-12 1 -17 5.5t-5 16.5v51q0 13 5 17.5t17 4.5h450q28 0 28 -15q0 -6 -8 -19
l-355 -571h331q13 0 18 -4.5t5 -17.5v-51q0 -13 -5 -17.5t-18 -4.5h-463q-28 0 -28 15q0 6 8 19z" />
    <glyph glyph-name="zcaron" unicode="&#x17e;" horiz-adv-x="487" 
d="M81 679q-9 7 -9 14q0 6 11 14l30 17q7 5 16 5q8 0 18 -10l96 -94l95 94q11 11 19 11q7 0 16 -6l30 -17q11 -6 11 -13q0 -6 -8 -14l-109 -106q-15 -14 -35 -14h-38q-19 0 -34 14zM291 401h-222q-15 0 -21.5 4.5t-6.5 17.5v46q0 21 24 21h363q20 0 20 -14q0 -7 -6 -16
l-257 -371h232q15 0 20.5 -4.5t5.5 -16.5v-47q0 -12 -5 -16.5t-21 -4.5h-369q-21 0 -21 12q0 7 6 16z" />
    <glyph glyph-name="longs" unicode="&#x17f;" horiz-adv-x="338" 
d="M79 517q0 233 187 233q37 0 58 -5q20 -3 17 -24l-5 -44q-1 -19 -18 -19q-4 0 -18 1.5t-23 1.5q-102 0 -102 -143v-498q0 -20 -19 -20h-59q-18 0 -18 20v497z" />
    <glyph glyph-name="uni018F" unicode="&#x18f;" horiz-adv-x="775" 
d="M46 344q0 29 29 29h551q-7 110 -79 177.5t-173 67.5q-123 0 -218 -73q-13 -10 -23 -10q-12 0 -22 14l-19 26q-10 13 -10 22t13 21q117 94 283 94q152 0 252 -103.5t100 -256.5q0 -156 -97.5 -260t-253.5 -104q-145 0 -239 101.5t-94 245.5v9zM152 286q16 -91 77 -147.5
t152 -56.5q93 0 156 55t83 149h-468z" />
    <glyph glyph-name="florin" unicode="&#x192;" horiz-adv-x="599" 
d="M-86 -67q7 13 16 13q4 0 12 -3q31 -16 68 -16q81 0 114 114l74 260h-77q-22 0 -22 23v42q0 13 5 17.5t17 4.5h101l41 146q51 177 204 177q63 0 109 -28q13 -9 13 -17q0 -6 -4 -13l-20 -35q-8 -13 -15 -13q-2 0 -12 4q-35 16 -68 16q-82 0 -115 -115l-35 -122h101
q13 0 18 -4.5t5 -17.5v-42q0 -13 -5 -18t-18 -5h-124l-81 -284q-50 -177 -204 -177q-62 0 -108 28q-13 9 -13 17q0 6 4 13z" />
    <glyph glyph-name="Ohorn" unicode="&#x1a0;" horiz-adv-x="874" 
d="M732 512q54 30 64 80q-20 3 -34 20t-14 40q0 25 17.5 42.5t44.5 17.5t45.5 -19t18.5 -49q0 -52 -30 -105.5t-93 -84.5q17 -49 17 -103q0 -155 -104 -258.5t-260 -103.5q-153 0 -255.5 102t-102.5 256q0 155 104 259.5t258 104.5q109 0 195 -54t129 -145zM405 84
q109 0 184 76t75 190q0 116 -74 191t-183 75t-183 -75.5t-74 -192.5q0 -114 73 -189t182 -75z" />
    <glyph glyph-name="ohorn" unicode="&#x1a1;" horiz-adv-x="625" 
d="M482 434q26 11 45.5 32.5t23.5 44.5q-21 3 -35 19t-14 38q0 26 17 43t44 17t44.5 -18.5t17.5 -48.5q0 -49 -25 -95t-80 -75q42 -64 42 -145q0 -110 -74.5 -183.5t-186.5 -73.5q-110 0 -183 72.5t-73 181.5q0 111 74 185t185 74q107 0 178 -68zM302 81q67 0 113.5 47.5
t46.5 117.5q0 71 -46 117.5t-113 46.5t-112.5 -47t-45.5 -119q0 -70 45 -116.5t112 -46.5z" />
    <glyph glyph-name="Uhorn" unicode="&#x1af;" horiz-adv-x="848" 
d="M84 678q0 13 5 17.5t17 4.5h55q13 0 18 -4.5t5 -17.5v-377q0 -103 48 -160t138 -57t140 57t50 159v378q0 12 5 17t16 5h56q13 0 18 -4.5t5 -17.5v-186q41 11 71.5 37.5t38.5 62.5q-20 3 -34 20t-14 40q0 25 18 42.5t45 17.5t45 -19t18 -49q0 -29 -8.5 -58t-28 -60
t-58.5 -57t-93 -41v-130q0 -151 -81 -230t-213 -79q-128 0 -205 77t-77 229v383z" />
    <glyph glyph-name="uhorn" unicode="&#x1b0;" horiz-adv-x="647" 
d="M76 472q0 18 17 18h62q18 0 18 -18v-245q0 -148 119 -148q121 0 121 148v245q0 18 18 18h62q17 0 17 -18v-35q24 10 41 31t22 43q-21 3 -35 19t-14 38q0 26 17 43t44 17t44.5 -18.5t17.5 -48.5q0 -56 -33 -106.5t-104 -77.5v-158q0 -111 -56 -170.5t-162 -59.5
q-105 0 -160.5 59t-55.5 171v253z" />
    <glyph glyph-name="Aringacute" unicode="&#x1fa;" 
d="M289 633q-36 14 -58.5 46.5t-22.5 75.5q0 71 67 117l134 93q11 8 18 8t18 -8l31 -25q9 -6 9 -14q0 -9 -12 -15l-78 -37q83 -35 83 -119q0 -43 -22 -75t-58 -47l287 -603q5 -12 5 -17q0 -13 -21 -13h-55q-16 0 -23.5 5.5t-15.5 22.5l-77 168q-5 12 -18 12h-275
q-13 0 -19 -12l-76 -168q-8 -17 -15.5 -22.5t-23.5 -5.5h-51q-21 0 -21 13q0 5 5 17zM343 690q27 0 45.5 18t18.5 47q0 26 -19 44t-45 18t-45 -18.5t-19 -43.5q0 -27 19 -46t45 -19zM438 296q11 0 11 6q0 3 -3 9l-104 224l-103 -224q-3 -6 -3 -10q0 -5 10 -5h192z" />
    <glyph glyph-name="aringacute" unicode="&#x1fb;" horiz-adv-x="531" 
d="M334 896q11 8 18 8t18 -8l31 -25q9 -6 9 -14q0 -9 -12 -15l-78 -37q83 -35 83 -119q0 -59 -39.5 -96t-95.5 -37t-95.5 37t-39.5 96q0 71 67 117zM268 621q27 0 45.5 18t18.5 47q0 26 -19 44t-45 18t-45 -18.5t-19 -43.5q0 -27 19 -46t45 -19zM358 34q-44 -43 -128 -43
q-83 0 -135 43t-52 119t52.5 119t134.5 43t128 -43q-5 141 -133 141q-14 0 -37 -2t-26 -2q-15 0 -18 18l-6 44v5q0 15 19 19q37 7 78 7q111 0 165.5 -62.5t54.5 -178.5v-243q0 -18 -17 -18h-62q-18 0 -18 18v16zM143 153q0 -42 31 -67t77 -25t77 25t31 66q0 42 -31 67.5
t-77 25.5t-77 -25t-31 -67z" />
    <glyph glyph-name="AEacute" unicode="&#x1fc;" horiz-adv-x="983" 
d="M537 785q-8 8 -8 13q0 6 9 14l144 118q11 8 18 8q8 0 18 -9l29 -24q8 -8 8 -15q0 -8 -11 -16l-150 -108q-13 -8 -18 -8t-14 7zM422 677q10 14 17 18.5t23 4.5h443q12 0 17 -4.5t5 -17.5v-51q0 -13 -5 -17.5t-17 -4.5h-288q-12 0 -12 -11v-183q0 -12 12 -12h255
q12 0 16.5 -4.5t4.5 -17.5v-50q0 -22 -21 -22h-255q-12 0 -12 -11v-188q0 -11 12 -11h289q12 0 17 -4.5t5 -17.5v-51q0 -13 -5 -17.5t-17 -4.5h-379q-12 0 -17 4.5t-5 17.5v201q0 12 -11 12h-236q-13 0 -21 -12l-132 -200q-9 -14 -16.5 -18.5t-23.5 -4.5h-60q-20 0 -20 13
q0 5 11 22zM494 328q11 0 11 12v272q0 10 -5 10q-2 0 -7 -6l-182 -273q-3 -6 -3 -9q0 -6 11 -6h175z" />
    <glyph glyph-name="aeacute" unicode="&#x1fd;" horiz-adv-x="886" 
d="M359 587q-9 6 -9 13q0 6 9 13l151 119q11 8 19 8q7 0 18 -8l35 -27q9 -7 9 -14q0 -9 -12 -16l-161 -107q-10 -7 -17 -7t-16 6zM138 471v5q0 15 19 19q37 7 78 7q128 0 180 -91q70 91 186 91q105 0 172.5 -70.5t67.5 -176.5v-17q0 -18 -17 -18h-369q7 -64 50.5 -104.5
t110.5 -40.5q73 0 141 45q9 6 16 6q8 0 13 -9l21 -37q5 -8 5 -14q0 -9 -11 -17q-81 -60 -192 -60q-127 0 -197 91q-62 -89 -182 -89q-83 0 -135 43t-52 119t52.5 119t134.5 43t128 -43q-6 141 -133 141q-14 0 -37 -2t-26 -2q-15 0 -18 18zM738 295q-10 57 -46.5 91t-90.5 34
t-91.5 -32.5t-50.5 -92.5h279zM143 153q0 -42 31 -67t77 -25t77 25t31 66q0 42 -31 67.5t-77 25.5t-77 -25t-31 -67z" />
    <glyph glyph-name="Oslashacute" unicode="&#x1fe;" horiz-adv-x="814" 
d="M336 785q-8 8 -8 13q0 6 9 14l144 118q11 8 18 8t18 -9l29 -24q8 -8 8 -15q0 -8 -11 -16l-150 -108q-13 -8 -18 -8t-14 7zM139 100q-93 99 -93 247q0 155 104 259.5t258 104.5q121 0 213 -67l41 46q18 21 41 21h32q22 0 22 -12q0 -7 -15 -23l-68 -77q94 -100 94 -248
q0 -155 -104 -258.5t-260 -103.5q-121 0 -212 66l-40 -45q-18 -21 -41 -21h-32q-22 0 -22 12q0 7 15 23zM555 569q-64 47 -148 47q-109 0 -183 -75.5t-74 -192.5q0 -102 58 -171zM258 130q63 -46 147 -46q109 0 184 76t75 190q0 102 -59 172z" />
    <glyph glyph-name="oslashacute" unicode="&#x1ff;" horiz-adv-x="608" 
d="M216 587q-9 6 -9 13q0 6 9 13l151 119q11 8 19 8q7 0 18 -8l35 -27q9 -7 9 -14q0 -9 -12 -16l-161 -107q-10 -7 -17 -7t-16 6zM69 -10q-21 0 -21 11q0 6 15 21l45 51q-63 69 -63 170q0 111 74 185t185 74q82 0 147 -43l23 26q17 20 38 20h25q20 0 20 -11q0 -6 -14 -21
l-47 -53q66 -71 66 -174q0 -110 -74.5 -183.5t-186.5 -73.5q-84 0 -148 44l-21 -23q-19 -20 -38 -20h-25zM386 386q-38 24 -83 24q-67 0 -112.5 -47t-45.5 -119q0 -57 30 -96zM218 106q36 -25 84 -25q67 0 113.5 47.5t46.5 117.5q0 56 -32 99z" />
    <glyph glyph-name="uni0218" unicode="&#x218;" horiz-adv-x="569" 
d="M56 151q8 11 15 11q5 0 15 -8q91 -71 183 -71q70 0 110.5 29t40.5 78q0 45 -34 69t-124 47q-110 28 -163 72t-53 129q0 94 67 149t169 55q126 0 228 -79q10 -9 10 -15q0 -4 -7 -16l-29 -43q-7 -11 -15 -11q-7 0 -17 7q-86 63 -171 63q-58 0 -94 -28t-36 -76q0 -47 35 -71
t119 -45q115 -30 167 -74.5t52 -125.5q0 -94 -71.5 -151t-185.5 -57q-130 0 -237 86q-11 10 -11 17t7 17zM262 -151q-18 4 -29.5 18t-11.5 36q0 26 18 42.5t45 16.5t44.5 -16.5t17.5 -44.5q0 -30 -26 -79l-24 -47q-9 -16 -29 -16h-31q-16 0 -16 10q0 3 4 11z" />
    <glyph glyph-name="uni0219" unicode="&#x219;" horiz-adv-x="476" 
d="M68 114q6 9 12 9q5 0 12 -5q69 -48 143 -48q44 0 71 16.5t27 44.5t-23.5 41.5t-93.5 31.5q-85 23 -125.5 57.5t-40.5 95.5q0 68 51.5 106.5t131.5 38.5q106 0 182 -51q9 -6 9 -13q0 -4 -5 -14l-24 -40q-5 -8 -12 -8q-6 0 -13 4q-74 41 -135 41q-37 0 -61.5 -15.5
t-24.5 -43.5t27.5 -45t88.5 -32q91 -23 129 -55t38 -95q0 -69 -53 -107.5t-145 -38.5q-115 0 -189 57q-9 7 -9 14q0 5 6 14zM215 -151q-18 4 -29.5 18t-11.5 36q0 26 18 42.5t45 16.5t44.5 -16.5t17.5 -44.5q0 -30 -26 -79l-24 -47q-9 -16 -29 -16h-31q-16 0 -16 10
q0 3 4 11z" />
    <glyph glyph-name="uni021A" unicode="&#x21a;" horiz-adv-x="574" 
d="M237 594q0 11 -12 11h-188q-12 0 -17 4.5t-5 17.5v51q0 13 5 17.5t17 4.5h500q12 0 17 -4.5t5 -17.5v-51q0 -13 -5 -17.5t-17 -4.5h-188q-12 0 -12 -11v-572q0 -13 -5 -17.5t-17 -4.5h-56q-12 0 -17 4.5t-5 17.5v572zM265 -151q-18 4 -29.5 18t-11.5 36q0 26 18 42.5
t45 16.5t44.5 -16.5t17.5 -44.5q0 -30 -26 -79l-24 -47q-9 -16 -29 -16h-31q-16 0 -16 10q0 3 4 11z" />
    <glyph glyph-name="uni021B" unicode="&#x21b;" horiz-adv-x="348" 
d="M124 401h-88q-13 0 -17.5 5t-4.5 17v45q0 12 4.5 17t17.5 5h88v110q0 13 5 17.5t17 4.5h52q12 0 17 -4.5t5 -17.5v-110h89q13 0 17.5 -5t4.5 -17v-45q0 -12 -4.5 -17t-17.5 -5h-89v-379q0 -13 -5 -17.5t-17 -4.5h-52q-12 0 -17 4.5t-5 17.5v379zM152 -151q-18 4 -29.5 18
t-11.5 36q0 26 18 42.5t45 16.5t44.5 -16.5t17.5 -44.5q0 -30 -26 -79l-24 -47q-9 -16 -29 -16h-31q-16 0 -16 10q0 3 4 11z" />
    <glyph glyph-name="uni0237" unicode="&#x237;" horiz-adv-x="255" 
d="M-69 -157q1 19 17 19q3 0 17 -1.5t23 -1.5q44 0 68 35.5t24 103.5v472q0 20 19 20h59q19 0 19 -20v-476q0 -224 -180 -224q-36 0 -55 5q-19 3 -16 24z" />
    <glyph glyph-name="uni0259" unicode="&#x259;" horiz-adv-x="575" 
d="M45 253q0 18 17 18h368q-6 64 -49.5 105t-110.5 41q-71 0 -141 -45q-11 -7 -17 -7q-7 0 -12 9l-22 37q-4 7 -4 14q0 11 11 18q80 59 192 59q113 0 183 -72.5t70 -181.5q0 -113 -70 -186t-176 -73q-105 0 -172 70.5t-67 176.5v17zM148 196q9 -56 45.5 -90.5t91.5 -34.5
q53 0 90.5 33t51.5 92h-279z" />
    <glyph glyph-name="circumflex" unicode="&#x2c6;" horiz-adv-x="500" 
d="M90 780q-10 7 -10 14t8 15l109 105q15 14 34 14h38q19 0 34 -14l109 -105q8 -8 8 -15t-10 -14l-30 -17q-10 -5 -15 -5q-7 0 -20 11l-95 94l-95 -94q-13 -11 -20 -11q-5 0 -15 5z" />
    <glyph glyph-name="caron" unicode="&#x2c7;" horiz-adv-x="500" 
d="M88 877q-8 8 -8 15t10 13l30 18q10 5 15 5q7 0 20 -11l95 -94l95 94q13 11 20 11q5 0 15 -5l30 -18q10 -6 10 -13t-8 -15l-109 -105q-15 -14 -34 -14h-38q-19 0 -34 14z" />
    <glyph glyph-name="uni02C9" unicode="&#x2c9;" horiz-adv-x="500" 
d="M108 838q0 12 4.5 16.5t17.5 4.5h240q13 0 17.5 -4.5t4.5 -16.5v-36q0 -12 -4.5 -16t-17.5 -4h-240q-13 0 -17.5 4t-4.5 16v36z" />
    <glyph glyph-name="breve" unicode="&#x2d8;" horiz-adv-x="500" 
d="M159 910q13 0 16 -15q8 -65 75 -65q66 0 75 65q3 15 16 15h44q14 0 14 -16q0 -58 -37.5 -97t-113.5 -39q-74 0 -110.5 38.5t-36.5 97.5q0 16 14 16h44z" />
    <glyph glyph-name="dotaccent" unicode="&#x2d9;" horiz-adv-x="500" 
d="M191 814q0 25 17 41t42 16q26 0 42.5 -16t16.5 -41t-16.5 -40.5t-42.5 -15.5q-25 0 -42 16t-17 40z" />
    <glyph glyph-name="ring" unicode="&#x2da;" horiz-adv-x="500" 
d="M115 855q0 56 39.5 95t95.5 39t95.5 -39t39.5 -95t-39.5 -95.5t-95.5 -39.5t-95.5 39.5t-39.5 95.5zM186 855q0 -27 19 -45.5t45 -18.5t45 18.5t19 45.5q0 26 -19 44.5t-45 18.5t-45 -18.5t-19 -44.5z" />
    <glyph glyph-name="ogonek" unicode="&#x2db;" horiz-adv-x="500" 
d="M360 -153q3 -6 3 -11q0 -10 -12 -17q-39 -25 -89 -25q-54 0 -88 30.5t-34 77.5q0 78 94 127l53 -25q-74 -34 -74 -91q0 -24 16 -38.5t40 -14.5q30 0 57 15q7 4 11 4q6 0 12 -9z" />
    <glyph glyph-name="tilde" unicode="&#x2dc;" horiz-adv-x="500" 
d="M68 800q-4 5 -4 10q0 4 6 12q44 56 110 56q32 0 78 -21t64 -21q34 0 63 35q6 7 12 7q5 0 11 -6l24 -30q4 -5 4 -10q0 -4 -6 -13q-45 -55 -110 -55q-32 0 -78 21t-64 21q-34 0 -63 -35q-6 -7 -12 -7q-5 0 -11 6z" />
    <glyph glyph-name="hungarumlaut" unicode="&#x2dd;" horiz-adv-x="500" 
d="M94 782q-9 6 -9 13t9 14l131 119q10 10 16 10q7 0 18 -8l31 -19q11 -8 11 -15t-11 -16l-136 -113q-12 -9 -19 -9q-6 0 -15 6zM280 782q-8 8 -8 13q0 7 9 14l137 119q12 10 18 10t17 -8l31 -20q10 -7 10 -15t-11 -16l-143 -112q-12 -9 -20 -9q-6 0 -14 6z" />
    <glyph glyph-name="gravecomb" unicode="&#x300;" horiz-adv-x="0" 
d="M147 732q11 8 18 8q8 0 19 -8l151 -119q9 -7 9 -13q0 -7 -9 -13l-26 -20q-9 -6 -16 -6t-17 7l-162 107q-11 8 -11 16t9 14z" />
    <glyph glyph-name="acutecomb" unicode="&#x301;" horiz-adv-x="0" 
d="M180 587q-9 6 -9 13q0 6 9 13l151 119q11 8 19 8q7 0 18 -8l35 -27q9 -7 9 -14q0 -9 -12 -16l-161 -107q-10 -7 -17 -7t-16 6z" />
    <glyph glyph-name="uni0302" unicode="&#x302;" horiz-adv-x="0" 
d="M90 582q-11 6 -11 14q0 6 8 14l109 105q15 15 35 15h38q19 0 34 -14l109 -105q9 -9 9 -15t-11 -14l-30 -17q-10 -5 -15 -5q-9 0 -19 10l-96 95l-95 -94q-11 -11 -19 -11t-16 5z" />
    <glyph glyph-name="tildecomb" unicode="&#x303;" horiz-adv-x="0" 
d="M68 602q-5 7 -5 11q0 5 6 13q16 21 48.5 37.5t62.5 16.5q32 0 78 -21t64 -21q25 0 64 36q6 6 11 6q7 0 11 -6l24 -30q4 -4 4 -11t-5 -13q-15 -20 -48.5 -37t-62.5 -17q-32 0 -78 21t-64 21q-6 0 -11 -1t-10.5 -4t-9.5 -5t-10 -6.5l-8.5 -6.5t-8.5 -7.5t-7 -6.5
q-7 -5 -11 -5t-10 6z" />
    <glyph glyph-name="uni0304" unicode="&#x304;" horiz-adv-x="0" 
d="M108 640q0 12 4.5 16.5t17.5 4.5h240q13 0 17.5 -4.5t4.5 -16.5v-36q0 -12 -4.5 -16t-17.5 -4h-240q-13 0 -17.5 4t-4.5 16v36z" />
    <glyph glyph-name="uni0306" unicode="&#x306;" horiz-adv-x="0" 
d="M159 712q13 0 16 -15q8 -65 75 -65q66 0 75 65q3 15 16 15h44q14 0 14 -16q0 -58 -37.5 -97t-113.5 -39q-74 0 -110.5 38.5t-36.5 97.5q0 16 14 16h44z" />
    <glyph glyph-name="uni0307" unicode="&#x307;" horiz-adv-x="0" 
d="M192 618q0 25 16.5 41t41.5 16t41.5 -16t16.5 -41q0 -24 -16.5 -39.5t-41.5 -15.5t-41.5 15.5t-16.5 39.5z" />
    <glyph glyph-name="uni0308" unicode="&#x308;" horiz-adv-x="0" 
d="M104 616q0 23 14.5 38t38.5 15t39 -15t15 -38q0 -24 -15 -38.5t-39 -14.5t-38.5 14.5t-14.5 38.5zM289 616q0 23 14.5 38t38.5 15t39 -14.5t15 -38.5t-14.5 -38.5t-39.5 -14.5q-24 0 -38.5 14.5t-14.5 38.5z" />
    <glyph glyph-name="hookabovecomb" unicode="&#x309;" horiz-adv-x="0" 
d="M201 625q0 5 1 8t8.5 6t21.5 3q24 0 43 9t19 28q0 36 -60 36q-18 0 -45 -6t-31 -6q-7 0 -11 10l-11 29q-3 6 -3 10q0 12 35.5 21t68.5 9q60 0 95 -26.5t35 -70.5q0 -42 -26.5 -64.5t-62.5 -24.5v-28q0 -8 -9 -8h-60q-8 0 -8 8v57z" />
    <glyph glyph-name="uni030A" unicode="&#x30a;" horiz-adv-x="0" 
d="M115 685q0 56 39 94t96 38t96 -38t39 -94q0 -57 -39 -94.5t-96 -37.5t-96 37.5t-39 94.5zM186 685q0 -27 19 -45.5t45 -18.5t45 18.5t19 45.5q0 26 -19 44.5t-45 18.5t-45 -18.5t-19 -44.5z" />
    <glyph glyph-name="uni030B" unicode="&#x30b;" horiz-adv-x="0" 
d="M95 584q-10 6 -10 13q0 5 8 13l138 120q11 9 19 9q6 0 17 -6l37 -21q11 -8 11 -16t-10 -15l-148 -112q-11 -8 -19 -8t-15 5zM283 584q-8 6 -8 13t8 13l144 120q11 9 20 9q8 0 17 -6l37 -23q10 -6 10 -14q0 -9 -11 -17l-154 -110q-11 -8 -20 -8q-8 0 -15 5z" />
    <glyph glyph-name="uni030C" unicode="&#x30c;" horiz-adv-x="0" 
d="M88 679q-9 7 -9 14q0 6 11 14l30 17q8 5 16 5t18 -10l96 -94l95 94q11 11 19 11q7 0 16 -6l30 -17q11 -6 11 -13q0 -6 -8 -14l-109 -106q-15 -14 -35 -14h-38q-19 0 -34 14z" />
    <glyph glyph-name="dotbelowcomb" unicode="&#x323;" horiz-adv-x="0" 
d="M191 -114q0 25 17 41t42 16q26 0 42.5 -16t16.5 -41t-16.5 -40.5t-42.5 -15.5q-25 0 -42 16t-17 40z" />
    <glyph glyph-name="uni0326" unicode="&#x326;" horiz-adv-x="0" 
d="M-271 -151q-18 4 -29.5 18t-11.5 36q0 26 18 42.5t45 16.5t44.5 -16.5t17.5 -44.5q0 -30 -26 -79l-24 -47q-9 -16 -29 -16h-31q-16 0 -16 10q0 3 4 11z" />
    <glyph glyph-name="uni0374" unicode="&#x374;" horiz-adv-x="220" 
d="M112 727q7 23 31 23h42q20 0 20 -15q0 -5 -3 -11l-67 -152q-8 -21 -28 -21h-26q-19 0 -19 14q0 3 2 9z" />
    <glyph glyph-name="uni0375" unicode="&#x375;" horiz-adv-x="220" 
d="M108 -27q-7 -23 -31 -23h-42q-20 0 -20 15q0 5 3 11l67 152q8 21 28 21h26q19 0 19 -14q0 -3 -2 -9z" />
    <glyph glyph-name="uni037E" unicode="&#x37e;" horiz-adv-x="227" 
d="M51 391q0 26 18 43t44 17q27 0 45 -17t18 -43t-18 -42.5t-45 -16.5t-44.5 16.5t-17.5 42.5zM92 -9q-17 4 -29 19t-12 38q0 27 17.5 44.5t43.5 17.5q28 0 46 -17t18 -47q0 -33 -26 -83l-28 -55q-10 -17 -29 -17h-31q-16 0 -16 10q0 2 4 12z" />
    <glyph glyph-name="tonos" unicode="&#x384;" horiz-adv-x="500" 
d="M233 736q7 23 31 23h42q20 0 20 -15q0 -5 -3 -11l-67 -152q-8 -21 -28 -21h-26q-19 0 -19 14q0 3 2 9z" />
    <glyph glyph-name="dieresistonos" unicode="&#x385;" horiz-adv-x="500" 
d="M243 736q7 23 31 23h42q20 0 20 -15q0 -5 -3 -11l-67 -152q-9 -21 -28 -21h-26q-19 0 -19 14q0 3 2 9zM44 616q0 23 14.5 38t38.5 15t39 -15t15 -38q0 -24 -15 -38.5t-39 -14.5t-38.5 14.5t-14.5 38.5zM349 616q0 23 14.5 38t38.5 15t39 -14.5t15 -38.5t-14.5 -38.5
t-39.5 -14.5q-24 0 -38.5 14.5t-14.5 38.5z" />
    <glyph glyph-name="Alphatonos" unicode="&#x386;" 
d="M80 736q7 23 31 23h42q20 0 20 -15q0 -5 -3 -11l-67 -152q-8 -21 -28 -21h-26q-19 0 -19 14q0 3 2 9zM303 663q14 30 22.5 40t18.5 10t18 -10t22 -40l301 -633q5 -12 5 -17q0 -13 -21 -13h-55q-16 0 -23.5 5.5t-15.5 22.5l-77 168q-5 12 -18 12h-275q-13 0 -19 -12
l-76 -168q-8 -17 -15.5 -22.5t-23.5 -5.5h-51q-21 0 -21 13q0 5 5 17zM438 296q11 0 11 6q0 3 -3 9l-104 224l-103 -224q-3 -6 -3 -10q0 -5 10 -5h192z" />
    <glyph glyph-name="anoteleia" unicode="&#x387;" horiz-adv-x="227" 
d="M51 352q0 26 17.5 42.5t44.5 16.5t45 -16.5t18 -42.5t-18 -42.5t-45 -16.5t-44.5 16.5t-17.5 42.5z" />
    <glyph glyph-name="Epsilontonos" unicode="&#x388;" horiz-adv-x="682" 
d="M60 736q7 23 31 23h42q20 0 20 -15q0 -5 -3 -11l-67 -152q-8 -21 -28 -21h-26q-19 0 -19 14q0 3 2 9zM205 678q0 13 5 17.5t17 4.5h378q12 0 17 -4.5t5 -17.5v-51q0 -13 -5 -17.5t-17 -4.5h-288q-12 0 -12 -11v-183q0 -12 12 -12h254q12 0 17 -4.5t5 -17.5v-50
q0 -22 -22 -22h-254q-12 0 -12 -11v-188q0 -11 12 -11h289q12 0 17 -4.5t5 -17.5v-51q0 -13 -5 -17.5t-17 -4.5h-379q-12 0 -17 4.5t-5 17.5v656z" />
    <glyph glyph-name="Etatonos" unicode="&#x389;" horiz-adv-x="848" 
d="M60 736q7 23 31 23h42q20 0 20 -15q0 -5 -3 -11l-67 -152q-8 -21 -28 -21h-26q-19 0 -19 14q0 3 2 9zM205 678q0 13 5 17.5t17 4.5h56q12 0 17 -4.5t5 -17.5v-260q0 -12 12 -12h331q12 0 12 12v260q0 13 5 17.5t17 4.5h56q12 0 17 -4.5t5 -17.5v-656q0 -13 -5 -17.5
t-17 -4.5h-56q-12 0 -17 4.5t-5 17.5v279q0 11 -12 11h-331q-12 0 -12 -11v-279q0 -13 -5 -17.5t-17 -4.5h-56q-12 0 -17 4.5t-5 17.5v656z" />
    <glyph glyph-name="Iotatonos" unicode="&#x38a;" horiz-adv-x="393" 
d="M60 736q7 23 31 23h42q20 0 20 -15q0 -5 -3 -11l-67 -152q-8 -21 -28 -21h-26q-19 0 -19 14q0 3 2 9zM205 678q0 13 5 17.5t17 4.5h56q12 0 17 -4.5t5 -17.5v-656q0 -13 -5 -17.5t-17 -4.5h-56q-12 0 -17 4.5t-5 17.5v656z" />
    <glyph glyph-name="Omicrontonos" unicode="&#x38c;" horiz-adv-x="894" 
d="M60 736q7 23 31 23h42q20 0 20 -15q0 -5 -3 -11l-67 -152q-8 -21 -28 -21h-26q-19 0 -19 14q0 3 2 9zM126 347q0 155 104 259.5t258 104.5t257 -102.5t103 -257.5t-104 -258.5t-260 -103.5q-153 0 -255.5 102t-102.5 256zM485 84q109 0 184 76t75 190q0 116 -74 191
t-183 75t-183 -75.5t-74 -192.5q0 -114 73 -189t182 -75z" />
    <glyph glyph-name="Upsilontonos" unicode="&#x38e;" horiz-adv-x="804" 
d="M60 736q7 23 31 23h42q20 0 20 -15q0 -5 -3 -11l-67 -152q-8 -21 -28 -21h-26q-19 0 -19 14q0 3 2 9zM452 259l-248 416q-5 10 -5 14q0 11 18 11h62q17 0 24 -4.5t17 -20.5l183 -316l184 316q10 16 17 20.5t23 4.5h59q19 0 19 -11q0 -4 -5 -14l-248 -411v-242
q0 -13 -5 -17.5t-17 -4.5h-56q-12 0 -17 4.5t-5 17.5v237z" />
    <glyph glyph-name="Omegatonos" unicode="&#x38f;" horiz-adv-x="867" 
d="M60 736q7 23 31 23h42q20 0 20 -15q0 -5 -3 -11l-67 -152q-8 -21 -28 -21h-26q-19 0 -19 14q0 3 2 9zM122 73q0 13 5 17.5t17 4.5h116q-59 50 -96.5 121t-37.5 155q0 148 96 244t249 96t249 -95t96 -241q0 -162 -135 -280h117q13 0 17.5 -4.5t4.5 -17.5v-51
q0 -13 -4.5 -17.5t-17.5 -4.5h-226q-12 0 -17 4.5t-5 17.5v40q0 13 2.5 19t12.5 14q67 49 107 118.5t40 152.5q0 112 -66 181t-175 69q-110 0 -175.5 -69t-65.5 -181q0 -83 40 -152.5t107 -118.5q10 -8 12.5 -14t2.5 -19v-40q0 -13 -5 -17.5t-17 -4.5h-226q-12 0 -17 4.5
t-5 17.5v51z" />
    <glyph glyph-name="iotadieresistonos" unicode="&#x390;" horiz-adv-x="299" 
d="M121 736q7 23 31 23h42q20 0 20 -15q0 -5 -3 -11l-67 -152q-9 -21 -28 -21h-26q-19 0 -19 14q0 3 2 9zM-78 616q0 23 14.5 38t38.5 15t39 -15t15 -38q0 -24 -15 -38.5t-39 -14.5t-38.5 14.5t-14.5 38.5zM227 616q0 23 14.5 38t38.5 15t39 -14.5t15 -38.5t-14.5 -38.5
t-39.5 -14.5q-24 0 -38.5 14.5t-14.5 38.5zM70 470q0 20 21 20h56q21 0 21 -20v-286q0 -59 14 -83t44 -24q11 0 25 2t17 2q12 0 13 -14l6 -48v-4q0 -14 -15 -19q-26 -8 -61 -8q-75 0 -108 44t-33 140v298z" />
    <glyph glyph-name="Alpha" unicode="&#x391;" 
d="M303 663q14 30 22.5 40t18.5 10t18 -10t22 -40l301 -633q5 -12 5 -17q0 -13 -21 -13h-55q-16 0 -23.5 5.5t-15.5 22.5l-77 168q-5 12 -18 12h-275q-13 0 -19 -12l-76 -168q-8 -17 -15.5 -22.5t-23.5 -5.5h-51q-21 0 -21 13q0 5 5 17zM438 296q11 0 11 6q0 3 -3 9
l-104 224l-103 -224q-3 -6 -3 -10q0 -5 10 -5h192z" />
    <glyph glyph-name="Beta" unicode="&#x392;" horiz-adv-x="626" 
d="M88 678q0 13 5 17.5t17 4.5h196q263 0 263 -186q0 -113 -104 -152q57 -14 90.5 -54t33.5 -103q0 -205 -280 -205h-199q-12 0 -17 4.5t-5 17.5v656zM313 398q152 0 152 106q0 104 -166 104h-99q-12 0 -12 -12v-186q0 -12 12 -12h113zM309 92q93 0 134.5 26t41.5 86
q0 56 -42.5 79.5t-125.5 23.5h-117q-12 0 -12 -12v-191q0 -12 12 -12h109z" />
    <glyph glyph-name="Gamma" unicode="&#x393;" horiz-adv-x="526" 
d="M88 678q0 13 5 17.5t17 4.5h379q12 0 17 -4.5t5 -17.5v-51q0 -13 -5 -17.5t-17 -4.5h-289q-12 0 -12 -11v-572q0 -13 -5 -17.5t-17 -4.5h-56q-12 0 -17 4.5t-5 17.5v656z" />
    <glyph glyph-name="uni0394" unicode="&#x394;" horiz-adv-x="686" 
d="M302 661q14 31 22.5 41.5t18.5 10.5t18.5 -10.5t23.5 -41.5l297 -628q5 -12 5 -18q0 -15 -22 -15h-643q-23 0 -23 15q0 6 5 18zM543 95l-201 440l-202 -440h403z" />
    <glyph glyph-name="Epsilon" unicode="&#x395;" horiz-adv-x="565" 
d="M88 678q0 13 5 17.5t17 4.5h378q12 0 17 -4.5t5 -17.5v-51q0 -13 -5 -17.5t-17 -4.5h-288q-12 0 -12 -11v-183q0 -12 12 -12h254q12 0 17 -4.5t5 -17.5v-50q0 -22 -22 -22h-254q-12 0 -12 -11v-188q0 -11 12 -11h289q12 0 17 -4.5t5 -17.5v-51q0 -13 -5 -17.5t-17 -4.5
h-379q-12 0 -17 4.5t-5 17.5v656z" />
    <glyph glyph-name="Zeta" unicode="&#x396;" horiz-adv-x="581" 
d="M385 605h-317q-12 1 -17 5.5t-5 16.5v51q0 13 5 17.5t17 4.5h450q28 0 28 -15q0 -6 -8 -19l-355 -571h331q13 0 18 -4.5t5 -17.5v-51q0 -13 -5 -17.5t-18 -4.5h-463q-28 0 -28 15q0 6 8 19z" />
    <glyph glyph-name="Eta" unicode="&#x397;" horiz-adv-x="731" 
d="M88 678q0 13 5 17.5t17 4.5h56q12 0 17 -4.5t5 -17.5v-260q0 -12 12 -12h331q12 0 12 12v260q0 13 5 17.5t17 4.5h56q12 0 17 -4.5t5 -17.5v-656q0 -13 -5 -17.5t-17 -4.5h-56q-12 0 -17 4.5t-5 17.5v279q0 11 -12 11h-331q-12 0 -12 -11v-279q0 -13 -5 -17.5t-17 -4.5
h-56q-12 0 -17 4.5t-5 17.5v656z" />
    <glyph glyph-name="Theta" unicode="&#x398;" horiz-adv-x="814" 
d="M404 -11q-153 0 -255.5 102t-102.5 256q0 155 104 259.5t258 104.5t257 -102.5t103 -257.5t-104 -258.5t-260 -103.5zM405 84q109 0 184 76t75 190q0 116 -74 191t-183 75t-183 -75.5t-74 -192.5q0 -114 73 -189t182 -75zM270 367q0 12 4.5 16.5t17.5 4.5h229
q13 0 18 -4.5t5 -16.5v-36q0 -12 -4.5 -16t-18.5 -4h-229q-13 0 -17.5 4t-4.5 16v36z" />
    <glyph glyph-name="Iota" unicode="&#x399;" horiz-adv-x="276" 
d="M88 678q0 13 5 17.5t17 4.5h56q12 0 17 -4.5t5 -17.5v-656q0 -13 -5 -17.5t-17 -4.5h-56q-12 0 -17 4.5t-5 17.5v656z" />
    <glyph glyph-name="Kappa" unicode="&#x39a;" horiz-adv-x="621" 
d="M88 678q0 13 5 17.5t17 4.5h56q12 0 17 -4.5t5 -17.5v-656q0 -13 -5 -17.5t-17 -4.5h-56q-12 0 -17 4.5t-5 17.5v656zM223 333q-9 11 -9 19q0 9 10 20l254 304q12 15 20 19.5t24 4.5h65q19 0 19 -11q0 -6 -7 -14l-271 -320l278 -329q8 -10 8 -15q0 -11 -20 -11h-69
q-17 0 -25 4.5t-20 18.5z" />
    <glyph glyph-name="Lambda" unicode="&#x39b;" 
d="M306 664q14 30 21.5 40t16.5 10q10 0 17 -9.5t22 -40.5l302 -634q5 -12 5 -17q0 -13 -21 -13h-53q-16 0 -24 6t-17 24l-231 498l-231 -498q-8 -18 -16 -24t-24 -6h-54q-20 0 -20 13q0 5 5 17z" />
    <glyph glyph-name="Mu" unicode="&#x39c;" horiz-adv-x="846" 
d="M88 677q0 33 20 33q13 0 38 -29l279 -335l275 335q26 29 38 29q20 0 20 -33v-655q0 -13 -5 -17.5t-17 -4.5h-56q-12 0 -17 4.5t-5 17.5v466l-200 -246q-22 -28 -35 -28t-35 28l-200 246v-466q0 -13 -5 -17.5t-17 -4.5h-56q-12 0 -17 4.5t-5 17.5v655z" />
    <glyph glyph-name="Nu" unicode="&#x39d;" horiz-adv-x="744" 
d="M88 678q0 33 21 33q15 0 41 -31l406 -479v477q0 13 5 17.5t17 4.5h56q12 0 17 -4.5t5 -17.5v-656q0 -33 -20 -33q-15 0 -42 31l-406 479v-477q0 -13 -5 -17.5t-17 -4.5h-56q-12 0 -17 4.5t-5 17.5v656z" />
    <glyph glyph-name="Xi" unicode="&#x39e;" horiz-adv-x="571" 
d="M56 678q0 13 5 17.5t17 4.5h415q12 0 17 -4.5t5 -17.5v-51q0 -13 -5 -17.5t-17 -4.5h-415q-12 0 -17 4.5t-5 17.5v51zM90 377q0 13 5 17.5t17 4.5h347q12 0 17 -4.5t5 -17.5v-50q0 -22 -22 -22h-347q-22 0 -22 22v50zM55 73q0 13 5 17.5t17 4.5h417q12 0 17 -4.5t5 -17.5
v-51q0 -13 -5 -17.5t-17 -4.5h-417q-12 0 -17 4.5t-5 17.5v51z" />
    <glyph glyph-name="Omicron" unicode="&#x39f;" horiz-adv-x="814" 
d="M46 347q0 155 104 259.5t258 104.5t257 -102.5t103 -257.5t-104 -258.5t-260 -103.5q-153 0 -255.5 102t-102.5 256zM405 84q109 0 184 76t75 190q0 116 -74 191t-183 75t-183 -75.5t-74 -192.5q0 -114 73 -189t182 -75z" />
    <glyph glyph-name="Pi" unicode="&#x3a0;" horiz-adv-x="714" 
d="M88 678q0 13 5 17.5t17 4.5h494q12 0 17 -4.5t5 -17.5v-656q0 -13 -5 -17.5t-17 -4.5h-56q-12 0 -17 4.5t-5 17.5v572q0 11 -11 11h-315q-12 0 -12 -11v-572q0 -13 -5 -17.5t-17 -4.5h-56q-12 0 -17 4.5t-5 17.5v656z" />
    <glyph glyph-name="Rho" unicode="&#x3a1;" horiz-adv-x="624" 
d="M88 678q0 13 5 17.5t17 4.5h193q284 0 284 -230q0 -115 -75.5 -177t-217.5 -62h-94q-12 0 -12 -11v-198q0 -13 -5 -17.5t-17 -4.5h-56q-12 0 -17 4.5t-5 17.5v656zM297 326q88 0 137 35t49 107q0 137 -186 137h-97q-12 0 -12 -11v-256q0 -12 12 -12h97z" />
    <glyph glyph-name="Sigma" unicode="&#x3a3;" horiz-adv-x="553" 
d="M283 357l-234 298q-14 20 -14 28q0 17 30 17h430q23 0 23 -22v-51q0 -22 -23 -22h-287l175 -219q13 -16 13 -28q0 -10 -13 -26l-192 -237h293q12 0 17 -4.5t5 -17.5v-51q0 -13 -5 -17.5t-17 -4.5h-433q-30 0 -30 17q0 8 14 28z" />
    <glyph glyph-name="Tau" unicode="&#x3a4;" horiz-adv-x="574" 
d="M237 594q0 11 -12 11h-188q-12 0 -17 4.5t-5 17.5v51q0 13 5 17.5t17 4.5h500q12 0 17 -4.5t5 -17.5v-51q0 -13 -5 -17.5t-17 -4.5h-188q-12 0 -12 -11v-572q0 -13 -5 -17.5t-17 -4.5h-56q-12 0 -17 4.5t-5 17.5v572z" />
    <glyph glyph-name="Upsilon" unicode="&#x3a5;" horiz-adv-x="603" 
d="M252 259l-248 416q-5 10 -5 14q0 11 18 11h62q17 0 24 -4.5t17 -20.5l183 -316l184 316q10 16 17 20.5t23 4.5h59q19 0 19 -11q0 -4 -5 -14l-248 -411v-242q0 -13 -5 -17.5t-17 -4.5h-56q-12 0 -17 4.5t-5 17.5v237z" />
    <glyph glyph-name="Phi" unicode="&#x3a6;" horiz-adv-x="858" 
d="M380 60q-149 11 -242 90t-93 197q0 119 93 200t242 93v59q0 13 5 17.5t17 4.5h54q12 0 17 -4.5t5 -17.5v-59q149 -11 242 -90.5t93 -197.5q0 -119 -93 -199t-242 -92v-60q0 -13 -5 -17.5t-17 -4.5h-54q-12 0 -17 4.5t-5 17.5v59zM380 550q-102 -9 -166.5 -63.5
t-64.5 -137.5q0 -81 64.5 -135t166.5 -63v399zM478 151q100 10 165.5 64.5t65.5 134.5q0 83 -64.5 136.5t-166.5 63.5v-399z" />
    <glyph glyph-name="Chi" unicode="&#x3a7;" horiz-adv-x="615" 
d="M246 355l-220 321q-5 6 -5 13q0 11 18 11h70q14 0 21 -4.5t18 -19.5l163 -242l164 244q10 14 17.5 18t21.5 4h67q18 0 18 -10q0 -5 -6 -14l-221 -319l229 -333q6 -7 6 -13q0 -11 -18 -11h-70q-15 0 -22 4.5t-17 19.5l-172 253l-173 -255q-10 -14 -16.5 -18t-20.5 -4h-68
q-18 0 -18 11q0 5 6 13z" />
    <glyph glyph-name="Psi" unicode="&#x3a8;" horiz-adv-x="866" 
d="M385 194q-305 17 -305 275v209q0 13 5 17.5t17 4.5h55q12 0 17 -4.5t5 -17.5v-207q0 -90 51.5 -134t154.5 -51v392q0 13 5 17.5t17 4.5h54q12 0 17 -4.5t5 -17.5v-392q100 8 152 52t52 132v208q0 13 5 17.5t17 4.5h55q12 0 17 -4.5t5 -17.5v-206q0 -131 -80.5 -199
t-222.5 -79v-172q0 -13 -5 -17.5t-17 -4.5h-54q-12 0 -17 4.5t-5 17.5v172z" />
    <glyph glyph-name="uni03A9" unicode="&#x3a9;" horiz-adv-x="792" 
d="M47 73q0 13 5 17.5t17 4.5h116q-59 50 -96.5 121t-37.5 155q0 148 96 244t249 96t249 -95t96 -241q0 -162 -135 -280h117q13 0 17.5 -4.5t4.5 -17.5v-51q0 -13 -4.5 -17.5t-17.5 -4.5h-226q-12 0 -17 4.5t-5 17.5v40q0 13 2.5 19t12.5 14q67 49 107 118.5t40 152.5
q0 112 -66 181t-175 69q-110 0 -175.5 -69t-65.5 -181q0 -83 40 -152.5t107 -118.5q10 -8 12.5 -14t2.5 -19v-40q0 -13 -5 -17.5t-17 -4.5h-226q-12 0 -17 4.5t-5 17.5v51z" />
    <glyph glyph-name="Iotadieresis" unicode="&#x3aa;" horiz-adv-x="276" 
d="M-8 814q0 24 14.5 38.5t38.5 14.5t39 -14.5t15 -38.5q0 -23 -15 -38t-39 -15t-38.5 15t-14.5 38zM177 814q0 24 14.5 38.5t38.5 14.5q25 0 39.5 -14.5t14.5 -38.5t-15 -38.5t-39 -14.5t-38.5 15t-14.5 38zM88 678q0 13 5 17.5t17 4.5h56q12 0 17 -4.5t5 -17.5v-656
q0 -13 -5 -17.5t-17 -4.5h-56q-12 0 -17 4.5t-5 17.5v656z" />
    <glyph glyph-name="Upsilondieresis" unicode="&#x3ab;" horiz-adv-x="603" 
d="M156 814q0 24 14.5 38.5t38.5 14.5t39 -14.5t15 -38.5q0 -23 -15 -38t-39 -15t-38.5 15t-14.5 38zM341 814q0 24 14.5 38.5t38.5 14.5q25 0 39.5 -14.5t14.5 -38.5t-15 -38.5t-39 -14.5t-38.5 15t-14.5 38zM252 259l-248 416q-5 10 -5 14q0 11 18 11h62q17 0 24 -4.5
t17 -20.5l183 -316l184 316q10 16 17 20.5t23 4.5h59q19 0 19 -11q0 -4 -5 -14l-248 -411v-242q0 -13 -5 -17.5t-17 -4.5h-56q-12 0 -17 4.5t-5 17.5v237z" />
    <glyph glyph-name="alphatonos" unicode="&#x3ac;" horiz-adv-x="608" 
d="M300 736q7 23 31 23h42q20 0 20 -15q0 -5 -3 -11l-67 -152q-8 -21 -28 -21h-26q-19 0 -19 14q0 3 2 9zM434 67q-55 -73 -158 -73q-97 0 -164 71t-67 178q0 108 67.5 180.5t167.5 72.5q99 0 154 -73v45q0 13 5 17.5t17 4.5h51q13 0 18 -4.5t5 -17.5v-446q0 -13 -5 -17.5
t-18 -4.5h-51q-22 0 -22 25v42zM291 83q61 0 102 46.5t41 116.5q0 69 -41 115t-102 46t-103.5 -46.5t-42.5 -116.5t42.5 -115.5t103.5 -45.5z" />
    <glyph glyph-name="epsilontonos" unicode="&#x3ad;" horiz-adv-x="467" 
d="M242 736q7 23 31 23h42q20 0 20 -15q0 -5 -3 -11l-67 -152q-8 -21 -28 -21h-26q-19 0 -19 14q0 3 2 9zM428 67q5 -8 5 -13q0 -6 -12 -14q-73 -51 -187 -51q-86 0 -136 41.5t-50 108.5q0 86 87 117q-34 13 -54.5 41t-19.5 65q1 65 53 102t138 37q97 0 162 -37
q10 -4 10 -12q0 -2 -4 -12l-22 -43q-4 -9 -11 -9q-6 0 -13 4q-58 27 -120 27q-43 0 -68.5 -16.5t-26.5 -47.5q-1 -32 26.5 -47.5t78.5 -15.5h36q14 0 18.5 -4t4.5 -15v-38q0 -11 -5 -14.5t-19 -3.5h-44q-53 0 -80 -20.5t-27 -53.5q0 -32 27.5 -50.5t71.5 -18.5q68 0 136 38
q8 5 12 5q6 0 12 -11z" />
    <glyph glyph-name="etatonos" unicode="&#x3ae;" horiz-adv-x="588" 
d="M289 736q7 23 31 23h42q20 0 20 -15q0 -5 -3 -11l-67 -152q-8 -21 -28 -21h-26q-19 0 -19 14q0 3 2 9zM79 465q0 25 25 25h46q26 0 26 -25v-33q51 67 143 67q95 0 144.5 -59.5t49.5 -170.5v-481q0 -18 -17 -18h-62q-18 0 -18 18v474q0 71 -31 109t-89 38q-57 0 -88.5 -38
t-31.5 -110v-243q0 -18 -17 -18h-62q-18 0 -18 18v447z" />
    <glyph glyph-name="iotatonos" unicode="&#x3af;" horiz-adv-x="299" 
d="M132 736q7 23 31 23h42q20 0 20 -15q0 -5 -3 -11l-67 -152q-8 -21 -28 -21h-26q-19 0 -19 14q0 3 2 9zM70 470q0 20 21 20h56q21 0 21 -20v-286q0 -59 14 -83t44 -24q11 0 25 2t17 2q12 0 13 -14l6 -48v-4q0 -14 -15 -19q-26 -8 -61 -8q-75 0 -108 44t-33 140v298z" />
    <glyph glyph-name="upsilondieresistonos" unicode="&#x3b0;" horiz-adv-x="581" 
d="M272 736q7 23 31 23h42q20 0 20 -15q0 -5 -3 -11l-67 -152q-9 -21 -28 -21h-26q-19 0 -19 14q0 3 2 9zM73 616q0 23 14.5 38t38.5 15t39 -15t15 -38q0 -24 -15 -38.5t-39 -14.5t-38.5 14.5t-14.5 38.5zM378 616q0 23 14.5 38t38.5 15q25 0 39.5 -14.5t14.5 -38.5
t-14.5 -38.5t-39.5 -14.5q-24 0 -38.5 14.5t-14.5 38.5zM76 472q0 18 17 18h62q18 0 18 -18v-245q0 -148 119 -148q61 0 92.5 40.5t31.5 114.5q0 39 -3 81t-6 65.5t-8.5 56.5t-5.5 35v4q0 14 17 14h60q16 0 20 -18q24 -108 24 -238q0 -117 -58 -181t-164 -64
q-105 0 -160.5 59t-55.5 171v253z" />
    <glyph glyph-name="alpha" unicode="&#x3b1;" horiz-adv-x="608" 
d="M434 67q-55 -73 -158 -73q-97 0 -164 71t-67 178q0 108 67.5 180.5t167.5 72.5q99 0 154 -73v45q0 13 5 17.5t17 4.5h51q13 0 18 -4.5t5 -17.5v-446q0 -13 -5 -17.5t-18 -4.5h-51q-22 0 -22 25v42zM291 83q61 0 102 46.5t41 116.5q0 69 -41 115t-102 46t-103.5 -46.5
t-42.5 -116.5t42.5 -115.5t103.5 -45.5z" />
    <glyph glyph-name="beta" unicode="&#x3b2;" horiz-adv-x="605" 
d="M79 516q0 112 57.5 173t159.5 61q91 0 152 -48.5t61 -148.5q0 -49 -23 -90.5t-58 -62.5q62 -21 97 -71t35 -118q0 -103 -65 -162.5t-173 -59.5q-84 0 -147 38v-237q0 -20 -19 -20h-59q-18 0 -18 20v726zM280 411q0 21 25 21h8q42 0 71 32.5t29 83.5q0 53 -32.5 83
t-85.5 30q-56 0 -88 -37.5t-32 -107.5v-391q70 -44 143 -44q63 0 101.5 34t38.5 100q0 53 -36 92.5t-107 39.5h-10q-15 0 -20 4t-5 17v43z" />
    <glyph glyph-name="gamma" unicode="&#x3b3;" horiz-adv-x="544" 
d="M223 17q0 21 -9 36l-199 410q-5 10 -5 16q0 11 19 11h59q14 0 20.5 -5t14.5 -22l150 -307l149 307q8 17 14.5 22t20.5 5h58q19 0 19 -11q0 -6 -5 -16l-200 -407q-9 -18 -9 -39v-225q0 -13 -5 -17.5t-17 -4.5h-53q-12 0 -17 4.5t-5 17.5v225z" />
    <glyph glyph-name="delta" unicode="&#x3b4;" horiz-adv-x="601" 
d="M102 721q-7 7 -7 16q0 13 20 13h389q13 0 19 -4t6 -17v-46q0 -13 -6.5 -17t-21.5 -4h-227l190 -207q92 -103 92 -210q0 -112 -73 -184t-185 -72q-110 0 -181.5 71t-71.5 179q0 107 70 179t185 76zM298 81q66 0 111.5 46t45.5 114t-45.5 114t-109.5 46q-65 0 -109.5 -46
t-44.5 -115t43.5 -114t108.5 -45z" />
    <glyph glyph-name="epsilon" unicode="&#x3b5;" horiz-adv-x="467" 
d="M428 67q5 -8 5 -13q0 -6 -12 -14q-73 -51 -187 -51q-86 0 -136 41.5t-50 108.5q0 86 87 117q-34 13 -54.5 41t-19.5 65q1 65 53 102t138 37q97 0 162 -37q10 -4 10 -12q0 -2 -4 -12l-22 -43q-4 -9 -11 -9q-6 0 -13 4q-58 27 -120 27q-43 0 -68.5 -16.5t-26.5 -47.5
q-1 -32 26.5 -47.5t78.5 -15.5h36q14 0 18.5 -4t4.5 -15v-38q0 -11 -5 -14.5t-19 -3.5h-44q-53 0 -80 -20.5t-27 -53.5q0 -32 27.5 -50.5t71.5 -18.5q68 0 136 38q8 5 12 5q6 0 12 -11z" />
    <glyph glyph-name="zeta" unicode="&#x3b6;" horiz-adv-x="485" 
d="M372 -160q-16 0 -16 11q0 2 2 8q10 24 10 48q0 38 -22.5 59.5t-87.5 35.5q-99 21 -156 74t-57 156q0 38 12.5 79t27.5 72t47 75.5t50.5 67l60.5 71l56 65.5h-216q-19 0 -25.5 3.5t-6.5 20.5v41q0 15 7 19t23 4h346q30 0 30 -17q0 -12 -15 -30l-141 -171
q-89 -108 -122.5 -166.5t-33.5 -127.5q0 -63 33 -96.5t99 -47.5q104 -23 146 -63.5t42 -117.5q0 -35 -12 -58q-7 -15 -21 -15h-60z" />
    <glyph glyph-name="eta" unicode="&#x3b7;" horiz-adv-x="588" 
d="M79 465q0 25 25 25h46q26 0 26 -25v-33q51 67 143 67q95 0 144.5 -59.5t49.5 -170.5v-481q0 -18 -17 -18h-62q-18 0 -18 18v474q0 71 -31 109t-89 38q-57 0 -88.5 -38t-31.5 -110v-243q0 -18 -17 -18h-62q-18 0 -18 18v447z" />
    <glyph glyph-name="theta" unicode="&#x3b8;" horiz-adv-x="607" 
d="M302 -12q-125 0 -191 101t-66 288q0 180 67 281t191 101q126 0 192.5 -99.5t66.5 -279.5q0 -185 -68 -288.5t-192 -103.5zM458 425q-5 114 -43.5 176.5t-111.5 62.5q-141 0 -154 -239h309zM148 340q3 -121 41.5 -189t113.5 -68q73 0 112 70t43 187h-310z" />
    <glyph glyph-name="iota" unicode="&#x3b9;" horiz-adv-x="299" 
d="M70 470q0 20 21 20h56q21 0 21 -20v-286q0 -59 14 -83t44 -24q11 0 25 2t17 2q12 0 13 -14l6 -48v-4q0 -14 -15 -19q-26 -8 -61 -8q-75 0 -108 44t-33 140v298z" />
    <glyph glyph-name="kappa" unicode="&#x3ba;" horiz-adv-x="521" 
d="M79 468q0 13 5 17.5t17 4.5h53q12 0 17 -4.5t5 -17.5v-446q0 -13 -5 -17.5t-17 -4.5h-53q-12 0 -17 4.5t-5 17.5v446zM198 234q-7 10 -7 14q0 5 7 15l175 208q16 19 37 19h72q15 0 15 -9q0 -7 -7 -15l-183 -213l205 -231q5 -7 5 -12q0 -10 -15 -10h-76q-23 0 -38 18z" />
    <glyph glyph-name="lambda" unicode="&#x3bb;" horiz-adv-x="544" 
d="M225 465l-108 232q-4 10 -4 13q0 10 14 10h73q15 0 26 -23l305 -670q4 -8 4 -14q0 -13 -18 -13h-58q-23 0 -33 22l-147 331l-157 -327q-7 -16 -14 -21t-22 -5h-57q-19 0 -19 12q0 7 4 15z" />
    <glyph glyph-name="uni03BC" unicode="&#x3bc;" horiz-adv-x="589" 
d="M79 472q0 18 17 18h62q18 0 18 -18v-245q0 -148 119 -148q121 0 121 148v245q0 18 18 18h62q17 0 17 -18v-253q0 -111 -56 -170.5t-162 -59.5q-82 0 -119 46v-243q0 -13 -5 -17.5t-17 -4.5h-54q-12 0 -16.5 4.5t-4.5 17.5v680z" />
    <glyph glyph-name="nu" unicode="&#x3bd;" horiz-adv-x="539" 
d="M13 463q-4 9 -4 16q0 11 18 11h60q14 0 20.5 -5t14.5 -22l147 -310q112 166 138 317q2 12 6 16t14 4h63q22 0 18 -20q-19 -112 -66.5 -208.5t-143.5 -232.5q-32 -43 -44 -43q-8 0 -15 9t-20 36z" />
    <glyph glyph-name="xi" unicode="&#x3be;" horiz-adv-x="478" 
d="M364 -160q-19 0 -12 16q11 24 11 51q0 37 -22.5 58.5t-86.5 34.5q-208 43 -208 207q0 66 42 115.5t119 67.5q-47 16 -74 55t-27 88q0 86 62 129h-100q-16 0 -21 4.5t-5 19.5v40q0 15 5.5 19.5t21.5 4.5h334q26 0 26 -23v-41q0 -15 -5 -19.5t-21 -4.5h-48
q-71 0 -110.5 -30t-39.5 -90q0 -57 39.5 -88.5t104.5 -31.5h29q16 0 21.5 -4t5.5 -18v-44q0 -15 -6 -19t-24 -4h-53q-82 0 -128 -32.5t-46 -88.5q0 -58 35.5 -84t106.5 -42q94 -23 132 -62t38 -111q0 -34 -12 -58q-6 -15 -21 -15h-63z" />
    <glyph glyph-name="omicron" unicode="&#x3bf;" horiz-adv-x="605" 
d="M299 -11q-108 0 -181 73.5t-73 182.5t74.5 183t183.5 74t183 -74t74 -183t-75 -182.5t-186 -73.5zM300 81q66 0 113 47.5t47 116.5q0 71 -45.5 118t-112.5 47t-112 -47t-45 -118q0 -70 44.5 -117t110.5 -47z" />
    <glyph glyph-name="pi" unicode="&#x3c0;" horiz-adv-x="600" 
d="M110 401h-63q-15 0 -21.5 4.5t-6.5 17.5v46q0 21 24 21h517q23 0 23 -21v-46q0 -22 -23 -22h-93v-231q0 -54 9.5 -73.5t34.5 -19.5q9 0 20 2t13 2q12 0 13 -14l6 -48v-4q0 -14 -15 -19q-22 -8 -56 -8q-67 0 -95 39.5t-28 131.5v242h-163v-380q0 -21 -20 -21h-56
q-20 0 -20 21v380z" />
    <glyph glyph-name="rho" unicode="&#x3c1;" horiz-adv-x="632" 
d="M77 244q0 112 71 185t182 73t184 -73t73 -183t-74 -183.5t-186 -73.5q-89 0 -153 62v-259q0 -13 -5 -17.5t-17 -4.5h-53q-12 0 -17 4.5t-5 17.5v452zM327 81q67 0 113.5 47.5t46.5 117.5q0 71 -45.5 117.5t-112.5 46.5t-111 -47t-44 -119t43 -117.5t110 -45.5z" />
    <glyph glyph-name="sigma1" unicode="&#x3c2;" horiz-adv-x="494" 
d="M384 -160q-16 0 -16 11q0 2 2 8q10 24 10 48q0 38 -22.5 59.5t-87.5 35.5q-49 11 -86.5 28t-70.5 45t-50.5 72.5t-17.5 103.5q0 108 73 179.5t183 71.5q103 0 173 -53q9 -7 9 -17q0 -6 -4 -13l-29 -44q-6 -9 -13 -9q-3 0 -15 6q-59 38 -119 38q-71 0 -114.5 -45
t-43.5 -111q0 -73 36.5 -109t107.5 -51q104 -23 146 -63.5t42 -117.5q0 -35 -12 -58q-7 -15 -21 -15h-60z" />
    <glyph glyph-name="sigma" unicode="&#x3c3;" horiz-adv-x="650" 
d="M609 490q13 0 18.5 -4t5.5 -17v-46q0 -13 -6 -17.5t-21 -4.5h-79q-12 0 -7 -11q38 -61 38 -144q0 -112 -72.5 -184.5t-186.5 -72.5q-109 0 -181.5 72.5t-72.5 180.5q0 110 74 179t189 69h301zM308 399q-71 0 -117 -42.5t-46 -113.5q0 -69 44 -115.5t111 -46.5t113 47.5
t46 119.5q0 85 -41 137q-11 14 -28 14h-82z" />
    <glyph glyph-name="tau" unicode="&#x3c4;" horiz-adv-x="429" 
d="M144 388q0 9 -2.5 11t-9.5 2h-91q-15 0 -21 4.5t-6 17.5v46q0 13 5.5 17t19.5 4h348q14 0 19.5 -4t5.5 -17v-46q0 -13 -6.5 -17.5t-21.5 -4.5h-131q-7 0 -9.5 -2.5t-2.5 -10.5v-204q0 -59 14 -83t44 -24q11 0 25 2t18 2q10 0 13 -14l5 -48v-5q0 -14 -14 -18
q-27 -8 -61 -8q-76 0 -108.5 44t-32.5 140v216z" />
    <glyph glyph-name="upsilon" unicode="&#x3c5;" horiz-adv-x="581" 
d="M76 472q0 18 17 18h62q18 0 18 -18v-245q0 -148 119 -148q61 0 92.5 40.5t31.5 114.5q0 39 -3 81t-6 65.5t-8.5 56.5t-5.5 35v4q0 14 17 14h60q16 0 20 -18q24 -108 24 -238q0 -117 -58 -181t-164 -64q-105 0 -160.5 59t-55.5 171v253z" />
    <glyph glyph-name="phi" unicode="&#x3c6;" horiz-adv-x="702" 
d="M287 -9q-119 15 -178.5 90t-59.5 194q0 107 26 197q5 18 21 18h59q9 0 13.5 -4t3.5 -11q-26 -117 -26 -198q0 -167 141 -194v221q0 84 44.5 141t132.5 57q96 0 142.5 -62t46.5 -156q0 -121 -68 -200t-201 -92v-200q0 -13 -5 -17.5t-17 -4.5h-54q-12 0 -16.5 4.5
t-4.5 17.5v199zM384 82q169 23 169 201q0 129 -89 129q-80 0 -80 -110v-220z" />
    <glyph glyph-name="chi" unicode="&#x3c7;" horiz-adv-x="509" 
d="M195 129l-176 337q-5 7 -5 15q0 9 11 9h65q25 0 35 -19l129 -244l129 244q10 19 35 19h65q12 0 12 -9q0 -7 -5 -15l-177 -336l178 -337q4 -5 4 -13q0 -10 -12 -10h-65q-26 0 -35 18l-129 243l-128 -243q-9 -18 -35 -18h-66q-12 0 -12 10q0 6 5 13z" />
    <glyph glyph-name="psi" unicode="&#x3c8;" horiz-adv-x="723" 
d="M313 -11q-125 9 -181 70t-56 169v244q0 18 17 18h62q18 0 18 -18v-238q0 -69 31 -108t109 -47v389q0 13 5 17.5t17 4.5h53q12 0 17 -4.5t5 -17.5v-389q78 7 113 48.5t35 115.5q0 71 -22 229v4q0 14 17 14h59q16 0 20 -18q24 -106 24 -229q0 -236 -246 -254v-197
q0 -13 -5 -17.5t-17 -4.5h-53q-12 0 -17 4.5t-5 17.5v197z" />
    <glyph glyph-name="omega" unicode="&#x3c9;" horiz-adv-x="780" 
d="M243 -11q-94 0 -144 68t-50 187q0 24 2 49.5t4.5 44t7.5 43t7.5 34.5l8.5 32.5t6 24.5q2 11 5.5 14.5t12.5 3.5h61q18 0 17 -18q-1 -9 -10.5 -45.5t-17 -84t-7.5 -94.5q0 -72 26.5 -119.5t75.5 -47.5q13 0 27 4.5t30.5 16t27 37t10.5 60.5v104q0 13 5 17.5t17 4.5h50
q12 0 17 -4.5t5 -17.5v-110q0 -62 31.5 -87t63.5 -25q49 0 75.5 47.5t26.5 119.5q0 47 -7.5 94t-17.5 85t-11 45v2q0 16 18 16h60q9 0 12.5 -3.5t6.5 -14.5q0 -2 6 -24.5l8.5 -32.5t7.5 -34.5t7.5 -43t4.5 -44t2 -49.5q0 -119 -50 -187t-144 -68q-101 0 -148 84
q-47 -84 -146 -84z" />
    <glyph glyph-name="iotadieresis" unicode="&#x3ca;" horiz-adv-x="299" 
d="M-24 616q0 23 14.5 38t38.5 15t39 -15t15 -38q0 -24 -15 -38.5t-39 -14.5t-38.5 14.5t-14.5 38.5zM161 616q0 23 14.5 38t38.5 15t39 -14.5t15 -38.5t-14.5 -38.5t-39.5 -14.5q-24 0 -38.5 14.5t-14.5 38.5zM70 470q0 20 21 20h56q21 0 21 -20v-286q0 -59 14 -83t44 -24
q11 0 25 2t17 2q12 0 13 -14l6 -48v-4q0 -14 -15 -19q-26 -8 -61 -8q-75 0 -108 44t-33 140v298z" />
    <glyph glyph-name="upsilondieresis" unicode="&#x3cb;" horiz-adv-x="581" 
d="M138 616q0 23 14.5 38t38.5 15t39 -15t15 -38q0 -24 -15 -38.5t-39 -14.5t-38.5 14.5t-14.5 38.5zM323 616q0 23 14.5 38t38.5 15t39 -14.5t15 -38.5t-14.5 -38.5t-39.5 -14.5q-24 0 -38.5 14.5t-14.5 38.5zM76 472q0 18 17 18h62q18 0 18 -18v-245q0 -148 119 -148
q61 0 92.5 40.5t31.5 114.5q0 39 -3 81t-6 65.5t-8.5 56.5t-5.5 35v4q0 14 17 14h60q16 0 20 -18q24 -108 24 -238q0 -117 -58 -181t-164 -64q-105 0 -160.5 59t-55.5 171v253z" />
    <glyph glyph-name="omicrontonos" unicode="&#x3cc;" horiz-adv-x="605" 
d="M300 736q7 23 31 23h42q20 0 20 -15q0 -5 -3 -11l-67 -152q-8 -21 -28 -21h-26q-19 0 -19 14q0 3 2 9zM299 -11q-108 0 -181 73.5t-73 182.5t74.5 183t183.5 74t183 -74t74 -183t-75 -182.5t-186 -73.5zM300 81q66 0 113 47.5t47 116.5q0 71 -45.5 118t-112.5 47
t-112 -47t-45 -118q0 -70 44.5 -117t110.5 -47z" />
    <glyph glyph-name="upsilontonos" unicode="&#x3cd;" horiz-adv-x="581" 
d="M289 736q7 23 31 23h42q20 0 20 -15q0 -5 -3 -11l-67 -152q-8 -21 -28 -21h-26q-19 0 -19 14q0 3 2 9zM76 472q0 18 17 18h62q18 0 18 -18v-245q0 -148 119 -148q61 0 92.5 40.5t31.5 114.5q0 39 -3 81t-6 65.5t-8.5 56.5t-5.5 35v4q0 14 17 14h60q16 0 20 -18
q24 -108 24 -238q0 -117 -58 -181t-164 -64q-105 0 -160.5 59t-55.5 171v253z" />
    <glyph glyph-name="omegatonos" unicode="&#x3ce;" horiz-adv-x="780" 
d="M389 736q7 23 31 23h42q20 0 20 -15q0 -5 -3 -11l-67 -152q-8 -21 -28 -21h-26q-19 0 -19 14q0 3 2 9zM243 -11q-94 0 -144 68t-50 187q0 24 2 49.5t4.5 44t7.5 43t7.5 34.5l8.5 32.5t6 24.5q2 11 5.5 14.5t12.5 3.5h61q18 0 17 -18q-1 -9 -10.5 -45.5t-17 -84
t-7.5 -94.5q0 -72 26.5 -119.5t75.5 -47.5q13 0 27 4.5t30.5 16t27 37t10.5 60.5v104q0 13 5 17.5t17 4.5h50q12 0 17 -4.5t5 -17.5v-110q0 -62 31.5 -87t63.5 -25q49 0 75.5 47.5t26.5 119.5q0 47 -7.5 94t-17.5 85t-11 45v2q0 16 18 16h60q9 0 12.5 -3.5t6.5 -14.5
q0 -2 6 -24.5l8.5 -32.5t7.5 -34.5t7.5 -43t4.5 -44t2 -49.5q0 -119 -50 -187t-144 -68q-101 0 -148 84q-47 -84 -146 -84z" />
    <glyph glyph-name="uni0400" unicode="&#x400;" horiz-adv-x="565" 
d="M189 929q11 9 18 9t18 -8l144 -118q10 -7 10 -14q0 -6 -9 -13l-25 -20q-9 -7 -14 -7t-18 8l-150 108q-11 8 -11 16q0 7 8 15zM88 678q0 13 5 17.5t17 4.5h378q12 0 17 -4.5t5 -17.5v-51q0 -13 -5 -17.5t-17 -4.5h-288q-12 0 -12 -11v-183q0 -12 12 -12h254q12 0 17 -4.5
t5 -17.5v-50q0 -22 -22 -22h-254q-12 0 -12 -11v-188q0 -11 12 -11h289q12 0 17 -4.5t5 -17.5v-51q0 -13 -5 -17.5t-17 -4.5h-379q-12 0 -17 4.5t-5 17.5v656z" />
    <glyph glyph-name="uni0401" unicode="&#x401;" horiz-adv-x="565" 
d="M153 814q0 24 14.5 38.5t38.5 14.5t39 -14.5t15 -38.5q0 -23 -15 -38t-39 -15t-38.5 15t-14.5 38zM338 814q0 24 14.5 38.5t38.5 14.5q25 0 39.5 -14.5t14.5 -38.5t-14.5 -38.5t-39.5 -14.5q-24 0 -38.5 15t-14.5 38zM88 678q0 13 5 17.5t17 4.5h378q12 0 17 -4.5
t5 -17.5v-51q0 -13 -5 -17.5t-17 -4.5h-288q-12 0 -12 -11v-183q0 -12 12 -12h254q12 0 17 -4.5t5 -17.5v-50q0 -22 -22 -22h-254q-12 0 -12 -11v-188q0 -11 12 -11h289q12 0 17 -4.5t5 -17.5v-51q0 -13 -5 -17.5t-17 -4.5h-379q-12 0 -17 4.5t-5 17.5v656z" />
    <glyph glyph-name="uni0402" unicode="&#x402;" horiz-adv-x="814" 
d="M237 594q0 11 -12 11h-188q-12 0 -17 4.5t-5 17.5v51q0 13 5 17.5t17 4.5h503q12 0 17 -4.5t5 -17.5v-51q0 -13 -5 -17.5t-17 -4.5h-191q-12 0 -12 -11v-220q79 69 198 69q109 0 174.5 -65t65.5 -173q0 -97 -48.5 -157t-140.5 -60q-42 0 -62 7q-17 4 -14 22l5 47
q1 19 16 19q3 0 19 -2t27 -2q98 0 98 125q0 67 -41.5 107t-116.5 40q-55 0 -103.5 -24.5t-76.5 -57.5v-247q0 -13 -5 -17.5t-17 -4.5h-56q-12 0 -17 4.5t-5 17.5v572z" />
    <glyph glyph-name="uni0403" unicode="&#x403;" horiz-adv-x="526" 
d="M235 785q-8 8 -8 13q0 6 9 14l144 118q11 8 18 8q8 0 18 -9l29 -24q8 -8 8 -15q0 -8 -11 -16l-150 -108q-13 -8 -18 -8t-14 7zM88 678q0 13 5 17.5t17 4.5h379q12 0 17 -4.5t5 -17.5v-51q0 -13 -5 -17.5t-17 -4.5h-289q-12 0 -12 -11v-572q0 -13 -5 -17.5t-17 -4.5h-56
q-12 0 -17 4.5t-5 17.5v656z" />
    <glyph glyph-name="uni0404" unicode="&#x404;" horiz-adv-x="702" 
d="M496 399q12 0 17 -4.5t5 -17.5v-50q0 -22 -22 -22h-345q15 -97 86 -159t169 -62q113 0 201 72q11 9 17 9q7 0 15 -10l29 -40q5 -6 5 -14q0 -7 -12 -18q-112 -94 -259 -94q-150 0 -253 101.5t-103 256.5q0 156 103.5 260t258.5 104q144 0 254 -93q10 -7 10 -15
q0 -7 -6 -16l-29 -39q-8 -11 -16 -11q-6 0 -17 8q-91 71 -198 71q-96 0 -167 -60t-87 -157h344z" />
    <glyph glyph-name="uni0405" unicode="&#x405;" horiz-adv-x="569" 
d="M56 151q8 11 15 11q5 0 15 -8q91 -71 183 -71q70 0 110.5 29t40.5 78q0 45 -34 69t-124 47q-110 28 -163 72t-53 129q0 94 67 149t169 55q126 0 228 -79q10 -9 10 -15q0 -4 -7 -16l-29 -43q-7 -11 -15 -11q-7 0 -17 7q-86 63 -171 63q-58 0 -94 -28t-36 -76q0 -47 35 -71
t119 -45q115 -30 167 -74.5t52 -125.5q0 -94 -71.5 -151t-185.5 -57q-130 0 -237 86q-11 10 -11 17t7 17z" />
    <glyph glyph-name="uni0406" unicode="&#x406;" horiz-adv-x="276" 
d="M88 678q0 13 5 17.5t17 4.5h56q12 0 17 -4.5t5 -17.5v-656q0 -13 -5 -17.5t-17 -4.5h-56q-12 0 -17 4.5t-5 17.5v656z" />
    <glyph glyph-name="uni0407" unicode="&#x407;" horiz-adv-x="276" 
d="M-8 814q0 24 14.5 38.5t38.5 14.5t39 -14.5t15 -38.5q0 -23 -15 -38t-39 -15t-38.5 15t-14.5 38zM177 814q0 24 14.5 38.5t38.5 14.5q25 0 39.5 -14.5t14.5 -38.5t-15 -38.5t-39 -14.5t-38.5 15t-14.5 38zM88 678q0 13 5 17.5t17 4.5h56q12 0 17 -4.5t5 -17.5v-656
q0 -13 -5 -17.5t-17 -4.5h-56q-12 0 -17 4.5t-5 17.5v656z" />
    <glyph glyph-name="uni0408" unicode="&#x408;" horiz-adv-x="284" 
d="M-56 -120q2 18 17 18q3 0 18.5 -1.5t26.5 -1.5q45 0 70 35.5t25 104.5v643q0 13 5 17.5t17 4.5h56q12 0 17 -4.5t5 -17.5v-651q0 -227 -187 -227q-41 0 -60 6q-19 4 -16 24z" />
    <glyph glyph-name="uni0409" unicode="&#x409;" horiz-adv-x="1019" 
d="M282 664q13 31 20.5 40.5t16.5 9.5q10 0 18 -10t21 -40l108 -245q8 -14 15 -14h213q143 0 215 -44t72 -150q0 -211 -281 -211h-126q-17 0 -26 8t-17 29l-210 492l-210 -499q-8 -18 -16 -24t-24 -6h-52q-20 0 -20 14q0 7 4 16zM700 92q86 0 131 27t45 90q0 27 -9 46.5
t-23.5 30t-39.5 17t-49 8t-60 1.5h-165q-16 0 -10 -13l85 -195q1 -1 2.5 -4.5t2 -4.5t3 -2t5.5 -1h82z" />
    <glyph glyph-name="uni040A" unicode="&#x40a;" horiz-adv-x="1051" 
d="M88 678q0 13 5 17.5t17 4.5h56q12 0 17 -4.5t5 -17.5v-263q0 -11 12 -11h288q12 0 12 11v263q0 13 5 17.5t17 4.5h56q12 0 17 -4.5t5 -17.5v-262q0 -11 12 -11h117q143 0 215 -44t72 -150q0 -211 -281 -211h-213q-12 0 -17 4.5t-5 17.5v279q0 11 -12 11h-288
q-12 0 -12 -11v-279q0 -13 -5 -17.5t-17 -4.5h-56q-12 0 -17 4.5t-5 17.5v656zM734 92q178 0 178 117q0 27 -9 46.5t-24 30t-40 17t-49 8t-60 1.5h-118q-12 0 -12 -11v-197q0 -12 12 -12h122z" />
    <glyph glyph-name="uni040B" unicode="&#x40b;" horiz-adv-x="788" 
d="M222 594q0 11 -11 11h-174q-12 0 -17 4.5t-5 17.5v51q0 13 5 17.5t17 4.5h474q22 0 22 -21v-52q0 -13 -5 -17.5t-17 -4.5h-177q-12 0 -12 -11v-224q32 32 80 53t96 21q98 0 156 -57t58 -183v-182q0 -22 -20 -22h-60q-11 0 -15.5 4.5t-4.5 17.5v181q0 149 -128 149
q-45 0 -87.5 -24.5t-74.5 -61.5v-244q0 -13 -5 -17.5t-17 -4.5h-56q-12 0 -17 4.5t-5 17.5v572z" />
    <glyph glyph-name="uni040C" unicode="&#x40c;" horiz-adv-x="621" 
d="M267 785q-8 8 -8 13q0 6 9 14l144 118q11 8 18 8q8 0 18 -9l29 -24q8 -8 8 -15q0 -8 -11 -16l-150 -108q-13 -8 -18 -8t-14 7zM88 678q0 13 5 17.5t17 4.5h56q12 0 17 -4.5t5 -17.5v-656q0 -13 -5 -17.5t-17 -4.5h-56q-12 0 -17 4.5t-5 17.5v656zM223 333q-9 11 -9 19
q0 9 10 20l254 304q12 15 20 19.5t24 4.5h65q19 0 19 -11q0 -6 -7 -14l-271 -320l278 -329q8 -10 8 -15q0 -11 -20 -11h-69q-17 0 -25 4.5t-20 18.5z" />
    <glyph glyph-name="uni040D" unicode="&#x40d;" horiz-adv-x="744" 
d="M266 929q10 9 18 9q7 0 18 -8l144 -118q10 -7 10 -14q0 -6 -9 -13l-25 -20q-9 -7 -14 -7t-18 8l-150 108q-11 8 -11 16q0 7 8 15zM88 678q0 13 5 17.5t17 4.5h56q12 0 17 -4.5t5 -17.5v-477l406 479q27 31 42 31q20 0 20 -33v-656q0 -13 -4.5 -17.5t-16.5 -4.5h-56
q-13 0 -18 4.5t-5 17.5v477l-406 -479q-26 -31 -41 -31q-21 0 -21 33v656z" />
    <glyph glyph-name="uni040E" unicode="&#x40e;" horiz-adv-x="623" 
d="M218 910q13 0 16 -15q8 -65 75 -65q66 0 75 65q3 15 16 15h44q14 0 14 -16q0 -58 -37.5 -97t-113.5 -39q-74 0 -110.5 38.5t-36.5 97.5q0 16 14 16h44zM30 65q1 20 16 20q3 0 20.5 -2.5t31.5 -2.5q58 0 91.5 31.5t74.5 108.5l-262 455q-4 7 -4 13q0 12 19 12h62
q14 0 21.5 -4.5t16.5 -20.5l203 -354l182 354q6 13 14.5 18.5t14.5 6t25 0.5h46q17 0 17 -12q0 -6 -5 -16l-227 -430l-45 -82.5t-39.5 -63.5t-41 -51t-42.5 -32.5t-53 -22t-63 -5.5q-18 0 -29.5 0.5t-25 3.5t-19.5 9.5t-5 17.5z" />
    <glyph glyph-name="uni040F" unicode="&#x40f;" horiz-adv-x="734" 
d="M88 678q0 13 5 17.5t17 4.5h56q12 0 17 -4.5t5 -17.5v-572q0 -11 12 -11h328q12 0 12 11v572q0 13 5 17.5t17 4.5h56q12 0 17 -4.5t5 -17.5v-656q0 -13 -5 -17.5t-17 -4.5h-195q-12 0 -12 -13v-125q0 -13 -5 -17.5t-18 -4.5h-49q-12 0 -17 4.5t-5 17.5v125q0 13 -12 13
h-195q-12 0 -17 4.5t-5 17.5v656z" />
    <glyph glyph-name="uni0410" unicode="&#x410;" 
d="M303 663q14 30 22.5 40t18.5 10t18 -10t22 -40l301 -633q5 -12 5 -17q0 -13 -21 -13h-55q-16 0 -23.5 5.5t-15.5 22.5l-77 168q-5 12 -18 12h-275q-13 0 -19 -12l-76 -168q-8 -17 -15.5 -22.5t-23.5 -5.5h-51q-21 0 -21 13q0 5 5 17zM438 296q11 0 11 6q0 3 -3 9
l-104 224l-103 -224q-3 -6 -3 -10q0 -5 10 -5h192z" />
    <glyph glyph-name="uni0411" unicode="&#x411;" horiz-adv-x="634" 
d="M88 678q0 13 5 17.5t17 4.5h399q12 0 17 -4.5t5 -17.5v-51q0 -13 -5 -17.5t-17 -4.5h-309q-12 0 -12 -10v-178q0 -11 12 -11h111q142 0 214 -44.5t72 -150.5q0 -211 -279 -211h-208q-12 0 -17 4.5t-5 17.5v656zM316 93q88 0 132.5 26t44.5 90q0 27 -9 46.5t-23.5 30
t-39.5 17t-49 8t-59 1.5h-113q-12 0 -12 -11v-196q0 -12 12 -12h116z" />
    <glyph glyph-name="uni0412" unicode="&#x412;" horiz-adv-x="626" 
d="M88 678q0 13 5 17.5t17 4.5h196q263 0 263 -186q0 -113 -104 -152q57 -14 90.5 -54t33.5 -103q0 -205 -280 -205h-199q-12 0 -17 4.5t-5 17.5v656zM313 398q152 0 152 106q0 104 -166 104h-99q-12 0 -12 -12v-186q0 -12 12 -12h113zM309 92q93 0 134.5 26t41.5 86
q0 56 -42.5 79.5t-125.5 23.5h-117q-12 0 -12 -12v-191q0 -12 12 -12h109z" />
    <glyph glyph-name="uni0413" unicode="&#x413;" horiz-adv-x="526" 
d="M88 678q0 13 5 17.5t17 4.5h379q12 0 17 -4.5t5 -17.5v-51q0 -13 -5 -17.5t-17 -4.5h-289q-12 0 -12 -11v-572q0 -13 -5 -17.5t-17 -4.5h-56q-12 0 -17 4.5t-5 17.5v656z" />
    <glyph glyph-name="uni0414" unicode="&#x414;" horiz-adv-x="748" 
d="M20 69q0 22 22 22h24q12 0 21 18l244 552q14 31 22.5 41.5t19.5 10.5q19 0 41 -52l245 -552q9 -18 20 -18h26q22 0 22 -22v-207q0 -13 -5 -17.5t-17 -4.5h-49q-12 0 -17 4.5t-5 17.5v127q0 11 -11 11h-499q-11 0 -11 -11v-127q0 -12 -4.5 -17t-16.5 -5h-50q-12 0 -17 4.5
t-5 17.5v207zM561 91l-190 444l-190 -444h380z" />
    <glyph glyph-name="uni0415" unicode="&#x415;" horiz-adv-x="565" 
d="M88 678q0 13 5 17.5t17 4.5h378q12 0 17 -4.5t5 -17.5v-51q0 -13 -5 -17.5t-17 -4.5h-288q-12 0 -12 -11v-183q0 -12 12 -12h254q12 0 17 -4.5t5 -17.5v-50q0 -22 -22 -22h-254q-12 0 -12 -11v-188q0 -11 12 -11h289q12 0 17 -4.5t5 -17.5v-51q0 -13 -5 -17.5t-17 -4.5
h-379q-12 0 -17 4.5t-5 17.5v656z" />
    <glyph glyph-name="uni0416" unicode="&#x416;" horiz-adv-x="887" 
d="M255 355l-233 320q-7 8 -7 15q0 10 18 10h64q17 0 25.5 -4.5t19.5 -19.5l216 -304q9 -12 9 -20t-8 -19l-219 -310q-10 -14 -19.5 -18.5t-26.5 -4.5h-67q-20 0 -20 9q0 6 8 17zM395 678q0 13 5 17.5t17 4.5h54q12 0 17 -4.5t5 -17.5v-656q0 -13 -5 -17.5t-17 -4.5h-54
q-12 0 -17 4.5t-5 17.5v656zM528 333q-7 10 -7 19t8 20l217 304q11 15 19.5 19.5t25.5 4.5h63q19 0 19 -10q0 -7 -7 -15l-233 -320l239 -329q8 -11 8 -17q0 -9 -19 -9h-68q-17 0 -26 4.5t-19 18.5z" />
    <glyph glyph-name="uni0417" unicode="&#x417;" horiz-adv-x="591" 
d="M66 144q6 9 14 9q6 0 15 -6q87 -64 188 -64q79 0 123.5 32.5t44.5 88.5q0 115 -157 115h-61q-12 0 -17 4.5t-5 17.5v48q0 13 5 17.5t17 4.5h59q68 0 104.5 30.5t36.5 74.5q0 100 -141 100q-82 0 -162 -53q-14 -9 -22 -9t-15 9l-26 43q-5 6 -5 13q0 11 14 21q91 71 217 71
q111 0 177.5 -49.5t66.5 -140.5q0 -97 -93 -148q111 -44 111 -169q0 -101 -74.5 -158t-198.5 -57q-146 0 -240 76q-12 9 -12 18q0 6 6 15z" />
    <glyph glyph-name="uni0418" unicode="&#x418;" horiz-adv-x="744" 
d="M88 678q0 13 5 17.5t17 4.5h56q12 0 17 -4.5t5 -17.5v-477l406 479q27 31 42 31q20 0 20 -33v-656q0 -13 -4.5 -17.5t-16.5 -4.5h-56q-13 0 -18 4.5t-5 17.5v477l-406 -479q-26 -31 -41 -31q-21 0 -21 33v656z" />
    <glyph glyph-name="uni0419" unicode="&#x419;" horiz-adv-x="744" 
d="M281 910q13 0 16 -15q8 -65 75 -65q66 0 75 65q3 15 16 15h44q14 0 14 -16q0 -58 -37.5 -97t-113.5 -39q-74 0 -110.5 38.5t-36.5 97.5q0 16 14 16h44zM88 678q0 13 5 17.5t17 4.5h56q12 0 17 -4.5t5 -17.5v-477l406 479q27 31 42 31q20 0 20 -33v-656q0 -13 -4.5 -17.5
t-16.5 -4.5h-56q-13 0 -18 4.5t-5 17.5v477l-406 -479q-26 -31 -41 -31q-21 0 -21 33v656z" />
    <glyph glyph-name="uni041A" unicode="&#x41a;" horiz-adv-x="621" 
d="M88 678q0 13 5 17.5t17 4.5h56q12 0 17 -4.5t5 -17.5v-656q0 -13 -5 -17.5t-17 -4.5h-56q-12 0 -17 4.5t-5 17.5v656zM223 333q-9 11 -9 19q0 9 10 20l254 304q12 15 20 19.5t24 4.5h65q19 0 19 -11q0 -6 -7 -14l-271 -320l278 -329q8 -10 8 -15q0 -11 -20 -11h-69
q-17 0 -25 4.5t-20 18.5z" />
    <glyph glyph-name="uni041B" unicode="&#x41b;" 
d="M306 664q14 30 21.5 40t16.5 10q10 0 17 -9.5t22 -40.5l302 -634q5 -12 5 -17q0 -13 -21 -13h-53q-16 0 -24 6t-17 24l-231 498l-231 -498q-8 -18 -16 -24t-24 -6h-54q-20 0 -20 13q0 5 5 17z" />
    <glyph glyph-name="uni041C" unicode="&#x41c;" horiz-adv-x="846" 
d="M88 677q0 33 20 33q13 0 38 -29l279 -335l275 335q26 29 38 29q20 0 20 -33v-655q0 -13 -5 -17.5t-17 -4.5h-56q-12 0 -17 4.5t-5 17.5v466l-200 -246q-22 -28 -35 -28t-35 28l-200 246v-466q0 -13 -5 -17.5t-17 -4.5h-56q-12 0 -17 4.5t-5 17.5v655z" />
    <glyph glyph-name="uni041D" unicode="&#x41d;" horiz-adv-x="731" 
d="M88 678q0 13 5 17.5t17 4.5h56q12 0 17 -4.5t5 -17.5v-260q0 -12 12 -12h331q12 0 12 12v260q0 13 5 17.5t17 4.5h56q12 0 17 -4.5t5 -17.5v-656q0 -13 -5 -17.5t-17 -4.5h-56q-12 0 -17 4.5t-5 17.5v279q0 11 -12 11h-331q-12 0 -12 -11v-279q0 -13 -5 -17.5t-17 -4.5
h-56q-12 0 -17 4.5t-5 17.5v656z" />
    <glyph glyph-name="uni041E" unicode="&#x41e;" horiz-adv-x="814" 
d="M46 347q0 155 104 259.5t258 104.5t257 -102.5t103 -257.5t-104 -258.5t-260 -103.5q-153 0 -255.5 102t-102.5 256zM405 84q109 0 184 76t75 190q0 116 -74 191t-183 75t-183 -75.5t-74 -192.5q0 -114 73 -189t182 -75z" />
    <glyph glyph-name="uni041F" unicode="&#x41f;" horiz-adv-x="714" 
d="M88 678q0 13 5 17.5t17 4.5h494q12 0 17 -4.5t5 -17.5v-656q0 -13 -5 -17.5t-17 -4.5h-56q-12 0 -17 4.5t-5 17.5v572q0 11 -11 11h-315q-12 0 -12 -11v-572q0 -13 -5 -17.5t-17 -4.5h-56q-12 0 -17 4.5t-5 17.5v656z" />
    <glyph glyph-name="uni0420" unicode="&#x420;" horiz-adv-x="624" 
d="M88 678q0 13 5 17.5t17 4.5h193q284 0 284 -230q0 -115 -75.5 -177t-217.5 -62h-94q-12 0 -12 -11v-198q0 -13 -5 -17.5t-17 -4.5h-56q-12 0 -17 4.5t-5 17.5v656zM297 326q88 0 137 35t49 107q0 137 -186 137h-97q-12 0 -12 -11v-256q0 -12 12 -12h97z" />
    <glyph glyph-name="uni0421" unicode="&#x421;" horiz-adv-x="701" 
d="M668 115q5 -6 5 -14q0 -7 -12 -18q-112 -94 -259 -94q-150 0 -253 101.5t-103 256.5q0 156 103.5 260t258.5 104q144 0 254 -93q10 -7 10 -15q0 -7 -6 -16l-29 -39q-8 -11 -16 -11q-6 0 -17 8q-91 71 -198 71q-109 0 -182.5 -75t-73.5 -192q0 -113 73.5 -189t182.5 -76
q113 0 201 72q11 9 17 9q7 0 15 -10z" />
    <glyph glyph-name="uni0422" unicode="&#x422;" horiz-adv-x="574" 
d="M237 594q0 11 -12 11h-188q-12 0 -17 4.5t-5 17.5v51q0 13 5 17.5t17 4.5h500q12 0 17 -4.5t5 -17.5v-51q0 -13 -5 -17.5t-17 -4.5h-188q-12 0 -12 -11v-572q0 -13 -5 -17.5t-17 -4.5h-56q-12 0 -17 4.5t-5 17.5v572z" />
    <glyph glyph-name="uni0423" unicode="&#x423;" horiz-adv-x="623" 
d="M30 65q1 20 16 20q3 0 20.5 -2.5t31.5 -2.5q58 0 91.5 31.5t74.5 108.5l-262 455q-4 7 -4 13q0 12 19 12h62q14 0 21.5 -4.5t16.5 -20.5l203 -354l182 354q6 13 14.5 18.5t14.5 6t25 0.5h46q17 0 17 -12q0 -6 -5 -16l-227 -430l-45 -82.5t-39.5 -63.5t-41 -51
t-42.5 -32.5t-53 -22t-63 -5.5q-18 0 -29.5 0.5t-25 3.5t-19.5 9.5t-5 17.5z" />
    <glyph glyph-name="uni0424" unicode="&#x424;" horiz-adv-x="858" 
d="M378 61q-147 11 -239.5 89.5t-92.5 196.5t93 198.5t239 93.5v59q0 13 5 17.5t17 4.5h54q12 0 17 -4.5t5 -17.5v-59q146 -12 239 -91.5t93 -196.5t-93 -196.5t-239 -93.5v-59q0 -13 -5 -17.5t-17 -4.5h-54q-12 0 -17 4.5t-5 17.5v59zM378 551q-101 -12 -164.5 -67
t-63.5 -136q0 -80 63.5 -134.5t164.5 -65.5v403zM476 149q100 12 164 66.5t64 134.5q0 81 -63.5 135t-164.5 66v-402z" />
    <glyph glyph-name="uni0425" unicode="&#x425;" horiz-adv-x="615" 
d="M246 355l-220 321q-5 6 -5 13q0 11 18 11h70q14 0 21 -4.5t18 -19.5l163 -242l164 244q10 14 17.5 18t21.5 4h67q18 0 18 -10q0 -5 -6 -14l-221 -319l229 -333q6 -7 6 -13q0 -11 -18 -11h-70q-15 0 -22 4.5t-17 19.5l-172 253l-173 -255q-10 -14 -16.5 -18t-20.5 -4h-68
q-18 0 -18 11q0 5 6 13z" />
    <glyph glyph-name="uni0426" unicode="&#x426;" horiz-adv-x="734" 
d="M88 678q0 13 5 17.5t17 4.5h56q12 0 17 -4.5t5 -17.5v-572q0 -11 12 -11h328q12 0 12 11v572q0 13 5 17.5t17 4.5h56q12 0 17 -4.5t5 -17.5v-578q0 -11 9 -11h43q22 0 22 -22v-205q0 -13 -5 -17.5t-17 -4.5h-49q-12 0 -17 4.5t-5 17.5v127q0 11 -11 11h-500
q-12 0 -17 4.5t-5 17.5v656z" />
    <glyph glyph-name="uni0427" unicode="&#x427;" horiz-adv-x="700" 
d="M512 307q-70 -81 -196 -81q-107 0 -169.5 67.5t-62.5 198.5v186q0 13 5 17.5t17 4.5h55q13 0 18 -4.5t5 -17.5v-185q0 -80 38 -126t110 -46q63 0 109 27t71 69v261q0 13 5 17.5t17 4.5h56q12 0 17 -4.5t5 -17.5v-656q0 -13 -5 -17.5t-17 -4.5h-56q-12 0 -17 4.5t-5 17.5
v285z" />
    <glyph glyph-name="uni0428" unicode="&#x428;" horiz-adv-x="992" 
d="M88 678q0 13 5 17.5t17 4.5h56q12 0 17 -4.5t5 -17.5v-572q0 -11 12 -11h234q12 0 12 11v572q0 13 5 17.5t17 4.5h56q12 0 17 -4.5t5 -17.5v-572q0 -11 12 -11h234q12 0 12 11v572q0 13 5 17.5t17 4.5h56q12 0 17 -4.5t5 -17.5v-656q0 -13 -5 -17.5t-17 -4.5h-772
q-12 0 -17 4.5t-5 17.5v656z" />
    <glyph glyph-name="uni0429" unicode="&#x429;" horiz-adv-x="998" 
d="M88 678q0 13 5 17.5t17 4.5h56q12 0 17 -4.5t5 -17.5v-572q0 -11 12 -11h234q12 0 12 11v572q0 13 5 17.5t17 4.5h56q12 0 17 -4.5t5 -17.5v-572q0 -11 12 -11h234q12 0 12 11v572q0 13 5 17.5t17 4.5h56q12 0 17 -4.5t5 -17.5v-578q0 -11 10 -11h42q22 0 22 -22v-205
q0 -13 -5 -17.5t-17 -4.5h-49q-12 0 -17 4.5t-5 17.5v127q0 11 -11 11h-764q-12 0 -17 4.5t-5 17.5v656z" />
    <glyph glyph-name="uni042A" unicode="&#x42a;" horiz-adv-x="761" 
d="M238 589q0 16 -14 16h-187q-12 0 -17 4.5t-5 17.5v51q0 13 5 17.5t17 4.5h279q12 0 17 -4.5t5 -17.5v-253q0 -11 11 -11h91q142 0 213 -45.5t71 -153.5q0 -215 -279 -215h-185q-12 0 -17 4.5t-5 17.5v567zM444 95q87 0 131 27.5t44 90.5t-43.5 84.5t-135.5 21.5h-91
q-11 0 -11 -12v-201q0 -11 11 -11h95z" />
    <glyph glyph-name="uni042B" unicode="&#x42b;" horiz-adv-x="877" 
d="M88 678q0 13 5 17.5t17 4.5h56q12 0 17 -4.5t5 -17.5v-253q0 -11 12 -11h110q142 0 213 -45.5t71 -153.5q0 -215 -278 -215h-206q-12 0 -17 4.5t-5 17.5v656zM689 678q0 13 5 17.5t17 4.5h56q12 0 17 -4.5t5 -17.5v-656q0 -13 -5 -17.5t-17 -4.5h-56q-12 0 -17 4.5
t-5 17.5v656zM314 95q88 0 132 27.5t44 90.5t-43.5 84.5t-135.5 21.5h-111q-12 0 -12 -12v-201q0 -11 12 -11h114z" />
    <glyph glyph-name="uni042C" unicode="&#x42c;" horiz-adv-x="634" 
d="M88 678q0 13 5 17.5t17 4.5h56q12 0 17 -4.5t5 -17.5v-253q0 -11 12 -11h114q141 0 212 -45.5t71 -153.5q0 -215 -278 -215h-209q-12 0 -17 4.5t-5 17.5v656zM317 95q88 0 132 27.5t44 90.5t-43.5 84.5t-135.5 21.5h-114q-12 0 -12 -12v-201q0 -11 12 -11h117z" />
    <glyph glyph-name="uni042D" unicode="&#x42d;" horiz-adv-x="702" 
d="M64 154q6 10 14 10q6 0 17 -8q92 -72 201 -72q99 0 170 62.5t84 158.5h-346q-22 0 -22 22v50q0 13 5 17.5t17 4.5h345q-15 97 -85.5 157t-167.5 60q-106 0 -199 -71q-10 -8 -16 -8q-8 0 -16 11l-29 38q-6 9 -6 16q0 8 10 15q111 94 257 94q153 0 256 -103t103 -259
t-104 -258t-253 -102q-147 0 -258 93q-12 10 -12 18t5 14z" />
    <glyph glyph-name="uni042E" unicode="&#x42e;" horiz-adv-x="1114" 
d="M88 678q0 13 5 17.5t17 4.5h56q12 0 17 -4.5t5 -17.5v-260q0 -12 12 -12h150q20 133 119.5 219t238.5 86q154 0 257 -102.5t103 -257.5t-104 -258.5t-261 -103.5q-144 0 -244 91t-112 232h-147q-12 0 -12 -11v-279q0 -13 -5 -17.5t-17 -4.5h-56q-12 0 -17 4.5t-5 17.5
v656zM705 84q108 0 183.5 76t75.5 190q0 116 -74 191t-183 75q-110 0 -184 -75.5t-74 -192.5q0 -114 73.5 -189t182.5 -75z" />
    <glyph glyph-name="uni042F" unicode="&#x42f;" horiz-adv-x="636" 
d="M187 291q-137 47 -137 190q0 105 71 162t209 57h196q12 0 17 -4.5t5 -17.5v-656q0 -13 -5 -17.5t-17 -4.5h-56q-12 0 -17 4.5t-5 17.5v231q0 12 -12 12h-132q-17 0 -26 -14l-145 -224q-10 -16 -19 -21.5t-26 -5.5h-60q-22 0 -22 11q0 6 8 19zM436 356q12 0 12 12v226
q0 11 -12 11h-101q-181 0 -181 -124q0 -125 175 -125h107z" />
    <glyph glyph-name="uni0430" unicode="&#x430;" horiz-adv-x="531" 
d="M358 34q-44 -43 -128 -43q-83 0 -135 43t-52 119t52.5 119t134.5 43t128 -43q-5 141 -133 141q-14 0 -37 -2t-26 -2q-15 0 -18 18l-6 44v5q0 15 19 19q37 7 78 7q111 0 165.5 -62.5t54.5 -178.5v-243q0 -18 -17 -18h-62q-18 0 -18 18v16zM143 153q0 -42 31 -67t77 -25
t77 25t31 66q0 42 -31 67.5t-77 25.5t-77 -25t-31 -67z" />
    <glyph glyph-name="uni0431" unicode="&#x431;" horiz-adv-x="593" 
d="M466 713q5 4 11 4q15 0 15 -21v-51q0 -4 -0.5 -7.5t-1.5 -6t-2 -4t-3.5 -3t-4 -2t-4 -2t-4.5 -2.5l-167 -93q-109 -62 -132 -110q18 17 55.5 30.5t80.5 13.5q100 0 169.5 -63t69.5 -166q0 -111 -72.5 -176t-182.5 -65q-106 0 -177 67.5t-71 184.5q0 231 213 354zM147 225
q0 -65 41.5 -104.5t106.5 -39.5t108.5 40t43.5 108q0 63 -42.5 102t-106.5 39q-65 0 -108 -39.5t-43 -105.5z" />
    <glyph glyph-name="uni0432" unicode="&#x432;" horiz-adv-x="538" 
d="M79 471q0 12 4 15.5t16 3.5h190q186 0 186 -131q0 -73 -73 -103q39 -10 65.5 -42t26.5 -73q0 -63 -50 -102t-148 -39h-197q-12 0 -16 3.5t-4 15.5v452zM274 287q102 0 102 69q0 59 -94 59h-97q-10 0 -10 -11v-107q0 -10 10 -10h89zM292 75q103 0 103 67q0 70 -118 70h-94
q-8 0 -8 -11v-115q0 -11 10 -11h107z" />
    <glyph glyph-name="uni0433" unicode="&#x433;" horiz-adv-x="408" 
d="M79 468q0 13 5 17.5t17 4.5h270q22 0 22 -22v-45q0 -22 -22 -22h-185q-11 0 -11 -9v-370q0 -13 -5 -17.5t-17 -4.5h-52q-12 0 -17 4.5t-5 17.5v446z" />
    <glyph glyph-name="uni0434" unicode="&#x434;" horiz-adv-x="562" 
d="M20 67q0 22 22 22h15q11 0 19 15l168 355q12 27 19.5 36t16.5 9t16.5 -9t20.5 -36l167 -355q8 -15 21 -15h14q23 0 23 -22v-205q0 -13 -5 -17.5t-18 -4.5h-49q-12 0 -17 4.5t-5 17.5v127q0 11 -10 11h-314q-11 0 -11 -11v-127q0 -12 -4.5 -17t-16.5 -5h-50q-12 0 -17 4.5
t-5 17.5v205zM401 82l-121 270l-123 -270h244z" />
    <glyph glyph-name="uni0435" unicode="&#x435;" horiz-adv-x="575" 
d="M497 80q4 -7 4 -14q0 -10 -11 -17q-81 -60 -192 -60q-113 0 -183 72.5t-70 181.5q0 113 70 186t176 73q105 0 172 -70.5t67 -176.5v-17q0 -18 -17 -18h-368q6 -64 49.5 -104.5t110.5 -40.5q74 0 141 45q9 6 16 6q8 0 13 -9zM427 295q-9 56 -45.5 90.5t-91.5 34.5
q-53 0 -90.5 -32.5t-51.5 -92.5h279z" />
    <glyph glyph-name="uni0436" unicode="&#x436;" horiz-adv-x="667" 
d="M159 252l-130 214q-5 8 -5 14q0 10 15 10h66q25 0 35 -19l123 -208q5 -7 5 -15q0 -6 -5 -14l-135 -216q-12 -18 -33 -18h-76q-13 0 -13 10q0 7 4 12zM285 468q0 13 5 17.5t18 4.5h53q12 0 17 -4.5t5 -17.5v-446q0 -13 -5 -17.5t-17 -4.5h-53q-13 0 -18 4.5t-5 17.5v446z
M404 234q-6 9 -6 14q0 6 6 15l122 208q11 19 36 19h66q15 0 15 -10q0 -6 -5 -14l-131 -214l150 -230q4 -5 4 -12q0 -10 -14 -10h-70q-26 0 -38 18z" />
    <glyph glyph-name="uni0437" unicode="&#x437;" horiz-adv-x="467" 
d="M63 106q6 11 13 11q4 0 12 -5q66 -38 136 -38q44 0 71.5 19t27.5 51t-27.5 52.5t-80.5 20.5h-43q-14 0 -19 3.5t-5 14.5v38q0 11 4.5 15t17.5 4h37q104 0 104 60q0 32 -25 49.5t-69 17.5q-62 0 -120 -27q-7 -4 -13 -4q-8 0 -11 9l-22 43q-4 10 -4 12q0 7 10 13
q63 36 164 36q86 0 136.5 -36t52.5 -102q1 -37 -20 -65.5t-55 -41.5q86 -30 87 -113q2 -69 -48.5 -111.5t-139.5 -42.5q-112 0 -185 50q-11 7 -11 14q0 3 4 13z" />
    <glyph glyph-name="uni0438" unicode="&#x438;" horiz-adv-x="584" 
d="M79 469q0 21 20 21h57q20 0 20 -21v-303l243 282l13.5 13.5t16 15l14 12t14.5 10.5t10 3q18 0 18 -50v-431q0 -21 -20 -21h-57q-20 0 -20 21v300l-246 -281q-52 -52 -67 -52q-16 0 -16 46v435z" />
    <glyph glyph-name="uni0439" unicode="&#x439;" horiz-adv-x="584" 
d="M201 712q13 0 16 -15q8 -65 75 -65q66 0 75 65q3 15 16 15h44q14 0 14 -16q0 -58 -37.5 -97t-113.5 -39q-74 0 -110.5 38.5t-36.5 97.5q0 16 14 16h44zM79 469q0 21 20 21h57q20 0 20 -21v-303l243 282l13.5 13.5t16 15l14 12t14.5 10.5t10 3q18 0 18 -50v-431
q0 -21 -20 -21h-57q-20 0 -20 21v300l-246 -281q-52 -52 -67 -52q-16 0 -16 46v435z" />
    <glyph glyph-name="uni043A" unicode="&#x43a;" horiz-adv-x="521" 
d="M79 468q0 13 5 17.5t17 4.5h53q12 0 17 -4.5t5 -17.5v-446q0 -13 -5 -17.5t-17 -4.5h-53q-12 0 -17 4.5t-5 17.5v446zM198 234q-7 10 -7 14q0 5 7 15l175 208q16 19 37 19h72q15 0 15 -9q0 -7 -7 -15l-183 -213l205 -231q5 -7 5 -12q0 -10 -15 -10h-76q-23 0 -38 18z" />
    <glyph glyph-name="uni043B" unicode="&#x43b;" horiz-adv-x="537" 
d="M233 459q14 27 21 36t15 9t15 -9t21 -36l221 -432q4 -8 4 -15q0 -12 -18 -12h-60q-14 0 -20 5t-15 22l-149 301l-149 -301q-9 -17 -15 -22t-20 -5h-58q-19 0 -19 12q0 7 4 15z" />
    <glyph glyph-name="uni043C" unicode="&#x43c;" horiz-adv-x="650" 
d="M79 466q0 20 4 28.5t16 8.5q15 0 46 -34l180 -210l180 210q33 34 46 34q12 0 16 -8.5t4 -28.5v-445q0 -21 -20 -21h-56q-21 0 -21 21v287l-118 -139q-19 -22 -31 -22t-31 22l-118 139v-287q0 -21 -21 -21h-57q-19 0 -19 21v445z" />
    <glyph glyph-name="uni043D" unicode="&#x43d;" horiz-adv-x="580" 
d="M79 469q0 21 20 21h57q20 0 20 -21v-159q0 -10 10 -10h208q10 0 10 10v159q0 21 20 21h57q21 0 21 -21v-448q0 -21 -21 -21h-57q-20 0 -20 21v180q0 10 -10 10h-208q-10 0 -10 -10v-180q0 -21 -20 -21h-57q-20 0 -20 21v448z" />
    <glyph glyph-name="uni043E" unicode="&#x43e;" horiz-adv-x="605" 
d="M299 -11q-108 0 -181 73.5t-73 182.5t74.5 183t183.5 74t183 -74t74 -183t-75 -182.5t-186 -73.5zM300 81q66 0 113 47.5t47 116.5q0 71 -45.5 118t-112.5 47t-112 -47t-45 -118q0 -70 44.5 -117t110.5 -47z" />
    <glyph glyph-name="uni043F" unicode="&#x43f;" horiz-adv-x="573" 
d="M79 469q0 13 5.5 17t18.5 4h367q14 0 19.5 -4t5.5 -17v-448q0 -21 -21 -21h-56q-21 0 -21 21v371q0 9 -10 9h-201q-10 0 -10 -9v-371q0 -21 -20 -21h-57q-20 0 -20 21v448z" />
    <glyph glyph-name="uni0440" unicode="&#x440;" horiz-adv-x="571" 
d="M79 469q0 13 4.5 17t16.5 4h141q138 0 211.5 -65t73.5 -177q0 -114 -75 -181t-212 -67h-52q-11 0 -11 -11v-197q0 -13 -5 -17.5t-17 -4.5h-54q-12 0 -16.5 4.5t-4.5 17.5v677zM238 88q86 0 137 41t51 119q0 75 -49.5 114t-138.5 39h-51q-11 0 -11 -12v-289q0 -12 11 -12
h51z" />
    <glyph glyph-name="uni0441" unicode="&#x441;" horiz-adv-x="522" 
d="M479 69q3 -5 3 -10q0 -10 -10 -17q-73 -53 -172 -53q-109 0 -182 71t-73 182q0 114 74 187t182 73q98 0 172 -52q9 -8 9 -16q0 -7 -4 -14l-29 -44q-6 -9 -13 -9q-5 0 -15 6q-62 37 -118 37q-69 0 -113.5 -47.5t-44.5 -119.5q0 -69 44.5 -115.5t113.5 -46.5q66 0 120 38
q10 6 14 6q7 0 14 -10z" />
    <glyph glyph-name="uni0442" unicode="&#x442;" horiz-adv-x="442" 
d="M173 388q0 9 -2.5 11t-9.5 2h-118q-15 0 -21 4.5t-6 17.5v46q0 13 5.5 17t18.5 4h362q14 0 19.5 -4t5.5 -17v-46q0 -13 -6.5 -17.5t-21.5 -4.5h-118q-7 0 -9.5 -2.5t-2.5 -10.5v-366q0 -13 -5 -17.5t-17 -4.5h-52q-12 0 -17 4.5t-5 17.5v366z" />
    <glyph glyph-name="uni0443" unicode="&#x443;" horiz-adv-x="544" 
d="M225 25l-211 438q-4 8 -4 15q0 12 19 12h57q15 0 22 -5t14 -21l157 -327l147 331q10 22 33 22h58q18 0 18 -13q0 -6 -4 -14l-305 -670q-11 -23 -26 -23h-73q-14 0 -14 10q0 3 4 13z" />
    <glyph glyph-name="uni0444" unicode="&#x444;" horiz-adv-x="722" 
d="M312 -15q0 14 -13 15q-119 8 -186.5 72t-67.5 170q0 107 68 175t190 73q9 0 9 11v227q0 13 5 17.5t17 4.5h54q12 0 17 -4.5t5 -17.5v-229q0 -9 10 -9q119 -4 188 -71.5t69 -174.5q0 -106 -68.5 -171t-186.5 -73q-12 -1 -12 -15v-193q0 -13 -5 -17.5t-17 -4.5h-54
q-12 0 -17 4.5t-5 17.5v193zM312 391q0 10 -7 10q-69 0 -115 -42t-46 -117q0 -71 45 -112t112 -41q11 0 11 11v291zM410 96q0 -8 10 -8q67 0 112.5 42.5t45.5 113.5q0 74 -46 115.5t-115 41.5q-7 0 -7 -9v-296z" />
    <glyph glyph-name="uni0445" unicode="&#x445;" horiz-adv-x="483" 
d="M179 250l-156 216q-6 8 -6 14q0 10 12 10h72q23 0 35 -19l107 -148l106 148q14 19 35 19h70q13 0 13 -10q0 -6 -6 -14l-156 -214l167 -229q5 -7 5 -13q0 -10 -13 -10h-76q-21 0 -35 18l-113 157l-112 -157q-13 -18 -35 -18h-74q-13 0 -13 10q0 6 5 13z" />
    <glyph glyph-name="uni0446" unicode="&#x446;" horiz-adv-x="589" 
d="M79 469q0 21 20 21h57q20 0 20 -21v-371q0 -9 10 -9h202q10 0 10 9v371q0 21 20 21h57q20 0 20 -21v-371q0 -9 9 -9h43q22 0 22 -22v-205q0 -13 -5 -17.5t-17 -4.5h-49q-12 0 -17 4.5t-5 17.5v127q0 11 -11 11h-362q-13 0 -18.5 4t-5.5 17v448z" />
    <glyph glyph-name="uni0447" unicode="&#x447;" horiz-adv-x="546" 
d="M48 472q0 18 17 18h63q18 0 18 -18v-108q0 -125 100 -125q53 0 87 25.5t38 79.5v128q0 18 17 18h63q18 0 18 -18v-452q0 -20 -20 -20h-58q-20 0 -20 20v188q-48 -58 -147 -58q-89 0 -132.5 54.5t-43.5 133.5v134z" />
    </font>
</defs>
</svg>
