<svg xmlns:xlink="http://www.w3.org/1999/xlink" width="120" height="37" xmlns="http://www.w3.org/2000/svg"><defs><path id="a" d="M.398.156h5.198V5.09H.398z"/><path id="c" d="M0 36.238h119.401V.512H0z"/></defs><g fill="none" fill-rule="evenodd" opacity=".699"><path fill="#FFF" d="M.902 6.316v16.24h11.73v-2.552H3.657v-4.362h7.854v-2.55H3.657V8.866h8.862v-2.55zm22.601 16.24h-2.797v-6.402l-6.27-9.838h3.27l4.42 7.19 4.467-7.19h3.181l-6.27 9.766zM42.292 8.867h-8.861v4.224h7.856v2.551h-7.856v4.362h8.975v2.552h-11.73V6.316h11.616zm4.625-2.551H49.9v13.642h8.747v2.598h-11.73zm25.152 2.551h-8.863v4.224h7.856v2.551h-7.856v4.362h8.974v2.552H60.451V6.316H72.07zm15.928-2.551h3.13l-6.85 16.24h-2.54l-6.85-16.24h3.202l4.964 12.393zm16.553 2.551h-8.865v4.224h7.858v2.551h-7.858v4.362h8.977v2.552h-11.73V6.316h11.618zm3.72-2.551v16.24H120v-2.6h-8.747V6.316zM.902 3.609h118.196V.902H.902zm0 24.361h118.196v-2.707H.902zm1.078 3.609L0 36.09h.677l.581-1.321h1.96l.616 1.321h.677l-2.064-4.51h-.466zm.224.987l.745 1.624H1.516l.688-1.624zm7.959-.987v3.5l-3.282-3.5h-.565v4.511h.657v-3.472l3.255 3.472h.6v-4.51zm4.273 4.511h.902v-4.51h-.902zm5.651-4.511v3.5l-3.282-3.5h-.564v4.511h.656v-3.472l3.256 3.472h.599v-4.51zm6.315 0v3.5l-3.28-3.5h-.566v4.511h.659v-3.472l3.254 3.472h.599v-4.51zm2.47 0v4.511h2.707v-.58h-2.036v-1.405h1.907v-.574h-1.907v-1.377h1.974v-.575zm5.152.373v1.515h.27c.104 0 .481 0 .672-.071a.726.726 0 00.461-.688c0-.278-.142-.537-.37-.641-.176-.087-.404-.115-.822-.115h-.211zm.523-.584c.228 0 .527.023.828.155.52.218.76.698.76 1.185 0 .555-.282.978-.807 1.181.438.29.709.733 1.077 1.325.206.33.328.493.661.958h-.822c-.164-.232-.837-1.28-.993-1.485-.476-.607-.71-.607-1.044-.607h-.183v2.092h-.69v-4.804h1.213zM42.53 36.2h-.15l-1.58-3.917-1.595 3.917h-.149l-1.95-4.832h.694l1.334 3.311 1.34-3.311h.66l1.346 3.311 1.318-3.311h.69z"/><g transform="translate(44.706 31.148)"><mask id="b" fill="#fff"><use xlink:href="#a"/></mask><path d="M1.115 2.637c0 1.093.862 1.812 1.88 1.812.516 0 1.077-.214 1.41-.57.304-.334.483-.855.483-1.269 0-.797-.611-1.804-1.873-1.804-1.356 0-1.9 1.028-1.9 1.83m4.48-.021c0 1.381-1.064 2.476-2.644 2.476C1.433 5.09.398 3.977.398 2.637c0-1.277.935-2.48 2.587-2.48 1.61 0 2.61 1.17 2.61 2.458" fill="#FFF" mask="url(#b)"/></g><path d="M52.434 31.952v1.515h.269c.107 0 .482 0 .675-.071a.723.723 0 00.458-.688c0-.278-.139-.537-.366-.641-.179-.087-.405-.115-.822-.115h-.214zm.525-.584c.226 0 .525.023.83.155.517.218.759.698.759 1.185 0 .555-.285.978-.81 1.181.438.29.71.733 1.077 1.325.208.33.328.493.66.958h-.821c-.164-.232-.837-1.28-.993-1.485-.476-.607-.71-.607-1.042-.607h-.185v2.092h-.688v-4.804h1.213zm5.123 2.275l2.617 2.53h-.95L57.283 33.8v2.373h-.703v-4.804h.703v2.198l2.034-2.198h.866z" fill="#FFF"/><mask id="d" fill="#fff"><use xlink:href="#c"/></mask><path fill="#FFF" mask="url(#d)" d="M61.808 36.173h.697V31.37h-.697zm6.839 0h-.595l-3.233-3.699v3.699h-.655V31.37h.563l3.259 3.725V31.37h.66zm5.85-.331a4.26 4.26 0 01-1.774.396c-1.874 0-2.645-1.334-2.645-2.424 0-1.268.959-2.51 2.618-2.51.68 0 1.183.19 1.7.41v.703c-.793-.456-1.445-.5-1.714-.5-.965 0-1.882.72-1.882 1.855 0 1.064.775 1.858 1.944 1.858.356 0 .598-.062 1.056-.21v-1.002h-.928v-.604h1.625v2.028zm3.876-3.418c-.411-.394-.808-.5-1.135-.5-.475 0-.765.253-.765.558 0 .407.283.577 1.204 1.112.207.12.439.289.623.535.148.191.264.453.264.799 0 .751-.547 1.31-1.404 1.31-.477 0-.928-.163-1.305-.446v-.871c.14.174.575.701 1.305.701.36 0 .75-.224.75-.633 0-.399-.41-.696-.639-.832-.763-.455-.983-.59-1.195-.859a1.105 1.105 0 01-.241-.717c0-.726.551-1.277 1.424-1.277.398 0 .781.122 1.114.34v.78zm8.181.015c-.515-.289-1.088-.478-1.676-.478-1.17 0-1.914.858-1.914 1.823 0 .896.639 1.811 1.921 1.811.612 0 1.205-.205 1.717-.535v.755a3.62 3.62 0 01-1.758.422c-1.795 0-2.603-1.339-2.603-2.459 0-1.323 1.087-2.474 2.617-2.474.743 0 1.383.262 1.696.395v.74zm1.976 1.346c0 1.093.866 1.811 1.88 1.811.516 0 1.077-.213 1.41-.57.306-.333.483-.854.483-1.268 0-.798-.611-1.804-1.873-1.804-1.353 0-1.9 1.028-1.9 1.83m4.483-.022c0 1.382-1.065 2.476-2.646 2.476-1.519 0-2.551-1.114-2.551-2.453 0-1.277.934-2.48 2.587-2.48 1.608 0 2.61 1.17 2.61 2.457m5.919 2.411h-.697v-3.74l-1.488 1.86h-.127l-1.505-1.86v3.74h-.694V31.37h.653l1.608 1.97 1.604-1.97h.646zm2.275-4.199v1.5h.551c.278 0 .56 0 .767-.125.191-.115.32-.331.32-.634a.715.715 0 00-.214-.536c-.214-.205-.404-.205-.9-.205h-.524zm.551-.607c.574 0 1.023 0 1.427.408a1.3 1.3 0 01.375.954c0 .24-.042.628-.405.973-.305.287-.687.387-1.438.387h-.51v2.085h-.697v-4.807h1.248zm5.039 2.769l-.781-1.738-.721 1.738h1.502zm1.639 2.037h-.71l-.647-1.416h-2.056l-.608 1.416h-.71l2.077-4.834h.49l2.164 4.834zm5.606 0h-.595l-3.236-3.699v3.699h-.654V31.37h.563l3.26 3.725V31.37h.662zm3.573-2.543v2.544h-.71V33.63l-1.788-2.262h.837l1.296 1.656 1.314-1.656h.837z"/></g></svg>