<svg width="168" height="30" xmlns="http://www.w3.org/2000/svg"><g fill="none" fill-rule="evenodd"><path d="M14.683.061c-.742 0-1.472.057-2.185.165v4.8h.003v9.973h4.343V5.02c4.51 1.007 7.887 5.095 7.887 9.989 0 5.65-4.499 10.229-10.047 10.229-5.55 0-10.048-4.58-10.048-10.23 0-2.82 1.124-5.371 2.938-7.22L4.29 4.448A15.038 15.038 0 000 15.01c0 8.257 6.574 14.95 14.683 14.95 8.11 0 14.684-6.693 14.684-14.95 0-8.255-6.574-14.948-14.684-14.948" fill="#3C3"/><path class="text" d="M51.138 15.01c0-.374-.028-.741-.08-1.1h-2.331v.001h-4.84v2.186h4.843c-.489 2.27-2.473 3.968-4.85 3.968-2.742 0-4.965-2.263-4.965-5.055s2.223-5.055 4.966-5.055c1.37 0 2.608.565 3.506 1.477l1.62-1.651a7.17 7.17 0 00-5.126-2.16c-4.008 0-7.257 3.308-7.257 7.389 0 4.08 3.249 7.388 7.257 7.388 4.008 0 7.257-3.308 7.257-7.388m8.409-.062c1.77 0 2.895-.941 2.895-2.394v-.04c0-1.536-1.086-2.375-2.915-2.375H55.93v4.81h3.618zm-6.09-7.101h6.27c1.77 0 3.157.532 4.061 1.433.744.777 1.166 1.841 1.166 3.09v.041c0 2.354-1.387 3.765-3.336 4.338l3.799 5.424h-2.935l-3.458-4.994H55.93v4.994h-2.473V7.847zm14.229 0H78.12v2.251h-7.96v3.725h7.055v2.271H70.16v3.827h8.06v2.252H67.686zm13.164 0h10.434v2.251h-7.96v3.725h7.055v2.271h-7.056v3.827h8.06v2.252H80.852zm13.166 0h2.291l7.538 9.905V7.847h2.432v14.326h-2.07l-7.76-10.192v10.192h-2.431zm14.956 0h2.472v12.034h7.397v2.292h-9.87zm12.26 14.325h2.473V7.848h-2.473zm21.385-14.325h2.473v5.956h6.714V7.847h2.472v14.326h-2.472v-6.038h-6.714v6.038h-2.473zm18.411 2.333h-4.483V7.847h11.438v2.333h-4.482v11.993h-2.473zm-20.734 4.813c0-.374-.027-.741-.08-1.1h-2.331v.002h-4.84v2.185h4.843c-.488 2.269-2.473 3.968-4.849 3.968-2.742 0-4.965-2.263-4.965-5.055s2.223-5.056 4.965-5.056a4.9 4.9 0 013.506 1.478l1.62-1.652a7.17 7.17 0 00-5.126-2.159c-4.008 0-7.257 3.308-7.257 7.389 0 4.08 3.25 7.388 7.257 7.388 4.008 0 7.257-3.308 7.257-7.388" fill="#FFF"/></g></svg>