<svg xmlns="http://www.w3.org/2000/svg" width="64" height="64" viewBox="0 0 512 512"><path d="M256.1 512c-7.7 0-14.9-3.8-19.2-10L106.3 314.4c-28.2-33.8-43.7-77-43.7-121.8C62.6 86.4 149.4 0 256 0s193.3 86.4 193.3 192.6c0 32.6-8.4 64.9-24.3 93.5-.6 1.5-1.4 2.9-2.3 4.3-5.2 8.4-10.1 15.4-15.3 21.9l-132 189.6c-4.4 6.3-11.6 10.1-19.3 10.1z" fill="#3c3"/><path d="M252.4 84.6c-5.4 0-10.8.4-16.1 1.2v106.7h31.9v-72.1c33.2 7.3 58 36.8 58 72.2 0 40.8-33.1 73.9-73.9 73.9s-73.9-33.1-73.9-73.9c0-20.4 8.3-38.8 21.6-52.2l-24-24.1c-19.5 19.5-31.6 46.5-31.6 76.3 0 59.7 48.4 108 108 108s108-48.4 108-108-48.4-108-108-108z" fill="#fff"/></svg>