<svg xmlns:xlink="http://www.w3.org/1999/xlink" width="110" height="40" xmlns="http://www.w3.org/2000/svg"><defs><path id="a" d="M0 0h110v40H0z"/></defs><g fill="none" fill-rule="evenodd" opacity=".703"><mask id="b" fill="#fff"><use xlink:href="#a"/></mask><path d="M14.09 1.774C6.934 10.267.07 20.799 0 28.67c-.026 2.962.91 5.548 3.155 7.51 3.23 2.818 6.79 3.813 10.332 3.819 5.177.006 10.317-2.103 14.342-3.73C34.61 33.53 109.537.654 109.537.654c.723-.366.586-.822-.318-.594-.365.092-81.57 22.327-81.57 22.327a17.806 17.806 0 01-4.728.685c-6.24.036-11.794-3.464-11.75-10.84.019-2.885.894-6.365 2.92-10.46" fill="#FFF" mask="url(#b)"/></g></svg>