<svg xmlns="http://www.w3.org/2000/svg" viewBox="0 0 236 56.3"><path fill="#fff" d="M85.3 37.2l-4.8-4.1 3.1-3.5 4.9 4.4c.9-1.5 1.4-3.3 1.4-5.2v-.1c0-5.3-3.9-9.7-9.5-9.7-5.5 0-9.4 4.3-9.4 9.7v.1c0 5.3 3.9 9.7 9.5 9.7 1.8-.1 3.4-.5 4.8-1.3zm6.9 6l-3.3-2.9c-2.3 1.7-5.3 2.6-8.5 2.6-8.6 0-14.5-6.4-14.5-14.2v-.1c0-7.7 6.1-14.2 14.6-14.2S95 20.8 95 28.6v.1c0 3.1-1 6.1-2.8 8.5l3.2 2.7c0-.1-3.2 3.3-3.2 3.3zm6.6-12.8v-16h4.8v15.7c0 5.1 2.6 7.9 6.9 7.9 4.2 0 6.9-2.6 6.9-7.7V14.4h4.8v15.7c0 8.3-4.6 12.4-11.7 12.4-7.2 0-11.7-4.1-11.7-12.1m26.7-16h20.4v4.3h-15.6v7.1h13.8v4.4h-13.8v7.3h15.8v4.3h-20.6V14.4zm23.4 23.8l2.9-3.4c2.6 2.3 5.3 3.6 8.7 3.6 3 0 4.9-1.4 4.9-3.4v-.1c0-2-1.1-3-6.2-4.2-5.8-1.4-9.1-3.1-9.1-8.2v-.1c0-4.7 3.9-7.9 9.4-7.9 4 0 7.2 1.2 10 3.4l-2.6 3.6c-2.5-1.8-4.9-2.8-7.5-2.8-2.8 0-4.5 1.4-4.5 3.2v.1c0 2.1 1.3 3 6.6 4.3 5.8 1.4 8.8 3.5 8.8 8v.1c0 5.1-4 8.2-9.8 8.2-4.4-.1-8.3-1.5-11.6-4.4m30.8-19.3h-8.9v-4.5h22.6v4.5h-8.9v23h-4.9l.1-23zm51.5 22.9h4.8V14.4h-4.8v27.4zm-8.6-9c0-3.4-2.7-5.6-5.8-5.6-3.2 0-5.7 2.2-5.7 5.5v.1c0 3.3 2.5 5.5 5.7 5.5 3.1.1 5.8-2.2 5.8-5.5m-15.1 14.9l1.7-3.5c2.1 1.3 4.4 2.1 7.1 2.1 4.1 0 6.3-2.1 6.3-6.1v-1.5c-1.7 2.1-3.7 3.7-7 3.7-4.7 0-9-3.5-9-9.4v-.1c0-6 4.4-9.5 9-9.5 3.4 0 5.4 1.6 7 3.4v-3h4.6v16c0 3.4-.9 5.9-2.5 7.6-1.8 1.8-4.6 2.7-8.2 2.7-3.4 0-6.5-.9-9-2.4"/><path class="icon" d="M8.7 28.1c0-10.7 8.7-19.4 19.4-19.4s19.4 8.7 19.4 19.4-8.7 19.4-19.4 19.4S8.7 38.8 8.7 28.1m47.6 0C56.3 12.6 43.7 0 28.1 0 12.6 0 0 12.6 0 28.1s12.6 28.1 28.1 28.1h28.1v-8.7h-7.7c5-5.2 7.8-12.2 7.8-19.4m142 11.3c0 1.3-1.1 2.4-2.4 2.4s-2.4-1.1-2.4-2.4 1.1-2.4 2.4-2.4 2.4 1.1 2.4 2.4" fill="#f39513"/></svg>