<svg xmlns="http://www.w3.org/2000/svg" width="166" height="40" viewBox="0 0 570.45 137.05"><path fill="#FFF" d="M68.52 34.92a33.61 33.61 0 1033.61 33.6 33.61 33.61 0 00-33.61-33.6zm-14.79 33.6a14.79 14.79 0 1114.79 14.79 14.79 14.79 0 01-14.79-14.79z"/><path fill="#FFF" d="M68.52 0a68.53 68.53 0 1068.53 68.52A68.52 68.52 0 0068.52 0zm0 116.91a48.39 48.39 0 1148.39-48.39 48.39 48.39 0 01-48.39 48.39zm87.84-78.85h12.45l19.32 49.26 19.23-49.26h12.18L193 102.61h-10.09zm70.23 0h11.26v64.1h-11.26zm19.5 54.76l6.78-8.06c6.14 5.31 12.36 8.33 20.24 8.33 6.95 0 11.35-3.29 11.35-8.06v-.18c0-4.58-2.56-7-14.47-9.79-13.64-3.3-21.33-7.33-21.33-19.14v-.19c0-11 9.15-18.58 21.88-18.58a35.58 35.58 0 0123.26 8.05l-6 8.52c-5.77-4.3-11.54-6.59-17.4-6.59-6.59 0-10.44 3.38-10.44 7.6v.18c0 4.94 2.93 7.14 15.29 10.07 13.55 3.3 20.51 8.15 20.51 18.77v.19c0 12-9.43 19.13-22.89 19.13a39.53 39.53 0 01-26.78-10.25zm58.97-54.76h11.27v64.1h-11.27zM326 70.29v-.18C326 52.07 340 37 359.64 37s33.42 14.93 33.42 33v.18c0 18-13.92 33.15-33.61 33.15S326 88.33 326 70.29zm55.22 0v-.18c0-12.45-9.07-22.71-21.8-22.71s-21.61 10.07-21.61 22.53v.18c0 12.45 9.07 22.71 21.8 22.71s21.64-10.07 21.64-22.53zm20.9-32.23h10.44l34.34 44.32V38.06H458v64.1h-9.43l-35.37-45.6v45.6h-11.08zm157.14-.08h11.2v64.26h-11.2zm-55.03 76.76l4-8.09a30.68 30.68 0 0016.71 4.89c9.6 0 14.85-4.89 14.85-14.31v-3.56c-3.92 5-8.81 8.54-16.54 8.54-11.11 0-21.33-8.18-21.33-22v-.18c0-13.87 10.4-22 21.33-22 7.91 0 12.8 3.64 16.45 8V59h10.75v37.34c0 7.91-2 13.78-6 17.69-4.27 4.27-10.85 6.31-19.29 6.31a40.36 40.36 0 01-20.93-5.6zm35.65-34.58V80c0-7.64-6.32-12.8-13.78-12.8s-13.34 5.05-13.34 12.8v.18c0 7.65 6 12.89 13.34 12.89s13.78-5.26 13.78-12.91zm-53.26 16.21a5.74 5.74 0 11-5.74-5.74 5.73 5.73 0 015.74 5.74z"/></svg>