<svg xmlns="http://www.w3.org/2000/svg" viewBox="0 0 219.8 54.5"><path fill="#fff" d="M59 13h5.3l8.3 20.6L80.8 13H86L74.7 40h-4.3L59 13zm48.4 14.6c0-5.3-3.8-9.6-9-9.6-5.3 0-9 4.2-9 9.5v.1c0 5.2 3.8 9.5 9 9.5s9-4.3 9-9.5m-22.8 0c0-7.7 5.8-14 13.9-14s13.9 6.3 13.9 13.8v.1c0 7.6-5.8 13.9-13.9 13.9s-13.9-6.3-13.9-13.8m31.6 13.3h4.7V14h-4.7v26.9zm8.5-13.3c0-7.7 5.7-14 13.7-14 4.9 0 7.9 1.7 10.4 4.2l-3 3.5c-2.2-2-4.4-3.3-7.5-3.3-5 0-8.7 4.2-8.7 9.5v.1c0 5.3 3.7 9.5 8.8 9.5 3.3 0 5.4-1.3 7.6-3.5l3 3.1c-2.8 2.9-5.8 4.8-10.8 4.8-7.8-.1-13.5-6.2-13.5-13.9M153.3 14H173v4.2h-15v7h13.3v4.3H158v7.2h15.2v4.2h-19.9V14zm61.9 27h4.6V14.1h-4.6V41zm-8-9.3c0-3.3-2.6-5.4-5.7-5.4s-5.5 2.1-5.5 5.4v.1c0 3.2 2.5 5.4 5.5 5.4 3.1-.1 5.7-2.3 5.7-5.5m-14.7 14.5l1.7-3.4c2.1 1.3 4.3 2 6.9 2 4 0 6.1-2 6.1-6v-1.5c-1.6 2.1-3.6 3.6-6.8 3.6-4.6 0-8.8-3.4-8.8-9.2v-.1c0-5.8 4.3-9.2 8.8-9.2 3.3 0 5.3 1.5 6.8 3.3v-2.9h4.4v15.6c0 3.3-.8 5.8-2.5 7.4-1.8 1.8-4.5 2.6-8 2.6-3.2.1-6.1-.7-8.6-2.2"/><path class="icon" fill="#be5fd9" d="M48.7.1L28.5 39.2 8.2.1H0l24.4 47 4.1 7.9 4.1-7.9L57 .1h-8.3z"/><path class="icon" fill="#be5fd9" d="M34.3.1l-5.9 11.3L22.6.1h-8.2l10 19.2 4.1 7.9 4.1-7.9L42.6.1h-8.3zm150.9 38.4c0 1.3-1.1 2.4-2.4 2.4-1.3 0-2.4-1.1-2.4-2.4 0-1.3 1.1-2.4 2.4-2.4 1.3 0 2.4 1.1 2.4 2.4"/></svg>