<?xml version="1.0" standalone="no"?>
<!DOCTYPE svg PUBLIC "-//W3C//DTD SVG 20010904//EN"
        "http://www.w3.org/TR/2001/REC-SVG-20010904/DTD/svg10.dtd">
<svg version="1.0" xmlns="http://www.w3.org/2000/svg"
     width="1420.000000pt" height="1420.000000pt" viewBox="0 0 1420.000000 1420.000000"
     preserveAspectRatio="xMidYMid meet">
    <metadata>
        Created by potrace 1.11, written by Peter Selinger 2001-2013
    </metadata>
    <g transform="translate(0.000000,1420.000000) scale(0.100000,-0.100000)"
       fill="#000000" stroke="none">
        <path d="M6867 14193 c-1 -1 -58 -4 -127 -7 -69 -3 -147 -8 -175 -11 -27 -2
-84 -6 -125 -9 -41 -4 -84 -8 -95 -10 -11 -2 -54 -7 -95 -11 -41 -4 -82 -9
-90 -10 -8 -1 -39 -6 -67 -10 l-53 -7 0 -3509 0 -3509 1050 0 1050 0 1 23 c0
12 1 1078 1 2368 l1 2347 56 -14 c32 -7 93 -23 137 -34 43 -12 86 -23 94 -25
8 -2 58 -17 110 -33 370 -116 736 -281 1070 -482 107 -65 348 -227 410 -277 8
-6 53 -42 100 -79 230 -183 469 -412 640 -614 30 -36 57 -67 60 -70 19 -17
140 -172 208 -267 117 -161 228 -335 324 -508 41 -73 198 -393 198 -403 0 -5
11 -32 25 -60 14 -29 25 -55 25 -58 0 -3 7 -20 15 -37 43 -94 162 -468 200
-627 28 -117 62 -296 81 -420 26 -176 31 -225 40 -345 3 -49 7 -103 9 -120 6
-44 6 -415 0 -524 -6 -127 -19 -268 -30 -341 -2 -14 -7 -50 -10 -80 -11 -97
-56 -330 -100 -512 -47 -197 -164 -540 -257 -753 -101 -232 -291 -577 -415
-756 -32 -46 -70 -102 -85 -124 -33 -48 -179 -236 -226 -291 -279 -325 -518
-550 -838 -788 -71 -53 -134 -101 -141 -106 -7 -6 -14 -10 -17 -10 -2 0 -44
-26 -92 -59 -245 -161 -572 -329 -864 -444 -291 -114 -670 -221 -935 -263 -20
-3 -46 -7 -55 -9 -10 -2 -40 -6 -67 -10 -26 -4 -58 -8 -71 -10 -13 -2 -53 -7
-90 -10 -37 -4 -78 -8 -92 -11 -142 -24 -791 -24 -940 1 -14 2 -52 6 -85 10
-82 9 -126 15 -155 20 -14 3 -54 10 -90 15 -131 20 -278 52 -445 97 -194 53
-210 58 -340 103 -966 336 -1814 980 -2395 1820 -44 63 -83 120 -87 126 -5 5
-14 21 -22 35 -8 13 -35 58 -61 99 -220 358 -416 816 -528 1235 -46 170 -94
390 -108 495 -1 14 -10 75 -18 135 -32 240 -40 359 -40 635 0 204 7 379 19
485 2 17 7 55 10 85 3 30 8 66 10 80 2 14 6 45 9 70 3 25 8 56 11 70 3 14 10
52 16 85 5 33 12 69 14 80 2 11 13 63 25 115 12 52 23 102 25 110 12 56 83
296 119 400 86 247 213 535 334 755 199 362 501 774 757 1030 16 17 38 40 48
51 17 21 10 29 -582 620 -330 329 -687 686 -794 793 l-194 193 -95 -98 c-53
-55 -106 -111 -119 -125 -80 -89 -145 -163 -199 -229 -34 -41 -72 -86 -84
-100 -29 -34 -186 -237 -212 -275 -245 -351 -320 -469 -461 -719 -200 -355
-383 -760 -508 -1126 -79 -230 -167 -528 -200 -675 -8 -38 -17 -77 -19 -85 -7
-24 -65 -312 -72 -354 -3 -21 -7 -46 -9 -55 -1 -9 -8 -52 -15 -96 -6 -44 -13
-90 -15 -101 -2 -12 -6 -48 -10 -80 -4 -33 -9 -70 -11 -84 -2 -14 -6 -59 -10
-100 -3 -41 -7 -86 -10 -100 -26 -169 -26 -986 1 -1230 2 -25 7 -70 10 -100 7
-80 24 -226 30 -260 2 -8 6 -35 9 -60 7 -49 52 -310 60 -350 3 -14 10 -47 16
-75 5 -27 14 -70 19 -95 21 -100 89 -359 140 -525 66 -221 197 -573 282 -760
12 -27 23 -52 23 -55 6 -27 212 -437 279 -555 22 -38 53 -95 70 -125 17 -30
34 -57 39 -58 4 -2 8 -8 8 -13 0 -22 284 -452 372 -564 5 -5 25 -32 45 -60 21
-27 43 -57 50 -65 7 -8 34 -43 62 -78 175 -222 304 -365 536 -597 177 -177
287 -281 410 -385 28 -23 61 -52 75 -64 14 -11 77 -62 140 -112 474 -373 1022
-703 1545 -929 61 -26 128 -55 150 -65 135 -59 453 -171 655 -231 159 -48 420
-117 470 -125 19 -3 49 -9 65 -14 17 -5 50 -12 75 -16 25 -4 47 -8 50 -9 3 0
23 -5 45 -9 22 -5 49 -10 60 -11 11 -2 34 -6 50 -9 143 -25 264 -44 340 -52
33 -3 71 -8 85 -10 14 -2 52 -6 85 -9 33 -3 77 -8 99 -10 233 -27 1007 -27
1241 0 17 2 62 6 100 10 39 3 88 9 110 11 22 3 54 7 70 9 17 2 53 6 80 10 28
3 91 13 140 21 50 8 104 17 120 20 152 25 503 105 676 154 41 12 79 23 84 24
78 21 384 120 420 136 11 5 67 27 125 48 335 125 794 348 1095 533 17 10 44
26 60 35 17 9 100 63 185 118 351 231 669 481 974 766 93 87 362 362 421 430
27 30 51 57 54 60 14 11 171 201 244 295 43 55 83 107 90 115 208 263 484 706
678 1090 104 206 279 603 279 634 0 6 4 16 9 22 26 28 225 656 256 808 3 10
13 55 24 100 11 44 22 92 25 106 2 14 14 70 25 125 11 55 23 114 25 130 3 17
12 71 20 120 19 114 28 176 41 295 4 30 8 65 10 77 2 12 6 61 10 110 3 48 8
104 10 123 24 212 24 882 0 1080 -2 19 -7 71 -10 115 -3 44 -7 87 -10 95 -2 8
-7 51 -10 95 -4 44 -8 82 -10 85 -1 3 -6 30 -9 60 -4 30 -8 66 -11 80 -2 14
-13 80 -25 148 -19 112 -32 177 -75 377 -68 318 -250 880 -375 1160 -9 22 -37
85 -61 140 -105 242 -340 678 -478 890 -25 39 -48 75 -51 80 -6 13 -108 162
-163 240 -458 646 -1021 1208 -1689 1688 -60 42 -113 77 -117 77 -5 0 -11 3
-13 8 -7 15 -233 159 -438 277 -247 142 -627 329 -835 410 -39 15 -85 33 -102
41 -114 51 -584 206 -758 250 -98 24 -346 84 -365 88 -14 2 -74 13 -135 25
-176 33 -268 48 -346 57 -30 3 -57 7 -60 9 -3 2 -38 7 -77 10 -40 3 -82 8 -93
10 -11 2 -59 7 -107 10 -48 4 -100 8 -116 10 -95 12 -760 28 -769 18z"/>
    </g>
</svg>
