<svg width="293" height="152" xmlns="http://www.w3.org/2000/svg"><g fill="#828282" fill-rule="evenodd"><path d="M187.15 124.047h-8.811v4.024h7.808v2.424h-7.808v4.161h8.928v2.425h-11.67v-15.459h11.552zm10.57 13.034h-2.763v-6.099l-6.186-9.36h3.2l4.362 6.84 4.406-6.84h3.2l-6.187 9.297zm19.52-13.034h-8.821v4.024h7.818v2.424h-7.818v4.161h8.928v2.425h-11.659v-15.459h11.552zm3.808-2.425h2.741v12.982h8.032v2.477h-10.773zm24.885 2.425h-8.81v4.024h7.808v2.424h-7.808v4.161h8.917v2.425h-11.659v-15.459h11.552zm14.784-2.425h2.966l-6.475 15.554h-2.41l-6.475-15.554h3.029l4.715 11.88zm16.96 2.425h-8.81v4.024h7.808v2.424h-7.808v4.161h8.928v2.425h-11.67v-15.459h11.552zm3.713-2.425h2.73v12.982h8.032v2.477h-10.763zM175.629 116h116.533v1.948H175.629zm0 24.671h116.533v1.948H175.629zm4.011 10.27h-.693l-.63-1.387h-2.026l-.598 1.387H175l2.037-4.743h.48l2.123 4.743zm-1.6-2.001l-.768-1.705-.715 1.705h1.483zm7.104 2.001h-.544l-3.2-3.59v3.59h-.64v-4.67h.555l3.2 3.654v-3.653h.64zm4.789 0h-.682v-4.67h.682zm6.006 0h-.576l-3.2-3.632v3.632h-.64v-4.67h.544l3.2 3.611v-3.61h.64zm6.005 0h-.587l-3.2-3.632v3.632h-.64v-4.67h.555l3.2 3.654v-3.653h.65zm4.266-4.076h-2.005v1.44h1.942v.603h-1.942v1.461h2.07v.572h-2.752v-4.67h2.688zm2.71-.593a2.04 2.04 0 01.81.148c.469.197.766.66.747 1.165.02.515-.3.982-.789 1.154.445.354.809.798 1.067 1.302.202.328.32.487.65.943h-.81c-.16-.233-.822-1.26-.971-1.462-.47-.593-.704-.593-1.067-.593h-.181v2.012h-.683v-4.67h1.227zm-.512.572v1.482h.267c.218.006.437-.015.65-.064a.71.71 0 00.459-.677.687.687 0 00-.363-.636 1.858 1.858 0 00-.81-.105h-.203zm8.352 4.161h-.16l-1.547-3.844-1.568 3.844h-.085l-1.92-4.733h.683l1.237 3.24 1.312-3.24h.65l1.323 3.24 1.302-3.24h.746zm7.627-2.393a2.427 2.427 0 01-.767 1.772 2.463 2.463 0 01-1.825.663 2.432 2.432 0 01-2.292-2.514 2.435 2.435 0 012.48-2.33 2.434 2.434 0 012.404 2.409zm-4.395 0c-.003.48.192.942.54 1.276.35.335.821.512 1.305.492a1.949 1.949 0 001.387-.561c.292-.35.457-.785.47-1.239a1.85 1.85 0 00-1.851-1.703 1.85 1.85 0 00-1.851 1.703v.032zm7.008-2.34a2.04 2.04 0 01.81.148c.469.197.766.66.747 1.165.02.515-.3.982-.789 1.154.445.354.809.798 1.067 1.302.202.328.32.487.64.943h-.8c-.16-.233-.822-1.26-.982-1.462-.458-.593-.693-.593-1.066-.593h-.182v2.012h-.672v-4.67H227zm-.523.572v1.482h.267a2.61 2.61 0 00.661-.064.72.72 0 00.459-.677.687.687 0 00-.363-.636 1.89 1.89 0 00-.81-.105h-.214zm5.547 1.651l2.57 2.446h-.927l-2.422-2.33v2.33h-.693v-4.67h.693v2.118l1.995-2.117h.853zm4.341 2.446h-.682v-4.67h.682zm6.038 0h-.587l-3.2-3.632v3.632h-.64v-4.67h.555l3.2 3.654v-3.653h.65zm5.738-.286a4.196 4.196 0 01-1.738.392 2.41 2.41 0 01-1.823-.627 2.374 2.374 0 01-.77-1.755 2.437 2.437 0 01.752-1.771 2.474 2.474 0 011.809-.686 3.938 3.938 0 011.674.403v.688a3.346 3.346 0 00-1.685-.498 1.848 1.848 0 00-1.68.923 1.82 1.82 0 00.056 1.905 1.85 1.85 0 001.73.825 2.952 2.952 0 001.067-.212v-.984h-.906v-.593h1.589l-.075 1.99zm3.809-3.356a1.584 1.584 0 00-1.067-.487c-.47 0-.758.254-.758.55 0 .297.278.562 1.184 1.06.236.134.446.31.619.518.168.227.258.502.256.784.02.377-.132.744-.412 1-.28.255-.661.374-1.039.323a2.143 2.143 0 01-1.28-.445v-.847c.299.411.77.665 1.28.689a.686.686 0 00.506-.157.676.676 0 00.241-.468c0-.392-.405-.688-.63-.815a3.626 3.626 0 01-1.173-.848 1.054 1.054 0 01-.245-.698c.001-.356.154-.694.42-.932.266-.238.621-.354.977-.318.38.008.75.122 1.067.328l.053.763zm8.031.021a3.357 3.357 0 00-1.642-.476 1.81 1.81 0 00-1.327.5 1.78 1.78 0 00-.55 1.3 1.74 1.74 0 00.548 1.292c.356.336.838.508 1.329.476a3.13 3.13 0 001.685-.53v.73a3.53 3.53 0 01-1.717.424 2.421 2.421 0 01-1.81-.653 2.384 2.384 0 01-.75-1.76 2.448 2.448 0 01.77-1.751 2.485 2.485 0 011.8-.674 4.4 4.4 0 011.664.38v.742zm6.347 1.292a2.427 2.427 0 01-.77 1.776c-.493.462-1.157.7-1.833.66a2.448 2.448 0 01-2.249-1.162 2.41 2.41 0 010-2.517 2.448 2.448 0 012.25-1.16 2.454 2.454 0 011.823.643c.493.455.775 1.092.779 1.76zm-4.405 0c-.004.48.192.942.54 1.276.35.335.82.512 1.305.492a1.93 1.93 0 001.387-.561 1.95 1.95 0 00.512-1.207 1.85 1.85 0 00-1.851-1.703 1.85 1.85 0 00-1.85 1.703h-.043zm10.207 2.329h-.682v-3.632l-1.461 1.822h-.118l-1.482-1.822v3.632h-.683v-4.67h.64l1.59 1.928 1.578-1.927h.63zm2.785-4.669a1.747 1.747 0 011.418.434c.244.253.375.593.363.942.016.36-.129.708-.395.953-.398.31-.906.448-1.408.381h-.501v1.96h-.683v-4.67h1.206zm-.544.593v1.471h.544c.256.026.514-.018.746-.127a.761.761 0 00.107-1.143c-.213-.201-.395-.201-.885-.201h-.512zm7.093 4.076h-.693l-.64-1.387h-2.016l-.598 1.387h-.693l2.037-4.743h.48l2.123 4.743zm-1.61-1.959l-.769-1.704-.704 1.704h1.472zm7.146 1.959h-.576l-3.2-3.632v3.632h-.64v-4.67h.544l3.2 3.654v-3.653h.64zm3.477-2.456v2.456h-.693v-2.456l-1.717-2.213h.821l1.28 1.62 1.29-1.62h.822z" fill-rule="nonzero"/><path d="M98.192 139.895a13.34 13.34 0 01-4.5 5.503c-2.273 1.637-3.891-.872-2.38-3.812a9.675 9.675 0 013.794-4.2c2.379-1.475 4.168.054 3.086 2.51m-44.666-.227a13.265 13.265 0 01-4.49 5.514c-2.273 1.637-3.901-.872-2.38-3.823a9.675 9.675 0 013.783-4.19c2.38-1.475 4.169 0 3.087 2.5m58.865 3.876c-.289-.388-.718-.98-1.071-1.454-.215-.28-.536-.387-.868 0a36.187 36.187 0 01-3.097 2.8c-.333.205-1.769.69-1.072-.84.579-1.357 2.626-6.461 3.708-8.927.407-.937-.343-1.487-1.865-1.26a16.29 16.29 0 01-5.572 0 1.433 1.433 0 00-1.576.646c-.19.372-.405.732-.643 1.077 0 0-4.554-4.416-12.399-.28a11.292 11.292 0 00-6.087 7.161 19.909 19.909 0 01-3.825 2.219c-.976.387-1.511.334-.911-1.196.6-1.529 2.915-6.741 2.915-6.741a12.49 12.49 0 002.39-.237 5.012 5.012 0 001.66-.668c.483-.344.643-.495.311-1.163s-.44-.915-.621-1.238c-.183-.323-.343-.485-.793-.27-.406.21-.845.349-1.297.41-.418 0-.579 0-.29-.722.13-.345 1.426-3.478 1.747-4.372a1.47 1.47 0 00-.176-1.198 1.457 1.457 0 00-1.013-.655 2.472 2.472 0 00-2.326 1.207c-1.886 2.843-3.408 3.101-4.222 3.23-.814.13-3.065-.215-4.04 2.563l-2.4.054c-.419 0-.504.097-.622.474s-.461 1.432-.6 1.906c-.14.474.064.603.278.603h2.294s-1.372 3.037-2.508 5.611a24.129 24.129 0 01-5.455 3.23c-.482.216-1.618.378-.964-1.14.654-1.52 2.775-6.925 3.868-9.424.408-.937-.353-1.486-1.875-1.27a16 16 0 01-5.573 0 1.422 1.422 0 00-1.575.656 10.17 10.17 0 01-.643 1.077s-4.544-4.415-12.399-.269c-4.094 2.154-5.626 5.126-6.151 7.463a16.157 16.157 0 01-3.011 1.853v-.076c.171-.603 1.575-6.71-3.408-8.238a10.012 10.012 0 003.032-1.196c2.433-1.96 2.272-3.92 1.897-5.18-.471-1.658-2.861-3.403-6-4.167-8.338-1.853-13.986 1.626-16.504 3.004a47.524 47.524 0 00-6.88 4.986.183.183 0 000 .27c-.065-.108 1.64 1.615 1.736 1.701.096.086.15.119.268 0a44.227 44.227 0 014.136-3.037l-4.95 11.556c-1.737 3.93-4.062 1.97-4.062 1.97a7.861 7.861 0 01-1.811-1.744.171.171 0 00-.311 0c0 .064-.997 2.154-1.072 2.304a.314.314 0 000 .345 9.511 9.511 0 004.03 3.102 9.895 9.895 0 0010.02-1.411c1.693-1.508 1.832-2.079 2.979-4.47l5.68-13.364c.76-1.637 2.057-3.23 3.622-2.886 1.393.377 1.232 2.53 1.232 2.53a4.43 4.43 0 01-3.526 4.2 6.826 6.826 0 01-1.5.108.3.3 0 00-.322.216 146.49 146.49 0 00-.696 1.755.346.346 0 00.3.474h.782a2.369 2.369 0 012.283 1.594 5.809 5.809 0 01-.407 3.769c-.74 2.1-1.48 3.037-2.39 3.597-1.211.743-2.476.743-4.083-.603-.14-.14-.268 0-.268 0s-.836 1.96-.89 2.1c-.053.14-.117.269 0 .387a9.148 9.148 0 007.288 2.768c1.731.04 3.454-.264 5.069-.894a32.902 32.902 0 007.501-3.801v.28a5.556 5.556 0 005.744 4.415c3.676 0 6.13-1.895 8.177-3.812.696 3.435 3.13 3.812 4.05 3.812a14.203 14.203 0 004.223-.872 43.25 43.25 0 007.159-3.339c-.204 1.217-.15 2.897 1.34 3.64a7.66 7.66 0 006.172-.107 34.335 34.335 0 006.558-3.317l1.297-.862c.014.21.043.419.086.625a5.513 5.513 0 005.733 4.415c3.687 0 6.14-1.884 8.177-3.812.707 3.435 3.14 3.812 4.061 3.812a13.232 13.232 0 004.223-.872 33.04 33.04 0 008.573-5.794c.3-.312.375-.42.086-.797"/><path d="M91.411 56.017c-3.965 0-6.305-1.965-6.444-4.855h3.718c0 .885.565 2.192 2.974 2.241 1.596 0 2.36-.983 2.36-1.631-.1-1.12-1.518-1.219-2.975-1.455a13.655 13.655 0 01-3.717-.983 3.817 3.817 0 01-1.983-3.41c0-2.525 2.22-4.53 5.948-4.53 3.727 0 5.72 1.847 5.978 4.629h-3.6c-.05-.737-.188-1.917-2.31-1.917-1.407 0-2.349.285-2.448 1.268 0 1.445 2.974 1.356 5.274 1.965 2.3.61 3.628 1.966 3.628 3.833 0 3.499-2.875 4.855-6.404 4.855v-.01zM23.04 32.588l12.382-7.056 6.543 11.204H25.44l-2.4-4.148zm27.737 23.105h-3.529V41.54h3.53v14.152z" fill-rule="nonzero"/><path d="M17.39 48.686c.108 2.177 1.92 3.888 4.12 3.888 2.198 0 4.01-1.71 4.118-3.888-.043-2.243-1.88-4.043-4.144-4.059-2.245.037-4.057 1.833-4.094 4.059zm3.965 7.331c-4.057-.048-7.328-3.308-7.355-7.331a7.27 7.27 0 012.175-5.161 7.398 7.398 0 015.22-2.121 7.441 7.441 0 014.233 1.258v-1.12h3.49v14.15h-3.49v-.982a7.46 7.46 0 01-4.233 1.307h-.04z"/><path fill-rule="nonzero" d="M68.948 36.736L51.719 7.096 64.101 0l21.432 36.736H68.948z"/><path d="M33.727 48.686a4.088 4.088 0 002.52 3.796 4.15 4.15 0 004.502-.859 4.063 4.063 0 00.92-4.452 4.124 4.124 0 00-3.798-2.544c-2.263.016-4.101 1.816-4.144 4.059zm4.064 7.331a7.39 7.39 0 01-6.612-3.574 7.258 7.258 0 010-7.466 7.39 7.39 0 016.612-3.573 7.261 7.261 0 014.184 1.258v-5.897h3.529v18.928h-3.54v-.983a7.49 7.49 0 01-4.173 1.307z"/><path fill-rule="nonzero" d="M37.494 19.98l12.43-7.047 13.899 23.803H50.777v3.508h-3.529v-3.508l-9.754-16.757z"/><path d="M71.922 48.686c.038 2.218 1.856 4 4.094 4.01 2.227-.017 4.028-1.802 4.045-4.01-.01-2.218-1.808-4.022-4.045-4.059-2.246.037-4.057 1.833-4.094 4.059zm3.965 7.331c-4.061-.043-7.338-3.305-7.365-7.331a7.27 7.27 0 012.175-5.161 7.398 7.398 0 015.22-2.121 7.171 7.171 0 014.183 1.258v-1.12h3.54v14.15h-3.58v-.982a7.3 7.3 0 01-4.183 1.307h.01zm-20.252-7.331c0 2.241 1.833 4.059 4.094 4.059s4.094-1.818 4.094-4.06c0-2.24-1.833-4.058-4.094-4.058s-4.094 1.817-4.094 4.059zm8.188-11.95h3.49v18.957h-3.5v-.983a7.447 7.447 0 01-8.692-.088 7.295 7.295 0 01-2.603-8.222c1.02-3.01 3.879-5.027 7.082-4.996a7.301 7.301 0 014.233 1.258v-5.897l-.01-.03zM190.292 9.17c-7.652 9.262-14.998 20.738-15.072 29.316a10.337 10.337 0 003.38 8.193 16.118 16.118 0 0011.046 4.165c5.54 0 11.044-2.3 15.352-4.066 7.25-2.983 87.382-38.826 87.382-38.826.768-.398.622-.895-.342-.647l-87.235 24.343a18.845 18.845 0 01-5.065.746c-6.675 0-12.619-3.73-12.57-11.823a27.175 27.175 0 013.124-11.4"/></g></svg>