<svg version="1.1" id="Vrstva_1" xmlns="http://www.w3.org/2000/svg" x="0" y="0" viewBox="0 0 841 57" xml:space="preserve"><style>.st0{fill:#828282}</style><g id="Page-1"><g id="Group-4" transform="translate(-1)"><g id="logo_BATA" transform="translate(0 29)"><path id="Shape" class="st0" d="M99.2 15.9c-1 2.2-2.5 4.1-4.5 5.5-2.3 1.6-3.9-.9-2.4-3.8.8-1.7 2.1-3.2 3.8-4.2 2.4-1.5 4.2 0 3.1 2.5m-44.7-.2c-1 2.2-2.5 4.1-4.5 5.5-2.3 1.6-3.9-.9-2.4-3.8.8-1.7 2.1-3.2 3.8-4.2 2.4-1.5 4.2 0 3.1 2.5m58.9 3.8c-.3-.4-.7-1-1.1-1.5-.2-.3-.5-.4-.9 0-1 1-2 1.9-3.1 2.8-.3.2-1.8.7-1.1-.8.6-1.4 2.6-6.5 3.7-8.9.4-.9-.3-1.5-1.9-1.3-1.8.3-3.7.3-5.6 0-.6-.2-1.2.1-1.6.6-.2.4-.4.7-.6 1.1 0 0-4.6-4.4-12.4-.3-3 1.4-5.2 4-6.1 7.2-1.2.9-2.5 1.6-3.8 2.2-1 .4-1.5.3-.9-1.2s2.9-6.7 2.9-6.7c.8 0 1.6-.1 2.4-.2.6-.1 1.2-.3 1.7-.7.5-.3.6-.5.3-1.2s-.4-.9-.6-1.2-.3-.4-.7-.2c-.4.2-.8.3-1.3.4-.4 0-.6 0-.3-.7.1-.3 1.4-3.5 1.7-4.4.1-.4.1-.8-.2-1.2s-.6-.6-1-.7c-.9 0-1.8.4-2.3 1.2-1.9 2.8-3.4 3.1-4.2 3.2-.8.1-3.1-.2-4 2.6l-2.4.1c-.4 0-.5.1-.6.5-.1.4-.5 1.4-.6 1.9s.1.6.3.6h2.3s-1.4 3-2.5 5.6c-1.7 1.3-3.5 2.4-5.5 3.2-.5.2-1.6.4-1-1.1.7-1.5 2.8-6.9 3.9-9.4.4-.9-.4-1.5-1.9-1.3-1.8.3-3.7.3-5.6 0-.6-.2-1.3.1-1.6.7-.2.4-.4.7-.6 1.1 0 0-4.5-4.4-12.4-.3-4.1 2.2-5.6 5.1-6.2 7.5-.9.7-1.9 1.3-3 1.9v-.1c.2-.6 1.6-6.7-3.4-8.2 1.1-.2 2.1-.6 3-1.2 2.4-2 2.3-3.9 1.9-5.2-.5-1.7-2.9-3.4-6-4.2-8.3-1.9-14 1.6-16.5 3-2.4 1.5-4.7 3.1-6.9 5l-.1.1c0 .1 0 .1.1.1l1.7 1.7c.1.1.2.1.3 0 1.3-1.1 2.7-2.1 4.1-3l-5 11.6c-1.7 3.9-4.1 2-4.1 2-.5-.6-1.1-1.2-1.6-1.9 0-.1-.1-.1-.2-.1s-.1 0-.2.1c0 .1-1 2.2-1.1 2.3 0 .1 0 .3.1.4 1 1.4 2.4 2.5 4 3.1 3.3 1.4 7.2.9 10-1.4 1.7-1.5 1.8-2.1 3-4.5l5.7-13.4c.8-1.6 2.1-3.2 3.6-2.9 1.4.4 1.2 2.5 1.2 2.5-.1 2.1-1.5 3.8-3.5 4.2-.5.1-1 .1-1.5.1-.1 0-.3.1-.3.2-.1.2-.6 1.6-.7 1.8v.3c.1.1.2.2.3.2h.8c1 0 1.9.6 2.3 1.6.3 1.3.1 2.6-.4 3.8-.7 2.1-1.5 3-2.4 3.6-1.2.7-2.5.7-4.1-.6-.1-.1-.3 0-.3 0s-.8 2-.9 2.1c-.1.1-.1.3 0 .4 1.9 2 4.6 3 7.3 2.8 1.7 0 3.5-.3 5.1-.9 2.7-.9 5.2-2.2 7.5-3.8v.3c.6 2.7 3 4.6 5.7 4.4 3.7 0 6.1-1.9 8.2-3.8.7 3.4 3.1 3.8 4.1 3.8 1.4-.1 2.9-.4 4.2-.9 2.5-.9 4.9-2 7.2-3.3-.2 1.2-.2 2.9 1.3 3.6 2 .8 4.2.8 6.2-.1 2.3-.9 4.5-2 6.6-3.3l1.3-.9c0 .2 0 .4.1.6.6 2.7 3 4.6 5.7 4.4 3.7 0 6.1-1.9 8.2-3.8.7 3.4 3.1 3.8 4.1 3.8 1.4-.1 2.9-.4 4.2-.9 3.1-1.5 6-3.4 8.6-5.8.2-.3.2-.4-.1-.8"/></g><g id="logo_ADIDAS" transform="translate(369)"><path id="Shape_1_" class="st0" d="M216.4 56c-4 0-6.3-2-6.4-4.9h3.7c0 .9.6 2.2 3 2.2 1.6 0 2.4-1 2.4-1.6-.1-1.1-1.5-1.2-3-1.5-1.3-.2-2.5-.5-3.7-1-1.2-.7-2-2-2-3.4 0-2.5 2.2-4.5 5.9-4.5s5.7 1.8 6 4.6h-3.6c0-.7-.2-1.9-2.3-1.9-1.4 0-2.3.3-2.4 1.3 0 1.4 3 1.4 5.3 2 2.3.6 3.6 2 3.6 3.8-.1 3.6-3 4.9-6.5 4.9z"/><path id="Shape_2_" class="st0" d="M148 32.6l12.4-7.1 6.6 11.2h-16.6z"/><path id="Shape_3_" class="st0" d="M175.8 55.7h-3.6V41.5h3.6z"/><path id="Shape_4_" class="st0" d="M142.4 48.7c.1 2.2 1.9 3.9 4.1 3.9 2.2 0 4-1.7 4.1-3.9 0-2.2-1.9-4-4.1-4.1-2.3.1-4.1 1.9-4.1 4.1zm4 7.3c-4.1 0-7.3-3.3-7.4-7.3 0-1.9.8-3.8 2.2-5.2 1.4-1.4 3.3-2.1 5.2-2.1 1.5 0 3 .4 4.2 1.3v-1.1h3.5v14.2h-3.5v-1c-1.2.8-2.7 1.2-4.2 1.2z"/><path id="Shape_5_" class="st0" d="M193.9 36.7L176.7 7.1 189.1 0l21.4 36.7z"/><path id="Shape_6_" class="st0" d="M158.7 48.7c0 1.7 1 3.2 2.5 3.8 1.5.6 3.3.3 4.5-.9 1.2-1.2 1.6-2.9.9-4.5-.6-1.5-2.1-2.5-3.8-2.5-2.2 0-4 1.8-4.1 4.1zm4.1 7.3c-2.7.1-5.2-1.3-6.6-3.6-1.4-2.3-1.4-5.2 0-7.5s3.9-3.7 6.6-3.6c1.5 0 3 .4 4.2 1.3v-5.9h3.5v18.9H167v-1c-1.3 1-2.7 1.4-4.2 1.4z"/><path id="Shape_7_" class="st0" d="M162.5 20l12.4-7.1 13.9 23.8h-13v3.5h-3.6v-3.5z"/><path id="Shape_8_" class="st0" d="M196.9 48.7c0 2.2 1.9 4 4.1 4 2.2 0 4-1.8 4-4s-1.8-4-4-4.1c-2.2.1-4 1.9-4.1 4.1zm4 7.3c-4.1 0-7.3-3.3-7.4-7.3 0-1.9.8-3.8 2.2-5.2 1.4-1.4 3.3-2.1 5.2-2.1 1.5 0 3 .4 4.2 1.3v-1.1h3.5v14.2H205v-1c-1.2.8-2.6 1.2-4.1 1.2z"/><path id="Shape_9_" class="st0" d="M180.6 48.7c0 2.2 1.8 4.1 4.1 4.1s4.1-1.8 4.1-4.1c0-2.2-1.8-4.1-4.1-4.1-2.2 0-4.1 1.8-4.1 4.1zm8.2-12h3.5v19h-3.5v-1c-2.6 1.8-6.1 1.8-8.7-.1-2.6-1.9-3.6-5.2-2.6-8.2 1-3 3.9-5 7.1-5 1.5 0 3 .4 4.2 1.3v-6z"/></g><g id="logo_EYELEVEL" transform="translate(532.519 21)"><path id="Shape_10_" class="st0" d="M202.1 8h-8.8v4.1h7.8v2.4h-7.8v4.2h9v2.4h-11.7V5.6h11.5z"/><path id="Shape_11_" class="st0" d="M212.7 21.1H210V15l-6.2-9.4h3.2l4.3 6.9 4.4-6.9h3.2l-6.1 9.3z"/><path id="Shape_12_" class="st0" d="M232.2 8h-8.8v4.1h7.8v2.4h-7.8v4.2h8.9v2.4h-11.6V5.6h11.5z"/><path id="Shape_13_" class="st0" d="M236 5.6h2.8v13h8v2.5H236z"/><path id="Shape_14_" class="st0" d="M260.9 8h-8.8v4.1h7.8v2.4h-7.8v4.2h8.9v2.4h-11.6V5.6h11.5z"/><path id="Shape_15_" class="st0" d="M275.7 5.6h3l-6.5 15.6h-2.4l-6.5-15.6h3.1l4.7 11.9z"/><path id="Shape_16_" class="st0" d="M292.7 8h-8.8v4.1h7.8v2.4h-7.8v4.2h8.9v2.4h-11.7V5.6h11.6z"/><path id="Shape_17_" class="st0" d="M296.4 5.6h2.7v13h8.1v2.5h-10.8z"/><path id="Rectangle-path" class="st0" d="M190.6 0h116.5v1.9H190.6z"/><path id="Rectangle-path_1_" class="st0" d="M190.6 24.7h116.5v1.9H190.6z"/><path id="Shape_18_" class="st0" d="M194.6 34.9h-.7l-.6-1.4h-2l-.6 1.4h-.7l2-4.7h.5l2.1 4.7zm-1.6-2l-.8-1.7-.7 1.7h1.5z"/><path id="Shape_19_" class="st0" d="M200.1 34.9h-.5l-3.2-3.5v3.5h-.6v-4.6h.5l3.2 3.6v-3.6h.7z"/><path id="Shape_20_" class="st0" d="M204.9 34.9h-.6v-4.6h.6z"/><path id="Shape_21_" class="st0" d="M210.9 34.9h-.5l-3.2-3.6v3.6h-.7v-4.6h.6l3.2 3.6v-3.6h.6z"/><path id="Shape_22_" class="st0" d="M216.9 34.9h-.5l-3.2-3.6v3.6h-.7v-4.6h.6l3.2 3.6v-3.6h.6z"/><path id="Shape_23_" class="st0" d="M221.2 30.9h-2v1.4h1.9v.6h-1.9v1.5h2.1v.5h-2.8v-4.6h2.7z"/><path id="Shape_24_" class="st0" d="M223.9 30.3c.3 0 .6 0 .8.1.5.2.8.7.7 1.2 0 .5-.3 1-.8 1.2.4.4.8.8 1.1 1.3.2.3.3.5.7.9h-.8c-.2-.2-.8-1.3-1-1.5-.5-.6-.7-.6-1.1-.6h-.2v2h-.7v-4.7h1.3zm-.5.5v1.5h.3c.2 0 .4 0 .7-.1.3-.1.5-.4.5-.7 0-.3-.1-.5-.4-.6-.3-.1-.5-.1-.8-.1h-.3z"/><path id="Shape_25_" class="st0" d="M231.8 35h-.2l-1.5-3.8-1.6 3.8h-.1l-1.9-4.7h.7l1.2 3.2 1.3-3.2h.7l1.3 3.2 1.3-3.2h.7z"/><path id="Shape_26_" class="st0" d="M239.4 32.6c0 .7-.3 1.3-.8 1.8s-1.2.7-1.8.7c-1.3-.1-2.3-1.2-2.3-2.5.1-1.3 1.2-2.4 2.5-2.3 1.3-.1 2.4 1 2.4 2.3zm-4.4 0c0 .5.2.9.5 1.3.3.3.8.5 1.3.5s1-.2 1.4-.6c.3-.3.5-.8.5-1.2-.1-1-.9-1.7-1.9-1.7s-1.7.7-1.8 1.7z"/><path id="Shape_27_" class="st0" d="M242 30.3c.3 0 .6 0 .8.1.5.2.8.7.7 1.2 0 .5-.3 1-.8 1.2.4.4.8.8 1.1 1.3.2.3.3.5.6.9h-.8c-.2-.2-.8-1.3-1-1.5-.5-.6-.7-.6-1.1-.6h-.2v2h-.7v-4.7h1.4zm-.5.5v1.5h.3c.2 0 .4 0 .7-.1.3-.1.5-.4.5-.7 0-.3-.1-.5-.4-.6-.3-.1-.5-.1-.8-.1h-.3z"/><path id="Shape_28_" class="st0" d="M247 32.5l2.6 2.4h-.9l-2.5-2.3v2.3h-.6v-4.6h.6v2.1l2-2.1h.9z"/><path id="Shape_29_" class="st0" d="M251.4 34.9h-.7v-4.6h.7z"/><path id="Shape_30_" class="st0" d="M257.4 34.9h-.6l-3.2-3.6v3.6h-.6v-4.6h.5l3.2 3.6v-3.6h.7z"/><path id="Shape_31_" class="st0" d="M263.1 34.7c-.5.3-1.1.4-1.7.4-.7.1-1.3-.2-1.8-.6-.5-.5-.8-1.1-.8-1.8s.3-1.3.8-1.8 1.1-.7 1.8-.7c.6 0 1.2.1 1.7.4v.7c-.5-.3-1.1-.5-1.7-.5-.7 0-1.3.3-1.7.9-.3.6-.3 1.3.1 1.9.4.6 1 .9 1.7.8.4 0 .7-.1 1.1-.2v-1h-.9v-.6h1.6l-.2 2.1z"/><path id="Shape_32_" class="st0" d="M266.9 31.3c-.3-.3-.7-.5-1.1-.5-.5 0-.8.3-.8.6s.3.6 1.2 1.1c.2.1.4.3.6.5.2.2.3.5.3.8 0 .4-.1.7-.4 1-.3.3-.7.4-1 .3-.5 0-.9-.2-1.3-.4v-.8c.3.4.8.7 1.3.7.2 0 .4 0 .5-.2s.2-.3.2-.5c0-.4-.4-.7-.6-.8-.4-.2-.8-.5-1.2-.8-.2-.2-.3-.4-.2-.7 0-.4.2-.7.4-.9.3-.2.6-.4 1-.3.4 0 .7.1 1.1.3v.6z"/><path id="Shape_33_" class="st0" d="M275 31.3c-.5-.3-1.1-.5-1.6-.5s-1 .2-1.3.5-.6.8-.6 1.3.2 1 .5 1.3.8.5 1.3.5c.6 0 1.2-.2 1.7-.5v.7c-.5.3-1.1.4-1.7.4-.7 0-1.3-.2-1.8-.7-.5-.5-.8-1.1-.8-1.8s.3-1.3.8-1.8 1.1-.7 1.8-.7c.6 0 1.1.1 1.7.4v.9z"/><path id="Shape_34_" class="st0" d="M281.3 32.6c0 .7-.3 1.3-.8 1.8s-1.2.7-1.8.7c-.9.1-1.8-.4-2.2-1.2s-.5-1.7 0-2.5 1.3-1.2 2.2-1.2c.7 0 1.3.2 1.8.6.5.5.8 1.1.8 1.8zm-4.4 0c0 .5.2.9.5 1.3.3.3.8.5 1.3.5s1-.2 1.4-.6c.3-.3.5-.8.5-1.2-.1-1-.9-1.7-1.9-1.7-.9 0-1.7.8-1.8 1.7z"/><path id="Shape_35_" class="st0" d="M287.1 34.9h-.7v-3.6l-1.4 1.8h-.1l-1.5-1.8v3.6h-.7v-4.6h.6l1.6 1.9 1.6-1.9h.6z"/><path id="Shape_36_" class="st0" d="M289.9 30.3c.5-.1 1 .1 1.4.4.2.3.4.6.4.9 0 .4-.1.7-.4 1-.4.3-.9.4-1.4.4h-.5v2h-.7v-4.7h1.2zm-.5.6v1.5h.5c.3 0 .5 0 .7-.1.2-.1.3-.3.3-.5s-.1-.4-.2-.6c-.2-.2-.4-.2-.9-.2h-.4z"/><path id="Shape_37_" class="st0" d="M296.5 34.9h-.7l-.6-1.4h-2l-.6 1.4h-.7l2-4.7h.5l2.1 4.7zm-1.6-1.9l-.8-1.7-.7 1.7h1.5z"/><path id="Shape_38_" class="st0" d="M302 34.9h-.6l-3.2-3.6v3.6h-.6v-4.6h.5l3.2 3.6v-3.6h.7z"/><path id="Shape_39_" class="st0" d="M305.5 32.5v2.4h-.7v-2.4l-1.7-2.2h.8l1.3 1.6 1.3-1.6h.8z"/></g><g id="logo_NIKE" transform="translate(190 12)"><path id="Shape_40_" class="st0" d="M77.1 2.2c-7.7 9.3-15 20.7-15.1 29.3-.2 3.1 1.1 6.1 3.4 8.2 3 2.7 7 4.2 11 4.2 5.5 0 11-2.3 15.4-4.1C99 36.8 179.2 1 179.2 1c.8-.4.6-.9-.3-.6L91.6 24.6c-1.6.5-3.4.7-5.1.7-6.7 0-12.6-3.7-12.6-11.8.3-3.9 1.3-7.8 3.2-11.3"/></g></g></g></svg>