<svg xmlns="http://www.w3.org/2000/svg" viewBox="0 0 2145.32 454.87"><defs><style>.cls-1{fill:#3c3;}.cls-2{fill:#fff;}</style></defs><title>logo-sendit</title><g id="Vrstva_2" data-name="Vrstva 2"><g id="Layer_1" data-name="Layer 1"><path class="cls-1" d="M388.26,66.61A225.94,225.94,0,0,0,227.44,0h-9.52a9.48,9.48,0,0,0-9.47,9.48v215.4a9.48,9.48,0,0,0,9.48,9.48h19a9.48,9.48,0,0,0,9.48-9.48V38.82A189.58,189.58,0,0,1,417,227.43a189.53,189.53,0,0,1-323.55,134A189.57,189.57,0,0,1,165.7,48.19a9.48,9.48,0,0,0,5.87-12L165.4,18.23a9.48,9.48,0,0,0-12-5.87,227.48,227.48,0,1,0,234.9,54.26"/><path class="cls-2" d="M610,296.77c1.43,0,3.22,1.07,5.37,2.86,18.26,14.32,40.45,25.42,65.51,25.42,33.29,0,54.06-15,54.06-38.31,0-22.2-15-30.79-56.56-41.53C630.73,233,601,216.58,601,173.26c0-46.18,37.23-73,84.49-73,32.58,0,59.43,11.1,81.63,28.28,2.51,2.15,3.58,3.58,3.58,5.37,0,1.43-1.07,3.22-2.51,5.73L757.82,155c-1.79,2.86-3.22,3.94-5.37,3.94-1.43,0-3.58-.72-6.09-2.51-17.18-12.53-37.23-22.55-61.22-22.55-27.57,0-46.54,14.32-46.54,37.23,0,23.63,18.26,32.22,55.13,41.53,53,13.6,78.4,31.86,78.4,71.6,0,45.47-38.31,74.46-92,74.46-34,0-62.65-12.89-84.85-30.79-2.86-2.51-3.94-4.3-3.94-6.09s.72-3.58,2.51-6.09l10.74-15C606.39,298.2,608.18,296.77,610,296.77Z"/><path class="cls-2" d="M827.63,104.16H963c5.73,0,7.88,1.79,7.88,7.88V130.3c0,6.09-2.15,7.88-7.88,7.88H859.85c-3.22,0-4.3,1.07-4.3,3.94v65.51c0,3.22,1.07,4.3,4.3,4.3h90.93c5.73,0,7.88,1.79,7.88,7.88v17.9c0,5.73-2.15,7.88-7.88,7.88H859.85c-3.22,0-4.3,1.07-4.3,3.94v67.31c0,2.86,1.07,3.94,4.3,3.94H963.31c5.73,0,7.88,1.79,7.88,7.88v18.26c0,6.09-2.15,7.88-7.88,7.88H827.63c-5.73,0-7.88-1.79-7.88-7.88V112C819.75,106,821.9,104.16,827.63,104.16Z"/><path class="cls-2" d="M1029.53,100.22c3.94,0,7.52,2.51,14.68,11.1l145.35,171.48V112c0-6.09,2.15-7.88,7.88-7.88h20c5.73,0,7.88,1.79,7.88,7.88V346.89c0,8.23-2.51,11.81-7.16,11.81-3.94,0-7.52-2.51-15-11.1L1057.82,176.12V346.89c0,6.09-2.15,7.88-7.88,7.88h-20c-5.73,0-7.88-1.79-7.88-7.88V112C1022,103.8,1024.52,100.22,1029.53,100.22Z"/><path class="cls-2" d="M1296.24,104.16h74.46c84.13,0,135.32,48.69,135.32,122.44,0,77.69-53.34,128.17-140.34,128.17h-69.45c-5.73,0-7.88-1.79-7.88-7.88V112C1288.36,106,1290.51,104.16,1296.24,104.16ZM1468.8,228c0-54.06-37.23-89.86-101-89.86h-39.38c-3.22,0-4.3,1.07-4.3,3.94V316.82c0,2.86,1.07,3.94,4.3,3.94h37.95C1431.56,320.75,1468.8,285.31,1468.8,228Z"/><path class="cls-2" d="M1575.32,104.16h20c5.73,0,7.88,1.79,7.88,7.88V346.89c0,6.09-2.15,7.88-7.88,7.88h-20c-5.73,0-7.88-1.79-7.88-7.88V112C1567.44,106,1569.59,104.16,1575.32,104.16Z"/><path class="cls-2" d="M1715.29,138.17H1648c-5.73,0-7.88-1.79-7.88-7.88V112c0-6.09,2.15-7.88,7.88-7.88h179c5.73,0,7.88,1.79,7.88,7.88V130.3c0,6.09-2.15,7.88-7.88,7.88h-67.3c-3.22,0-4.3,1.07-4.3,3.94V346.89c0,6.09-2.15,7.88-7.88,7.88h-20c-5.73,0-7.88-1.79-7.88-7.88V142.11C1719.59,139.25,1718.52,138.17,1715.29,138.17Z"/><path class="cls-2" d="M1950.85,394.35c4,0,16,5.66,33.3,5.66,25.64,0,43.62-11.65,44.29-44,0-2-.67-3-2.33-3h-18.65c-61.6,0-95.57-30.3-95.57-80.58,0-48.28,32.63-82.58,95.57-82.58h46.29c5.33,0,7.33,1.67,7.33,7.33V350.73c0,52.28-26.64,78.92-76.59,78.92-14.65,0-30.3-3-39.63-7-3-1.33-4.33-3.33-4.33-6a11.47,11.47,0,0,1,.33-3l4.33-13.65C1946.19,396.35,1947.52,394.35,1950.85,394.35Zm77.59-74.92V223.19c0-2.66-1-4-3.66-4h-17c-37.3,0-62.6,18-62.6,53.28,0,33.63,24.31,50.95,62.6,50.95h17C2027.44,323.42,2028.44,322.43,2028.44,319.43Z"/><path class="cls-2" d="M2120.35,103.32H2138c5.33,0,7.33,1.67,7.33,7.33V345.73c0,5.66-2,7.33-7.33,7.33h-17.65c-5.33,0-7.33-1.67-7.33-7.33V110.64C2113,105,2115,103.32,2120.35,103.32Z"/><path class="cls-1" d="M1843.09,317.86h20c5.73,0,7.88,1.79,7.88,7.88V346.1c0,6.09-2.15,7.88-7.88,7.88h-20c-5.73,0-7.88-1.79-7.88-7.88V325.73C1835.21,319.65,1837.36,317.86,1843.09,317.86Z"/></g></g></svg>