<?xml version="1.0" encoding="UTF-8"?>
<svg width="649px" height="57px" viewBox="0 0 649 57" version="1.1" xmlns="http://www.w3.org/2000/svg"
     xmlns:xlink="http://www.w3.org/1999/xlink">
    <!-- Generator: Sketch 48.2 (47327) - http://www.bohemiancoding.com/sketch -->
    <title>Group 4</title>
    <desc>Created with Sketch.</desc>
    <defs></defs>
    <g id="Page-1" stroke="none" stroke-width="1" fill="none" fill-rule="evenodd">
        <g id="Group-4" transform="translate(-1.000000, 0.000000)" fill="#FFFFFF">
            <g id="logo_BATA" transform="translate(0.000000, 29.000000)">
                <path d="M99.1920249,15.8953846 C98.2152258,18.1054485 96.6595636,20.0074821 94.6910903,21.3984615 C92.41919,23.0353846 90.8009969,20.5261538 92.3120249,17.5861538 C93.1315068,15.8373147 94.4526414,14.3746671 96.1056698,13.3861538 C98.4847352,11.9107692 100.274393,13.44 99.1920249,15.8953846 M54.5256075,15.6692308 C53.5566601,17.8839245 52.0040247,19.7905118 50.0353894,21.1830769 C47.7634891,22.82 46.1345794,20.3107692 47.656324,17.36 C48.4747059,15.6166322 49.7917925,14.158085 51.4392523,13.1707692 C53.8183178,11.6953846 55.6079751,13.1707692 54.5256075,15.6692308 M113.391402,19.5461538 C113.102056,19.1584615 112.673396,18.5661538 112.319751,18.0923077 C112.105421,17.8123077 111.783925,17.7046154 111.451713,18.0923077 C110.473813,19.0847322 109.439736,20.0196196 108.354642,20.8923077 C108.02243,21.0969231 106.586417,21.5815385 107.282991,20.0523077 C107.861682,18.6953846 109.908536,13.5907692 110.990903,11.1246154 C111.398131,10.1876923 110.647975,9.63846154 109.126231,9.86461538 C107.282364,10.1847875 105.397512,10.1847875 103.553645,9.86461538 C102.944419,9.71053193 102.306249,9.97229112 101.978318,10.5107692 C101.787381,10.8833352 101.5726,11.2430645 101.335327,11.5876923 C101.335327,11.5876923 96.78081,7.17230769 88.936324,11.3076923 C85.9675167,12.6917351 83.7454318,15.3060941 82.8493458,18.4692308 C81.659804,19.3488656 80.376663,20.09292 79.0235514,20.6876923 C78.0483489,21.0753846 77.5125234,21.0215385 78.112648,19.4923077 C78.7127726,17.9630769 81.0275389,12.7507692 81.0275389,12.7507692 C81.829838,12.7487456 82.630095,12.6694081 83.4173209,12.5138462 C84.0062859,12.3928966 84.568883,12.1667507 85.0783801,11.8461538 C85.5606231,11.5015385 85.7213707,11.3507692 85.3891589,10.6830769 C85.056947,10.0153846 84.9497819,9.76769231 84.7676012,9.44461538 C84.5854206,9.12153846 84.4246729,8.96 83.9745794,9.17538462 C83.5688434,9.3853785 83.1302378,9.52380003 82.6778816,9.58461538 C82.2599377,9.58461538 82.09919,9.58461538 82.3885358,8.86307692 C82.517134,8.51846154 83.8138318,5.38461538 84.1353271,4.49076923 C84.2510334,4.08473184 84.1866795,3.64826481 83.958782,3.29338904 C83.7308844,2.93851326 83.3616319,2.69978018 82.9457944,2.63846154 C82.0052323,2.56226035 81.1033639,3.03003075 80.6203115,3.84461538 C78.7342056,6.68769231 77.2124611,6.94615385 76.3980062,7.07538462 C75.5835514,7.20461538 73.3330841,6.86 72.3578816,9.63846154 L69.9573832,9.69230769 C69.5394393,9.69230769 69.4537072,9.78923077 69.3358255,10.1661538 C69.2179439,10.5430769 68.8750156,11.5984615 68.7357009,12.0723077 C68.5963863,12.5461538 68.8,12.6753846 69.0143302,12.6753846 L71.3076636,12.6753846 C71.3076636,12.6753846 69.9359502,15.7123077 68.8,18.2861538 C67.1307032,19.5989245 65.2967166,20.6851773 63.345296,21.5169231 C62.863053,21.7323077 61.7271028,21.8938462 62.38081,20.3753846 C63.0345171,18.8569231 65.1563863,13.4507692 66.2494704,10.9523077 C66.6566978,10.0153846 65.8958255,9.46615385 64.374081,9.68153846 C62.5307182,10.0075615 60.6448582,10.0075615 58.8014953,9.68153846 C58.1895639,9.52578438 57.5485768,9.79308074 57.2261682,10.3384615 C57.0342246,10.7104634 56.8194812,11.0701297 56.5831776,11.4153846 C56.5831776,11.4153846 52.0393769,7 44.1841745,11.1461538 C40.0904673,13.3 38.5580062,16.2723077 38.0328972,18.6092308 C37.0993996,19.3352634 36.0896028,19.9564004 35.0215576,20.4615385 L35.0215576,20.3861538 C35.1930218,19.7830769 36.5968847,13.6769231 31.6137072,12.1476923 C32.6826408,11.917779 33.7070434,11.5140049 34.6464798,10.9523077 C37.0791277,8.99230769 36.9183801,7.03230769 36.5433022,5.77230769 C36.0717757,4.11384615 33.6819938,2.36923077 30.5420561,1.60461538 C22.2046106,-0.247692308 16.5570093,3.23076923 14.0386293,4.60923077 C11.6019619,6.06184212 9.29945656,7.73054066 7.15862928,9.59538462 C7.12120859,9.63004636 7.09992122,9.67885749 7.09992122,9.73 C7.09992122,9.78114251 7.12120859,9.82995364 7.15862928,9.86461538 C7.09433022,9.75692308 8.79825545,11.48 8.89470405,11.5661538 C8.99115265,11.6523077 9.0447352,11.6846154 9.16261682,11.5661538 C10.4819109,10.4743594 11.8630862,9.46035022 13.29919,8.52923077 L8.34816199,20.0846154 C6.61208723,24.0153846 4.28660436,22.0553846 4.28660436,22.0553846 C3.59368052,21.5752508 2.98216506,20.9861806 2.47551402,20.3107692 C2.44734762,20.2500907 2.38675247,20.2113033 2.32012461,20.2113033 C2.25349676,20.2113033 2.19290161,20.2500907 2.1647352,20.3107692 C2.1647352,20.3753846 1.16809969,22.4646154 1.09308411,22.6153846 C1.02430945,22.7198609 1.02430945,22.8555237 1.09308411,22.96 C2.13164967,24.3417529 3.52444032,25.4138195 5.12249221,26.0615385 C8.46843192,27.4637636 12.3087945,26.9230552 15.1424299,24.6507692 C16.8356386,23.1430769 16.9749533,22.5723077 18.1216199,20.1815385 L23.8013707,6.81692308 C24.562243,5.18 25.8589408,3.58615385 27.4235514,3.93076923 C28.8166978,4.30769231 28.6559502,6.46153846 28.6559502,6.46153846 C28.588551,8.51240125 27.1305174,10.2492721 25.1302181,10.6615385 C24.6355555,10.752602 24.1324268,10.7887165 23.6299065,10.7692308 C23.4848807,10.752911 23.3491997,10.8438099 23.3084112,10.9846154 C23.2333956,11.1569231 22.6868536,12.5461538 22.611838,12.74 C22.5700686,12.8433389 22.5806522,12.9606027 22.6402413,13.0547034 C22.6998304,13.1488041 22.8010551,13.2081034 22.9119003,13.2138462 L23.6942056,13.2138462 C24.7179334,13.1934091 25.6388033,13.83641 25.9768224,14.8076923 C26.2664151,16.074392 26.1229594,17.4021947 25.569595,18.5769231 C24.8301558,20.6769231 24.0907165,21.6138462 23.1798131,22.1738462 C21.9688474,22.9169231 20.7042991,22.9169231 19.0968224,21.5707692 C18.9575078,21.4307692 18.8289097,21.5707692 18.8289097,21.5707692 C18.8289097,21.5707692 17.9930218,23.5307692 17.9394393,23.6707692 C17.8858567,23.8107692 17.8215576,23.94 17.9394393,24.0584615 C19.8387004,26.0231861 22.509048,27.0373854 25.2266667,26.8261538 C26.9583116,26.8655005 28.6807171,26.5617733 30.2955763,25.9323077 C32.9472088,24.9918428 35.4681978,23.7142898 37.797134,22.1307692 C37.797134,22.3138462 37.797134,22.4107692 37.797134,22.4107692 C38.3643121,25.1059194 40.8042718,26.9814881 43.5411838,26.8261538 C47.216947,26.8261538 49.671028,24.9307692 51.7178816,23.0138462 C52.4144548,26.4492308 54.8471028,26.8261538 55.7687227,26.8261538 C57.2120048,26.7520135 58.6356937,26.4578864 59.991028,25.9538462 C62.473287,25.0620781 64.8694244,23.9446277 67.1496573,22.6153846 C66.9460436,23.8323077 66.9996262,25.5123077 68.4892212,26.2553846 C70.4715453,27.0869326 72.7095251,27.0478876 74.6619315,26.1476923 C76.9595906,25.2803413 79.1582792,24.1683682 81.2204361,22.8307692 L82.517134,21.9692308 C82.5313891,22.1791688 82.5600345,22.3878691 82.602866,22.5938462 C83.1529035,25.2952102 85.597499,27.1778548 88.3361994,27.0092308 C92.0226791,27.0092308 94.4767601,25.1246154 96.5128972,23.1969231 C97.2201869,26.6323077 99.6528349,27.0092308 100.574455,27.0092308 C102.019753,26.9513282 103.445948,26.6566832 104.79676,26.1369231 C107.939071,24.6692286 110.832148,22.7140627 113.369969,20.3430769 C113.670031,20.0307692 113.745047,19.9230769 113.455701,19.5461538"
                      id="Shape"></path>
            </g>
            <g id="logo_ADIDAS" transform="translate(369.000000, 0.000000)">
                <path d="M77.4109565,56.0172414 C73.4457391,56.0172414 71.1062609,54.0517241 70.9674783,51.1624138 L74.6848696,51.1624138 C74.6848696,52.0468966 75.249913,53.3539655 77.6587826,53.4031034 C79.2547826,53.4031034 80.018087,52.4203448 80.018087,51.7717241 C79.9189565,50.6513793 78.5013913,50.5531034 77.0441739,50.3172414 C75.7642296,50.166462 74.5125055,49.8355464 73.3267826,49.3344828 C72.0810679,48.648278 71.3186564,47.3368975 71.3441739,45.9243103 C71.3441739,43.3986207 73.5646957,41.3937931 77.292,41.3937931 C81.0193043,41.3937931 83.0118261,43.2413793 83.2695652,46.0225862 L79.6711304,46.0225862 C79.6215652,45.2855172 79.4827826,44.1062069 77.3613913,44.1062069 C75.9537391,44.1062069 75.012,44.3912069 74.9128696,45.3739655 C74.9128696,46.8186207 77.8867826,46.7301724 80.1866087,47.3394828 C82.4864348,47.9487931 83.8147826,49.305 83.8147826,51.1722414 C83.8147826,54.6708621 80.94,56.027069 77.4109565,56.027069 L77.4109565,56.0172414 Z"
                      id="Shape" fill-rule="nonzero"></path>
                <polygon id="Shape" fill-rule="nonzero"
                         points="9.04069565 32.5882759 21.422087 25.532069 27.9646957 36.7355172 11.4396522 36.7355172 9.04069565 32.5882759"></polygon>
                <polygon id="Shape" fill-rule="nonzero"
                         points="36.7773913 55.692931 33.2483478 55.692931 33.2483478 41.5412069 36.7773913 41.5412069 36.7773913 55.692931"></polygon>
                <path d="M3.39026087,48.6858621 C3.49804108,50.8632397 5.31017608,52.573754 7.50913043,52.573754 C9.70808479,52.573754 11.5202198,50.8632397 11.628,48.6858621 C11.5850568,46.4430129 9.74705293,44.6426501 7.48434783,44.627069 C5.23880305,44.6638729 3.42738488,46.4596754 3.39026087,48.6858621 Z M7.35547826,56.0172414 C3.29800159,55.9691195 0.0267254208,52.7085611 0,48.6858621 C0.0052469032,46.747568 0.787643396,44.8908747 2.17478815,43.5249051 C3.56193291,42.1589356 5.43999054,41.3957875 7.39513043,41.4036207 C8.90243244,41.3854387 10.3793427,41.8243493 11.628,42.6615517 L11.628,41.5412069 L15.1173913,41.5412069 L15.1173913,55.692931 L11.628,55.692931 L11.628,54.7101724 C10.3845194,55.5636256 8.90752679,56.0197066 7.39513043,56.0172414 L7.35547826,56.0172414 Z"
                      id="Shape"></path>
                <polygon id="Shape" fill-rule="nonzero"
                         points="54.948 36.7355172 37.7191304 7.09551724 50.1005217 0 71.5325217 36.7355172 54.948 36.7355172"></polygon>
                <path d="M19.7269565,48.6858621 C19.7149413,50.3402528 20.7098785,51.8387389 22.2474132,52.4819502 C23.7849479,53.1251615 25.5619511,52.7862871 26.7490636,51.6234858 C27.9361761,50.4606845 28.2993556,48.7032056 27.6690997,47.1712959 C27.0388439,45.6393863 25.5394092,44.6350659 23.8706087,44.627069 C21.6079036,44.6426501 19.7698997,46.4430129 19.7269565,48.6858621 Z M23.7913043,56.0172414 C21.0936649,56.1153385 18.5574969,54.7445211 17.1793008,52.443405 C15.8011046,50.1422888 15.8011046,47.2785732 17.1793008,44.9774571 C18.5574969,42.6763409 21.0936649,41.3055236 23.7913043,41.4036207 C25.2833871,41.3840794 26.744893,41.8235582 27.9746087,42.6615517 L27.9746087,36.765 L31.5036522,36.765 L31.5036522,55.692931 L27.9646957,55.692931 L27.9646957,54.7101724 C26.7370897,55.5505716 25.2831132,56.005944 23.7913043,56.0172414 Z"
                      id="Shape"></path>
                <polygon id="Shape" fill-rule="nonzero"
                         points="23.493913 19.9794828 35.9248696 12.9331034 49.8229565 36.7355172 36.7773913 36.7355172 36.7773913 40.2439655 33.2483478 40.2439655 33.2483478 36.7355172 23.493913 19.9794828"></polygon>
                <path d="M57.921913,48.6858621 C57.9596301,50.9037889 59.7784934,52.6851421 62.016,52.6955172 C64.2429842,52.67946 66.0443248,50.8936481 66.0605217,48.6858621 C66.0500564,46.4676443 64.2532131,44.6644608 62.016,44.627069 C59.7704552,44.6638729 57.9590371,46.4596754 57.921913,48.6858621 Z M61.8871304,56.0172414 C57.8257789,55.9744363 54.5485508,52.7123417 54.5217391,48.6858621 C54.526986,46.747568 55.3093825,44.8908747 56.6965273,43.5249051 C58.083672,42.1589356 59.9617297,41.3957875 61.9168696,41.4036207 C63.4097894,41.3781756 64.8730704,41.8181882 66.1001739,42.6615517 L66.1001739,41.5412069 L69.6391304,41.5412069 L69.6391304,55.692931 L66.0605217,55.692931 L66.0605217,54.7101724 C64.8354755,55.5632386 63.3742694,56.0197909 61.8772174,56.0172414 L61.8871304,56.0172414 Z"
                      id="Shape"></path>
                <path d="M41.6347826,48.6858621 C41.6347826,50.9274716 43.4677678,52.7446552 45.7288696,52.7446552 C47.9899714,52.7446552 49.8229565,50.9274716 49.8229565,48.6858621 C49.8229565,46.4442525 47.9899714,44.627069 45.7288696,44.627069 C43.4677678,44.627069 41.6347826,46.4442525 41.6347826,48.6858621 Z M49.8229565,36.7355172 L53.3123478,36.7355172 L53.3123478,55.692931 L49.8130435,55.692931 L49.8130435,54.7101724 C47.2022888,56.5499994 43.6935637,56.5143741 41.121366,54.6219229 C38.5491683,52.7294716 37.4983257,49.4104715 38.5182595,46.4002248 C39.5381933,43.3899781 42.3970063,41.3729094 45.6,41.4036207 C47.1085605,41.3764579 48.5881446,41.8161631 49.8328696,42.6615517 L49.8328696,36.765 L49.8229565,36.7355172 Z"
                      id="Shape"></path>
            </g>
            <g id="logo_EYELEVEL" transform="translate(532.518519, 21.000000)" fill-rule="nonzero">
                <polygon id="Shape"
                         points="12.1493333 8.04705882 3.33866667 8.04705882 3.33866667 12.0705882 11.1466667 12.0705882 11.1466667 14.4952941 3.33866667 14.4952941 3.33866667 18.6564706 12.2666667 18.6564706 12.2666667 21.0811765 0.597333333 21.0811765 0.597333333 5.62235294 12.1493333 5.62235294"></polygon>
                <polygon id="Shape"
                         points="22.72 21.0811765 19.9573333 21.0811765 19.9573333 14.9823529 13.7706667 5.62235294 16.9706667 5.62235294 21.3333333 12.4623529 25.7386667 5.62235294 28.9386667 5.62235294 22.752 14.9188235"></polygon>
                <polygon id="Shape"
                         points="42.24 8.04705882 33.4186667 8.04705882 33.4186667 12.0705882 41.2373333 12.0705882 41.2373333 14.4952941 33.4186667 14.4952941 33.4186667 18.6564706 42.3466667 18.6564706 42.3466667 21.0811765 30.688 21.0811765 30.688 5.62235294 42.24 5.62235294"></polygon>
                <polygon id="Shape"
                         points="46.048 5.62235294 48.7893333 5.62235294 48.7893333 18.6035294 56.8213333 18.6035294 56.8213333 21.0811765 46.048 21.0811765"></polygon>
                <polygon id="Shape"
                         points="70.9333333 8.04705882 62.1226667 8.04705882 62.1226667 12.0705882 69.9306667 12.0705882 69.9306667 14.4952941 62.1226667 14.4952941 62.1226667 18.6564706 71.04 18.6564706 71.04 21.0811765 59.3813333 21.0811765 59.3813333 5.62235294 70.9333333 5.62235294"></polygon>
                <polygon id="Shape"
                         points="85.7173333 5.62235294 88.6826667 5.62235294 82.208 21.1764706 79.7973333 21.1764706 73.3226667 5.62235294 76.352 5.62235294 81.0666667 17.5023529"></polygon>
                <polygon id="Shape"
                         points="102.677333 8.04705882 93.8666667 8.04705882 93.8666667 12.0705882 101.674667 12.0705882 101.674667 14.4952941 93.8666667 14.4952941 93.8666667 18.6564706 102.794667 18.6564706 102.794667 21.0811765 91.1253333 21.0811765 91.1253333 5.62235294 102.677333 5.62235294"></polygon>
                <polygon id="Shape"
                         points="106.389333 5.62235294 109.12 5.62235294 109.12 18.6035294 117.152 18.6035294 117.152 21.0811765 106.389333 21.0811765"></polygon>
                <rect id="Rectangle-path" x="0.629333333" y="0" width="116.533333" height="1.94823529"></rect>
                <rect id="Rectangle-path" x="0.629333333" y="24.6705882" width="116.533333" height="1.94823529"></rect>
                <path d="M4.64,34.9411765 L3.94666667,34.9411765 L3.31733333,33.5541176 L1.29066667,33.5541176 L0.693333333,34.9411765 L0,34.9411765 L2.03733333,30.1976471 L2.51733333,30.1976471 L4.64,34.9411765 Z M3.04,32.94 L2.272,31.2352941 L1.55733333,32.94 L3.04,32.94 Z"
                      id="Shape"></path>
                <polygon id="Shape"
                         points="10.144 34.9411765 9.6 34.9411765 6.4 31.3517647 6.4 34.9411765 5.76 34.9411765 5.76 30.2717647 6.31466667 30.2717647 9.51466667 33.9247059 9.51466667 30.2717647 10.1546667 30.2717647"></polygon>
                <polygon id="Shape"
                         points="14.9333333 34.9411765 14.2506667 34.9411765 14.2506667 30.2717647 14.9333333 30.2717647"></polygon>
                <polygon id="Shape"
                         points="20.9386667 34.9411765 20.3626667 34.9411765 17.1626667 31.3094118 17.1626667 34.9411765 16.5226667 34.9411765 16.5226667 30.2717647 17.0666667 30.2717647 20.2666667 33.8823529 20.2666667 30.2717647 20.9066667 30.2717647"></polygon>
                <polygon id="Shape"
                         points="26.944 34.9411765 26.3573333 34.9411765 23.1573333 31.3094118 23.1573333 34.9411765 22.5173333 34.9411765 22.5173333 30.2717647 23.072 30.2717647 26.272 33.9247059 26.272 30.2717647 26.9226667 30.2717647"></polygon>
                <polygon id="Shape"
                         points="31.2106667 30.8647059 29.2053333 30.8647059 29.2053333 32.3047059 31.1466667 32.3047059 31.1466667 32.9082353 29.2053333 32.9082353 29.2053333 34.3694118 31.2746667 34.3694118 31.2746667 34.9411765 28.5226667 34.9411765 28.5226667 30.2717647 31.2106667 30.2717647"></polygon>
                <path d="M33.92,30.2717647 C34.1975989,30.2655291 34.4735276,30.3159843 34.7306667,30.42 C35.1986461,30.6171405 35.4956274,31.0803939 35.4773333,31.5847059 C35.4975282,32.0995724 35.1775258,32.5674614 34.688,32.7388235 C35.1329849,33.0925308 35.496665,33.5365681 35.7546667,34.0411765 C35.9573333,34.3694118 36.0746667,34.5282353 36.4053333,34.9835294 L35.5946667,34.9835294 C35.4346667,34.7505882 34.7733333,33.7235294 34.624,33.5223529 C34.1546667,32.9294118 33.92,32.9294118 33.5573333,32.9294118 L33.376,32.9294118 L33.376,34.9411765 L32.6933333,34.9411765 L32.6933333,30.2717647 L33.92,30.2717647 Z M33.408,30.8435294 L33.408,32.3258824 L33.6746667,32.3258824 C33.8933995,32.3323982 34.1120713,32.3110477 34.3253333,32.2623529 C34.6069586,32.155176 34.7904828,31.8840322 34.784,31.5847059 C34.7955765,31.321491 34.6547573,31.0748139 34.4213333,30.9494118 C34.1624872,30.8543874 33.8854654,30.8182052 33.6106667,30.8435294 L33.408,30.8435294 Z"
                      id="Shape"></path>
                <polygon id="Shape"
                         points="41.76 35.0047059 41.6 35.0047059 40.0533333 31.1611765 38.4853333 35.0047059 38.4 35.0047059 36.48 30.2717647 37.1626667 30.2717647 38.4 33.5117647 39.712 30.2717647 40.3626667 30.2717647 41.6853333 33.5117647 42.9866667 30.2717647 43.7333333 30.2717647"></polygon>
                <path d="M49.3866667,32.6117647 C49.3877465,33.2822167 49.1103241,33.9234532 48.6197896,34.3843312 C48.1292552,34.8452091 47.469006,35.0849548 46.7946667,35.0470588 C45.469496,34.9664633 44.4518229,33.8499462 44.5032113,32.5330403 C44.5545998,31.2161343 45.6562307,30.1811052 46.9837114,30.2025051 C48.311192,30.2239049 49.3783841,31.2938969 49.3866667,32.6117647 Z M44.992,32.6117647 C44.9886485,33.0928872 45.1841333,33.5543406 45.5328604,33.8884979 C45.8815875,34.2226553 46.353067,34.4003003 46.8373333,34.38 C47.3565598,34.3845503 47.8559827,34.1824366 48.224,33.8188235 C48.515995,33.4698256 48.681296,33.033507 48.6933333,32.58 C48.6198127,31.6194032 47.8131678,30.8772151 46.8426667,30.8772151 C45.8721656,30.8772151 45.0655206,31.6194032 44.992,32.58 L44.992,32.6117647 Z"
                      id="Shape"></path>
                <path d="M52,30.2717647 C52.2775989,30.2655291 52.5535276,30.3159843 52.8106667,30.42 C53.2786461,30.6171405 53.5756274,31.0803939 53.5573333,31.5847059 C53.5775282,32.0995724 53.2575258,32.5674614 52.768,32.7388235 C53.2129849,33.0925308 53.576665,33.5365681 53.8346667,34.0411765 C54.0373333,34.3694118 54.1546667,34.5282353 54.4746667,34.9835294 L53.6746667,34.9835294 C53.5146667,34.7505882 52.8533333,33.7235294 52.6933333,33.5223529 C52.2346667,32.9294118 52,32.9294118 51.6266667,32.9294118 L51.4453333,32.9294118 L51.4453333,34.9411765 L50.7733333,34.9411765 L50.7733333,30.2717647 L52,30.2717647 Z M51.4773333,30.8435294 L51.4773333,32.3258824 L51.744,32.3258824 C51.9662772,32.3329559 52.1885473,32.311604 52.4053333,32.2623529 C52.684925,32.1526551 52.8673631,31.883116 52.864,31.5847059 C52.8755765,31.321491 52.7347573,31.0748139 52.5013333,30.9494118 C52.2422301,30.8554232 51.9654438,30.8192718 51.6906667,30.8435294 L51.4773333,30.8435294 Z"
                      id="Shape"></path>
                <polygon id="Shape"
                         points="57.024 32.4952941 59.5946667 34.9411765 58.6666667 34.9411765 56.2453333 32.6117647 56.2453333 34.9411765 55.552 34.9411765 55.552 30.2717647 56.2453333 30.2717647 56.2453333 32.3894118 58.24 30.2717647 59.0933333 30.2717647"></polygon>
                <polygon id="Shape"
                         points="61.3653333 34.9411765 60.6826667 34.9411765 60.6826667 30.2717647 61.3653333 30.2717647"></polygon>
                <polygon id="Shape"
                         points="67.4026667 34.9411765 66.816 34.9411765 63.616 31.3094118 63.616 34.9411765 62.976 34.9411765 62.976 30.2717647 63.5306667 30.2717647 66.7306667 33.9247059 66.7306667 30.2717647 67.3813333 30.2717647"></polygon>
                <path d="M73.1413333,34.6552941 C72.5970005,34.908758 72.0038949,35.0423994 71.4026667,35.0470588 C70.7335888,35.1003658 70.0725969,34.873105 69.5800751,34.4204195 C69.0875532,33.967734 68.808515,33.3309965 68.8106667,32.6647059 C68.8072453,31.9973286 69.0787032,31.3575463 69.5621003,30.8936983 C70.0454974,30.4298504 70.6988479,30.1822246 71.3706667,30.2082353 C71.9520644,30.217229 72.5241421,30.3546755 73.0453333,30.6105882 L73.0453333,31.2988235 C72.5386584,30.9859631 71.9565632,30.8140814 71.36,30.8011765 C70.6703104,30.7728568 70.0223655,31.1290002 69.6805415,31.7242922 C69.3387174,32.3195842 69.3601764,33.0544758 69.7361627,33.6291147 C70.112149,34.2037536 70.7797875,34.5220445 71.4666667,34.4541176 C71.8324132,34.4501611 72.1941881,34.3783381 72.5333333,34.2423529 L72.5333333,33.2576471 L71.6266667,33.2576471 L71.6266667,32.6647059 L73.216,32.6647059 L73.1413333,34.6552941 Z"
                      id="Shape"></path>
                <path d="M76.9493333,31.2988235 C76.670084,31.0063802 76.2880818,30.8319512 75.8826667,30.8117647 C75.4133333,30.8117647 75.1253333,31.0658824 75.1253333,31.3623529 C75.1253333,31.6588235 75.4026667,31.9235294 76.3093333,32.4211765 C76.5451941,32.555942 76.754745,32.7316746 76.928,32.94 C77.0964831,33.1668055 77.1863111,33.4417385 77.184,33.7235294 C77.2033375,34.1011281 77.0522624,34.4676606 76.7718326,34.7235133 C76.4914028,34.9793661 76.110753,35.0979579 75.7333333,35.0470588 C75.2692958,35.0409691 74.8199145,34.8848421 74.4533333,34.6023529 L74.4533333,33.7552941 C74.7519876,34.1664133 75.2232784,34.4198187 75.7333333,34.4435294 C75.9162616,34.4611255 76.0986103,34.4047631 76.2391375,34.2871896 C76.3796647,34.1696161 76.4664987,34.0007644 76.48,33.8188235 C76.48,33.4270588 76.0746667,33.1305882 75.8506667,33.0035294 C75.406072,32.8025067 75.0069764,32.5143896 74.6773333,32.1564706 C74.5135406,31.9604036 74.4264388,31.7122974 74.432,31.4576471 C74.433184,31.1020918 74.5856493,30.7635833 74.8517895,30.5256167 C75.1179297,30.2876501 75.4729684,30.1723788 75.8293333,30.2082353 C76.2089325,30.2157596 76.5786755,30.3295372 76.896,30.5364706 L76.9493333,31.2988235 Z"
                      id="Shape"></path>
                <path d="M84.9813333,31.32 C84.4847811,31.0222047 83.9186259,30.8579862 83.3386667,30.8435294 C82.845911,30.8232408 82.3662978,31.0042382 82.0115733,31.3443504 C81.6568488,31.6844627 81.4579914,32.1539876 81.4613333,32.6435294 C81.4542777,33.1314492 81.6531149,33.6000625 82.0097158,33.9359402 C82.3663167,34.2718178 82.848179,34.4443463 83.3386667,34.4117647 C83.9401623,34.4005627 84.5255183,34.2166855 85.024,33.8823529 L85.024,34.6129412 C84.4973991,34.897415 83.9061589,35.0432269 83.3066667,35.0364706 C82.6381364,35.0776973 81.9824665,34.8409601 81.4968481,34.3830148 C81.0112296,33.9250695 80.7394502,33.2872083 80.7466667,32.6223529 C80.7547972,31.9595336 81.03244,31.3281089 81.5165289,30.8715062 C82.0006179,30.4149035 82.6500593,30.1718832 83.3173333,30.1976471 C83.8918448,30.2149279 84.4572899,30.3444558 84.9813333,30.5788235 L84.9813333,31.32 Z"
                      id="Shape"></path>
                <path d="M91.328,32.6117647 C91.3292561,33.2841681 91.0503838,33.9271645 90.5574678,34.388382 C90.0645518,34.8495995 89.4014625,35.087989 88.7253333,35.0470588 C87.8160742,35.1068004 86.9489116,34.659173 86.4760129,33.8859646 C86.0031142,33.1127562 86.0031142,32.1425379 86.4760129,31.3693295 C86.9489116,30.5961211 87.8160742,30.1484937 88.7253333,30.2082353 C89.3967241,30.1644726 90.0565689,30.3975503 90.5491876,30.8524774 C91.0418062,31.3074044 91.3235696,31.9438899 91.328,32.6117647 Z M86.9226667,32.6117647 C86.9193152,33.0928872 87.1147999,33.5543406 87.4635271,33.8884979 C87.8122542,34.2226553 88.2837337,34.4003003 88.768,34.38 C89.287687,34.3869531 89.7880125,34.184474 90.1546667,33.8188235 C90.4597972,33.4867011 90.6405741,33.0605129 90.6666667,32.6117647 C90.593146,31.6511679 89.7865011,30.9089798 88.816,30.9089798 C87.8454989,30.9089798 87.038854,31.6511679 86.9653333,32.6117647 L86.9226667,32.6117647 Z"
                      id="Shape"></path>
                <polygon id="Shape"
                         points="97.1306667 34.9411765 96.448 34.9411765 96.448 31.3094118 94.9866667 33.1305882 94.8693333 33.1305882 93.3866667 31.3094118 93.3866667 34.9411765 92.704 34.9411765 92.704 30.2717647 93.344 30.2717647 94.9333333 32.1988235 96.512 30.2717647 97.1413333 30.2717647"></polygon>
                <path d="M99.9146667,30.2717647 C100.429151,30.1987236 100.949576,30.3579756 101.333333,30.7058824 C101.576846,30.9588832 101.707552,31.2985106 101.696,31.6482353 C101.71151,32.0079493 101.567237,32.3563038 101.301333,32.6011765 C100.902997,32.9115331 100.395248,33.048992 99.8933333,32.9823529 L99.392,32.9823529 L99.392,34.9411765 L98.7093333,34.9411765 L98.7093333,30.2717647 L99.9146667,30.2717647 Z M99.3706667,30.8647059 L99.3706667,32.3364706 L99.9146667,32.3364706 C100.170557,32.362084 100.428648,32.3181651 100.661333,32.2094118 C100.84107,32.0805415 100.955928,31.8808526 100.97637,31.6617007 C100.996813,31.4425489 100.920843,31.2253205 100.768,31.0658824 C100.554667,30.8647059 100.373333,30.8647059 99.8826667,30.8647059 L99.3706667,30.8647059 Z"
                      id="Shape"></path>
                <path d="M106.464,34.9411765 L105.770667,34.9411765 L105.130667,33.5541176 L103.114667,33.5541176 L102.517333,34.9411765 L101.824,34.9411765 L103.861333,30.1976471 L104.341333,30.1976471 L106.464,34.9411765 Z M104.853333,32.9823529 L104.085333,31.2776471 L103.381333,32.9823529 L104.853333,32.9823529 Z"
                      id="Shape"></path>
                <polygon id="Shape"
                         points="112 34.9411765 111.424 34.9411765 108.224 31.3094118 108.224 34.9411765 107.584 34.9411765 107.584 30.2717647 108.128 30.2717647 111.328 33.9247059 111.328 30.2717647 111.968 30.2717647"></polygon>
                <polygon id="Shape"
                         points="115.477333 32.4847059 115.477333 34.9411765 114.784 34.9411765 114.784 32.4847059 113.066667 30.2717647 113.888 30.2717647 115.168 31.8917647 116.458667 30.2717647 117.28 30.2717647"></polygon>
            </g>
            <g id="logo_NIKE" transform="translate(190.000000, 12.000000)">
                <path d="M15.292449,2.17027027 C7.6404898,11.4324324 0.293632653,22.9075676 0.220408163,31.4859459 C0.0651819372,34.5986089 1.30936197,37.6139738 3.60093878,39.6789189 C6.64393257,42.4215789 10.5830772,43.9069985 14.6456327,43.8437838 C20.1862857,43.8437838 25.6903265,41.5437838 29.9983673,39.7783784 C37.2475918,36.7945946 117.379592,0.951891892 117.379592,0.951891892 C118.148449,0.554054054 118.002,0.0567567568 117.037878,0.305405405 L29.803102,24.6481081 C28.1551756,25.126189 26.451775,25.3770718 24.7384082,25.3940541 C18.0627755,25.3940541 12.1193878,21.6643243 12.1682041,13.5708108 C12.3622624,9.58087509 13.4297248,5.68564612 15.292449,2.17027027"
                      id="Shape"></path>
            </g>
        </g>
    </g>
</svg>
