<svg width="251" height="224" xmlns="http://www.w3.org/2000/svg">
    <g fill="#FFF" fill-rule="evenodd">
        <g fill-rule="nonzero">
            <path d="M138.595 23.532c0 3.498 2.46 6.088 5.687 6.088a5.447 5.447 0 0 0 4.983-2.817h1.701c-1.057 2.783-3.744 4.576-6.684 4.46a7.32 7.32 0 0 1-5.378-2.238 7.528 7.528 0 0 1-2.105-5.493 7.576 7.576 0 0 1 2.123-5.472 7.369 7.369 0 0 1 5.36-2.25c2.951-.133 5.657 1.659 6.724 4.452h-1.741a5.575 5.575 0 0 0-4.983-2.833c-3.227 0-5.687 2.558-5.687 6.103zM159.958 26.447h-6.173l-1.701 4.493h-1.709l5.702-14.904h1.653l5.694 14.952h-1.749l-1.717-4.541zm-.583-1.506l-2.491-6.703-2.516 6.703h5.007zM171.674 30.988h-7.347V16.036h1.74v13.317h5.655l-.048 1.619zM176.474 30.988h-1.598l-5.534-14.952h1.837l4.488 12.54 4.48-12.54h1.75zM184.715 30.988h-1.7V16.036h1.7zM188.796 18.942v12.046H187.2V16.036h1.597l8.21 12.086V16.036h1.597v14.952h-1.461zM208.674 24.123l-1.885 2.137v4.728h-1.67V16.036h1.702v7.95l6.9-7.95h2.068l-5.917 6.727 5.917 8.177h-1.972zM224.127 30.988h-7.355V16.036h1.748v13.317h5.647v1.619zM225.197 16.036h7.85v1.62h-6.141v4.921h5.958v1.62h-5.958v5.18h6.141v1.62h-7.85zM236.857 30.988h-1.701V16.036h1.7zM240.89 18.942v12.046h-1.598V16.036h1.598l8.201 12.086V16.036h1.598v14.952h-1.478z"/>
        </g>
        <g fill-rule="nonzero">
            <path d="M69.864 19.312c0-.144 0-.288.728-.512a24.528 24.528 0 0 0 3.608-1.44c1.096-.616 1.264-.704 1.52-.536.256.168.168.592.168.88v2.96c.392-.648 1.72-2.848 2.76-3.496a2.56 2.56 0 0 1 1.64-.568c1.1-.05 2.04.789 2.112 1.888a1.384 1.384 0 0 1-1.384 1.6c-.448-.056-.8-.48-1.04-.904a1.016 1.016 0 0 0-1.128-.528c-.424.136-2.816 1.688-2.96 3.888-.08 1.6 0 6.68 0 6.68-.069.535.22 1.051.712 1.272a9.064 9.064 0 0 0 1.944.288c.368.056.344.136.344.248 0 .112 0 .168-.312.168h-8.432c-.28 0-.368-.056-.368-.192s.336-.168.624-.224c.288-.056 1.688.08 2.08-.624.196-.371.285-.79.256-1.208v-8.88c0-.704-.224-.8-.416-.936-.192-.136-.536-.168-1.216.056-.68.224-1.096.4-1.208.12M40.488 19.312c-.112-.232.088-.368.736-.536a16.128 16.128 0 0 0 3.376-1.328c1.216-.68 1.408-.76 1.664-.68.256.08.224.536.224.904v11.472a1.4 1.4 0 0 0 .368 1.184 3.2 3.2 0 0 0 1.976.424c.416 0 .56.056.56.224s-.144.168-.312.168H40.8c-.256 0-.312-.112-.312-.224s.112-.224.512-.224 1.832.112 2.168-.68c.14-.348.208-.72.2-1.096v-9.048c0-.704-.536-.984-1.16-.848-.624.136-1.552.568-1.72.288M44.744 11.36a2.056 2.056 0 1 0-2.056-2.056 2.064 2.064 0 0 0 2.056 2.056M54.752 24.384c.424 3.72 2.624 6.624 5.384 6.144 2.76-.48 4.144-3.128 3.808-7.328-.336-4.2-2.456-6.4-5.304-6.176-2.848.224-4.312 3.64-3.888 7.36m2.736-8c3.552-.672 8.592.112 9.752 5.664 1.16 5.552-2.64 8.504-6.008 9.24-3.368.736-8.736.2-9.752-5.776a7.816 7.816 0 0 1 6.008-9.136M15.456 30.304h2.064c7.664 0 9.72-.704 12.4-4.288 2.68-3.584 3.016-8.712 3.016-10.456a17.552 17.552 0 0 0-3.2-9.784c-2.672-3.688-7.2-4.648-11.136-4.648h-3.2c-.8 0-.8.336-.8.872v27.6c0 .592.192.68.8.68M3 30.952c0-.288.368-.344.704-.344 3.888-.112 4.624-.248 5.072-.704.256-.248.592-.448.592-2.256V2.76C9.4.536 6.664.872 4.744.68 4.072.624 4.016.504 4.016.312S4.152 0 4.496 0h15.696c17.28 0 18.152 12.624 18.152 16 0 7.24-4.8 15.2-14.768 15.2H3.504c-.248 0-.504 0-.504-.248"/>
        </g>
        <path d="M74.394 211.922a10.005 10.005 0 0 1-3.376 4.127c-1.704 1.228-2.917-.654-1.784-2.86a7.257 7.257 0 0 1 2.845-3.15c1.785-1.106 3.127.041 2.315 1.883m-33.5-.17a9.949 9.949 0 0 1-3.367 4.135c-1.704 1.228-2.926-.654-1.785-2.867a7.257 7.257 0 0 1 2.837-3.142c1.785-1.106 3.127 0 2.315 1.874m44.15 2.908c-.217-.291-.539-.735-.804-1.09-.16-.21-.402-.292-.651 0a27.14 27.14 0 0 1-2.323 2.1c-.25.153-1.326.516-.804-.63.434-1.018 1.97-4.847 2.781-6.697.306-.702-.257-1.114-1.398-.945-1.383.24-2.797.24-4.18 0a1.075 1.075 0 0 0-1.181.485c-.143.28-.305.55-.483.808 0 0-3.415-3.312-9.299-.21a8.47 8.47 0 0 0-4.565 5.37 14.932 14.932 0 0 1-2.87 1.665c-.73.29-1.133.25-.683-.897.45-1.147 2.187-5.056 2.187-5.056a9.367 9.367 0 0 0 1.792-.178c.442-.09.864-.26 1.246-.5.361-.259.482-.372.233-.873-.25-.5-.33-.686-.466-.929-.137-.242-.257-.363-.595-.201a2.98 2.98 0 0 1-.973.306c-.313 0-.434 0-.217-.54.097-.26 1.07-2.61 1.31-3.28a1.103 1.103 0 0 0-.132-.898 1.093 1.093 0 0 0-.76-.491 1.854 1.854 0 0 0-1.744.904c-1.414 2.133-2.556 2.327-3.166 2.424-.611.096-2.3-.162-3.03 1.922l-1.801.04c-.313 0-.378.073-.466.356-.089.282-.346 1.074-.45 1.43-.105.355.048.452.209.452h1.72s-1.029 2.277-1.881 4.208a18.097 18.097 0 0 1-4.091 2.423c-.362.161-1.214.282-.723-.856.49-1.14 2.081-5.194 2.901-7.068.306-.702-.265-1.114-1.406-.953a11.998 11.998 0 0 1-4.18 0 1.067 1.067 0 0 0-1.181.493 7.6 7.6 0 0 1-.483.808s-3.407-3.312-9.299-.202c-3.07 1.615-4.22 3.844-4.613 5.597-.7.544-1.458 1.01-2.259 1.39v-.057c.129-.453 1.182-5.032-2.556-6.18a7.51 7.51 0 0 0 2.275-.896c1.824-1.47 1.704-2.94 1.422-3.885-.353-1.244-2.146-2.552-4.5-3.126-6.254-1.389-10.49 1.22-12.378 2.254a35.643 35.643 0 0 0-5.16 3.74.138.138 0 0 0 0 .201c-.048-.08 1.23 1.212 1.302 1.277.072.064.113.088.201 0a33.17 33.17 0 0 1 3.102-2.278l-3.713 8.666c-1.302 2.949-3.046 1.479-3.046 1.479a5.896 5.896 0 0 1-1.358-1.309.129.129 0 0 0-.233 0c0 .049-.748 1.615-.804 1.729a.235.235 0 0 0 0 .258 7.133 7.133 0 0 0 3.022 2.326 7.421 7.421 0 0 0 7.515-1.058c1.27-1.13 1.374-1.559 2.234-3.352l4.26-10.023c.57-1.228 1.543-2.423 2.717-2.165 1.045.283.924 1.898.924 1.898a3.323 3.323 0 0 1-2.644 3.15 5.12 5.12 0 0 1-1.126.08.225.225 0 0 0-.24.162c-.057.13-.467 1.172-.523 1.317a.26.26 0 0 0 .225.355h.587a1.777 1.777 0 0 1 1.712 1.196c.217.95.11 1.946-.306 2.827-.554 1.575-1.109 2.277-1.792 2.697-.908.558-1.857.558-3.062-.452-.105-.105-.201 0-.201 0s-.627 1.47-.667 1.575c-.04.105-.089.202 0 .29a6.861 6.861 0 0 0 5.465 2.077 9.85 9.85 0 0 0 3.802-.67 24.676 24.676 0 0 0 5.626-2.852v.21a4.167 4.167 0 0 0 4.308 3.312c2.757 0 4.597-1.422 6.132-2.86.523 2.577 2.347 2.86 3.039 2.86a10.652 10.652 0 0 0 3.166-.655 32.437 32.437 0 0 0 5.37-2.503c-.153.912-.113 2.172 1.004 2.73a5.745 5.745 0 0 0 4.63-.081 25.75 25.75 0 0 0 4.918-2.488l.973-.646c.01.157.032.314.064.468a4.135 4.135 0 0 0 4.3 3.312c2.765 0 4.606-1.414 6.133-2.86.53 2.577 2.355 2.86 3.046 2.86a9.924 9.924 0 0 0 3.167-.654 24.78 24.78 0 0 0 6.43-4.346c.225-.234.28-.315.064-.597"/>
        <g fill-rule="nonzero">
            <path d="M159.112 203.035h-6.608v3.018h5.856v1.818h-5.856v3.121h6.696v1.819h-8.752v-11.594h8.664zM167.04 212.81h-2.072v-4.573l-4.64-7.02h2.4l3.272 5.13 3.304-5.13h2.4l-4.64 6.972zM181.68 203.035h-6.616v3.018h5.864v1.818h-5.864v3.121h6.696v1.819h-8.744v-11.594h8.664zM184.536 201.217h2.056v9.736h6.024v1.858h-8.08zM203.2 203.035h-6.608v3.018h5.856v1.818h-5.856v3.121h6.688v1.819h-8.744v-11.594h8.664zM214.288 201.217h2.224l-4.856 11.665h-1.808l-4.856-11.665h2.272l3.536 8.91zM227.008 203.035H220.4v3.018h5.856v1.818H220.4v3.121h6.696v1.819h-8.752v-11.594h8.664zM229.792 201.217h2.048v9.736h6.024v1.858h-8.072zM150.472 197h87.4v1.461h-87.4zM150.472 215.503h87.4v1.461h-87.4zM153.48 223.206h-.52l-.472-1.04h-1.52l-.448 1.04H150l1.528-3.558h.36l1.592 3.558zm-1.2-1.501l-.576-1.279-.536 1.279h1.112zM157.608 223.206h-.408l-2.4-2.692v2.692h-.48v-3.502h.416l2.4 2.74v-2.74h.48zM161.2 223.206h-.512v-3.502h.512zM165.704 223.206h-.432l-2.4-2.724v2.724h-.48v-3.502h.408l2.4 2.708v-2.708h.48zM170.208 223.206h-.44l-2.4-2.724v2.724h-.48v-3.502h.416l2.4 2.74v-2.74h.488zM173.408 220.149h-1.504v1.08h1.456v.452h-1.456v1.096h1.552v.429h-2.064v-3.502h2.016zM175.44 219.704a1.53 1.53 0 0 1 .608.111.913.913 0 0 1 .56.874.882.882 0 0 1-.592.865c.334.265.606.598.8.977.152.246.24.365.488.707h-.608c-.12-.175-.616-.945-.728-1.096-.352-.445-.528-.445-.8-.445h-.136v1.509h-.512v-3.502h.92zm-.384.429v1.111h.2c.164.005.328-.01.488-.047a.532.532 0 0 0 .344-.508.515.515 0 0 0-.272-.477 1.393 1.393 0 0 0-.608-.08h-.152zM181.32 223.254h-.12l-1.16-2.883-1.176 2.883h-.064l-1.44-3.55h.512l.928 2.43.984-2.43h.488l.992 2.43.976-2.43h.56zM187.04 221.459c0 .503-.207.984-.575 1.33a1.848 1.848 0 0 1-1.369.496 1.824 1.824 0 0 1-1.719-1.885 1.826 1.826 0 0 1 1.86-1.748 1.825 1.825 0 0 1 1.803 1.807zm-3.296 0c-.003.36.144.707.406.957.261.251.615.384.978.369.39.003.764-.148 1.04-.42a1.51 1.51 0 0 0 .352-.93 1.388 1.388 0 0 0-1.388-1.277c-.728 0-1.333.557-1.388 1.277v.024zM189 219.704a1.53 1.53 0 0 1 .608.111.913.913 0 0 1 .56.874.882.882 0 0 1-.592.865c.334.265.606.598.8.977.152.246.24.365.48.707h-.6c-.12-.175-.616-.945-.736-1.096-.344-.445-.52-.445-.8-.445h-.136v1.509h-.504v-3.502h.92zm-.392.429v1.111h.2c.167.006.333-.01.496-.047a.54.54 0 0 0 .344-.508.515.515 0 0 0-.272-.477 1.418 1.418 0 0 0-.608-.08h-.16zM192.768 221.371l1.928 1.835H194l-1.816-1.747v1.747h-.52v-3.502h.52v1.588l1.496-1.588h.64zM196.024 223.206h-.512v-3.502h.512zM200.552 223.206h-.44l-2.4-2.724v2.724h-.48v-3.502h.416l2.4 2.74v-2.74h.488zM204.856 222.991c-.408.19-.853.29-1.304.294-.502.04-.998-.13-1.367-.47a1.78 1.78 0 0 1-.577-1.316c-.003-.501.201-.98.564-1.329a1.856 1.856 0 0 1 1.356-.514c.436.007.865.11 1.256.302v.516a2.51 2.51 0 0 0-1.264-.373 1.386 1.386 0 0 0-1.26.692c-.256.447-.24.998.042 1.429.282.43.783.67 1.298.619.274-.003.546-.057.8-.16v-.738h-.68v-.444h1.192l-.056 1.492zM207.712 220.474c-.21-.22-.496-.35-.8-.365-.352 0-.568.19-.568.413 0 .222.208.42.888.794a1.7 1.7 0 0 1 .464.389c.126.17.194.376.192.588a.95.95 0 0 1-.31.75.965.965 0 0 1-.778.242 1.608 1.608 0 0 1-.96-.333v-.636c.224.309.577.499.96.517a.515.515 0 0 0 .56-.469c0-.294-.304-.516-.472-.611a2.72 2.72 0 0 1-.88-.636.79.79 0 0 1-.184-.524c0-.266.115-.52.315-.699a.957.957 0 0 1 .733-.238c.285.006.562.091.8.246l.04.572zM213.736 220.49a2.518 2.518 0 0 0-1.232-.357c-.37-.016-.73.12-.995.375a1.337 1.337 0 0 0-.413.975c-.005.366.144.717.411.969.268.252.63.381.997.357.451-.009.89-.146 1.264-.397v.548a2.648 2.648 0 0 1-1.288.317 1.816 1.816 0 0 1-1.357-.49 1.788 1.788 0 0 1-.563-1.32c.006-.497.214-.97.577-1.313.363-.343.85-.525 1.351-.506a3.3 3.3 0 0 1 1.248.286v.556zM218.496 221.459c0 .504-.208.986-.578 1.332-.37.346-.867.525-1.374.494a1.836 1.836 0 0 1-1.687-.87 1.807 1.807 0 0 1 0-1.888 1.836 1.836 0 0 1 1.687-.87 1.84 1.84 0 0 1 1.368.482c.37.342.58.819.584 1.32zm-3.304 0c-.003.36.144.707.406.957.261.251.615.384.978.369.39.005.765-.147 1.04-.42.229-.25.364-.57.384-.906a1.388 1.388 0 0 0-1.388-1.277c-.728 0-1.333.556-1.388 1.277h-.032zM222.848 223.206h-.512v-2.724l-1.096 1.366h-.088l-1.112-1.366v2.724h-.512v-3.502h.48l1.192 1.445 1.184-1.445h.472zM224.936 219.704a1.31 1.31 0 0 1 1.064.325c.183.19.28.445.272.707a.918.918 0 0 1-.296.715c-.299.233-.68.336-1.056.286h-.376v1.469h-.512v-3.502h.904zm-.408.445v1.103h.408c.192.02.385-.013.56-.095a.57.57 0 0 0 .08-.858c-.16-.15-.296-.15-.664-.15h-.384zM229.848 223.206h-.52l-.48-1.04h-1.512l-.448 1.04h-.52l1.528-3.558h.36l1.592 3.558zm-1.208-1.47l-.576-1.278-.528 1.279h1.104zM234 223.206h-.432l-2.4-2.724v2.724h-.48v-3.502h.408l2.4 2.74v-2.74h.48zM236.608 221.364v1.842h-.52v-1.842l-1.288-1.66h.616l.96 1.215.968-1.215h.616z"/>
        </g>
        <path d="M71.472 129.207c-3.2 0-5.088-1.586-5.2-3.918h3c0 .714.456 1.769 2.4 1.808 1.288 0 1.904-.793 1.904-1.316-.08-.904-1.224-.984-2.4-1.174a11.02 11.02 0 0 1-3-.793 3.08 3.08 0 0 1-1.6-2.752c0-2.039 1.792-3.656 4.8-3.656s4.616 1.49 4.824 3.735h-2.904c-.04-.595-.152-1.547-1.864-1.547-1.136 0-1.896.23-1.976 1.024 0 1.165 2.4 1.094 4.256 1.586 1.856.492 2.928 1.586 2.928 3.093 0 2.823-2.32 3.918-5.168 3.918v-.008zM16.296 110.3l9.992-5.695 5.28 9.041H18.232l-1.936-3.347zM38.68 128.945h-2.848v-11.42h2.848v11.42z"
              fill-rule="nonzero"/>
        <path d="M11.736 123.29c.087 1.758 1.55 3.138 3.324 3.138 1.775 0 3.237-1.38 3.324-3.138-.035-1.81-1.518-3.263-3.344-3.275-1.812.03-3.274 1.479-3.304 3.275zm3.2 5.917c-3.274-.039-5.914-2.67-5.936-5.917a5.867 5.867 0 0 1 1.755-4.165 5.97 5.97 0 0 1 4.213-1.712 6.005 6.005 0 0 1 3.416 1.016v-.905H21.2v11.421h-2.816v-.793a6.02 6.02 0 0 1-3.416 1.055h-.032z"/>
        <path fill-rule="nonzero" d="M53.344 113.646L39.44 89.726 49.432 84l17.296 29.646H53.344z"/>
        <path d="M24.92 123.29a3.299 3.299 0 0 0 2.034 3.064 3.35 3.35 0 0 0 3.633-.693 3.279 3.279 0 0 0 .742-3.593 3.328 3.328 0 0 0-3.065-2.053c-1.826.012-3.31 1.465-3.344 3.275zm3.28 5.917a5.964 5.964 0 0 1-5.336-2.884 5.857 5.857 0 0 1 0-6.025 5.964 5.964 0 0 1 5.336-2.885 5.86 5.86 0 0 1 3.376 1.016v-4.759h2.848v15.275h-2.856v-.793a6.044 6.044 0 0 1-3.368 1.055z"/>
        <path fill-rule="nonzero" d="M27.96 100.124l10.032-5.687 11.216 19.21H38.68v2.83h-2.848v-2.83l-7.872-13.523z"/>
        <path d="M55.744 123.29c.03 1.79 1.498 3.228 3.304 3.236 1.797-.013 3.25-1.454 3.264-3.236-.008-1.79-1.459-3.245-3.264-3.275-1.812.03-3.274 1.479-3.304 3.275zm3.2 5.917c-3.278-.035-5.922-2.667-5.944-5.917a5.867 5.867 0 0 1 1.755-4.165 5.97 5.97 0 0 1 4.213-1.712 5.787 5.787 0 0 1 3.376 1.016v-.905H65.2v11.421h-2.888v-.793a5.891 5.891 0 0 1-3.376 1.055h.008zM42.6 123.29c0 1.81 1.48 3.276 3.304 3.276 1.825 0 3.304-1.467 3.304-3.276 0-1.809-1.48-3.275-3.304-3.275-1.825 0-3.304 1.466-3.304 3.275zm6.608-9.644h2.816v15.3H49.2v-.794a6.01 6.01 0 0 1-7.014-.071 5.887 5.887 0 0 1-2.101-6.635c.823-2.43 3.13-4.057 5.715-4.033a5.892 5.892 0 0 1 3.416 1.016v-4.759l-.008-.024z"/>
        <g>
            <path d="M165.626 102.068c-4.99 6.04-9.782 13.524-9.83 19.118A6.742 6.742 0 0 0 158 126.53a10.512 10.512 0 0 0 7.203 2.716c3.613 0 7.203-1.5 10.012-2.651 4.728-1.946 56.988-25.322 56.988-25.322.502-.26.406-.584-.223-.422l-56.892 15.876a12.29 12.29 0 0 1-3.303.487c-4.354 0-8.23-2.433-8.198-7.711a17.723 17.723 0 0 1 2.038-7.435"/>
        </g>
    </g>
</svg>
