<?xml version="1.0" encoding="utf-8"?>
<!-- Generator: Adobe Illustrator 22.0.1, SVG Export Plug-In . SVG Version: 6.00 Build 0)  -->
<svg version="1.1" id="Vrstva_1" xmlns="http://www.w3.org/2000/svg" xmlns:xlink="http://www.w3.org/1999/xlink" x="0px" y="0px"
	 viewBox="0 0 841 57" style="enable-background:new 0 0 841 57;" xml:space="preserve">
<style type="text/css">
	.st0{fill:#828282;}
</style>
<g id="Page-1">
	<g id="Group-4" transform="translate(-1.000000, 0.000000)">
		<g id="logo_BATA" transform="translate(0.000000, 29.000000)">
			<path id="Shape" class="st0" d="M99.2,15.9c-1,2.2-2.5,4.1-4.5,5.5c-2.3,1.6-3.9-0.9-2.4-3.8c0.8-1.7,2.1-3.2,3.8-4.2
				C98.5,11.9,100.3,13.4,99.2,15.9 M54.5,15.7c-1,2.2-2.5,4.1-4.5,5.5c-2.3,1.6-3.9-0.9-2.4-3.8c0.8-1.7,2.1-3.2,3.8-4.2
				C53.8,11.7,55.6,13.2,54.5,15.7 M113.4,19.5c-0.3-0.4-0.7-1-1.1-1.5c-0.2-0.3-0.5-0.4-0.9,0c-1,1-2,1.9-3.1,2.8
				c-0.3,0.2-1.8,0.7-1.1-0.8c0.6-1.4,2.6-6.5,3.7-8.9c0.4-0.9-0.3-1.5-1.9-1.3c-1.8,0.3-3.7,0.3-5.6,0c-0.6-0.2-1.2,0.1-1.6,0.6
				c-0.2,0.4-0.4,0.7-0.6,1.1c0,0-4.6-4.4-12.4-0.3c-3,1.4-5.2,4-6.1,7.2c-1.2,0.9-2.5,1.6-3.8,2.2c-1,0.4-1.5,0.3-0.9-1.2
				s2.9-6.7,2.9-6.7c0.8,0,1.6-0.1,2.4-0.2c0.6-0.1,1.2-0.3,1.7-0.7c0.5-0.3,0.6-0.5,0.3-1.2s-0.4-0.9-0.6-1.2S84.4,9,84,9.2
				c-0.4,0.2-0.8,0.3-1.3,0.4c-0.4,0-0.6,0-0.3-0.7c0.1-0.3,1.4-3.5,1.7-4.4c0.1-0.4,0.1-0.8-0.2-1.2s-0.6-0.6-1-0.7
				C82,2.6,81.1,3,80.6,3.8c-1.9,2.8-3.4,3.1-4.2,3.2c-0.8,0.1-3.1-0.2-4,2.6L70,9.7c-0.4,0-0.5,0.1-0.6,0.5
				c-0.1,0.4-0.5,1.4-0.6,1.9s0.1,0.6,0.3,0.6h2.3c0,0-1.4,3-2.5,5.6c-1.7,1.3-3.5,2.4-5.5,3.2c-0.5,0.2-1.6,0.4-1-1.1
				c0.7-1.5,2.8-6.9,3.9-9.4c0.4-0.9-0.4-1.5-1.9-1.3c-1.8,0.3-3.7,0.3-5.6,0c-0.6-0.2-1.3,0.1-1.6,0.7c-0.2,0.4-0.4,0.7-0.6,1.1
				c0,0-4.5-4.4-12.4-0.3c-4.1,2.2-5.6,5.1-6.2,7.5c-0.9,0.7-1.9,1.3-3,1.9v-0.1c0.2-0.6,1.6-6.7-3.4-8.2c1.1-0.2,2.1-0.6,3-1.2
				c2.4-2,2.3-3.9,1.9-5.2c-0.5-1.7-2.9-3.4-6-4.2c-8.3-1.9-14,1.6-16.5,3c-2.4,1.5-4.7,3.1-6.9,5c0,0-0.1,0.1-0.1,0.1
				c0,0.1,0,0.1,0.1,0.1c-0.1-0.1,1.6,1.6,1.7,1.7c0.1,0.1,0.2,0.1,0.3,0c1.3-1.1,2.7-2.1,4.1-3l-5,11.6c-1.7,3.9-4.1,2-4.1,2
				C3.6,21.6,3,21,2.5,20.3c0-0.1-0.1-0.1-0.2-0.1c-0.1,0-0.1,0-0.2,0.1c0,0.1-1,2.2-1.1,2.3C1,22.7,1,22.9,1.1,23
				c1,1.4,2.4,2.5,4,3.1c3.3,1.4,7.2,0.9,10-1.4c1.7-1.5,1.8-2.1,3-4.5l5.7-13.4c0.8-1.6,2.1-3.2,3.6-2.9c1.4,0.4,1.2,2.5,1.2,2.5
				c-0.1,2.1-1.5,3.8-3.5,4.2c-0.5,0.1-1,0.1-1.5,0.1c-0.1,0-0.3,0.1-0.3,0.2c-0.1,0.2-0.6,1.6-0.7,1.8c0,0.1,0,0.2,0,0.3
				c0.1,0.1,0.2,0.2,0.3,0.2h0.8c1,0,1.9,0.6,2.3,1.6c0.3,1.3,0.1,2.6-0.4,3.8c-0.7,2.1-1.5,3-2.4,3.6c-1.2,0.7-2.5,0.7-4.1-0.6
				c-0.1-0.1-0.3,0-0.3,0s-0.8,2-0.9,2.1c-0.1,0.1-0.1,0.3,0,0.4c1.9,2,4.6,3,7.3,2.8c1.7,0,3.5-0.3,5.1-0.9
				c2.7-0.9,5.2-2.2,7.5-3.8c0,0.2,0,0.3,0,0.3c0.6,2.7,3,4.6,5.7,4.4c3.7,0,6.1-1.9,8.2-3.8c0.7,3.4,3.1,3.8,4.1,3.8
				c1.4-0.1,2.9-0.4,4.2-0.9c2.5-0.9,4.9-2,7.2-3.3c-0.2,1.2-0.2,2.9,1.3,3.6c2,0.8,4.2,0.8,6.2-0.1c2.3-0.9,4.5-2,6.6-3.3l1.3-0.9
				c0,0.2,0,0.4,0.1,0.6c0.6,2.7,3,4.6,5.7,4.4c3.7,0,6.1-1.9,8.2-3.8c0.7,3.4,3.1,3.8,4.1,3.8c1.4-0.1,2.9-0.4,4.2-0.9
				c3.1-1.5,6-3.4,8.6-5.8C113.7,20,113.7,19.9,113.4,19.5"/>
		</g>
		<g id="logo_ADIDAS" transform="translate(369.000000, 0.000000)">
			<path id="Shape_1_" class="st0" d="M216.4,56c-4,0-6.3-2-6.4-4.9h3.7c0,0.9,0.6,2.2,3,2.2c1.6,0,2.4-1,2.4-1.6
				c-0.1-1.1-1.5-1.2-3-1.5c-1.3-0.2-2.5-0.5-3.7-1c-1.2-0.7-2-2-2-3.4c0-2.5,2.2-4.5,5.9-4.5c3.7,0,5.7,1.8,6,4.6h-3.6
				c0-0.7-0.2-1.9-2.3-1.9c-1.4,0-2.3,0.3-2.4,1.3c0,1.4,3,1.4,5.3,2c2.3,0.6,3.6,2,3.6,3.8C222.8,54.7,219.9,56,216.4,56L216.4,56z
				"/>
			<polygon id="Shape_2_" class="st0" points="148,32.6 160.4,25.5 167,36.7 150.4,36.7 			"/>
			<polygon id="Shape_3_" class="st0" points="175.8,55.7 172.2,55.7 172.2,41.5 175.8,41.5 			"/>
			<path id="Shape_4_" class="st0" d="M142.4,48.7c0.1,2.2,1.9,3.9,4.1,3.9c2.2,0,4-1.7,4.1-3.9c0-2.2-1.9-4-4.1-4.1
				C144.2,44.7,142.4,46.5,142.4,48.7z M146.4,56c-4.1,0-7.3-3.3-7.4-7.3c0-1.9,0.8-3.8,2.2-5.2c1.4-1.4,3.3-2.1,5.2-2.1
				c1.5,0,3,0.4,4.2,1.3v-1.1h3.5v14.2h-3.5v-1C149.4,55.6,147.9,56,146.4,56L146.4,56z"/>
			<polygon id="Shape_5_" class="st0" points="193.9,36.7 176.7,7.1 189.1,0 210.5,36.7 			"/>
			<path id="Shape_6_" class="st0" d="M158.7,48.7c0,1.7,1,3.2,2.5,3.8c1.5,0.6,3.3,0.3,4.5-0.9c1.2-1.2,1.6-2.9,0.9-4.5
				c-0.6-1.5-2.1-2.5-3.8-2.5C160.6,44.6,158.8,46.4,158.7,48.7z M162.8,56c-2.7,0.1-5.2-1.3-6.6-3.6c-1.4-2.3-1.4-5.2,0-7.5
				c1.4-2.3,3.9-3.7,6.6-3.6c1.5,0,3,0.4,4.2,1.3v-5.9h3.5v18.9H167v-1C165.7,55.6,164.3,56,162.8,56z"/>
			<polygon id="Shape_7_" class="st0" points="162.5,20 174.9,12.9 188.8,36.7 175.8,36.7 175.8,40.2 172.2,40.2 172.2,36.7 			"/>
			<path id="Shape_8_" class="st0" d="M196.9,48.7c0,2.2,1.9,4,4.1,4c2.2,0,4-1.8,4-4c0-2.2-1.8-4-4-4.1
				C198.8,44.7,197,46.5,196.9,48.7z M200.9,56c-4.1,0-7.3-3.3-7.4-7.3c0-1.9,0.8-3.8,2.2-5.2c1.4-1.4,3.3-2.1,5.2-2.1
				c1.5,0,3,0.4,4.2,1.3v-1.1h3.5v14.2h-3.6v-1C203.8,55.6,202.4,56,200.9,56L200.9,56z"/>
			<path id="Shape_9_" class="st0" d="M180.6,48.7c0,2.2,1.8,4.1,4.1,4.1c2.3,0,4.1-1.8,4.1-4.1c0-2.2-1.8-4.1-4.1-4.1
				C182.5,44.6,180.6,46.4,180.6,48.7z M188.8,36.7h3.5v19h-3.5v-1c-2.6,1.8-6.1,1.8-8.7-0.1c-2.6-1.9-3.6-5.2-2.6-8.2
				c1-3,3.9-5,7.1-5c1.5,0,3,0.4,4.2,1.3L188.8,36.7L188.8,36.7z"/>
		</g>
		<g id="logo_EYELEVEL" transform="translate(532.518519, 21.000000)">
			<polygon id="Shape_10_" class="st0" points="202.1,8 193.3,8 193.3,12.1 201.1,12.1 201.1,14.5 193.3,14.5 193.3,18.7 
				202.3,18.7 202.3,21.1 190.6,21.1 190.6,5.6 202.1,5.6 			"/>
			<polygon id="Shape_11_" class="st0" points="212.7,21.1 210,21.1 210,15 203.8,5.6 207,5.6 211.3,12.5 215.7,5.6 218.9,5.6 
				212.8,14.9 			"/>
			<polygon id="Shape_12_" class="st0" points="232.2,8 223.4,8 223.4,12.1 231.2,12.1 231.2,14.5 223.4,14.5 223.4,18.7 
				232.3,18.7 232.3,21.1 220.7,21.1 220.7,5.6 232.2,5.6 			"/>
			<polygon id="Shape_13_" class="st0" points="236,5.6 238.8,5.6 238.8,18.6 246.8,18.6 246.8,21.1 236,21.1 			"/>
			<polygon id="Shape_14_" class="st0" points="260.9,8 252.1,8 252.1,12.1 259.9,12.1 259.9,14.5 252.1,14.5 252.1,18.7 261,18.7 
				261,21.1 249.4,21.1 249.4,5.6 260.9,5.6 			"/>
			<polygon id="Shape_15_" class="st0" points="275.7,5.6 278.7,5.6 272.2,21.2 269.8,21.2 263.3,5.6 266.4,5.6 271.1,17.5 			"/>
			<polygon id="Shape_16_" class="st0" points="292.7,8 283.9,8 283.9,12.1 291.7,12.1 291.7,14.5 283.9,14.5 283.9,18.7 
				292.8,18.7 292.8,21.1 281.1,21.1 281.1,5.6 292.7,5.6 			"/>
			<polygon id="Shape_17_" class="st0" points="296.4,5.6 299.1,5.6 299.1,18.6 307.2,18.6 307.2,21.1 296.4,21.1 			"/>
			<rect id="Rectangle-path" x="190.6" class="st0" width="116.5" height="1.9"/>
			<rect id="Rectangle-path_1_" x="190.6" y="24.7" class="st0" width="116.5" height="1.9"/>
			<path id="Shape_18_" class="st0" d="M194.6,34.9h-0.7l-0.6-1.4h-2l-0.6,1.4H190l2-4.7h0.5L194.6,34.9z M193,32.9l-0.8-1.7
				l-0.7,1.7H193z"/>
			<polygon id="Shape_19_" class="st0" points="200.1,34.9 199.6,34.9 196.4,31.4 196.4,34.9 195.8,34.9 195.8,30.3 196.3,30.3 
				199.5,33.9 199.5,30.3 200.2,30.3 			"/>
			<polygon id="Shape_20_" class="st0" points="204.9,34.9 204.3,34.9 204.3,30.3 204.9,30.3 			"/>
			<polygon id="Shape_21_" class="st0" points="210.9,34.9 210.4,34.9 207.2,31.3 207.2,34.9 206.5,34.9 206.5,30.3 207.1,30.3 
				210.3,33.9 210.3,30.3 210.9,30.3 			"/>
			<polygon id="Shape_22_" class="st0" points="216.9,34.9 216.4,34.9 213.2,31.3 213.2,34.9 212.5,34.9 212.5,30.3 213.1,30.3 
				216.3,33.9 216.3,30.3 216.9,30.3 			"/>
			<polygon id="Shape_23_" class="st0" points="221.2,30.9 219.2,30.9 219.2,32.3 221.1,32.3 221.1,32.9 219.2,32.9 219.2,34.4 
				221.3,34.4 221.3,34.9 218.5,34.9 218.5,30.3 221.2,30.3 			"/>
			<path id="Shape_24_" class="st0" d="M223.9,30.3c0.3,0,0.6,0,0.8,0.1c0.5,0.2,0.8,0.7,0.7,1.2c0,0.5-0.3,1-0.8,1.2
				c0.4,0.4,0.8,0.8,1.1,1.3c0.2,0.3,0.3,0.5,0.7,0.9h-0.8c-0.2-0.2-0.8-1.3-1-1.5c-0.5-0.6-0.7-0.6-1.1-0.6h-0.2v2h-0.7v-4.7H223.9
				z M223.4,30.8v1.5h0.3c0.2,0,0.4,0,0.7-0.1c0.3-0.1,0.5-0.4,0.5-0.7c0-0.3-0.1-0.5-0.4-0.6c-0.3-0.1-0.5-0.1-0.8-0.1H223.4z"/>
			<polygon id="Shape_25_" class="st0" points="231.8,35 231.6,35 230.1,31.2 228.5,35 228.4,35 226.5,30.3 227.2,30.3 228.4,33.5 
				229.7,30.3 230.4,30.3 231.7,33.5 233,30.3 233.7,30.3 			"/>
			<path id="Shape_26_" class="st0" d="M239.4,32.6c0,0.7-0.3,1.3-0.8,1.8c-0.5,0.5-1.2,0.7-1.8,0.7c-1.3-0.1-2.3-1.2-2.3-2.5
				c0.1-1.3,1.2-2.4,2.5-2.3C238.3,30.2,239.4,31.3,239.4,32.6z M235,32.6c0,0.5,0.2,0.9,0.5,1.3c0.3,0.3,0.8,0.5,1.3,0.5
				c0.5,0,1-0.2,1.4-0.6c0.3-0.3,0.5-0.8,0.5-1.2c-0.1-1-0.9-1.7-1.9-1.7S235.1,31.6,235,32.6L235,32.6z"/>
			<path id="Shape_27_" class="st0" d="M242,30.3c0.3,0,0.6,0,0.8,0.1c0.5,0.2,0.8,0.7,0.7,1.2c0,0.5-0.3,1-0.8,1.2
				c0.4,0.4,0.8,0.8,1.1,1.3c0.2,0.3,0.3,0.5,0.6,0.9h-0.8c-0.2-0.2-0.8-1.3-1-1.5c-0.5-0.6-0.7-0.6-1.1-0.6h-0.2v2h-0.7v-4.7H242z
				 M241.5,30.8v1.5h0.3c0.2,0,0.4,0,0.7-0.1c0.3-0.1,0.5-0.4,0.5-0.7c0-0.3-0.1-0.5-0.4-0.6c-0.3-0.1-0.5-0.1-0.8-0.1H241.5z"/>
			<polygon id="Shape_28_" class="st0" points="247,32.5 249.6,34.9 248.7,34.9 246.2,32.6 246.2,34.9 245.6,34.9 245.6,30.3 
				246.2,30.3 246.2,32.4 248.2,30.3 249.1,30.3 			"/>
			<polygon id="Shape_29_" class="st0" points="251.4,34.9 250.7,34.9 250.7,30.3 251.4,30.3 			"/>
			<polygon id="Shape_30_" class="st0" points="257.4,34.9 256.8,34.9 253.6,31.3 253.6,34.9 253,34.9 253,30.3 253.5,30.3 
				256.7,33.9 256.7,30.3 257.4,30.3 			"/>
			<path id="Shape_31_" class="st0" d="M263.1,34.7c-0.5,0.3-1.1,0.4-1.7,0.4c-0.7,0.1-1.3-0.2-1.8-0.6c-0.5-0.5-0.8-1.1-0.8-1.8
				c0-0.7,0.3-1.3,0.8-1.8s1.1-0.7,1.8-0.7c0.6,0,1.2,0.1,1.7,0.4v0.7c-0.5-0.3-1.1-0.5-1.7-0.5c-0.7,0-1.3,0.3-1.7,0.9
				c-0.3,0.6-0.3,1.3,0.1,1.9c0.4,0.6,1,0.9,1.7,0.8c0.4,0,0.7-0.1,1.1-0.2v-1h-0.9v-0.6h1.6L263.1,34.7z"/>
			<path id="Shape_32_" class="st0" d="M266.9,31.3c-0.3-0.3-0.7-0.5-1.1-0.5c-0.5,0-0.8,0.3-0.8,0.6s0.3,0.6,1.2,1.1
				c0.2,0.1,0.4,0.3,0.6,0.5c0.2,0.2,0.3,0.5,0.3,0.8c0,0.4-0.1,0.7-0.4,1c-0.3,0.3-0.7,0.4-1,0.3c-0.5,0-0.9-0.2-1.3-0.4v-0.8
				c0.3,0.4,0.8,0.7,1.3,0.7c0.2,0,0.4,0,0.5-0.2s0.2-0.3,0.2-0.5c0-0.4-0.4-0.7-0.6-0.8c-0.4-0.2-0.8-0.5-1.2-0.8
				c-0.2-0.2-0.3-0.4-0.2-0.7c0-0.4,0.2-0.7,0.4-0.9c0.3-0.2,0.6-0.4,1-0.3c0.4,0,0.7,0.1,1.1,0.3L266.9,31.3z"/>
			<path id="Shape_33_" class="st0" d="M275,31.3c-0.5-0.3-1.1-0.5-1.6-0.5c-0.5,0-1,0.2-1.3,0.5s-0.6,0.8-0.6,1.3
				c0,0.5,0.2,1,0.5,1.3s0.8,0.5,1.3,0.5c0.6,0,1.2-0.2,1.7-0.5v0.7c-0.5,0.3-1.1,0.4-1.7,0.4c-0.7,0-1.3-0.2-1.8-0.7
				c-0.5-0.5-0.8-1.1-0.8-1.8c0-0.7,0.3-1.3,0.8-1.8c0.5-0.5,1.1-0.7,1.8-0.7c0.6,0,1.1,0.1,1.7,0.4V31.3z"/>
			<path id="Shape_34_" class="st0" d="M281.3,32.6c0,0.7-0.3,1.3-0.8,1.8s-1.2,0.7-1.8,0.7c-0.9,0.1-1.8-0.4-2.2-1.2
				s-0.5-1.7,0-2.5c0.5-0.8,1.3-1.2,2.2-1.2c0.7,0,1.3,0.2,1.8,0.6C281,31.3,281.3,31.9,281.3,32.6z M276.9,32.6
				c0,0.5,0.2,0.9,0.5,1.3c0.3,0.3,0.8,0.5,1.3,0.5c0.5,0,1-0.2,1.4-0.6c0.3-0.3,0.5-0.8,0.5-1.2c-0.1-1-0.9-1.7-1.9-1.7
				C277.8,30.9,277,31.7,276.9,32.6L276.9,32.6z"/>
			<polygon id="Shape_35_" class="st0" points="287.1,34.9 286.4,34.9 286.4,31.3 285,33.1 284.9,33.1 283.4,31.3 283.4,34.9 
				282.7,34.9 282.7,30.3 283.3,30.3 284.9,32.2 286.5,30.3 287.1,30.3 			"/>
			<path id="Shape_36_" class="st0" d="M289.9,30.3c0.5-0.1,1,0.1,1.4,0.4c0.2,0.3,0.4,0.6,0.4,0.9c0,0.4-0.1,0.7-0.4,1
				c-0.4,0.3-0.9,0.4-1.4,0.4h-0.5v2h-0.7v-4.7H289.9z M289.4,30.9v1.5h0.5c0.3,0,0.5,0,0.7-0.1c0.2-0.1,0.3-0.3,0.3-0.5
				c0-0.2-0.1-0.4-0.2-0.6c-0.2-0.2-0.4-0.2-0.9-0.2H289.4z"/>
			<path id="Shape_37_" class="st0" d="M296.5,34.9h-0.7l-0.6-1.4h-2l-0.6,1.4h-0.7l2-4.7h0.5L296.5,34.9z M294.9,33l-0.8-1.7
				l-0.7,1.7H294.9z"/>
			<polygon id="Shape_38_" class="st0" points="302,34.9 301.4,34.9 298.2,31.3 298.2,34.9 297.6,34.9 297.6,30.3 298.1,30.3 
				301.3,33.9 301.3,30.3 302,30.3 			"/>
			<polygon id="Shape_39_" class="st0" points="305.5,32.5 305.5,34.9 304.8,34.9 304.8,32.5 303.1,30.3 303.9,30.3 305.2,31.9 
				306.5,30.3 307.3,30.3 			"/>
		</g>
		<g id="logo_NIKE" transform="translate(190.000000, 12.000000)">
			<path id="Shape_40_" class="st0" d="M77.1,2.2c-7.7,9.3-15,20.7-15.1,29.3c-0.2,3.1,1.1,6.1,3.4,8.2c3,2.7,7,4.2,11,4.2
				c5.5,0,11-2.3,15.4-4.1C99,36.8,179.2,1,179.2,1c0.8-0.4,0.6-0.9-0.3-0.6L91.6,24.6c-1.6,0.5-3.4,0.7-5.1,0.7
				c-6.7,0-12.6-3.7-12.6-11.8C74.2,9.6,75.2,5.7,77.1,2.2"/>
		</g>
	</g>
</g>
</svg>
