<svg xmlns="http://www.w3.org/2000/svg" viewBox="0 0 1884.17 454.87"><defs><style>.cls-1{fill:#f99f00;}.cls-2{fill:#fff;}</style></defs><title>logo-team</title><g id="Vrstva_2" data-name="Vrstva 2"><g id="Layer_1" data-name="Layer 1"><path class="cls-1" d="M388.26,66.61A225.94,225.94,0,0,0,227.44,0h-9.52a9.48,9.48,0,0,0-9.47,9.48v215.4a9.48,9.48,0,0,0,9.48,9.48h19a9.48,9.48,0,0,0,9.48-9.48V38.82A189.58,189.58,0,0,1,417,227.43a189.53,189.53,0,0,1-323.55,134A189.57,189.57,0,0,1,165.7,48.19a9.48,9.48,0,0,0,5.87-12L165.4,18.23a9.48,9.48,0,0,0-12-5.87,227.48,227.48,0,1,0,234.9,54.26"/><path class="cls-2" d="M665.1,138.17H597.8c-5.73,0-7.88-1.79-7.88-7.88V112c0-6.09,2.15-7.88,7.88-7.88h179c5.73,0,7.88,1.79,7.88,7.88V130.3c0,6.09-2.15,7.88-7.88,7.88h-67.3c-3.22,0-4.3,1.07-4.3,3.94V346.89c0,6.09-2.15,7.88-7.88,7.88h-20c-5.73,0-7.88-1.79-7.88-7.88V142.11C669.4,139.25,668.32,138.17,665.1,138.17Z"/><path class="cls-2" d="M829.42,104.16H964.74c5.73,0,7.88,1.79,7.88,7.88V130.3c0,6.09-2.15,7.88-7.88,7.88H861.64c-3.22,0-4.3,1.07-4.3,3.94v65.51c0,3.22,1.07,4.3,4.3,4.3h90.93c5.73,0,7.88,1.79,7.88,7.88v17.9c0,5.73-2.15,7.88-7.88,7.88H861.64c-3.22,0-4.3,1.07-4.3,3.94v67.3c0,2.86,1.07,3.94,4.3,3.94H965.1c5.73,0,7.88,1.79,7.88,7.88v18.26c0,6.09-2.15,7.88-7.88,7.88H829.42c-5.73,0-7.88-1.79-7.88-7.88V112C821.54,106,823.69,104.16,829.42,104.16Z"/><path class="cls-2" d="M1120.83,99.51c4.65,0,7.52,3.58,14.32,17.9L1242.91,344c1.07,2.51,1.79,4.3,1.79,6.09,0,3.22-2.51,4.65-7.52,4.65h-19.69c-7.52,0-10-1.79-14-10L1176,284.6c-1.43-3.58-2.51-4.3-6.44-4.3h-98.45c-3.94,0-5,.72-6.8,4.3l-27.21,60.14c-3.94,8.23-6.44,10-14,10h-18.26c-5,0-7.52-1.43-7.52-4.65,0-1.79.72-3.58,1.79-6.09l107-226.62C1113,103.09,1115.81,99.51,1120.83,99.51Zm37.59,147.14a8.25,8.25,0,0,0-1.07-3.22l-37.23-80.19-36.87,80.19a8,8,0,0,0-1.07,3.58c0,1.07,1.07,1.79,3.58,1.79h68.74C1157,248.8,1158.42,248.08,1158.42,246.65Z"/><path class="cls-2" d="M1283,100.58c4.3,0,7.52,3.22,13.6,10.38l99.88,119.93L1494.94,111c6.44-7.16,9.31-10.38,13.6-10.38,5.37,0,7.16,4.3,7.16,11.81V346.89c0,6.09-2.15,7.88-7.88,7.88h-20c-5.73,0-7.88-1.79-7.88-7.88V180.06l-71.6,88.07c-6.09,7.88-8.59,10-12.53,10s-6.44-2.15-12.53-10l-71.6-88.07V346.89c0,6.09-2.15,7.88-7.88,7.88h-20c-5.73,0-7.88-1.79-7.88-7.88V112.4C1275.84,104.88,1277.63,100.58,1283,100.58Z"/><path class="cls-2" d="M1689.7,395.2c4,0,16,5.66,33.3,5.66,25.64,0,43.62-11.65,44.29-44,0-2-.67-3-2.33-3h-18.65c-61.6,0-95.57-30.3-95.57-80.58,0-48.28,32.63-82.58,95.57-82.58h46.29c5.33,0,7.33,1.67,7.33,7.33V351.58c0,52.28-26.64,78.92-76.59,78.92-14.65,0-30.3-3-39.63-7-3-1.33-4.33-3.33-4.33-6a11.47,11.47,0,0,1,.33-3l4.33-13.65C1685,397.2,1686.37,395.2,1689.7,395.2Zm77.59-74.92V224c0-2.66-1-4-3.66-4h-17c-37.3,0-62.6,18-62.6,53.28,0,33.63,24.31,50.95,62.6,50.95h17C1766.29,324.27,1767.29,323.27,1767.29,320.27Z"/><path class="cls-2" d="M1859.2,104.16h17.65c5.33,0,7.33,1.67,7.33,7.33V346.58c0,5.66-2,7.33-7.33,7.33H1859.2c-5.33,0-7.33-1.67-7.33-7.33V111.49C1851.87,105.83,1853.87,104.16,1859.2,104.16Z"/><path class="cls-1" d="M1581.93,318.7h20c5.73,0,7.88,1.79,7.88,7.88v20.37c0,6.09-2.15,7.88-7.88,7.88h-20c-5.73,0-7.88-1.79-7.88-7.88V326.58C1574.06,320.49,1576.2,318.7,1581.93,318.7Z"/></g></g></svg>