<svg xmlns="http://www.w3.org/2000/svg" viewBox="0 0 454.87 454.87"><defs><style>.cls-1{fill:#3c3;}</style></defs><title>logo-greenlight-symbol</title><g id="Vrstva_2" data-name="Vrstva 2"><g id="Layer_1" data-name="Layer 1"><path class="cls-1" d="M388.25,66.61A225.94,225.94,0,0,0,227.43,0h-9.52a9.48,9.48,0,0,0-9.47,9.48v215.4a9.48,9.48,0,0,0,9.48,9.48h19a9.48,9.48,0,0,0,9.48-9.48V38.82A189.58,189.58,0,0,1,417,227.44a189.53,189.53,0,0,1-323.55,134A189.57,189.57,0,0,1,165.7,48.19a9.48,9.48,0,0,0,5.87-12L165.4,18.23a9.48,9.48,0,0,0-12-5.87,227.48,227.48,0,1,0,234.9,54.26Z"/></g></g></svg>