<svg xmlns="http://www.w3.org/2000/svg" viewBox="0 0 2643.15 454.87"><defs><style>.cls-1{fill:#fff;}.cls-2{fill:#3c3;}</style></defs><title>logo-greenlight</title><g id="Vrstva_2" data-name="Vrstva 2"><g id="Layer_1" data-name="Layer 1"><path class="cls-1" d="M845.07,218a6.05,6.05,0,0,0-6-5.5H717.69a6,6,0,0,0-6,6v21.32a6,6,0,0,0,6,6h91.85a95.74,95.74,0,1,1-13.38-67.4,6,6,0,0,0,8.3,1.85L823.57,168a6,6,0,0,0,1.84-8.27,130.27,130.27,0,0,0-110.2-60.71A130.38,130.38,0,1,0,845.6,229.44c0-3.73-.17-7.48-.53-11.48"/><path class="cls-1" d="M2204.42,218a6.05,6.05,0,0,0-6-5.5H2077a6,6,0,0,0-6,6v21.32a6,6,0,0,0,6,6h91.85a95.74,95.74,0,1,1-13.38-67.4,6,6,0,0,0,8.3,1.85l19.11-12.2a6,6,0,0,0,1.84-8.27,130.26,130.26,0,0,0-110.2-60.71,130.38,130.38,0,1,0,130.38,130.38c0-3.73-.17-7.48-.53-11.48"/><path class="cls-1" d="M874.19,104.63h70c67.83,0,100,27.49,100,76.75,0,36.77-19.28,58.9-48.91,69.26L1057,343.81c1.79,2.86,2.86,5,2.86,6.78,0,2.5-2.86,3.93-7.85,3.93h-21.42c-7.85,0-11.07-1.79-16.07-9.64l-51.76-80c-2.5-3.93-4.64-5-9.28-5H906.31c-3.21,0-4.28,1.07-4.28,4.28v82.47c0,6.07-2.14,7.85-7.85,7.85h-20c-5.71,0-7.85-1.79-7.85-7.85V112.48c0-6.07,2.14-7.85,7.85-7.85M1007,182.81c0-32.13-24.28-44.27-64.62-44.27H906.31c-3.21,0-4.28,1.07-4.28,3.93v80.68c0,3.21,1.07,4.28,4.28,4.28h38.2c40.7,0,62.47-13.57,62.47-44.62"/><path class="cls-1" d="M1090.17,104.63h134.94c5.71,0,7.85,1.79,7.85,7.85v18.21c0,6.07-2.14,7.85-7.85,7.85H1122.3c-3.21,0-4.28,1.07-4.28,3.93V207.8c0,3.21,1.07,4.28,4.28,4.28H1213c5.71,0,7.85,1.78,7.85,7.85v17.85c0,5.71-2.14,7.85-7.85,7.85H1122.3c-3.21,0-4.28,1.07-4.28,3.93v67.11c0,2.86,1.07,3.93,4.28,3.93h103.17c5.71,0,7.85,1.79,7.85,7.85v18.21c0,6.07-2.14,7.85-7.85,7.85h-135.3c-5.71,0-7.85-1.78-7.85-7.85V112.48c0-6.07,2.14-7.85,7.85-7.85"/><path class="cls-1" d="M1276.52,104.63h134.94c5.71,0,7.85,1.79,7.85,7.85v18.21c0,6.07-2.14,7.85-7.85,7.85H1308.65c-3.21,0-4.28,1.07-4.28,3.93V207.8c0,3.21,1.07,4.28,4.28,4.28h90.68c5.71,0,7.85,1.78,7.85,7.85v17.85c0,5.71-2.14,7.85-7.85,7.85h-90.68c-3.21,0-4.28,1.07-4.28,3.93v67.11c0,2.86,1.07,3.93,4.28,3.93h103.17c5.71,0,7.85,1.79,7.85,7.85v18.21c0,6.07-2.14,7.85-7.85,7.85h-135.3c-5.71,0-7.85-1.78-7.85-7.85V112.48c0-6.07,2.14-7.85,7.85-7.85"/><path class="cls-1" d="M1462.15,100.7c3.93,0,7.5,2.5,14.64,11.07l144.94,171V112.48c0-6.07,2.14-7.85,7.85-7.85h20c5.71,0,7.85,1.79,7.85,7.85V346.67c0,8.21-2.5,11.78-7.14,11.78-3.93,0-7.5-2.5-15-11.07l-144.94-171V346.67c0,6.07-2.14,7.85-7.85,7.85h-20c-5.71,0-7.85-1.78-7.85-7.85V112.48c0-8.21,2.5-11.78,7.5-11.78"/><path class="cls-1" d="M1707.12,104.63h20c5.71,0,7.86,1.79,7.86,7.85v204.2c0,2.86,1.07,3.93,4.28,3.93h105.31c5.71,0,7.86,1.79,7.86,7.85v18.21c0,6.07-2.14,7.85-7.86,7.85H1707.12c-5.71,0-7.85-1.78-7.85-7.85V112.48c0-6.07,2.14-7.85,7.85-7.85"/><path class="cls-1" d="M1888.47,104.63h20c5.71,0,7.86,1.79,7.86,7.85V346.67c0,6.07-2.14,7.85-7.86,7.85h-20c-5.71,0-7.85-1.78-7.85-7.85V112.48c0-6.07,2.14-7.85,7.85-7.85"/><path class="cls-1" d="M2236.9,104.63h20c5.71,0,7.86,1.79,7.86,7.85V205.3c0,2.86,1.07,4.28,4.28,4.28h118.17c3.21,0,4.28-1.43,4.28-4.28V112.48c0-6.07,2.14-7.85,7.86-7.85h20c5.71,0,7.85,1.79,7.85,7.85V346.67c0,6.07-2.14,7.85-7.85,7.85h-20c-5.71,0-7.86-1.78-7.86-7.85v-99.6c0-2.86-1.07-3.93-4.28-3.93H2269c-3.21,0-4.28,1.07-4.28,3.93v99.6c0,6.07-2.14,7.85-7.86,7.85h-20c-5.71,0-7.85-1.78-7.85-7.85V112.48c0-6.07,2.14-7.85,7.85-7.85"/><path class="cls-1" d="M2523.92,138.54H2456.8c-5.71,0-7.86-1.78-7.86-7.85V112.48c0-6.07,2.14-7.85,7.86-7.85h178.5c5.71,0,7.85,1.79,7.85,7.85v18.21c0,6.07-2.14,7.85-7.85,7.85h-67.12c-3.21,0-4.28,1.07-4.28,3.93v204.2c0,6.07-2.14,7.85-7.85,7.85h-20c-5.71,0-7.86-1.78-7.86-7.85V142.47c0-2.86-1.07-3.93-4.28-3.93"/><path class="cls-2" d="M388.26,66.61A225.94,225.94,0,0,0,227.44,0h-9.52a9.48,9.48,0,0,0-9.47,9.48v215.4a9.48,9.48,0,0,0,9.48,9.48h19a9.48,9.48,0,0,0,9.48-9.48V38.82A189.58,189.58,0,0,1,417,227.43a189.53,189.53,0,0,1-323.55,134A189.57,189.57,0,0,1,165.7,48.19a9.48,9.48,0,0,0,5.87-12L165.4,18.23a9.48,9.48,0,0,0-12-5.87,227.48,227.48,0,1,0,234.9,54.26"/></g></g></svg>