<svg xmlns:xlink="http://www.w3.org/1999/xlink" width="85" height="57" xmlns="http://www.w3.org/2000/svg">
    <defs>
        <path id="a" d="M.447.236h34.422v36.74H.447z"/>
        <path id="c" d="M.004.086h13.24v14.879H.005z"/>
        <path id="e" d="M0 56.92h84.241V.759H0z"/>
    </defs>
    <g fill="none" fill-rule="evenodd" opacity=".699">
        <path d="M80.829 39.923c.368.21.735.3 1.129.3h.013c.394 0 .761-.09 1.128-.3.368-.197.644-.472.84-.839a2.23 2.23 0 0 0 .302-1.125c0-.406-.092-.785-.302-1.15a2.019 2.019 0 0 0-.853-.839 2.346 2.346 0 0 0-1.115-.3h-.013a2.504 2.504 0 0 0-1.116.3 2.095 2.095 0 0 0-.853.838c-.21.366-.302.745-.302 1.151 0 .38.092.76.302 1.125.197.367.472.642.84.839m-.512-2.919c.17-.3.406-.537.709-.707.302-.157.617-.248.932-.248h.013c.315 0 .63.091.932.248a1.896 1.896 0 0 1 .958 1.662c0 .327-.08.641-.25.943a1.772 1.772 0 0 1-.695.694 1.902 1.902 0 0 1-.945.248h-.013a1.92 1.92 0 0 1-.946-.248 1.775 1.775 0 0 1-.695-.694 1.896 1.896 0 0 1-.262-.943c0-.34.092-.654.262-.955"
              fill="#FFF"/>
        <path d="M80.881 37.736h.261c.16 0 .276.026.349.085a.224.224 0 0 1 .057.037c.117.084.246.254.406.484l.247.363h.522l-.319-.447a3.138 3.138 0 0 0-.406-.449.75.75 0 0 0-.232-.12.927.927 0 0 0 .565-.207.547.547 0 0 0 .218-.436.475.475 0 0 0-.13-.326.623.623 0 0 0-.348-.218 1.83 1.83 0 0 0-.523-.061c-.043 0-.101-.012-.159-.012h-.943v2.276h.435v-.969zm0-.993h.668c.13.013.217.025.275.037a.32.32 0 0 1 .188.121c.044.048.059.11.059.181a.286.286 0 0 1-.131.243c-.072.06-.203.085-.392.097h-.667v-.679zm-56.292.445h3.491l-3.49-5.768-2.95-4.858-12.532 7.46 1.914 3.166z"
              fill="#FFF"/>
        <g transform="translate(37.946)">
            <mask id="b" fill="#fff">
                <use xlink:href="#a"/>
            </mask>
            <path fill="#FFF" mask="url(#b)"
                  d="M18.034 36.977H34.87L24.39 19.512 12.801.236 8.028 3.108.447 7.665l7.581 12.627z"/>
        </g>
        <path d="M50.393 42.951a7.508 7.508 0 0 0-4.092-1.214h-.039c-4.168.026-7.557 3.426-7.557 7.592 0 4.166 3.389 7.566 7.557 7.59h.039a7.507 7.507 0 0 0 4.092-1.213v.792h3.49v-19.31h-3.49v5.763zm0 7.17c-.37 1.917-2.072 3.387-4.092 3.387h-.039a4.19 4.19 0 0 1-4.143-4.18 4.17 4.17 0 0 1 4.143-4.165h.039a4.18 4.18 0 0 1 4.092 3.373v1.585zm15.937-7.166a7.48 7.48 0 0 0-4.092-1.214H62.2c-4.169.026-7.557 3.425-7.557 7.59s3.388 7.564 7.557 7.589h.038a7.479 7.479 0 0 0 4.092-1.214v.792h3.491V42.125h-3.49v.83zm0 7.168c-.37 1.917-2.071 3.386-4.092 3.386H62.2a4.189 4.189 0 0 1-4.143-4.178 4.17 4.17 0 0 1 4.143-4.165h.038a4.182 4.182 0 0 1 4.092 3.372v1.585z"
              fill="#FFF"/>
        <g transform="translate(71.34 40.982)">
            <mask id="d" fill="#fff">
                <use xlink:href="#c"/>
            </mask>
            <path d="M10.886 6.784c-.128-.064-.307-.126-.513-.202-.781-.263-2.05-.59-3.82-.967-1.55-.339-2.332-.779-2.332-1.332 0-.39.14-.705.41-.93.359-.301 1-.452 1.923-.452.936 0 1.615.201 2.012.59.244.24.423.666.539 1.27h3.717c0-1.785-.744-3.067-2.205-3.846a1.446 1.446 0 0 0-.244-.125C9.361.325 8.015.086 6.336.086c-2.038 0-3.577.527-4.602 1.595-.82.855-1.218 1.897-1.218 3.13 0 1.534.77 2.64 2.333 3.356.59.276 2.026.665 4.307 1.143 1.526.327 2.294.792 2.294 1.382 0 .353-.153.654-.486.93-.423.352-1.065.528-1.923.528-1.141 0-1.949-.188-2.423-.553-.474-.352-.718-.867-.718-1.52H.004c0 1.734.743 3.028 2.243 3.882 1.192.666 2.755 1.006 4.691 1.006 1.295 0 2.449-.213 3.435-.628.206-.088.385-.177.578-.277 1.525-.83 2.294-2.149 2.294-3.958 0-1.483-.782-2.59-2.359-3.318"
                  fill="#FFF" mask="url(#d)"/>
        </g>
        <path d="M11.688 42.955a7.553 7.553 0 0 0-4.105-1.214h-.038C3.388 41.767 0 45.166 0 49.331s3.388 7.564 7.545 7.589h.038a7.553 7.553 0 0 0 4.105-1.214v.792h3.49V42.125h-3.49v.83zm0 7.168a4.196 4.196 0 0 1-4.105 3.386h-.038a4.188 4.188 0 0 1-4.13-4.178c0-2.287 1.853-4.153 4.13-4.165h.038a4.184 4.184 0 0 1 4.105 3.372v1.585z"
              fill="#FFF"/>
        <mask id="f" fill="#fff">
            <use xlink:href="#e"/>
        </mask>
        <path fill="#FFF" mask="url(#f)"
              d="M33.393 40.223h3.794v-3.035h-3.794zm0 15.937h3.794V41.742h-3.794zm-5.007-13.209a7.537 7.537 0 0 0-4.1-1.214h-.038c-4.166.026-7.552 3.426-7.552 7.592 0 4.166 3.386 7.566 7.552 7.59h.038a7.536 7.536 0 0 0 4.1-1.213v.792h3.489v-19.31h-3.489v5.763zm0 7.17c-.37 1.917-2.07 3.387-4.1 3.387h-.038a4.189 4.189 0 0 1-4.14-4.18 4.169 4.169 0 0 1 4.14-4.165h.038a4.182 4.182 0 0 1 4.1 3.373v1.585zM50.09 37.188l-4.11-6.828-10.09-16.7-11.955 7.158-.408.24.408.673 9.339 15.456z"/>
    </g>
</svg>
