<svg width="120" height="28" xmlns="http://www.w3.org/2000/svg">
    <path d="M119.556 19.56c-.307-.403-.769-1.039-1.174-1.539-.233-.291-.574-.403-.92.039-.352.45-2.957 2.751-3.304 2.964-.346.211-1.882.731-1.19-.885.616-1.442 2.788-6.812 3.945-9.46.433-.994-.373-1.57-1.987-1.34-2.702.387-3.917.29-5.934 0-.571-.082-1.325 0-1.678.69-.348.69-.686 1.158-.686 1.158s-4.84-4.677-13.195-.288c-4.171 2.19-5.843 5.158-6.473 7.583-1.152.9-3.218 2.015-4.073 2.35-1.037.403-1.613.346-.978-1.271.633-1.617 3.112-7.142 3.112-7.142s1.656-.01 2.535-.25c.845-.231 1.345-.366 1.862-.732.519-.366.691-.52.327-1.231-.392-.766-.46-.963-.653-1.308-.19-.348-.373-.511-.846-.29-.576.27-1.075.423-1.382.442-.447.028-.615-.057-.308-.768.175-.405 1.52-3.713 1.862-4.66.232-.634-.086-1.685-1.265-1.963-.982-.23-2.018.577-2.477 1.27-2.004 3.012-3.633 3.292-4.496 3.407-.744.1-3.266-.23-4.303 2.714 0 0-2.188.02-2.554.02-.443 0-.538.097-.664.497-.124.401-.49 1.525-.635 2.026-.15.503.065.634.295.634h2.444s-1.457 3.215-2.67 5.948c-3.25 2.377-4.657 2.967-5.802 3.465-.517.23-1.727.404-1.037-1.212.617-1.442 2.963-7.331 4.121-9.98.432-.993-.373-1.57-1.99-1.34-2.7.388-3.917.288-5.933 0-.571-.082-1.326 0-1.677.691-.35.689-.686 1.157-.686 1.157s-4.84-4.677-13.197-.29c-4.357 2.291-5.986 5.428-6.549 7.908-.939.693-2.005 1.403-3.21 1.935l.02-.08c.176-.636 1.673-7.104-3.63-8.722 1.558-.404 2.652-.866 3.228-1.27 2.593-2.078 2.416-4.157 2.017-5.487-.518-1.73-3.053-3.58-6.395-4.388-8.875-1.964-14.895 1.736-17.575 3.176-2.847 1.527-6.5 4.583-7.322 5.282-.155.147.004.334-.023.289-.069-.114 1.751 1.71 1.848 1.8.093.092.166.121.293.007a44.278 44.278 0 0 1 4.396-3.22L7.747 20.139c-1.845 4.158-4.323 2.077-4.323 2.077s-.732-.409-1.93-1.846c-.13-.16-.288-.088-.33.028-.023.06-1.067 2.324-1.11 2.44-.043.115-.1.217.007.367 1.34 1.871 2.862 2.572 4.285 3.285 2.076 1.04 7.204 1.559 10.662-1.501 1.802-1.595 1.958-2.195 3.17-4.735l6.048-14.148c.809-1.732 2.192-3.465 3.862-3.06 1.44.348 1.268 2.599 1.268 2.599-.23 2.309-1.447 3.87-3.745 4.445-.492.123-1.217.13-1.596.123-.19.006-.262.039-.342.225-.08.187-.668 1.654-.74 1.859-.074.204.022.502.316.497.261-.005.578-.01.835-.01.837 0 2.16.54 2.43 1.694.19.819.364 1.675-.443 3.987-.777 2.222-1.565 3.217-2.535 3.81-1.287.785-2.637.792-4.35-.635-.145-.144-.288.028-.288.028s-.882 2.085-.946 2.226c-.064.142-.122.287.011.416 2.354 2.276 4.48 2.932 7.763 2.932 2.244 0 4.007-.373 5.395-.953 3.484-1.258 5.83-2.535 8.037-4.027.027.193.052.302.052.302.287 1.328 1.613 4.678 6.107 4.678 3.92 0 6.532-2.004 8.702-4.043.748 3.637 3.34 4.043 4.321 4.043.978 0 2.652-.29 4.495-.925 1.577-.543 4.295-1.68 7.498-3.515-.21 1.292-.158 3.064 1.432 3.862 3.017 1.338 5.649.231 6.571-.116.923-.345 3.63-1.386 6.972-3.522.51-.334.956-.632 1.346-.896.042.42.096.664.096.664.286 1.328 1.613 4.678 6.107 4.678 3.918 0 6.531-2.003 8.701-4.043.749 3.64 3.342 4.043 4.322 4.043s2.66-.26 4.494-.924c2.229-.808 6.397-3.657 9.086-6.14.327-.326.404-.444.096-.847m-62.658-4.1c-.97 2.188-2.88 4.678-4.78 5.831-2.421 1.734-4.15-.922-2.537-4.04.923-1.735 1.895-3.131 4.035-4.447 2.533-1.561 4.436.057 3.282 2.656m47.541.232c-.972 2.187-2.88 4.677-4.783 5.832-2.42 1.731-4.149-.925-2.535-4.043.922-1.733 1.894-3.132 4.034-4.447 2.536-1.558 4.437.057 3.284 2.658"
          fill="#FEFEFE" fill-rule="evenodd" opacity=".699"/>
</svg>
