<svg xmlns="http://www.w3.org/2000/svg" viewBox="0 0 550.19 183.23">
    <defs>
        <style>
            .cls-2{fill:#fff}
        </style>
    </defs>
    <g id="Layer_2" data-name="Layer 2">
        <g id="Layer_1-2" data-name="Layer 1">
            <path class="icon" d="M186 106.18h14.86l16.71-28.95H186a40.79 40.79 0 0 0-18 4.53c-7.79 4-16.38 15.93-17.49 17.86-.5.82-1 1.65-1.5 2.5l-1 1.75c-.44.74-.86 1.49-1.3 2.23-4.13 7.08-8.24 14.17-12.26 21.31-.17.3-.34.59-.5.89l-1.39 2.45-7.44 13.19-2 3.5c-4.44 5.94-11.9 9.48-18.86 4.49s-6.21-13.45-2.9-19.75c.08-.13.15-.27.22-.41 6.38-11.53 12.87-23 19.35-34.48l4.87-8.63 2.24-4h-.05q5.15-9.14 10.3-18.25c10.36-18.37 9.74-42.25-7.09-56.91-12.33-10.74-30.12-12.46-44.56-5-10 5.17-14.57 12.8-20 22.11l-3.77 6.46-3.86 6.67c-.84 1.38-1.68 2.81-2.54 4.28Q49.68 55.79 43 67.61c-.62 1.1-1.24 2.21-1.87 3.31-2.77 3.36-6.52 5.79-10.56 6H16.71L0 105.9h30.54a40.92 40.92 0 0 0 17.92-4.51c7.79-4 12.26-9.52 16.42-16.14.86-1.36 1.7-2.77 2.56-4.22l1-1.76L69.76 77l3-5.16q4.68-8.02 9.24-16.12c.17-.3.34-.59.5-.89l1.39-2.46 7.44-13.18.83-1.45.29-.49c4.25-6.78 12.35-11.34 19.87-6 6.94 5 6.21 13.46 2.9 19.75l-.22.41c-6.38 11.54-12.87 23-19.35 34.49l-1 1.68c-.21.36-.41.73-.62 1.1l-15.78 28.08c-10.36 18.37-9.74 42.24 7.09 56.9 12.33 10.75 30.12 12.47 44.56 5 8.45-4.35 13-10.46 17.48-17.83.84-1.38 1.67-2.81 2.53-4.28q6.87-11.73 13.56-23.54l.25-.44q5-8.5 9.79-17.07c.12-.2.23-.4.34-.6.56-1 1.12-1.92 1.67-2.88 2.76-3.27 6.46-5.62 10.43-5.88z" fill="#e40050"/>
            <path class="cls-2" d="M505.46 61.11h-28.83V46.38h73.56v14.73h-28.83v75.76h-15.9zM301.33 89.67c6.7-3.48 12.88-9.27 12.88-20.09v-.25a20.42 20.42 0 0 0-6-14.94c-5.15-5.15-13.26-8-23.56-8h-40.48v90.12h41.71c20.09 0 33.35-8.62 33.35-24.72v-.25c0-12.22-7.34-18.27-17.9-21.87zm-41.58-29.23h22.79c10.17 0 15.83 4.38 15.83 11.46v.26c0 8.24-6.82 12.23-17 12.23h-21.62zm43.64 49.7c0 8.11-6.69 12.36-17.38 12.36h-26.26V97.78h25.1c12.49 0 18.54 4.51 18.54 12.1zM449.81 46.79l-.19-.41h-15.27l-.87 2L401 122.66h-55.16V98.49h45.36V84.15h-45.36V60.63H397V46.41h-67v90.46h81.16l9.3-21.84h42.77l9.18 21.84h16.8zM426.22 101l15.51-36.19L457.37 101z"/>
        </g>
    </g>
</svg>
