<svg id="Vrstva_1" xmlns="http://www.w3.org/2000/svg" viewBox="0 0 218.2 59.3">
    <path class="icon" fill="#e40050"
          d="M58.3 34.1h4.6l5.2-9.3h-9.8c-1.9 0-3.8.5-5.6 1.4-2.4 1.3-5.1 5.1-5.5 5.7-.3.5-.5.9-.8 1.4l-.4.7c-1.3 2.3-2.6 4.5-3.8 6.8l-.2.3-.4.8-2.3 4.2-.6 1.1c-1.4 1.9-3.7 3-5.9 1.4s-1.9-4.3-.9-6.3l.1-.1 6-11.1 1.5-2.8.7-1.3 3.2-5.9c3.2-5.9 3-13.5-2.2-18.2-3.8-3.4-9.4-4-13.9-1.6-3.1 1.7-4.5 4.1-6.2 7.1l-2.4 4.2c-.3.4-.5.9-.8 1.4-1.6 2.9-3.2 5.7-4.8 8.6-.9 1.1-2 1.9-3.3 1.9H5.5L.2 34h9.5c2 0 3.9-.5 5.6-1.4 2.4-1.3 3.8-3.1 5.1-5.2.3-.4.5-.9.8-1.4l.3-.6c.1-.2.3-.5.4-.7.3-.5.6-1.1.9-1.7 1-1.8 2-3.6 3-5.5l.4-.8 2.3-4.2.3-.5.1-.2c1.3-2.2 3.9-3.6 6.2-1.9 2.2 1.6 1.9 4.3.9 6.3 0 0 0 .1-.1.1l-6 11.1-.3.5-.2.4-4.9 9c-3.2 5.9-3 13.5 2.2 18.2 3.8 3.4 9.4 4 13.9 1.6 2.6-1.4 4.1-3.4 5.5-5.7.3-.4.5-.9.8-1.4l4.2-7.5.1-.1c1-1.8 2-3.6 3.1-5.5l.1-.2.5-.9c1-.9 2.1-1.7 3.4-1.7 0-.1 0 0 0 0zM179.2 41.2c0 1.4-1.1 2.5-2.5 2.5s-2.5-1.1-2.5-2.5 1.1-2.5 2.5-2.5 2.5 1.2 2.5 2.5"/>
    <path fill="#fff"
          d="M160.3 19.3h-9v-4.6h23v4.6h-9v23.4h-5V19.3zM95.4 34.5c0 2.5-2.1 3.8-5.3 3.8h-8v-7.7h7.7c3.7.1 5.6 1.5 5.6 3.9zM82 19.1h7c3.1 0 4.9 1.4 4.9 3.6v.1c0 2.6-2.1 3.8-5.2 3.8H82v-7.5zm12.8 9.1c2.1-1.1 3.9-2.9 3.9-6.2v-.1c0-1.8-.6-3.4-1.9-4.6-1.6-1.6-4.1-2.5-7.2-2.5H77.2v28H90c6.2 0 10.2-2.7 10.2-7.7V35c0-3.8-2.2-5.7-5.4-6.8zM213.2 42.8h5v-28h-5v28zm-9.5-9.5c0-3.4-2.7-5.6-6-5.6s-5.8 2.2-5.8 5.5v.1c0 3.3 2.6 5.6 5.8 5.6 3.2 0 6-2.2 6-5.6m-15.5 15l1.7-3.5c2.2 1.3 4.5 2.1 7.2 2.1 4.2 0 6.4-2.1 6.4-6.2v-1.5c-1.7 2.2-3.8 3.7-7.2 3.7-4.8 0-9.2-3.5-9.2-9.5v-.1c0-6 4.5-9.6 9.2-9.6 3.4 0 5.5 1.6 7.1 3.5v-3h4.7v16.2c0 3.4-.9 6-2.6 7.7-1.8 1.8-4.7 2.7-8.3 2.7-3.2 0-6.3-.9-9-2.5m-52.7-16.7l4.9-11.2 4.9 11.2h-9.8zm7.4-16.7l-.1-.1H138l-.3.6-10.2 23h-17.3v-7.5h14.2v-4.4h-14.2v-7.3h16.1v-4.4h-21.1v28h25.5l2.9-6.8H147l2.9 6.8h5.3l-12.3-27.9z"/>
</svg>
