<svg xmlns:xlink="http://www.w3.org/1999/xlink" width="193" height="34" xmlns="http://www.w3.org/2000/svg">
    <defs>
        <path id="a" d="M0 .104h33.896V34H0z"/>
        <path id="c" d="M0 34h193V0H0z"/>
    </defs>
    <g fill="none" fill-rule="evenodd">
        <mask id="b" fill="#fff">
            <use xlink:href="#a"/>
        </mask>
        <path d="M16.948.104c-.857 0-1.7.064-2.523.187v5.443l.004-.001V17.04h5.013V5.727c5.206 1.141 9.103 5.777 9.103 11.325 0 6.405-5.192 11.597-11.597 11.597-6.404 0-11.596-5.192-11.596-11.597 0-3.198 1.296-6.09 3.39-8.188L4.952 5.08A16.894 16.894 0 0 0 0 17.052C0 26.412 7.588 34 16.948 34s16.948-7.588 16.948-16.948S26.308.104 16.948.104"
              fill="#3C3" mask="url(#b)"/>
        <path d="M59 17.5c0-.43-.032-.852-.094-1.265h-2.73v.001h-5.67v2.515h5.674A5.817 5.817 0 0 1 44.684 17.5a5.816 5.816 0 0 1 9.922-4.116l1.898-1.9A8.5 8.5 0 1 0 59 17.5m9.13-.569c2.07 0 3.388-1.051 3.388-2.674v-.045c0-1.715-1.27-2.652-3.412-2.652h-4.212v5.371h4.235zM61 9h7.341c2.07 0 3.694.594 4.753 1.6.87.868 1.365 2.057 1.365 3.452v.046c0 2.628-1.624 4.205-3.906 4.845L75 25h-3.435l-4.048-5.577h-3.623V25H61V9zm17 0h11.885v2.514h-9.068v4.16h8.038v2.537h-8.038v4.275H90V25H78zm15 0h11.886v2.514h-9.07v4.16h8.039v2.537h-8.038v4.275H105V25H93zm15 0h2.616l8.607 11.063V9H122v16h-2.364l-8.859-11.383V25H108zm17 0h2.755v13.44H136V25h-11z"
              fill="#FFF"/>
        <mask id="d" fill="#fff">
            <use xlink:href="#c"/>
        </mask>
        <path fill="#FFF" mask="url(#d)"
              d="M139 25h3V9h-3zm25-16h2.757v6.652h7.486V9H177v16h-2.757v-6.743h-7.486V25H164zm21.095 2.606H180V9h13v2.606h-5.095V25h-2.81zM161 17.5c0-.43-.032-.852-.094-1.265h-2.73v.002h-5.67v2.514h5.674a5.817 5.817 0 1 1-5.68-7.067 5.79 5.79 0 0 1 4.106 1.7l1.898-1.9A8.5 8.5 0 1 0 161 17.5"/>
    </g>
</svg>
