<svg xmlns="http://www.w3.org/2000/svg" viewBox="0 0 183.05 32">
    <g id="Layer_2" data-name="Layer 2">
        <g id="Layer_1-2" data-name="Layer 1">
            <path fill="#fff"
                  d="M16 0a15.6 15.6 0 0 0-2.38.18V16h4.73V5.31a11 11 0 1 1-10.1 3L4.68 4.7A16 16 0 1 0 16 0zM55.72 16a9.23 9.23 0 0 0-.08-1.18h-7.82v2.34h5.28a5.41 5.41 0 1 1-1.46-5l1.76-1.76a7.91 7.91 0 1 0 2.32 5.6zM58.25 8.33h6.83a6.17 6.17 0 0 1 4.43 1.54 4.62 4.62 0 0 1 1.27 3.3v.05a4.59 4.59 0 0 1-3.64 4.64l4.14 5.81h-3.2l-3.76-5.35h-3.38v5.35h-2.69zm6.64 7.6c1.92 0 3.15-1 3.15-2.56 0-1.65-1.18-2.54-3.18-2.54h-3.92v5.14zM73.76 8.33h11.36v2.41h-8.67v4h7.69v2.43h-7.69v4.1h8.78v2.41H73.76zM88.1 8.33h11.37v2.41h-8.68v4h7.69v2.43h-7.69v4.1h8.79v2.41H88.1zM102.45 8.33h2.49l8.22 10.61V8.33h2.65v15.34h-2.26l-8.45-10.91v10.91h-2.65zM118.74 8.33h2.7v12.88h8.06v2.46h-10.76zM132.1 8.33h2.7v15.34h-2.7zM155.4 8.33h2.7v6.38h7.31V8.33h2.7v15.34h-2.7V17.2h-7.31v6.47h-2.7zM175.47 10.83h-4.89v-2.5h12.47v2.5h-4.89v12.84h-2.69zM152.87 16a9.23 9.23 0 0 0-.08-1.18H145v2.34h5.28a5.41 5.41 0 1 1-1.46-5l1.76-1.77a7.91 7.91 0 1 0 2.32 5.6z"/>
        </g>
    </g>
</svg>
