<?xml version="1.0" encoding="UTF-8" standalone="no"?>
<svg width="168px" height="30px" viewBox="0 0 168 30" version="1.1" xmlns="http://www.w3.org/2000/svg"
     xmlns:xlink="http://www.w3.org/1999/xlink">
    <!-- Generator: Sketch 49 (51002) - http://www.bohemiancoding.com/sketch -->
    <title>gl_logo</title>
    <desc>Created with Sketch.</desc>
    <defs></defs>
    <g id="Page-1" stroke="none" stroke-width="1" fill="none" fill-rule="evenodd">
        <g id="Greenlight-Homepage_Botas_FINALversion_FIXES" transform="translate(-23.000000, -15.000000)">
            <g id="gl_logo" transform="translate(23.000000, 15.000000)">
                <path d="M14.6834276,0.0609512195 C13.940634,0.0609512195 13.210957,0.117658537 12.4978105,0.226012195 L12.4978105,4.47589024 L12.4980501,5.02686585 C12.499188,5.02662195 12.5002661,5.02631707 12.5014041,5.0260122 L12.5014041,14.9988171 L16.8440094,14.9988171 L16.8440094,5.02095122 C21.3540158,6.02753659 24.7306062,10.1161951 24.7306062,15.0099146 C24.7306062,20.659061 20.2323388,25.2385732 14.6835474,25.2385732 C9.13469604,25.2385732 4.63642866,20.659061 4.63642866,15.0099146 C4.63642866,12.1893049 5.75966289,9.63784146 7.57364364,7.78814634 L4.29072599,4.44979268 C1.63944043,7.15418293 -1.19786096e-05,10.8869878 -1.19786096e-05,15.0097927 C-1.19786096e-05,23.2658293 6.57396877,29.9585732 14.6834276,29.9585732 C22.7928265,29.9585732 29.3668672,23.2658293 29.3668672,15.0097927 C29.3668672,6.7537561 22.7928265,0.0609512195 14.6834276,0.0609512195"
                      id="Fill-1" fill="#33CC33"></path>
                <g class="text">
                    <path d="M51.1378524,15.0097744 C51.1378524,14.6360549 51.1103615,14.2688598 51.0577155,13.9100183 L48.9945797,13.9100183 L48.7271572,13.9101402 C48.7272171,13.91075 48.7273968,13.9112988 48.7273968,13.9112988 L43.8861219,13.9118476 L43.8861219,16.0969085 L48.7299722,16.0969085 C48.2413647,18.3661768 46.2565091,20.0652012 43.8807914,20.0652012 C41.1383487,20.0652012 38.9152385,17.8017866 38.9152385,15.0098354 C38.9152385,12.2178232 41.1383487,9.95453049 43.8807914,9.95453049 C45.2500663,9.95453049 46.4887144,10.5196524 47.386631,11.4323963 L49.007277,9.7805061 C47.6943615,8.44654268 45.8822374,7.62160366 43.8808513,7.62160366 C39.8729283,7.62160366 36.6238503,10.9294085 36.6238503,15.0097744 C36.6238503,19.0901402 39.8729283,22.3979451 43.8808513,22.3979451 C47.8887743,22.3979451 51.1378524,19.0901402 51.1378524,15.0097744"
                          id="Fill-4" fill="#FFFFFF"></path>
                    <path d="M59.547064,14.948378 C61.3161249,14.948378 62.441695,14.0069146 62.441695,12.5538659 L62.441695,12.5132561 C62.441695,10.9780732 61.3562533,10.1392927 59.5271196,10.1392927 L55.9287452,10.1392927 L55.9287452,14.948378 L59.547064,14.948378 Z M53.4564201,7.84703659 L59.727941,7.84703659 C61.4970019,7.84703659 62.8838255,8.37910976 63.7884501,9.27953659 C64.5323217,10.0571585 64.9543281,11.1213659 64.9543281,12.3699634 L64.9543281,12.411061 C64.9543281,14.7645366 63.5674447,16.1764878 61.6175666,16.7491707 L65.4167025,22.1725244 L62.482003,22.1725244 L59.0243773,17.1790488 L55.9287452,17.1790488 L55.9287452,22.1725244 L53.4564201,22.1725244 L53.4564201,7.84703659 Z"
                          id="Fill-6" fill="#FFFFFF"></path>
                    <polygon id="Fill-8" fill="#FFFFFF"
                             points="67.6862597 7.84701829 78.1189099 7.84701829 78.1189099 10.0982378 70.1585848 10.0982378 70.1585848 13.8230549 77.2143452 13.8230549 77.2143452 16.0942744 70.1585848 16.0942744 70.1585848 19.9213476 78.2193506 19.9213476 78.2193506 22.1725061 67.6862597 22.1725061"></polygon>
                    <polygon id="Fill-10" fill="#FFFFFF"
                             points="80.8508235 7.84701829 91.2835337 7.84701829 91.2835337 10.0982378 83.3231487 10.0982378 83.3231487 13.8230549 90.3789091 13.8230549 90.3789091 16.0942744 83.3231487 16.0942744 83.3231487 19.9213476 91.3839144 19.9213476 91.3839144 22.1725061 80.8508235 22.1725061"></polygon>
                    <polygon id="Fill-12" fill="#FFFFFF"
                             points="94.0156868 7.84701829 96.307135 7.84701829 103.845214 17.7522622 103.845214 7.84701829 106.277471 7.84701829 106.277471 22.1725061 104.206908 22.1725061 96.4478836 11.9811646 96.4478836 22.1725061 94.0156868 22.1725061"></polygon>
                    <polygon id="Fill-14" fill="#FFFFFF"
                             points="108.971694 7.84701829 111.444019 7.84701829 111.444019 19.8807378 118.841349 19.8807378 118.841349 22.1725061 108.971694 22.1725061"></polygon>
                    <polygon id="Fill-16" fill="#FFFFFF"
                             points="121.232214 22.1725 123.704539 22.1725 123.704539 7.8470122 121.232214 7.8470122"></polygon>
                    <polygon id="Fill-18" fill="#FFFFFF"
                             points="142.617206 7.84701829 145.089532 7.84701829 145.089532 13.8025061 151.803542 13.8025061 151.803542 7.84701829 154.276107 7.84701829 154.276107 22.1725061 151.803542 22.1725061 151.803542 16.135372 145.089532 16.135372 145.089532 22.1725061 142.617206 22.1725061"></polygon>
                    <polygon id="Fill-19" fill="#FFFFFF"
                             points="161.027886 10.1804024 156.545371 10.1804024 156.545371 7.8469878 167.983026 7.8469878 167.983026 10.1804024 163.500511 10.1804024 163.500511 22.1725366 161.027886 22.1725366"></polygon>
                    <path d="M140.294189,14.9925366 C140.294189,14.6188171 140.266638,14.251622 140.214052,13.8927805 L138.150916,13.8927805 L137.883434,13.8929024 L137.883853,13.8946098 L133.042458,13.8946098 L133.042458,16.0796707 L137.886308,16.0796707 C137.397701,18.348939 135.412785,20.0479024 133.037128,20.0479024 C130.294685,20.0479024 128.071575,17.7846098 128.071575,14.9925976 C128.071575,12.2005854 130.294685,9.93729268 133.037128,9.93729268 C134.406343,9.93729268 135.645051,10.5024146 136.542967,11.4151585 L138.163613,9.76326829 C136.850758,8.42930488 135.038574,7.60436585 133.037188,7.60436585 C129.029205,7.60436585 125.780187,10.9121707 125.780187,14.9925366 C125.780187,19.0729024 129.029205,22.3807073 133.037188,22.3807073 C137.045111,22.3807073 140.294189,19.0729024 140.294189,14.9925366"
                          id="Fill-20" fill="#FFFFFF"></path>
                </g>
            </g>
        </g>
    </g>
</svg>
