<svg xmlns="http://www.w3.org/2000/svg" viewBox="0 0 698.23 184.25">
    <g id="Layer_2" data-name="Layer 2">
        <g id="Layer_1-2" data-name="Layer 1">
            <path class="icon" fill="#05c3e6"
                  d="M115.1 0A69.17 69.17 0 0 0 49 49a69.16 69.16 0 1 0 86.3 86.3A69.16 69.16 0 0 0 115.1 0zM138 109a45.93 45.93 0 0 1-64-19.34 26.54 26.54 0 0 0-4.83-.45 25.8 25.8 0 0 0-17.71 7A69.45 69.45 0 0 0 88 132.81a68.39 68.39 0 0 0 21 5.19 45.93 45.93 0 1 1 1.31-43.44 25.49 25.49 0 0 0 4.82.46 25.82 25.82 0 0 0 17.71-7 69 69 0 0 0-57.56-41.8A46 46 0 1 1 138 109zM576.2 129.28a8.08 8.08 0 1 1-8.08-8.08 8.08 8.08 0 0 1 8.08 8.08z"/>
            <path fill="#fff"
                  d="M217.05 47.08H233v76h47.56v14.48h-63.51zM283.2 92.57v-.26c0-25.46 19.65-46.79 47.44-46.79s47.17 21.07 47.17 46.54v.25c0 25.47-19.65 46.79-47.43 46.79S283.2 118 283.2 92.57zm77.94 0v-.26c0-17.58-12.8-32.05-30.76-32.05s-30.51 14.22-30.51 31.8v.25c0 17.58 12.8 32.06 30.77 32.06s30.5-14.22 30.5-31.8zM387.75 92.57v-.26c0-25.46 19.64-46.79 47.43-46.79s47.18 21.07 47.18 46.54v.25c0 25.47-19.65 46.79-47.44 46.79s-47.17-21.1-47.17-46.53zm77.93 0v-.26c0-17.58-12.79-32.05-30.76-32.05s-30.5 14.22-30.5 31.8v.25c0 17.58 12.79 32.06 30.76 32.06s30.5-14.22 30.5-31.8zM495.09 47.08h35.67c21.2 0 34.38 12 34.38 30.24v.26c0 20.29-16.28 30.89-36.19 30.89H511v29.08h-15.9zm34.38 47c12 0 19.52-6.72 19.52-16.15v-.26c0-10.6-7.63-16.16-19.52-16.16H511v32.61zM682.46 47.08h15.77v90.48h-15.77zM605 155.15l5.63-11.39a43.2 43.2 0 0 0 23.53 6.89c13.51 0 20.9-6.89 20.9-20.15v-5c-5.51 7-12.39 12-23.28 12-15.65 0-30-11.52-30-30.92v-.25c0-19.53 14.65-31 30-31 11.14 0 18 5.13 23.15 11.26v-9.91h15.15v52.57c0 11.13-2.88 19.4-8.39 24.9-6 6-15.27 8.89-27.16 8.89a56.92 56.92 0 0 1-29.53-7.89zm50.18-48.68v-.26c0-10.76-8.88-18-19.4-18s-18.78 7.12-18.78 18v.26c0 10.76 8.38 18.14 18.77 18.14s19.4-7.38 19.4-18.14z"/>
        </g>
    </g>
</svg>
