<svg width="100" height="89" xmlns="http://www.w3.org/2000/svg" xmlns:xlink="http://www.w3.org/1999/xlink">
    <defs>
        <path id="a" d="M0 0h100v89H0z"/>
    </defs>
    <g fill="none" fill-rule="evenodd">
        <mask id="b" fill="#fff">
            <use xlink:href="#a"/>
        </mask>
        <path d="M32.163 29.81c0-4.893 1.992-9.325 5.213-12.535l3.987 3.963a12.06 12.06 0 0 0-3.567 8.571c0 6.705 5.463 12.14 12.203 12.14 6.739 0 12.202-5.435 12.202-12.14 0-5.809-4.1-10.662-9.578-11.858v11.846h-5.275v-11.84c0 .003-.003.003-.003.003v-5.699a18.202 18.202 0 0 1 2.654-.196c9.849 0 17.835 7.945 17.835 17.744s-7.986 17.744-17.835 17.744c-9.85 0-17.836-7.945-17.836-17.744M0 89h100c-6.092-15.949-19.636-28.249-36.43-32.618 9.724-4.928 16.391-14.97 16.391-26.573C79.961 13.347 66.545 0 50 0 33.452 0 20.036 13.347 20.036 29.81c0 11.602 6.664 21.644 16.392 26.572C19.633 60.752 6.089 73.052 0 89"
              fill="#C8C8C8" mask="url(#b)"/>
    </g>
</svg>
